<?xml version="1.0" standalone="no"?>
<!DOCTYPE svg PUBLIC "-//W3C//DTD SVG 20010904//EN"
 "http://www.w3.org/TR/2001/REC-SVG-20010904/DTD/svg10.dtd">
<svg version="1.0" xmlns="http://www.w3.org/2000/svg"
 width="1024.000000pt" height="1024.000000pt" viewBox="0 0 1024.000000 1024.000000"
 preserveAspectRatio="xMidYMid meet">
<metadata>
Created by potrace 1.11, written by Peter Selinger 2001-2013
</metadata>
<g transform="translate(0.000000,1024.000000) scale(0.100000,-0.100000)"
fill="#000000" stroke="none">
<path d="M2400 10229 c-684 -36 -1100 -165 -1508 -468 -112 -83 -330 -301
-413 -413 -256 -346 -389 -705 -444 -1198 -34 -314 -36 -546 -33 -3185 4
-2324 6 -2617 21 -2760 21 -208 42 -343 73 -484 127 -566 480 -1061 971 -1359
339 -206 669 -300 1208 -344 233 -19 5458 -19 5685 0 468 39 739 103 1017 241
173 85 250 132 388 237 392 295 688 774 789 1275 14 68 32 176 40 239 41 316
41 321 41 3130 0 2487 -1 2719 -17 2882 -51 518 -134 804 -329 1132 -96 161
-179 268 -323 412 -144 143 -251 228 -408 321 -379 224 -713 309 -1343 343
-214 11 -5199 11 -5415 -1z m2891 -3660 c590 -76 900 -451 999 -1208 28 -213
28 -795 0 -1076 -60 -608 -219 -879 -535 -914 -220 -25 -369 56 -465 253 -38
78 -80 214 -80 262 0 44 -18 33 -56 -34 -55 -95 -164 -200 -255 -244 -94 -46
-158 -59 -284 -59 -339 1 -528 192 -611 616 -25 127 -25 460 0 599 61 336 199
559 416 675 31 17 96 42 145 57 82 25 105 27 260 28 233 1 402 -35 599 -129
l76 -36 0 -617 c1 -629 7 -788 35 -873 22 -64 72 -109 123 -109 144 0 178 216
169 1060 -4 348 -9 482 -21 570 -43 302 -110 471 -240 608 -124 131 -292 192
-526 192 -292 0 -568 -107 -816 -317 -28 -24 -54 -43 -57 -43 -9 0 -247 279
-247 289 0 12 129 114 233 184 210 142 422 225 667 262 107 16 360 18 471 4z
m-3171 -71 c0 -7 20 -476 45 -1043 25 -566 45 -1055 46 -1085 1 -51 2 -52 9
-20 4 19 57 441 116 938 l108 902 283 0 282 0 6 -32 c3 -18 50 -438 105 -932
55 -495 102 -902 105 -904 3 -3 5 10 5 29 0 19 29 509 65 1089 36 580 65 1058
65 1063 0 4 129 7 286 7 l286 0 -6 -42 c-8 -58 -316 -2705 -316 -2718 0 -7
-113 -10 -339 -10 l-339 0 -6 38 c-8 47 -196 1891 -196 1916 0 73 -21 -98
-115 -929 -58 -517 -108 -959 -111 -982 l-6 -43 -344 0 -343 0 -5 33 c-3 17
-69 619 -146 1337 -77 718 -142 1326 -146 1353 l-6 47 306 0 c238 0 306 -3
306 -12z m4800 0 c0 -7 20 -474 45 -1038 25 -564 45 -1050 46 -1080 1 -47 2
-51 9 -25 4 17 57 436 116 933 l108 902 283 0 282 0 6 -32 c3 -18 50 -438 105
-932 55 -495 102 -902 105 -904 3 -3 5 11 5 31 0 21 29 512 65 1092 36 581 65
1058 65 1060 0 3 128 5 285 5 157 0 285 -2 285 -4 0 -2 -72 -621 -160 -1375
-88 -755 -160 -1376 -160 -1382 0 -5 -134 -9 -340 -9 l-339 0 -5 33 c-7 37
-196 1895 -196 1916 0 8 -2 12 -5 9 -3 -3 -225 -1926 -225 -1955 0 -2 -155 -3
-345 -3 l-344 0 -6 33 c-2 17 -68 619 -145 1337 -77 718 -143 1326 -146 1353
l-6 47 306 0 c238 0 306 -3 306 -12z"/>
<path d="M4795 5135 c-5 -2 -27 -6 -48 -10 -51 -8 -109 -62 -136 -126 -46
-106 -54 -183 -55 -504 -1 -326 5 -381 52 -469 44 -81 138 -108 229 -67 52 24
90 79 114 168 17 61 19 109 19 521 l0 453 -32 13 c-34 14 -126 28 -143 21z"/>
</g>
</svg>
