<?xml version="1.0" standalone="no"?>
<!DOCTYPE svg PUBLIC "-//W3C//DTD SVG 1.1//EN" "http://www.w3.org/Graphics/SVG/1.1/DTD/svg11.dtd" >
<svg xmlns="http://www.w3.org/2000/svg" xmlns:xlink="http://www.w3.org/1999/xlink" version="1.1">
<metadata>
Created by FontForge 20170731 at Tue Feb 19 21:55:40 2019
 By Aleksey,,,
Copyright (c) 2019 Hanken Grotesk by Alfredo Marco Pradil. All rights reserved.
</metadata>
<defs>
<font id="HankenGrotesk-Bold" horiz-adv-x="0" >
  <font-face 
    font-family="Hanken Grotesk"
    font-weight="700"
    font-stretch="normal"
    units-per-em="2048"
    panose-1="0 0 8 0 0 0 0 0 0 0"
    ascent="1570"
    descent="-478"
    x-height="1110"
    cap-height="1570"
    bbox="-1631 -641 2894 2504"
    underline-thickness="91"
    underline-position="-363"
    unicode-range="U+0020-FB02"
  />
<missing-glyph horiz-adv-x="1216" 
d="M151 1063h914v-1063h-914v1063zM967 99v865h-717v-865h717z" />
    <glyph glyph-name="fi" unicode="fi" horiz-adv-x="1207" 
d="M1067 0h-224v914h-390v-914h-241v914h-186v196h186v84q0 125 60.5 214.5t165.5 136.5t237 47q222 0 396 -114l-113 -171q-126 89 -279 89q-114 0 -170 -54.5t-56 -152.5v-79h614v-1110z" />
    <glyph glyph-name="fl" unicode="fl" horiz-adv-x="1339" 
d="M940.5 35q-67.5 57 -67.5 189v1128q-43 21 -94.5 32.5t-104.5 11.5q-126 0 -181 -69q-23 -30 -32 -73t-9 -111v-33h230v-196h-230v-914h-243v914h-183v196h183v38q0 98 24 179t86 142q62 62 153 92.5t206 30.5q119 0 214 -25t224 -91v-1195q0 -98 91 -98q35 0 66 9
l34 -182q-39 -14 -91 -23t-96 -9q-112 0 -179.5 57z" />
    <glyph glyph-name="f_f" unicode="ff" horiz-adv-x="1354" 
d="M212 914h-186v196h186v86q0 121 61.5 210.5t166 137.5t229.5 48q78 0 152.5 -19t136.5 -57q103 76 236 76q98 0 193 -46l-80 -199q-48 29 -91 29q-56 0 -89.5 -34t-33.5 -102v-130h237v-196h-237v-914h-251v914h-389v-914h-241v914zM844 1110v154q0 47 14 91
q-80 41 -178 41q-111 0 -169 -55.5t-58 -148.5v-82h391z" />
    <glyph glyph-name="f_f_i" unicode="ffi" horiz-adv-x="1852" 
d="M212 914h-186v196h186v86q0 121 61.5 210.5t166 137.5t229.5 48q85 0 167.5 -23.5t151.5 -70.5q127 94 315 94q120 0 217.5 -29.5t181.5 -84.5l-113 -171q-61 44 -131.5 66.5t-146.5 22.5q-114 0 -170.5 -54t-56.5 -153v-79h632v-1110h-241v914h-391v-914h-242v914h-389
v-914h-241v914zM842 1110v84q0 83 30 152q-38 23 -88 36.5t-104 13.5q-111 0 -169 -55.5t-58 -148.5v-82h389z" />
    <glyph glyph-name="f_f_l" unicode="ffl" horiz-adv-x="1942" 
d="M1910 10q-39 -14 -91 -23t-100 -9q-111 0 -177.5 57t-66.5 189v1140q-81 32 -170 32q-109 0 -165 -54t-56 -153v-79h222v-196h-222v-914h-242v914h-389v-914h-241v914h-186v196h186v86q0 121 61.5 210.5t166 137.5t229.5 48q83 0 167 -23.5t152 -70.5q60 45 140.5 69.5
t175.5 24.5q118 0 218.5 -30.5t193.5 -90.5v-1190q0 -49 22.5 -73.5t70.5 -24.5q36 0 67 9zM842 1110v84q0 80 28 152q-38 23 -86.5 36.5t-103.5 13.5q-111 0 -169 -55.5t-58 -148.5v-82h389z" />
    <glyph glyph-name="h_d_c_o.liga" unicode="hdco" horiz-adv-x="1948" 
d="M542.5 47.5q-197.5 115.5 -313 313t-115.5 431.5t115.5 431.5t313 313t431.5 115.5t431.5 -115.5t313 -313t115.5 -431.5t-115.5 -431.5t-313 -313t-431.5 -115.5t-431.5 115.5zM1365.5 116q179.5 105 284 284t104.5 392t-104.5 392t-283.5 283.5t-392 104.5t-392 -104.5
t-284 -284t-105 -391.5q0 -213 105 -392t284 -284t392 -105q212 0 391.5 105zM498.5 466q-11.5 11 -11.5 28v596q0 17 11.5 29t27.5 12q17 0 29 -12t12 -29v-596q0 -17 -12 -28t-29 -11q-16 0 -27.5 11zM946 466q-11 11 -11 28v596q0 17 11 29t28 12t28 -12t11 -29v-596
q0 -17 -11 -28t-28 -11t-28 11zM1388 469l-289 289q-13 13 -13 32q0 18 13 31l289 289q13 14 30 14q16 0 27 -11t11 -28q0 -16 -13 -29l-267 -266l267 -267q13 -13 13 -29q0 -17 -11 -28q-13 -11 -27 -11q-16 0 -30 14zM648 764q-11 11 -11 28t11 28t28 11h148q17 0 29 -11
t12 -28t-12 -28t-29 -11h-148q-17 0 -28 11z" />
    <glyph glyph-name="hyphen_hyphen.liga" unicode="&#x2d;&#x2d;" horiz-adv-x="1138" 
d="M0 762h1138v-174h-1138v174z" />
    <glyph glyph-name="hyphen_hyphen_hyphen.liga" unicode="&#x2d;&#x2d;&#x2d;" horiz-adv-x="2276" 
d="M0 762h2276v-174h-2276v174z" />
    <glyph glyph-name="hyphen_greater.liga" unicode="&#x2d;&#x3e;" horiz-adv-x="2304" 
d="M1351 185v425h-1234v174h1234v423l870 -511z" />
    <glyph glyph-name="parenleft_c_parenright.liga" unicode="&#x28;c&#x29;" horiz-adv-x="1897" 
d="M530 81q-192 109 -304 296t-112 408q0 222 112 409t304 296t419 109t418.5 -109t303.5 -296t112 -409q0 -221 -112 -408t-303.5 -296t-418.5 -109t-419 109zM1294 207q158 90 251 243.5t93 334.5t-93 334.5t-251 243.5t-345 90q-188 0 -347 -90t-252 -243.5t-93 -334.5
t93 -334.5t252 -243.5t347 -90q187 0 345 90zM730 361.5q-101 66.5 -152 178t-51 243.5q0 129 49.5 241t149.5 181t243 69q140 0 243.5 -68.5t156.5 -201.5l-180 -71q-26 78 -84.5 124.5t-135.5 46.5q-83 0 -139.5 -45t-83.5 -118t-27 -158q0 -86 27 -158t83.5 -115.5
t141.5 -43.5q78 0 135 45t81 122l170 -66q-45 -129 -146.5 -200.5t-238.5 -71.5q-141 0 -242 66.5z" />
    <glyph glyph-name="parenleft_p_parenright.liga" unicode="&#x28;p&#x29;" horiz-adv-x="1897" 
d="M530 81q-192 109 -304 296t-112 408q0 222 112 409t304 296t419 109t418.5 -109t303.5 -296t112 -409q0 -221 -112 -408t-303.5 -296t-418.5 -109t-419 109zM1294 207q158 90 251 243.5t93 334.5t-93 334.5t-251 243.5t-345 90q-188 0 -347 -90t-252 -243.5t-93 -334.5
t93 -334.5t252 -243.5t347 -90q187 0 345 90zM774 1183l550 -396l-550 -398v794z" />
    <glyph glyph-name="parenleft_r_parenright.liga" unicode="&#x28;r&#x29;" horiz-adv-x="1897" 
d="M530 81q-192 109 -304 296t-112 408q0 222 112 409t304 296t419 109t418.5 -109t303.5 -296t112 -409q0 -221 -112 -408t-303.5 -296t-418.5 -109t-419 109zM1294 207q158 90 251 243.5t93 334.5t-93 334.5t-251 243.5t-345 90q-188 0 -347 -90t-252 -243.5t-93 -334.5
t93 -334.5t252 -243.5t347 -90q187 0 345 90zM676 1256h291q96 0 170 -34t115 -96t41 -144q0 -86 -49.5 -150.5t-135.5 -93.5l260 -424h-176l-234 408q-17 -1 -51 -1h-79v-407h-152v942zM981 847q76 2 117.5 37.5t41.5 95.5q0 65 -45.5 102.5t-125.5 37.5h-141v-273h153z
" />
    <glyph glyph-name="less_hyphen.liga" unicode="&#x3c;&#x2d;" horiz-adv-x="2304" 
d="M2187 588h-1234v-424l-870 511l870 511v-424h1234v-174z" />
    <glyph glyph-name=".notdef" horiz-adv-x="1216" 
d="M151 1063h914v-1063h-914v1063zM967 99v865h-717v-865h717z" />
    <glyph glyph-name=".null" 
 />
    <glyph glyph-name="nonmarkingreturn" horiz-adv-x="682" 
 />
    <glyph glyph-name="space" unicode=" " horiz-adv-x="560" 
 />
    <glyph glyph-name="exclam" unicode="!" horiz-adv-x="694" 
d="M232 1570h228l-27 -1106h-175zM270.5 -3q-34.5 20 -54.5 54.5t-20 75.5q0 40 20 73.5t54.5 53.5t75.5 20q40 0 74 -20t54 -53.5t20 -73.5q0 -41 -20 -75.5t-54 -54.5t-74 -20q-41 0 -75.5 20z" />
    <glyph glyph-name="quotedbl" unicode="&#x22;" horiz-adv-x="990" 
d="M210 1570h194v-694h-194v694zM586 1570h193v-694h-193v694z" />
    <glyph glyph-name="numbersign" unicode="#" horiz-adv-x="1554" 
d="M368 465h-264v163h299l70 338h-277v171h311l101 433h182l-98 -440h316l95 440h182l-99 -440h266v-164h-302l-73 -338h283v-163h-318l-98 -465h-181l99 465h-316l-97 -465h-180zM901 628l68 338h-316l-68 -338h316z" />
    <glyph glyph-name="dollar" unicode="$" horiz-adv-x="1281" 
d="M1131 221.5q-58 -104.5 -164 -166t-248 -71.5v-275h-99v274q-136 8 -251 62.5t-192.5 154.5t-100.5 240l264 66q15 -131 89.5 -203t190.5 -83v500l-28 11q-136 51 -221 96.5t-144 127.5t-59 209q0 128 60.5 222.5t163 146.5t228.5 58v252h99v-255q129 -13 233.5 -80
t173.5 -188l-220 -136q-33 63 -81 104t-106 58v-404q152 -54 243.5 -101t159 -139t67.5 -241q0 -135 -58 -239.5zM482.5 1060.5q47.5 -44.5 137.5 -81.5v376q-81 -7 -133 -56.5t-52 -124.5q0 -69 47.5 -113.5zM871 294q53 59 53 143q0 87 -53.5 143t-151.5 100v-458
q99 13 152 72z" />
    <glyph glyph-name="percent" unicode="%" horiz-adv-x="1632" 
d="M268.5 916q-73.5 47 -113.5 129.5t-40 186.5q0 102 39.5 184t111 129t164.5 47q91 0 164 -47.5t114.5 -130.5t41.5 -185q0 -101 -40.5 -183.5t-112 -129.5t-160.5 -47q-95 0 -168.5 47zM1196 1570h181l-939 -1570h-181zM509 1064.5q32 24.5 50.5 67.5t18.5 97
q0 86 -40.5 138.5t-107.5 52.5q-66 0 -104 -51.5t-38 -136.5q0 -87 39.5 -139.5t109.5 -52.5q40 0 72 24.5zM1036 25q-73 47 -113 130t-40 186q0 102 39.5 184t110.5 129t164 47q91 0 164 -47.5t114.5 -130t41.5 -184.5q0 -101 -40.5 -183.5t-112 -130t-160.5 -47.5
q-95 0 -168 47zM1276.5 174.5q32.5 24.5 50.5 67.5t18 97q0 85 -40.5 138t-107.5 53q-66 0 -104.5 -52t-38.5 -137q0 -86 40 -138.5t110 -52.5q40 0 72.5 24.5z" />
    <glyph glyph-name="ampersand" unicode="&#x26;" horiz-adv-x="1601" 
d="M1305 -83l-190 218q-101 -80 -224.5 -119.5t-260.5 -39.5q-149 0 -266 45t-184 134.5t-67 216.5q0 110 50 196.5t128.5 150t189.5 127.5q-77 78 -134 171t-57 204q0 109 60 193t158.5 129t210.5 45q116 0 211 -49.5t149 -135t54 -189.5q0 -127 -77.5 -223.5
t-215.5 -186.5l255 -287h25q69 156 76 353l243 -27q-29 -320 -164 -529l210 -237zM678 958q107 63 163.5 124t56.5 137q0 45 -21 84t-61.5 62t-96.5 23q-52 0 -93.5 -20t-65 -56t-23.5 -83q0 -110 141 -271zM815 205q85 33 155 96l-331 380q-89 -54 -148 -100t-95 -100
t-36 -116q0 -94 78 -143.5t196 -49.5q96 0 181 33z" />
    <glyph glyph-name="quotesingle" unicode="'" horiz-adv-x="614" 
d="M210 1570h194v-694h-194v694z" />
    <glyph glyph-name="parenleft" unicode="(" horiz-adv-x="641" 
d="M255 121q-61 150 -93.5 325.5t-32.5 338.5q0 293 70 523.5t195 373.5h208q-291 -357 -291 -901q0 -282 70 -494t219 -403h-203q-81 87 -142 237z" />
    <glyph glyph-name="parenright" unicode=")" horiz-adv-x="641" 
d="M41 -116q149 191 219 403t70 494q0 544 -291 901h208q125 -143 195 -373.5t70 -523.5q0 -163 -32.5 -338.5t-93.5 -325.5t-142 -237h-203z" />
    <glyph glyph-name="asterisk" unicode="*" horiz-adv-x="1011" 
d="M218 1010l181 199l-260 38l62 177l239 -103l-33 249h197l-34 -249l239 103l60 -177l-260 -38l182 -199l-161 -107l-126 253l-126 -253z" />
    <glyph glyph-name="plus" unicode="+" horiz-adv-x="1283" 
d="M554 608h-486v174h486v485h174v-485h486v-174h-486v-487h-174v487z" />
    <glyph glyph-name="comma" unicode="," horiz-adv-x="720" 
d="M496 208q49 -67 49 -164q0 -74 -28.5 -155t-91.5 -149t-162 -97l-54 120q90 36 134 94.5t45 130.5q-28 -11 -59 -11q-61 0 -103 38t-42 104q0 69 45 111.5t113 42.5q105 2 154 -65z" />
    <glyph glyph-name="hyphen" unicode="-" horiz-adv-x="969" 
d="M168 762h633v-174h-633v174z" />
    <glyph glyph-name="period" unicode="." horiz-adv-x="695" 
d="M273.5 -3q-34.5 20 -54.5 54.5t-20 75.5q0 40 20 73.5t54.5 53.5t75.5 20q40 0 73.5 -20t53.5 -53.5t20 -73.5q0 -41 -20 -75.5t-53.5 -54.5t-73.5 -20q-41 0 -75.5 20z" />
    <glyph glyph-name="slash" unicode="/" horiz-adv-x="997" 
d="M799 1682h215l-816 -2047h-215z" />
    <glyph glyph-name="zero" unicode="0" horiz-adv-x="1283" 
d="M319.5 100.5q-111.5 123.5 -144.5 296.5t-33 388q0 219 32 391.5t142 295.5t325 123q209 0 320.5 -120.5t147.5 -296.5t36 -394q0 -217 -36 -392t-146 -295t-316 -120q-216 0 -327.5 123.5zM805 285.5q53 82.5 67.5 203.5t14.5 297q0 177 -14.5 297t-68.5 201t-163 81
t-163 -81t-68.5 -201t-14.5 -298t15 -298.5t69.5 -202t165.5 -81.5q107 0 160 82.5z" />
    <glyph glyph-name="one" unicode="1" horiz-adv-x="1283" 
d="M875 1570v-1570h-259v1126h-371v198h219q79 0 121 30t42 114v102h248z" />
    <glyph glyph-name="two" unicode="2" horiz-adv-x="1283" 
d="M107 208l481 434q95 85 154.5 153t92.5 141t33 156q0 74 -27 134t-82.5 95.5t-137.5 35.5q-141 0 -208.5 -100.5t-72.5 -249.5l-254 16q0 151 65 280.5t189.5 207.5t295.5 78q153 0 264 -64.5t168.5 -175t57.5 -245.5q0 -110 -44.5 -212t-125 -200t-204.5 -214l-239 -221
v-21h691v-236h-1097v208z" />
    <glyph glyph-name="three" unicode="3" horiz-adv-x="1283" 
d="M350.5 35.5q-129.5 58.5 -207 175t-77.5 281.5l247 13q0 -89 42.5 -154.5t117.5 -100t169 -34.5q85 0 154 30t110 90t41 146q0 102 -59.5 154t-160.5 69q-42 8 -95 11t-126 3v208q75 0 125 4.5t85 17.5q69 20 107 68t38 123q0 68 -31.5 115.5t-86.5 72t-123 24.5
q-77 0 -135.5 -29t-90.5 -82.5t-32 -125.5l-246 16q0 141 67 246t181 160.5t250 55.5q132 0 245.5 -52.5t182 -150.5t68.5 -229q0 -92 -43 -178t-119 -138v-10q116 -42 181.5 -143t65.5 -231q0 -152 -75 -261.5t-202.5 -166t-280.5 -56.5q-157 0 -286.5 58.5z" />
    <glyph glyph-name="four" unicode="4" horiz-adv-x="1283" 
d="M754 370h-738v152l775 1048h223v-965h248v-235h-248v-370h-260v370zM754 605v548h-14l-384 -537l8 -11h390z" />
    <glyph glyph-name="five" unicode="5" horiz-adv-x="1283" 
d="M932.5 991q121.5 -68 194 -191t72.5 -280q0 -156 -73 -280t-201 -193.5t-287 -69.5q-143 0 -262 56t-196 156t-99 229l244 64q10 -77 52 -137t109.5 -93.5t149.5 -33.5q90 0 161.5 39.5t111.5 109.5t40 159q0 87 -40 156t-111 108t-160 39q-94 0 -168.5 -44t-112.5 -122
l-232 71l137 836h861v-239h-659l-50 -341q55 35 120.5 52t133.5 17q143 0 264.5 -68z" />
    <glyph glyph-name="six" unicode="6" horiz-adv-x="1283" 
d="M931 996q128 -70 200 -194t72 -280q0 -157 -72.5 -281t-199.5 -194t-286 -70q-161 0 -289.5 70.5t-201 192t-72.5 267.5q0 86 25.5 178t71.5 164l454 721h297l-317 -505q10 1 30 1q160 0 288 -70zM803.5 257q71.5 39 112 108.5t40.5 156.5t-41 156t-112.5 108t-159.5 39
q-89 0 -160.5 -39.5t-112 -108.5t-40.5 -155q0 -87 40.5 -156.5t112 -108.5t160.5 -39t160.5 39z" />
    <glyph glyph-name="seven" unicode="7" horiz-adv-x="1283" 
d="M890 1321v11h-811v238h1130v-135l-708 -1435h-286z" />
    <glyph glyph-name="eight" unicode="8" horiz-adv-x="1283" 
d="M367 30.5q-128 53.5 -206 160t-78 258.5q0 130 59.5 232t172.5 162v14q-73 55 -112.5 136.5t-39.5 178.5q0 128 67 223.5t177.5 146.5t235.5 51q128 0 238 -52t176 -148t66 -223q0 -96 -40 -178t-112 -135v-14q112 -60 171 -162t59 -232q0 -152 -78 -258.5t-205.5 -160
t-274.5 -53.5q-148 0 -276 53.5zM764 959q53 26 83 73t30 109q0 65 -29 115t-82 78t-122 28q-67 0 -120 -27t-83 -76.5t-30 -113.5t29.5 -112t82.5 -74t121 -26q67 0 120 26zM797.5 241q67.5 33 105.5 94t38 142q0 80 -37.5 142.5t-105.5 97t-155 34.5t-155 -34.5
t-105.5 -97t-37.5 -142.5q0 -81 38 -142t105.5 -94t154.5 -33t154.5 33z" />
    <glyph glyph-name="nine" unicode="9" horiz-adv-x="1283" 
d="M926.5 1522.5q128.5 -70.5 201 -192t72.5 -267.5q0 -86 -25.5 -178t-71.5 -164l-454 -721h-297l317 505q-10 -1 -30 -1q-160 0 -288 70t-200 194t-72 280q0 157 72.5 281t199.5 194t286 70q161 0 289.5 -70.5zM799.5 784.5q71.5 39.5 112 108.5t40.5 155
q0 87 -40.5 156.5t-112 108.5t-160.5 39t-160.5 -39t-112 -108.5t-40.5 -156.5t41 -156t112.5 -108t159.5 -39q89 0 160.5 39.5z" />
    <glyph glyph-name="colon" unicode=":" horiz-adv-x="678" 
d="M264.5 806q-34.5 20 -54.5 54t-20 75q0 40 20 74t54.5 54t75.5 20q40 0 73.5 -20t53.5 -54t20 -74q0 -41 -20 -75t-53.5 -54t-73.5 -20q-41 0 -75.5 20zM264.5 -3q-34.5 20 -54.5 54.5t-20 75.5q0 40 20 73.5t54.5 53.5t75.5 20q40 0 73.5 -20t53.5 -53.5t20 -73.5
q0 -41 -20 -75.5t-53.5 -54.5t-73.5 -20q-41 0 -75.5 20z" />
    <glyph glyph-name="semicolon" unicode=";" horiz-adv-x="699" 
d="M259 806q-34 20 -54.5 54t-20.5 75q0 40 20 74t54 54t75 20q40 0 74 -20t54 -54t20 -74q0 -41 -20 -75t-54 -54t-74 -20t-74 20zM496 208q49 -67 49 -164q0 -74 -28.5 -155t-92 -149t-162.5 -97l-53 120q89 35 133 94t45 131q-28 -11 -59 -11q-61 0 -102.5 38t-41.5 104
q0 69 45 111.5t113 42.5q105 2 154 -65z" />
    <glyph glyph-name="less" unicode="&#x3c;" horiz-adv-x="1283" 
d="M-3 666l1171 667l87 -150l-906 -517l906 -518l-87 -151z" />
    <glyph glyph-name="equal" unicode="=" horiz-adv-x="1283" 
d="M189 1083h906v-196h-906v196zM189 605h906v-195h-906v195z" />
    <glyph glyph-name="greater" unicode="&#x3e;" horiz-adv-x="1283" 
d="M28 148l906 518l-906 517l87 150l1171 -667l-1171 -669z" />
    <glyph glyph-name="question" unicode="?" horiz-adv-x="927" 
d="M256 572q0 104 30 172.5t73.5 108.5t112.5 86q56 37 88 65t53.5 70.5t21.5 101.5q0 110 -71 168.5t-192 58.5q-57 0 -116 -16t-108 -46l-63 192q64 28 138.5 43t145.5 15q136 0 241.5 -48.5t165.5 -142.5t60 -227q0 -93 -29 -156t-70 -101.5t-109 -84.5
q-59 -40 -94 -70.5t-58.5 -77.5t-23.5 -113v-110h-196v112zM279.5 -3q-34.5 20 -54.5 54.5t-20 75.5q0 40 20 73.5t54.5 53.5t75.5 20q40 0 73.5 -20t53.5 -53.5t20 -73.5q0 -41 -20 -75.5t-53.5 -54.5t-73.5 -20q-41 0 -75.5 20z" />
    <glyph glyph-name="at" unicode="@" horiz-adv-x="2229" 
d="M607.5 -267.5q-220.5 121.5 -345.5 341.5t-125 503q0 286 126 518t351.5 365t511.5 133q279 0 499.5 -125t345 -347.5t124.5 -503.5q0 -196 -61.5 -355t-177 -251t-270.5 -92q-106 0 -170.5 50t-83.5 144q-12 48 -12 126h-15q-61 -90 -148.5 -141t-196.5 -51
q-110 0 -194.5 49.5t-132 146.5t-47.5 234q0 175 74 337t205.5 263.5t296.5 101.5q101 0 168 -44t97 -126h11l27 112h157l-32 -154q-64 -300 -93.5 -462.5t-29.5 -261.5q0 -87 31.5 -130.5t103.5 -43.5q101 0 177 72.5t117.5 197.5t41.5 278q0 239 -100.5 427.5t-284 294.5
t-423.5 106q-247 0 -437 -113.5t-294.5 -311t-104.5 -443.5q0 -243 104 -428.5t288.5 -287.5t419.5 -102q76 0 144 12t140 39l50 -143q-87 -29 -167 -42.5t-167 -13.5q-278 0 -498.5 121.5zM1177.5 287q95.5 83 148 212.5t52.5 261.5q0 260 -213 260q-122 0 -218 -79
t-149 -205.5t-53 -263.5q0 -138 56.5 -203.5t158.5 -65.5q122 0 217.5 83z" />
    <glyph glyph-name="A" unicode="A" horiz-adv-x="1526" 
d="M1082 342h-634l-117 -342h-290l573 1570h300l571 -1570h-288zM1002 578l-225 668h-20l-228 -668h473z" />
    <glyph glyph-name="B" unicode="B" horiz-adv-x="1456" 
d="M221 1570h503q118 0 222 -16t186 -74q69 -48 107 -120.5t38 -179.5q0 -127 -53 -208.5t-143 -120.5v-20q124 -39 189.5 -133.5t65.5 -235.5q0 -106 -38.5 -198.5t-118.5 -156.5q-135 -107 -379 -107h-579v1570zM720 935q82 0 133 8.5t86 33.5q71 51 71 162q0 98 -59 143
q-34 30 -87.5 40.5t-125.5 10.5h-251v-398h233zM744 237q90 0 152 12.5t109 54.5q66 57 66 174q0 135 -91 186q-36 21 -88 28t-133 7h-272v-462h257z" />
    <glyph glyph-name="C" unicode="C" horiz-adv-x="1633" 
d="M461 75.5q-168 97.5 -257.5 280t-89.5 430.5t89.5 430t257.5 279t398 97q255 0 431.5 -118t255.5 -335l-249 -96q-51 151 -164 232t-274 81q-148 0 -256 -69t-165.5 -197.5t-57.5 -303.5q0 -176 57 -305t165 -198t256 -69q165 0 280 86.5t166 243.5l255 -79
q-75 -233 -256 -360t-445 -127q-229 0 -397 97.5z" />
    <glyph glyph-name="D" unicode="D" horiz-adv-x="1599" 
d="M221 1570h381q173 0 290.5 -19.5t198 -57t154.5 -99.5q119 -100 180.5 -257t61.5 -363q0 -403 -245 -604q-75 -62 -158 -98.5t-199 -54t-285 -17.5h-379v1570zM575 237q138 0 226.5 13.5t147.5 41.5t114 77q158 141 158 415q0 136 -38.5 241t-110.5 174
q-54 51 -113.5 79.5t-144.5 41.5t-216 13h-111v-1096h88z" />
    <glyph glyph-name="E" unicode="E" horiz-adv-x="1380" 
d="M221 1570h996v-237h-730v-430h674v-235h-674v-431h776v-237h-1042v1570z" />
    <glyph glyph-name="F" unicode="F" horiz-adv-x="1296" 
d="M221 1570h999v-237h-733v-430h634v-235h-634v-668h-266v1570z" />
    <glyph glyph-name="G" unicode="G" horiz-adv-x="1729" 
d="M1568 843v-843h-216l-16 129h-29q-73 -68 -193.5 -109.5t-263.5 -41.5q-225 0 -391 98t-255 281t-89 433q0 246 89.5 427t257.5 278t397 97q256 0 433 -118.5t255 -334.5l-249 -96q-51 151 -164 232t-275 81q-147 0 -255 -68.5t-165.5 -196t-57.5 -301.5q0 -176 60 -306
t172.5 -200t267.5 -70q135 0 234 47.5t153.5 136t58.5 210.5h-435v235h676z" />
    <glyph glyph-name="H" unicode="H" horiz-adv-x="1699" 
d="M221 1570h266v-665h725v665h266v-1570h-266v668h-725v-668h-266v1570z" />
    <glyph glyph-name="I" unicode="I" horiz-adv-x="708" 
d="M221 1570h266v-1570h-266v1570z" />
    <glyph glyph-name="J" unicode="J" horiz-adv-x="1303" 
d="M387.5 2.5q-89.5 24.5 -153.5 72.5q-85 62 -130 162.5t-46 234.5l266 39q2 -170 94 -241q59 -56 167 -56q137 0 203 76q30 36 43 96t13 184v763h-597v237h863v-1000q0 -168 -27 -272.5t-95 -175.5q-136 -144 -403 -144q-108 0 -197.5 24.5z" />
    <glyph glyph-name="K" unicode="K" horiz-adv-x="1609" 
d="M1562 0h-315l-457 777h-22l-281 -284v-493h-266v1570h266v-704h20l691 704h356l-585 -591z" />
    <glyph glyph-name="L" unicode="L" horiz-adv-x="1208" 
d="M221 1570h266v-1333h676v-237h-942v1570z" />
    <glyph glyph-name="M" unicode="M" horiz-adv-x="1955" 
d="M221 1570h448l298 -934h21l299 934h447v-1570h-265v1304h-22l-315 -966h-308l-315 966h-22v-1304h-266v1570z" />
    <glyph glyph-name="N" unicode="N" horiz-adv-x="1699" 
d="M221 1570h395l574 -1225h22v1225h266v-1570h-397l-572 1228h-22v-1228h-266v1570z" />
    <glyph glyph-name="O" unicode="O" horiz-adv-x="1718" 
d="M460.5 76.5q-167.5 98.5 -257 280.5t-89.5 428t89.5 428t257 280.5t397.5 98.5t398.5 -98t258 -280t89.5 -429t-89.5 -429t-258 -280t-398.5 -98t-397.5 98.5zM1114.5 283.5q108.5 69.5 166.5 198.5t58 303q0 175 -58 303.5t-166 198t-257 69.5q-148 0 -255.5 -69.5
t-165 -198t-57.5 -303.5q0 -174 57.5 -303t165 -198.5t255.5 -69.5t256.5 69.5z" />
    <glyph glyph-name="P" unicode="P" horiz-adv-x="1338" 
d="M221 1570h471q164 0 262 -24t164 -78q71 -57 107 -146t36 -207q0 -116 -35 -205t-103 -147q-66 -56 -166.5 -82t-264.5 -26h-205v-655h-266v1570zM614 891q103 0 161.5 4.5t96 18t63.5 39.5q29 29 44 69.5t15 97.5q0 101 -55 158q-26 24 -64 36t-96.5 15.5t-164.5 3.5
h-127v-442h127z" />
    <glyph glyph-name="Q" unicode="Q" horiz-adv-x="1739" 
d="M1554.5 454.5q-49.5 -148.5 -144.5 -253.5l162 -155l-150 -159l-184 179q-165 -88 -380 -88q-230 0 -397.5 98.5t-257 280.5t-89.5 428t89.5 428t257 280.5t397.5 98.5t398.5 -98t258 -280t89.5 -429q0 -182 -49.5 -330.5zM1049 249l-234 227l146 153l260 -248
q58 74 88 176.5t30 227.5q0 175 -58 303.5t-166 198t-257 69.5q-148 0 -255.5 -69.5t-165 -198t-57.5 -303.5q0 -174 57.5 -303t165 -198.5t255.5 -69.5q104 0 191 35z" />
    <glyph glyph-name="R" unicode="R" horiz-adv-x="1447" 
d="M1084 0l-382 655h-44h-171v-655h-266v1570h437q181 0 287.5 -24.5t172.5 -77.5q71 -57 107 -146t36 -207q0 -116 -35 -205t-103 -147q-58 -48 -137 -72v-27l413 -664h-315zM775.5 895.5q58.5 4.5 96 18t63.5 39.5q29 29 44 69.5t15 97.5q0 101 -55 158q-26 24 -64 36
t-96.5 15.5t-164.5 3.5h-127v-442h127q103 0 161.5 4.5z" />
    <glyph glyph-name="S" unicode="S" horiz-adv-x="1281" 
d="M395 33.5q-125 51.5 -210 155t-109 251.5l264 66q16 -143 102.5 -215.5t220.5 -72.5q84 0 143 28.5t88.5 78.5t29.5 112q0 79 -44 132t-110 86t-179 76q-138 52 -221.5 97.5t-142.5 127t-59 208.5q0 133 65 230t175 147.5t242 50.5q151 0 274.5 -67.5t201.5 -204.5
l-220 -136q-43 83 -111.5 127.5t-150.5 44.5q-59 0 -106.5 -23t-75 -64.5t-27.5 -94.5q0 -61 38.5 -103t96.5 -69t161 -64q145 -52 236 -99.5t156.5 -139.5t65.5 -238q0 -144 -65 -252.5t-183.5 -167.5t-274.5 -59q-146 0 -271 51.5z" />
    <glyph glyph-name="T" unicode="T" horiz-adv-x="1354" 
d="M545 1333h-499v237h1262v-237h-498v-1333h-265v1333z" />
    <glyph glyph-name="U" unicode="U" horiz-adv-x="1570" 
d="M526.5 15.5q-113.5 37.5 -189.5 107.5q-76 71 -112 181.5t-36 300.5v965h266v-956q0 -123 16.5 -192.5t58.5 -114.5q41 -44 105.5 -68.5t149.5 -24.5q165 0 255 93q41 43 58 110t17 197v956h266v-965q0 -190 -35 -300t-113 -182q-74 -70 -188 -107.5t-260 -37.5
q-145 0 -258.5 37.5z" />
    <glyph glyph-name="V" unicode="V" horiz-adv-x="1526" 
d="M41 1570h288l421 -1246h21l424 1246h290l-574 -1570h-299z" />
    <glyph glyph-name="W" unicode="W" horiz-adv-x="2453" 
d="M41 1570h288l422 -1247h20l311 1071h289l312 -1071h19l422 1247h288l-571 -1570h-315l-288 1016h-23l-288 -1016h-315z" />
    <glyph glyph-name="X" unicode="X" horiz-adv-x="1522" 
d="M587 786l-534 784h318l381 -586h15l383 586h319l-535 -784l537 -786h-316l-390 579h-13l-384 -579h-318z" />
    <glyph glyph-name="Y" unicode="Y" horiz-adv-x="1503" 
d="M618 585l-594 985h311l406 -692h20l407 692h311l-595 -985v-585h-266v585z" />
    <glyph glyph-name="Z" unicode="Z" horiz-adv-x="1412" 
d="M97 238l846 1074v21h-814v237h1153v-241l-846 -1075v-17h882v-237h-1221v238z" />
    <glyph glyph-name="bracketleft" unicode="[" horiz-adv-x="726" 
d="M213 1734h458v-154h-272v-1593h272v-154h-458v1901z" />
    <glyph glyph-name="backslash" unicode="\" horiz-adv-x="997" 
d="M799 -365l-816 2047h215l816 -2047h-215z" />
    <glyph glyph-name="bracketright" unicode="]" horiz-adv-x="726" 
d="M55 -167v154h272v1593h-272v154h458v-1901h-458z" />
    <glyph glyph-name="asciicircum" unicode="^" horiz-adv-x="1283" 
d="M641 1651l591 -1171h-243l-348 737l-345 -737h-244z" />
    <glyph glyph-name="underscore" unicode="_" horiz-adv-x="1265" 
d="M168 0h929v-174h-929v174z" />
    <glyph glyph-name="grave" unicode="`" horiz-adv-x="581" 
d="M41 1570h246l234 -320h-175z" />
    <glyph glyph-name="a" unicode="a" horiz-adv-x="1212" 
d="M1047.5 856q16.5 -71 16.5 -184v-672h-222l-22 94h-20q-43 -46 -105 -74q-92 -42 -207 -42q-125 0 -217.5 44t-142 125.5t-49.5 189.5q0 206 167 288q54 26 125.5 37.5t192.5 11.5h256q-1 79 -14 125.5t-45 74.5q-30 26 -77.5 39.5t-106.5 13.5q-82 0 -164.5 -34.5
t-157.5 -102.5l-147 163q105 87 225 133t244 46q145 0 249.5 -39t163.5 -115q41 -51 57.5 -122zM803.5 348.5q14.5 54.5 16.5 128.5h-294q-57 0 -93 -8t-63 -31q-23 -19 -34 -42t-11 -60q0 -74 52 -119t153 -45q66 0 123 21.5t97 61.5q39 39 53.5 93.5z" />
    <glyph glyph-name="b" unicode="b" horiz-adv-x="1328" 
d="M579.5 5.5q-80.5 27.5 -137.5 78.5h-21l-23 -84h-220v1570h243v-547h21q57 51 136.5 80t173.5 29q150 0 259 -68.5t167 -198t58 -310.5t-58 -310.5t-167 -198t-260 -68.5q-91 0 -171.5 27.5zM913.5 279q77.5 96 77.5 276t-77.5 276t-215.5 96q-93 0 -160 -44
t-102.5 -127.5t-35.5 -200.5q0 -118 36 -201.5t103 -127t159 -43.5q138 0 215.5 96z" />
    <glyph glyph-name="c" unicode="c" horiz-adv-x="1134" 
d="M324.5 54q-117.5 76 -180 207t-62.5 294q0 161 62 292.5t179.5 208t277.5 76.5q173 0 297.5 -88.5t175.5 -247.5l-224 -74q-27 93 -91.5 147t-157.5 54t-154.5 -50t-90 -133t-28.5 -185q0 -101 28.5 -184t89.5 -133t155 -50q93 0 157.5 54.5t89.5 145.5l222 -69
q-32 -105 -98.5 -182t-161.5 -118t-209 -41q-159 0 -276.5 76z" />
    <glyph glyph-name="d" unicode="d" horiz-adv-x="1328" 
d="M317 46.5q-109 68.5 -167 198t-58 310.5t58 310.5t167 198t259 68.5q94 0 173.5 -29t136.5 -80h21v547h243v-1570h-220l-23 84h-21q-57 -51 -137.5 -78.5t-171.5 -27.5q-151 0 -260 68.5zM789 226.5q67 43.5 103 127t36 201.5q0 117 -35.5 200.5t-102.5 127.5t-160 44
q-138 0 -215.5 -96t-77.5 -276t77.5 -276t215.5 -96q92 0 159 43.5z" />
    <glyph glyph-name="e" unicode="e" horiz-adv-x="1201" 
d="M1113 478h-777q6 -87 41.5 -153.5t101 -104t156.5 -37.5q86 0 153.5 31.5t126.5 108.5l167 -148q-90 -99 -200 -148t-249 -49q-178 0 -302.5 78t-187 208.5t-62.5 286.5q0 153 59.5 285.5t180 214t293.5 81.5q180 0 294 -82.5t164 -207.5t50 -259q0 -53 -9 -105z
M478.5 892q-59.5 -35 -94.5 -92t-45 -125h542q-1 18 -6 38q-17 103 -86 158.5t-172 55.5q-79 0 -138.5 -35z" />
    <glyph glyph-name="f" unicode="f" horiz-adv-x="742" 
d="M240 914h-214v196h216v157q0 112 44.5 185t119.5 106.5t169 33.5q108 0 200 -46l-79 -199q-48 29 -93 29q-117 0 -117 -132v-134h227v-196h-227v-914h-246v914z" />
    <glyph glyph-name="g" unicode="g" horiz-adv-x="1214" 
d="M1123 25q22 -44 22 -97q0 -219 -163 -323q-135 -85 -371 -85q-130 0 -233 23t-174 66t-108 106.5t-37 140.5q0 43 13 94l136 80v14l-13 11q-93 83 -93 209q0 131 115 242q-55 96 -55 213q0 122 58.5 215.5t160 145.5t227.5 52q151 0 261 -74l170 146l125 -156l-165 -135
q48 -94 48 -208q0 -127 -58 -218t-157 -137.5t-221 -46.5q-148 0 -261 69q-37 -43 -37 -86q0 -53 39 -85q41 -29 128 -29h298q109 0 174.5 -17t109.5 -54q39 -32 61 -76zM458 874.5q-55 -60.5 -55 -159.5q0 -98 55 -156t152 -58q94 0 148 58t54 156q0 99 -54 159.5
t-148 60.5q-97 0 -152 -60.5zM889 -185.5q14 25.5 14 61.5q0 24 -6 39t-21 27q-32 25 -105 25h-278q-62 0 -108 7l-79 -66q-6 -30 -6 -43q0 -67 57 -106q73 -50 257 -50q67 0 130 15t104 45q27 20 41 45.5z" />
    <glyph glyph-name="h" unicode="h" horiz-adv-x="1302" 
d="M179 1570h244l-1 -547h21q49 48 128 78.5t179 30.5q85 0 152.5 -22t115.5 -61q78 -63 106.5 -163t28.5 -234v-652h-244v608q0 103 -13.5 163t-51.5 97q-61 59 -174 59q-128 0 -191 -79q-33 -43 -45 -104.5t-12 -156.5v-587h-245z" />
    <glyph glyph-name="i" unicode="i" horiz-adv-x="595" 
d="M175 1110h245v-1110h-245v1110zM219 1294.5q-37 21.5 -59 58.5t-22 81q0 42 21.5 79t58.5 58.5t81 21.5q43 0 79.5 -22t58.5 -58.5t22 -78.5q0 -44 -22 -81t-58.5 -58.5t-79.5 -21.5t-80 21.5z" />
    <glyph glyph-name="j" unicode="j" horiz-adv-x="600" 
d="M54 -472q-60 9 -122 28l66 203q20 -9 44.5 -13.5t42.5 -4.5q47 0 70 28q14 17 19 47.5t5 95.5v1198h243v-1247q0 -98 -9 -156.5t-42 -102.5q-31 -39 -83.5 -62t-129.5 -23q-44 0 -104 9zM220 1294.5q-37 21.5 -59 58.5t-22 81q0 42 21.5 79t58.5 58.5t81 21.5
q43 0 79.5 -22t58.5 -58.5t22 -78.5q0 -44 -22 -81t-58.5 -58.5t-79.5 -21.5t-80 21.5z" />
    <glyph glyph-name="k" unicode="k" horiz-adv-x="1253" 
d="M177 1570h245v-946h7l452 486h310l-387 -415l437 -695h-286l-328 529h-9l-196 -202v-327h-245v1570z" />
    <glyph glyph-name="l" unicode="l" horiz-adv-x="635" 
d="M230 38q-33 31 -48 87t-15 165v1280h245v-1224q0 -69 3.5 -97t15.5 -41q22 -25 71 -25q35 0 66 9l35 -182q-40 -14 -92 -23t-96 -9q-121 0 -185 60z" />
    <glyph glyph-name="m" unicode="m" horiz-adv-x="1954" 
d="M175 1110h221l11 -87h20q119 109 293 109q109 0 187.5 -40.5t124.5 -109.5h19q63 71 153.5 110.5t204.5 39.5q81 0 148 -19.5t114 -56.5q60 -47 89 -119.5t36 -138t7 -139.5v-659h-241v620q0 96 -14.5 158.5t-49.5 97.5q-26 26 -67.5 40t-89.5 14q-101 0 -161 -54
q-40 -36 -55 -95.5t-15 -151.5v-629h-242v629q0 88 -14 149t-47 96q-26 26 -68 41t-95 15q-95 0 -152 -49q-42 -36 -58 -96t-16 -156v-629h-243v1110z" />
    <glyph glyph-name="n" unicode="n" horiz-adv-x="1297" 
d="M175 1110h231l12 -85h20q50 47 130 77t176 30q167 0 270 -83q78 -64 106 -161t28 -236v-652h-241v609q0 104 -14 163.5t-51 96.5q-63 61 -174 61q-130 0 -194 -82q-32 -41 -44 -101.5t-12 -158.5v-588h-243v1110z" />
    <glyph glyph-name="o" unicode="o" horiz-adv-x="1269" 
d="M342.5 51q-125.5 73 -193.5 204.5t-68 302.5q0 170 68 300.5t193.5 202t292.5 71.5q166 0 291.5 -71.5t193.5 -202t68 -300.5q0 -171 -68 -302.5t-193.5 -204.5t-291.5 -73q-167 0 -292.5 73zM807 231.5q69 48.5 102.5 133t33.5 193.5q0 166 -77.5 267.5t-230.5 101.5
q-154 0 -232 -101t-78 -268q0 -109 33.5 -193.5t103 -133t173.5 -48.5q103 0 172 48.5z" />
    <glyph glyph-name="p" unicode="p" horiz-adv-x="1328" 
d="M1011 1063.5q109 -68.5 167 -198t58 -310.5t-58 -310.5t-167 -198t-259 -68.5q-94 0 -173.5 29t-136.5 80h-21v-547h-243v1570h220l23 -84h21q57 51 137.5 78.5t171.5 27.5q151 0 260 -68.5zM539 883.5q-67 -43.5 -103 -127t-36 -201.5q0 -117 35.5 -200.5t102.5 -127.5
t160 -44q138 0 215.5 96t77.5 276t-77.5 276t-215.5 96q-92 0 -159 -43.5z" />
    <glyph glyph-name="q" unicode="q" horiz-adv-x="1328" 
d="M748.5 1104.5q80.5 -27.5 137.5 -78.5h21l23 84h220v-1570h-243v547h-21q-57 -51 -136.5 -80t-173.5 -29q-150 0 -259 68.5t-167 198t-58 310.5t58 310.5t167 198t260 68.5q91 0 171.5 -27.5zM414.5 831q-77.5 -96 -77.5 -276t77.5 -276t215.5 -96q93 0 160 44
t102.5 127.5t35.5 200.5q0 118 -36 201.5t-103 127t-159 43.5q-138 0 -215.5 -96z" />
    <glyph glyph-name="r" unicode="r" horiz-adv-x="817" 
d="M175 1110h225l18 -85h21q55 53 122 80t155 27q42 0 79 -4v-251h-13q-84 28 -140 28q-52 0 -92.5 -14t-72.5 -47q-33 -33 -45.5 -97t-12.5 -186v-561h-244v1110z" />
    <glyph glyph-name="s" unicode="s" horiz-adv-x="1033" 
d="M329 17q-99 39 -169.5 110.5t-99.5 164.5l204 83q30 -90 103 -141t168 -51q80 0 124 33.5t44 98.5q0 46 -26.5 74.5t-79.5 48.5q-16 9 -42.5 17t-76.5 21q-60 15 -101 27t-77 29q-181 85 -181 269q0 101 51 176t141 115t203 40q149 0 259.5 -67t159.5 -183l-195 -99
q-32 73 -91.5 112.5t-137.5 39.5q-68 0 -110.5 -29.5t-42.5 -79.5q0 -35 24.5 -57t71.5 -42q24 -11 61 -22t74 -20q70 -18 114 -32t83 -36q160 -88 160 -277q0 -107 -50 -189t-141 -127.5t-211 -45.5q-114 0 -213 39z" />
    <glyph glyph-name="t" unicode="t" horiz-adv-x="798" 
d="M370 20q-76 42 -115 117t-39 171v606h-178v196h183v282l240 174v-456h244v-196h-244v-574q0 -157 136 -157q45 0 100 17l40 -194q-35 -11 -84.5 -19.5t-98.5 -8.5q-108 0 -184 42z" />
    <glyph glyph-name="u" unicode="u" horiz-adv-x="1297" 
d="M283 60q-72 59 -104 151.5t-32 247.5v651h244v-607q0 -112 14.5 -169t49.5 -92q62 -59 176 -59q124 0 188 78q32 39 45.5 97.5t13.5 164.5v587h244v-1110h-244v88h-20q-51 -49 -130.5 -79.5t-177.5 -30.5q-164 0 -267 82z" />
    <glyph glyph-name="v" unicode="v" horiz-adv-x="1189" 
d="M19 1110h263l303 -900h20l302 900h263l-400 -1110h-351z" />
    <glyph glyph-name="w" unicode="w" horiz-adv-x="1913" 
d="M19 1110h263l303 -900h19l221 900h263l220 -900h20l302 900h263l-399 -1110h-352l-177 752h-16l-179 -752h-351z" />
    <glyph glyph-name="x" unicode="x" horiz-adv-x="1153" 
d="M416 559l-389 551h298l242 -376h19l242 376h297l-388 -551l388 -559h-290l-249 383h-19l-247 -383h-293z" />
    <glyph glyph-name="y" unicode="y" horiz-adv-x="1155" 
d="M447 26l-437 1084h268l287 -788h21l292 788h267l-630 -1570h-264z" />
    <glyph glyph-name="z" unicode="z" horiz-adv-x="1097" 
d="M80 206l608 679v22h-583v203h893v-205l-609 -681v-20h627v-204h-936v206z" />
    <glyph glyph-name="braceleft" unicode="{" horiz-adv-x="687" 
d="M282 -85.5q-62 80.5 -62 222.5v352q0 57 -19.5 91.5t-48 52t-73.5 33.5v155q45 16 73.5 33t48 53t19.5 97v364q0 143 63.5 222t181.5 79h156v-150h-77q-69 0 -99 -41t-30 -114v-364q0 -102 -38 -158.5t-113 -88.5v-19q74 -33 112.5 -88.5t38.5 -152.5v-353
q0 -72 29.5 -114.5t94.5 -42.5h82v-149h-159q-118 0 -180 80.5z" />
    <glyph glyph-name="bar" unicode="|" horiz-adv-x="703" 
d="M266 1704h171v-2273h-171v2273z" />
    <glyph glyph-name="braceright" unicode="}" horiz-adv-x="687" 
d="M66 -166v149h82q65 0 94.5 42.5t29.5 114.5v353q0 97 38.5 152.5t112.5 88.5v19q-75 32 -113 88.5t-38 158.5v364q0 73 -30 114t-99 41h-77v150h156q118 0 181.5 -79t63.5 -222v-364q0 -61 19.5 -97t48 -53t73.5 -33v-155q-45 -16 -73.5 -33.5t-48 -52t-19.5 -91.5v-352
q0 -142 -62 -222.5t-180 -80.5h-159z" />
    <glyph glyph-name="asciitilde" unicode="~" horiz-adv-x="1283" 
d="M725 405q-47 22 -75.5 52.5t-62.5 80.5q-27 38 -44.5 59t-42.5 35t-57 14q-54 0 -84.5 -54t-30.5 -148h-174q0 107 35.5 188t101 125.5t152.5 44.5q70 0 119.5 -23t79 -54.5t64.5 -82.5q25 -36 42 -56t39.5 -33.5t51.5 -13.5q35 0 62.5 29t42.5 81t15 118h174
q0 -113 -36.5 -200t-103.5 -135.5t-154 -48.5q-67 0 -114 22z" />
    <glyph glyph-name="uni00A0" unicode="&#xa0;" horiz-adv-x="996" 
 />
    <glyph glyph-name="exclamdown" unicode="&#xa1;" horiz-adv-x="697" 
d="M423.5 1113q34.5 -20 54.5 -54.5t20 -75.5q0 -40 -20 -73.5t-54.5 -53.5t-75.5 -20q-40 0 -74 20t-54 53.5t-20 73.5q0 41 20 75.5t54 54.5t74 20q41 0 75.5 -20zM462 -460h-228l27 1106h175z" />
    <glyph glyph-name="cent" unicode="&#xa2;" horiz-adv-x="1273" 
d="M601 -15q-143 17 -245 98t-153.5 204t-51.5 266q0 141 50.5 265t152 208t247.5 102v205h118v-203q147 -11 256.5 -92t166.5 -227l-218 -85q-25 78 -78.5 128.5t-126.5 62.5v-724q73 12 126.5 61.5t77.5 125.5l208 -78q-50 -141 -158.5 -225t-253.5 -96v-218h-118v222z
M601 911q-108 -26 -162 -126t-54 -232q0 -133 54 -231t162 -123v712z" />
    <glyph glyph-name="sterling" unicode="&#xa3;" horiz-adv-x="1395" 
d="M530 215h719v-215h-1078v220q131 59 200.5 144.5t69.5 182.5q0 68 -23 153h-243v197h186q-17 67 -27 127.5t-10 124.5q0 126 55.5 230t160.5 164.5t248 60.5q174 0 290 -95.5t171 -247.5l-200 -74q-37 97 -102.5 150t-154.5 53q-118 0 -185.5 -63t-67.5 -182
q0 -63 11 -122t31 -126h428v-197h-367q25 -92 25 -171q0 -89 -36.5 -157t-100.5 -139v-18z" />
    <glyph glyph-name="currency" unicode="&#xa4;" horiz-adv-x="1528" 
d="M224 288l116 115q-48 64 -72.5 140.5t-24.5 156.5q0 81 24.5 158.5t72.5 142.5l-114 113l122 127l116 -117q67 49 144 74t158 25q80 0 156.5 -25t141.5 -73l116 115l124 -123l-116 -113q49 -66 73.5 -143t24.5 -159q0 -81 -24.5 -158.5t-73.5 -143.5l116 -112l-122 -128
l-118 119q-65 -48 -142.5 -73t-157.5 -25t-157.5 25t-143.5 73l-116 -119zM631 380q64 -26 132 -26t132 26t114 77t76 115t26 131q0 68 -26 131.5t-76 112.5q-50 50 -113.5 75.5t-131.5 25.5t-132 -26t-114 -77q-49 -50 -75 -115t-26 -133t25 -130t73 -110q52 -51 116 -77z
" />
    <glyph glyph-name="yen" unicode="&#xa5;" horiz-adv-x="1605" 
d="M679 239h-367v187h367v171h-367v186h259l-483 787h289l424 -731l427 731h290l-483 -787h256v-186h-364v-171h364v-187h-364v-239h-248v239z" />
    <glyph glyph-name="brokenbar" unicode="&#xa6;" horiz-adv-x="703" 
d="M438 110h-1v-21h-172v968h173v-947z" />
    <glyph glyph-name="section" unicode="&#xa7;" horiz-adv-x="1107" 
d="M347 15q-101 34 -173 106t-98 181l219 66q31 -107 99.5 -154t188.5 -47q107 0 172.5 36.5t65.5 111.5q0 51 -37 84t-93 52t-153 42q-131 32 -213 63.5t-140.5 96.5t-58.5 172q0 68 25 123t71 104q-95 82 -95 205q0 103 59 179t156.5 115.5t210.5 39.5q143 0 254 -57.5
t164 -148.5l-184 -106q-28 64 -89.5 99t-152.5 35q-70 0 -121 -22.5t-77.5 -59t-26.5 -77.5q0 -47 35.5 -77t89 -47.5t147.5 -39.5q133 -31 217.5 -63t145 -99t60.5 -180q0 -132 -90 -226q90 -80 90 -207q0 -115 -64 -190t-166 -109.5t-218 -34.5q-119 0 -220 34zM797 660.5
q24 36.5 24 81.5q0 59 -39.5 97t-98 59.5t-161.5 49.5q-86 24 -111 32q-46 -25 -68.5 -65.5t-22.5 -82.5q0 -55 38.5 -90.5t95.5 -56t157 -47.5q66 -17 117 -33q45 19 69 55.5z" />
    <glyph glyph-name="dieresis" unicode="&#xa8;" horiz-adv-x="984" 
d="M201 1316q-34 20 -54 54t-20 75q0 40 20 74t54 54t75 20q40 0 74 -20t54 -54t20 -74q0 -41 -20 -75t-54 -54t-74 -20q-41 0 -75 20zM633 1316q-34 20 -54 54t-20 75q0 40 20 74t54 54t75 20q39 0 73.5 -20t54.5 -54t20 -74q0 -41 -20 -75t-54.5 -54t-73.5 -20
q-41 0 -75 20z" />
    <glyph glyph-name="copyright" unicode="&#xa9;" horiz-adv-x="1897" 
d="M530 81q-192 109 -304 296t-112 408q0 222 112 409t304 296t419 109t418.5 -109t303.5 -296t112 -409q0 -221 -112 -408t-303.5 -296t-418.5 -109t-419 109zM1294 207q158 90 251 243.5t93 334.5t-93 334.5t-251 243.5t-345 90q-188 0 -347 -90t-252 -243.5t-93 -334.5
t93 -334.5t252 -243.5t347 -90q187 0 345 90zM730 361.5q-101 66.5 -152 178t-51 243.5q0 129 49.5 241t149.5 181t243 69q140 0 243.5 -68.5t156.5 -201.5l-180 -71q-26 78 -84.5 124.5t-135.5 46.5q-83 0 -139.5 -45t-83.5 -118t-27 -158q0 -86 27 -158t83.5 -115.5
t141.5 -43.5q78 0 135 45t81 122l170 -66q-45 -129 -146.5 -200.5t-238.5 -71.5q-141 0 -242 66.5z" />
    <glyph glyph-name="ordfeminine" unicode="&#xaa;" horiz-adv-x="899" 
d="M215.5 815.5q-62.5 29.5 -99.5 84t-37 126.5q0 121 85.5 180.5t229.5 59.5h220q0 29 -5 56q-12 69 -57 104.5t-126 35.5q-67 0 -123 -30t-96 -73l-94 98q79 70 155.5 102t179.5 32q149 0 226 -84t77 -232v-474h-127v107h-5q-54 -63 -119.5 -92.5t-147.5 -29.5
q-74 0 -136.5 29.5zM505 955q58 38 90 100q16 47 19 84h-210q-82 0 -127.5 -29.5t-45.5 -83.5q0 -30 20 -55t54 -39.5t72 -14.5q70 0 128 38z" />
    <glyph glyph-name="guillemotleft" unicode="&#xab;" horiz-adv-x="1136" 
d="M46 567l464 390v-200l-228 -190l228 -188v-200zM507 567l464 390v-200l-229 -190l229 -188v-200z" />
    <glyph glyph-name="logicalnot" unicode="&#xac;" horiz-adv-x="1283" 
d="M891 680h-817v205h1036v-562h-219v357z" />
    <glyph glyph-name="uni00AD" unicode="&#xad;" horiz-adv-x="1129" 
d="M168 762h792v-174h-792v174z" />
    <glyph glyph-name="registered" unicode="&#xae;" horiz-adv-x="1897" 
d="M530 81q-192 109 -304 296t-112 408q0 222 112 409t304 296t419 109t418.5 -109t303.5 -296t112 -409q0 -221 -112 -408t-303.5 -296t-418.5 -109t-419 109zM1294 207q158 90 251 243.5t93 334.5t-93 334.5t-251 243.5t-345 90q-188 0 -347 -90t-252 -243.5t-93 -334.5
t93 -334.5t252 -243.5t347 -90q187 0 345 90zM676 1256h291q96 0 170 -34t115 -96t41 -144q0 -86 -49.5 -150.5t-135.5 -93.5l260 -424h-176l-234 408q-17 -1 -51 -1h-79v-407h-152v942zM981 847q76 2 117.5 37.5t41.5 95.5q0 65 -45.5 102.5t-125.5 37.5h-141v-273h153z
" />
    <glyph glyph-name="macron" unicode="&#xaf;" horiz-adv-x="953" 
d="M168 1438h617v-136h-617v136z" />
    <glyph glyph-name="degree" unicode="&#xb0;" horiz-adv-x="1013" 
d="M345 987.5q-74 43.5 -118 118t-44 161.5q0 88 44 162.5t118 118t161 43.5q88 0 162 -43.5t117.5 -118t43.5 -162.5t-43.5 -162t-117.5 -117.5t-162 -43.5q-87 0 -161 43.5zM592 1121.5q39 22.5 61.5 61t22.5 84.5t-22.5 85t-61.5 61.5t-86 22.5q-46 0 -84 -22.5
t-60.5 -61.5t-22.5 -85t22.5 -84.5t60.5 -61t84 -22.5q47 0 86 22.5z" />
    <glyph glyph-name="plusminus" unicode="&#xb1;" horiz-adv-x="1283" 
d="M554 699h-514v174h514v488h174v-488h514v-174h-514v-490h-174v490zM40 0h1199v-174h-1199v174z" />
    <glyph glyph-name="acute" unicode="&#xb4;" horiz-adv-x="587" 
d="M302 1570h245l-323 -320h-169z" />
    <glyph glyph-name="uni00B5" unicode="&#xb5;" horiz-adv-x="1444" 
d="M265 1110h228v-645q0 -126 60 -200t173 -74q127 0 198.5 74.5t71.5 221.5v623h227v-1110h-227v149q-59 -84 -148.5 -126.5t-186.5 -42.5q-133 0 -210 71v-423h-186v1482z" />
    <glyph glyph-name="paragraph" unicode="&#xb6;" horiz-adv-x="1439" 
d="M603 692q-132 0 -247.5 53t-185.5 152.5t-70 233.5t70 233.5t185.5 152.5t247.5 53h162v-1843h-162v965zM1010 1570h163v-1843h-163v1843z" />
    <glyph glyph-name="periodcentered" unicode="&#xb7;" horiz-adv-x="716" 
d="M276.5 680.5q-36.5 21.5 -57.5 58.5t-21 80q0 44 21.5 80t58 57t79.5 21q44 0 80.5 -21t58.5 -57t22 -80q0 -43 -21.5 -80t-58.5 -58.5t-81 -21.5t-80.5 21.5z" />
    <glyph glyph-name="cedilla" unicode="&#xb8;" horiz-adv-x="616" 
d="M173.5 -461q-56.5 21 -109.5 64l62 102q41 -38 83.5 -56t80.5 -18q46 0 73 24t27 59q0 30 -20.5 53t-61.5 35q-46 14 -131 14l114 184h116l-76 -107q32 -3 59 -14q54 -20 85 -63t31 -100q0 -56 -29 -101.5t-79.5 -71t-113.5 -25.5q-54 0 -110.5 21z" />
    <glyph glyph-name="ordmasculine" unicode="&#xba;" horiz-adv-x="944" 
d="M270.5 845.5q-89.5 53.5 -139.5 145t-50 201.5q0 109 50 200.5t139.5 145t202.5 53.5q112 0 201.5 -53.5t139.5 -145t50 -200.5t-50 -201t-139.5 -145.5t-201.5 -53.5q-113 0 -202.5 53.5zM645 1003q59 73 59 189t-59 189t-172 73q-114 0 -173.5 -73t-59.5 -189
t59.5 -189t173.5 -73q113 0 172 73z" />
    <glyph glyph-name="guillemotright" unicode="&#xbb;" horiz-adv-x="1136" 
d="M165 379l229 188l-229 190v200l464 -390l-464 -388v200zM626 379l228 188l-228 190v200l464 -390l-464 -388v200z" />
    <glyph glyph-name="questiondown" unicode="&#xbf;" horiz-adv-x="932" 
d="M647.5 1113q34.5 -20 54.5 -54.5t20 -75.5q0 -40 -20 -73.5t-54.5 -53.5t-75.5 -20q-40 0 -73.5 20t-53.5 53.5t-20 73.5q0 41 20 75.5t53.5 54.5t73.5 20q41 0 75.5 -20zM671 538q0 -104 -30 -172.5t-73.5 -108.5t-112.5 -86q-56 -37 -88 -65t-53.5 -70.5t-21.5 -101.5
q0 -110 71 -168.5t192 -58.5q57 0 116 16t108 46l63 -192q-64 -28 -138.5 -43t-145.5 -15q-136 0 -241.5 48.5t-165.5 142.5t-60 227q0 93 29 156t70 101.5t109 84.5q59 40 94 70.5t58.5 77.5t23.5 113v110h196v-112z" />
    <glyph glyph-name="Agrave" unicode="&#xc0;" horiz-adv-x="1526" 
d="M1082 342h-634l-117 -342h-290l573 1570h300l571 -1570h-288zM1002 578l-225 668h-20l-228 -668h473zM371 2030h246l234 -320h-175z" />
    <glyph glyph-name="Aacute" unicode="&#xc1;" horiz-adv-x="1526" 
d="M1082 342h-634l-117 -342h-290l573 1570h300l571 -1570h-288zM1002 578l-225 668h-20l-228 -668h473zM909 2030h245l-323 -320h-169z" />
    <glyph glyph-name="Acircumflex" unicode="&#xc2;" horiz-adv-x="1526" 
d="M1082 342h-634l-117 -342h-290l573 1570h300l571 -1570h-288zM1002 578l-225 668h-20l-228 -668h473zM760 2064l347 -379h-180l-167 163l-165 -163h-179z" />
    <glyph glyph-name="Atilde" unicode="&#xc3;" horiz-adv-x="1526" 
d="M1082 342h-634l-117 -342h-290l573 1570h300l571 -1570h-288zM1002 578l-225 668h-20l-228 -668h473zM825.5 1726.5q-36.5 15.5 -60 36.5t-53.5 55t-50.5 50t-47.5 16q-41 0 -64 -42.5t-23 -119.5h-133q0 145 61 224.5t166 79.5q43 0 76.5 -14.5t57 -35.5t53.5 -53
q32 -35 54 -51.5t49 -16.5q35 0 57.5 43.5t22.5 119.5h139q0 -96 -26.5 -165t-76.5 -105.5t-117 -36.5q-48 0 -84.5 15.5z" />
    <glyph glyph-name="Adieresis" unicode="&#xc4;" horiz-adv-x="1526" 
d="M1082 342h-634l-117 -342h-290l573 1570h300l571 -1570h-288zM1002 578l-225 668h-20l-228 -668h473zM472 1711q-34 20 -54 54.5t-20 75.5q0 40 20 73.5t54 53.5t75 20q40 0 74 -20t54 -53.5t20 -73.5q0 -41 -20 -75.5t-54 -54.5t-74 -20q-41 0 -75 20zM904 1711
q-34 20 -54 54.5t-20 75.5q0 40 20 73.5t54 53.5t75 20q39 0 73.5 -20t54.5 -53.5t20 -73.5q0 -41 -20 -75.5t-54.5 -54.5t-73.5 -20q-41 0 -75 20z" />
    <glyph glyph-name="Aring" unicode="&#xc5;" horiz-adv-x="1526" 
d="M1082 342h-634l-117 -342h-290l573 1570h300l571 -1570h-288zM1002 578l-225 668h-20l-228 -668h473zM639 1690q-56 33 -88 89t-32 121q0 66 32.5 122t88.5 88.5t122 32.5q65 0 121 -32.5t89 -88t33 -122.5q0 -66 -32.5 -122t-88.5 -88.5t-122 -32.5q-67 0 -123 33z
M846.5 1816.5q33.5 34.5 33.5 86.5q0 50 -32 82.5t-86 32.5q-52 0 -84.5 -33t-32.5 -82q0 -52 33.5 -86.5t83.5 -34.5q51 0 84.5 34.5z" />
    <glyph glyph-name="AE" unicode="&#xc6;" horiz-adv-x="2195" 
d="M1285 1336v-439h694v-222h-694v-435h793v-240h-1059v346h-561l-127 -346h-290l617 1570h1420v-234h-793zM1019 573v763h-196l-281 -763h477z" />
    <glyph glyph-name="Ccedilla" unicode="&#xc7;" horiz-adv-x="1633" 
d="M1311.5 111q-174.5 -127 -429.5 -133l-61 -85q32 -3 59 -14q54 -20 85 -63t31 -100q0 -56 -29 -101.5t-79.5 -71t-113.5 -25.5q-54 0 -110.5 21t-109.5 64l62 102q41 -38 83.5 -56t80.5 -18q46 0 73 24t27 59q0 30 -20.5 53t-61.5 35q-46 14 -131 14l103 166
q-204 18 -351.5 120.5t-226 277t-78.5 406.5q0 248 89.5 430t257.5 279t398 97q255 0 431.5 -118t255.5 -335l-249 -96q-51 151 -164 232t-274 81q-148 0 -256 -69t-165.5 -197.5t-57.5 -303.5q0 -176 57 -305t165 -198t256 -69q165 0 280 86.5t166 243.5l255 -79
q-73 -227 -247.5 -354z" />
    <glyph glyph-name="Egrave" unicode="&#xc8;" horiz-adv-x="1380" 
d="M221 1570h996v-237h-730v-430h674v-235h-674v-431h776v-237h-1042v1570zM334 2030h246l234 -320h-175z" />
    <glyph glyph-name="Eacute" unicode="&#xc9;" horiz-adv-x="1380" 
d="M221 1570h996v-237h-730v-430h674v-235h-674v-431h776v-237h-1042v1570zM872 2030h245l-323 -320h-169z" />
    <glyph glyph-name="Ecircumflex" unicode="&#xca;" horiz-adv-x="1380" 
d="M221 1570h996v-237h-730v-430h674v-235h-674v-431h776v-237h-1042v1570zM723 2064l347 -379h-180l-167 163l-165 -163h-179z" />
    <glyph glyph-name="Edieresis" unicode="&#xcb;" horiz-adv-x="1380" 
d="M221 1570h996v-237h-730v-430h674v-235h-674v-431h776v-237h-1042v1570zM435 1711q-34 20 -54 54.5t-20 75.5q0 40 20 73.5t54 53.5t75 20q40 0 74 -20t54 -53.5t20 -73.5q0 -41 -20 -75.5t-54 -54.5t-74 -20q-41 0 -75 20zM867 1711q-34 20 -54 54.5t-20 75.5
q0 40 20 73.5t54 53.5t75 20q39 0 73.5 -20t54.5 -53.5t20 -73.5q0 -41 -20 -75.5t-54.5 -54.5t-73.5 -20q-41 0 -75 20z" />
    <glyph glyph-name="Igrave" unicode="&#xcc;" horiz-adv-x="708" 
d="M221 1570h266v-1570h-266v1570zM-38 2030h246l234 -320h-175z" />
    <glyph glyph-name="Iacute" unicode="&#xcd;" horiz-adv-x="708" 
d="M221 1570h266v-1570h-266v1570zM500 2030h245l-323 -320h-169z" />
    <glyph glyph-name="Icircumflex" unicode="&#xce;" horiz-adv-x="708" 
d="M221 1570h266v-1570h-266v1570zM351 2064l347 -379h-180l-167 163l-165 -163h-179z" />
    <glyph glyph-name="Idieresis" unicode="&#xcf;" horiz-adv-x="708" 
d="M221 1570h266v-1570h-266v1570zM63 1711q-34 20 -54 54.5t-20 75.5q0 40 20 73.5t54 53.5t75 20q40 0 74 -20t54 -53.5t20 -73.5q0 -41 -20 -75.5t-54 -54.5t-74 -20q-41 0 -75 20zM495 1711q-34 20 -54 54.5t-20 75.5q0 40 20 73.5t54 53.5t75 20q39 0 73.5 -20
t54.5 -53.5t20 -73.5q0 -41 -20 -75.5t-54.5 -54.5t-73.5 -20q-41 0 -75 20z" />
    <glyph glyph-name="Eth" unicode="&#xd0;" horiz-adv-x="1599" 
d="M1425.5 1137q61.5 -157 61.5 -363q0 -403 -245 -604q-75 -62 -158 -98.5t-199 -54t-285 -17.5h-379v683h-146v155h146v732h381q173 0 290.5 -19.5t198 -57t154.5 -99.5q119 -100 180.5 -257zM1221 784q0 136 -38.5 241t-110.5 174q-54 51 -113.5 79.5t-144.5 41.5
t-216 13h-111v-495h294v-155h-294v-446h88q138 0 226.5 13.5t147.5 41.5t114 77q158 141 158 415z" />
    <glyph glyph-name="Ntilde" unicode="&#xd1;" horiz-adv-x="1699" 
d="M221 1570h395l574 -1225h22v1225h266v-1570h-397l-572 1228h-22v-1228h-266v1570zM911.5 1726.5q-36.5 15.5 -60 36.5t-53.5 55t-50.5 50t-47.5 16q-41 0 -64 -42.5t-23 -119.5h-133q0 145 61 224.5t166 79.5q43 0 76.5 -14.5t57 -35.5t53.5 -53q32 -35 54 -51.5
t49 -16.5q35 0 57.5 43.5t22.5 119.5h139q0 -96 -26.5 -165t-76.5 -105.5t-117 -36.5q-48 0 -84.5 15.5z" />
    <glyph glyph-name="Ograve" unicode="&#xd2;" horiz-adv-x="1718" 
d="M460.5 76.5q-167.5 98.5 -257 280.5t-89.5 428t89.5 428t257 280.5t397.5 98.5t398.5 -98t258 -280t89.5 -429t-89.5 -429t-258 -280t-398.5 -98t-397.5 98.5zM1114.5 283.5q108.5 69.5 166.5 198.5t58 303q0 175 -58 303.5t-166 198t-257 69.5q-148 0 -255.5 -69.5
t-165 -198t-57.5 -303.5q0 -174 57.5 -303t165 -198.5t255.5 -69.5t256.5 69.5zM467 2029h246l234 -320h-175z" />
    <glyph glyph-name="Oacute" unicode="&#xd3;" horiz-adv-x="1718" 
d="M460.5 76.5q-167.5 98.5 -257 280.5t-89.5 428t89.5 428t257 280.5t397.5 98.5t398.5 -98t258 -280t89.5 -429t-89.5 -429t-258 -280t-398.5 -98t-397.5 98.5zM1114.5 283.5q108.5 69.5 166.5 198.5t58 303q0 175 -58 303.5t-166 198t-257 69.5q-148 0 -255.5 -69.5
t-165 -198t-57.5 -303.5q0 -174 57.5 -303t165 -198.5t255.5 -69.5t256.5 69.5zM1005 2029h245l-323 -320h-169z" />
    <glyph glyph-name="Ocircumflex" unicode="&#xd4;" horiz-adv-x="1718" 
d="M460.5 76.5q-167.5 98.5 -257 280.5t-89.5 428t89.5 428t257 280.5t397.5 98.5t398.5 -98t258 -280t89.5 -429t-89.5 -429t-258 -280t-398.5 -98t-397.5 98.5zM1114.5 283.5q108.5 69.5 166.5 198.5t58 303q0 175 -58 303.5t-166 198t-257 69.5q-148 0 -255.5 -69.5
t-165 -198t-57.5 -303.5q0 -174 57.5 -303t165 -198.5t255.5 -69.5t256.5 69.5zM856 2063l347 -379h-180l-167 163l-165 -163h-179z" />
    <glyph glyph-name="Otilde" unicode="&#xd5;" horiz-adv-x="1718" 
d="M460.5 76.5q-167.5 98.5 -257 280.5t-89.5 428t89.5 428t257 280.5t397.5 98.5t398.5 -98t258 -280t89.5 -429t-89.5 -429t-258 -280t-398.5 -98t-397.5 98.5zM1114.5 283.5q108.5 69.5 166.5 198.5t58 303q0 175 -58 303.5t-166 198t-257 69.5q-148 0 -255.5 -69.5
t-165 -198t-57.5 -303.5q0 -174 57.5 -303t165 -198.5t255.5 -69.5t256.5 69.5zM921.5 1725.5q-36.5 15.5 -60 36.5t-53.5 55t-50.5 50t-47.5 16q-41 0 -64 -42.5t-23 -119.5h-133q0 145 61 224.5t166 79.5q43 0 76.5 -14.5t57 -35.5t53.5 -53q32 -35 54 -51.5t49 -16.5
q35 0 57.5 43.5t22.5 119.5h139q0 -96 -26.5 -165t-76.5 -105.5t-117 -36.5q-48 0 -84.5 15.5z" />
    <glyph glyph-name="Odieresis" unicode="&#xd6;" horiz-adv-x="1718" 
d="M460.5 76.5q-167.5 98.5 -257 280.5t-89.5 428t89.5 428t257 280.5t397.5 98.5t398.5 -98t258 -280t89.5 -429t-89.5 -429t-258 -280t-398.5 -98t-397.5 98.5zM1114.5 283.5q108.5 69.5 166.5 198.5t58 303q0 175 -58 303.5t-166 198t-257 69.5q-148 0 -255.5 -69.5
t-165 -198t-57.5 -303.5q0 -174 57.5 -303t165 -198.5t255.5 -69.5t256.5 69.5zM568 1710q-34 20 -54 54.5t-20 75.5q0 40 20 73.5t54 53.5t75 20q40 0 74 -20t54 -53.5t20 -73.5q0 -41 -20 -75.5t-54 -54.5t-74 -20q-41 0 -75 20zM1000 1710q-34 20 -54 54.5t-20 75.5
q0 40 20 73.5t54 53.5t75 20q39 0 73.5 -20t54.5 -53.5t20 -73.5q0 -41 -20 -75.5t-54.5 -54.5t-73.5 -20q-41 0 -75 20z" />
    <glyph glyph-name="multiply" unicode="&#xd7;" horiz-adv-x="1283" 
d="M642 543l-344 -344l-123 123l344 344l-343 343l123 123l343 -343l343 343l124 -123l-344 -343l344 -345l-123 -123z" />
    <glyph glyph-name="Oslash" unicode="&#xd8;" horiz-adv-x="1718" 
d="M1539.5 1156q64.5 -163 64.5 -371q0 -247 -89.5 -429t-258 -280t-398.5 -98q-193 0 -344 70l-64 -105l-154 94l67 109q-121 106 -185 268.5t-64 370.5q0 246 89.5 428t257 280.5t397.5 98.5q193 0 347 -71l64 105l152 -93l-67 -109q121 -105 185.5 -268zM411 553
q31 -104 91 -179l573 935q-96 47 -217 47q-148 0 -255.5 -69.5t-165 -198t-57.5 -303.5q0 -128 31 -232zM1114.5 283.5q108.5 69.5 166.5 198.5t58 303q0 128 -31.5 232.5t-91.5 179.5l-572 -937q95 -46 214 -46q148 0 256.5 69.5z" />
    <glyph glyph-name="Ugrave" unicode="&#xd9;" horiz-adv-x="1570" 
d="M526.5 15.5q-113.5 37.5 -189.5 107.5q-76 71 -112 181.5t-36 300.5v965h266v-956q0 -123 16.5 -192.5t58.5 -114.5q41 -44 105.5 -68.5t149.5 -24.5q165 0 255 93q41 43 58 110t17 197v956h266v-965q0 -190 -35 -300t-113 -182q-74 -70 -188 -107.5t-260 -37.5
q-145 0 -258.5 37.5zM394 2030h246l234 -320h-175z" />
    <glyph glyph-name="Uacute" unicode="&#xda;" horiz-adv-x="1570" 
d="M526.5 15.5q-113.5 37.5 -189.5 107.5q-76 71 -112 181.5t-36 300.5v965h266v-956q0 -123 16.5 -192.5t58.5 -114.5q41 -44 105.5 -68.5t149.5 -24.5q165 0 255 93q41 43 58 110t17 197v956h266v-965q0 -190 -35 -300t-113 -182q-74 -70 -188 -107.5t-260 -37.5
q-145 0 -258.5 37.5zM932 2030h245l-323 -320h-169z" />
    <glyph glyph-name="Ucircumflex" unicode="&#xdb;" horiz-adv-x="1570" 
d="M526.5 15.5q-113.5 37.5 -189.5 107.5q-76 71 -112 181.5t-36 300.5v965h266v-956q0 -123 16.5 -192.5t58.5 -114.5q41 -44 105.5 -68.5t149.5 -24.5q165 0 255 93q41 43 58 110t17 197v956h266v-965q0 -190 -35 -300t-113 -182q-74 -70 -188 -107.5t-260 -37.5
q-145 0 -258.5 37.5zM783 2064l347 -379h-180l-167 163l-165 -163h-179z" />
    <glyph glyph-name="Udieresis" unicode="&#xdc;" horiz-adv-x="1570" 
d="M526.5 15.5q-113.5 37.5 -189.5 107.5q-76 71 -112 181.5t-36 300.5v965h266v-956q0 -123 16.5 -192.5t58.5 -114.5q41 -44 105.5 -68.5t149.5 -24.5q165 0 255 93q41 43 58 110t17 197v956h266v-965q0 -190 -35 -300t-113 -182q-74 -70 -188 -107.5t-260 -37.5
q-145 0 -258.5 37.5zM495 1711q-34 20 -54 54.5t-20 75.5q0 40 20 73.5t54 53.5t75 20q40 0 74 -20t54 -53.5t20 -73.5q0 -41 -20 -75.5t-54 -54.5t-74 -20q-41 0 -75 20zM927 1711q-34 20 -54 54.5t-20 75.5q0 40 20 73.5t54 53.5t75 20q39 0 73.5 -20t54.5 -53.5t20 -73.5
q0 -41 -20 -75.5t-54.5 -54.5t-73.5 -20q-41 0 -75 20z" />
    <glyph glyph-name="Yacute" unicode="&#xdd;" horiz-adv-x="1503" 
d="M618 585l-594 985h311l406 -692h20l407 692h311l-595 -985v-585h-266v585zM898 2030h245l-323 -320h-169z" />
    <glyph glyph-name="Thorn" unicode="&#xde;" horiz-adv-x="1337" 
d="M221 1570h266v-215h305q227 0 346.5 -119.5t119.5 -336.5q0 -148 -56 -251t-160.5 -155.5t-249.5 -52.5h-305v-440h-266v1570zM771 689q108 0 165.5 52t57.5 160q0 90 -36.5 135t-84 57.5t-102.5 12.5h-284v-417h284z" />
    <glyph glyph-name="germandbls" unicode="&#xdf;" horiz-adv-x="1347" 
d="M579 26l84 206q76 -31 145 -31q80 0 127 42.5t47 109.5q0 41 -19 74t-47 57.5t-78 61.5q-60 44 -97 78t-63 85t-26 118q0 59 19 100t46 67t71 59q36 27 57 46.5t35 46.5t14 63q0 47 -25.5 87t-77.5 64t-129 24q-106 0 -159.5 -44.5t-69 -104t-15.5 -129.5v-1106h-241
v1106q0 153 62 263t172 166.5t251 56.5q135 0 243.5 -49t169.5 -135.5t61 -195.5q0 -74 -26 -127t-61.5 -85t-88.5 -68q-44 -31 -64 -50.5t-20 -44.5q0 -28 26.5 -53.5t85.5 -67.5q72 -51 120 -94.5t83.5 -110.5t35.5 -156q0 -109 -54 -194t-148 -132.5t-210 -47.5
q-113 0 -236 45z" />
    <glyph glyph-name="agrave" unicode="&#xe0;" horiz-adv-x="1212" 
d="M1047.5 856q16.5 -71 16.5 -184v-672h-222l-22 94h-20q-43 -46 -105 -74q-92 -42 -207 -42q-125 0 -217.5 44t-142 125.5t-49.5 189.5q0 206 167 288q54 26 125.5 37.5t192.5 11.5h256q-1 79 -14 125.5t-45 74.5q-30 26 -77.5 39.5t-106.5 13.5q-82 0 -164.5 -34.5
t-157.5 -102.5l-147 163q105 87 225 133t244 46q145 0 249.5 -39t163.5 -115q41 -51 57.5 -122zM803.5 348.5q14.5 54.5 16.5 128.5h-294q-57 0 -93 -8t-63 -31q-23 -19 -34 -42t-11 -60q0 -74 52 -119t153 -45q66 0 123 21.5t97 61.5q39 39 53.5 93.5zM213 1570h246
l234 -320h-175z" />
    <glyph glyph-name="aacute" unicode="&#xe1;" horiz-adv-x="1212" 
d="M1047.5 856q16.5 -71 16.5 -184v-672h-222l-22 94h-20q-43 -46 -105 -74q-92 -42 -207 -42q-125 0 -217.5 44t-142 125.5t-49.5 189.5q0 206 167 288q54 26 125.5 37.5t192.5 11.5h256q-1 79 -14 125.5t-45 74.5q-30 26 -77.5 39.5t-106.5 13.5q-82 0 -164.5 -34.5
t-157.5 -102.5l-147 163q105 87 225 133t244 46q145 0 249.5 -39t163.5 -115q41 -51 57.5 -122zM803.5 348.5q14.5 54.5 16.5 128.5h-294q-57 0 -93 -8t-63 -31q-23 -19 -34 -42t-11 -60q0 -74 52 -119t153 -45q66 0 123 21.5t97 61.5q39 39 53.5 93.5zM751 1570h245
l-323 -320h-169z" />
    <glyph glyph-name="acircumflex" unicode="&#xe2;" horiz-adv-x="1212" 
d="M1047.5 856q16.5 -71 16.5 -184v-672h-222l-22 94h-20q-43 -46 -105 -74q-92 -42 -207 -42q-125 0 -217.5 44t-142 125.5t-49.5 189.5q0 206 167 288q54 26 125.5 37.5t192.5 11.5h256q-1 79 -14 125.5t-45 74.5q-30 26 -77.5 39.5t-106.5 13.5q-82 0 -164.5 -34.5
t-157.5 -102.5l-147 163q105 87 225 133t244 46q145 0 249.5 -39t163.5 -115q41 -51 57.5 -122zM803.5 348.5q14.5 54.5 16.5 128.5h-294q-57 0 -93 -8t-63 -31q-23 -19 -34 -42t-11 -60q0 -74 52 -119t153 -45q66 0 123 21.5t97 61.5q39 39 53.5 93.5zM602 1604l347 -379
h-180l-167 163l-165 -163h-179z" />
    <glyph glyph-name="atilde" unicode="&#xe3;" horiz-adv-x="1212" 
d="M1047.5 856q16.5 -71 16.5 -184v-672h-222l-22 94h-20q-43 -46 -105 -74q-92 -42 -207 -42q-125 0 -217.5 44t-142 125.5t-49.5 189.5q0 206 167 288q54 26 125.5 37.5t192.5 11.5h256q-1 79 -14 125.5t-45 74.5q-30 26 -77.5 39.5t-106.5 13.5q-82 0 -164.5 -34.5
t-157.5 -102.5l-147 163q105 87 225 133t244 46q145 0 249.5 -39t163.5 -115q41 -51 57.5 -122zM803.5 348.5q14.5 54.5 16.5 128.5h-294q-57 0 -93 -8t-63 -31q-23 -19 -34 -42t-11 -60q0 -74 52 -119t153 -45q66 0 123 21.5t97 61.5q39 39 53.5 93.5zM667.5 1266.5
q-36.5 15.5 -60 36.5t-53.5 55t-50.5 50t-47.5 16q-41 0 -64 -42.5t-23 -119.5h-133q0 145 61 224.5t166 79.5q43 0 76.5 -14.5t57 -35.5t53.5 -53q32 -35 54 -51.5t49 -16.5q35 0 57.5 43.5t22.5 119.5h139q0 -96 -26.5 -165t-76.5 -105.5t-117 -36.5q-48 0 -84.5 15.5z
" />
    <glyph glyph-name="adieresis" unicode="&#xe4;" horiz-adv-x="1212" 
d="M1047.5 856q16.5 -71 16.5 -184v-672h-222l-22 94h-20q-43 -46 -105 -74q-92 -42 -207 -42q-125 0 -217.5 44t-142 125.5t-49.5 189.5q0 206 167 288q54 26 125.5 37.5t192.5 11.5h256q-1 79 -14 125.5t-45 74.5q-30 26 -77.5 39.5t-106.5 13.5q-82 0 -164.5 -34.5
t-157.5 -102.5l-147 163q105 87 225 133t244 46q145 0 249.5 -39t163.5 -115q41 -51 57.5 -122zM803.5 348.5q14.5 54.5 16.5 128.5h-294q-57 0 -93 -8t-63 -31q-23 -19 -34 -42t-11 -60q0 -74 52 -119t153 -45q66 0 123 21.5t97 61.5q39 39 53.5 93.5zM314 1316
q-34 20 -54 54t-20 75q0 40 20 74t54 54t75 20q40 0 74 -20t54 -54t20 -74q0 -41 -20 -75t-54 -54t-74 -20q-41 0 -75 20zM746 1316q-34 20 -54 54t-20 75q0 40 20 74t54 54t75 20q39 0 73.5 -20t54.5 -54t20 -74q0 -41 -20 -75t-54.5 -54t-73.5 -20q-41 0 -75 20z" />
    <glyph glyph-name="aring" unicode="&#xe5;" horiz-adv-x="1212" 
d="M1047.5 856q16.5 -71 16.5 -184v-672h-222l-22 94h-20q-43 -46 -105 -74q-92 -42 -207 -42q-125 0 -217.5 44t-142 125.5t-49.5 189.5q0 206 167 288q54 26 125.5 37.5t192.5 11.5h256q-1 79 -14 125.5t-45 74.5q-30 26 -77.5 39.5t-106.5 13.5q-82 0 -164.5 -34.5
t-157.5 -102.5l-147 163q105 87 225 133t244 46q145 0 249.5 -39t163.5 -115q41 -51 57.5 -122zM803.5 348.5q14.5 54.5 16.5 128.5h-294q-57 0 -93 -8t-63 -31q-23 -19 -34 -42t-11 -60q0 -74 52 -119t153 -45q66 0 123 21.5t97 61.5q39 39 53.5 93.5zM481 1230
q-56 33 -88 89t-32 121q0 66 32.5 122t88.5 88.5t122 32.5q65 0 121 -32.5t89 -88t33 -122.5q0 -66 -32.5 -122t-88.5 -88.5t-122 -32.5q-67 0 -123 33zM688.5 1356.5q33.5 34.5 33.5 86.5q0 50 -32 82.5t-86 32.5q-52 0 -84.5 -33t-32.5 -82q0 -52 33.5 -86.5t83.5 -34.5
q51 0 84.5 34.5z" />
    <glyph glyph-name="ae" unicode="&#xe6;" horiz-adv-x="1951" 
d="M273.5 20.5q-94.5 42.5 -147.5 123.5t-53 193q0 170 122.5 245.5t343.5 75.5h287v41q0 105 -65.5 163t-181.5 58q-84 0 -162 -39.5t-141 -113.5l-177 147q99 105 223.5 161.5t255.5 56.5q130 0 228 -43.5t154 -125.5l23 1q66 80 163 124t222 44q177 0 290 -83t163 -208.5
t50 -259.5q0 -30 -3 -64t-7 -45h-774q15 -133 89 -203t209 -70q82 0 150 28.5t128 95.5l168 -148q-92 -101 -202 -149t-243 -48q-149 0 -258 54t-176 153h-26q-90 -122 -201.5 -164.5t-232.5 -42.5q-124 0 -218.5 42.5zM1632 658q-2 16 -2 22q-5 38 -6 44
q-18 92 -87.5 147.5t-174.5 55.5q-122 0 -189.5 -72t-85.5 -197h545zM665 214.5q69 30.5 113 86.5t50 130q-2 14 -2 41h-272q-98 0 -165.5 -34.5t-67.5 -109.5q0 -66 51.5 -105t146.5 -39q77 0 146 30.5z" />
    <glyph glyph-name="ccedilla" unicode="&#xe7;" horiz-adv-x="1134" 
d="M758.5 242.5q64.5 54.5 89.5 145.5l222 -69q-47 -153 -163.5 -243t-278.5 -97l-61 -86q32 -3 59 -14q54 -20 85 -63t31 -100q0 -56 -29 -101.5t-79.5 -71t-113.5 -25.5q-54 0 -110.5 21t-109.5 64l62 102q41 -38 83.5 -56t80.5 -18q46 0 73 24t27 59q0 30 -20.5 53
t-61.5 35q-46 14 -131 14l104 168q-135 20 -233.5 99t-150 201.5t-51.5 270.5q0 161 62 292.5t179.5 208t277.5 76.5q173 0 297.5 -88.5t175.5 -247.5l-224 -74q-27 93 -91.5 147t-157.5 54t-154.5 -50t-90 -133t-28.5 -185q0 -101 28.5 -184t89.5 -133t155 -50
q93 0 157.5 54.5z" />
    <glyph glyph-name="egrave" unicode="&#xe8;" horiz-adv-x="1201" 
d="M1113 478h-777q6 -87 41.5 -153.5t101 -104t156.5 -37.5q86 0 153.5 31.5t126.5 108.5l167 -148q-90 -99 -200 -148t-249 -49q-178 0 -302.5 78t-187 208.5t-62.5 286.5q0 153 59.5 285.5t180 214t293.5 81.5q180 0 294 -82.5t164 -207.5t50 -259q0 -53 -9 -105z
M478.5 892q-59.5 -35 -94.5 -92t-45 -125h542q-1 18 -6 38q-17 103 -86 158.5t-172 55.5q-79 0 -138.5 -35zM226 1570h246l234 -320h-175z" />
    <glyph glyph-name="eacute" unicode="&#xe9;" horiz-adv-x="1201" 
d="M1113 478h-777q6 -87 41.5 -153.5t101 -104t156.5 -37.5q86 0 153.5 31.5t126.5 108.5l167 -148q-90 -99 -200 -148t-249 -49q-178 0 -302.5 78t-187 208.5t-62.5 286.5q0 153 59.5 285.5t180 214t293.5 81.5q180 0 294 -82.5t164 -207.5t50 -259q0 -53 -9 -105z
M478.5 892q-59.5 -35 -94.5 -92t-45 -125h542q-1 18 -6 38q-17 103 -86 158.5t-172 55.5q-79 0 -138.5 -35zM764 1570h245l-323 -320h-169z" />
    <glyph glyph-name="ecircumflex" unicode="&#xea;" horiz-adv-x="1201" 
d="M1113 478h-777q6 -87 41.5 -153.5t101 -104t156.5 -37.5q86 0 153.5 31.5t126.5 108.5l167 -148q-90 -99 -200 -148t-249 -49q-178 0 -302.5 78t-187 208.5t-62.5 286.5q0 153 59.5 285.5t180 214t293.5 81.5q180 0 294 -82.5t164 -207.5t50 -259q0 -53 -9 -105z
M478.5 892q-59.5 -35 -94.5 -92t-45 -125h542q-1 18 -6 38q-17 103 -86 158.5t-172 55.5q-79 0 -138.5 -35zM615 1604l347 -379h-180l-167 163l-165 -163h-179z" />
    <glyph glyph-name="edieresis" unicode="&#xeb;" horiz-adv-x="1201" 
d="M1113 478h-777q6 -87 41.5 -153.5t101 -104t156.5 -37.5q86 0 153.5 31.5t126.5 108.5l167 -148q-90 -99 -200 -148t-249 -49q-178 0 -302.5 78t-187 208.5t-62.5 286.5q0 153 59.5 285.5t180 214t293.5 81.5q180 0 294 -82.5t164 -207.5t50 -259q0 -53 -9 -105z
M478.5 892q-59.5 -35 -94.5 -92t-45 -125h542q-1 18 -6 38q-17 103 -86 158.5t-172 55.5q-79 0 -138.5 -35zM327 1316q-34 20 -54 54t-20 75q0 40 20 74t54 54t75 20q40 0 74 -20t54 -54t20 -74q0 -41 -20 -75t-54 -54t-74 -20q-41 0 -75 20zM759 1316q-34 20 -54 54t-20 75
q0 40 20 74t54 54t75 20q39 0 73.5 -20t54.5 -54t20 -74q0 -41 -20 -75t-54.5 -54t-73.5 -20q-41 0 -75 20z" />
    <glyph glyph-name="igrave" unicode="&#xec;" horiz-adv-x="595" 
d="M175 1110h245v-1110h-245v1110zM-94 1570h246l234 -320h-175z" />
    <glyph glyph-name="iacute" unicode="&#xed;" horiz-adv-x="595" 
d="M175 1110h245v-1110h-245v1110zM444 1570h245l-323 -320h-169z" />
    <glyph glyph-name="icircumflex" unicode="&#xee;" horiz-adv-x="595" 
d="M175 1110h245v-1110h-245v1110zM295 1604l347 -379h-180l-167 163l-165 -163h-179z" />
    <glyph glyph-name="idieresis" unicode="&#xef;" horiz-adv-x="595" 
d="M175 1110h245v-1110h-245v1110zM7 1316q-34 20 -54 54t-20 75q0 40 20 74t54 54t75 20q40 0 74 -20t54 -54t20 -74q0 -41 -20 -75t-54 -54t-74 -20q-41 0 -75 20zM439 1316q-34 20 -54 54t-20 75q0 40 20 74t54 54t75 20q39 0 73.5 -20t54.5 -54t20 -74q0 -41 -20 -75
t-54.5 -54t-73.5 -20q-41 0 -75 20z" />
    <glyph glyph-name="eth" unicode="&#xf0;" horiz-adv-x="1254" 
d="M339.5 53q-129.5 75 -203 200.5t-73.5 268.5q0 148 76 267t205.5 187t281.5 68q30 0 67 -14l-124 197l-70 -79h-131l145 165l-167 257h267l58 -84l70 84h131l-140 -158l279 -464q73 -121 111 -196t52.5 -128.5t14.5 -108.5q0 -146 -75.5 -269.5t-204.5 -195.5t-282 -72
q-158 0 -287.5 75zM784.5 256q72.5 41 115.5 111.5t43 153.5q0 82 -43 152.5t-116 112t-158 41.5t-158 -41.5t-116 -112t-43 -152.5q0 -83 43 -153t116 -111.5t158 -41.5q86 0 158.5 41z" />
    <glyph glyph-name="ntilde" unicode="&#xf1;" horiz-adv-x="1297" 
d="M175 1110h231l12 -85h20q50 47 130 77t176 30q167 0 270 -83q78 -64 106 -161t28 -236v-652h-241v609q0 104 -14 163.5t-51 96.5q-63 61 -174 61q-130 0 -194 -82q-32 -41 -44 -101.5t-12 -158.5v-588h-243v1110zM708.5 1266.5q-36.5 15.5 -60 36.5t-53.5 55t-50.5 50
t-47.5 16q-41 0 -64 -42.5t-23 -119.5h-133q0 145 61 224.5t166 79.5q43 0 76.5 -14.5t57 -35.5t53.5 -53q32 -35 54 -51.5t49 -16.5q35 0 57.5 43.5t22.5 119.5h139q0 -96 -26.5 -165t-76.5 -105.5t-117 -36.5q-48 0 -84.5 15.5z" />
    <glyph glyph-name="ograve" unicode="&#xf2;" horiz-adv-x="1269" 
d="M342.5 51q-125.5 73 -193.5 204.5t-68 302.5q0 170 68 300.5t193.5 202t292.5 71.5q166 0 291.5 -71.5t193.5 -202t68 -300.5q0 -171 -68 -302.5t-193.5 -204.5t-291.5 -73q-167 0 -292.5 73zM807 231.5q69 48.5 102.5 133t33.5 193.5q0 166 -77.5 267.5t-230.5 101.5
q-154 0 -232 -101t-78 -268q0 -109 33.5 -193.5t103 -133t173.5 -48.5q103 0 172 48.5zM243 1570h246l234 -320h-175z" />
    <glyph glyph-name="oacute" unicode="&#xf3;" horiz-adv-x="1269" 
d="M342.5 51q-125.5 73 -193.5 204.5t-68 302.5q0 170 68 300.5t193.5 202t292.5 71.5q166 0 291.5 -71.5t193.5 -202t68 -300.5q0 -171 -68 -302.5t-193.5 -204.5t-291.5 -73q-167 0 -292.5 73zM807 231.5q69 48.5 102.5 133t33.5 193.5q0 166 -77.5 267.5t-230.5 101.5
q-154 0 -232 -101t-78 -268q0 -109 33.5 -193.5t103 -133t173.5 -48.5q103 0 172 48.5zM781 1570h245l-323 -320h-169z" />
    <glyph glyph-name="ocircumflex" unicode="&#xf4;" horiz-adv-x="1269" 
d="M342.5 51q-125.5 73 -193.5 204.5t-68 302.5q0 170 68 300.5t193.5 202t292.5 71.5q166 0 291.5 -71.5t193.5 -202t68 -300.5q0 -171 -68 -302.5t-193.5 -204.5t-291.5 -73q-167 0 -292.5 73zM807 231.5q69 48.5 102.5 133t33.5 193.5q0 166 -77.5 267.5t-230.5 101.5
q-154 0 -232 -101t-78 -268q0 -109 33.5 -193.5t103 -133t173.5 -48.5q103 0 172 48.5zM632 1604l347 -379h-180l-167 163l-165 -163h-179z" />
    <glyph glyph-name="otilde" unicode="&#xf5;" horiz-adv-x="1269" 
d="M342.5 51q-125.5 73 -193.5 204.5t-68 302.5q0 170 68 300.5t193.5 202t292.5 71.5q166 0 291.5 -71.5t193.5 -202t68 -300.5q0 -171 -68 -302.5t-193.5 -204.5t-291.5 -73q-167 0 -292.5 73zM807 231.5q69 48.5 102.5 133t33.5 193.5q0 166 -77.5 267.5t-230.5 101.5
q-154 0 -232 -101t-78 -268q0 -109 33.5 -193.5t103 -133t173.5 -48.5q103 0 172 48.5zM697.5 1266.5q-36.5 15.5 -60 36.5t-53.5 55t-50.5 50t-47.5 16q-41 0 -64 -42.5t-23 -119.5h-133q0 145 61 224.5t166 79.5q43 0 76.5 -14.5t57 -35.5t53.5 -53q32 -35 54 -51.5
t49 -16.5q35 0 57.5 43.5t22.5 119.5h139q0 -96 -26.5 -165t-76.5 -105.5t-117 -36.5q-48 0 -84.5 15.5z" />
    <glyph glyph-name="odieresis" unicode="&#xf6;" horiz-adv-x="1269" 
d="M342.5 51q-125.5 73 -193.5 204.5t-68 302.5q0 170 68 300.5t193.5 202t292.5 71.5q166 0 291.5 -71.5t193.5 -202t68 -300.5q0 -171 -68 -302.5t-193.5 -204.5t-291.5 -73q-167 0 -292.5 73zM807 231.5q69 48.5 102.5 133t33.5 193.5q0 166 -77.5 267.5t-230.5 101.5
q-154 0 -232 -101t-78 -268q0 -109 33.5 -193.5t103 -133t173.5 -48.5q103 0 172 48.5zM344 1316q-34 20 -54 54t-20 75q0 40 20 74t54 54t75 20q40 0 74 -20t54 -54t20 -74q0 -41 -20 -75t-54 -54t-74 -20q-41 0 -75 20zM776 1316q-34 20 -54 54t-20 75q0 40 20 74t54 54
t75 20q39 0 73.5 -20t54.5 -54t20 -74q0 -41 -20 -75t-54.5 -54t-73.5 -20q-41 0 -75 20z" />
    <glyph glyph-name="divide" unicode="&#xf7;" horiz-adv-x="1283" 
d="M547 945q-34 20 -54 54.5t-20 75.5q0 40 20 73.5t54 53.5t75 20q40 0 74 -20t54 -53.5t20 -73.5q0 -41 -20 -75.5t-54 -54.5t-74 -20q-41 0 -75 20zM191 786h900v-175h-900v175zM547 174q-34 20 -54 54.5t-20 75.5q0 40 20 74t54 54t75 20q40 0 74 -20t54 -54t20 -74
q0 -41 -20 -75.5t-54 -54.5t-74 -20q-41 0 -75 20z" />
    <glyph glyph-name="oslash" unicode="&#xf8;" horiz-adv-x="1269" 
d="M1142.5 809.5q45.5 -113.5 45.5 -251.5q0 -171 -68 -302.5t-193.5 -204.5t-291.5 -73q-121 0 -223 40l-83 -135l-154 94l83 136q-85 77 -131 191.5t-46 253.5q0 170 68 300.5t193.5 202t292.5 71.5q120 0 223 -39l81 131l153 -94l-80 -131q85 -76 130.5 -189.5zM383 316
l363 594q-49 17 -111 17q-154 0 -232 -101t-78 -268q0 -145 58 -242zM807 231.5q69 48.5 102.5 133t33.5 193.5q0 144 -56 237l-364 -594q50 -18 112 -18q103 0 172 48.5z" />
    <glyph glyph-name="ugrave" unicode="&#xf9;" horiz-adv-x="1297" 
d="M283 60q-72 59 -104 151.5t-32 247.5v651h244v-607q0 -112 14.5 -169t49.5 -92q62 -59 176 -59q124 0 188 78q32 39 45.5 97.5t13.5 164.5v587h244v-1110h-244v88h-20q-51 -49 -130.5 -79.5t-177.5 -30.5q-164 0 -267 82zM258 1570h246l234 -320h-175z" />
    <glyph glyph-name="uacute" unicode="&#xfa;" horiz-adv-x="1297" 
d="M283 60q-72 59 -104 151.5t-32 247.5v651h244v-607q0 -112 14.5 -169t49.5 -92q62 -59 176 -59q124 0 188 78q32 39 45.5 97.5t13.5 164.5v587h244v-1110h-244v88h-20q-51 -49 -130.5 -79.5t-177.5 -30.5q-164 0 -267 82zM796 1570h245l-323 -320h-169z" />
    <glyph glyph-name="ucircumflex" unicode="&#xfb;" horiz-adv-x="1297" 
d="M283 60q-72 59 -104 151.5t-32 247.5v651h244v-607q0 -112 14.5 -169t49.5 -92q62 -59 176 -59q124 0 188 78q32 39 45.5 97.5t13.5 164.5v587h244v-1110h-244v88h-20q-51 -49 -130.5 -79.5t-177.5 -30.5q-164 0 -267 82zM647 1604l347 -379h-180l-167 163l-165 -163
h-179z" />
    <glyph glyph-name="udieresis" unicode="&#xfc;" horiz-adv-x="1297" 
d="M283 60q-72 59 -104 151.5t-32 247.5v651h244v-607q0 -112 14.5 -169t49.5 -92q62 -59 176 -59q124 0 188 78q32 39 45.5 97.5t13.5 164.5v587h244v-1110h-244v88h-20q-51 -49 -130.5 -79.5t-177.5 -30.5q-164 0 -267 82zM359 1316q-34 20 -54 54t-20 75q0 40 20 74
t54 54t75 20q40 0 74 -20t54 -54t20 -74q0 -41 -20 -75t-54 -54t-74 -20q-41 0 -75 20zM791 1316q-34 20 -54 54t-20 75q0 40 20 74t54 54t75 20q39 0 73.5 -20t54.5 -54t20 -74q0 -41 -20 -75t-54.5 -54t-73.5 -20q-41 0 -75 20z" />
    <glyph glyph-name="yacute" unicode="&#xfd;" horiz-adv-x="1155" 
d="M447 26l-437 1084h268l287 -788h21l292 788h267l-630 -1570h-264zM724 1570h245l-323 -320h-169z" />
    <glyph glyph-name="thorn" unicode="&#xfe;" horiz-adv-x="1329" 
d="M179 1570h244v-544h21q57 51 137 78.5t172 27.5q151 0 260 -68t166.5 -198t57.5 -311t-58 -311t-166.5 -198t-258.5 -68q-96 0 -175.5 29.5t-134.5 80.5h-21v-548h-244v2030zM915.5 279q77.5 96 77.5 276q0 181 -77.5 276.5t-215.5 95.5q-93 0 -160.5 -43.5t-103.5 -127
t-36 -201.5q0 -117 36 -200.5t103.5 -127.5t160.5 -44q138 0 215.5 96z" />
    <glyph glyph-name="ydieresis" unicode="&#xff;" horiz-adv-x="1155" 
d="M447 26l-437 1084h268l287 -788h21l292 788h267l-630 -1570h-264zM287 1316q-34 20 -54 54t-20 75q0 40 20 74t54 54t75 20q40 0 74 -20t54 -54t20 -74q0 -41 -20 -75t-54 -54t-74 -20q-41 0 -75 20zM719 1316q-34 20 -54 54t-20 75q0 40 20 74t54 54t75 20
q39 0 73.5 -20t54.5 -54t20 -74q0 -41 -20 -75t-54.5 -54t-73.5 -20q-41 0 -75 20z" />
    <glyph glyph-name="Amacron" unicode="&#x100;" horiz-adv-x="1526" 
d="M1082 342h-634l-117 -342h-290l573 1570h300l571 -1570h-288zM1002 578l-225 668h-20l-228 -668h473zM453 1898h617v-136h-617v136z" />
    <glyph glyph-name="amacron" unicode="&#x101;" horiz-adv-x="1212" 
d="M1047.5 856q16.5 -71 16.5 -184v-672h-222l-22 94h-20q-43 -46 -105 -74q-92 -42 -207 -42q-125 0 -217.5 44t-142 125.5t-49.5 189.5q0 206 167 288q54 26 125.5 37.5t192.5 11.5h256q-1 79 -14 125.5t-45 74.5q-30 26 -77.5 39.5t-106.5 13.5q-82 0 -164.5 -34.5
t-157.5 -102.5l-147 163q105 87 225 133t244 46q145 0 249.5 -39t163.5 -115q41 -51 57.5 -122zM803.5 348.5q14.5 54.5 16.5 128.5h-294q-57 0 -93 -8t-63 -31q-23 -19 -34 -42t-11 -60q0 -74 52 -119t153 -45q66 0 123 21.5t97 61.5q39 39 53.5 93.5zM295 1438h617v-136
h-617v136z" />
    <glyph glyph-name="Abreve" unicode="&#x102;" horiz-adv-x="1526" 
d="M1082 342h-634l-117 -342h-290l573 1570h300l571 -1570h-288zM1002 578l-225 668h-20l-228 -668h473zM502.5 1797q-86.5 84 -86.5 233h163q0 -93 49 -137t134 -44q87 0 135 45t48 136h164q0 -152 -88.5 -234.5t-258.5 -82.5q-173 0 -259.5 84z" />
    <glyph glyph-name="abreve" unicode="&#x103;" horiz-adv-x="1212" 
d="M1047.5 856q16.5 -71 16.5 -184v-672h-222l-22 94h-20q-43 -46 -105 -74q-92 -42 -207 -42q-125 0 -217.5 44t-142 125.5t-49.5 189.5q0 206 167 288q54 26 125.5 37.5t192.5 11.5h256q-1 79 -14 125.5t-45 74.5q-30 26 -77.5 39.5t-106.5 13.5q-82 0 -164.5 -34.5
t-157.5 -102.5l-147 163q105 87 225 133t244 46q145 0 249.5 -39t163.5 -115q41 -51 57.5 -122zM803.5 348.5q14.5 54.5 16.5 128.5h-294q-57 0 -93 -8t-63 -31q-23 -19 -34 -42t-11 -60q0 -74 52 -119t153 -45q66 0 123 21.5t97 61.5q39 39 53.5 93.5zM344.5 1337
q-86.5 84 -86.5 233h163q0 -93 49 -137t134 -44q87 0 135 45t48 136h164q0 -152 -88.5 -234.5t-258.5 -82.5q-173 0 -259.5 84z" />
    <glyph glyph-name="Aogonek" unicode="&#x104;" horiz-adv-x="1526" 
d="M1082 342h-634l-117 -342h-290l573 1570h300l571 -1570h-288zM1002 578l-225 668h-20l-228 -668h473zM1225 -428.5q-90 51.5 -90 140.5q0 64 48.5 139t141.5 149h160q-82 -57 -127 -118t-45 -111q0 -51 43.5 -80t128.5 -29v-142q-170 0 -260 51.5z" />
    <glyph glyph-name="aogonek" unicode="&#x105;" horiz-adv-x="1212" 
d="M937 -118q-45 -61 -45 -111q0 -51 43.5 -80t128.5 -29v-142q-170 0 -260 51.5t-90 140.5q0 64 48.5 139t141.5 149h-62l-22 94h-20q-43 -46 -105 -74q-92 -42 -207 -42q-125 0 -217.5 44t-142 125.5t-49.5 189.5q0 206 167 288q54 26 125.5 37.5t192.5 11.5h256
q-1 79 -14 125.5t-45 74.5q-30 26 -77.5 39.5t-106.5 13.5q-82 0 -164.5 -34.5t-157.5 -102.5l-147 163q105 87 225 133t244 46q145 0 249.5 -39t163.5 -115q41 -51 57.5 -122t16.5 -184v-672q-82 -57 -127 -118zM803.5 348.5q14.5 54.5 16.5 128.5h-294q-57 0 -93 -8
t-63 -31q-23 -19 -34 -42t-11 -60q0 -74 52 -119t153 -45q66 0 123 21.5t97 61.5q39 39 53.5 93.5z" />
    <glyph glyph-name="Cacute" unicode="&#x106;" horiz-adv-x="1633" 
d="M461 75.5q-168 97.5 -257.5 280t-89.5 430.5t89.5 430t257.5 279t398 97q255 0 431.5 -118t255.5 -335l-249 -96q-51 151 -164 232t-274 81q-148 0 -256 -69t-165.5 -197.5t-57.5 -303.5q0 -176 57 -305t165 -198t256 -69q165 0 280 86.5t166 243.5l255 -79
q-75 -233 -256 -360t-445 -127q-229 0 -397 97.5zM990 2030h245l-323 -320h-169z" />
    <glyph glyph-name="cacute" unicode="&#x107;" horiz-adv-x="1134" 
d="M324.5 54q-117.5 76 -180 207t-62.5 294q0 161 62 292.5t179.5 208t277.5 76.5q173 0 297.5 -88.5t175.5 -247.5l-224 -74q-27 93 -91.5 147t-157.5 54t-154.5 -50t-90 -133t-28.5 -185q0 -101 28.5 -184t89.5 -133t155 -50q93 0 157.5 54.5t89.5 145.5l222 -69
q-32 -105 -98.5 -182t-161.5 -118t-209 -41q-159 0 -276.5 76zM732 1570h245l-323 -320h-169z" />
    <glyph glyph-name="Cdotaccent" unicode="&#x10a;" horiz-adv-x="1633" 
d="M461 75.5q-168 97.5 -257.5 280t-89.5 430.5t89.5 430t257.5 279t398 97q255 0 431.5 -118t255.5 -335l-249 -96q-51 151 -164 232t-274 81q-148 0 -256 -69t-165.5 -197.5t-57.5 -303.5q0 -176 57 -305t165 -198t256 -69q165 0 280 86.5t166 243.5l255 -79
q-75 -233 -256 -360t-445 -127q-229 0 -397 97.5zM769 1711q-34 20 -54 54.5t-20 75.5q0 40 20 73.5t54 53.5t75 20q40 0 74 -20t54 -53.5t20 -73.5q0 -41 -20 -75.5t-54 -54.5t-74 -20q-41 0 -75 20z" />
    <glyph glyph-name="cdotaccent" unicode="&#x10b;" horiz-adv-x="1134" 
d="M324.5 54q-117.5 76 -180 207t-62.5 294q0 161 62 292.5t179.5 208t277.5 76.5q173 0 297.5 -88.5t175.5 -247.5l-224 -74q-27 93 -91.5 147t-157.5 54t-154.5 -50t-90 -133t-28.5 -185q0 -101 28.5 -184t89.5 -133t155 -50q93 0 157.5 54.5t89.5 145.5l222 -69
q-32 -105 -98.5 -182t-161.5 -118t-209 -41q-159 0 -276.5 76zM506 1294.5q-37 21.5 -59 58.5t-22 81q0 42 21.5 79t58.5 58.5t81 21.5q43 0 79.5 -22t58.5 -58.5t22 -78.5q0 -44 -22 -81t-58.5 -58.5t-79.5 -21.5t-80 21.5z" />
    <glyph glyph-name="Ccaron" unicode="&#x10c;" horiz-adv-x="1633" 
d="M461 75.5q-168 97.5 -257.5 280t-89.5 430.5t89.5 430t257.5 279t398 97q255 0 431.5 -118t255.5 -335l-249 -96q-51 151 -164 232t-274 81q-148 0 -256 -69t-165.5 -197.5t-57.5 -303.5q0 -176 57 -305t165 -198t256 -69q165 0 280 86.5t166 243.5l255 -79
q-75 -233 -256 -360t-445 -127q-229 0 -397 97.5zM497 2030h181l165 -153l166 153h181l-347 -359z" />
    <glyph glyph-name="ccaron" unicode="&#x10d;" horiz-adv-x="1134" 
d="M324.5 54q-117.5 76 -180 207t-62.5 294q0 161 62 292.5t179.5 208t277.5 76.5q173 0 297.5 -88.5t175.5 -247.5l-224 -74q-27 93 -91.5 147t-157.5 54t-154.5 -50t-90 -133t-28.5 -185q0 -101 28.5 -184t89.5 -133t155 -50q93 0 157.5 54.5t89.5 145.5l222 -69
q-32 -105 -98.5 -182t-161.5 -118t-209 -41q-159 0 -276.5 76zM239 1570h181l165 -153l166 153h181l-347 -359z" />
    <glyph glyph-name="Dcaron" unicode="&#x10e;" horiz-adv-x="1599" 
d="M221 1570h381q173 0 290.5 -19.5t198 -57t154.5 -99.5q119 -100 180.5 -257t61.5 -363q0 -403 -245 -604q-75 -62 -158 -98.5t-199 -54t-285 -17.5h-379v1570zM575 237q138 0 226.5 13.5t147.5 41.5t114 77q158 141 158 415q0 136 -38.5 241t-110.5 174
q-54 51 -113.5 79.5t-144.5 41.5t-216 13h-111v-1096h88zM451 2030h181l165 -153l166 153h181l-347 -359z" />
    <glyph glyph-name="dcaron" unicode="&#x10f;" horiz-adv-x="1328" 
d="M317 46.5q-109 68.5 -167 198t-58 310.5t58 310.5t167 198t259 68.5q94 0 173.5 -29t136.5 -80h21v547h243v-1570h-220l-23 84h-21q-57 -51 -137.5 -78.5t-171.5 -27.5q-151 0 -260 68.5zM789 226.5q67 43.5 103 127t36 201.5q0 117 -35.5 200.5t-102.5 127.5t-160 44
q-138 0 -215.5 -96t-77.5 -276t77.5 -276t215.5 -96q92 0 159 43.5zM1532 1556.5q46 -35.5 66 -90.5t20 -117q0 -74 -29.5 -152t-93 -142.5t-160.5 -93.5l-52 121q62 17 107.5 53t69 81.5t23.5 93.5v8q-36 -22 -77 -22q-40 0 -74 20.5t-54 55.5t-20 75q0 41 20.5 74.5
t55.5 52t79 18.5q73 0 119 -35.5z" />
    <glyph glyph-name="Dcroat" unicode="&#x110;" horiz-adv-x="1599" 
d="M1425.5 1137q61.5 -157 61.5 -363q0 -403 -245 -604q-75 -62 -158 -98.5t-199 -54t-285 -17.5h-379v683h-146v155h146v732h381q173 0 290.5 -19.5t198 -57t154.5 -99.5q119 -100 180.5 -257zM1221 784q0 136 -38.5 241t-110.5 174q-54 51 -113.5 79.5t-144.5 41.5
t-216 13h-111v-495h294v-155h-294v-446h88q138 0 226.5 13.5t147.5 41.5t114 77q158 141 158 415z" />
    <glyph glyph-name="dcroat" unicode="&#x111;" horiz-adv-x="1328" 
d="M1296 1326h-146v-1326h-220l-23 84h-21q-57 -51 -137.5 -78.5t-171.5 -27.5q-151 0 -260 68.5t-167 198t-58 310.5t58 310.5t167 198t259 68.5q94 0 173.5 -29t136.5 -80h21v303h-317v155h317v89h243v-89h146v-155zM789 226.5q67 43.5 103 127t36 201.5
q0 117 -35.5 200.5t-102.5 127.5t-160 44q-138 0 -215.5 -96t-77.5 -276t77.5 -276t215.5 -96q92 0 159 43.5z" />
    <glyph glyph-name="Emacron" unicode="&#x112;" horiz-adv-x="1380" 
d="M221 1570h996v-237h-730v-430h674v-235h-674v-431h776v-237h-1042v1570zM416 1898h617v-136h-617v136z" />
    <glyph glyph-name="emacron" unicode="&#x113;" horiz-adv-x="1201" 
d="M1113 478h-777q6 -87 41.5 -153.5t101 -104t156.5 -37.5q86 0 153.5 31.5t126.5 108.5l167 -148q-90 -99 -200 -148t-249 -49q-178 0 -302.5 78t-187 208.5t-62.5 286.5q0 153 59.5 285.5t180 214t293.5 81.5q180 0 294 -82.5t164 -207.5t50 -259q0 -53 -9 -105z
M478.5 892q-59.5 -35 -94.5 -92t-45 -125h542q-1 18 -6 38q-17 103 -86 158.5t-172 55.5q-79 0 -138.5 -35zM308 1438h617v-136h-617v136z" />
    <glyph glyph-name="Edotaccent" unicode="&#x116;" horiz-adv-x="1380" 
d="M221 1570h996v-237h-730v-430h674v-235h-674v-431h776v-237h-1042v1570zM651 1711q-34 20 -54 54.5t-20 75.5q0 40 20 73.5t54 53.5t75 20q40 0 74 -20t54 -53.5t20 -73.5q0 -41 -20 -75.5t-54 -54.5t-74 -20q-41 0 -75 20z" />
    <glyph glyph-name="edotaccent" unicode="&#x117;" horiz-adv-x="1201" 
d="M1113 478h-777q6 -87 41.5 -153.5t101 -104t156.5 -37.5q86 0 153.5 31.5t126.5 108.5l167 -148q-90 -99 -200 -148t-249 -49q-178 0 -302.5 78t-187 208.5t-62.5 286.5q0 153 59.5 285.5t180 214t293.5 81.5q180 0 294 -82.5t164 -207.5t50 -259q0 -53 -9 -105z
M478.5 892q-59.5 -35 -94.5 -92t-45 -125h542q-1 18 -6 38q-17 103 -86 158.5t-172 55.5q-79 0 -138.5 -35zM538 1294.5q-37 21.5 -59 58.5t-22 81q0 42 21.5 79t58.5 58.5t81 21.5q43 0 79.5 -22t58.5 -58.5t22 -78.5q0 -44 -22 -81t-58.5 -58.5t-79.5 -21.5t-80 21.5z" />
    <glyph glyph-name="Eogonek" unicode="&#x118;" horiz-adv-x="1380" 
d="M221 1570h996v-237h-730v-430h674v-235h-674v-431h776v-237h-1042v1570zM1003 -428.5q-90 51.5 -90 140.5q0 64 48.5 139t141.5 149h160q-82 -57 -127 -118t-45 -111q0 -51 43.5 -80t128.5 -29v-142q-170 0 -260 51.5z" />
    <glyph glyph-name="eogonek" unicode="&#x119;" horiz-adv-x="1201" 
d="M1113 478h-777q6 -87 41.5 -153.5t101 -104t156.5 -37.5q86 0 153.5 31.5t126.5 108.5l167 -148q-71 -77 -149 -122q-77 -56 -120 -115.5t-43 -107.5q0 -51 43.5 -80t128.5 -29v-142q-170 0 -260 51.5t-90 140.5q0 47 26.5 100.5t78.5 109.5q-31 -3 -64 -3
q-178 0 -302.5 78t-187 208.5t-62.5 286.5q0 153 59.5 285.5t180 214t293.5 81.5q180 0 294 -82.5t164 -207.5t50 -259q0 -53 -9 -105zM478.5 892q-59.5 -35 -94.5 -92t-45 -125h542q-1 18 -6 38q-17 103 -86 158.5t-172 55.5q-79 0 -138.5 -35z" />
    <glyph glyph-name="Ecaron" unicode="&#x11a;" horiz-adv-x="1380" 
d="M221 1570h996v-237h-730v-430h674v-235h-674v-431h776v-237h-1042v1570zM379 2030h181l165 -153l166 153h181l-347 -359z" />
    <glyph glyph-name="ecaron" unicode="&#x11b;" horiz-adv-x="1201" 
d="M1113 478h-777q6 -87 41.5 -153.5t101 -104t156.5 -37.5q86 0 153.5 31.5t126.5 108.5l167 -148q-90 -99 -200 -148t-249 -49q-178 0 -302.5 78t-187 208.5t-62.5 286.5q0 153 59.5 285.5t180 214t293.5 81.5q180 0 294 -82.5t164 -207.5t50 -259q0 -53 -9 -105z
M478.5 892q-59.5 -35 -94.5 -92t-45 -125h542q-1 18 -6 38q-17 103 -86 158.5t-172 55.5q-79 0 -138.5 -35zM271 1570h181l165 -153l166 153h181l-347 -359z" />
    <glyph glyph-name="Gbreve" unicode="&#x11e;" horiz-adv-x="1729" 
d="M1568 843v-843h-216l-16 129h-29q-73 -68 -193.5 -109.5t-263.5 -41.5q-225 0 -391 98t-255 281t-89 433q0 246 89.5 427t257.5 278t397 97q256 0 433 -118.5t255 -334.5l-249 -96q-51 151 -164 232t-275 81q-147 0 -255 -68.5t-165.5 -196t-57.5 -301.5q0 -176 60 -306
t172.5 -200t267.5 -70q135 0 234 47.5t153.5 136t58.5 210.5h-435v235h676zM601.5 1797q-86.5 84 -86.5 233h163q0 -93 49 -137t134 -44q87 0 135 45t48 136h164q0 -152 -88.5 -234.5t-258.5 -82.5q-173 0 -259.5 84z" />
    <glyph glyph-name="gbreve" unicode="&#x11f;" horiz-adv-x="1214" 
d="M1123 25q22 -44 22 -97q0 -219 -163 -323q-135 -85 -371 -85q-130 0 -233 23t-174 66t-108 106.5t-37 140.5q0 43 13 94l136 80v14l-13 11q-93 83 -93 209q0 131 115 242q-55 96 -55 213q0 122 58.5 215.5t160 145.5t227.5 52q151 0 261 -74l170 146l125 -156l-165 -135
q48 -94 48 -208q0 -127 -58 -218t-157 -137.5t-221 -46.5q-148 0 -261 69q-37 -43 -37 -86q0 -53 39 -85q41 -29 128 -29h298q109 0 174.5 -17t109.5 -54q39 -32 61 -76zM458 874.5q-55 -60.5 -55 -159.5q0 -98 55 -156t152 -58q94 0 148 58t54 156q0 99 -54 159.5
t-148 60.5q-97 0 -152 -60.5zM889 -185.5q14 25.5 14 61.5q0 24 -6 39t-21 27q-32 25 -105 25h-278q-62 0 -108 7l-79 -66q-6 -30 -6 -43q0 -67 57 -106q73 -50 257 -50q67 0 130 15t104 45q27 20 41 45.5zM345.5 1337q-86.5 84 -86.5 233h163q0 -93 49 -137t134 -44
q87 0 135 45t48 136h164q0 -152 -88.5 -234.5t-258.5 -82.5q-173 0 -259.5 84z" />
    <glyph glyph-name="Gdotaccent" unicode="&#x120;" horiz-adv-x="1729" 
d="M1568 843v-843h-216l-16 129h-29q-73 -68 -193.5 -109.5t-263.5 -41.5q-225 0 -391 98t-255 281t-89 433q0 246 89.5 427t257.5 278t397 97q256 0 433 -118.5t255 -334.5l-249 -96q-51 151 -164 232t-275 81q-147 0 -255 -68.5t-165.5 -196t-57.5 -301.5q0 -176 60 -306
t172.5 -200t267.5 -70q135 0 234 47.5t153.5 136t58.5 210.5h-435v235h676zM787 1711q-34 20 -54 54.5t-20 75.5q0 40 20 73.5t54 53.5t75 20q40 0 74 -20t54 -53.5t20 -73.5q0 -41 -20 -75.5t-54 -54.5t-74 -20q-41 0 -75 20z" />
    <glyph glyph-name="gdotaccent" unicode="&#x121;" horiz-adv-x="1214" 
d="M1123 25q22 -44 22 -97q0 -219 -163 -323q-135 -85 -371 -85q-130 0 -233 23t-174 66t-108 106.5t-37 140.5q0 43 13 94l136 80v14l-13 11q-93 83 -93 209q0 131 115 242q-55 96 -55 213q0 122 58.5 215.5t160 145.5t227.5 52q151 0 261 -74l170 146l125 -156l-165 -135
q48 -94 48 -208q0 -127 -58 -218t-157 -137.5t-221 -46.5q-148 0 -261 69q-37 -43 -37 -86q0 -53 39 -85q41 -29 128 -29h298q109 0 174.5 -17t109.5 -54q39 -32 61 -76zM458 874.5q-55 -60.5 -55 -159.5q0 -98 55 -156t152 -58q94 0 148 58t54 156q0 99 -54 159.5
t-148 60.5q-97 0 -152 -60.5zM889 -185.5q14 25.5 14 61.5q0 24 -6 39t-21 27q-32 25 -105 25h-278q-62 0 -108 7l-79 -66q-6 -30 -6 -43q0 -67 57 -106q73 -50 257 -50q67 0 130 15t104 45q27 20 41 45.5zM526 1294.5q-37 21.5 -59 58.5t-22 81q0 42 21.5 79t58.5 58.5
t81 21.5q43 0 79.5 -22t58.5 -58.5t22 -78.5q0 -44 -22 -81t-58.5 -58.5t-79.5 -21.5t-80 21.5z" />
    <glyph glyph-name="uni0122" unicode="&#x122;" horiz-adv-x="1729" 
d="M1568 843v-843h-216l-16 129h-29q-73 -68 -193.5 -109.5t-263.5 -41.5q-225 0 -391 98t-255 281t-89 433q0 246 89.5 427t257.5 278t397 97q256 0 433 -118.5t255 -334.5l-249 -96q-51 151 -164 232t-275 81q-147 0 -255 -68.5t-165.5 -196t-57.5 -301.5q0 -176 60 -306
t172.5 -200t267.5 -70q135 0 234 47.5t153.5 136t58.5 210.5h-435v235h676zM950.5 -121q45.5 -29 65.5 -75t20 -99q0 -62 -28.5 -133t-92 -130t-161.5 -83l-53 121q61 12 106 38t69.5 60t25.5 69q-39 -21 -79 -21t-74 20t-54 53t-20 71q0 39 21 70t57.5 49t79.5 18
q72 1 117.5 -28z" />
    <glyph glyph-name="uni0123" unicode="&#x123;" horiz-adv-x="1214" 
d="M1123 25q22 -44 22 -97q0 -219 -163 -323q-135 -85 -371 -85q-130 0 -233 23t-174 66t-108 106.5t-37 140.5q0 43 13 94l136 80v14l-13 11q-93 83 -93 209q0 131 115 242q-55 96 -55 213q0 122 58.5 215.5t160 145.5t227.5 52q151 0 261 -74l170 146l125 -156l-165 -135
q48 -94 48 -208q0 -127 -58 -218t-157 -137.5t-221 -46.5q-148 0 -261 69q-37 -43 -37 -86q0 -53 39 -85q41 -29 128 -29h298q109 0 174.5 -17t109.5 -54q39 -32 61 -76zM458 874.5q-55 -60.5 -55 -159.5q0 -98 55 -156t152 -58q94 0 148 58t54 156q0 99 -54 159.5
t-148 60.5q-97 0 -152 -60.5zM889 -185.5q14 25.5 14 61.5q0 24 -6 39t-21 27q-32 25 -105 25h-278q-62 0 -108 7l-79 -66q-6 -30 -6 -43q0 -67 57 -106q73 -50 257 -50q67 0 130 15t104 45q27 20 41 45.5zM694 1454.5q34 -17.5 54 -47t20 -63.5q0 -35 -21 -63t-57.5 -44
t-79.5 -16q-72 -1 -117.5 24.5t-65.5 67.5t-20 89q0 56 28.5 119t92 116t161.5 74l53 -108q-61 -11 -106.5 -34.5t-69.5 -53.5t-25 -62q38 19 79 19q40 0 74 -17.5z" />
    <glyph glyph-name="Hbar" unicode="&#x126;" horiz-adv-x="1699" 
d="M1584 1132h-106v-1132h-266v668h-725v-668h-266v1132h-99v137h99v301h266v-301h725v301h266v-301h106v-137zM1212 1132h-725v-227h725v227z" />
    <glyph glyph-name="hbar" unicode="&#x127;" horiz-adv-x="1302" 
d="M1124.5 886q28.5 -100 28.5 -234v-652h-244v608q0 103 -13.5 163t-51.5 97q-61 59 -174 59q-128 0 -191 -79q-33 -43 -45 -104.5t-12 -156.5v-587h-245l2 1292h-166v155h166v123h244v-123h296v-155h-297v-269h21q49 48 128 78.5t179 30.5q85 0 152.5 -22t115.5 -61
q78 -63 106.5 -163z" />
    <glyph glyph-name="Itilde" unicode="&#x128;" horiz-adv-x="708" 
d="M221 1570h266v-1570h-266v1570zM416.5 1726.5q-36.5 15.5 -60 36.5t-53.5 55t-50.5 50t-47.5 16q-41 0 -64 -42.5t-23 -119.5h-133q0 145 61 224.5t166 79.5q43 0 76.5 -14.5t57 -35.5t53.5 -53q32 -35 54 -51.5t49 -16.5q35 0 57.5 43.5t22.5 119.5h139
q0 -96 -26.5 -165t-76.5 -105.5t-117 -36.5q-48 0 -84.5 15.5z" />
    <glyph glyph-name="itilde" unicode="&#x129;" horiz-adv-x="595" 
d="M175 1110h245v-1110h-245v1110zM360.5 1266.5q-36.5 15.5 -60 36.5t-53.5 55t-50.5 50t-47.5 16q-41 0 -64 -42.5t-23 -119.5h-133q0 145 61 224.5t166 79.5q43 0 76.5 -14.5t57 -35.5t53.5 -53q32 -35 54 -51.5t49 -16.5q35 0 57.5 43.5t22.5 119.5h139
q0 -96 -26.5 -165t-76.5 -105.5t-117 -36.5q-48 0 -84.5 15.5z" />
    <glyph glyph-name="Imacron" unicode="&#x12a;" horiz-adv-x="708" 
d="M221 1570h266v-1570h-266v1570zM44 1898h617v-136h-617v136z" />
    <glyph glyph-name="imacron" unicode="&#x12b;" horiz-adv-x="595" 
d="M175 1110h245v-1110h-245v1110zM-12 1438h617v-136h-617v136z" />
    <glyph glyph-name="Iogonek" unicode="&#x12e;" horiz-adv-x="708" 
d="M221 1570h266v-1570h-266v1570zM227 -428.5q-90 51.5 -90 140.5q0 64 48.5 139t141.5 149h160q-82 -57 -127 -118t-45 -111q0 -51 43.5 -80t128.5 -29v-142q-170 0 -260 51.5z" />
    <glyph glyph-name="iogonek" unicode="&#x12f;" horiz-adv-x="595" 
d="M175 1110h245v-1110h-245v1110zM218 1294.5q-37 21.5 -59 58.5t-22 81q0 42 21.5 79t58.5 58.5t81 21.5q43 0 79.5 -22t58.5 -58.5t22 -78.5q0 -44 -22 -81t-58.5 -58.5t-79.5 -21.5t-80 21.5zM160 -428.5q-90 51.5 -90 140.5q0 64 48.5 139t141.5 149h160
q-82 -57 -127 -118t-45 -111q0 -51 43.5 -80t128.5 -29v-142q-170 0 -260 51.5z" />
    <glyph glyph-name="Idotaccent" unicode="&#x130;" horiz-adv-x="708" 
d="M221 1570h266v-1570h-266v1570zM279 1711q-34 20 -54 54.5t-20 75.5q0 40 20 73.5t54 53.5t75 20q40 0 74 -20t54 -53.5t20 -73.5q0 -41 -20 -75.5t-54 -54.5t-74 -20q-41 0 -75 20z" />
    <glyph glyph-name="dotlessi" unicode="&#x131;" horiz-adv-x="595" 
d="M175 1110h245v-1110h-245v1110z" />
    <glyph glyph-name="IJ" unicode="&#x132;" horiz-adv-x="2011" 
d="M221 1570h266v-1570h-266v1570zM1095.5 2.5q-89.5 24.5 -153.5 72.5q-85 62 -130 162.5t-46 234.5l266 39q2 -170 94 -241q59 -56 167 -56q137 0 203 76q30 36 43 96t13 184v763h-597v237h863v-1000q0 -168 -27 -272.5t-95 -175.5q-136 -144 -403 -144
q-108 0 -197.5 24.5z" />
    <glyph glyph-name="uni0136" unicode="&#x136;" horiz-adv-x="1609" 
d="M1562 0h-315l-457 777h-22l-281 -284v-493h-266v1570h266v-704h20l691 704h356l-585 -591zM920.5 -121q45.5 -29 65.5 -75t20 -99q0 -62 -28.5 -133t-92 -130t-161.5 -83l-53 121q61 12 106 38t69.5 60t25.5 69q-39 -21 -79 -21t-74 20t-54 53t-20 71q0 39 21 70t57.5 49
t79.5 18q72 1 117.5 -28z" />
    <glyph glyph-name="uni0137" unicode="&#x137;" horiz-adv-x="1253" 
d="M177 1570h245v-946h7l452 486h310l-387 -415l437 -695h-286l-328 529h-9l-196 -202v-327h-245v1570zM754.5 -121q45.5 -29 65.5 -75t20 -99q0 -62 -28.5 -133t-92 -130t-161.5 -83l-53 121q61 12 106 38t69.5 60t25.5 69q-39 -21 -79 -21t-74 20t-54 53t-20 71
q0 39 21 70t57.5 49t79.5 18q72 1 117.5 -28z" />
    <glyph glyph-name="kgreenlandic" unicode="&#x138;" horiz-adv-x="1265" 
d="M175 1110h261v-468h7l427 468h335l-386 -416l434 -694h-305l-318 518h-10l-184 -191v-327h-261v1110z" />
    <glyph glyph-name="Lacute" unicode="&#x139;" horiz-adv-x="1208" 
d="M221 1570h266v-1333h676v-237h-942v1570zM498 2029h245l-323 -320h-169z" />
    <glyph glyph-name="lacute" unicode="&#x13a;" horiz-adv-x="635" 
d="M230 38q-33 31 -48 87t-15 165v1280h245v-1224q0 -69 3.5 -97t15.5 -41q22 -25 71 -25q35 0 66 9l35 -182q-40 -14 -92 -23t-96 -9q-121 0 -185 60zM436 2030h245l-323 -320h-169z" />
    <glyph glyph-name="uni013B" unicode="&#x13b;" horiz-adv-x="1208" 
d="M221 1570h266v-1333h676v-237h-942v1570zM754.5 -121q45.5 -29 65.5 -75t20 -99q0 -62 -28.5 -133t-92 -130t-161.5 -83l-53 121q61 12 106 38t69.5 60t25.5 69q-39 -21 -79 -21t-74 20t-54 53t-20 71q0 39 21 70t57.5 49t79.5 18q72 1 117.5 -28z" />
    <glyph glyph-name="uni013C" unicode="&#x13c;" horiz-adv-x="635" 
d="M230 38q-33 31 -48 87t-15 165v1280h245v-1224q0 -69 3.5 -97t15.5 -41q22 -25 71 -25q35 0 66 9l35 -182q-40 -14 -92 -23t-96 -9q-121 0 -185 60zM454.5 -121q45.5 -29 65.5 -75t20 -99q0 -62 -28.5 -133t-92 -130t-161.5 -83l-53 121q61 12 106 38t69.5 60t25.5 69
q-39 -21 -79 -21t-74 20t-54 53t-20 71q0 39 21 70t57.5 49t79.5 18q72 1 117.5 -28z" />
    <glyph glyph-name="Lcaron" unicode="&#x13d;" horiz-adv-x="1208" 
d="M221 1570h266v-1333h676v-237h-942v1570zM1067 1556.5q46 -35.5 66 -90.5t20 -117q0 -74 -29.5 -152t-93 -142.5t-160.5 -93.5l-52 121q62 17 107.5 53t69 81.5t23.5 93.5v8q-36 -22 -77 -22q-40 0 -74 20.5t-54 55.5t-20 75q0 41 20.5 74.5t55.5 52t79 18.5
q73 0 119 -35.5z" />
    <glyph glyph-name="lcaron" unicode="&#x13e;" horiz-adv-x="635" 
d="M230 38q-33 31 -48 87t-15 165v1280h245v-1224q0 -69 3.5 -97t15.5 -41q22 -25 71 -25q35 0 66 9l35 -182q-40 -14 -92 -23t-96 -9q-121 0 -185 60zM813 1556.5q46 -35.5 66 -90.5t20 -117q0 -74 -29.5 -152t-93 -142.5t-160.5 -93.5l-52 121q62 17 107.5 53t69 81.5
t23.5 93.5v8q-36 -22 -77 -22q-40 0 -74 20.5t-54 55.5t-20 75q0 41 20.5 74.5t55.5 52t79 18.5q73 0 119 -35.5z" />
    <glyph glyph-name="Lslash" unicode="&#x141;" horiz-adv-x="1208" 
d="M1163 237v-237h-942v463l-139 -110v256l139 110v851h266v-641l262 207v-254l-262 -208v-437h676z" />
    <glyph glyph-name="lslash" unicode="&#x142;" horiz-adv-x="635" 
d="M603 10q-40 -14 -92 -23t-96 -9q-121 0 -185 60q-33 31 -48 87t-15 165v303l-124 -88v245l124 88v732h245v-559l173 122v-242l-173 -123v-422q0 -69 3.5 -97t15.5 -41q22 -25 71 -25q35 0 66 9z" />
    <glyph glyph-name="Nacute" unicode="&#x143;" horiz-adv-x="1699" 
d="M221 1570h395l574 -1225h22v1225h266v-1570h-397l-572 1228h-22v-1228h-266v1570zM995 2030h245l-323 -320h-169z" />
    <glyph glyph-name="nacute" unicode="&#x144;" horiz-adv-x="1297" 
d="M175 1110h231l12 -85h20q50 47 130 77t176 30q167 0 270 -83q78 -64 106 -161t28 -236v-652h-241v609q0 104 -14 163.5t-51 96.5q-63 61 -174 61q-130 0 -194 -82q-32 -41 -44 -101.5t-12 -158.5v-588h-243v1110zM792 1570h245l-323 -320h-169z" />
    <glyph glyph-name="uni0145" unicode="&#x145;" horiz-adv-x="1699" 
d="M221 1570h395l574 -1225h22v1225h266v-1570h-397l-572 1228h-22v-1228h-266v1570zM943.5 -121q45.5 -29 65.5 -75t20 -99q0 -62 -28.5 -133t-92 -130t-161.5 -83l-53 121q61 12 106 38t69.5 60t25.5 69q-39 -21 -79 -21t-74 20t-54 53t-20 71q0 39 21 70t57.5 49t79.5 18
q72 1 117.5 -28z" />
    <glyph glyph-name="uni0146" unicode="&#x146;" horiz-adv-x="1297" 
d="M175 1110h231l12 -85h20q50 47 130 77t176 30q167 0 270 -83q78 -64 106 -161t28 -236v-652h-241v609q0 104 -14 163.5t-51 96.5q-63 61 -174 61q-130 0 -194 -82q-32 -41 -44 -101.5t-12 -158.5v-588h-243v1110zM740.5 -121q45.5 -29 65.5 -75t20 -99q0 -62 -28.5 -133
t-92 -130t-161.5 -83l-53 121q61 12 106 38t69.5 60t25.5 69q-39 -21 -79 -21t-74 20t-54 53t-20 71q0 39 21 70t57.5 49t79.5 18q72 1 117.5 -28z" />
    <glyph glyph-name="Ncaron" unicode="&#x147;" horiz-adv-x="1699" 
d="M221 1570h395l574 -1225h22v1225h266v-1570h-397l-572 1228h-22v-1228h-266v1570zM502 2030h181l165 -153l166 153h181l-347 -359z" />
    <glyph glyph-name="ncaron" unicode="&#x148;" horiz-adv-x="1297" 
d="M175 1110h231l12 -85h20q50 47 130 77t176 30q167 0 270 -83q78 -64 106 -161t28 -236v-652h-241v609q0 104 -14 163.5t-51 96.5q-63 61 -174 61q-130 0 -194 -82q-32 -41 -44 -101.5t-12 -158.5v-588h-243v1110zM299 1570h181l165 -153l166 153h181l-347 -359z" />
    <glyph glyph-name="Eng" unicode="&#x14a;" horiz-adv-x="1685" 
d="M890 -391v167q48 -8 90 -8q65 0 98.5 31t33.5 85q0 46 -31 116l-588 1228h-6v-1228h-266v1570h382l589 -1225h5v1225h266v-1573q0 -109 -42 -200.5t-130.5 -147t-222.5 -55.5q-79 0 -178 15z" />
    <glyph glyph-name="eng" unicode="&#x14b;" horiz-adv-x="1300" 
d="M790.5 -472q-53.5 9 -94.5 24l36 192q31 -11 62 -11q61 0 87 31.5t26 88.5v755q0 102 -14 162.5t-51 97.5q-60 59 -174 59q-127 0 -191 -79q-32 -41 -44.5 -102.5t-12.5 -158.5v-587h-245v1110h231l14 -86h21q50 48 129.5 78t177.5 30q85 0 153 -22t115 -61
q78 -63 106 -162.5t28 -234.5v-882q0 -136 -73.5 -193.5t-187.5 -57.5q-45 0 -98.5 9z" />
    <glyph glyph-name="Omacron" unicode="&#x14c;" horiz-adv-x="1718" 
d="M460.5 76.5q-167.5 98.5 -257 280.5t-89.5 428t89.5 428t257 280.5t397.5 98.5t398.5 -98t258 -280t89.5 -429t-89.5 -429t-258 -280t-398.5 -98t-397.5 98.5zM1114.5 283.5q108.5 69.5 166.5 198.5t58 303q0 175 -58 303.5t-166 198t-257 69.5q-148 0 -255.5 -69.5
t-165 -198t-57.5 -303.5q0 -174 57.5 -303t165 -198.5t255.5 -69.5t256.5 69.5zM549 1897h617v-136h-617v136z" />
    <glyph glyph-name="omacron" unicode="&#x14d;" horiz-adv-x="1269" 
d="M342.5 51q-125.5 73 -193.5 204.5t-68 302.5q0 170 68 300.5t193.5 202t292.5 71.5q166 0 291.5 -71.5t193.5 -202t68 -300.5q0 -171 -68 -302.5t-193.5 -204.5t-291.5 -73q-167 0 -292.5 73zM807 231.5q69 48.5 102.5 133t33.5 193.5q0 166 -77.5 267.5t-230.5 101.5
q-154 0 -232 -101t-78 -268q0 -109 33.5 -193.5t103 -133t173.5 -48.5q103 0 172 48.5zM325 1438h617v-136h-617v136z" />
    <glyph glyph-name="Ohungarumlaut" unicode="&#x150;" horiz-adv-x="1718" 
d="M460.5 76.5q-167.5 98.5 -257 280.5t-89.5 428t89.5 428t257 280.5t397.5 98.5t398.5 -98t258 -280t89.5 -429t-89.5 -429t-258 -280t-398.5 -98t-397.5 98.5zM1114.5 283.5q108.5 69.5 166.5 198.5t58 303q0 175 -58 303.5t-166 198t-257 69.5q-148 0 -255.5 -69.5
t-165 -198t-57.5 -303.5q0 -174 57.5 -303t165 -198.5t255.5 -69.5t256.5 69.5zM785 2029h207l-255 -320h-174zM1199 2029h246l-288 -320h-179z" />
    <glyph glyph-name="ohungarumlaut" unicode="&#x151;" horiz-adv-x="1269" 
d="M342.5 51q-125.5 73 -193.5 204.5t-68 302.5q0 170 68 300.5t193.5 202t292.5 71.5q166 0 291.5 -71.5t193.5 -202t68 -300.5q0 -171 -68 -302.5t-193.5 -204.5t-291.5 -73q-167 0 -292.5 73zM807 231.5q69 48.5 102.5 133t33.5 193.5q0 166 -77.5 267.5t-230.5 101.5
q-154 0 -232 -101t-78 -268q0 -109 33.5 -193.5t103 -133t173.5 -48.5q103 0 172 48.5zM561 1570h207l-255 -320h-174zM975 1570h246l-288 -320h-179z" />
    <glyph glyph-name="OE" unicode="&#x152;" horiz-adv-x="2518" 
d="M2401 237v-237h-1042v150q-95 -84 -221.5 -128t-279.5 -44q-230 0 -397.5 98.5t-257 280.5t-89.5 428t89.5 428t257 280.5t397.5 98.5q153 0 279.5 -44t221.5 -128v150h996v-237h-730v-430h674v-235h-674v-431h776zM1114.5 283.5q108.5 69.5 166.5 198.5t58 303
q0 175 -58 303.5t-166 198t-257 69.5q-148 0 -255.5 -69.5t-165 -198t-57.5 -303.5q0 -174 57.5 -303t165 -198.5t255.5 -69.5t256.5 69.5z" />
    <glyph glyph-name="oe" unicode="&#x153;" horiz-adv-x="2072" 
d="M1983 478h-777q6 -87 41.5 -153.5t101 -104t156.5 -37.5q86 0 153.5 31.5t126.5 108.5l167 -148q-90 -99 -200 -148t-249 -49q-144 0 -254 52t-181 145q-73 -94 -184 -145.5t-249 -51.5q-167 0 -292.5 73t-193.5 204.5t-68 302.5q0 170 68 300.5t193.5 202t292.5 71.5
q139 0 250.5 -51t184.5 -144q69 91 173 143t241 52q180 0 294 -82.5t164 -207.5t50 -259q0 -53 -9 -105zM807 231.5q69 48.5 102.5 133t33.5 193.5q0 166 -77.5 267.5t-230.5 101.5q-154 0 -232 -101t-78 -268q0 -109 33.5 -193.5t103 -133t173.5 -48.5q103 0 172 48.5z
M1348.5 892q-59.5 -35 -94.5 -92t-45 -125h542q-1 18 -6 38q-17 103 -86 158.5t-172 55.5q-79 0 -138.5 -35z" />
    <glyph glyph-name="Racute" unicode="&#x154;" horiz-adv-x="1447" 
d="M1084 0l-382 655h-44h-171v-655h-266v1570h437q181 0 287.5 -24.5t172.5 -77.5q71 -57 107 -146t36 -207q0 -116 -35 -205t-103 -147q-58 -48 -137 -72v-27l413 -664h-315zM775.5 895.5q58.5 4.5 96 18t63.5 39.5q29 29 44 69.5t15 97.5q0 101 -55 158q-26 24 -64 36
t-96.5 15.5t-164.5 3.5h-127v-442h127q103 0 161.5 4.5zM870 2030h245l-323 -320h-169z" />
    <glyph glyph-name="racute" unicode="&#x155;" horiz-adv-x="817" 
d="M175 1110h225l18 -85h21q55 53 122 80t155 27q42 0 79 -4v-251h-13q-84 28 -140 28q-52 0 -92.5 -14t-72.5 -47q-33 -33 -45.5 -97t-12.5 -186v-561h-244v1110zM551 1570h245l-323 -320h-169z" />
    <glyph glyph-name="uni0156" unicode="&#x156;" horiz-adv-x="1447" 
d="M1084 0l-382 655h-44h-171v-655h-266v1570h437q181 0 287.5 -24.5t172.5 -77.5q71 -57 107 -146t36 -207q0 -116 -35 -205t-103 -147q-58 -48 -137 -72v-27l413 -664h-315zM775.5 895.5q58.5 4.5 96 18t63.5 39.5q29 29 44 69.5t15 97.5q0 101 -55 158q-26 24 -64 36
t-96.5 15.5t-164.5 3.5h-127v-442h127q103 0 161.5 4.5zM818.5 -121q45.5 -29 65.5 -75t20 -99q0 -62 -28.5 -133t-92 -130t-161.5 -83l-53 121q61 12 106 38t69.5 60t25.5 69q-39 -21 -79 -21t-74 20t-54 53t-20 71q0 39 21 70t57.5 49t79.5 18q72 1 117.5 -28z" />
    <glyph glyph-name="uni0157" unicode="&#x157;" horiz-adv-x="817" 
d="M175 1110h225l18 -85h21q55 53 122 80t155 27q42 0 79 -4v-251h-13q-84 28 -140 28q-52 0 -92.5 -14t-72.5 -47q-33 -33 -45.5 -97t-12.5 -186v-561h-244v1110zM524.5 -121q45.5 -29 65.5 -75t20 -99q0 -62 -28.5 -133t-92 -130t-161.5 -83l-53 121q61 12 106 38t69.5 60
t25.5 69q-39 -21 -79 -21t-74 20t-54 53t-20 71q0 39 21 70t57.5 49t79.5 18q72 1 117.5 -28z" />
    <glyph glyph-name="Rcaron" unicode="&#x158;" horiz-adv-x="1447" 
d="M1084 0l-382 655h-44h-171v-655h-266v1570h437q181 0 287.5 -24.5t172.5 -77.5q71 -57 107 -146t36 -207q0 -116 -35 -205t-103 -147q-58 -48 -137 -72v-27l413 -664h-315zM775.5 895.5q58.5 4.5 96 18t63.5 39.5q29 29 44 69.5t15 97.5q0 101 -55 158q-26 24 -64 36
t-96.5 15.5t-164.5 3.5h-127v-442h127q103 0 161.5 4.5zM377 2030h181l165 -153l166 153h181l-347 -359z" />
    <glyph glyph-name="rcaron" unicode="&#x159;" horiz-adv-x="817" 
d="M175 1110h225l18 -85h21q55 53 122 80t155 27q42 0 79 -4v-251h-13q-84 28 -140 28q-52 0 -92.5 -14t-72.5 -47q-33 -33 -45.5 -97t-12.5 -186v-561h-244v1110zM58 1570h181l165 -153l166 153h181l-347 -359z" />
    <glyph glyph-name="Sacute" unicode="&#x15a;" horiz-adv-x="1281" 
d="M395 33.5q-125 51.5 -210 155t-109 251.5l264 66q16 -143 102.5 -215.5t220.5 -72.5q84 0 143 28.5t88.5 78.5t29.5 112q0 79 -44 132t-110 86t-179 76q-138 52 -221.5 97.5t-142.5 127t-59 208.5q0 133 65 230t175 147.5t242 50.5q151 0 274.5 -67.5t201.5 -204.5
l-220 -136q-43 83 -111.5 127.5t-150.5 44.5q-59 0 -106.5 -23t-75 -64.5t-27.5 -94.5q0 -61 38.5 -103t96.5 -69t161 -64q145 -52 236 -99.5t156.5 -139.5t65.5 -238q0 -144 -65 -252.5t-183.5 -167.5t-274.5 -59q-146 0 -271 51.5zM787 2030h245l-323 -320h-169z" />
    <glyph glyph-name="sacute" unicode="&#x15b;" horiz-adv-x="1033" 
d="M329 17q-99 39 -169.5 110.5t-99.5 164.5l204 83q30 -90 103 -141t168 -51q80 0 124 33.5t44 98.5q0 46 -26.5 74.5t-79.5 48.5q-16 9 -42.5 17t-76.5 21q-60 15 -101 27t-77 29q-181 85 -181 269q0 101 51 176t141 115t203 40q149 0 259.5 -67t159.5 -183l-195 -99
q-32 73 -91.5 112.5t-137.5 39.5q-68 0 -110.5 -29.5t-42.5 -79.5q0 -35 24.5 -57t71.5 -42q24 -11 61 -22t74 -20q70 -18 114 -32t83 -36q160 -88 160 -277q0 -107 -50 -189t-141 -127.5t-211 -45.5q-114 0 -213 39zM659 1570h245l-323 -320h-169z" />
    <glyph glyph-name="Scedilla" unicode="&#x15e;" horiz-adv-x="1281" 
d="M1130.5 220q-58.5 -105 -166.5 -166.5t-251 -70.5l-64 -90q32 -3 59 -14q54 -20 85 -63t31 -100q0 -56 -29 -101.5t-79.5 -71t-113.5 -25.5q-54 0 -110.5 21t-109.5 64l62 102q41 -38 83.5 -56t80.5 -18q46 0 73 24t27 59q0 30 -20.5 53t-61.5 35q-46 14 -131 14l105 169
q-132 11 -242.5 66t-185 153.5t-96.5 235.5l264 66q16 -143 102.5 -215.5t220.5 -72.5q84 0 143 28.5t88.5 78.5t29.5 112q0 79 -44 132t-110 86t-179 76q-138 52 -221.5 97.5t-142.5 127t-59 208.5q0 133 65 230t175 147.5t242 50.5q151 0 274.5 -67.5t201.5 -204.5
l-220 -136q-43 83 -111.5 127.5t-150.5 44.5q-59 0 -106.5 -23t-75 -64.5t-27.5 -94.5q0 -61 38.5 -103t96.5 -69t161 -64q145 -52 236 -99.5t156.5 -139.5t65.5 -238q0 -136 -58.5 -241z" />
    <glyph glyph-name="scedilla" unicode="&#x15f;" horiz-adv-x="1033" 
d="M899 160q-45 -79 -127 -126.5t-191 -54.5l-61 -86q32 -3 59 -14q54 -20 85 -63t31 -100q0 -56 -29 -101.5t-79.5 -71t-113.5 -25.5q-54 0 -110.5 21t-109.5 64l62 102q41 -38 83.5 -56t80.5 -18q46 0 73 24t27 59q0 30 -20.5 53t-61.5 35q-46 14 -131 14l103 166
q-148 18 -258.5 101.5t-150.5 208.5l204 83q30 -90 103 -141t168 -51q80 0 124 33.5t44 98.5q0 46 -26.5 74.5t-79.5 48.5q-16 9 -42.5 17t-76.5 21q-60 15 -101 27t-77 29q-181 85 -181 269q0 101 51 176t141 115t203 40q149 0 259.5 -67t159.5 -183l-195 -99
q-32 73 -91.5 112.5t-137.5 39.5q-68 0 -110.5 -29.5t-42.5 -79.5q0 -35 24.5 -57t71.5 -42q24 -11 61 -22t74 -20q70 -18 114 -32t83 -36q160 -88 160 -277q0 -101 -45 -180z" />
    <glyph glyph-name="Scaron" unicode="&#x160;" horiz-adv-x="1281" 
d="M395 33.5q-125 51.5 -210 155t-109 251.5l264 66q16 -143 102.5 -215.5t220.5 -72.5q84 0 143 28.5t88.5 78.5t29.5 112q0 79 -44 132t-110 86t-179 76q-138 52 -221.5 97.5t-142.5 127t-59 208.5q0 133 65 230t175 147.5t242 50.5q151 0 274.5 -67.5t201.5 -204.5
l-220 -136q-43 83 -111.5 127.5t-150.5 44.5q-59 0 -106.5 -23t-75 -64.5t-27.5 -94.5q0 -61 38.5 -103t96.5 -69t161 -64q145 -52 236 -99.5t156.5 -139.5t65.5 -238q0 -144 -65 -252.5t-183.5 -167.5t-274.5 -59q-146 0 -271 51.5zM294 2030h181l165 -153l166 153h181
l-347 -359z" />
    <glyph glyph-name="scaron" unicode="&#x161;" horiz-adv-x="1033" 
d="M329 17q-99 39 -169.5 110.5t-99.5 164.5l204 83q30 -90 103 -141t168 -51q80 0 124 33.5t44 98.5q0 46 -26.5 74.5t-79.5 48.5q-16 9 -42.5 17t-76.5 21q-60 15 -101 27t-77 29q-181 85 -181 269q0 101 51 176t141 115t203 40q149 0 259.5 -67t159.5 -183l-195 -99
q-32 73 -91.5 112.5t-137.5 39.5q-68 0 -110.5 -29.5t-42.5 -79.5q0 -35 24.5 -57t71.5 -42q24 -11 61 -22t74 -20q70 -18 114 -32t83 -36q160 -88 160 -277q0 -107 -50 -189t-141 -127.5t-211 -45.5q-114 0 -213 39zM166 1570h181l165 -153l166 153h181l-347 -359z" />
    <glyph glyph-name="uni0162" unicode="&#x162;" horiz-adv-x="1354" 
d="M545 1333h-499v237h1262v-237h-498v-1333h-265v1333zM500.5 -461q-56.5 21 -109.5 64l62 102q41 -38 83.5 -56t80.5 -18q46 0 73 24t27 59q0 30 -20.5 53t-61.5 35q-46 14 -131 14l114 184h116l-76 -107q32 -3 59 -14q54 -20 85 -63t31 -100q0 -56 -29 -101.5t-79.5 -71
t-113.5 -25.5q-54 0 -110.5 21z" />
    <glyph glyph-name="uni0163" unicode="&#x163;" horiz-adv-x="798" 
d="M629 -184q31 -43 31 -100q0 -56 -29 -101.5t-79.5 -71t-113.5 -25.5q-54 0 -110.5 21t-109.5 64l62 102q41 -38 83.5 -56t80.5 -18q46 0 73 24t27 59q0 30 -20.5 53t-61.5 35q-46 14 -131 14l109 176q-108 29 -166 113.5t-58 202.5v606h-178v196h183v282l240 174v-456
h244v-196h-244v-574q0 -157 136 -157q45 0 100 17l40 -194q-35 -11 -84.5 -19.5t-98.5 -8.5h-9l-60 -85q32 -3 59 -14q54 -20 85 -63z" />
    <glyph glyph-name="Tcaron" unicode="&#x164;" horiz-adv-x="1354" 
d="M545 1333h-499v237h1262v-237h-498v-1333h-265v1333zM330 2030h181l165 -153l166 153h181l-347 -359z" />
    <glyph glyph-name="tcaron" unicode="&#x165;" horiz-adv-x="798" 
d="M370 20q-76 42 -115 117t-39 171v606h-178v196h183v282l240 174v-456h244v-196h-244v-574q0 -157 136 -157q45 0 100 17l40 -194q-35 -11 -84.5 -19.5t-98.5 -8.5q-108 0 -184 42zM859 1844.5q46 -35.5 66 -90.5t20 -117q0 -74 -29.5 -152t-93 -142.5t-160.5 -93.5
l-52 121q62 17 107.5 53t69 81.5t23.5 93.5v8q-36 -22 -77 -22q-40 0 -74 20.5t-54 55.5t-20 75q0 41 20.5 74.5t55.5 52t79 18.5q73 0 119 -35.5z" />
    <glyph glyph-name="Tbar" unicode="&#x166;" horiz-adv-x="1354" 
d="M810 1333v-470h220v-155h-220v-708h-265v708h-221v155h221v470h-499v237h1262v-237h-498z" />
    <glyph glyph-name="tbar" unicode="&#x167;" horiz-adv-x="798" 
d="M461 478v-138q0 -157 136 -157q45 0 100 17l40 -194q-35 -11 -84.5 -19.5t-98.5 -8.5q-108 0 -184 42t-115 117t-39 171v170h-181v155h181v281h-178v196h183v282l240 174v-456h244v-196h-244v-281h280v-155h-280z" />
    <glyph glyph-name="Utilde" unicode="&#x168;" horiz-adv-x="1570" 
d="M526.5 15.5q-113.5 37.5 -189.5 107.5q-76 71 -112 181.5t-36 300.5v965h266v-956q0 -123 16.5 -192.5t58.5 -114.5q41 -44 105.5 -68.5t149.5 -24.5q165 0 255 93q41 43 58 110t17 197v956h266v-965q0 -190 -35 -300t-113 -182q-74 -70 -188 -107.5t-260 -37.5
q-145 0 -258.5 37.5zM848.5 1726.5q-36.5 15.5 -60 36.5t-53.5 55t-50.5 50t-47.5 16q-41 0 -64 -42.5t-23 -119.5h-133q0 145 61 224.5t166 79.5q43 0 76.5 -14.5t57 -35.5t53.5 -53q32 -35 54 -51.5t49 -16.5q35 0 57.5 43.5t22.5 119.5h139q0 -96 -26.5 -165
t-76.5 -105.5t-117 -36.5q-48 0 -84.5 15.5z" />
    <glyph glyph-name="utilde" unicode="&#x169;" horiz-adv-x="1297" 
d="M283 60q-72 59 -104 151.5t-32 247.5v651h244v-607q0 -112 14.5 -169t49.5 -92q62 -59 176 -59q124 0 188 78q32 39 45.5 97.5t13.5 164.5v587h244v-1110h-244v88h-20q-51 -49 -130.5 -79.5t-177.5 -30.5q-164 0 -267 82zM712.5 1266.5q-36.5 15.5 -60 36.5t-53.5 55
t-50.5 50t-47.5 16q-41 0 -64 -42.5t-23 -119.5h-133q0 145 61 224.5t166 79.5q43 0 76.5 -14.5t57 -35.5t53.5 -53q32 -35 54 -51.5t49 -16.5q35 0 57.5 43.5t22.5 119.5h139q0 -96 -26.5 -165t-76.5 -105.5t-117 -36.5q-48 0 -84.5 15.5z" />
    <glyph glyph-name="Umacron" unicode="&#x16a;" horiz-adv-x="1570" 
d="M526.5 15.5q-113.5 37.5 -189.5 107.5q-76 71 -112 181.5t-36 300.5v965h266v-956q0 -123 16.5 -192.5t58.5 -114.5q41 -44 105.5 -68.5t149.5 -24.5q165 0 255 93q41 43 58 110t17 197v956h266v-965q0 -190 -35 -300t-113 -182q-74 -70 -188 -107.5t-260 -37.5
q-145 0 -258.5 37.5zM476 1898h617v-136h-617v136z" />
    <glyph glyph-name="umacron" unicode="&#x16b;" horiz-adv-x="1297" 
d="M283 60q-72 59 -104 151.5t-32 247.5v651h244v-607q0 -112 14.5 -169t49.5 -92q62 -59 176 -59q124 0 188 78q32 39 45.5 97.5t13.5 164.5v587h244v-1110h-244v88h-20q-51 -49 -130.5 -79.5t-177.5 -30.5q-164 0 -267 82zM340 1438h617v-136h-617v136z" />
    <glyph glyph-name="Uring" unicode="&#x16e;" horiz-adv-x="1570" 
d="M526.5 15.5q-113.5 37.5 -189.5 107.5q-76 71 -112 181.5t-36 300.5v965h266v-956q0 -123 16.5 -192.5t58.5 -114.5q41 -44 105.5 -68.5t149.5 -24.5q165 0 255 93q41 43 58 110t17 197v956h266v-965q0 -190 -35 -300t-113 -182q-74 -70 -188 -107.5t-260 -37.5
q-145 0 -258.5 37.5zM662 1690q-56 33 -88 89t-32 121q0 66 32.5 122t88.5 88.5t122 32.5q65 0 121 -32.5t89 -88t33 -122.5q0 -66 -32.5 -122t-88.5 -88.5t-122 -32.5q-67 0 -123 33zM869.5 1816.5q33.5 34.5 33.5 86.5q0 50 -32 82.5t-86 32.5q-52 0 -84.5 -33t-32.5 -82
q0 -52 33.5 -86.5t83.5 -34.5q51 0 84.5 34.5z" />
    <glyph glyph-name="uring" unicode="&#x16f;" horiz-adv-x="1297" 
d="M283 60q-72 59 -104 151.5t-32 247.5v651h244v-607q0 -112 14.5 -169t49.5 -92q62 -59 176 -59q124 0 188 78q32 39 45.5 97.5t13.5 164.5v587h244v-1110h-244v88h-20q-51 -49 -130.5 -79.5t-177.5 -30.5q-164 0 -267 82zM526 1230q-56 33 -88 89t-32 121q0 66 32.5 122
t88.5 88.5t122 32.5q65 0 121 -32.5t89 -88t33 -122.5q0 -66 -32.5 -122t-88.5 -88.5t-122 -32.5q-67 0 -123 33zM733.5 1356.5q33.5 34.5 33.5 86.5q0 50 -32 82.5t-86 32.5q-52 0 -84.5 -33t-32.5 -82q0 -52 33.5 -86.5t83.5 -34.5q51 0 84.5 34.5z" />
    <glyph glyph-name="Uhungarumlaut" unicode="&#x170;" horiz-adv-x="1570" 
d="M526.5 15.5q-113.5 37.5 -189.5 107.5q-76 71 -112 181.5t-36 300.5v965h266v-956q0 -123 16.5 -192.5t58.5 -114.5q41 -44 105.5 -68.5t149.5 -24.5q165 0 255 93q41 43 58 110t17 197v956h266v-965q0 -190 -35 -300t-113 -182q-74 -70 -188 -107.5t-260 -37.5
q-145 0 -258.5 37.5zM712 2030h207l-255 -320h-174zM1126 2030h246l-288 -320h-179z" />
    <glyph glyph-name="uhungarumlaut" unicode="&#x171;" horiz-adv-x="1297" 
d="M283 60q-72 59 -104 151.5t-32 247.5v651h244v-607q0 -112 14.5 -169t49.5 -92q62 -59 176 -59q124 0 188 78q32 39 45.5 97.5t13.5 164.5v587h244v-1110h-244v88h-20q-51 -49 -130.5 -79.5t-177.5 -30.5q-164 0 -267 82zM576 1570h207l-255 -320h-174zM990 1570h246
l-288 -320h-179z" />
    <glyph glyph-name="Uogonek" unicode="&#x172;" horiz-adv-x="1570" 
d="M1381 1570v-965q0 -190 -35 -300t-113 -182q-55 -50 -125 -83q-75 -55 -116 -113t-41 -105q0 -51 43.5 -80t128.5 -29v-142q-170 0 -260 51.5t-90 140.5q0 49 29.5 105.5t85.5 114.5q-55 -5 -103 -5q-145 0 -258.5 37.5t-189.5 107.5q-76 71 -112 181.5t-36 300.5v965
h266v-956q0 -123 16.5 -192.5t58.5 -114.5q41 -44 105.5 -68.5t149.5 -24.5q165 0 255 93q41 43 58 110t17 197v956h266z" />
    <glyph glyph-name="uogonek" unicode="&#x173;" horiz-adv-x="1297" 
d="M995 -118q-45 -61 -45 -111q0 -51 43.5 -80t128.5 -29v-142q-170 0 -260 51.5t-90 140.5q0 64 48.5 139t141.5 149h-84v88h-20q-51 -49 -130.5 -79.5t-177.5 -30.5q-164 0 -267 82q-72 59 -104 151.5t-32 247.5v651h244v-607q0 -112 14.5 -169t49.5 -92q62 -59 176 -59
q124 0 188 78q32 39 45.5 97.5t13.5 164.5v587h244v-1110q-82 -57 -127 -118z" />
    <glyph glyph-name="Wcircumflex" unicode="&#x174;" horiz-adv-x="2453" 
d="M41 1570h288l422 -1247h20l311 1071h289l312 -1071h19l422 1247h288l-571 -1570h-315l-288 1016h-23l-288 -1016h-315zM1225 2064l347 -379h-180l-167 163l-165 -163h-179z" />
    <glyph glyph-name="wcircumflex" unicode="&#x175;" horiz-adv-x="1913" 
d="M19 1110h263l303 -900h19l221 900h263l220 -900h20l302 900h263l-399 -1110h-352l-177 752h-16l-179 -752h-351zM954 1604l347 -379h-180l-167 163l-165 -163h-179z" />
    <glyph glyph-name="Ycircumflex" unicode="&#x176;" horiz-adv-x="1503" 
d="M618 585l-594 985h311l406 -692h20l407 692h311l-595 -985v-585h-266v585zM749 2064l347 -379h-180l-167 163l-165 -163h-179z" />
    <glyph glyph-name="ycircumflex" unicode="&#x177;" horiz-adv-x="1155" 
d="M447 26l-437 1084h268l287 -788h21l292 788h267l-630 -1570h-264zM575 1604l347 -379h-180l-167 163l-165 -163h-179z" />
    <glyph glyph-name="Ydieresis" unicode="&#x178;" horiz-adv-x="1503" 
d="M618 585l-594 985h311l406 -692h20l407 692h311l-595 -985v-585h-266v585zM461 1711q-34 20 -54 54.5t-20 75.5q0 40 20 73.5t54 53.5t75 20q40 0 74 -20t54 -53.5t20 -73.5q0 -41 -20 -75.5t-54 -54.5t-74 -20q-41 0 -75 20zM893 1711q-34 20 -54 54.5t-20 75.5
q0 40 20 73.5t54 53.5t75 20q39 0 73.5 -20t54.5 -53.5t20 -73.5q0 -41 -20 -75.5t-54.5 -54.5t-73.5 -20q-41 0 -75 20z" />
    <glyph glyph-name="Zacute" unicode="&#x179;" horiz-adv-x="1412" 
d="M97 238l846 1074v21h-814v237h1153v-241l-846 -1075v-17h882v-237h-1221v238zM850 2030h245l-323 -320h-169z" />
    <glyph glyph-name="zacute" unicode="&#x17a;" horiz-adv-x="1097" 
d="M80 206l608 679v22h-583v203h893v-205l-609 -681v-20h627v-204h-936v206zM697 1570h245l-323 -320h-169z" />
    <glyph glyph-name="Zdotaccent" unicode="&#x17b;" horiz-adv-x="1412" 
d="M97 238l846 1074v21h-814v237h1153v-241l-846 -1075v-17h882v-237h-1221v238zM629 1711q-34 20 -54 54.5t-20 75.5q0 40 20 73.5t54 53.5t75 20q40 0 74 -20t54 -53.5t20 -73.5q0 -41 -20 -75.5t-54 -54.5t-74 -20q-41 0 -75 20z" />
    <glyph glyph-name="zdotaccent" unicode="&#x17c;" horiz-adv-x="1097" 
d="M80 206l608 679v22h-583v203h893v-205l-609 -681v-20h627v-204h-936v206zM471 1294.5q-37 21.5 -59 58.5t-22 81q0 42 21.5 79t58.5 58.5t81 21.5q43 0 79.5 -22t58.5 -58.5t22 -78.5q0 -44 -22 -81t-58.5 -58.5t-79.5 -21.5t-80 21.5z" />
    <glyph glyph-name="Zcaron" unicode="&#x17d;" horiz-adv-x="1412" 
d="M97 238l846 1074v21h-814v237h1153v-241l-846 -1075v-17h882v-237h-1221v238zM357 2030h181l165 -153l166 153h181l-347 -359z" />
    <glyph glyph-name="zcaron" unicode="&#x17e;" horiz-adv-x="1097" 
d="M80 206l608 679v22h-583v203h893v-205l-609 -681v-20h627v-204h-936v206zM204 1570h181l165 -153l166 153h181l-347 -359z" />
    <glyph glyph-name="florin" unicode="&#x192;" horiz-adv-x="1104" 
d="M112 -295q111 0 173 28.5t89.5 97t27.5 192.5v908h-198v179h198v117q0 114 44 200.5t121.5 133.5t173.5 47q78 0 145.5 -28t126.5 -88l-139 -163q-33 31 -65 47.5t-68 16.5q-57 0 -91 -38.5t-34 -127.5v-117h261v-179h-261v-930q0 -251 -128 -369.5t-376 -118.5v192z" />
    <glyph glyph-name="uni01C4" unicode="&#x1c4;" horiz-adv-x="2988" 
d="M221 1570h381q173 0 290.5 -19.5t198 -57t154.5 -99.5q119 -100 180.5 -257t61.5 -363q0 -403 -245 -604q-75 -62 -158 -98.5t-199 -54t-285 -17.5h-379v1570zM575 237q138 0 226.5 13.5t147.5 41.5t114 77q158 141 158 415q0 136 -38.5 241t-110.5 174
q-54 51 -113.5 79.5t-144.5 41.5t-216 13h-111v-1096h88zM1673 238l846 1074v21h-814v237h1153v-241l-846 -1075v-17h882v-237h-1221v238zM1933 2030h181l165 -153l166 153h181l-347 -359z" />
    <glyph glyph-name="uni01C5" unicode="&#x1c5;" horiz-adv-x="2703" 
d="M221 1570h381q173 0 290.5 -19.5t198 -57t154.5 -99.5q119 -100 180.5 -257t61.5 -363q0 -403 -245 -604q-75 -62 -158 -98.5t-199 -54t-285 -17.5h-379v1570zM575 237q138 0 226.5 13.5t147.5 41.5t114 77q158 141 158 415q0 136 -38.5 241t-110.5 174
q-54 51 -113.5 79.5t-144.5 41.5t-216 13h-111v-1096h88zM1686 206l608 679v22h-583v203h893v-205l-609 -681v-20h627v-204h-936v206zM1810 1570h181l165 -153l166 153h181l-347 -359z" />
    <glyph glyph-name="uni01C6" unicode="&#x1c6;" horiz-adv-x="2425" 
d="M317 46.5q-109 68.5 -167 198t-58 310.5t58 310.5t167 198t259 68.5q94 0 173.5 -29t136.5 -80h21v547h243v-1570h-220l-23 84h-21q-57 -51 -137.5 -78.5t-171.5 -27.5q-151 0 -260 68.5zM789 226.5q67 43.5 103 127t36 201.5q0 117 -35.5 200.5t-102.5 127.5t-160 44
q-138 0 -215.5 -96t-77.5 -276t77.5 -276t215.5 -96q92 0 159 43.5zM1408 206l608 679v22h-583v203h893v-205l-609 -681v-20h627v-204h-936v206zM1532 1570h181l165 -153l166 153h181l-347 -359z" />
    <glyph glyph-name="uni01C7" unicode="&#x1c7;" horiz-adv-x="2552" 
d="M221 1570h266v-1333h676v-237h-942v1570zM1636.5 2.5q-89.5 24.5 -153.5 72.5q-85 62 -130 162.5t-46 234.5l266 39q2 -170 94 -241q59 -56 167 -56q137 0 203 76q30 36 43 96t13 184v763h-597v237h863v-1000q0 -168 -27 -272.5t-95 -175.5q-136 -144 -403 -144
q-108 0 -197.5 24.5z" />
    <glyph glyph-name="uni01C8" unicode="&#x1c8;" horiz-adv-x="1808" 
d="M221 1570h266v-1333h676v-237h-942v1570zM1262 -472q-60 9 -122 28l66 203q20 -9 44.5 -13.5t42.5 -4.5q47 0 70 28q14 17 19 47.5t5 95.5v1198h243v-1247q0 -98 -9 -156.5t-42 -102.5q-31 -39 -83.5 -62t-129.5 -23q-44 0 -104 9zM1428 1294.5q-37 21.5 -59 58.5t-22 81
q0 42 21.5 79t58.5 58.5t81 21.5q43 0 79.5 -22t58.5 -58.5t22 -78.5q0 -44 -22 -81t-58.5 -58.5t-79.5 -21.5t-80 21.5z" />
    <glyph glyph-name="uni01C9" unicode="&#x1c9;" horiz-adv-x="1235" 
d="M230 38q-33 31 -48 87t-15 165v1280h245v-1224q0 -69 3.5 -97t15.5 -41q22 -25 71 -25q35 0 66 9l35 -182q-40 -14 -92 -23t-96 -9q-121 0 -185 60zM689 -472q-60 9 -122 28l66 203q20 -9 44.5 -13.5t42.5 -4.5q47 0 70 28q14 17 19 47.5t5 95.5v1198h243v-1247
q0 -98 -9 -156.5t-42 -102.5q-31 -39 -83.5 -62t-129.5 -23q-44 0 -104 9zM855 1294.5q-37 21.5 -59 58.5t-22 81q0 42 21.5 79t58.5 58.5t81 21.5q43 0 79.5 -22t58.5 -58.5t22 -78.5q0 -44 -22 -81t-58.5 -58.5t-79.5 -21.5t-80 21.5z" />
    <glyph glyph-name="uni01CA" unicode="&#x1ca;" horiz-adv-x="3002" 
d="M221 1570h395l574 -1225h22v1225h266v-1570h-397l-572 1228h-22v-1228h-266v1570zM2086.5 2.5q-89.5 24.5 -153.5 72.5q-85 62 -130 162.5t-46 234.5l266 39q2 -170 94 -241q59 -56 167 -56q137 0 203 76q30 36 43 96t13 184v763h-597v237h863v-1000q0 -168 -27 -272.5
t-95 -175.5q-136 -144 -403 -144q-108 0 -197.5 24.5z" />
    <glyph glyph-name="uni01CB" unicode="&#x1cb;" horiz-adv-x="2299" 
d="M221 1570h395l574 -1225h22v1225h266v-1570h-397l-572 1228h-22v-1228h-266v1570zM1753 -472q-60 9 -122 28l66 203q20 -9 44.5 -13.5t42.5 -4.5q47 0 70 28q14 17 19 47.5t5 95.5v1198h243v-1247q0 -98 -9 -156.5t-42 -102.5q-31 -39 -83.5 -62t-129.5 -23q-44 0 -104 9
zM1919 1294.5q-37 21.5 -59 58.5t-22 81q0 42 21.5 79t58.5 58.5t81 21.5q43 0 79.5 -22t58.5 -58.5t22 -78.5q0 -44 -22 -81t-58.5 -58.5t-79.5 -21.5t-80 21.5z" />
    <glyph glyph-name="uni01CC" unicode="&#x1cc;" horiz-adv-x="1897" 
d="M175 1110h231l12 -85h20q50 47 130 77t176 30q167 0 270 -83q78 -64 106 -161t28 -236v-652h-241v609q0 104 -14 163.5t-51 96.5q-63 61 -174 61q-130 0 -194 -82q-32 -41 -44 -101.5t-12 -158.5v-588h-243v1110zM1351 -472q-60 9 -122 28l66 203q20 -9 44.5 -13.5
t42.5 -4.5q47 0 70 28q14 17 19 47.5t5 95.5v1198h243v-1247q0 -98 -9 -156.5t-42 -102.5q-31 -39 -83.5 -62t-129.5 -23q-44 0 -104 9zM1517 1294.5q-37 21.5 -59 58.5t-22 81q0 42 21.5 79t58.5 58.5t81 21.5q43 0 79.5 -22t58.5 -58.5t22 -78.5q0 -44 -22 -81
t-58.5 -58.5t-79.5 -21.5t-80 21.5z" />
    <glyph glyph-name="uni01CD" unicode="&#x1cd;" horiz-adv-x="1526" 
d="M1082 342h-634l-117 -342h-290l573 1570h300l571 -1570h-288zM1002 578l-225 668h-20l-228 -668h473zM416 2030h181l165 -153l166 153h181l-347 -359z" />
    <glyph glyph-name="uni01CE" unicode="&#x1ce;" horiz-adv-x="1212" 
d="M1047.5 856q16.5 -71 16.5 -184v-672h-222l-22 94h-20q-43 -46 -105 -74q-92 -42 -207 -42q-125 0 -217.5 44t-142 125.5t-49.5 189.5q0 206 167 288q54 26 125.5 37.5t192.5 11.5h256q-1 79 -14 125.5t-45 74.5q-30 26 -77.5 39.5t-106.5 13.5q-82 0 -164.5 -34.5
t-157.5 -102.5l-147 163q105 87 225 133t244 46q145 0 249.5 -39t163.5 -115q41 -51 57.5 -122zM803.5 348.5q14.5 54.5 16.5 128.5h-294q-57 0 -93 -8t-63 -31q-23 -19 -34 -42t-11 -60q0 -74 52 -119t153 -45q66 0 123 21.5t97 61.5q39 39 53.5 93.5zM258 1570h181
l165 -153l166 153h181l-347 -359z" />
    <glyph glyph-name="uni01CF" unicode="&#x1cf;" horiz-adv-x="708" 
d="M221 1570h266v-1570h-266v1570zM7 2030h181l165 -153l166 153h181l-347 -359z" />
    <glyph glyph-name="uni01D0" unicode="&#x1d0;" horiz-adv-x="595" 
d="M175 1110h245v-1110h-245v1110zM-49 1570h181l165 -153l166 153h181l-347 -359z" />
    <glyph glyph-name="uni01D1" unicode="&#x1d1;" horiz-adv-x="1718" 
d="M460.5 76.5q-167.5 98.5 -257 280.5t-89.5 428t89.5 428t257 280.5t397.5 98.5t398.5 -98t258 -280t89.5 -429t-89.5 -429t-258 -280t-398.5 -98t-397.5 98.5zM1114.5 283.5q108.5 69.5 166.5 198.5t58 303q0 175 -58 303.5t-166 198t-257 69.5q-148 0 -255.5 -69.5
t-165 -198t-57.5 -303.5q0 -174 57.5 -303t165 -198.5t255.5 -69.5t256.5 69.5zM512 2029h181l165 -153l166 153h181l-347 -359z" />
    <glyph glyph-name="uni01D2" unicode="&#x1d2;" horiz-adv-x="1269" 
d="M342.5 51q-125.5 73 -193.5 204.5t-68 302.5q0 170 68 300.5t193.5 202t292.5 71.5q166 0 291.5 -71.5t193.5 -202t68 -300.5q0 -171 -68 -302.5t-193.5 -204.5t-291.5 -73q-167 0 -292.5 73zM807 231.5q69 48.5 102.5 133t33.5 193.5q0 166 -77.5 267.5t-230.5 101.5
q-154 0 -232 -101t-78 -268q0 -109 33.5 -193.5t103 -133t173.5 -48.5q103 0 172 48.5zM288 1570h181l165 -153l166 153h181l-347 -359z" />
    <glyph glyph-name="uni01D3" unicode="&#x1d3;" horiz-adv-x="1570" 
d="M526.5 15.5q-113.5 37.5 -189.5 107.5q-76 71 -112 181.5t-36 300.5v965h266v-956q0 -123 16.5 -192.5t58.5 -114.5q41 -44 105.5 -68.5t149.5 -24.5q165 0 255 93q41 43 58 110t17 197v956h266v-965q0 -190 -35 -300t-113 -182q-74 -70 -188 -107.5t-260 -37.5
q-145 0 -258.5 37.5zM439 2030h181l165 -153l166 153h181l-347 -359z" />
    <glyph glyph-name="uni01D4" unicode="&#x1d4;" horiz-adv-x="1297" 
d="M283 60q-72 59 -104 151.5t-32 247.5v651h244v-607q0 -112 14.5 -169t49.5 -92q62 -59 176 -59q124 0 188 78q32 39 45.5 97.5t13.5 164.5v587h244v-1110h-244v88h-20q-51 -49 -130.5 -79.5t-177.5 -30.5q-164 0 -267 82zM303 1570h181l165 -153l166 153h181l-347 -359z
" />
    <glyph glyph-name="uni01D5" unicode="&#x1d5;" horiz-adv-x="1570" 
d="M526.5 15.5q-113.5 37.5 -189.5 107.5q-76 71 -112 181.5t-36 300.5v965h266v-956q0 -123 16.5 -192.5t58.5 -114.5q41 -44 105.5 -68.5t149.5 -24.5q165 0 255 93q41 43 58 110t17 197v956h266v-965q0 -190 -35 -300t-113 -182q-74 -70 -188 -107.5t-260 -37.5
q-145 0 -258.5 37.5zM495 1711q-34 20 -54 54.5t-20 75.5q0 40 20 73.5t54 53.5t75 20q40 0 74 -20t54 -53.5t20 -73.5q0 -41 -20 -75.5t-54 -54.5t-74 -20q-41 0 -75 20zM927 1711q-34 20 -54 54.5t-20 75.5q0 40 20 73.5t54 53.5t75 20q39 0 73.5 -20t54.5 -53.5t20 -73.5
q0 -41 -20 -75.5t-54.5 -54.5t-73.5 -20q-41 0 -75 20zM476 2316h617v-136h-617v136z" />
    <glyph glyph-name="uni01D6" unicode="&#x1d6;" horiz-adv-x="1297" 
d="M283 60q-72 59 -104 151.5t-32 247.5v651h244v-607q0 -112 14.5 -169t49.5 -92q62 -59 176 -59q124 0 188 78q32 39 45.5 97.5t13.5 164.5v587h244v-1110h-244v88h-20q-51 -49 -130.5 -79.5t-177.5 -30.5q-164 0 -267 82zM359 1316q-34 20 -54 54t-20 75q0 40 20 74
t54 54t75 20q40 0 74 -20t54 -54t20 -74q0 -41 -20 -75t-54 -54t-74 -20q-41 0 -75 20zM791 1316q-34 20 -54 54t-20 75q0 40 20 74t54 54t75 20q39 0 73.5 -20t54.5 -54t20 -74q0 -41 -20 -75t-54.5 -54t-73.5 -20q-41 0 -75 20zM340 1921h617v-136h-617v136z" />
    <glyph glyph-name="uni01D7" unicode="&#x1d7;" horiz-adv-x="1570" 
d="M526.5 15.5q-113.5 37.5 -189.5 107.5q-76 71 -112 181.5t-36 300.5v965h266v-956q0 -123 16.5 -192.5t58.5 -114.5q41 -44 105.5 -68.5t149.5 -24.5q165 0 255 93q41 43 58 110t17 197v956h266v-965q0 -190 -35 -300t-113 -182q-74 -70 -188 -107.5t-260 -37.5
q-145 0 -258.5 37.5zM495 1711q-34 20 -54 54.5t-20 75.5q0 40 20 73.5t54 53.5t75 20q40 0 74 -20t54 -53.5t20 -73.5q0 -41 -20 -75.5t-54 -54.5t-74 -20q-41 0 -75 20zM927 1711q-34 20 -54 54.5t-20 75.5q0 40 20 73.5t54 53.5t75 20q39 0 73.5 -20t54.5 -53.5t20 -73.5
q0 -41 -20 -75.5t-54.5 -54.5t-73.5 -20q-41 0 -75 20zM932 2448h245l-323 -320h-169z" />
    <glyph glyph-name="uni01D8" unicode="&#x1d8;" horiz-adv-x="1297" 
d="M283 60q-72 59 -104 151.5t-32 247.5v651h244v-607q0 -112 14.5 -169t49.5 -92q62 -59 176 -59q124 0 188 78q32 39 45.5 97.5t13.5 164.5v587h244v-1110h-244v88h-20q-51 -49 -130.5 -79.5t-177.5 -30.5q-164 0 -267 82zM359 1316q-34 20 -54 54t-20 75q0 40 20 74
t54 54t75 20q40 0 74 -20t54 -54t20 -74q0 -41 -20 -75t-54 -54t-74 -20q-41 0 -75 20zM791 1316q-34 20 -54 54t-20 75q0 40 20 74t54 54t75 20q39 0 73.5 -20t54.5 -54t20 -74q0 -41 -20 -75t-54.5 -54t-73.5 -20q-41 0 -75 20zM796 2053h245l-323 -320h-169z" />
    <glyph glyph-name="uni01D9" unicode="&#x1d9;" horiz-adv-x="1570" 
d="M526.5 15.5q-113.5 37.5 -189.5 107.5q-76 71 -112 181.5t-36 300.5v965h266v-956q0 -123 16.5 -192.5t58.5 -114.5q41 -44 105.5 -68.5t149.5 -24.5q165 0 255 93q41 43 58 110t17 197v956h266v-965q0 -190 -35 -300t-113 -182q-74 -70 -188 -107.5t-260 -37.5
q-145 0 -258.5 37.5zM495 1711q-34 20 -54 54.5t-20 75.5q0 40 20 73.5t54 53.5t75 20q40 0 74 -20t54 -53.5t20 -73.5q0 -41 -20 -75.5t-54 -54.5t-74 -20q-41 0 -75 20zM927 1711q-34 20 -54 54.5t-20 75.5q0 40 20 73.5t54 53.5t75 20q39 0 73.5 -20t54.5 -53.5t20 -73.5
q0 -41 -20 -75.5t-54.5 -54.5t-73.5 -20q-41 0 -75 20zM439 2448h181l165 -153l166 153h181l-347 -359z" />
    <glyph glyph-name="uni01DA" unicode="&#x1da;" horiz-adv-x="1297" 
d="M283 60q-72 59 -104 151.5t-32 247.5v651h244v-607q0 -112 14.5 -169t49.5 -92q62 -59 176 -59q124 0 188 78q32 39 45.5 97.5t13.5 164.5v587h244v-1110h-244v88h-20q-51 -49 -130.5 -79.5t-177.5 -30.5q-164 0 -267 82zM359 1316q-34 20 -54 54t-20 75q0 40 20 74
t54 54t75 20q40 0 74 -20t54 -54t20 -74q0 -41 -20 -75t-54 -54t-74 -20q-41 0 -75 20zM791 1316q-34 20 -54 54t-20 75q0 40 20 74t54 54t75 20q39 0 73.5 -20t54.5 -54t20 -74q0 -41 -20 -75t-54.5 -54t-73.5 -20q-41 0 -75 20zM303 2053h181l165 -153l166 153h181
l-347 -359z" />
    <glyph glyph-name="uni01DB" unicode="&#x1db;" horiz-adv-x="1570" 
d="M526.5 15.5q-113.5 37.5 -189.5 107.5q-76 71 -112 181.5t-36 300.5v965h266v-956q0 -123 16.5 -192.5t58.5 -114.5q41 -44 105.5 -68.5t149.5 -24.5q165 0 255 93q41 43 58 110t17 197v956h266v-965q0 -190 -35 -300t-113 -182q-74 -70 -188 -107.5t-260 -37.5
q-145 0 -258.5 37.5zM495 1711q-34 20 -54 54.5t-20 75.5q0 40 20 73.5t54 53.5t75 20q40 0 74 -20t54 -53.5t20 -73.5q0 -41 -20 -75.5t-54 -54.5t-74 -20q-41 0 -75 20zM927 1711q-34 20 -54 54.5t-20 75.5q0 40 20 73.5t54 53.5t75 20q39 0 73.5 -20t54.5 -53.5t20 -73.5
q0 -41 -20 -75.5t-54.5 -54.5t-73.5 -20q-41 0 -75 20zM394 2448h246l234 -320h-175z" />
    <glyph glyph-name="uni01DC" unicode="&#x1dc;" horiz-adv-x="1297" 
d="M283 60q-72 59 -104 151.5t-32 247.5v651h244v-607q0 -112 14.5 -169t49.5 -92q62 -59 176 -59q124 0 188 78q32 39 45.5 97.5t13.5 164.5v587h244v-1110h-244v88h-20q-51 -49 -130.5 -79.5t-177.5 -30.5q-164 0 -267 82zM359 1316q-34 20 -54 54t-20 75q0 40 20 74
t54 54t75 20q40 0 74 -20t54 -54t20 -74q0 -41 -20 -75t-54 -54t-74 -20q-41 0 -75 20zM791 1316q-34 20 -54 54t-20 75q0 40 20 74t54 54t75 20q39 0 73.5 -20t54.5 -54t20 -74q0 -41 -20 -75t-54.5 -54t-73.5 -20q-41 0 -75 20zM258 2053h246l234 -320h-175z" />
    <glyph glyph-name="uni01EB" unicode="&#x1eb;" horiz-adv-x="1269" 
d="M662 -120.5q-43 -59.5 -43 -108.5q0 -51 43.5 -80t128.5 -29v-142q-170 0 -260 51.5t-90 140.5q0 59 42 128t122 139q-158 6 -277 80.5t-183 203.5t-64 295q0 170 68 300.5t193.5 202t292.5 71.5q166 0 291.5 -71.5t193.5 -202t68 -300.5q0 -144 -49 -261t-140 -195
t-215 -107q-79 -56 -122 -115.5zM358.5 364.5q33.5 -84.5 103 -133t173.5 -48.5q103 0 172 48.5t102.5 133t33.5 193.5q0 166 -77.5 267.5t-230.5 101.5q-154 0 -232 -101t-78 -268q0 -109 33.5 -193.5z" />
    <glyph glyph-name="uni01F1" unicode="&#x1f1;" horiz-adv-x="2988" 
d="M221 1570h381q173 0 290.5 -19.5t198 -57t154.5 -99.5q119 -100 180.5 -257t61.5 -363q0 -403 -245 -604q-75 -62 -158 -98.5t-199 -54t-285 -17.5h-379v1570zM575 237q138 0 226.5 13.5t147.5 41.5t114 77q158 141 158 415q0 136 -38.5 241t-110.5 174
q-54 51 -113.5 79.5t-144.5 41.5t-216 13h-111v-1096h88zM1673 238l846 1074v21h-814v237h1153v-241l-846 -1075v-17h882v-237h-1221v238z" />
    <glyph glyph-name="uni01F2" unicode="&#x1f2;" horiz-adv-x="2703" 
d="M221 1570h381q173 0 290.5 -19.5t198 -57t154.5 -99.5q119 -100 180.5 -257t61.5 -363q0 -403 -245 -604q-75 -62 -158 -98.5t-199 -54t-285 -17.5h-379v1570zM575 237q138 0 226.5 13.5t147.5 41.5t114 77q158 141 158 415q0 136 -38.5 241t-110.5 174
q-54 51 -113.5 79.5t-144.5 41.5t-216 13h-111v-1096h88zM1686 206l608 679v22h-583v203h893v-205l-609 -681v-20h627v-204h-936v206z" />
    <glyph glyph-name="uni01F3" unicode="&#x1f3;" horiz-adv-x="2425" 
d="M317 46.5q-109 68.5 -167 198t-58 310.5t58 310.5t167 198t259 68.5q94 0 173.5 -29t136.5 -80h21v547h243v-1570h-220l-23 84h-21q-57 -51 -137.5 -78.5t-171.5 -27.5q-151 0 -260 68.5zM789 226.5q67 43.5 103 127t36 201.5q0 117 -35.5 200.5t-102.5 127.5t-160 44
q-138 0 -215.5 -96t-77.5 -276t77.5 -276t215.5 -96q92 0 159 43.5zM1408 206l608 679v22h-583v203h893v-205l-609 -681v-20h627v-204h-936v206z" />
    <glyph glyph-name="Oslashacute" unicode="&#x1fe;" horiz-adv-x="1718" 
d="M927 1709h-169l247 320h245zM1539.5 1156q64.5 -163 64.5 -371q0 -247 -89.5 -429t-258 -280t-398.5 -98q-193 0 -344 70l-64 -105l-154 94l67 109q-121 106 -185 268.5t-64 370.5q0 246 89.5 428t257 280.5t397.5 98.5q193 0 347 -71l64 105l152 -93l-67 -109
q121 -105 185.5 -268zM411 553q31 -104 91 -179l573 935q-96 47 -217 47q-148 0 -255.5 -69.5t-165 -198t-57.5 -303.5q0 -128 31 -232zM1114.5 283.5q108.5 69.5 166.5 198.5t58 303q0 128 -31.5 232.5t-91.5 179.5l-572 -937q95 -46 214 -46q148 0 256.5 69.5z" />
    <glyph glyph-name="oslashacute" unicode="&#x1ff;" horiz-adv-x="1269" 
d="M703 1250h-169l247 320h245zM1142.5 809.5q45.5 -113.5 45.5 -251.5q0 -171 -68 -302.5t-193.5 -204.5t-291.5 -73q-121 0 -223 40l-83 -135l-154 94l83 136q-85 77 -131 191.5t-46 253.5q0 170 68 300.5t193.5 202t292.5 71.5q120 0 223 -39l81 131l153 -94l-80 -131
q85 -76 130.5 -189.5zM383 316l363 594q-49 17 -111 17q-154 0 -232 -101t-78 -268q0 -145 58 -242zM807 231.5q69 48.5 102.5 133t33.5 193.5q0 144 -56 237l-364 -594q50 -18 112 -18q103 0 172 48.5z" />
    <glyph glyph-name="uni0218" unicode="&#x218;" horiz-adv-x="1281" 
d="M395 33.5q-125 51.5 -210 155t-109 251.5l264 66q16 -143 102.5 -215.5t220.5 -72.5q84 0 143 28.5t88.5 78.5t29.5 112q0 79 -44 132t-110 86t-179 76q-138 52 -221.5 97.5t-142.5 127t-59 208.5q0 133 65 230t175 147.5t242 50.5q151 0 274.5 -67.5t201.5 -204.5
l-220 -136q-43 83 -111.5 127.5t-150.5 44.5q-59 0 -106.5 -23t-75 -64.5t-27.5 -94.5q0 -61 38.5 -103t96.5 -69t161 -64q145 -52 236 -99.5t156.5 -139.5t65.5 -238q0 -144 -65 -252.5t-183.5 -167.5t-274.5 -59q-146 0 -271 51.5zM762.5 -121q45.5 -29 65.5 -75t20 -99
q0 -62 -28.5 -133t-92 -130t-161.5 -83l-53 121q61 12 106 38t69.5 60t25.5 69q-39 -21 -79 -21t-74 20t-54 53t-20 71q0 39 21 70t57.5 49t79.5 18q72 1 117.5 -28z" />
    <glyph glyph-name="uni0219" unicode="&#x219;" horiz-adv-x="1033" 
d="M329 17q-99 39 -169.5 110.5t-99.5 164.5l204 83q30 -90 103 -141t168 -51q80 0 124 33.5t44 98.5q0 46 -26.5 74.5t-79.5 48.5q-16 9 -42.5 17t-76.5 21q-60 15 -101 27t-77 29q-181 85 -181 269q0 101 51 176t141 115t203 40q149 0 259.5 -67t159.5 -183l-195 -99
q-32 73 -91.5 112.5t-137.5 39.5q-68 0 -110.5 -29.5t-42.5 -79.5q0 -35 24.5 -57t71.5 -42q24 -11 61 -22t74 -20q70 -18 114 -32t83 -36q160 -88 160 -277q0 -107 -50 -189t-141 -127.5t-211 -45.5q-114 0 -213 39zM633.5 -121q45.5 -29 65.5 -75t20 -99q0 -62 -28.5 -133
t-92 -130t-161.5 -83l-53 121q61 12 106 38t69.5 60t25.5 69q-39 -21 -79 -21t-74 20t-54 53t-20 71q0 39 21 70t57.5 49t79.5 18q72 1 117.5 -28z" />
    <glyph glyph-name="uni021A" unicode="&#x21a;" horiz-adv-x="1354" 
d="M545 1333h-499v237h1262v-237h-498v-1333h-265v1333zM771.5 -121q45.5 -29 65.5 -75t20 -99q0 -62 -28.5 -133t-92 -130t-161.5 -83l-53 121q61 12 106 38t69.5 60t25.5 69q-39 -21 -79 -21t-74 20t-54 53t-20 71q0 39 21 70t57.5 49t79.5 18q72 1 117.5 -28z" />
    <glyph glyph-name="uni021B" unicode="&#x21b;" horiz-adv-x="798" 
d="M370 20q-76 42 -115 117t-39 171v606h-178v196h183v282l240 174v-456h244v-196h-244v-574q0 -157 136 -157q45 0 100 17l40 -194q-35 -11 -84.5 -19.5t-98.5 -8.5q-108 0 -184 42zM598.5 -121q45.5 -29 65.5 -75t20 -99q0 -62 -28.5 -133t-92 -130t-161.5 -83l-53 121
q61 12 106 38t69.5 60t25.5 69q-39 -21 -79 -21t-74 20t-54 53t-20 71q0 39 21 70t57.5 49t79.5 18q72 1 117.5 -28z" />
    <glyph glyph-name="uni0237" unicode="&#x237;" horiz-adv-x="600" 
d="M54 -472q-60 9 -122 28l66 203q20 -9 44.5 -13.5t42.5 -4.5q47 0 70 28q14 17 19 47.5t5 95.5v1198h243v-1247q0 -98 -9 -156.5t-42 -102.5q-31 -39 -83.5 -62t-129.5 -23q-44 0 -104 9z" />
    <glyph glyph-name="circumflex" unicode="&#x2c6;" horiz-adv-x="753" 
d="M375 1604l347 -379h-180l-167 163l-165 -163h-179z" />
    <glyph glyph-name="caron" unicode="&#x2c7;" horiz-adv-x="762" 
d="M35 1570h181l165 -153l166 153h181l-347 -359z" />
    <glyph glyph-name="breve" unicode="&#x2d8;" horiz-adv-x="914" 
d="M196.5 1337q-86.5 84 -86.5 233h163q0 -93 49 -137t134 -44q87 0 135 45t48 136h164q0 -152 -88.5 -234.5t-258.5 -82.5q-173 0 -259.5 84z" />
    <glyph glyph-name="dotaccent" unicode="&#x2d9;" horiz-adv-x="572" 
d="M206 1294.5q-37 21.5 -59 58.5t-22 81q0 42 21.5 79t58.5 58.5t81 21.5q43 0 79.5 -22t58.5 -58.5t22 -78.5q0 -44 -22 -81t-58.5 -58.5t-79.5 -21.5t-80 21.5z" />
    <glyph glyph-name="ring" unicode="&#x2da;" horiz-adv-x="708" 
d="M230 1230q-56 33 -88 89t-32 121q0 66 32.5 122t88.5 88.5t122 32.5q65 0 121 -32.5t89 -88t33 -122.5q0 -66 -32.5 -122t-88.5 -88.5t-122 -32.5q-67 0 -123 33zM437.5 1356.5q33.5 34.5 33.5 86.5q0 50 -32 82.5t-86 32.5q-52 0 -84.5 -33t-32.5 -82q0 -52 33.5 -86.5
t83.5 -34.5q51 0 84.5 34.5z" />
    <glyph glyph-name="ogonek" unicode="&#x2db;" horiz-adv-x="570" 
d="M188 -427.5q-90 51.5 -90 140.5q0 64 48.5 139t141.5 149h160q-82 -57 -127 -118t-45 -111q0 -51 43.5 -80t128.5 -29v-142q-170 0 -260 51.5z" />
    <glyph glyph-name="tilde" unicode="&#x2dc;" horiz-adv-x="988" 
d="M556.5 1278.5q-36.5 15.5 -60 36.5t-53.5 55t-50.5 50t-47.5 16q-41 0 -64 -42.5t-23 -119.5h-133q0 145 61 224.5t166 79.5q43 0 76.5 -14.5t57 -35.5t53.5 -53q32 -35 54 -51.5t49 -16.5q35 0 57.5 43.5t22.5 119.5h139q0 -96 -26.5 -165t-76.5 -105.5t-117 -36.5
q-48 0 -84.5 15.5z" />
    <glyph glyph-name="hungarumlaut" unicode="&#x2dd;" horiz-adv-x="991" 
d="M287 1570h207l-255 -320h-174zM701 1570h246l-288 -320h-179z" />
    <glyph glyph-name="gravecomb" unicode="&#x300;" 
d="M-540 1570h246l234 -320h-175z" />
    <glyph glyph-name="acutecomb" unicode="&#x301;" 
d="M-285 1570h245l-323 -320h-169z" />
    <glyph glyph-name="uni0302" unicode="&#x302;" 
d="M-378 1604l347 -379h-180l-167 163l-165 -163h-179z" />
    <glyph glyph-name="tildecomb" unicode="&#x303;" 
d="M-431.5 1278.5q-36.5 15.5 -60 36.5t-53.5 55t-50.5 50t-47.5 16q-41 0 -64 -42.5t-23 -119.5h-133q0 145 61 224.5t166 79.5q43 0 76.5 -14.5t57 -35.5t53.5 -53q32 -35 54 -51.5t49 -16.5q35 0 57.5 43.5t22.5 119.5h139q0 -96 -26.5 -165t-76.5 -105.5t-117 -36.5
q-48 0 -84.5 15.5z" />
    <glyph glyph-name="uni0304" unicode="&#x304;" 
d="M-785 1438h617v-136h-617v136z" />
    <glyph glyph-name="uni0306" unicode="&#x306;" 
d="M-717.5 1337q-86.5 84 -86.5 233h163q0 -93 49 -137t134 -44q87 0 135 45t48 136h164q0 -152 -88.5 -234.5t-258.5 -82.5q-173 0 -259.5 84z" />
    <glyph glyph-name="uni0307" unicode="&#x307;" 
d="M-366 1294.5q-37 21.5 -59 58.5t-22 81q0 42 21.5 79t58.5 58.5t81 21.5q43 0 79.5 -22t58.5 -58.5t22 -78.5q0 -44 -22 -81t-58.5 -58.5t-79.5 -21.5t-80 21.5z" />
    <glyph glyph-name="uni0308" unicode="&#x308;" 
d="M-783 1316q-34 20 -54 54t-20 75q0 40 20 74t54 54t75 20q40 0 74 -20t54 -54t20 -74q0 -41 -20 -75t-54 -54t-74 -20q-41 0 -75 20zM-351 1316q-34 20 -54 54t-20 75q0 40 20 74t54 54t75 20q39 0 73.5 -20t54.5 -54t20 -74q0 -41 -20 -75t-54.5 -54t-73.5 -20
q-41 0 -75 20z" />
    <glyph glyph-name="uni030A" unicode="&#x30a;" 
d="M-478 1230q-56 33 -88 89t-32 121q0 66 32.5 122t88.5 88.5t122 32.5q65 0 121 -32.5t89 -88t33 -122.5q0 -66 -32.5 -122t-88.5 -88.5t-122 -32.5q-67 0 -123 33zM-270.5 1356.5q33.5 34.5 33.5 86.5q0 50 -32 82.5t-86 32.5q-52 0 -84.5 -33t-32.5 -82
q0 -52 33.5 -86.5t83.5 -34.5q51 0 84.5 34.5z" />
    <glyph glyph-name="uni030B" unicode="&#x30b;" 
d="M-704 1570h207l-255 -320h-174zM-290 1570h246l-288 -320h-179z" />
    <glyph glyph-name="uni030C" unicode="&#x30c;" 
d="M-727 1570h181l165 -153l166 153h181l-347 -359z" />
    <glyph glyph-name="uni030F" unicode="&#x30f;" 
d="M-659 1250l-288 320h246l221 -320h-179zM-239 1250l-255 320h207l222 -320h-174z" />
    <glyph glyph-name="uni0312" unicode="&#x312;" 
d="M-193 1454.5q34 -17.5 54 -47t20 -63.5q0 -35 -21 -63t-57.5 -44t-79.5 -16q-72 -1 -117.5 24.5t-65.5 67.5t-20 89q0 56 28.5 119t92 116t161.5 74l53 -108q-61 -11 -106.5 -34.5t-69.5 -53.5t-25 -62q38 19 79 19q40 0 74 -17.5z" />
    <glyph glyph-name="uni031B" unicode="&#x31b;" 
d="M-459 1265q88 0 125 55t37 137v113h174v-95q0 -163 -82.5 -262t-253.5 -99v151z" />
    <glyph glyph-name="uni0326" unicode="&#x326;" 
d="M-190.5 -121q45.5 -29 65.5 -75t20 -99q0 -62 -28.5 -133t-92 -130t-161.5 -83l-53 121q61 12 106 38t69.5 60t25.5 69q-39 -21 -79 -21t-74 20t-54 53t-20 71q0 39 21 70t57.5 49t79.5 18q72 1 117.5 -28z" />
    <glyph glyph-name="uni0327" unicode="&#x327;" 
d="M-442.5 -461q-56.5 21 -109.5 64l62 102q41 -38 83.5 -56t80.5 -18q46 0 73 24t27 59q0 30 -20.5 53t-61.5 35q-46 14 -131 14l114 184h116l-76 -107q32 -3 59 -14q54 -20 85 -63t31 -100q0 -56 -29 -101.5t-79.5 -71t-113.5 -25.5q-54 0 -110.5 21z" />
    <glyph glyph-name="uni0328" unicode="&#x328;" 
d="M-382 -427.5q-90 51.5 -90 140.5q0 64 48.5 139t141.5 149h160q-82 -57 -127 -118t-45 -111q0 -51 43.5 -80t128.5 -29v-142q-170 0 -260 51.5z" />
    <glyph glyph-name="uni0335" unicode="&#x335;" 
d="M-873 732h706v-155h-706v155z" />
    <glyph glyph-name="uni0336" unicode="&#x336;" 
d="M-1631 701h1462v-137h-1462v137z" />
    <glyph glyph-name="uni0337" unicode="&#x337;" 
d="M-616 759l542 383v-242l-542 -386v245z" />
    <glyph glyph-name="uni0338" unicode="&#x338;" 
d="M-910 38l764 1247l153 -94l-763 -1247z" />
    <glyph glyph-name="uni03BC" unicode="&#x3bc;" horiz-adv-x="1444" 
d="M265 1110h228v-645q0 -126 60 -200t173 -74q127 0 198.5 74.5t71.5 221.5v623h227v-1110h-227v149q-59 -84 -148.5 -126.5t-186.5 -42.5q-133 0 -210 71v-423h-186v1482z" />
    <glyph glyph-name="pi" unicode="&#x3c0;" horiz-adv-x="1132" 
d="M766 59q-67 79 -67 223v635h-305v-917h-194v917h-100v193h893v-193h-101v-605q0 -92 20.5 -127t58.5 -35q32 0 56 16l62 -151q-57 -35 -133 -35q-123 0 -190 79z" />
    <glyph glyph-name="Wgrave" unicode="&#x1e80;" horiz-adv-x="2453" 
d="M41 1570h288l422 -1247h20l311 1071h289l312 -1071h19l422 1247h288l-571 -1570h-315l-288 1016h-23l-288 -1016h-315zM836 2030h246l234 -320h-175z" />
    <glyph glyph-name="wgrave" unicode="&#x1e81;" horiz-adv-x="1913" 
d="M19 1110h263l303 -900h19l221 900h263l220 -900h20l302 900h263l-399 -1110h-352l-177 752h-16l-179 -752h-351zM565 1570h246l234 -320h-175z" />
    <glyph glyph-name="Wacute" unicode="&#x1e82;" horiz-adv-x="2453" 
d="M41 1570h288l422 -1247h20l311 1071h289l312 -1071h19l422 1247h288l-571 -1570h-315l-288 1016h-23l-288 -1016h-315zM1374 2030h245l-323 -320h-169z" />
    <glyph glyph-name="wacute" unicode="&#x1e83;" horiz-adv-x="1913" 
d="M19 1110h263l303 -900h19l221 900h263l220 -900h20l302 900h263l-399 -1110h-352l-177 752h-16l-179 -752h-351zM1103 1570h245l-323 -320h-169z" />
    <glyph glyph-name="Wdieresis" unicode="&#x1e84;" horiz-adv-x="2453" 
d="M41 1570h288l422 -1247h20l311 1071h289l312 -1071h19l422 1247h288l-571 -1570h-315l-288 1016h-23l-288 -1016h-315zM937 1711q-34 20 -54 54.5t-20 75.5q0 40 20 73.5t54 53.5t75 20q40 0 74 -20t54 -53.5t20 -73.5q0 -41 -20 -75.5t-54 -54.5t-74 -20q-41 0 -75 20z
M1369 1711q-34 20 -54 54.5t-20 75.5q0 40 20 73.5t54 53.5t75 20q39 0 73.5 -20t54.5 -53.5t20 -73.5q0 -41 -20 -75.5t-54.5 -54.5t-73.5 -20q-41 0 -75 20z" />
    <glyph glyph-name="wdieresis" unicode="&#x1e85;" horiz-adv-x="1913" 
d="M19 1110h263l303 -900h19l221 900h263l220 -900h20l302 900h263l-399 -1110h-352l-177 752h-16l-179 -752h-351zM666 1316q-34 20 -54 54t-20 75q0 40 20 74t54 54t75 20q40 0 74 -20t54 -54t20 -74q0 -41 -20 -75t-54 -54t-74 -20q-41 0 -75 20zM1098 1316
q-34 20 -54 54t-20 75q0 40 20 74t54 54t75 20q39 0 73.5 -20t54.5 -54t20 -74q0 -41 -20 -75t-54.5 -54t-73.5 -20q-41 0 -75 20z" />
    <glyph glyph-name="uni1EA4" unicode="&#x1ea4;" horiz-adv-x="1526" 
d="M1082 342h-634l-117 -342h-290l573 1570h300l571 -1570h-288zM1002 578l-225 668h-20l-228 -668h473zM760 2064l347 -379h-180l-167 163l-165 -163h-179zM909 2504h245l-323 -320h-169z" />
    <glyph glyph-name="uni1EA5" unicode="&#x1ea5;" horiz-adv-x="1212" 
d="M1047.5 856q16.5 -71 16.5 -184v-672h-222l-22 94h-20q-43 -46 -105 -74q-92 -42 -207 -42q-125 0 -217.5 44t-142 125.5t-49.5 189.5q0 206 167 288q54 26 125.5 37.5t192.5 11.5h256q-1 79 -14 125.5t-45 74.5q-30 26 -77.5 39.5t-106.5 13.5q-82 0 -164.5 -34.5
t-157.5 -102.5l-147 163q105 87 225 133t244 46q145 0 249.5 -39t163.5 -115q41 -51 57.5 -122zM803.5 348.5q14.5 54.5 16.5 128.5h-294q-57 0 -93 -8t-63 -31q-23 -19 -34 -42t-11 -60q0 -74 52 -119t153 -45q66 0 123 21.5t97 61.5q39 39 53.5 93.5zM602 1604l347 -379
h-180l-167 163l-165 -163h-179zM751 2044h245l-323 -320h-169z" />
    <glyph glyph-name="uni1EA6" unicode="&#x1ea6;" horiz-adv-x="1526" 
d="M1082 342h-634l-117 -342h-290l573 1570h300l571 -1570h-288zM1002 578l-225 668h-20l-228 -668h473zM760 2064l347 -379h-180l-167 163l-165 -163h-179zM371 2504h246l234 -320h-175z" />
    <glyph glyph-name="uni1EA7" unicode="&#x1ea7;" horiz-adv-x="1212" 
d="M1047.5 856q16.5 -71 16.5 -184v-672h-222l-22 94h-20q-43 -46 -105 -74q-92 -42 -207 -42q-125 0 -217.5 44t-142 125.5t-49.5 189.5q0 206 167 288q54 26 125.5 37.5t192.5 11.5h256q-1 79 -14 125.5t-45 74.5q-30 26 -77.5 39.5t-106.5 13.5q-82 0 -164.5 -34.5
t-157.5 -102.5l-147 163q105 87 225 133t244 46q145 0 249.5 -39t163.5 -115q41 -51 57.5 -122zM803.5 348.5q14.5 54.5 16.5 128.5h-294q-57 0 -93 -8t-63 -31q-23 -19 -34 -42t-11 -60q0 -74 52 -119t153 -45q66 0 123 21.5t97 61.5q39 39 53.5 93.5zM602 1604l347 -379
h-180l-167 163l-165 -163h-179zM213 2044h246l234 -320h-175z" />
    <glyph glyph-name="uni1EAA" unicode="&#x1eaa;" horiz-adv-x="1526" 
d="M1082 342h-634l-117 -342h-290l573 1570h300l571 -1570h-288zM1002 578l-225 668h-20l-228 -668h473zM760 2064l347 -379h-180l-167 163l-165 -163h-179zM825.5 2200.5q-36.5 15.5 -60 36.5t-53.5 55t-50.5 50t-47.5 16q-41 0 -64 -42.5t-23 -119.5h-133q0 145 61 224.5
t166 79.5q43 0 76.5 -14.5t57 -35.5t53.5 -53q32 -35 54 -51.5t49 -16.5q35 0 57.5 43.5t22.5 119.5h139q0 -96 -26.5 -165t-76.5 -105.5t-117 -36.5q-48 0 -84.5 15.5z" />
    <glyph glyph-name="uni1EAB" unicode="&#x1eab;" horiz-adv-x="1212" 
d="M1047.5 856q16.5 -71 16.5 -184v-672h-222l-22 94h-20q-43 -46 -105 -74q-92 -42 -207 -42q-125 0 -217.5 44t-142 125.5t-49.5 189.5q0 206 167 288q54 26 125.5 37.5t192.5 11.5h256q-1 79 -14 125.5t-45 74.5q-30 26 -77.5 39.5t-106.5 13.5q-82 0 -164.5 -34.5
t-157.5 -102.5l-147 163q105 87 225 133t244 46q145 0 249.5 -39t163.5 -115q41 -51 57.5 -122zM803.5 348.5q14.5 54.5 16.5 128.5h-294q-57 0 -93 -8t-63 -31q-23 -19 -34 -42t-11 -60q0 -74 52 -119t153 -45q66 0 123 21.5t97 61.5q39 39 53.5 93.5zM602 1604l347 -379
h-180l-167 163l-165 -163h-179zM667.5 1740.5q-36.5 15.5 -60 36.5t-53.5 55t-50.5 50t-47.5 16q-41 0 -64 -42.5t-23 -119.5h-133q0 145 61 224.5t166 79.5q43 0 76.5 -14.5t57 -35.5t53.5 -53q32 -35 54 -51.5t49 -16.5q35 0 57.5 43.5t22.5 119.5h139q0 -96 -26.5 -165
t-76.5 -105.5t-117 -36.5q-48 0 -84.5 15.5z" />
    <glyph glyph-name="uni1EAE" unicode="&#x1eae;" horiz-adv-x="1526" 
d="M1082 342h-634l-117 -342h-290l573 1570h300l571 -1570h-288zM1002 578l-225 668h-20l-228 -668h473zM502.5 1797q-86.5 84 -86.5 233h163q0 -93 49 -137t134 -44q87 0 135 45t48 136h164q0 -152 -88.5 -234.5t-258.5 -82.5q-173 0 -259.5 84zM909 2490h245l-323 -320
h-169z" />
    <glyph glyph-name="uni1EAF" unicode="&#x1eaf;" horiz-adv-x="1212" 
d="M1047.5 856q16.5 -71 16.5 -184v-672h-222l-22 94h-20q-43 -46 -105 -74q-92 -42 -207 -42q-125 0 -217.5 44t-142 125.5t-49.5 189.5q0 206 167 288q54 26 125.5 37.5t192.5 11.5h256q-1 79 -14 125.5t-45 74.5q-30 26 -77.5 39.5t-106.5 13.5q-82 0 -164.5 -34.5
t-157.5 -102.5l-147 163q105 87 225 133t244 46q145 0 249.5 -39t163.5 -115q41 -51 57.5 -122zM803.5 348.5q14.5 54.5 16.5 128.5h-294q-57 0 -93 -8t-63 -31q-23 -19 -34 -42t-11 -60q0 -74 52 -119t153 -45q66 0 123 21.5t97 61.5q39 39 53.5 93.5zM344.5 1337
q-86.5 84 -86.5 233h163q0 -93 49 -137t134 -44q87 0 135 45t48 136h164q0 -152 -88.5 -234.5t-258.5 -82.5q-173 0 -259.5 84zM751 2030h245l-323 -320h-169z" />
    <glyph glyph-name="uni1EB0" unicode="&#x1eb0;" horiz-adv-x="1526" 
d="M1082 342h-634l-117 -342h-290l573 1570h300l571 -1570h-288zM1002 578l-225 668h-20l-228 -668h473zM502.5 1797q-86.5 84 -86.5 233h163q0 -93 49 -137t134 -44q87 0 135 45t48 136h164q0 -152 -88.5 -234.5t-258.5 -82.5q-173 0 -259.5 84zM371 2490h246l234 -320
h-175z" />
    <glyph glyph-name="uni1EB1" unicode="&#x1eb1;" horiz-adv-x="1212" 
d="M1047.5 856q16.5 -71 16.5 -184v-672h-222l-22 94h-20q-43 -46 -105 -74q-92 -42 -207 -42q-125 0 -217.5 44t-142 125.5t-49.5 189.5q0 206 167 288q54 26 125.5 37.5t192.5 11.5h256q-1 79 -14 125.5t-45 74.5q-30 26 -77.5 39.5t-106.5 13.5q-82 0 -164.5 -34.5
t-157.5 -102.5l-147 163q105 87 225 133t244 46q145 0 249.5 -39t163.5 -115q41 -51 57.5 -122zM803.5 348.5q14.5 54.5 16.5 128.5h-294q-57 0 -93 -8t-63 -31q-23 -19 -34 -42t-11 -60q0 -74 52 -119t153 -45q66 0 123 21.5t97 61.5q39 39 53.5 93.5zM344.5 1337
q-86.5 84 -86.5 233h163q0 -93 49 -137t134 -44q87 0 135 45t48 136h164q0 -152 -88.5 -234.5t-258.5 -82.5q-173 0 -259.5 84zM213 2030h246l234 -320h-175z" />
    <glyph glyph-name="uni1EB4" unicode="&#x1eb4;" horiz-adv-x="1526" 
d="M1082 342h-634l-117 -342h-290l573 1570h300l571 -1570h-288zM1002 578l-225 668h-20l-228 -668h473zM502.5 1797q-86.5 84 -86.5 233h163q0 -93 49 -137t134 -44q87 0 135 45t48 136h164q0 -152 -88.5 -234.5t-258.5 -82.5q-173 0 -259.5 84zM825.5 2186.5
q-36.5 15.5 -60 36.5t-53.5 55t-50.5 50t-47.5 16q-41 0 -64 -42.5t-23 -119.5h-133q0 145 61 224.5t166 79.5q43 0 76.5 -14.5t57 -35.5t53.5 -53q32 -35 54 -51.5t49 -16.5q35 0 57.5 43.5t22.5 119.5h139q0 -96 -26.5 -165t-76.5 -105.5t-117 -36.5q-48 0 -84.5 15.5z
" />
    <glyph glyph-name="uni1EB5" unicode="&#x1eb5;" horiz-adv-x="1212" 
d="M1047.5 856q16.5 -71 16.5 -184v-672h-222l-22 94h-20q-43 -46 -105 -74q-92 -42 -207 -42q-125 0 -217.5 44t-142 125.5t-49.5 189.5q0 206 167 288q54 26 125.5 37.5t192.5 11.5h256q-1 79 -14 125.5t-45 74.5q-30 26 -77.5 39.5t-106.5 13.5q-82 0 -164.5 -34.5
t-157.5 -102.5l-147 163q105 87 225 133t244 46q145 0 249.5 -39t163.5 -115q41 -51 57.5 -122zM803.5 348.5q14.5 54.5 16.5 128.5h-294q-57 0 -93 -8t-63 -31q-23 -19 -34 -42t-11 -60q0 -74 52 -119t153 -45q66 0 123 21.5t97 61.5q39 39 53.5 93.5zM344.5 1337
q-86.5 84 -86.5 233h163q0 -93 49 -137t134 -44q87 0 135 45t48 136h164q0 -152 -88.5 -234.5t-258.5 -82.5q-173 0 -259.5 84zM667.5 1726.5q-36.5 15.5 -60 36.5t-53.5 55t-50.5 50t-47.5 16q-41 0 -64 -42.5t-23 -119.5h-133q0 145 61 224.5t166 79.5q43 0 76.5 -14.5
t57 -35.5t53.5 -53q32 -35 54 -51.5t49 -16.5q35 0 57.5 43.5t22.5 119.5h139q0 -96 -26.5 -165t-76.5 -105.5t-117 -36.5q-48 0 -84.5 15.5z" />
    <glyph glyph-name="uni1EBC" unicode="&#x1ebc;" horiz-adv-x="1380" 
d="M221 1570h996v-237h-730v-430h674v-235h-674v-431h776v-237h-1042v1570zM788.5 1726.5q-36.5 15.5 -60 36.5t-53.5 55t-50.5 50t-47.5 16q-41 0 -64 -42.5t-23 -119.5h-133q0 145 61 224.5t166 79.5q43 0 76.5 -14.5t57 -35.5t53.5 -53q32 -35 54 -51.5t49 -16.5
q35 0 57.5 43.5t22.5 119.5h139q0 -96 -26.5 -165t-76.5 -105.5t-117 -36.5q-48 0 -84.5 15.5z" />
    <glyph glyph-name="uni1EBD" unicode="&#x1ebd;" horiz-adv-x="1201" 
d="M1113 478h-777q6 -87 41.5 -153.5t101 -104t156.5 -37.5q86 0 153.5 31.5t126.5 108.5l167 -148q-90 -99 -200 -148t-249 -49q-178 0 -302.5 78t-187 208.5t-62.5 286.5q0 153 59.5 285.5t180 214t293.5 81.5q180 0 294 -82.5t164 -207.5t50 -259q0 -53 -9 -105z
M478.5 892q-59.5 -35 -94.5 -92t-45 -125h542q-1 18 -6 38q-17 103 -86 158.5t-172 55.5q-79 0 -138.5 -35zM680.5 1266.5q-36.5 15.5 -60 36.5t-53.5 55t-50.5 50t-47.5 16q-41 0 -64 -42.5t-23 -119.5h-133q0 145 61 224.5t166 79.5q43 0 76.5 -14.5t57 -35.5t53.5 -53
q32 -35 54 -51.5t49 -16.5q35 0 57.5 43.5t22.5 119.5h139q0 -96 -26.5 -165t-76.5 -105.5t-117 -36.5q-48 0 -84.5 15.5z" />
    <glyph glyph-name="uni1EBE" unicode="&#x1ebe;" horiz-adv-x="1380" 
d="M221 1570h996v-237h-730v-430h674v-235h-674v-431h776v-237h-1042v1570zM723 2064l347 -379h-180l-167 163l-165 -163h-179zM872 2504h245l-323 -320h-169z" />
    <glyph glyph-name="uni1EBF" unicode="&#x1ebf;" horiz-adv-x="1201" 
d="M1113 478h-777q6 -87 41.5 -153.5t101 -104t156.5 -37.5q86 0 153.5 31.5t126.5 108.5l167 -148q-90 -99 -200 -148t-249 -49q-178 0 -302.5 78t-187 208.5t-62.5 286.5q0 153 59.5 285.5t180 214t293.5 81.5q180 0 294 -82.5t164 -207.5t50 -259q0 -53 -9 -105z
M478.5 892q-59.5 -35 -94.5 -92t-45 -125h542q-1 18 -6 38q-17 103 -86 158.5t-172 55.5q-79 0 -138.5 -35zM615 1604l347 -379h-180l-167 163l-165 -163h-179zM764 2044h245l-323 -320h-169z" />
    <glyph glyph-name="uni1EC0" unicode="&#x1ec0;" horiz-adv-x="1380" 
d="M221 1570h996v-237h-730v-430h674v-235h-674v-431h776v-237h-1042v1570zM723 2064l347 -379h-180l-167 163l-165 -163h-179zM334 2504h246l234 -320h-175z" />
    <glyph glyph-name="uni1EC1" unicode="&#x1ec1;" horiz-adv-x="1201" 
d="M1113 478h-777q6 -87 41.5 -153.5t101 -104t156.5 -37.5q86 0 153.5 31.5t126.5 108.5l167 -148q-90 -99 -200 -148t-249 -49q-178 0 -302.5 78t-187 208.5t-62.5 286.5q0 153 59.5 285.5t180 214t293.5 81.5q180 0 294 -82.5t164 -207.5t50 -259q0 -53 -9 -105z
M478.5 892q-59.5 -35 -94.5 -92t-45 -125h542q-1 18 -6 38q-17 103 -86 158.5t-172 55.5q-79 0 -138.5 -35zM615 1604l347 -379h-180l-167 163l-165 -163h-179zM226 2044h246l234 -320h-175z" />
    <glyph glyph-name="uni1EC4" unicode="&#x1ec4;" horiz-adv-x="1380" 
d="M221 1570h996v-237h-730v-430h674v-235h-674v-431h776v-237h-1042v1570zM723 2064l347 -379h-180l-167 163l-165 -163h-179zM788.5 2200.5q-36.5 15.5 -60 36.5t-53.5 55t-50.5 50t-47.5 16q-41 0 -64 -42.5t-23 -119.5h-133q0 145 61 224.5t166 79.5q43 0 76.5 -14.5
t57 -35.5t53.5 -53q32 -35 54 -51.5t49 -16.5q35 0 57.5 43.5t22.5 119.5h139q0 -96 -26.5 -165t-76.5 -105.5t-117 -36.5q-48 0 -84.5 15.5z" />
    <glyph glyph-name="uni1EC5" unicode="&#x1ec5;" horiz-adv-x="1201" 
d="M1113 478h-777q6 -87 41.5 -153.5t101 -104t156.5 -37.5q86 0 153.5 31.5t126.5 108.5l167 -148q-90 -99 -200 -148t-249 -49q-178 0 -302.5 78t-187 208.5t-62.5 286.5q0 153 59.5 285.5t180 214t293.5 81.5q180 0 294 -82.5t164 -207.5t50 -259q0 -53 -9 -105z
M478.5 892q-59.5 -35 -94.5 -92t-45 -125h542q-1 18 -6 38q-17 103 -86 158.5t-172 55.5q-79 0 -138.5 -35zM615 1604l347 -379h-180l-167 163l-165 -163h-179zM680.5 1740.5q-36.5 15.5 -60 36.5t-53.5 55t-50.5 50t-47.5 16q-41 0 -64 -42.5t-23 -119.5h-133
q0 145 61 224.5t166 79.5q43 0 76.5 -14.5t57 -35.5t53.5 -53q32 -35 54 -51.5t49 -16.5q35 0 57.5 43.5t22.5 119.5h139q0 -96 -26.5 -165t-76.5 -105.5t-117 -36.5q-48 0 -84.5 15.5z" />
    <glyph glyph-name="uni1ED0" unicode="&#x1ed0;" horiz-adv-x="1718" 
d="M460.5 76.5q-167.5 98.5 -257 280.5t-89.5 428t89.5 428t257 280.5t397.5 98.5t398.5 -98t258 -280t89.5 -429t-89.5 -429t-258 -280t-398.5 -98t-397.5 98.5zM1114.5 283.5q108.5 69.5 166.5 198.5t58 303q0 175 -58 303.5t-166 198t-257 69.5q-148 0 -255.5 -69.5
t-165 -198t-57.5 -303.5q0 -174 57.5 -303t165 -198.5t255.5 -69.5t256.5 69.5zM856 2063l347 -379h-180l-167 163l-165 -163h-179zM1005 2503h245l-323 -320h-169z" />
    <glyph glyph-name="uni1ED1" unicode="&#x1ed1;" horiz-adv-x="1269" 
d="M342.5 51q-125.5 73 -193.5 204.5t-68 302.5q0 170 68 300.5t193.5 202t292.5 71.5q166 0 291.5 -71.5t193.5 -202t68 -300.5q0 -171 -68 -302.5t-193.5 -204.5t-291.5 -73q-167 0 -292.5 73zM807 231.5q69 48.5 102.5 133t33.5 193.5q0 166 -77.5 267.5t-230.5 101.5
q-154 0 -232 -101t-78 -268q0 -109 33.5 -193.5t103 -133t173.5 -48.5q103 0 172 48.5zM632 1604l347 -379h-180l-167 163l-165 -163h-179zM781 2044h245l-323 -320h-169z" />
    <glyph glyph-name="uni1ED2" unicode="&#x1ed2;" horiz-adv-x="1718" 
d="M460.5 76.5q-167.5 98.5 -257 280.5t-89.5 428t89.5 428t257 280.5t397.5 98.5t398.5 -98t258 -280t89.5 -429t-89.5 -429t-258 -280t-398.5 -98t-397.5 98.5zM1114.5 283.5q108.5 69.5 166.5 198.5t58 303q0 175 -58 303.5t-166 198t-257 69.5q-148 0 -255.5 -69.5
t-165 -198t-57.5 -303.5q0 -174 57.5 -303t165 -198.5t255.5 -69.5t256.5 69.5zM856 2063l347 -379h-180l-167 163l-165 -163h-179zM467 2503h246l234 -320h-175z" />
    <glyph glyph-name="uni1ED3" unicode="&#x1ed3;" horiz-adv-x="1269" 
d="M342.5 51q-125.5 73 -193.5 204.5t-68 302.5q0 170 68 300.5t193.5 202t292.5 71.5q166 0 291.5 -71.5t193.5 -202t68 -300.5q0 -171 -68 -302.5t-193.5 -204.5t-291.5 -73q-167 0 -292.5 73zM807 231.5q69 48.5 102.5 133t33.5 193.5q0 166 -77.5 267.5t-230.5 101.5
q-154 0 -232 -101t-78 -268q0 -109 33.5 -193.5t103 -133t173.5 -48.5q103 0 172 48.5zM632 1604l347 -379h-180l-167 163l-165 -163h-179zM243 2044h246l234 -320h-175z" />
    <glyph glyph-name="uni1ED6" unicode="&#x1ed6;" horiz-adv-x="1718" 
d="M460.5 76.5q-167.5 98.5 -257 280.5t-89.5 428t89.5 428t257 280.5t397.5 98.5t398.5 -98t258 -280t89.5 -429t-89.5 -429t-258 -280t-398.5 -98t-397.5 98.5zM1114.5 283.5q108.5 69.5 166.5 198.5t58 303q0 175 -58 303.5t-166 198t-257 69.5q-148 0 -255.5 -69.5
t-165 -198t-57.5 -303.5q0 -174 57.5 -303t165 -198.5t255.5 -69.5t256.5 69.5zM856 2063l347 -379h-180l-167 163l-165 -163h-179zM921.5 2199.5q-36.5 15.5 -60 36.5t-53.5 55t-50.5 50t-47.5 16q-41 0 -64 -42.5t-23 -119.5h-133q0 145 61 224.5t166 79.5
q43 0 76.5 -14.5t57 -35.5t53.5 -53q32 -35 54 -51.5t49 -16.5q35 0 57.5 43.5t22.5 119.5h139q0 -96 -26.5 -165t-76.5 -105.5t-117 -36.5q-48 0 -84.5 15.5z" />
    <glyph glyph-name="uni1ED7" unicode="&#x1ed7;" horiz-adv-x="1269" 
d="M342.5 51q-125.5 73 -193.5 204.5t-68 302.5q0 170 68 300.5t193.5 202t292.5 71.5q166 0 291.5 -71.5t193.5 -202t68 -300.5q0 -171 -68 -302.5t-193.5 -204.5t-291.5 -73q-167 0 -292.5 73zM807 231.5q69 48.5 102.5 133t33.5 193.5q0 166 -77.5 267.5t-230.5 101.5
q-154 0 -232 -101t-78 -268q0 -109 33.5 -193.5t103 -133t173.5 -48.5q103 0 172 48.5zM632 1604l347 -379h-180l-167 163l-165 -163h-179zM697.5 1740.5q-36.5 15.5 -60 36.5t-53.5 55t-50.5 50t-47.5 16q-41 0 -64 -42.5t-23 -119.5h-133q0 145 61 224.5t166 79.5
q43 0 76.5 -14.5t57 -35.5t53.5 -53q32 -35 54 -51.5t49 -16.5q35 0 57.5 43.5t22.5 119.5h139q0 -96 -26.5 -165t-76.5 -105.5t-117 -36.5q-48 0 -84.5 15.5z" />
    <glyph glyph-name="Ygrave" unicode="&#x1ef2;" horiz-adv-x="1503" 
d="M618 585l-594 985h311l406 -692h20l407 692h311l-595 -985v-585h-266v585zM360 2030h246l234 -320h-175z" />
    <glyph glyph-name="ygrave" unicode="&#x1ef3;" horiz-adv-x="1155" 
d="M447 26l-437 1084h268l287 -788h21l292 788h267l-630 -1570h-264zM186 1570h246l234 -320h-175z" />
    <glyph glyph-name="uni1EF8" unicode="&#x1ef8;" horiz-adv-x="1503" 
d="M618 585l-594 985h311l406 -692h20l407 692h311l-595 -985v-585h-266v585zM814.5 1726.5q-36.5 15.5 -60 36.5t-53.5 55t-50.5 50t-47.5 16q-41 0 -64 -42.5t-23 -119.5h-133q0 145 61 224.5t166 79.5q43 0 76.5 -14.5t57 -35.5t53.5 -53q32 -35 54 -51.5t49 -16.5
q35 0 57.5 43.5t22.5 119.5h139q0 -96 -26.5 -165t-76.5 -105.5t-117 -36.5q-48 0 -84.5 15.5z" />
    <glyph glyph-name="uni1EF9" unicode="&#x1ef9;" horiz-adv-x="1155" 
d="M447 26l-437 1084h268l287 -788h21l292 788h267l-630 -1570h-264zM640.5 1266.5q-36.5 15.5 -60 36.5t-53.5 55t-50.5 50t-47.5 16q-41 0 -64 -42.5t-23 -119.5h-133q0 145 61 224.5t166 79.5q43 0 76.5 -14.5t57 -35.5t53.5 -53q32 -35 54 -51.5t49 -16.5
q35 0 57.5 43.5t22.5 119.5h139q0 -96 -26.5 -165t-76.5 -105.5t-117 -36.5q-48 0 -84.5 15.5z" />
    <glyph glyph-name="endash" unicode="&#x2013;" horiz-adv-x="1138" 
d="M0 762h1138v-174h-1138v174z" />
    <glyph glyph-name="emdash" unicode="&#x2014;" horiz-adv-x="2276" 
d="M0 762h2276v-174h-2276v174z" />
    <glyph glyph-name="quoteleft" unicode="&#x2018;" horiz-adv-x="649" 
d="M481 1034q-20 -33 -55.5 -52t-79.5 -19q-74 0 -120 35.5t-66 90t-20 116.5q0 74 29.5 152.5t93 143t160.5 92.5l53 -121q-62 -17 -107.5 -53t-69.5 -81.5t-24 -92.5v-9q36 22 78 22q40 0 74 -20.5t54 -55.5t20 -75t-20 -73z" />
    <glyph glyph-name="quoteright" unicode="&#x2019;" horiz-adv-x="647" 
d="M421 1556.5q46 -35.5 66 -90.5t20 -117q0 -74 -29.5 -152t-93 -142.5t-160.5 -93.5l-52 121q62 17 107.5 53t69 81.5t23.5 93.5v8q-36 -22 -77 -22q-40 0 -74 20.5t-54 55.5t-20 75q0 41 20.5 74.5t55.5 52t79 18.5q73 0 119 -35.5z" />
    <glyph glyph-name="quotesinglbase" unicode="&#x201a;" horiz-adv-x="720" 
d="M496 208q49 -67 49 -164q0 -74 -28.5 -155t-91.5 -149t-162 -97l-54 120q90 36 134 94.5t45 130.5q-28 -11 -59 -11q-61 0 -103 38t-42 104q0 69 45 111.5t113 42.5q105 2 154 -65z" />
    <glyph glyph-name="quotedblleft" unicode="&#x201c;" horiz-adv-x="1064" 
d="M441 1219q42 -38 42 -104q0 -69 -45 -111.5t-113 -42.5q-105 -2 -154 65t-49 164q0 74 28.5 155t91.5 149t162 97l54 -120q-90 -36 -134 -94.5t-45 -130.5q28 11 59 11q61 0 103 -38zM873 1219q42 -38 42 -104q0 -69 -45 -111.5t-113 -42.5q-105 -2 -154 65t-49 164
q0 74 28.5 155t91.5 149t162 97l54 -120q-90 -36 -134 -94.5t-45 -130.5q28 11 59 11q61 0 103 -38z" />
    <glyph glyph-name="quotedblright" unicode="&#x201d;" horiz-adv-x="1080" 
d="M857.5 1555q44.5 -36 63.5 -89.5t19 -113.5q0 -74 -29.5 -153t-93.5 -143.5t-161 -92.5l-52 120q62 18 107.5 54t69 82t23.5 93v7q-36 -22 -77 -22q-40 0 -74 21t-54 55.5t-20 74.5q0 61 42.5 102t107.5 43h8h5q71 -2 115.5 -38zM424.5 1555q44.5 -36 63.5 -89.5
t19 -113.5q0 -75 -29.5 -153.5t-93 -143t-160.5 -92.5l-52 120q62 18 107.5 54t69 82t23.5 93v7q-36 -22 -77 -22q-40 0 -74 21t-54 55.5t-20 74.5q0 61 42.5 102t107.5 43h8h4q71 -2 115.5 -38z" />
    <glyph glyph-name="quotedblbase" unicode="&#x201e;" horiz-adv-x="1153" 
d="M496 208q49 -67 49 -164q0 -74 -28.5 -155t-91.5 -149t-162 -97l-54 120q90 36 134 94.5t45 130.5q-28 -11 -59 -11q-61 0 -103 38t-42 104q0 69 45 111.5t113 42.5q105 2 154 -65zM928 208q49 -67 49 -164q0 -74 -28.5 -155t-91.5 -149t-162 -97l-54 120q90 36 134 94.5
t45 130.5q-28 -11 -59 -11q-61 0 -103 38t-42 104q0 69 45 111.5t113 42.5q105 2 154 -65z" />
    <glyph glyph-name="dagger" unicode="&#x2020;" horiz-adv-x="899" 
d="M345 927h-256v210h256v433h209v-433h256v-210h-256v-1155h-209v1155z" />
    <glyph glyph-name="daggerdbl" unicode="&#x2021;" horiz-adv-x="1006" 
d="M398 206h-256v208h256v513h-256v210h256v433h210v-433h256v-210h-256v-513h256v-208h-256v-434h-210v434z" />
    <glyph glyph-name="bullet" unicode="&#x2022;" horiz-adv-x="882" 
d="M308 306.5q-61 35.5 -96.5 96t-35.5 132.5q0 71 35.5 132t96.5 96.5t132 35.5q72 0 132.5 -35.5t96 -96.5t35.5 -132q0 -72 -35.5 -132.5t-96 -96t-132.5 -35.5q-71 0 -132 35.5z" />
    <glyph glyph-name="ellipsis" unicode="&#x2026;" horiz-adv-x="1611" 
d="M422.5 253q33.5 -20 53.5 -53.5t20 -73.5q0 -41 -20 -75.5t-53.5 -54.5t-73.5 -20q-41 0 -75.5 20t-54.5 54.5t-20 75.5q0 40 20 73.5t54.5 53.5t75.5 20q40 0 73.5 -20zM1109 253q34 -20 54 -53.5t20 -73.5q0 -41 -20 -75.5t-54 -54.5t-74 -20q-41 0 -75.5 20
t-54.5 54.5t-20 75.5q0 40 20 73.5t54.5 53.5t75.5 20q40 0 74 -20z" />
    <glyph glyph-name="perthousand" unicode="&#x2030;" horiz-adv-x="2352" 
d="M268.5 916q-73.5 47 -113.5 129.5t-40 186.5q0 102 39.5 184t111 129t164.5 47q91 0 164 -47.5t114.5 -130.5t41.5 -185q0 -101 -40.5 -183.5t-112 -129.5t-160.5 -47q-95 0 -168.5 47zM1196 1570h181l-939 -1570h-181zM509 1064.5q32 24.5 50.5 67.5t18.5 97
q0 86 -40.5 138.5t-107.5 52.5q-66 0 -104 -51.5t-38 -136.5q0 -87 39.5 -139.5t109.5 -52.5q40 0 72 24.5zM1036 25q-73 47 -113 130t-40 186q0 102 39.5 184t110.5 129t164 47q91 0 164 -47.5t114.5 -130t41.5 -184.5q0 -101 -40.5 -183.5t-112 -130t-160.5 -47.5
q-95 0 -168 47zM1755 25q-73 47 -113 130t-40 186q0 102 39.5 184t111 129t164.5 47q91 0 164 -47.5t114.5 -130t41.5 -184.5q0 -101 -40.5 -183.5t-112 -130t-160.5 -47.5q-96 0 -169 47zM1276.5 174.5q32.5 24.5 50.5 67.5t18 97q0 85 -40.5 138t-107.5 53
q-66 0 -104.5 -52t-38.5 -137q0 -86 40 -138.5t110 -52.5q40 0 72.5 24.5zM1996 174.5q32 24.5 50.5 67.5t18.5 97q0 85 -41 138t-107 53t-104 -52t-38 -137q0 -86 40 -138.5t109 -52.5q40 0 72 24.5z" />
    <glyph glyph-name="guilsinglleft" unicode="&#x2039;" horiz-adv-x="675" 
d="M46 567l464 390v-200l-229 -190l229 -188v-200z" />
    <glyph glyph-name="guilsinglright" unicode="&#x203a;" horiz-adv-x="675" 
d="M165 379l229 188l-229 190v200l464 -390l-464 -388v200z" />
    <glyph glyph-name="fraction" unicode="&#x2044;" horiz-adv-x="349" 
d="M555 1570h164l-926 -1570h-163z" />
    <glyph glyph-name="Euro" unicode="&#x20ac;" horiz-adv-x="1428" 
d="M605 46.5q-116 68.5 -190.5 188t-109.5 274.5h-151v188h126q-4 32 -4 88q0 24 2 68q2 22 2 32h-126v196h153q37 153 112 268t189 180t262 65q140 0 251.5 -57.5t191.5 -168.5l-163 -129q-50 73 -120 110t-153 37q-132 0 -219.5 -84.5t-120.5 -220.5h494v-190h-528l-2 -28
q-3 -30 -3 -61q0 -22 2 -62q2 -24 2 -33h529v-189h-494q31 -161 117.5 -246t225.5 -85q85 0 151 36t115 114l153 -153q-80 -102 -188.5 -154t-237.5 -52q-152 0 -268 68.5z" />
    <glyph glyph-name="uni20B1" unicode="&#x20b1;" horiz-adv-x="1541" 
d="M1437 1056h-90q-16 -189 -136 -293q-66 -56 -166.5 -82t-264.5 -26h-205v-655h-266v1056h-151v114h151v400h471q164 0 262 -24t164 -78q126 -102 141 -298h90v-114zM575 1170h503q-11 66 -51 108q-26 24 -64 36t-96.5 15.5t-164.5 3.5h-127v-163zM1076 1056h-501v-165
h127q103 0 161.5 4.5t96 18t63.5 39.5q42 42 53 103z" />
    <glyph glyph-name="trademark" unicode="&#x2122;" horiz-adv-x="1770" 
d="M262 1443h-224v127h604v-127h-224v-722h-156v722zM787 1570h236l182 -585l179 585h235v-849h-156v685l-209 -638h-98l-215 644v-691h-154v849z" />
    <glyph glyph-name="uni2126" unicode="&#x2126;" horiz-adv-x="1680" 
d="M1600 177v-177h-627v198q122 22 213 104.5t140.5 211.5t49.5 289q0 109 -34.5 208.5t-93.5 161.5q-76 83 -187 132.5t-220 49.5q-108 0 -219 -49.5t-190 -132.5q-59 -63 -93 -162.5t-34 -207.5q0 -157 49.5 -285.5t140.5 -211.5t213 -108v-198h-627v184h379
q-105 70 -184.5 171.5t-122.5 219t-43 235.5q0 135 51 270t138 226q102 108 249 172t293 64q145 0 291.5 -64t248.5 -173q87 -92 138 -226.5t51 -272.5q0 -124 -40.5 -244.5t-115 -220t-174.5 -164.5h360z" />
    <glyph glyph-name="arrowleft" unicode="&#x2190;" horiz-adv-x="2304" 
d="M2187 610h-1234v-425l-870 511l870 511v-423h1234v-174z" />
    <glyph glyph-name="arrowright" unicode="&#x2192;" horiz-adv-x="2304" 
d="M1351 185v425h-1234v174h1234v423l870 -511z" />
    <glyph glyph-name="partialdiff" unicode="&#x2202;" horiz-adv-x="1460" 
d="M369 51q-114 65 -174.5 180.5t-60.5 264.5q0 180 83 323.5t220.5 223.5t294.5 80q184 0 331 -165q2 93 -19 162q-26 148 -109 223.5t-208 75.5q-90 0 -168.5 -43t-120.5 -148l-169 53q59 146 184 226t296 80q185 0 307 -94.5t180 -262t58 -388.5q0 -246 -77 -440.5
t-225 -305t-354 -110.5q-155 0 -269 65zM865 243.5q91 59.5 141.5 154.5t56.5 199q3 86 -28.5 163.5t-101 126t-173.5 48.5q-129 0 -222.5 -62t-142 -162t-48.5 -213q0 -100 41 -171t110.5 -107t153.5 -36q122 0 213 59.5z" />
    <glyph glyph-name="uni2206" unicode="&#x2206;" horiz-adv-x="1469" 
d="M734 1643l655 -1643h-1309zM1117 187l-383 1001l-382 -1001h765z" />
    <glyph glyph-name="product" unicode="&#x220f;" horiz-adv-x="1502" 
d="M283 1377h-100v193h1136v-193h-100v-1377h-194v1377h-548v-1377h-194v1377z" />
    <glyph glyph-name="summation" unicode="&#x2211;" horiz-adv-x="1453" 
d="M1314 1352h-816l559 -567l-559 -567h816v-218h-1199v117l631 668l-631 668v117h1199v-218z" />
    <glyph glyph-name="minus" unicode="&#x2212;" horiz-adv-x="1283" 
d="M200 786h882v-175h-882v175z" />
    <glyph glyph-name="radical" unicode="&#x221a;" horiz-adv-x="1373" 
d="M258 608h-173v193h312l180 -532l513 1301h207l-732 -1799z" />
    <glyph glyph-name="infinity" unicode="&#x221e;" horiz-adv-x="2152" 
d="M379 448.5q-99 53.5 -152 149t-53 217.5t53 217.5t152 149.5t231 54q124 0 246.5 -69.5t217.5 -194.5q99 126 222 195t246 69q131 0 230 -54t152 -149.5t53 -217.5t-53 -217.5t-151.5 -149t-230.5 -53.5q-124 0 -247 69t-221 194q-96 -126 -218 -194.5t-246 -68.5
q-132 0 -231 53.5zM811 640.5q91 60.5 161 174.5q-71 114 -161.5 174t-172.5 60q-77 0 -135.5 -28.5t-91 -81.5t-32.5 -124t32.5 -124.5t91 -82t135.5 -28.5q82 0 173 60.5zM1649 608.5q59 28.5 91.5 82t32.5 124.5t-32.5 124t-91.5 81.5t-136 28.5q-83 0 -174.5 -62
t-162.5 -172q72 -112 163 -173.5t174 -61.5q77 0 136 28.5z" />
    <glyph glyph-name="integral" unicode="&#x222b;" horiz-adv-x="1051" 
d="M72 -321q128 0 203.5 30.5t110 98.5t34.5 183v1270q0 97 44 175.5t119 123t165 44.5q64 0 127 -24t117 -70l-124 -147q-59 48 -120 48q-57 0 -96 -40t-39 -117v-1269q0 -162 -65.5 -274t-186.5 -168.5t-289 -56.5v193z" />
    <glyph glyph-name="approxequal" unicode="&#x2248;" horiz-adv-x="1283" 
d="M723 806q-47 22 -75.5 53.5t-62.5 80.5q-27 38 -44.5 58.5t-42.5 34.5t-57 14q-54 0 -84 -54.5t-30 -148.5h-176q0 107 36 188t101.5 126t152.5 45q71 0 120 -23t79 -55.5t64 -82.5q25 -36 42 -55.5t39.5 -33t51.5 -13.5q35 0 62.5 29t42.5 80.5t15 117.5h175
q0 -112 -36.5 -199t-103.5 -135.5t-155 -48.5q-67 0 -114 22zM723 277q-47 22 -75.5 53.5t-62.5 80.5q-27 38 -44.5 58.5t-42.5 34.5t-57 14q-53 0 -83.5 -55t-30.5 -148h-176q0 106 36 187t101.5 125.5t152.5 44.5q71 0 120 -23t79 -54.5t64 -81.5q36 -53 63.5 -77.5
t69.5 -24.5q35 0 62.5 29t42.5 80.5t15 117.5h175q0 -112 -36.5 -199t-103.5 -135.5t-155 -48.5q-67 0 -114 22z" />
    <glyph glyph-name="notequal" unicode="&#x2260;" horiz-adv-x="1283" 
d="M340 410h-155v195h272l165 282h-437v196h556l285 487h163l-286 -487h188v-196h-306l-165 -282h471v-195h-588l-239 -410h-164z" />
    <glyph glyph-name="lessequal" unicode="&#x2264;" horiz-adv-x="1283" 
d="M-3 870l1171 668l87 -150l-906 -518l906 -517l-87 -152zM-6 0h1262v-174h-1262v174z" />
    <glyph glyph-name="greaterequal" unicode="&#x2265;" horiz-adv-x="1283" 
d="M28 353l906 517l-906 518l87 150l1171 -668l-1171 -669zM27 -174v174h1262v-174h-1262z" />
    <glyph glyph-name="lozenge" unicode="&#x25ca;" horiz-adv-x="1344" 
d="M96 785l421 785h310l421 -785l-421 -785h-310zM686 122l336 663l-336 663h-30l-334 -663l334 -663h30z" />
    <glyph glyph-name="uniF8FF" unicode="&#xf8ff;" horiz-adv-x="1948" 
d="M542.5 47.5q-197.5 115.5 -313 313t-115.5 431.5t115.5 431.5t313 313t431.5 115.5t431.5 -115.5t313 -313t115.5 -431.5t-115.5 -431.5t-313 -313t-431.5 -115.5t-431.5 115.5zM1365.5 116q179.5 105 284 284t104.5 392t-104.5 392t-283.5 283.5t-392 104.5t-392 -104.5
t-284 -284t-105 -391.5q0 -213 105 -392t284 -284t392 -105q212 0 391.5 105zM498.5 466q-11.5 11 -11.5 28v596q0 17 11.5 29t27.5 12q17 0 29 -12t12 -29v-596q0 -17 -12 -28t-29 -11q-16 0 -27.5 11zM946 466q-11 11 -11 28v596q0 17 11 29t28 12t28 -12t11 -29v-596
q0 -17 -11 -28t-28 -11t-28 11zM1395 466l-300 299q-10 13 -10 27q0 17 10 27l300 298q11 14 25 14q15 0 28 -13t13 -28q0 -16 -11 -27l-271 -271l271 -271q11 -11 11 -27q0 -15 -13 -27t-28 -12q-16 0 -25 11zM648 764q-11 11 -11 28t11 28t28 11h148q17 0 29 -11t12 -28
t-12 -28t-29 -11h-148q-17 0 -28 11z" />
    <glyph glyph-name="i.loclTRK" horiz-adv-x="595" 
d="M175 1110h245v-1110h-245v1110zM218 1294.5q-37 21.5 -59 58.5t-22 81q0 42 21.5 79t58.5 58.5t81 21.5q43 0 79.5 -22t58.5 -58.5t22 -78.5q0 -44 -22 -81t-58.5 -58.5t-79.5 -21.5t-80 21.5z" />
    <glyph glyph-name="g.ss01" horiz-adv-x="1314" 
d="M399.5 -454q-90.5 27 -157 79.5t-128.5 135.5l177 147q60 -82 134 -130t189 -48q155 0 218 83.5t63 213.5v59h-19q-60 -53 -137.5 -80.5t-183.5 -27.5q-145 0 -252 69.5t-164.5 200t-57.5 307.5q0 178 58 308t166 199.5t255 69.5q100 0 181 -29t135 -80h19l21 87h223
v-1083q0 -248 -131.5 -378t-390.5 -130q-127 0 -217.5 27zM778.5 226.5q66.5 43.5 102.5 127t36 201.5q0 117 -36 200.5t-102.5 127.5t-157.5 44t-158 -43.5t-102.5 -127.5t-35.5 -201q0 -118 35.5 -201.5t102 -127t158.5 -43.5q91 0 157.5 43.5z" />
    <glyph glyph-name="gbreve.ss01" horiz-adv-x="1314" 
d="M399.5 -454q-90.5 27 -157 79.5t-128.5 135.5l177 147q60 -82 134 -130t189 -48q155 0 218 83.5t63 213.5v59h-19q-60 -53 -137.5 -80.5t-183.5 -27.5q-145 0 -252 69.5t-164.5 200t-57.5 307.5q0 178 58 308t166 199.5t255 69.5q100 0 181 -29t135 -80h19l21 87h223
v-1083q0 -248 -131.5 -378t-390.5 -130q-127 0 -217.5 27zM778.5 226.5q66.5 43.5 102.5 127t36 201.5q0 117 -36 200.5t-102.5 127.5t-157.5 44t-158 -43.5t-102.5 -127.5t-35.5 -201q0 -118 35.5 -201.5t102 -127t158.5 -43.5q91 0 157.5 43.5zM399.5 1337
q-86.5 84 -86.5 233h163q0 -93 49 -137t134 -44q87 0 135 45t48 136h164q0 -152 -88.5 -234.5t-258.5 -82.5q-173 0 -259.5 84z" />
    <glyph glyph-name="uni0123.ss01" horiz-adv-x="1314" 
d="M399.5 -454q-90.5 27 -157 79.5t-128.5 135.5l177 147q60 -82 134 -130t189 -48q155 0 218 83.5t63 213.5v59h-19q-60 -53 -137.5 -80.5t-183.5 -27.5q-145 0 -252 69.5t-164.5 200t-57.5 307.5q0 178 58 308t166 199.5t255 69.5q100 0 181 -29t135 -80h19l21 87h223
v-1083q0 -248 -131.5 -378t-390.5 -130q-127 0 -217.5 27zM778.5 226.5q66.5 43.5 102.5 127t36 201.5q0 117 -36 200.5t-102.5 127.5t-157.5 44t-158 -43.5t-102.5 -127.5t-35.5 -201q0 -118 35.5 -201.5t102 -127t158.5 -43.5q91 0 157.5 43.5zM748 1454.5
q34 -17.5 54 -47t20 -63.5q0 -35 -21 -63t-57.5 -44t-79.5 -16q-72 -1 -117.5 24.5t-65.5 67.5t-20 89q0 56 28.5 119t92 116t161.5 74l53 -108q-61 -11 -106.5 -34.5t-69.5 -53.5t-25 -62q38 19 79 19q40 0 74 -17.5z" />
    <glyph glyph-name="gdotaccent.ss01" horiz-adv-x="1314" 
d="M399.5 -454q-90.5 27 -157 79.5t-128.5 135.5l177 147q60 -82 134 -130t189 -48q155 0 218 83.5t63 213.5v59h-19q-60 -53 -137.5 -80.5t-183.5 -27.5q-145 0 -252 69.5t-164.5 200t-57.5 307.5q0 178 58 308t166 199.5t255 69.5q100 0 181 -29t135 -80h19l21 87h223
v-1083q0 -248 -131.5 -378t-390.5 -130q-127 0 -217.5 27zM778.5 226.5q66.5 43.5 102.5 127t36 201.5q0 117 -36 200.5t-102.5 127.5t-157.5 44t-158 -43.5t-102.5 -127.5t-35.5 -201q0 -118 35.5 -201.5t102 -127t158.5 -43.5q91 0 157.5 43.5zM580 1294.5
q-37 21.5 -59 58.5t-22 81q0 42 21.5 79t58.5 58.5t81 21.5q43 0 79.5 -22t58.5 -58.5t22 -78.5q0 -44 -22 -81t-58.5 -58.5t-79.5 -21.5t-80 21.5z" />
    <glyph glyph-name="T_h" horiz-adv-x="2403" 
d="M2225.5 886q28.5 -100 28.5 -234v-652h-244v608q0 103 -13.5 163t-51.5 97q-61 59 -174 59q-128 0 -191 -79q-33 -43 -45 -104.5t-12 -156.5v-587h-245l2 1333h-470v-1333h-265v1333h-499v237h1478l-1 -547h21q49 48 128 78.5t179 30.5q85 0 152.5 -22t115.5 -61
q78 -63 106.5 -163z" />
    <glyph glyph-name="f_f_t" horiz-adv-x="2024" 
d="M1964 6q-28 -10 -80.5 -19t-104.5 -9q-104 0 -179.5 40t-115.5 114t-40 176v606h-362v-914h-242v914h-387v-914h-241v914h-186v196h186v86q0 121 61.5 210.5t166 137.5t229.5 48q83 0 166.5 -23t150.5 -69q61 45 144.5 68.5t183.5 23.5q101 0 203.5 -24t166.5 -60v-398
h247v-196h-247v-574q0 -63 27.5 -110t116.5 -47q38 0 63.5 7.5t31.5 9.5zM840 1194q0 81 28 153q-84 49 -188 49q-111 0 -169 -55.5t-58 -148.5v-82h387v84zM1448 1370q-27 12 -65.5 19t-74.5 7q-115 0 -170.5 -53.5t-55.5 -153.5v-79h366v260z" />
    <glyph glyph-name="f_t" horiz-adv-x="1393" 
d="M970 18q-76 40 -116 114t-40 176v606h-362v-914h-243v914h-183v196h183v84q0 124 58.5 213.5t165.5 137t249 47.5q100 0 203.5 -24t168.5 -60v-398h246v-196h-246v-574q0 -64 27.5 -110.5t116.5 -46.5q37 0 63 7.5t32 9.5l39 -194q-27 -10 -79 -19t-102 -9
q-105 0 -181 40zM818 1110v260q-27 12 -65.5 19t-75.5 7q-115 0 -170 -53.5t-55 -153.5v-79h366z" />
    <glyph glyph-name="t_t" horiz-adv-x="1440" 
d="M1380 6q-35 -11 -84.5 -19.5t-98.5 -8.5q-108 0 -184 42t-115 117t-39 171v606h-398v-574q0 -157 136 -157q45 0 100 17l40 -194q-35 -11 -84.5 -19.5t-98.5 -8.5q-108 0 -184 42t-115 117t-39 171v606h-178v196h183v282l240 174v-456h403v282l240 174v-456h244v-196
h-244v-574q0 -157 136 -157q45 0 100 17z" />
    <glyph glyph-name="zero.lf" horiz-adv-x="1277" 
d="M316.5 100.5q-111.5 123.5 -144.5 296.5t-33 388q0 219 32 391.5t142 295.5t325 123q209 0 320.5 -120.5t147.5 -296.5t36 -394q0 -217 -36 -392t-146 -295t-316 -120q-216 0 -327.5 123.5zM802 285.5q53 82.5 67.5 203.5t14.5 297q0 177 -14.5 297t-68.5 201t-163 81
t-163 -81t-68.5 -201t-14.5 -298t15 -298.5t69.5 -202t165.5 -81.5q107 0 160 82.5z" />
    <glyph glyph-name="one.lf" horiz-adv-x="884" 
d="M671 1570v-1570h-259v1126h-371v198h219q79 0 121 30t42 114v102h248z" />
    <glyph glyph-name="two.lf" horiz-adv-x="1291" 
d="M109 208l481 434q95 85 154.5 153t92.5 141t33 156q0 74 -27 134t-82.5 95.5t-137.5 35.5q-141 0 -208.5 -100.5t-72.5 -249.5l-254 16q0 151 65 280.5t189.5 207.5t295.5 78q153 0 264 -64.5t168.5 -175t57.5 -245.5q0 -110 -44.5 -212t-125 -200t-204.5 -214l-239 -221
v-21h691v-236h-1097v208z" />
    <glyph glyph-name="three.lf" horiz-adv-x="1321" 
d="M369.5 35.5q-129.5 58.5 -207 175t-77.5 281.5l247 13q0 -89 42.5 -154.5t117.5 -100t169 -34.5q85 0 154 30t110 90t41 146q0 102 -59.5 154t-160.5 69q-42 8 -95 11t-126 3v208q75 0 125 4.5t85 17.5q69 20 107 68t38 123q0 68 -31.5 115.5t-86.5 72t-123 24.5
q-77 0 -135.5 -29t-90.5 -82.5t-32 -125.5l-246 16q0 141 67 246t181 160.5t250 55.5q132 0 245.5 -52.5t182 -150.5t68.5 -229q0 -92 -43 -178t-119 -138v-10q116 -42 181.5 -143t65.5 -231q0 -152 -75 -261.5t-202.5 -166t-280.5 -56.5q-157 0 -286.5 58.5z" />
    <glyph glyph-name="four.lf" horiz-adv-x="1332" 
d="M778 370h-738v152l775 1048h223v-965h248v-235h-248v-370h-260v370zM778 605v548h-14l-384 -537l8 -11h390z" />
    <glyph glyph-name="five.lf" horiz-adv-x="1320" 
d="M949.5 991q121.5 -68 194 -191t72.5 -280q0 -156 -73 -280t-201 -193.5t-287 -69.5q-143 0 -262 56t-196 156t-99 229l244 64q10 -77 52 -137t109.5 -93.5t149.5 -33.5q90 0 161.5 39.5t111.5 109.5t40 159q0 87 -40 156t-111 108t-160 39q-94 0 -168.5 -44t-112.5 -122
l-232 71l137 836h861v-239h-659l-50 -341q55 35 120.5 52t133.5 17q143 0 264.5 -68z" />
    <glyph glyph-name="six.lf" horiz-adv-x="1265" 
d="M922 996q128 -70 200 -194t72 -280q0 -157 -72.5 -281t-199.5 -194t-286 -70q-161 0 -289.5 70.5t-201 192t-72.5 267.5q0 86 25.5 178t71.5 164l454 721h297l-317 -505q10 1 30 1q160 0 288 -70zM794.5 257q71.5 39 112 108.5t40.5 156.5t-41 156t-112.5 108t-159.5 39
q-89 0 -160.5 -39.5t-112 -108.5t-40.5 -155q0 -87 40.5 -156.5t112 -108.5t160.5 -39t160.5 39z" />
    <glyph glyph-name="seven.lf" horiz-adv-x="1217" 
d="M858 1321v11h-811v238h1130v-135l-708 -1435h-286z" />
    <glyph glyph-name="eight.lf" horiz-adv-x="1324" 
d="M386 30.5q-128 53.5 -206 160t-78 258.5q0 130 59.5 232t172.5 162v14q-73 55 -112.5 136.5t-39.5 178.5q0 128 67 223.5t177.5 146.5t235.5 51q128 0 238 -52t176 -148t66 -223q0 -96 -40 -178t-112 -135v-14q112 -60 171 -162t59 -232q0 -152 -78 -258.5t-205.5 -160
t-274.5 -53.5q-148 0 -276 53.5zM783 959q53 26 83 73t30 109q0 65 -29 115t-82 78t-122 28q-67 0 -120 -27t-83 -76.5t-30 -113.5t29.5 -112t82.5 -74t121 -26q67 0 120 26zM816.5 241q67.5 33 105.5 94t38 142q0 80 -37.5 142.5t-105.5 97t-155 34.5t-155 -34.5
t-105.5 -97t-37.5 -142.5q0 -81 38 -142t105.5 -94t154.5 -33t154.5 33z" />
    <glyph glyph-name="nine.lf" horiz-adv-x="1266" 
d="M919.5 1522.5q128.5 -70.5 201 -192t72.5 -267.5q0 -86 -25.5 -178t-71.5 -164l-454 -721h-297l317 505q-10 -1 -30 -1q-160 0 -288 70t-200 194t-72 280q0 157 72.5 281t199.5 194t286 70q161 0 289.5 -70.5zM792.5 784.5q71.5 39.5 112 108.5t40.5 155
q0 87 -40.5 156.5t-112 108.5t-160.5 39t-160.5 -39t-112 -108.5t-40.5 -156.5t41 -156t112.5 -108t159.5 -39q89 0 160.5 39.5z" />
    <glyph glyph-name="caroncomb.alt" 
d="M-191 1556.5q46 -35.5 66 -90.5t20 -117q0 -74 -29.5 -152t-93 -142.5t-160.5 -93.5l-52 121q62 17 107.5 53t69 81.5t23.5 93.5v8q-36 -22 -77 -22q-40 0 -74 20.5t-54 55.5t-20 75q0 41 20.5 74.5t55.5 52t79 18.5q73 0 119 -35.5z" />
    <glyph glyph-name="uni0308.case" 
d="M-783 1251q-34 20 -54 54.5t-20 75.5q0 40 20 73.5t54 53.5t75 20q40 0 74 -20t54 -53.5t20 -73.5q0 -41 -20 -75.5t-54 -54.5t-74 -20q-41 0 -75 20zM-351 1251q-34 20 -54 54.5t-20 75.5q0 40 20 73.5t54 53.5t75 20q39 0 73.5 -20t54.5 -53.5t20 -73.5
q0 -41 -20 -75.5t-54.5 -54.5t-73.5 -20q-41 0 -75 20z" />
    <glyph glyph-name="uni0307.case" 
d="M-352 1251q-34 20 -54 54.5t-20 75.5q0 40 20 73.5t54 53.5t75 20q40 0 74 -20t54 -53.5t20 -73.5q0 -41 -20 -75.5t-54 -54.5t-74 -20q-41 0 -75 20z" />
    <glyph glyph-name="uni0337.case" 
d="M-723 770l667 527v-254l-667 -529v256z" />
    <glyph glyph-name="uni0338.case" 
d="M-1109 38l973 1589l152 -93l-971 -1590z" />
    <glyph glyph-name="basegreaterlessthan" horiz-adv-x="1261" 
d="M0 0h1261v-174h-1261v174z" />
    <glyph glyph-name="_global" horiz-adv-x="1526" 
 />
    </font>
</defs>
</svg>
