<?xml version="1.0" standalone="no"?>
<!DOCTYPE svg PUBLIC "-//W3C//DTD SVG 1.1//EN" "http://www.w3.org/Graphics/SVG/1.1/DTD/svg11.dtd" >
<svg xmlns="http://www.w3.org/2000/svg" xmlns:xlink="http://www.w3.org/1999/xlink" version="1.1">
<metadata>
Created by FontForge 20170731 at Tue Feb 19 21:55:39 2019
 By Aleksey,,,
Copyright (c) 2019 Hanken Grotesk by Alfredo Marco Pradil. All rights reserved.
</metadata>
<defs>
<font id="HankenGrotesk-Regular" horiz-adv-x="1199" >
  <font-face 
    font-family="Hanken Grotesk"
    font-weight="400"
    font-stretch="normal"
    units-per-em="2048"
    panose-1="0 0 5 0 0 0 0 0 0 0"
    ascent="1570"
    descent="-478"
    x-height="1110"
    cap-height="1570"
    bbox="-1620 -610 2924 2521"
    underline-thickness="91"
    underline-position="-363"
    unicode-range="U+0020-FB02"
  />
<missing-glyph horiz-adv-x="1292" 
d="M185 1067h921v-1067h-921v1067zM1039 69v929h-785v-929h785z" />
    <glyph glyph-name="fi" unicode="fi" horiz-adv-x="1122" 
d="M959 0h-137v985h-445v-985h-145v985h-195v125h195v93q0 127 50.5 213.5t138 128.5t199.5 42q102 0 183 -26.5t154 -79.5l-70 -103q-112 89 -261 89q-123 0 -186 -65t-63 -202v-90h582v-1110z" />
    <glyph glyph-name="fl" unicode="fl" horiz-adv-x="1220" 
d="M862 47.5q-51 63.5 -51 186.5v1171q-89 62 -206 62q-135 0 -193 -89q-22 -34 -32.5 -85.5t-10.5 -143.5v-39h247v-125h-247v-985h-147v985h-185v125h185v42q0 117 21.5 189.5t63.5 121.5q50 62 125 93t166 31q103 0 180 -23.5t180 -84.5v-1212q0 -52 8 -85t34 -53t77 -20
q41 0 82 10l22 -112q-69 -23 -154 -23q-114 0 -165 63.5z" />
    <glyph glyph-name="f_f" unicode="ff" horiz-adv-x="1312" 
d="M232 985h-195v125h195v104q0 112 55 197t150.5 130.5t212.5 45.5q149 0 268 -72q90 72 231 72q84 0 171 -42l-50 -121q-59 31 -108 31q-191 0 -191 -186v-159h322v-125h-322v-985h-152v985h-442v-985h-145v985zM820 1110v172q0 80 34 136q-86 49 -198 49
q-87 0 -150 -31.5t-96 -89.5t-33 -134v-102h443z" />
    <glyph glyph-name="f_f_i" unicode="ffi" horiz-adv-x="1719" 
d="M232 985h-195v125h195v104q0 112 55 197t150.5 130.5t212.5 45.5q166 0 290 -86q52 43 121 64.5t148 21.5q102 0 183 -26.5t154 -79.5l-70 -103q-112 89 -260 89q-123 0 -186.5 -65t-63.5 -202v-90h590v-1110h-145v985h-445v-985h-147v985h-442v-985h-145v985zM819 1110
v93q0 126 50 206q-92 58 -213 58q-87 0 -150 -31.5t-96 -89.5t-33 -134v-102h442z" />
    <glyph glyph-name="f_f_l" unicode="ffl" horiz-adv-x="1831" 
d="M1793 7q-70 -23 -158 -23q-121 0 -172.5 63t-51.5 187v1180q-87 53 -195 53q-123 0 -186.5 -65t-63.5 -202v-90h253v-125h-253v-985h-147v985h-442v-985h-145v985h-195v125h195v104q0 112 55 197t150.5 130.5t212.5 45.5q81 0 156.5 -21.5t136.5 -64.5q103 86 266 86
q102 0 184 -27t163 -83v-1210q0 -52 8 -85t35.5 -53t82.5 -20q46 0 89 10zM819 1110v93q0 118 49 207q-93 57 -212 57q-87 0 -150 -31.5t-96 -89.5t-33 -134v-102h442z" />
    <glyph glyph-name="h_d_c_o.liga" unicode="hdco" horiz-adv-x="2022" 
d="M579.5 47.5q-197.5 115.5 -313 313t-115.5 431.5t115.5 431.5t313 313t431.5 115.5t431.5 -115.5t313 -313t115.5 -431.5t-115.5 -431.5t-313 -313t-431.5 -115.5t-431.5 115.5zM1402.5 116q179.5 105 284 284t104.5 392t-104.5 392t-283.5 283.5t-392 104.5t-392 -104.5
t-284 -284t-105 -391.5q0 -213 105 -392t284 -284t392 -105q212 0 391.5 105zM535.5 466q-11.5 11 -11.5 28v596q0 17 11.5 29t27.5 12q17 0 29 -12t12 -29v-596q0 -17 -12 -28t-29 -11q-16 0 -27.5 11zM983 466q-11 11 -11 28v596q0 17 11 29t28 12t28 -12t11 -29v-596
q0 -17 -11 -28t-28 -11t-28 11zM1425 469l-289 289q-13 13 -13 32q0 18 13 31l289 289q13 14 30 14q16 0 27 -11t11 -28q0 -16 -13 -29l-267 -266l267 -267q13 -13 13 -29q0 -17 -11 -28q-13 -11 -27 -11q-16 0 -30 14zM685 764q-11 11 -11 28t11 28t28 11h148q17 0 29 -11
t12 -28t-12 -28t-29 -11h-148q-17 0 -28 11z" />
    <glyph glyph-name="hyphen_hyphen.liga" unicode="&#x2d;&#x2d;" horiz-adv-x="1138" 
d="M0 749h1138v-114h-1138v114z" />
    <glyph glyph-name="hyphen_hyphen_hyphen.liga" unicode="&#x2d;&#x2d;&#x2d;" horiz-adv-x="2276" 
d="M0 749h2276v-114h-2276v114z" />
    <glyph glyph-name="hyphen_greater.liga" unicode="&#x2d;&#x3e;" horiz-adv-x="2223" 
d="M1401 290v344h-1233v113h1233v341l678 -399z" />
    <glyph glyph-name="parenleft_c_parenright.liga" unicode="&#x28;c&#x29;" horiz-adv-x="1927" 
d="M556.5 86.5q-186.5 108.5 -296 294t-109.5 404.5t109.5 404.5t296 294t407.5 108.5t407.5 -108.5t296 -294t109.5 -404.5t-109.5 -404.5t-296 -294t-407.5 -108.5t-407.5 108.5zM1322.5 171q164.5 96 261 259t96.5 355t-96.5 355.5t-261 259.5t-358.5 96q-195 0 -360 -96
t-262 -259t-97 -356t96.5 -356t262 -258.5t360.5 -95.5q194 0 358.5 96zM745.5 333q-102.5 68 -156.5 186t-54 264q0 137 51 256.5t153 193t246 73.5q139 0 244.5 -71.5t160.5 -204.5l-116 -46q-39 98 -115 154t-174 56q-106 0 -179.5 -57t-109.5 -150.5t-36 -203.5
q0 -111 36.5 -203.5t110 -148t180.5 -55.5q101 0 174.5 55t105.5 152l112 -43q-46 -131 -149.5 -203t-242.5 -72t-241.5 68z" />
    <glyph glyph-name="parenleft_p_parenright.liga" unicode="&#x28;p&#x29;" horiz-adv-x="1927" 
d="M556.5 86.5q-186.5 108.5 -296 294t-109.5 404.5t109.5 404.5t296 294t407.5 108.5t407.5 -108.5t296 -294t109.5 -404.5t-109.5 -404.5t-296 -294t-407.5 -108.5t-407.5 108.5zM1322.5 171q164.5 96 261 259t96.5 355t-96.5 355.5t-261 259.5t-358.5 96q-195 0 -360 -96
t-262 -259t-97 -356t96.5 -356t262 -258.5t360.5 -95.5q194 0 358.5 96zM784 1183l551 -396l-551 -398v794z" />
    <glyph glyph-name="parenleft_r_parenright.liga" unicode="&#x28;r&#x29;" horiz-adv-x="1927" 
d="M556.5 86.5q-186.5 108.5 -296 294t-109.5 404.5t109.5 404.5t296 294t407.5 108.5t407.5 -108.5t296 -294t109.5 -404.5t-109.5 -404.5t-296 -294t-407.5 -108.5t-407.5 108.5zM1322.5 171q164.5 96 261 259t96.5 355t-96.5 355.5t-261 259.5t-358.5 96q-195 0 -360 -96
t-262 -259t-97 -356t96.5 -356t262 -258.5t360.5 -95.5q194 0 358.5 96zM709 1270h273q98 0 171.5 -33t113.5 -94.5t40 -144.5q0 -94 -53 -159.5t-149 -89.5l268 -449h-116l-252 438q-28 -3 -59 -3h-135v-435h-102v970zM990 819q104 1 159.5 47t55.5 130q0 88 -58 135.5
t-163 47.5h-173v-360h179z" />
    <glyph glyph-name="less_hyphen.liga" unicode="&#x3c;&#x2d;" horiz-adv-x="2223" 
d="M2055 635h-1233v-343l-678 399l678 398v-340h1233v-114z" />
    <glyph glyph-name=".notdef" horiz-adv-x="1292" 
d="M185 1067h921v-1067h-921v1067zM1039 69v929h-785v-929h785z" />
    <glyph glyph-name=".null" horiz-adv-x="0" 
 />
    <glyph glyph-name="nonmarkingreturn" horiz-adv-x="682" 
 />
    <glyph glyph-name="space" unicode=" " horiz-adv-x="582" 
 />
    <glyph glyph-name="exclam" unicode="!" horiz-adv-x="703" 
d="M279 1570h146l-15 -1128h-115zM272.5 10.5q-33.5 33.5 -33.5 79.5t33 78t80 32q45 0 78 -32.5t33 -77.5q0 -46 -33 -79.5t-78 -33.5q-46 0 -79.5 33.5z" />
    <glyph glyph-name="quotedbl" unicode="&#x22;" horiz-adv-x="961" 
d="M241 1570h125v-639h-125v639zM594 1570h126v-639h-126v639z" />
    <glyph glyph-name="numbersign" unicode="#" horiz-adv-x="1585" 
d="M408 477h-277v106h300l89 431h-295v112h317l99 444h118l-97 -448h394l95 448h119l-97 -448h281v-108h-304l-91 -431h301v-106h-325l-98 -477h-119l101 477h-394l-99 -477h-119zM944 583l87 431h-394l-87 -431h394z" />
    <glyph glyph-name="dollar" unicode="$" horiz-adv-x="1277" 
d="M1096.5 212q-55.5 -98 -156 -156.5t-231.5 -68.5v-278h-69v276q-135 3 -246.5 54.5t-185 147.5t-96.5 229l151 37q22 -156 122.5 -241t254.5 -90v644l-22 9q-138 53 -221 97t-140.5 121t-57.5 194q0 119 58.5 210t159.5 140t223 50v256h69v-259q251 -26 379 -249
l-126 -79q-91 162 -253 189v-555q141 -52 230 -100.5t151 -135t62 -220.5q0 -124 -55.5 -222zM389.5 1070q37.5 -51 98 -85t152.5 -69v535h-2q-81 0 -146 -33.5t-102.5 -92.5t-37.5 -133q0 -71 37.5 -122zM864 175.5q66 40.5 101 104.5t35 142q0 83 -38 142t-100 98.5
t-153 76.5v-614q89 10 155 50.5z" />
    <glyph glyph-name="percent" unicode="%" horiz-adv-x="1703" 
d="M292.5 930q-67.5 50 -101 131t-33.5 173q0 91 33 172t98.5 131t158.5 50q85 0 152.5 -46t105.5 -127t38 -182t-37 -181t-103 -125.5t-149 -45.5q-95 0 -162.5 50zM1238 1570h107l-882 -1570h-107zM551 1013q42 32 66 89.5t24 129.5q0 69 -22.5 127t-66 92t-104.5 34
q-63 0 -105 -35.5t-62 -93t-20 -122.5q0 -66 20.5 -123.5t64 -93.5t109.5 -36q54 0 96 32zM1094.5 34q-66.5 50 -100.5 130.5t-34 172.5q0 91 33 172t98.5 131t157.5 50q85 0 152.5 -46t105.5 -126.5t38 -181.5t-37 -181.5t-103 -125.5t-149 -45q-95 0 -161.5 50zM1353 117
q43 32 67 89t24 130q0 70 -22.5 127.5t-66.5 91.5t-106 34q-63 0 -105 -36t-62 -93t-20 -123t21 -123t64.5 -93t108.5 -36q54 0 97 32z" />
    <glyph glyph-name="ampersand" unicode="&#x26;" horiz-adv-x="1597" 
d="M1331 -73l-203 236q-97 -90 -221 -135.5t-268 -45.5q-143 0 -252.5 44.5t-170 130.5t-60.5 205q0 114 53 200t135.5 146.5t202.5 123.5q-62 70 -101.5 119.5t-75.5 124.5t-36 151q0 105 54.5 186.5t147 126.5t203.5 45q107 0 194.5 -47.5t137.5 -130t50 -183.5
q0 -97 -48.5 -173t-125 -132.5t-188.5 -116.5l355 -415h23v-4q105 177 121 433l141 -15q-31 -330 -180 -535l215 -247zM502.5 1122.5q26.5 -56.5 60 -102t80.5 -101.5q16 -18 22 -26q104 53 170.5 98t108.5 103.5t42 132.5q0 66 -31 121.5t-87 87.5t-129 32
q-77 0 -136.5 -30t-93 -83.5t-33.5 -122.5q0 -53 26.5 -109.5zM863 139q102 42 181 122l-407 475q-107 -57 -178 -108t-115.5 -118t-44.5 -151q0 -82 43.5 -141t120.5 -90t178 -31q120 0 222 42z" />
    <glyph glyph-name="quotesingle" unicode="'" horiz-adv-x="608" 
d="M241 1570h125v-639h-125v639z" />
    <glyph glyph-name="parenleft" unicode="(" horiz-adv-x="639" 
d="M282 166q-59 146 -90.5 310t-31.5 308q0 255 66.5 479t192.5 374h137q-141 -172 -209.5 -394.5t-68.5 -461.5q0 -243 71 -463.5t205 -387.5h-134q-79 90 -138 236z" />
    <glyph glyph-name="parenright" unicode=")" horiz-adv-x="639" 
d="M85 -70q134 167 205 387.5t71 463.5q0 239 -68.5 461.5t-209.5 394.5h137q126 -150 192.5 -374t66.5 -479q0 -144 -31.5 -308t-90.5 -310t-138 -236h-134z" />
    <glyph glyph-name="asterisk" unicode="*" horiz-adv-x="1041" 
d="M258 1011l193 215l-277 40l51 150l252 -115l-36 269h159l-39 -269l253 115l50 -150l-277 -40l195 -215l-131 -89l-132 266l-133 -266z" />
    <glyph glyph-name="plus" unicode="+" horiz-adv-x="1275" 
d="M581 639h-511v113h511v512h114v-512h510v-113h-510v-513h-114v513z" />
    <glyph glyph-name="comma" unicode="," horiz-adv-x="727" 
d="M468 141.5q42 -58.5 42 -144.5q0 -67 -25 -140.5t-79 -135.5t-134 -92l-36 80q83 39 127 108.5t44 146.5q0 20 -3 40q-32 -27 -75 -27q-46 0 -77.5 29t-31.5 79q0 51 34 83t87 32q85 0 127 -58.5z" />
    <glyph glyph-name="hyphen" unicode="-" horiz-adv-x="980" 
d="M190 749h600v-114h-600v114z" />
    <glyph glyph-name="period" unicode="." horiz-adv-x="708" 
d="M276.5 10.5q-33.5 33.5 -33.5 79.5t33 78t80 32q45 0 77 -32t32 -78q0 -47 -32 -80t-77 -33q-46 0 -79.5 33.5z" />
    <glyph glyph-name="slash" unicode="/" horiz-adv-x="985" 
d="M824 1637h140l-804 -2045h-140z" />
    <glyph glyph-name="zero" unicode="0" horiz-adv-x="1275" 
d="M343 104.5q-104 120.5 -136.5 293t-32.5 387.5q0 217 31.5 390t133.5 293.5t298 120.5q271 0 370 -228.5t99 -577.5q0 -345 -97.5 -572t-363.5 -227q-198 0 -302 120.5zM840.5 212.5q67.5 97.5 88 240.5t20.5 334q0 193 -20.5 334.5t-89 237t-202.5 95.5t-203 -95.5
t-89.5 -237.5t-20.5 -336q0 -192 21 -334.5t91 -239t206 -96.5q131 0 198.5 97.5z" />
    <glyph glyph-name="one" unicode="1" horiz-adv-x="1275" 
d="M824 1570v-1570h-152v1199h-394v118h267q71 0 102.5 27t31.5 90v136h145z" />
    <glyph glyph-name="two" unicode="2" horiz-adv-x="1275" 
d="M99 138l495 417q121 101 196.5 184t117 174.5t41.5 198.5q0 98 -37.5 174t-110.5 119t-176 43q-115 0 -193 -52t-117 -143t-41 -210l-149 8q0 154 60 275.5t175 191t274 69.5q145 0 250.5 -61t160.5 -167t55 -241q0 -118 -44 -223.5t-133.5 -210.5t-233.5 -226l-357 -299
v-20h850v-139h-1083v138z" />
    <glyph glyph-name="three" unicode="3" horiz-adv-x="1275" 
d="M342 40.5q-124 56.5 -194.5 165.5t-70.5 262l145 7q0 -108 50.5 -187.5t142.5 -121.5t212 -42q114 0 204.5 40t142.5 115t52 178q0 141 -93 211.5t-237 88.5q-69 8 -170 8v125q111 0 170 14q111 21 178.5 84.5t67.5 177.5q0 84 -41.5 147t-114.5 97t-164 34
q-97 0 -171 -36.5t-115 -104t-41 -157.5l-145 8q0 131 61.5 229t168.5 151t241 53q128 0 235 -50.5t170 -142.5t63 -211q0 -131 -73 -216t-178 -124v-8q89 -22 164.5 -71.5t122 -130t46.5 -188.5q0 -142 -72 -246.5t-196 -159.5t-278 -55q-159 0 -283 56.5z" />
    <glyph glyph-name="four" unicode="4" horiz-adv-x="1275" 
d="M827 375h-785v97l798 1098h140v-1056h254v-139h-254v-375h-153v375zM827 514v817h-10l-579 -812l5 -5h584z" />
    <glyph glyph-name="five" unicode="5" horiz-adv-x="1275" 
d="M922 972.5q116 -66.5 184 -185.5t68 -269q0 -152 -70 -274t-193 -191t-274 -69q-135 0 -246.5 54t-185.5 151.5t-99 225.5l144 37q18 -98 71.5 -171.5t134.5 -114t179 -40.5q111 0 200 51t140 141t51 201q0 110 -48 198t-133.5 137.5t-193.5 49.5t-198.5 -51.5
t-150.5 -145.5l-148 48l136 815h806v-140h-688l-82 -524q70 66 158 99.5t183 33.5q139 0 255 -66.5z" />
    <glyph glyph-name="six" unicode="6" horiz-adv-x="1275" 
d="M908 955q121 -68 190.5 -187.5t69.5 -265.5q0 -145 -69.5 -263.5t-190 -186.5t-267.5 -68q-149 0 -270.5 68t-191 184.5t-69.5 256.5q0 81 23 161t64 149l464 767h173l-344 -572q72 25 149 25q148 0 269 -68zM833.5 176q87.5 50 138 136.5t50.5 192.5q0 104 -50.5 190.5
t-138.5 136t-194 49.5t-194 -49.5t-139 -136.5t-51 -193q0 -105 50.5 -191t138.5 -135.5t195 -49.5t194.5 50z" />
    <glyph glyph-name="seven" unicode="7" horiz-adv-x="1275" 
d="M1011 1418v12h-936v140h1123v-92l-771 -1478h-168z" />
    <glyph glyph-name="eight" unicode="8" horiz-adv-x="1275" 
d="M380.5 35.5q-120.5 51.5 -194.5 154.5t-74 250q0 146 79 254t216 155v5q-95 46 -149.5 135.5t-54.5 205.5q0 120 62 209t162.5 136t211.5 47q120 0 220 -49.5t158.5 -140.5t58.5 -210q0 -113 -55 -201t-151 -132v-5q136 -48 214 -156t78 -253q0 -147 -73.5 -250
t-193 -154.5t-257.5 -51.5q-137 0 -257.5 51.5zM792 942.5q66 33.5 103 94t37 137.5q0 82 -36.5 144.5t-102.5 97.5t-152 35q-79 0 -145.5 -32.5t-106 -93t-39.5 -142.5t36.5 -144t103 -96t152.5 -34q84 0 150 33.5zM826.5 158q84.5 39 133.5 114t49 178q0 98 -46.5 174
t-131 117.5t-193.5 41.5q-110 0 -194.5 -41.5t-131 -117.5t-46.5 -174q0 -103 50 -178t134.5 -114t187.5 -39q104 0 188.5 39z" />
    <glyph glyph-name="nine" unicode="9" horiz-adv-x="1275" 
d="M904.5 1518q121.5 -68 191 -184.5t69.5 -256.5q0 -81 -23 -161t-64 -149l-464 -767h-173l344 572q-72 -25 -149 -25q-148 0 -269 68t-190.5 187.5t-69.5 265.5q0 145 69.5 263.5t190 186.5t267.5 68q149 0 270.5 -68zM830 738.5q88 49.5 139 136.5t51 193
q0 105 -50.5 191t-138.5 135.5t-195 49.5t-194.5 -50t-138 -136.5t-50.5 -192.5q0 -104 50.5 -190.5t138.5 -136t194 -49.5t194 49.5z" />
    <glyph glyph-name="colon" unicode=":" horiz-adv-x="699" 
d="M270 893.5q-33 32.5 -33 78.5t33 78.5t80 32.5q46 0 78 -32.5t32 -78.5t-32 -78.5t-78 -32.5q-47 0 -80 32.5zM270.5 10.5q-33.5 33.5 -33.5 79.5t33 78t80 32q46 0 78 -32t32 -78q0 -47 -32 -80t-78 -33t-79.5 33.5z" />
    <glyph glyph-name="semicolon" unicode=";" horiz-adv-x="713" 
d="M260.5 893.5q-32.5 32.5 -32.5 78.5t32 78.5t79 32.5q45 0 78 -32.5t33 -78.5t-33 -78.5t-78 -32.5q-46 0 -78.5 32.5zM476 141q42 -59 42 -144q0 -67 -25.5 -140.5t-79.5 -135.5t-134 -92l-35 80q82 39 125.5 108.5t43.5 146.5q0 19 -3 39q-31 -26 -74 -26
q-47 0 -77.5 29t-30.5 79q0 51 34 83t87 32q85 0 127 -59z" />
    <glyph glyph-name="less" unicode="&#x3c;" horiz-adv-x="1275" 
d="M48 681l1099 626l56 -97l-925 -529l925 -529l-56 -99z" />
    <glyph glyph-name="equal" unicode="=" horiz-adv-x="1275" 
d="M201 1028h873v-127h-873v127zM201 592h873v-127h-873v127z" />
    <glyph glyph-name="greater" unicode="&#x3e;" horiz-adv-x="1275" 
d="M72 152l925 529l-925 529l56 97l1099 -626l-1099 -628z" />
    <glyph glyph-name="question" unicode="?" horiz-adv-x="958" 
d="M297 588q0 89 28.5 148.5t70.5 96t110 80.5q63 42 99.5 73t61.5 80t25 120q0 135 -85.5 207t-238.5 72q-112 0 -204 -48l-42 123q55 23 118 35t126 12q137 0 240 -47t160 -137.5t57 -218.5q0 -94 -30.5 -157.5t-73 -101t-114.5 -84.5q-62 -40 -97.5 -69.5t-59.5 -74.5
t-24 -110v-150h-127v151zM281.5 10.5q-33.5 33.5 -33.5 79.5t33 78t80 32q46 0 77.5 -32t31.5 -78q0 -47 -31.5 -80t-77.5 -33t-79.5 33.5z" />
    <glyph glyph-name="at" unicode="@" horiz-adv-x="2326" 
d="M658 -273q-222 120 -349.5 339.5t-127.5 508.5t127.5 522.5t354 366.5t513.5 133q279 0 500.5 -125t346 -347.5t124.5 -503.5q0 -189 -58.5 -347.5t-173 -253t-274.5 -94.5q-113 0 -173 65t-62 187q-1 13 -1 41q0 48 6 106h-9q-65 -122 -167 -195t-235 -73
q-107 0 -186.5 47t-123 138t-43.5 219q0 168 70.5 332.5t200.5 270t299 105.5q122 0 195 -63t91 -182h7l41 186h103l-34 -159q-55 -258 -85.5 -418t-38.5 -266q-2 -18 -2 -51q0 -190 157 -190q125 0 213.5 80.5t134 216t45.5 298.5q0 253 -109 453t-306 312.5t-451 112.5
q-261 0 -464.5 -120t-316.5 -330.5t-113 -473.5q0 -262 114 -459.5t312 -304t445 -106.5q81 0 153.5 12.5t148.5 40.5l33 -94q-88 -30 -168 -43.5t-167 -13.5q-275 0 -497 120zM1246 253.5q106 93.5 162.5 236t56.5 283.5q0 147 -64 219t-182 72q-141 0 -247 -90.5
t-163 -230.5t-57 -284q0 -150 64 -224.5t184 -74.5q140 0 246 93.5z" />
    <glyph glyph-name="A" unicode="A" horiz-adv-x="1461" 
d="M1084 377h-704l-129 -377h-167l557 1570h179l557 -1570h-165zM1038 513l-300 882h-9l-302 -882h611z" />
    <glyph glyph-name="B" unicode="B" horiz-adv-x="1430" 
d="M253 1570h464q240 0 361 -91q63 -47 97.5 -120t34.5 -173q0 -132 -60.5 -222t-164.5 -128v-9q140 -29 216 -129t76 -258q0 -99 -32 -182t-98 -141q-68 -62 -164.5 -89.5t-251.5 -27.5h-478v1570zM708 884q90 0 150 14.5t103 46.5q45 35 71 89t26 127q0 66 -21 117.5
t-61 85.5q-80 69 -257 69h-313v-549h302zM697 137q126 0 207.5 19.5t140.5 76.5q79 76 79 219q0 94 -34 158t-94 98q-40 22 -96 30.5t-141 8.5h-353v-610h291z" />
    <glyph glyph-name="C" unicode="C" horiz-adv-x="1633" 
d="M481 80.5q-159 96.5 -243 277.5t-84 430t85 429t246 275t385 95q243 0 403.5 -108.5t239.5 -319.5l-144 -55q-124 347 -499 347q-177 0 -304 -78.5t-193.5 -227.5t-66.5 -357q0 -200 62.5 -350.5t186.5 -234.5t305 -84q188 0 317 91.5t196 266.5l148 -46
q-82 -219 -249 -333t-412 -114q-220 0 -379 96.5z" />
    <glyph glyph-name="D" unicode="D" horiz-adv-x="1626" 
d="M253 1570h343q168 0 287 -19.5t203 -58.5t155 -100q116 -101 176 -257.5t60 -360.5q0 -197 -58.5 -346t-172.5 -249q-76 -66 -165.5 -105t-207 -56.5t-279.5 -17.5h-341v1570zM580 137q151 0 255.5 17.5t176 51.5t131.5 88q90 82 136 204.5t46 280.5q0 331 -184 501
q-92 85 -216.5 119t-330.5 34h-188v-1296h174z" />
    <glyph glyph-name="E" unicode="E" horiz-adv-x="1394" 
d="M253 1570h980v-137h-827v-577h740v-135h-740v-584h872v-137h-1025v1570z" />
    <glyph glyph-name="F" unicode="F" horiz-adv-x="1348" 
d="M253 1570h1003v-137h-850v-577h739v-135h-739v-721h-153v1570z" />
    <glyph glyph-name="G" unicode="G" horiz-adv-x="1719" 
d="M1524 808v-808h-139v240h-13q-67 -119 -197 -187.5t-314 -68.5q-219 0 -378.5 96.5t-244 278t-84.5 431.5q0 248 84.5 427.5t245.5 274.5t385 95q243 0 404 -108.5t239 -319.5l-143 -55q-62 173 -186 260t-314 87q-178 0 -304.5 -78.5t-192.5 -227t-66 -355.5
q0 -200 64 -351t193 -235.5t318 -84.5q252 0 377 147t127 407h-426v135h565z" />
    <glyph glyph-name="H" unicode="H" horiz-adv-x="1645" 
d="M253 1570h153v-712h834v712h152v-1570h-152v721h-834v-721h-153v1570z" />
    <glyph glyph-name="I" unicode="I" horiz-adv-x="659" 
d="M253 1570h153v-1570h-153v1570z" />
    <glyph glyph-name="J" unicode="J" horiz-adv-x="1311" 
d="M313 51q-102 56 -158 158t-63 243l152 20q5 -110 50.5 -189.5t124.5 -120.5q72 -43 174 -43q170 0 261 103q41 51 60.5 134t19.5 238v839h-639v137h792v-976q0 -178 -27 -285.5t-92 -181.5q-65 -71 -157.5 -107t-217.5 -36q-169 0 -280 67z" />
    <glyph glyph-name="K" unicode="K" horiz-adv-x="1540" 
d="M1457 0h-181l-530 860h-13l-327 -334v-526h-153v1570h153v-836h13l804 836h205l-580 -592z" />
    <glyph glyph-name="L" unicode="L" 
d="M253 1570h153v-1433h716v-137h-869v1570z" />
    <glyph glyph-name="M" unicode="M" horiz-adv-x="1947" 
d="M253 1570h258l460 -1167h6l459 1167h258v-1570h-153v1418h-13l-467 -1181h-175l-467 1181h-13v-1418h-153v1570z" />
    <glyph glyph-name="N" unicode="N" horiz-adv-x="1645" 
d="M253 1570h229l744 -1375h14v1375h152v-1570h-231l-742 1377h-13v-1377h-153v1570z" />
    <glyph glyph-name="O" unicode="O" horiz-adv-x="1733" 
d="M478 86q-161 102 -244 283.5t-83 415.5t83 415.5t244 284t387 102.5q227 0 389 -102.5t245.5 -284t83.5 -415.5t-83.5 -415.5t-245.5 -283.5t-389 -102q-226 0 -387 102zM1173 204q127 85 192 235.5t65 345.5t-65 345.5t-192 235.5t-308 85q-179 0 -305.5 -85
t-191.5 -236t-65 -345t65 -345t191.5 -236t305.5 -85q181 0 308 85z" />
    <glyph glyph-name="P" unicode="P" horiz-adv-x="1328" 
d="M253 1570h353q138 0 229.5 -13.5t149 -38.5t102.5 -65q126 -114 126 -324q0 -100 -29 -180t-85 -135q-45 -45 -106 -72t-154.5 -40.5t-232.5 -13.5h-200v-688h-153v1570zM582 823q122 0 198.5 9t125.5 30.5t84 60.5q71 77 71 208q0 134 -77 214q-35 33 -82 51.5
t-122.5 27.5t-197.5 9h-176v-610h176z" />
    <glyph glyph-name="Q" unicode="Q" horiz-adv-x="1745" 
d="M1525.5 435.5q-56.5 -157.5 -165.5 -264.5l169 -164l-94 -99l-182 178q-165 -102 -388 -102q-226 0 -387.5 102t-244.5 283.5t-83 415.5t83 415.5t244.5 284t387.5 102.5q227 0 388.5 -102.5t245 -284t83.5 -415.5q0 -192 -56.5 -349.5zM1148 190l-296 290l91 96
l312 -303q86 90 130.5 221t44.5 291q0 194 -65 345t-192.5 236t-307.5 85q-179 0 -306 -85t-191.5 -236t-64.5 -345t64.5 -345t191.5 -236t306 -85q161 0 283 71z" />
    <glyph glyph-name="R" unicode="R" horiz-adv-x="1418" 
d="M1142 0l-421 691q-52 -3 -115 -3h-200v-688h-153v1570h353q138 0 229.5 -13.5t149 -38.5t102.5 -65q126 -114 126 -324q0 -100 -29 -180t-85 -135q-40 -39 -91 -65t-123 -40v-16l438 -693h-181zM780.5 832q76.5 9 125.5 30.5t84 60.5q71 77 71 208q0 134 -77 214
q-35 33 -82 51.5t-122.5 27.5t-197.5 9h-176v-610h176q122 0 198.5 9z" />
    <glyph glyph-name="S" unicode="S" horiz-adv-x="1277" 
d="M402.5 35.5q-115.5 50.5 -191.5 147.5t-99 233l151 37q23 -159 127.5 -245t264.5 -86q104 0 182.5 39t120.5 107t42 154q0 97 -51 161t-126 103t-204 88q-139 53 -222 97t-140.5 121t-57.5 195q0 120 59 211t160 140t224 49q301 0 446 -252l-126 -79q-56 98 -136 146.5
t-188 48.5q-81 0 -146 -33.5t-102.5 -92.5t-37.5 -133q0 -80 45.5 -133.5t113.5 -87t187 -77.5q147 -54 237 -102t153.5 -135t63.5 -223q0 -132 -62.5 -234t-175 -158.5t-257.5 -56.5q-139 0 -254.5 50.5z" />
    <glyph glyph-name="T" unicode="T" horiz-adv-x="1401" 
d="M625 1433h-549v137h1248v-137h-546v-1433h-153v1433z" />
    <glyph glyph-name="U" unicode="U" horiz-adv-x="1571" 
d="M537 23.5q-109 39.5 -181 114.5q-67 71 -100.5 171.5t-33.5 251.5v1009h153v-1004q0 -110 21 -187t71 -134q51 -60 132 -93t187 -33t186.5 32.5t133.5 93.5q47 54 68.5 128.5t21.5 192.5v1004h153v-1009q0 -151 -31.5 -250.5t-101.5 -172.5q-72 -75 -180.5 -114.5
t-249.5 -39.5q-140 0 -249 39.5z" />
    <glyph glyph-name="V" unicode="V" horiz-adv-x="1461" 
d="M84 1570h165l476 -1395h9l475 1395h168l-557 -1570h-179z" />
    <glyph glyph-name="W" unicode="W" horiz-adv-x="2455" 
d="M84 1570h165l474 -1390h13l405 1288h173l405 -1288h13l474 1390h165l-557 -1570h-180l-401 1252h-12l-401 -1252h-179z" />
    <glyph glyph-name="X" unicode="X" horiz-adv-x="1483" 
d="M642 792l-542 778h182l458 -668h1l459 668h183l-543 -778l553 -792h-181l-472 676l-469 -676h-181z" />
    <glyph glyph-name="Y" unicode="Y" horiz-adv-x="1489" 
d="M667 585l-598 985h177l495 -820h7l495 820h178l-601 -985v-585h-153v585z" />
    <glyph glyph-name="Z" unicode="Z" horiz-adv-x="1437" 
d="M109 144l1005 1277v12h-962v137h1154v-145l-1005 -1277v-11h1020v-137h-1212v144z" />
    <glyph glyph-name="bracketleft" unicode="[" horiz-adv-x="744" 
d="M243 1706h415v-101h-293v-1642h293v-101h-415v1844z" />
    <glyph glyph-name="backslash" unicode="\" horiz-adv-x="985" 
d="M825 -408l-804 2045h140l804 -2045h-140z" />
    <glyph glyph-name="bracketright" unicode="]" horiz-adv-x="744" 
d="M86 -138v101h293v1642h-293v101h415v-1844h-415z" />
    <glyph glyph-name="asciicircum" unicode="^" horiz-adv-x="1275" 
d="M637 1626l514 -1119h-157l-357 833l-353 -833h-157z" />
    <glyph glyph-name="underscore" unicode="_" horiz-adv-x="1276" 
d="M190 0h896v-113h-896v113z" />
    <glyph glyph-name="grave" unicode="`" horiz-adv-x="561" 
d="M79 1570h158l235 -317h-116z" />
    <glyph glyph-name="a" unicode="a" 
d="M1008.5 858q17.5 -75 17.5 -191v-667h-148v172h-12q-43 -80 -140 -129q-103 -59 -236 -59q-119 0 -206.5 41t-134.5 117t-47 179q0 104 39.5 171.5t115.5 105.5q55 28 123.5 38.5t177.5 10.5h320v11q0 105 -16.5 167.5t-54.5 100.5t-98.5 57t-133.5 19q-102 0 -187 -40.5
t-162 -126.5l-91 99q96 99 203.5 146t236.5 47q126 0 219 -35t149 -102q48 -57 65.5 -132zM842.5 297q23.5 54 29.5 105.5t6 119.5h-311q-100 0 -154 -9t-91 -33q-33 -22 -53 -61.5t-20 -97.5q0 -101 69.5 -160t195.5 -59q155 0 257 97q48 44 71.5 98z" />
    <glyph glyph-name="b" unicode="b" horiz-adv-x="1357" 
d="M520 34q-98 50 -159 140h-11v-174h-147v1570h147v-639h11q60 91 159 143.5t227 52.5q148 0 259.5 -67t173 -195.5t61.5 -308.5t-61.5 -309t-174.5 -196t-265 -67q-122 0 -220 50zM914 160q85 51 132.5 151.5t47.5 244.5q0 142 -47.5 242.5t-132 152t-196.5 51.5
q-113 0 -199 -55.5t-133.5 -156.5t-47.5 -234q0 -134 47.5 -235t134 -156.5t198.5 -55.5q111 0 196 51z" />
    <glyph glyph-name="c" unicode="c" horiz-adv-x="1134" 
d="M342.5 59.5q-112.5 75.5 -171.5 205t-59 288.5q0 151 56 282t167.5 211.5t271.5 80.5q154 0 270 -78t177 -226l-139 -56q-40 106 -121 166t-187 60q-114 0 -192.5 -61t-117 -161t-38.5 -218q0 -119 38.5 -218t117 -158.5t193.5 -59.5q108 0 188 60t113 163l133 -50
q-50 -145 -164.5 -225.5t-268.5 -80.5t-266.5 75.5z" />
    <glyph glyph-name="d" unicode="d" horiz-adv-x="1357" 
d="M352 51q-113 67 -174.5 196t-61.5 309t61.5 308.5t173 195.5t259.5 67q128 0 227 -52.5t159 -143.5h11v639h147v-1570h-147v174h-11q-61 -90 -159 -140t-220 -50q-152 0 -265 67zM837.5 164.5q86.5 55.5 134 156.5t47.5 235q0 133 -47.5 234t-133.5 156.5t-199 55.5
q-112 0 -196.5 -51.5t-132 -152t-47.5 -242.5q0 -144 47.5 -244.5t132.5 -151.5t196 -51q112 0 198.5 55.5z" />
    <glyph glyph-name="e" unicode="e" 
d="M1091.5 557.5q-2.5 -28.5 -6.5 -42.5h-819q4 -124 48 -215.5t125 -141t192 -49.5q104 0 178.5 33t146.5 117l104 -92q-94 -97 -195 -140t-235 -43q-163 0 -280 74t-177.5 202.5t-60.5 289.5q0 160 59 291t172 208.5t269 77.5q170 0 278.5 -78t156 -195t47.5 -240
q0 -28 -2.5 -56.5zM439.5 954q-75.5 -48 -119.5 -130t-52 -184h678q0 23 -1 34q-6 95 -44.5 168.5t-111 116.5t-176.5 43q-98 0 -173.5 -48z" />
    <glyph glyph-name="f" unicode="f" horiz-adv-x="738" 
d="M271 985h-234v125h235v174q0 153 81 228t216 75q99 0 180 -42l-48 -121q-57 31 -114 31q-167 0 -167 -185v-160h279v-125h-279v-985h-149v985z" />
    <glyph glyph-name="g" unicode="g" horiz-adv-x="1191" 
d="M1108 -110q0 -189 -140 -278q-127 -84 -363 -84t-372 81q-69 41 -103.5 107.5t-34.5 153.5q0 22 7 64l153 125v8q-25 16 -38 28q-78 72 -78 185q0 117 96 227q-61 95 -61 222q0 119 53.5 209t148 139.5t213.5 49.5q85 0 156.5 -25.5t125.5 -73.5l170 151l77 -96
l-171 -149q52 -92 52 -214t-53.5 -210t-146 -133.5t-209.5 -45.5q-79 0 -147 21t-122 61q-54 -58 -54 -122q0 -69 47 -108q51 -41 170 -41h278q101 0 161 -17t103 -52q82 -68 82 -183zM447.5 968q-61.5 -34 -95 -96.5t-33.5 -146.5q0 -83 33 -143.5t94.5 -93t143.5 -32.5
q81 0 141.5 32.5t93 93t32.5 143.5q0 85 -32.5 147.5t-93 96t-140.5 33.5q-82 0 -143.5 -34zM940.5 -220.5q19.5 37.5 19.5 91.5q0 75 -44 109q-46 37 -147 37h-281q-67 0 -117 10l-130 -121q-4 -26 -4 -40q0 -105 74 -154q44 -33 117 -45.5t178 -12.5q87 0 158 16t118 46
q39 26 58.5 63.5z" />
    <glyph glyph-name="h" unicode="h" horiz-adv-x="1260" 
d="M205 1570h147l-2 -598h12q44 68 132.5 111.5t202.5 43.5q82 0 148 -21.5t113 -61.5q64 -55 95 -143t31 -231v-670h-148v631q0 121 -19.5 191t-62.5 112q-73 68 -203 68q-138 0 -218 -85q-43 -46 -63 -116t-20 -182v-619h-147z" />
    <glyph glyph-name="i" unicode="i" horiz-adv-x="549" 
d="M201 1110h147v-1110h-147v1110zM195 1402.5q-32 32.5 -32 79.5q0 45 32.5 78t78.5 33t78.5 -33t32.5 -78q0 -47 -32.5 -79.5t-78.5 -32.5q-47 0 -79 32.5z" />
    <glyph glyph-name="j" unicode="j" horiz-adv-x="554" 
d="M-5 -469.5q-55 9.5 -108 26.5l42 125q29 -12 61.5 -19t56.5 -7q82 0 120 50q21 25 29 65t8 108v1231h148v-1258q0 -87 -12 -147t-45 -102q-66 -82 -207 -82q-38 0 -93 9.5zM200 1402.5q-32 32.5 -32 79.5q0 45 32.5 78t78.5 33t78.5 -33t32.5 -78q0 -47 -32.5 -79.5
t-78.5 -32.5q-47 0 -79 32.5z" />
    <glyph glyph-name="k" unicode="k" horiz-adv-x="1221" 
d="M203 1570h147v-1063h2l579 603h183l-387 -409l453 -701h-174l-388 604l-1 -1l-267 -274v-329h-147v1570z" />
    <glyph glyph-name="l" unicode="l" horiz-adv-x="604" 
d="M248 36q-32 31 -42.5 88t-10.5 168v1278h147v-1247q0 -90 4 -126t24 -58q25 -30 91 -30q41 0 82 10l22 -112q-69 -23 -154 -23q-110 0 -163 52z" />
    <glyph glyph-name="m" unicode="m" horiz-adv-x="1946" 
d="M201 1110h142v-143h10q44 75 123.5 117.5t192.5 42.5q125 0 209.5 -53t122.5 -147h9q53 94 148 147t227 53q169 0 264 -83q74 -66 97.5 -173t23.5 -234v-637h-147v614q0 136 -19.5 207.5t-64.5 115.5q-65 65 -190 65q-56 0 -100.5 -13.5t-82.5 -43.5q-55 -42 -81 -111.5
t-26 -181.5v-652h-147v652q0 116 -22 184.5t-68 107.5q-68 58 -185 58q-106 0 -177 -52q-58 -42 -85 -115t-27 -183v-652h-147v1110z" />
    <glyph glyph-name="n" unicode="n" horiz-adv-x="1257" 
d="M201 1110h147v-138h12q44 68 132 111.5t203 43.5q82 0 148 -21.5t113 -61.5q64 -55 94.5 -143t30.5 -231v-670h-147v631q0 121 -19.5 191t-62.5 112q-73 68 -203 68q-139 0 -218 -85q-43 -46 -63 -116t-20 -182v-619h-147v1110z" />
    <glyph glyph-name="o" unicode="o" horiz-adv-x="1287" 
d="M365.5 54q-120.5 70 -187.5 200t-67 304q0 173 66.5 302t187.5 198t278 69q158 0 278.5 -69t187.5 -198t67 -302q0 -174 -67 -304t-188 -200t-278 -70t-277.5 70zM849 164q87 55 133.5 156.5t46.5 237.5q0 134 -46.5 234.5t-133.5 155t-206 54.5t-206 -54t-133 -154.5
t-46 -235.5q0 -136 46 -237.5t133 -156.5t206 -55t206 55z" />
    <glyph glyph-name="p" unicode="p" horiz-adv-x="1357" 
d="M1005 1059q113 -67 174.5 -196t61.5 -309t-61.5 -308.5t-173 -195.5t-259.5 -67q-128 0 -227 52.5t-159 143.5h-11v-639h-147v1570h147v-174h11q61 90 159 140t220 50q152 0 265 -67zM519.5 945.5q-86.5 -55.5 -134 -156.5t-47.5 -235q0 -133 47.5 -234t133.5 -156.5
t199 -55.5q112 0 196.5 51.5t132 152t47.5 242.5q0 144 -47.5 244.5t-132.5 151.5t-196 51q-112 0 -198.5 -55.5z" />
    <glyph glyph-name="q" unicode="q" horiz-adv-x="1357" 
d="M837 1076q98 -50 159 -140h11v174h147v-1570h-147v639h-11q-60 -91 -159 -143.5t-227 -52.5q-148 0 -259.5 67t-173 195.5t-61.5 308.5t61.5 309t174.5 196t265 67q122 0 220 -50zM443 950q-85 -51 -132.5 -151.5t-47.5 -244.5q0 -142 47.5 -242.5t132 -152t196.5 -51.5
q113 0 199 55.5t133.5 156.5t47.5 234q0 134 -47.5 235t-134 156.5t-198.5 55.5q-111 0 -196 -51z" />
    <glyph glyph-name="r" unicode="r" horiz-adv-x="802" 
d="M201 1110h137l10 -141h15q52 81 129 119.5t170 38.5q46 0 99 -9v-153h-10q-66 23 -122 23q-57 0 -105.5 -17.5t-90.5 -59.5q-44 -46 -64.5 -127.5t-20.5 -219.5v-564h-147v1110z" />
    <glyph glyph-name="s" unicode="s" horiz-adv-x="1038" 
d="M352 21q-94 37 -161 105.5t-96 159.5l135 48q33 -109 119 -167t206 -58q113 0 172.5 48.5t59.5 141.5q0 54 -21 90t-60 60q-33 21 -82 35.5t-128 31.5q-71 16 -119 29t-87 31q-159 75 -159 242q0 92 46 162t130 108.5t193 38.5q143 0 245.5 -65.5t148.5 -184.5l-128 -57
q-62 182 -268 182q-101 0 -160 -44.5t-59 -120.5q0 -44 19.5 -74.5t55.5 -51.5q30 -17 73 -29.5t114 -27.5q91 -20 148.5 -37t106.5 -45q67 -38 103.5 -99t36.5 -157q0 -100 -47 -175t-133.5 -116t-200.5 -41q-109 0 -203 37z" />
    <glyph glyph-name="t" unicode="t" horiz-adv-x="765" 
d="M360.5 33q-68.5 49 -96.5 122.5t-28 155.5v674h-184v125h186v304l145 108v-412h288v-125h-288v-656q0 -220 181 -220q54 0 101 14l25 -120q-27 -8 -67.5 -13.5t-81.5 -5.5q-112 0 -180.5 49z" />
    <glyph glyph-name="u" unicode="u" horiz-adv-x="1256" 
d="M413 5.5q-66 21.5 -113 60.5q-64 55 -95 143t-31 231v670h147v-630q0 -122 19.5 -191.5t63.5 -111.5q73 -68 203 -68q139 0 217 84q44 47 63.5 116.5t19.5 182.5v618h148v-1110h-148v139h-11q-44 -68 -132.5 -111.5t-202.5 -43.5q-82 0 -148 21.5z" />
    <glyph glyph-name="v" unicode="v" horiz-adv-x="1158" 
d="M51 1110h160l360 -999h16l359 999h160l-410 -1110h-234z" />
    <glyph glyph-name="w" unicode="w" horiz-adv-x="1925" 
d="M51 1110h160l359 -997h21l290 997h163l290 -997h21l359 997h160l-411 -1110h-236l-256 868h-16l-256 -868h-237z" />
    <glyph glyph-name="x" unicode="x" horiz-adv-x="1124" 
d="M465 557l-409 553h181l322 -450h5l322 450h181l-409 -553l410 -557h-177l-327 454h-5l-325 -454h-178z" />
    <glyph glyph-name="y" unicode="y" horiz-adv-x="1136" 
d="M489 15l-445 1095h161l358 -922h8l359 922h162l-635 -1570h-160z" />
    <glyph glyph-name="z" unicode="z" horiz-adv-x="1077" 
d="M82 132l712 837v16h-679v125h864v-135l-712 -837v-13h718v-125h-903v132z" />
    <glyph glyph-name="braceleft" unicode="{" horiz-adv-x="691" 
d="M307 -78q-60 75 -60 205v394q0 66 -34.5 100.5t-98.5 56.5v111q66 19 99.5 56t33.5 118v427q0 135 61 205.5t180 70.5h117v-99h-69q-85 0 -123.5 -45t-38.5 -133v-428q0 -93 -34.5 -144t-105.5 -77v-14q68 -29 104 -77.5t36 -126.5v-393q0 -86 38 -135t111 -49h82v-98
h-128q-110 0 -170 75z" />
    <glyph glyph-name="bar" unicode="|" horiz-adv-x="720" 
d="M304 1704h112v-2273h-112v2273z" />
    <glyph glyph-name="braceright" unicode="}" horiz-adv-x="691" 
d="M86 -153v98h82q73 0 111 49t38 135v393q0 78 36 126.5t104 77.5v14q-71 26 -105.5 77t-34.5 144v428q0 88 -38.5 133t-123.5 45h-69v99h117q119 0 180 -70.5t61 -205.5v-427q0 -81 33.5 -118t99.5 -56v-111q-64 -22 -98.5 -56.5t-34.5 -100.5v-394q0 -130 -60 -205
t-170 -75h-128z" />
    <glyph glyph-name="asciitilde" unicode="~" horiz-adv-x="1275" 
d="M734 435.5q-42 21.5 -69 52t-62 81.5q-29 43 -49.5 67t-49 40t-65.5 16q-69 0 -107 -60t-38 -166h-114q0 99 32 173.5t90.5 115t136.5 40.5q63 0 107.5 -22.5t72.5 -54.5t64 -84q28 -41 47 -63.5t45 -38t60 -15.5q45 0 79 31.5t53 88t19 130.5h113q0 -105 -33 -185
t-92.5 -124t-138.5 -44q-59 0 -101 21.5z" />
    <glyph glyph-name="uni00A0" unicode="&#xa0;" horiz-adv-x="1180" 
 />
    <glyph glyph-name="exclamdown" unicode="&#xa1;" horiz-adv-x="702" 
d="M430 1100q33 -33 33 -80q0 -46 -33 -78t-80 -32q-45 0 -78 32.5t-33 77.5q0 46 33 79.5t78 33.5q47 0 80 -33zM423 -460h-146l15 1128h115z" />
    <glyph glyph-name="cent" unicode="&#xa2;" horiz-adv-x="1322" 
d="M649 -13q-139 12 -240.5 89t-154.5 201.5t-53 275.5q0 144 50.5 270t152 208t245.5 94v208h81v-206q141 -8 249 -86t166 -218l-141 -56q-37 97 -108.5 155.5t-165.5 67.5v-869q96 7 167 65t103 154l133 -50q-49 -138 -155 -218t-248 -88v-220l-81 -1v224zM649 986
q-98 -12 -165.5 -74t-100.5 -156t-33 -203q0 -110 33 -203t100.5 -153.5t165.5 -72.5v862z" />
    <glyph glyph-name="sterling" unicode="&#xa3;" horiz-adv-x="1424" 
d="M399 125h838v-125h-1040v145q86 24 156 74.5t109.5 117t39.5 137.5q0 65 -16.5 128t-48.5 151h-232v125h188q-43 138 -43 253q0 129 56 233.5t159.5 164.5t240.5 60q152 0 266.5 -90.5t170.5 -241.5l-118 -43q-45 119 -127.5 184.5t-191.5 65.5q-98 0 -173 -41
t-116.5 -117t-41.5 -177q0 -118 43 -251h469v-125h-424q30 -81 46 -144t16 -132q0 -93 -39 -160t-80 -99.5t-107 -74.5v-18z" />
    <glyph glyph-name="currency" unicode="&#xa4;" horiz-adv-x="1579" 
d="M280 277l112 112q-56 67 -84.5 148t-28.5 167q0 85 29 167t84 149l-110 110l79 82l112 -111q68 56 149.5 84.5t167.5 28.5t167.5 -28.5t148.5 -84.5l111 111l81 -80l-111 -110q56 -67 84.5 -149t28.5 -169q0 -86 -28.5 -168t-84.5 -149l111 -110l-79 -82l-113 113
q-67 -56 -149 -85t-168 -29q-85 0 -167 29t-149 85l-112 -113zM638.5 337q73.5 -30 150.5 -30q78 0 151 30t130 88q57 57 86.5 130t29.5 150q0 78 -29.5 150.5t-86.5 128.5q-56 57 -129 86.5t-151 29.5t-151 -29.5t-130 -86.5t-86.5 -131t-29.5 -152q0 -77 29 -149t85 -127
q58 -58 131.5 -88z" />
    <glyph glyph-name="yen" unicode="&#xa5;" horiz-adv-x="1635" 
d="M738 249h-402v121h402v221h-402v120h334l-528 859h184l490 -821l493 821h184l-528 -859h331v-120h-400v-221h400v-121h-400v-249h-158v249z" />
    <glyph glyph-name="brokenbar" unicode="&#xa6;" horiz-adv-x="720" 
d="M416 1371v-1538h-113v896h1v642h112z" />
    <glyph glyph-name="section" unicode="&#xa7;" horiz-adv-x="1165" 
d="M294.5 59.5q-128.5 75.5 -182.5 231.5l138 43q50 -122 137 -175.5t234 -53.5q130 0 212 47t82 147q0 60 -43 99.5t-107 63.5t-176 54q-139 37 -224.5 71.5t-146 100t-60.5 170.5q0 129 96 223q-96 77 -96 192q0 95 55.5 166t149.5 109.5t205 38.5q142 0 247 -51.5
t165 -143.5l-118 -68q-44 74 -117.5 111t-181.5 37q-83 0 -147 -27.5t-98.5 -73.5t-34.5 -100q0 -58 41.5 -95.5t104 -60t172.5 -52.5q141 -38 228 -72.5t149 -101.5t62 -176q0 -131 -93 -221q93 -73 93 -193q0 -109 -60.5 -180t-157.5 -103t-212 -32q-187 0 -315.5 75.5z
M891 617q24 42 24 93q0 72 -46.5 119t-114.5 74.5t-185 62.5q-70 21 -112.5 35t-81.5 31q-46 -31 -69 -76t-23 -94q0 -69 46 -114.5t113 -72.5t181 -60q12 -4 56 -17t79.5 -26t62.5 -25q46 28 70 70z" />
    <glyph glyph-name="dieresis" unicode="&#xa8;" horiz-adv-x="951" 
d="M193 1402.5q-32 32.5 -32 79.5q0 45 32.5 78t78.5 33t78.5 -33t32.5 -78q0 -47 -32.5 -79.5t-78.5 -32.5q-47 0 -79 32.5zM599.5 1402.5q-32.5 32.5 -32.5 79.5q0 45 32.5 78t79.5 33q45 0 78 -33t33 -78q0 -47 -33 -79.5t-78 -32.5q-47 0 -79.5 32.5z" />
    <glyph glyph-name="copyright" unicode="&#xa9;" horiz-adv-x="1927" 
d="M556.5 86.5q-186.5 108.5 -296 294t-109.5 404.5t109.5 404.5t296 294t407.5 108.5t407.5 -108.5t296 -294t109.5 -404.5t-109.5 -404.5t-296 -294t-407.5 -108.5t-407.5 108.5zM1322.5 171q164.5 96 261 259t96.5 355t-96.5 355.5t-261 259.5t-358.5 96q-195 0 -360 -96
t-262 -259t-97 -356t96.5 -356t262 -258.5t360.5 -95.5q194 0 358.5 96zM745.5 333q-102.5 68 -156.5 186t-54 264q0 137 51 256.5t153 193t246 73.5q139 0 244.5 -71.5t160.5 -204.5l-116 -46q-39 98 -115 154t-174 56q-106 0 -179.5 -57t-109.5 -150.5t-36 -203.5
q0 -111 36.5 -203.5t110 -148t180.5 -55.5q101 0 174.5 55t105.5 152l112 -43q-46 -131 -149.5 -203t-242.5 -72t-241.5 68z" />
    <glyph glyph-name="ordfeminine" unicode="&#xaa;" horiz-adv-x="922" 
d="M233.5 811.5q-60.5 28.5 -96 82t-35.5 123.5q0 117 86.5 175t239.5 58h229q0 8 -3 53q-17 198 -217 198q-143 0 -237 -120l-65 66q70 73 143.5 106.5t172.5 33.5q146 0 221.5 -82t75.5 -231v-478h-86v148q-107 -161 -293 -161q-75 0 -135.5 28.5zM537.5 918
q67.5 46 107.5 129q10 73 12 118h-221q-114 0 -173.5 -37.5t-59.5 -110.5q0 -65 51 -105t131 -40q85 0 152.5 46z" />
    <glyph glyph-name="guillemotleft" unicode="&#xab;" horiz-adv-x="1112" 
d="M86 567l440 379v-132l-286 -247l286 -246v-132zM503 567l441 379v-132l-286 -247l286 -246v-132z" />
    <glyph glyph-name="logicalnot" unicode="&#xac;" horiz-adv-x="1275" 
d="M935 753h-863v132h1004v-562h-141v430z" />
    <glyph glyph-name="uni00AD" unicode="&#xad;" horiz-adv-x="1139" 
d="M190 749h759v-114h-759v114z" />
    <glyph glyph-name="registered" unicode="&#xae;" horiz-adv-x="1927" 
d="M556.5 86.5q-186.5 108.5 -296 294t-109.5 404.5t109.5 404.5t296 294t407.5 108.5t407.5 -108.5t296 -294t109.5 -404.5t-109.5 -404.5t-296 -294t-407.5 -108.5t-407.5 108.5zM1322.5 171q164.5 96 261 259t96.5 355t-96.5 355.5t-261 259.5t-358.5 96q-195 0 -360 -96
t-262 -259t-97 -356t96.5 -356t262 -258.5t360.5 -95.5q194 0 358.5 96zM709 1270h273q98 0 171.5 -33t113.5 -94.5t40 -144.5q0 -94 -53 -159.5t-149 -89.5l268 -449h-116l-252 438q-28 -3 -59 -3h-135v-435h-102v970zM990 819q104 1 159.5 47t55.5 130q0 88 -58 135.5
t-163 47.5h-173v-360h179z" />
    <glyph glyph-name="macron" unicode="&#xaf;" horiz-adv-x="992" 
d="M192 1447h608v-91h-608v91z" />
    <glyph glyph-name="degree" unicode="&#xb0;" horiz-adv-x="1084" 
d="M383 991q-73 43 -116.5 116.5t-43.5 159.5q0 87 43.5 160.5t116.5 116.5t159 43q87 0 160 -43t116 -116.5t43 -160.5t-43 -160t-116 -116t-160 -43q-86 0 -159 43zM651.5 1079q49.5 29 78.5 79t29 109q0 60 -29 110t-78.5 79t-109.5 29q-59 0 -108.5 -29t-78.5 -79
t-29 -110q0 -59 29 -109t78.5 -79t108.5 -29q60 0 109.5 29z" />
    <glyph glyph-name="plusminus" unicode="&#xb1;" horiz-adv-x="1275" 
d="M581 730h-528v113h528v518h114v-518h528v-113h-528v-521h-114v521zM53 0h1158v-113h-1158v113z" />
    <glyph glyph-name="acute" unicode="&#xb4;" horiz-adv-x="563" 
d="M328 1570h158l-287 -317h-113z" />
    <glyph glyph-name="uni00B5" unicode="&#xb5;" horiz-adv-x="1440" 
d="M304 1110h145v-669q0 -153 71 -237.5t206 -84.5q94 0 163.5 39t107.5 114.5t38 182.5v655h146v-1110h-146v188q-50 -98 -142.5 -151t-205.5 -53q-93 0 -159.5 34.5t-103.5 102.5v-508h-120v1497z" />
    <glyph glyph-name="paragraph" unicode="&#xb6;" horiz-adv-x="1414" 
d="M651 692q-132 0 -247.5 53t-185.5 152.5t-70 233.5t70 233.5t185.5 152.5t247.5 53h107v-1843h-107v965zM1004 1570h106v-1843h-106v1843z" />
    <glyph glyph-name="periodcentered" unicode="&#xb7;" horiz-adv-x="769" 
d="M310 686q-34 20 -54 54.5t-20 74.5q0 41 19.5 75t54 53t75.5 19q40 0 74.5 -19.5t54.5 -53t20 -74.5q0 -40 -20 -74.5t-54 -54.5t-75 -20t-75 20z" />
    <glyph glyph-name="cedilla" unicode="&#xb8;" horiz-adv-x="615" 
d="M178.5 -455.5q-48.5 17.5 -91.5 52.5l42 70q33 -32 73 -47t78 -15q54 0 86 27.5t32 69.5q0 34 -21.5 59t-61.5 37q-40 13 -110 13l110 189h79l-83 -134q36 -5 55 -13q53 -19 82 -58t29 -93q0 -49 -26.5 -89t-72.5 -63t-103 -23q-48 0 -96.5 17.5z" />
    <glyph glyph-name="ordmasculine" unicode="&#xba;" horiz-adv-x="981" 
d="M296 848.5q-87 52.5 -136 143t-49 200.5q0 109 49 199.5t136 143t196 52.5q108 0 194.5 -52.5t135.5 -143t49 -199.5q0 -110 -49 -200.5t-135.5 -143t-194.5 -52.5q-109 0 -196 52.5zM637.5 927q62.5 40 95.5 109.5t33 155.5t-33 155.5t-95.5 109t-145.5 39.5
q-84 0 -146.5 -39.5t-96 -109t-33.5 -155.5t33.5 -155.5t96 -109.5t146.5 -40q83 0 145.5 40z" />
    <glyph glyph-name="guillemotright" unicode="&#xbb;" horiz-adv-x="1112" 
d="M168 321l286 246l-286 247v132l441 -379l-441 -378v132zM586 321l286 246l-286 247v132l440 -379l-440 -378v132z" />
    <glyph glyph-name="questiondown" unicode="&#xbf;" horiz-adv-x="960" 
d="M677 1100q33 -33 33 -80q0 -46 -33 -78t-80 -32q-46 0 -77.5 32t-31.5 78q0 47 31.5 80t77.5 33q47 0 80 -33zM661 522q0 -89 -28.5 -148.5t-70.5 -96t-110 -80.5q-63 -42 -99.5 -73t-61.5 -80t-25 -120q0 -135 85.5 -207t238.5 -72q112 0 204 48l42 -123
q-55 -23 -118 -35t-126 -12q-137 0 -240 47t-160 137.5t-57 218.5q0 94 30.5 157.5t73 101t114.5 84.5q62 40 97.5 69.5t59.5 74.5t24 110v150h127v-151z" />
    <glyph glyph-name="Agrave" unicode="&#xc0;" horiz-adv-x="1461" 
d="M1084 377h-704l-129 -377h-167l557 1570h179l557 -1570h-165zM1038 513l-300 882h-9l-302 -882h611zM397 2030h158l235 -317h-116z" />
    <glyph glyph-name="Aacute" unicode="&#xc1;" horiz-adv-x="1461" 
d="M1084 377h-704l-129 -377h-167l557 1570h179l557 -1570h-165zM1038 513l-300 882h-9l-302 -882h611zM917 2030h158l-287 -317h-113z" />
    <glyph glyph-name="Acircumflex" unicode="&#xc2;" horiz-adv-x="1461" 
d="M1084 377h-704l-129 -377h-167l557 1570h179l557 -1570h-165zM1038 513l-300 882h-9l-302 -882h611zM730 2051l336 -354h-123l-213 211l-212 -211h-122z" />
    <glyph glyph-name="Atilde" unicode="&#xc3;" horiz-adv-x="1461" 
d="M1084 377h-704l-129 -377h-167l557 1570h179l557 -1570h-165zM1038 513l-300 882h-9l-302 -882h611zM807 1762.5q-35 16.5 -57.5 39.5t-50.5 59q-33 43 -58 63.5t-62 20.5q-54 1 -84 -47t-30 -132h-89q0 129 55.5 201.5t151.5 72.5q43 0 75.5 -15.5t54.5 -38t49 -57.5
q36 -45 62 -66t65 -21q47 0 76 51t29 137h93q0 -87 -24.5 -151t-69 -98.5t-104.5 -34.5q-47 0 -82 16.5z" />
    <glyph glyph-name="Adieresis" unicode="&#xc4;" horiz-adv-x="1461" 
d="M1084 377h-704l-129 -377h-167l557 1570h179l557 -1570h-165zM1038 513l-300 882h-9l-302 -882h611zM449.5 1760.5q-32.5 33.5 -32.5 80.5q0 45 32.5 77t78.5 32t78.5 -32t32.5 -77q0 -47 -32.5 -80.5t-78.5 -33.5t-78.5 33.5zM855.5 1760.5q-32.5 33.5 -32.5 80.5
q0 45 32.5 77t79.5 32q45 0 78 -32t33 -77q0 -47 -33 -80.5t-78 -33.5q-47 0 -79.5 33.5z" />
    <glyph glyph-name="Aring" unicode="&#xc5;" horiz-adv-x="1461" 
d="M1084 377h-704l-129 -377h-167l557 1570h179l557 -1570h-165zM1038 513l-300 882h-9l-302 -882h611zM621.5 1705q-49.5 29 -78 79t-28.5 108q0 59 29 108.5t78.5 78.5t108.5 29q57 0 107 -29t79.5 -79t29.5 -108q0 -59 -29 -108.5t-78.5 -78.5t-108.5 -29
q-60 0 -109.5 29zM825 1798.5q38 38.5 38 95.5q0 55 -37.5 92.5t-94.5 37.5t-94.5 -37.5t-37.5 -92.5q0 -57 38 -95.5t94 -38.5t94 38.5z" />
    <glyph glyph-name="AE" unicode="&#xc6;" horiz-adv-x="2130" 
d="M1165 1435v-582h741v-129h-741v-585h850v-139h-1003v379h-626l-135 -379h-167l580 1570h1351v-135h-850zM1012 511v924h-250l-329 -924h579z" />
    <glyph glyph-name="Ccedilla" unicode="&#xc7;" horiz-adv-x="1633" 
d="M1275 100.5q-164 -114.5 -406 -116.5l-73 -118q36 -5 55 -13q53 -19 82 -58t29 -93q0 -49 -26.5 -89t-72.5 -63t-103 -23q-48 0 -96.5 17.5t-91.5 52.5l42 70q33 -32 73 -47t78 -15q54 0 86 27.5t32 69.5q0 34 -21.5 59t-61.5 37q-40 13 -110 13l102 175
q-200 15 -343.5 115t-219 275.5t-75.5 411.5q0 249 85 429t246 275t385 95q243 0 403.5 -108.5t239.5 -319.5l-144 -55q-124 347 -499 347q-177 0 -304 -78.5t-193.5 -227.5t-66.5 -357q0 -200 62.5 -350.5t186.5 -234.5t305 -84q188 0 317 91.5t196 266.5l148 -46
q-82 -216 -246 -330.5z" />
    <glyph glyph-name="Egrave" unicode="&#xc8;" horiz-adv-x="1394" 
d="M253 1570h980v-137h-827v-577h740v-135h-740v-584h872v-137h-1025v1570zM415 2030h158l235 -317h-116z" />
    <glyph glyph-name="Eacute" unicode="&#xc9;" horiz-adv-x="1394" 
d="M253 1570h980v-137h-827v-577h740v-135h-740v-584h872v-137h-1025v1570zM935 2030h158l-287 -317h-113z" />
    <glyph glyph-name="Ecircumflex" unicode="&#xca;" horiz-adv-x="1394" 
d="M253 1570h980v-137h-827v-577h740v-135h-740v-584h872v-137h-1025v1570zM748 2051l336 -354h-123l-213 211l-212 -211h-122z" />
    <glyph glyph-name="Edieresis" unicode="&#xcb;" horiz-adv-x="1394" 
d="M253 1570h980v-137h-827v-577h740v-135h-740v-584h872v-137h-1025v1570zM467.5 1760.5q-32.5 33.5 -32.5 80.5q0 45 32.5 77t78.5 32t78.5 -32t32.5 -77q0 -47 -32.5 -80.5t-78.5 -33.5t-78.5 33.5zM873.5 1760.5q-32.5 33.5 -32.5 80.5q0 45 32.5 77t79.5 32
q45 0 78 -32t33 -77q0 -47 -33 -80.5t-78 -33.5q-47 0 -79.5 33.5z" />
    <glyph glyph-name="Igrave" unicode="&#xcc;" horiz-adv-x="659" 
d="M253 1570h153v-1570h-153v1570zM-6 2030h158l235 -317h-116z" />
    <glyph glyph-name="Iacute" unicode="&#xcd;" horiz-adv-x="659" 
d="M253 1570h153v-1570h-153v1570zM514 2030h158l-287 -317h-113z" />
    <glyph glyph-name="Icircumflex" unicode="&#xce;" horiz-adv-x="659" 
d="M253 1570h153v-1570h-153v1570zM327 2051l336 -354h-123l-213 211l-212 -211h-122z" />
    <glyph glyph-name="Idieresis" unicode="&#xcf;" horiz-adv-x="659" 
d="M253 1570h153v-1570h-153v1570zM46.5 1760.5q-32.5 33.5 -32.5 80.5q0 45 32.5 77t78.5 32t78.5 -32t32.5 -77q0 -47 -32.5 -80.5t-78.5 -33.5t-78.5 33.5zM452.5 1760.5q-32.5 33.5 -32.5 80.5q0 45 32.5 77t79.5 32q45 0 78 -32t33 -77q0 -47 -33 -80.5t-78 -33.5
q-47 0 -79.5 33.5z" />
    <glyph glyph-name="Eth" unicode="&#xd0;" horiz-adv-x="1626" 
d="M1417 1134.5q60 -156.5 60 -360.5q0 -197 -58.5 -346t-172.5 -249q-76 -66 -165.5 -105t-207 -56.5t-279.5 -17.5h-341v715h-167v102h167v753h343q168 0 287 -19.5t203 -58.5t155 -100q116 -101 176 -257.5zM1279 498.5q46 122.5 46 280.5q0 331 -184 501
q-92 85 -216.5 119t-330.5 34h-188v-616h385v-102h-385v-578h174q151 0 255.5 17.5t176 51.5t131.5 88q90 82 136 204.5z" />
    <glyph glyph-name="Ntilde" unicode="&#xd1;" horiz-adv-x="1645" 
d="M253 1570h229l744 -1375h14v1375h152v-1570h-231l-742 1377h-13v-1377h-153v1570zM898 1762.5q-35 16.5 -57.5 39.5t-50.5 59q-33 43 -58 63.5t-62 20.5q-54 1 -84 -47t-30 -132h-89q0 129 55.5 201.5t151.5 72.5q43 0 75.5 -15.5t54.5 -38t49 -57.5q36 -45 62 -66
t65 -21q47 0 76 51t29 137h93q0 -87 -24.5 -151t-69 -98.5t-104.5 -34.5q-47 0 -82 16.5z" />
    <glyph glyph-name="Ograve" unicode="&#xd2;" horiz-adv-x="1733" 
d="M478 86q-161 102 -244 283.5t-83 415.5t83 415.5t244 284t387 102.5q227 0 389 -102.5t245.5 -284t83.5 -415.5t-83.5 -415.5t-245.5 -283.5t-389 -102q-226 0 -387 102zM1173 204q127 85 192 235.5t65 345.5t-65 345.5t-192 235.5t-308 85q-179 0 -305.5 -85
t-191.5 -236t-65 -345t65 -345t191.5 -236t305.5 -85q181 0 308 85zM532 2030h158l235 -317h-116z" />
    <glyph glyph-name="Oacute" unicode="&#xd3;" horiz-adv-x="1733" 
d="M478 86q-161 102 -244 283.5t-83 415.5t83 415.5t244 284t387 102.5q227 0 389 -102.5t245.5 -284t83.5 -415.5t-83.5 -415.5t-245.5 -283.5t-389 -102q-226 0 -387 102zM1173 204q127 85 192 235.5t65 345.5t-65 345.5t-192 235.5t-308 85q-179 0 -305.5 -85
t-191.5 -236t-65 -345t65 -345t191.5 -236t305.5 -85q181 0 308 85zM1052 2030h158l-287 -317h-113z" />
    <glyph glyph-name="Ocircumflex" unicode="&#xd4;" horiz-adv-x="1733" 
d="M478 86q-161 102 -244 283.5t-83 415.5t83 415.5t244 284t387 102.5q227 0 389 -102.5t245.5 -284t83.5 -415.5t-83.5 -415.5t-245.5 -283.5t-389 -102q-226 0 -387 102zM1173 204q127 85 192 235.5t65 345.5t-65 345.5t-192 235.5t-308 85q-179 0 -305.5 -85
t-191.5 -236t-65 -345t65 -345t191.5 -236t305.5 -85q181 0 308 85zM865 2051l336 -354h-123l-213 211l-212 -211h-122z" />
    <glyph glyph-name="Otilde" unicode="&#xd5;" horiz-adv-x="1733" 
d="M478 86q-161 102 -244 283.5t-83 415.5t83 415.5t244 284t387 102.5q227 0 389 -102.5t245.5 -284t83.5 -415.5t-83.5 -415.5t-245.5 -283.5t-389 -102q-226 0 -387 102zM1173 204q127 85 192 235.5t65 345.5t-65 345.5t-192 235.5t-308 85q-179 0 -305.5 -85
t-191.5 -236t-65 -345t65 -345t191.5 -236t305.5 -85q181 0 308 85zM942 1762.5q-35 16.5 -57.5 39.5t-50.5 59q-33 43 -58 63.5t-62 20.5q-54 1 -84 -47t-30 -132h-89q0 129 55.5 201.5t151.5 72.5q43 0 75.5 -15.5t54.5 -38t49 -57.5q36 -45 62 -66t65 -21q47 0 76 51
t29 137h93q0 -87 -24.5 -151t-69 -98.5t-104.5 -34.5q-47 0 -82 16.5z" />
    <glyph glyph-name="Odieresis" unicode="&#xd6;" horiz-adv-x="1733" 
d="M478 86q-161 102 -244 283.5t-83 415.5t83 415.5t244 284t387 102.5q227 0 389 -102.5t245.5 -284t83.5 -415.5t-83.5 -415.5t-245.5 -283.5t-389 -102q-226 0 -387 102zM1173 204q127 85 192 235.5t65 345.5t-65 345.5t-192 235.5t-308 85q-179 0 -305.5 -85
t-191.5 -236t-65 -345t65 -345t191.5 -236t305.5 -85q181 0 308 85zM584.5 1760.5q-32.5 33.5 -32.5 80.5q0 45 32.5 77t78.5 32t78.5 -32t32.5 -77q0 -47 -32.5 -80.5t-78.5 -33.5t-78.5 33.5zM990.5 1760.5q-32.5 33.5 -32.5 80.5q0 45 32.5 77t79.5 32q45 0 78 -32
t33 -77q0 -47 -33 -80.5t-78 -33.5q-47 0 -79.5 33.5z" />
    <glyph glyph-name="multiply" unicode="&#xd7;" horiz-adv-x="1275" 
d="M638 588l-361 -362l-80 80l361 362l-362 362l81 80l362 -362l360 361l80 -80l-360 -361l362 -362l-80 -81z" />
    <glyph glyph-name="Oslash" unicode="&#xd8;" horiz-adv-x="1733" 
d="M1519.5 1153.5q63.5 -164.5 63.5 -368.5q0 -234 -83.5 -415.5t-245.5 -283.5t-389 -102q-210 0 -371 92l-75 -121l-100 62l80 128q-121 106 -184.5 271t-63.5 369q0 234 83 415.5t244 284t387 102.5q214 0 376 -95l75 121l98 -61l-79 -128q121 -106 184.5 -270.5z
M347.5 493q44.5 -132 130.5 -221l687 1099q-129 80 -300 80q-179 0 -305.5 -85t-191.5 -236t-65 -345q0 -160 44.5 -292zM1173 204q127 85 192 235.5t65 345.5q0 161 -44.5 292.5t-130.5 219.5l-685 -1100q126 -78 295 -78q181 0 308 85z" />
    <glyph glyph-name="Ugrave" unicode="&#xd9;" horiz-adv-x="1571" 
d="M537 23.5q-109 39.5 -181 114.5q-67 71 -100.5 171.5t-33.5 251.5v1009h153v-1004q0 -110 21 -187t71 -134q51 -60 132 -93t187 -33t186.5 32.5t133.5 93.5q47 54 68.5 128.5t21.5 192.5v1004h153v-1009q0 -151 -31.5 -250.5t-101.5 -172.5q-72 -75 -180.5 -114.5
t-249.5 -39.5q-140 0 -249 39.5zM452 2030h158l235 -317h-116z" />
    <glyph glyph-name="Uacute" unicode="&#xda;" horiz-adv-x="1571" 
d="M537 23.5q-109 39.5 -181 114.5q-67 71 -100.5 171.5t-33.5 251.5v1009h153v-1004q0 -110 21 -187t71 -134q51 -60 132 -93t187 -33t186.5 32.5t133.5 93.5q47 54 68.5 128.5t21.5 192.5v1004h153v-1009q0 -151 -31.5 -250.5t-101.5 -172.5q-72 -75 -180.5 -114.5
t-249.5 -39.5q-140 0 -249 39.5zM972 2030h158l-287 -317h-113z" />
    <glyph glyph-name="Ucircumflex" unicode="&#xdb;" horiz-adv-x="1571" 
d="M537 23.5q-109 39.5 -181 114.5q-67 71 -100.5 171.5t-33.5 251.5v1009h153v-1004q0 -110 21 -187t71 -134q51 -60 132 -93t187 -33t186.5 32.5t133.5 93.5q47 54 68.5 128.5t21.5 192.5v1004h153v-1009q0 -151 -31.5 -250.5t-101.5 -172.5q-72 -75 -180.5 -114.5
t-249.5 -39.5q-140 0 -249 39.5zM785 2051l336 -354h-123l-213 211l-212 -211h-122z" />
    <glyph glyph-name="Udieresis" unicode="&#xdc;" horiz-adv-x="1571" 
d="M537 23.5q-109 39.5 -181 114.5q-67 71 -100.5 171.5t-33.5 251.5v1009h153v-1004q0 -110 21 -187t71 -134q51 -60 132 -93t187 -33t186.5 32.5t133.5 93.5q47 54 68.5 128.5t21.5 192.5v1004h153v-1009q0 -151 -31.5 -250.5t-101.5 -172.5q-72 -75 -180.5 -114.5
t-249.5 -39.5q-140 0 -249 39.5zM504.5 1760.5q-32.5 33.5 -32.5 80.5q0 45 32.5 77t78.5 32t78.5 -32t32.5 -77q0 -47 -32.5 -80.5t-78.5 -33.5t-78.5 33.5zM910.5 1760.5q-32.5 33.5 -32.5 80.5q0 45 32.5 77t79.5 32q45 0 78 -32t33 -77q0 -47 -33 -80.5t-78 -33.5
q-47 0 -79.5 33.5z" />
    <glyph glyph-name="Yacute" unicode="&#xdd;" horiz-adv-x="1489" 
d="M667 585l-598 985h177l495 -820h7l495 820h178l-601 -985v-585h-153v585zM930 2030h158l-287 -317h-113z" />
    <glyph glyph-name="Thorn" unicode="&#xde;" horiz-adv-x="1327" 
d="M253 1570h153v-225h324q154 0 262 -53t164.5 -152t56.5 -237q0 -142 -57.5 -241t-165.5 -150t-260 -51h-324v-461h-153v1570zM720 605q167 0 254 76.5t87 223.5q0 155 -95.5 225.5t-245.5 70.5h-314v-596h314z" />
    <glyph glyph-name="germandbls" unicode="&#xdf;" horiz-adv-x="1350" 
d="M676 0q-66 16 -137 45l52 127q117 -53 215 -53q75 0 130 28t84.5 79.5t29.5 118.5q0 55 -23 98.5t-56.5 74.5t-90.5 76q-57 44 -90 75t-56 74t-23 98q0 48 17 83t40.5 58t65.5 55q42 31 66.5 55t41.5 59.5t17 84.5q0 70 -38 120.5t-104.5 77t-152.5 26.5
q-174 0 -244.5 -104.5t-70.5 -265.5v-1090h-146v1090q0 153 55 265t159 172t247 60q125 0 225.5 -43t158 -122.5t57.5 -184.5q0 -74 -24 -125.5t-57.5 -83t-84.5 -67.5q-48 -35 -70 -58.5t-22 -56.5q0 -38 29.5 -69t95.5 -80q69 -51 114 -94t78 -107t33 -149
q0 -108 -49 -190.5t-137 -127.5t-202 -45q-67 0 -133 16z" />
    <glyph glyph-name="agrave" unicode="&#xe0;" 
d="M1008.5 858q17.5 -75 17.5 -191v-667h-148v172h-12q-43 -80 -140 -129q-103 -59 -236 -59q-119 0 -206.5 41t-134.5 117t-47 179q0 104 39.5 171.5t115.5 105.5q55 28 123.5 38.5t177.5 10.5h320v11q0 105 -16.5 167.5t-54.5 100.5t-98.5 57t-133.5 19q-102 0 -187 -40.5
t-162 -126.5l-91 99q96 99 203.5 146t236.5 47q126 0 219 -35t149 -102q48 -57 65.5 -132zM842.5 297q23.5 54 29.5 105.5t6 119.5h-311q-100 0 -154 -9t-91 -33q-33 -22 -53 -61.5t-20 -97.5q0 -101 69.5 -160t195.5 -59q155 0 257 97q48 44 71.5 98zM263 1570h158
l235 -317h-116z" />
    <glyph glyph-name="aacute" unicode="&#xe1;" 
d="M1008.5 858q17.5 -75 17.5 -191v-667h-148v172h-12q-43 -80 -140 -129q-103 -59 -236 -59q-119 0 -206.5 41t-134.5 117t-47 179q0 104 39.5 171.5t115.5 105.5q55 28 123.5 38.5t177.5 10.5h320v11q0 105 -16.5 167.5t-54.5 100.5t-98.5 57t-133.5 19q-102 0 -187 -40.5
t-162 -126.5l-91 99q96 99 203.5 146t236.5 47q126 0 219 -35t149 -102q48 -57 65.5 -132zM842.5 297q23.5 54 29.5 105.5t6 119.5h-311q-100 0 -154 -9t-91 -33q-33 -22 -53 -61.5t-20 -97.5q0 -101 69.5 -160t195.5 -59q155 0 257 97q48 44 71.5 98zM783 1570h158
l-287 -317h-113z" />
    <glyph glyph-name="acircumflex" unicode="&#xe2;" 
d="M1008.5 858q17.5 -75 17.5 -191v-667h-148v172h-12q-43 -80 -140 -129q-103 -59 -236 -59q-119 0 -206.5 41t-134.5 117t-47 179q0 104 39.5 171.5t115.5 105.5q55 28 123.5 38.5t177.5 10.5h320v11q0 105 -16.5 167.5t-54.5 100.5t-98.5 57t-133.5 19q-102 0 -187 -40.5
t-162 -126.5l-91 99q96 99 203.5 146t236.5 47q126 0 219 -35t149 -102q48 -57 65.5 -132zM842.5 297q23.5 54 29.5 105.5t6 119.5h-311q-100 0 -154 -9t-91 -33q-33 -22 -53 -61.5t-20 -97.5q0 -101 69.5 -160t195.5 -59q155 0 257 97q48 44 71.5 98zM596 1591l336 -354
h-123l-213 211l-212 -211h-122z" />
    <glyph glyph-name="atilde" unicode="&#xe3;" 
d="M1008.5 858q17.5 -75 17.5 -191v-667h-148v172h-12q-43 -80 -140 -129q-103 -59 -236 -59q-119 0 -206.5 41t-134.5 117t-47 179q0 104 39.5 171.5t115.5 105.5q55 28 123.5 38.5t177.5 10.5h320v11q0 105 -16.5 167.5t-54.5 100.5t-98.5 57t-133.5 19q-102 0 -187 -40.5
t-162 -126.5l-91 99q96 99 203.5 146t236.5 47q126 0 219 -35t149 -102q48 -57 65.5 -132zM842.5 297q23.5 54 29.5 105.5t6 119.5h-311q-100 0 -154 -9t-91 -33q-33 -22 -53 -61.5t-20 -97.5q0 -101 69.5 -160t195.5 -59q155 0 257 97q48 44 71.5 98zM673 1302.5
q-35 16.5 -57.5 39.5t-50.5 59q-33 43 -58 63.5t-62 20.5q-54 1 -84 -47t-30 -132h-89q0 129 55.5 201.5t151.5 72.5q43 0 75.5 -15.5t54.5 -38t49 -57.5q36 -45 62 -66t65 -21q47 0 76 51t29 137h93q0 -87 -24.5 -151t-69 -98.5t-104.5 -34.5q-47 0 -82 16.5z" />
    <glyph glyph-name="adieresis" unicode="&#xe4;" 
d="M1008.5 858q17.5 -75 17.5 -191v-667h-148v172h-12q-43 -80 -140 -129q-103 -59 -236 -59q-119 0 -206.5 41t-134.5 117t-47 179q0 104 39.5 171.5t115.5 105.5q55 28 123.5 38.5t177.5 10.5h320v11q0 105 -16.5 167.5t-54.5 100.5t-98.5 57t-133.5 19q-102 0 -187 -40.5
t-162 -126.5l-91 99q96 99 203.5 146t236.5 47q126 0 219 -35t149 -102q48 -57 65.5 -132zM842.5 297q23.5 54 29.5 105.5t6 119.5h-311q-100 0 -154 -9t-91 -33q-33 -22 -53 -61.5t-20 -97.5q0 -101 69.5 -160t195.5 -59q155 0 257 97q48 44 71.5 98zM315 1402.5
q-32 32.5 -32 79.5q0 45 32.5 78t78.5 33t78.5 -33t32.5 -78q0 -47 -32.5 -79.5t-78.5 -32.5q-47 0 -79 32.5zM721.5 1402.5q-32.5 32.5 -32.5 79.5q0 45 32.5 78t79.5 33q45 0 78 -33t33 -78q0 -47 -33 -79.5t-78 -32.5q-47 0 -79.5 32.5z" />
    <glyph glyph-name="aring" unicode="&#xe5;" 
d="M1008.5 858q17.5 -75 17.5 -191v-667h-148v172h-12q-43 -80 -140 -129q-103 -59 -236 -59q-119 0 -206.5 41t-134.5 117t-47 179q0 104 39.5 171.5t115.5 105.5q55 28 123.5 38.5t177.5 10.5h320v11q0 105 -16.5 167.5t-54.5 100.5t-98.5 57t-133.5 19q-102 0 -187 -40.5
t-162 -126.5l-91 99q96 99 203.5 146t236.5 47q126 0 219 -35t149 -102q48 -57 65.5 -132zM842.5 297q23.5 54 29.5 105.5t6 119.5h-311q-100 0 -154 -9t-91 -33q-33 -22 -53 -61.5t-20 -97.5q0 -101 69.5 -160t195.5 -59q155 0 257 97q48 44 71.5 98zM487.5 1245
q-49.5 29 -78 79t-28.5 108q0 59 29 108.5t78.5 78.5t108.5 29q57 0 107 -29t79.5 -79t29.5 -108q0 -59 -29 -108.5t-78.5 -78.5t-108.5 -29q-60 0 -109.5 29zM691 1338.5q38 38.5 38 95.5q0 55 -37.5 92.5t-94.5 37.5t-94.5 -37.5t-37.5 -92.5q0 -57 38 -95.5t94 -38.5
t94 38.5z" />
    <glyph glyph-name="ae" unicode="&#xe6;" horiz-adv-x="1970" 
d="M283.5 24q-89.5 40 -138.5 116.5t-49 180.5q0 164 121.5 237t354.5 73h309v51q0 155 -79 235.5t-225 80.5q-105 0 -187 -43t-152 -132l-109 88q91 108 202 162t246 54q154 0 252.5 -69t134.5 -203l12 2q55 128 160.5 199t252.5 71q166 0 272.5 -78t154 -195.5
t47.5 -240.5q0 -28 -2 -61t-5 -46h-819q9 -187 103 -288t262 -101q101 0 176 32t149 110l102 -92q-93 -97 -193 -140t-229 -43q-161 0 -274.5 71t-170.5 202h-13q-83 -145 -202 -209t-256 -64q-118 0 -207.5 40zM1716 631q2 37 -2 64q-7 80 -45.5 149.5t-111 113.5
t-176.5 44q-149 0 -238.5 -100t-105.5 -271h679zM748.5 188q102.5 79 140.5 222q-8 40 -8 96h-301q-144 0 -239.5 -37t-95.5 -153q0 -95 69.5 -151t191.5 -56q140 0 242.5 79z" />
    <glyph glyph-name="ccedilla" unicode="&#xe7;" horiz-adv-x="1134" 
d="M796 177q80 60 113 163l133 -50q-48 -138 -154.5 -218t-250.5 -87l-74 -119q36 -5 55 -13q53 -19 82 -58t29 -93q0 -49 -26.5 -89t-72.5 -63t-103 -23q-48 0 -96.5 17.5t-91.5 52.5l42 70q33 -32 73 -47t78 -15q54 0 86 27.5t32 69.5q0 34 -21.5 59t-61.5 37
q-40 13 -110 13l102 175q-140 13 -241 90.5t-153.5 202t-52.5 274.5q0 151 56 282t167.5 211.5t271.5 80.5q154 0 270 -78t177 -226l-139 -56q-40 106 -121 166t-187 60q-114 0 -192.5 -61t-117 -161t-38.5 -218q0 -119 38.5 -218t117 -158.5t193.5 -59.5q108 0 188 60z" />
    <glyph glyph-name="egrave" unicode="&#xe8;" 
d="M1091.5 557.5q-2.5 -28.5 -6.5 -42.5h-819q4 -124 48 -215.5t125 -141t192 -49.5q104 0 178.5 33t146.5 117l104 -92q-94 -97 -195 -140t-235 -43q-163 0 -280 74t-177.5 202.5t-60.5 289.5q0 160 59 291t172 208.5t269 77.5q170 0 278.5 -78t156 -195t47.5 -240
q0 -28 -2.5 -56.5zM439.5 954q-75.5 -48 -119.5 -130t-52 -184h678q0 23 -1 34q-6 95 -44.5 168.5t-111 116.5t-176.5 43q-98 0 -173.5 -48zM266 1570h158l235 -317h-116z" />
    <glyph glyph-name="eacute" unicode="&#xe9;" 
d="M1091.5 557.5q-2.5 -28.5 -6.5 -42.5h-819q4 -124 48 -215.5t125 -141t192 -49.5q104 0 178.5 33t146.5 117l104 -92q-94 -97 -195 -140t-235 -43q-163 0 -280 74t-177.5 202.5t-60.5 289.5q0 160 59 291t172 208.5t269 77.5q170 0 278.5 -78t156 -195t47.5 -240
q0 -28 -2.5 -56.5zM439.5 954q-75.5 -48 -119.5 -130t-52 -184h678q0 23 -1 34q-6 95 -44.5 168.5t-111 116.5t-176.5 43q-98 0 -173.5 -48zM786 1570h158l-287 -317h-113z" />
    <glyph glyph-name="ecircumflex" unicode="&#xea;" 
d="M1091.5 557.5q-2.5 -28.5 -6.5 -42.5h-819q4 -124 48 -215.5t125 -141t192 -49.5q104 0 178.5 33t146.5 117l104 -92q-94 -97 -195 -140t-235 -43q-163 0 -280 74t-177.5 202.5t-60.5 289.5q0 160 59 291t172 208.5t269 77.5q170 0 278.5 -78t156 -195t47.5 -240
q0 -28 -2.5 -56.5zM439.5 954q-75.5 -48 -119.5 -130t-52 -184h678q0 23 -1 34q-6 95 -44.5 168.5t-111 116.5t-176.5 43q-98 0 -173.5 -48zM599 1591l336 -354h-123l-213 211l-212 -211h-122z" />
    <glyph glyph-name="edieresis" unicode="&#xeb;" 
d="M1091.5 557.5q-2.5 -28.5 -6.5 -42.5h-819q4 -124 48 -215.5t125 -141t192 -49.5q104 0 178.5 33t146.5 117l104 -92q-94 -97 -195 -140t-235 -43q-163 0 -280 74t-177.5 202.5t-60.5 289.5q0 160 59 291t172 208.5t269 77.5q170 0 278.5 -78t156 -195t47.5 -240
q0 -28 -2.5 -56.5zM439.5 954q-75.5 -48 -119.5 -130t-52 -184h678q0 23 -1 34q-6 95 -44.5 168.5t-111 116.5t-176.5 43q-98 0 -173.5 -48zM318 1402.5q-32 32.5 -32 79.5q0 45 32.5 78t78.5 33t78.5 -33t32.5 -78q0 -47 -32.5 -79.5t-78.5 -32.5q-47 0 -79 32.5z
M724.5 1402.5q-32.5 32.5 -32.5 79.5q0 45 32.5 78t79.5 33q45 0 78 -33t33 -78q0 -47 -33 -79.5t-78 -32.5q-47 0 -79.5 32.5z" />
    <glyph glyph-name="igrave" unicode="&#xec;" horiz-adv-x="549" 
d="M201 1110h147v-1110h-147v1110zM-60 1570h158l235 -317h-116z" />
    <glyph glyph-name="iacute" unicode="&#xed;" horiz-adv-x="549" 
d="M201 1110h147v-1110h-147v1110zM460 1570h158l-287 -317h-113z" />
    <glyph glyph-name="icircumflex" unicode="&#xee;" horiz-adv-x="549" 
d="M201 1110h147v-1110h-147v1110zM273 1591l336 -354h-123l-213 211l-212 -211h-122z" />
    <glyph glyph-name="idieresis" unicode="&#xef;" horiz-adv-x="549" 
d="M201 1110h147v-1110h-147v1110zM-8 1402.5q-32 32.5 -32 79.5q0 45 32.5 78t78.5 33t78.5 -33t32.5 -78q0 -47 -32.5 -79.5t-78.5 -32.5q-47 0 -79 32.5zM398.5 1402.5q-32.5 32.5 -32.5 79.5q0 45 32.5 78t79.5 33q45 0 78 -33t33 -78q0 -47 -33 -79.5t-78 -32.5
q-47 0 -79.5 32.5z" />
    <glyph glyph-name="eth" unicode="&#xf0;" horiz-adv-x="1249" 
d="M354 55q-122 71 -192.5 190.5t-70.5 259.5q0 141 72 257.5t194.5 183.5t266.5 67q51 0 98 -17t84 -48l-200 338l-124 -141h-87l174 199l-141 226h161l76 -121l104 121h88l-153 -172l319 -541q75 -124 104 -202t29 -154q0 -141 -71.5 -259.5t-193.5 -188t-267 -69.5
q-148 0 -270 71zM816 176.5q88 50.5 139.5 137.5t51.5 191q0 101 -52 187.5t-140 137.5t-191 51t-191.5 -51t-140.5 -137.5t-52 -187.5q0 -103 52 -190t140.5 -138t191.5 -51q104 0 192 50.5z" />
    <glyph glyph-name="ntilde" unicode="&#xf1;" horiz-adv-x="1257" 
d="M201 1110h147v-138h12q44 68 132 111.5t203 43.5q82 0 148 -21.5t113 -61.5q64 -55 94.5 -143t30.5 -231v-670h-147v631q0 121 -19.5 191t-62.5 112q-73 68 -203 68q-139 0 -218 -85q-43 -46 -63 -116t-20 -182v-619h-147v1110zM705 1302.5q-35 16.5 -57.5 39.5t-50.5 59
q-33 43 -58 63.5t-62 20.5q-54 1 -84 -47t-30 -132h-89q0 129 55.5 201.5t151.5 72.5q43 0 75.5 -15.5t54.5 -38t49 -57.5q36 -45 62 -66t65 -21q47 0 76 51t29 137h93q0 -87 -24.5 -151t-69 -98.5t-104.5 -34.5q-47 0 -82 16.5z" />
    <glyph glyph-name="ograve" unicode="&#xf2;" horiz-adv-x="1287" 
d="M365.5 54q-120.5 70 -187.5 200t-67 304q0 173 66.5 302t187.5 198t278 69q158 0 278.5 -69t187.5 -198t67 -302q0 -174 -67 -304t-188 -200t-278 -70t-277.5 70zM849 164q87 55 133.5 156.5t46.5 237.5q0 134 -46.5 234.5t-133.5 155t-206 54.5t-206 -54t-133 -154.5
t-46 -235.5q0 -136 46 -237.5t133 -156.5t206 -55t206 55zM308 1570h158l235 -317h-116z" />
    <glyph glyph-name="oacute" unicode="&#xf3;" horiz-adv-x="1287" 
d="M365.5 54q-120.5 70 -187.5 200t-67 304q0 173 66.5 302t187.5 198t278 69q158 0 278.5 -69t187.5 -198t67 -302q0 -174 -67 -304t-188 -200t-278 -70t-277.5 70zM849 164q87 55 133.5 156.5t46.5 237.5q0 134 -46.5 234.5t-133.5 155t-206 54.5t-206 -54t-133 -154.5
t-46 -235.5q0 -136 46 -237.5t133 -156.5t206 -55t206 55zM828 1570h158l-287 -317h-113z" />
    <glyph glyph-name="ocircumflex" unicode="&#xf4;" horiz-adv-x="1287" 
d="M365.5 54q-120.5 70 -187.5 200t-67 304q0 173 66.5 302t187.5 198t278 69q158 0 278.5 -69t187.5 -198t67 -302q0 -174 -67 -304t-188 -200t-278 -70t-277.5 70zM849 164q87 55 133.5 156.5t46.5 237.5q0 134 -46.5 234.5t-133.5 155t-206 54.5t-206 -54t-133 -154.5
t-46 -235.5q0 -136 46 -237.5t133 -156.5t206 -55t206 55zM641 1591l336 -354h-123l-213 211l-212 -211h-122z" />
    <glyph glyph-name="otilde" unicode="&#xf5;" horiz-adv-x="1287" 
d="M365.5 54q-120.5 70 -187.5 200t-67 304q0 173 66.5 302t187.5 198t278 69q158 0 278.5 -69t187.5 -198t67 -302q0 -174 -67 -304t-188 -200t-278 -70t-277.5 70zM849 164q87 55 133.5 156.5t46.5 237.5q0 134 -46.5 234.5t-133.5 155t-206 54.5t-206 -54t-133 -154.5
t-46 -235.5q0 -136 46 -237.5t133 -156.5t206 -55t206 55zM718 1302.5q-35 16.5 -57.5 39.5t-50.5 59q-33 43 -58 63.5t-62 20.5q-54 1 -84 -47t-30 -132h-89q0 129 55.5 201.5t151.5 72.5q43 0 75.5 -15.5t54.5 -38t49 -57.5q36 -45 62 -66t65 -21q47 0 76 51t29 137h93
q0 -87 -24.5 -151t-69 -98.5t-104.5 -34.5q-47 0 -82 16.5z" />
    <glyph glyph-name="odieresis" unicode="&#xf6;" horiz-adv-x="1287" 
d="M365.5 54q-120.5 70 -187.5 200t-67 304q0 173 66.5 302t187.5 198t278 69q158 0 278.5 -69t187.5 -198t67 -302q0 -174 -67 -304t-188 -200t-278 -70t-277.5 70zM849 164q87 55 133.5 156.5t46.5 237.5q0 134 -46.5 234.5t-133.5 155t-206 54.5t-206 -54t-133 -154.5
t-46 -235.5q0 -136 46 -237.5t133 -156.5t206 -55t206 55zM360 1402.5q-32 32.5 -32 79.5q0 45 32.5 78t78.5 33t78.5 -33t32.5 -78q0 -47 -32.5 -79.5t-78.5 -32.5q-47 0 -79 32.5zM766.5 1402.5q-32.5 32.5 -32.5 79.5q0 45 32.5 78t79.5 33q45 0 78 -33t33 -78
q0 -47 -33 -79.5t-78 -32.5q-47 0 -79.5 32.5z" />
    <glyph glyph-name="divide" unicode="&#xf7;" horiz-adv-x="1275" 
d="M540.5 997q-32.5 33 -32.5 80q0 45 32.5 77t79.5 32q45 0 77.5 -32t32.5 -77q0 -47 -32.5 -80t-77.5 -33q-47 0 -79.5 33zM231 756h807v-115h-807v115zM540.5 221.5q-32.5 33.5 -32.5 80.5q0 45 32.5 77.5t79.5 32.5q45 0 77.5 -32.5t32.5 -77.5q0 -47 -32.5 -80.5
t-77.5 -33.5q-47 0 -79.5 33.5z" />
    <glyph glyph-name="oslash" unicode="&#xf8;" horiz-adv-x="1287" 
d="M1128.5 817.5q47.5 -114.5 47.5 -259.5q0 -174 -67 -304t-188 -200t-278 -70q-142 0 -252 56l-84 -134l-101 62l86 138q-87 75 -134 190.5t-47 261.5q0 173 66.5 302t187.5 198t278 69q140 0 253 -55l81 130l100 -61l-83 -134q87 -75 134.5 -189.5zM285.5 368
q27.5 -85 80.5 -144l460 736q-78 42 -183 42q-119 0 -206 -54t-133 -154.5t-46 -235.5q0 -105 27.5 -190zM849 164q87 55 133.5 156.5t46.5 237.5q0 103 -28 187.5t-81 143.5l-460 -738q81 -42 183 -42q119 0 206 55z" />
    <glyph glyph-name="ugrave" unicode="&#xf9;" horiz-adv-x="1256" 
d="M413 5.5q-66 21.5 -113 60.5q-64 55 -95 143t-31 231v670h147v-630q0 -122 19.5 -191.5t63.5 -111.5q73 -68 203 -68q139 0 217 84q44 47 63.5 116.5t19.5 182.5v618h148v-1110h-148v139h-11q-44 -68 -132.5 -111.5t-202.5 -43.5q-82 0 -148 21.5zM291 1570h158l235 -317
h-116z" />
    <glyph glyph-name="uacute" unicode="&#xfa;" horiz-adv-x="1256" 
d="M413 5.5q-66 21.5 -113 60.5q-64 55 -95 143t-31 231v670h147v-630q0 -122 19.5 -191.5t63.5 -111.5q73 -68 203 -68q139 0 217 84q44 47 63.5 116.5t19.5 182.5v618h148v-1110h-148v139h-11q-44 -68 -132.5 -111.5t-202.5 -43.5q-82 0 -148 21.5zM811 1570h158
l-287 -317h-113z" />
    <glyph glyph-name="ucircumflex" unicode="&#xfb;" horiz-adv-x="1256" 
d="M413 5.5q-66 21.5 -113 60.5q-64 55 -95 143t-31 231v670h147v-630q0 -122 19.5 -191.5t63.5 -111.5q73 -68 203 -68q139 0 217 84q44 47 63.5 116.5t19.5 182.5v618h148v-1110h-148v139h-11q-44 -68 -132.5 -111.5t-202.5 -43.5q-82 0 -148 21.5zM624 1591l336 -354
h-123l-213 211l-212 -211h-122z" />
    <glyph glyph-name="udieresis" unicode="&#xfc;" horiz-adv-x="1256" 
d="M413 5.5q-66 21.5 -113 60.5q-64 55 -95 143t-31 231v670h147v-630q0 -122 19.5 -191.5t63.5 -111.5q73 -68 203 -68q139 0 217 84q44 47 63.5 116.5t19.5 182.5v618h148v-1110h-148v139h-11q-44 -68 -132.5 -111.5t-202.5 -43.5q-82 0 -148 21.5zM343 1402.5
q-32 32.5 -32 79.5q0 45 32.5 78t78.5 33t78.5 -33t32.5 -78q0 -47 -32.5 -79.5t-78.5 -32.5q-47 0 -79 32.5zM749.5 1402.5q-32.5 32.5 -32.5 79.5q0 45 32.5 78t79.5 33q45 0 78 -33t33 -78q0 -47 -33 -79.5t-78 -32.5q-47 0 -79.5 32.5z" />
    <glyph glyph-name="yacute" unicode="&#xfd;" horiz-adv-x="1136" 
d="M489 15l-445 1095h161l358 -922h8l359 922h162l-635 -1570h-160zM754 1570h158l-287 -317h-113z" />
    <glyph glyph-name="thorn" unicode="&#xfe;" horiz-adv-x="1358" 
d="M205 1570h147v-633h12q60 89 158 139.5t220 50.5q151 0 264.5 -69.5t175 -198.5t61.5 -304t-61.5 -304t-173.5 -198t-259 -69q-129 0 -227.5 52.5t-157.5 143.5h-12v-640h-147v2030zM916 162.5q85 53.5 132.5 154.5t47.5 238q0 138 -48 239t-133 154.5t-195 53.5
q-112 0 -198.5 -55.5t-134 -157t-47.5 -234.5t47.5 -234t133.5 -156.5t199 -55.5q111 0 196 53.5z" />
    <glyph glyph-name="ydieresis" unicode="&#xff;" horiz-adv-x="1136" 
d="M489 15l-445 1095h161l358 -922h8l359 922h162l-635 -1570h-160zM286 1402.5q-32 32.5 -32 79.5q0 45 32.5 78t78.5 33t78.5 -33t32.5 -78q0 -47 -32.5 -79.5t-78.5 -32.5q-47 0 -79 32.5zM692.5 1402.5q-32.5 32.5 -32.5 79.5q0 45 32.5 78t79.5 33q45 0 78 -33t33 -78
q0 -47 -33 -79.5t-78 -32.5q-47 0 -79.5 32.5z" />
    <glyph glyph-name="Amacron" unicode="&#x100;" horiz-adv-x="1461" 
d="M1084 377h-704l-129 -377h-167l557 1570h179l557 -1570h-165zM1038 513l-300 882h-9l-302 -882h611zM428 1907h608v-91h-608v91z" />
    <glyph glyph-name="amacron" unicode="&#x101;" 
d="M1008.5 858q17.5 -75 17.5 -191v-667h-148v172h-12q-43 -80 -140 -129q-103 -59 -236 -59q-119 0 -206.5 41t-134.5 117t-47 179q0 104 39.5 171.5t115.5 105.5q55 28 123.5 38.5t177.5 10.5h320v11q0 105 -16.5 167.5t-54.5 100.5t-98.5 57t-133.5 19q-102 0 -187 -40.5
t-162 -126.5l-91 99q96 99 203.5 146t236.5 47q126 0 219 -35t149 -102q48 -57 65.5 -132zM842.5 297q23.5 54 29.5 105.5t6 119.5h-311q-100 0 -154 -9t-91 -33q-33 -22 -53 -61.5t-20 -97.5q0 -101 69.5 -160t195.5 -59q155 0 257 97q48 44 71.5 98zM294 1447h608v-91
h-608v91z" />
    <glyph glyph-name="Abreve" unicode="&#x102;" horiz-adv-x="1461" 
d="M1084 377h-704l-129 -377h-167l557 1570h179l557 -1570h-165zM1038 513l-300 882h-9l-302 -882h611zM478.5 1804.5q-85.5 80.5 -85.5 225.5h106q0 -108 60.5 -161.5t171.5 -53.5t171 54t60 161h108q0 -147 -87 -226.5t-252 -79.5q-167 0 -252.5 80.5z" />
    <glyph glyph-name="abreve" unicode="&#x103;" 
d="M1008.5 858q17.5 -75 17.5 -191v-667h-148v172h-12q-43 -80 -140 -129q-103 -59 -236 -59q-119 0 -206.5 41t-134.5 117t-47 179q0 104 39.5 171.5t115.5 105.5q55 28 123.5 38.5t177.5 10.5h320v11q0 105 -16.5 167.5t-54.5 100.5t-98.5 57t-133.5 19q-102 0 -187 -40.5
t-162 -126.5l-91 99q96 99 203.5 146t236.5 47q126 0 219 -35t149 -102q48 -57 65.5 -132zM842.5 297q23.5 54 29.5 105.5t6 119.5h-311q-100 0 -154 -9t-91 -33q-33 -22 -53 -61.5t-20 -97.5q0 -101 69.5 -160t195.5 -59q155 0 257 97q48 44 71.5 98zM344.5 1344.5
q-85.5 80.5 -85.5 225.5h106q0 -108 60.5 -161.5t171.5 -53.5t171 54t60 161h108q0 -147 -87 -226.5t-252 -79.5q-167 0 -252.5 80.5z" />
    <glyph glyph-name="Aogonek" unicode="&#x104;" horiz-adv-x="1461" 
d="M1243.5 -344q45.5 -35 133.5 -35v-95q-142 0 -218.5 51.5t-76.5 137.5q0 68 49.5 143t140.5 142h-60l-128 377h-704l-129 -377h-167l557 1570h179l557 -1570q-85 -57 -132 -123.5t-47 -124.5q0 -61 45.5 -96zM1038 513l-300 882h-9l-302 -882h611z" />
    <glyph glyph-name="aogonek" unicode="&#x105;" 
d="M894 -123.5q-47 -66.5 -47 -124.5q0 -61 45.5 -96t133.5 -35v-95q-142 0 -218.5 51.5t-76.5 137.5q0 68 49.5 143t140.5 142h-43v172h-12q-43 -80 -140 -129q-103 -59 -236 -59q-119 0 -206.5 41t-134.5 117t-47 179q0 104 39.5 171.5t115.5 105.5q55 28 123.5 38.5
t177.5 10.5h320v11q0 105 -16.5 167.5t-54.5 100.5t-98.5 57t-133.5 19q-102 0 -187 -40.5t-162 -126.5l-91 99q96 99 203.5 146t236.5 47q126 0 219 -35t149 -102q48 -57 65.5 -132t17.5 -191v-667q-85 -57 -132 -123.5zM842.5 297q23.5 54 29.5 105.5t6 119.5h-311
q-100 0 -154 -9t-91 -33q-33 -22 -53 -61.5t-20 -97.5q0 -101 69.5 -160t195.5 -59q155 0 257 97q48 44 71.5 98z" />
    <glyph glyph-name="Cacute" unicode="&#x106;" horiz-adv-x="1633" 
d="M481 80.5q-159 96.5 -243 277.5t-84 430t85 429t246 275t385 95q243 0 403.5 -108.5t239.5 -319.5l-144 -55q-124 347 -499 347q-177 0 -304 -78.5t-193.5 -227.5t-66.5 -357q0 -200 62.5 -350.5t186.5 -234.5t305 -84q188 0 317 91.5t196 266.5l148 -46
q-82 -219 -249 -333t-412 -114q-220 0 -379 96.5zM1006 2030h158l-287 -317h-113z" />
    <glyph glyph-name="cacute" unicode="&#x107;" horiz-adv-x="1134" 
d="M342.5 59.5q-112.5 75.5 -171.5 205t-59 288.5q0 151 56 282t167.5 211.5t271.5 80.5q154 0 270 -78t177 -226l-139 -56q-40 106 -121 166t-187 60q-114 0 -192.5 -61t-117 -161t-38.5 -218q0 -119 38.5 -218t117 -158.5t193.5 -59.5q108 0 188 60t113 163l133 -50
q-50 -145 -164.5 -225.5t-268.5 -80.5t-266.5 75.5zM793 1570h158l-287 -317h-113z" />
    <glyph glyph-name="Cdotaccent" unicode="&#x10a;" horiz-adv-x="1633" 
d="M481 80.5q-159 96.5 -243 277.5t-84 430t85 429t246 275t385 95q243 0 403.5 -108.5t239.5 -319.5l-144 -55q-124 347 -499 347q-177 0 -304 -78.5t-193.5 -227.5t-66.5 -357q0 -200 62.5 -350.5t186.5 -234.5t305 -84q188 0 317 91.5t196 266.5l148 -46
q-82 -219 -249 -333t-412 -114q-220 0 -379 96.5zM742.5 1760.5q-32.5 33.5 -32.5 80.5q0 45 32.5 77t78.5 32t78.5 -32t32.5 -77q0 -47 -32.5 -80.5t-78.5 -33.5t-78.5 33.5z" />
    <glyph glyph-name="cdotaccent" unicode="&#x10b;" horiz-adv-x="1134" 
d="M342.5 59.5q-112.5 75.5 -171.5 205t-59 288.5q0 151 56 282t167.5 211.5t271.5 80.5q154 0 270 -78t177 -226l-139 -56q-40 106 -121 166t-187 60q-114 0 -192.5 -61t-117 -161t-38.5 -218q0 -119 38.5 -218t117 -158.5t193.5 -59.5q108 0 188 60t113 163l133 -50
q-50 -145 -164.5 -225.5t-268.5 -80.5t-266.5 75.5zM529 1402.5q-32 32.5 -32 79.5q0 45 32.5 78t78.5 33t78.5 -33t32.5 -78q0 -47 -32.5 -79.5t-78.5 -32.5q-47 0 -79 32.5z" />
    <glyph glyph-name="Ccaron" unicode="&#x10c;" horiz-adv-x="1633" 
d="M481 80.5q-159 96.5 -243 277.5t-84 430t85 429t246 275t385 95q243 0 403.5 -108.5t239.5 -319.5l-144 -55q-124 347 -499 347q-177 0 -304 -78.5t-193.5 -227.5t-66.5 -357q0 -200 62.5 -350.5t186.5 -234.5t305 -84q188 0 317 91.5t196 266.5l148 -46
q-82 -219 -249 -333t-412 -114q-220 0 -379 96.5zM485 2030h124l212 -206l212 206h124l-336 -342z" />
    <glyph glyph-name="ccaron" unicode="&#x10d;" horiz-adv-x="1134" 
d="M342.5 59.5q-112.5 75.5 -171.5 205t-59 288.5q0 151 56 282t167.5 211.5t271.5 80.5q154 0 270 -78t177 -226l-139 -56q-40 106 -121 166t-187 60q-114 0 -192.5 -61t-117 -161t-38.5 -218q0 -119 38.5 -218t117 -158.5t193.5 -59.5q108 0 188 60t113 163l133 -50
q-50 -145 -164.5 -225.5t-268.5 -80.5t-266.5 75.5zM272 1570h124l212 -206l212 206h124l-336 -342z" />
    <glyph glyph-name="Dcaron" unicode="&#x10e;" horiz-adv-x="1626" 
d="M253 1570h343q168 0 287 -19.5t203 -58.5t155 -100q116 -101 176 -257.5t60 -360.5q0 -197 -58.5 -346t-172.5 -249q-76 -66 -165.5 -105t-207 -56.5t-279.5 -17.5h-341v1570zM580 137q151 0 255.5 17.5t176 51.5t131.5 88q90 82 136 204.5t46 280.5q0 331 -184 501
q-92 85 -216.5 119t-330.5 34h-188v-1296h174zM482 2030h124l212 -206l212 206h124l-336 -342z" />
    <glyph glyph-name="dcaron" unicode="&#x10f;" horiz-adv-x="1357" 
d="M352 51q-113 67 -174.5 196t-61.5 309t61.5 308.5t173 195.5t259.5 67q128 0 227 -52.5t159 -143.5h11v639h147v-1570h-147v174h-11q-61 -90 -159 -140t-220 -50q-152 0 -265 67zM837.5 164.5q86.5 55.5 134 156.5t47.5 235q0 133 -47.5 234t-133.5 156.5t-199 55.5
q-112 0 -196.5 -51.5t-132 -152t-47.5 -242.5q0 -144 47.5 -244.5t132.5 -151.5t196 -51q112 0 198.5 55.5zM1533 1527.5q42 -61.5 42 -150.5q0 -67 -26 -138.5t-80 -131.5t-133 -89l-35 80q56 22 97.5 63t63.5 92t22 100q0 27 -6 49q-16 -17 -37.5 -26.5t-44.5 -9.5
q-46 0 -78.5 33t-32.5 80t33 78.5t83 31.5q90 0 132 -61.5z" />
    <glyph glyph-name="Dcroat" unicode="&#x110;" horiz-adv-x="1626" 
d="M1417 1134.5q60 -156.5 60 -360.5q0 -197 -58.5 -346t-172.5 -249q-76 -66 -165.5 -105t-207 -56.5t-279.5 -17.5h-341v715h-167v102h167v753h343q168 0 287 -19.5t203 -58.5t155 -100q116 -101 176 -257.5zM1279 498.5q46 122.5 46 280.5q0 331 -184 501
q-92 85 -216.5 119t-330.5 34h-188v-616h385v-102h-385v-578h174q151 0 255.5 17.5t176 51.5t131.5 88q90 82 136 204.5z" />
    <glyph glyph-name="dcroat" unicode="&#x111;" horiz-adv-x="1357" 
d="M1299 1338h-145v-1338h-147v174h-11q-61 -90 -159 -140t-220 -50q-152 0 -265 67t-174.5 196t-61.5 309t61.5 308.5t173 195.5t259.5 67q128 0 227 -52.5t159 -143.5h11v407h-413v102h413v130h147v-130h145v-102zM837.5 164.5q86.5 55.5 134 156.5t47.5 235
q0 133 -47.5 234t-133.5 156.5t-199 55.5q-112 0 -196.5 -51.5t-132 -152t-47.5 -242.5q0 -144 47.5 -244.5t132.5 -151.5t196 -51q112 0 198.5 55.5z" />
    <glyph glyph-name="Emacron" unicode="&#x112;" horiz-adv-x="1394" 
d="M253 1570h980v-137h-827v-577h740v-135h-740v-584h872v-137h-1025v1570zM446 1907h608v-91h-608v91z" />
    <glyph glyph-name="emacron" unicode="&#x113;" 
d="M1091.5 557.5q-2.5 -28.5 -6.5 -42.5h-819q4 -124 48 -215.5t125 -141t192 -49.5q104 0 178.5 33t146.5 117l104 -92q-94 -97 -195 -140t-235 -43q-163 0 -280 74t-177.5 202.5t-60.5 289.5q0 160 59 291t172 208.5t269 77.5q170 0 278.5 -78t156 -195t47.5 -240
q0 -28 -2.5 -56.5zM439.5 954q-75.5 -48 -119.5 -130t-52 -184h678q0 23 -1 34q-6 95 -44.5 168.5t-111 116.5t-176.5 43q-98 0 -173.5 -48zM297 1447h608v-91h-608v91z" />
    <glyph glyph-name="Edotaccent" unicode="&#x116;" horiz-adv-x="1394" 
d="M253 1570h980v-137h-827v-577h740v-135h-740v-584h872v-137h-1025v1570zM671.5 1760.5q-32.5 33.5 -32.5 80.5q0 45 32.5 77t78.5 32t78.5 -32t32.5 -77q0 -47 -32.5 -80.5t-78.5 -33.5t-78.5 33.5z" />
    <glyph glyph-name="edotaccent" unicode="&#x117;" 
d="M1091.5 557.5q-2.5 -28.5 -6.5 -42.5h-819q4 -124 48 -215.5t125 -141t192 -49.5q104 0 178.5 33t146.5 117l104 -92q-94 -97 -195 -140t-235 -43q-163 0 -280 74t-177.5 202.5t-60.5 289.5q0 160 59 291t172 208.5t269 77.5q170 0 278.5 -78t156 -195t47.5 -240
q0 -28 -2.5 -56.5zM439.5 954q-75.5 -48 -119.5 -130t-52 -184h678q0 23 -1 34q-6 95 -44.5 168.5t-111 116.5t-176.5 43q-98 0 -173.5 -48zM522 1402.5q-32 32.5 -32 79.5q0 45 32.5 78t78.5 33t78.5 -33t32.5 -78q0 -47 -32.5 -79.5t-78.5 -32.5q-47 0 -79 32.5z" />
    <glyph glyph-name="Eogonek" unicode="&#x118;" horiz-adv-x="1394" 
d="M1146 -123.5q-47 -66.5 -47 -124.5q0 -61 45.5 -96t133.5 -35v-95q-142 0 -218.5 51.5t-76.5 137.5q0 68 49.5 143t140.5 142h-920v1570h980v-137h-827v-577h740v-135h-740v-584h872v-137q-85 -57 -132 -123.5z" />
    <glyph glyph-name="eogonek" unicode="&#x119;" 
d="M1091.5 557.5q-2.5 -28.5 -6.5 -42.5h-819q4 -124 48 -215.5t125 -141t192 -49.5q104 0 178.5 33t146.5 117l104 -92q-68 -69 -133 -109q-81 -56 -126 -120.5t-45 -121.5q0 -61 45.5 -96t133.5 -35v-95q-142 0 -218.5 51.5t-76.5 137.5q0 51 27.5 106t79.5 108
q-54 -9 -117 -9q-163 0 -280 74t-177.5 202.5t-60.5 289.5q0 160 59 291t172 208.5t269 77.5q170 0 278.5 -78t156 -195t47.5 -240q0 -28 -2.5 -56.5zM439.5 954q-75.5 -48 -119.5 -130t-52 -184h678q0 23 -1 34q-6 95 -44.5 168.5t-111 116.5t-176.5 43q-98 0 -173.5 -48z
" />
    <glyph glyph-name="Ecaron" unicode="&#x11a;" horiz-adv-x="1394" 
d="M253 1570h980v-137h-827v-577h740v-135h-740v-584h872v-137h-1025v1570zM414 2030h124l212 -206l212 206h124l-336 -342z" />
    <glyph glyph-name="ecaron" unicode="&#x11b;" 
d="M1091.5 557.5q-2.5 -28.5 -6.5 -42.5h-819q4 -124 48 -215.5t125 -141t192 -49.5q104 0 178.5 33t146.5 117l104 -92q-94 -97 -195 -140t-235 -43q-163 0 -280 74t-177.5 202.5t-60.5 289.5q0 160 59 291t172 208.5t269 77.5q170 0 278.5 -78t156 -195t47.5 -240
q0 -28 -2.5 -56.5zM439.5 954q-75.5 -48 -119.5 -130t-52 -184h678q0 23 -1 34q-6 95 -44.5 168.5t-111 116.5t-176.5 43q-98 0 -173.5 -48zM265 1570h124l212 -206l212 206h124l-336 -342z" />
    <glyph glyph-name="Gbreve" unicode="&#x11e;" horiz-adv-x="1719" 
d="M1524 808v-808h-139v240h-13q-67 -119 -197 -187.5t-314 -68.5q-219 0 -378.5 96.5t-244 278t-84.5 431.5q0 248 84.5 427.5t245.5 274.5t385 95q243 0 404 -108.5t239 -319.5l-143 -55q-62 173 -186 260t-314 87q-178 0 -304.5 -78.5t-192.5 -227t-66 -355.5
q0 -200 64 -351t193 -235.5t318 -84.5q252 0 377 147t127 407h-426v135h565zM611.5 1804.5q-85.5 80.5 -85.5 225.5h106q0 -108 60.5 -161.5t171.5 -53.5t171 54t60 161h108q0 -147 -87 -226.5t-252 -79.5q-167 0 -252.5 80.5z" />
    <glyph glyph-name="gbreve" unicode="&#x11f;" horiz-adv-x="1191" 
d="M1108 -110q0 -189 -140 -278q-127 -84 -363 -84t-372 81q-69 41 -103.5 107.5t-34.5 153.5q0 22 7 64l153 125v8q-25 16 -38 28q-78 72 -78 185q0 117 96 227q-61 95 -61 222q0 119 53.5 209t148 139.5t213.5 49.5q85 0 156.5 -25.5t125.5 -73.5l170 151l77 -96
l-171 -149q52 -92 52 -214t-53.5 -210t-146 -133.5t-209.5 -45.5q-79 0 -147 21t-122 61q-54 -58 -54 -122q0 -69 47 -108q51 -41 170 -41h278q101 0 161 -17t103 -52q82 -68 82 -183zM447.5 968q-61.5 -34 -95 -96.5t-33.5 -146.5q0 -83 33 -143.5t94.5 -93t143.5 -32.5
q81 0 141.5 32.5t93 93t32.5 143.5q0 85 -32.5 147.5t-93 96t-140.5 33.5q-82 0 -143.5 -34zM940.5 -220.5q19.5 37.5 19.5 91.5q0 75 -44 109q-46 37 -147 37h-281q-67 0 -117 10l-130 -121q-4 -26 -4 -40q0 -105 74 -154q44 -33 117 -45.5t178 -12.5q87 0 158 16t118 46
q39 26 58.5 63.5zM341.5 1344.5q-85.5 80.5 -85.5 225.5h106q0 -108 60.5 -161.5t171.5 -53.5t171 54t60 161h108q0 -147 -87 -226.5t-252 -79.5q-167 0 -252.5 80.5z" />
    <glyph glyph-name="Gdotaccent" unicode="&#x120;" horiz-adv-x="1719" 
d="M1524 808v-808h-139v240h-13q-67 -119 -197 -187.5t-314 -68.5q-219 0 -378.5 96.5t-244 278t-84.5 431.5q0 248 84.5 427.5t245.5 274.5t385 95q243 0 404 -108.5t239 -319.5l-143 -55q-62 173 -186 260t-314 87q-178 0 -304.5 -78.5t-192.5 -227t-66 -355.5
q0 -200 64 -351t193 -235.5t318 -84.5q252 0 377 147t127 407h-426v135h565zM786.5 1760.5q-32.5 33.5 -32.5 80.5q0 45 32.5 77t78.5 32t78.5 -32t32.5 -77q0 -47 -32.5 -80.5t-78.5 -33.5t-78.5 33.5z" />
    <glyph glyph-name="gdotaccent" unicode="&#x121;" horiz-adv-x="1191" 
d="M1108 -110q0 -189 -140 -278q-127 -84 -363 -84t-372 81q-69 41 -103.5 107.5t-34.5 153.5q0 22 7 64l153 125v8q-25 16 -38 28q-78 72 -78 185q0 117 96 227q-61 95 -61 222q0 119 53.5 209t148 139.5t213.5 49.5q85 0 156.5 -25.5t125.5 -73.5l170 151l77 -96
l-171 -149q52 -92 52 -214t-53.5 -210t-146 -133.5t-209.5 -45.5q-79 0 -147 21t-122 61q-54 -58 -54 -122q0 -69 47 -108q51 -41 170 -41h278q101 0 161 -17t103 -52q82 -68 82 -183zM447.5 968q-61.5 -34 -95 -96.5t-33.5 -146.5q0 -83 33 -143.5t94.5 -93t143.5 -32.5
q81 0 141.5 32.5t93 93t32.5 143.5q0 85 -32.5 147.5t-93 96t-140.5 33.5q-82 0 -143.5 -34zM940.5 -220.5q19.5 37.5 19.5 91.5q0 75 -44 109q-46 37 -147 37h-281q-67 0 -117 10l-130 -121q-4 -26 -4 -40q0 -105 74 -154q44 -33 117 -45.5t178 -12.5q87 0 158 16t118 46
q39 26 58.5 63.5zM516 1402.5q-32 32.5 -32 79.5q0 45 32.5 78t78.5 33t78.5 -33t32.5 -78q0 -47 -32.5 -79.5t-78.5 -32.5q-47 0 -79 32.5z" />
    <glyph glyph-name="uni0122" unicode="&#x122;" horiz-adv-x="1719" 
d="M1524 808v-808h-139v240h-13q-67 -119 -197 -187.5t-314 -68.5q-219 0 -378.5 96.5t-244 278t-84.5 431.5q0 248 84.5 427.5t245.5 274.5t385 95q243 0 404 -108.5t239 -319.5l-143 -55q-62 173 -186 260t-314 87q-178 0 -304.5 -78.5t-192.5 -227t-66 -355.5
q0 -200 64 -351t193 -235.5t318 -84.5q252 0 377 147t127 407h-426v135h565zM982.5 -160.5q40.5 -52.5 40.5 -127.5q0 -58 -25 -123t-78.5 -119.5t-133.5 -79.5l-35 79q55 17 97 51t64 76t22 81q0 20 -6 40q-16 -17 -37.5 -26t-45.5 -9q-46 0 -79 31.5t-33 75.5q0 43 36 73
t88 30q85 0 125.5 -52.5z" />
    <glyph glyph-name="uni0123" unicode="&#x123;" horiz-adv-x="1191" 
d="M1108 -110q0 -189 -140 -278q-127 -84 -363 -84t-372 81q-69 41 -103.5 107.5t-34.5 153.5q0 22 7 64l153 125v8q-25 16 -38 28q-78 72 -78 185q0 117 96 227q-61 95 -61 222q0 119 53.5 209t148 139.5t213.5 49.5q85 0 156.5 -25.5t125.5 -73.5l170 151l77 -96
l-171 -149q52 -92 52 -214t-53.5 -210t-146 -133.5t-209.5 -45.5q-79 0 -147 21t-122 61q-54 -58 -54 -122q0 -69 47 -108q51 -41 170 -41h278q101 0 161 -17t103 -52q82 -68 82 -183zM447.5 968q-61.5 -34 -95 -96.5t-33.5 -146.5q0 -83 33 -143.5t94.5 -93t143.5 -32.5
q81 0 141.5 32.5t93 93t32.5 143.5q0 85 -32.5 147.5t-93 96t-140.5 33.5q-82 0 -143.5 -34zM940.5 -220.5q19.5 37.5 19.5 91.5q0 75 -44 109q-46 37 -147 37h-281q-67 0 -117 10l-130 -121q-4 -26 -4 -40q0 -105 74 -154q44 -33 117 -45.5t178 -12.5q87 0 158 16t118 46
q39 26 58.5 63.5zM679 1394q33 -28 33 -67t-36 -65.5t-88 -26.5q-85 0 -125.5 46.5t-40.5 113.5q0 52 25 110.5t78.5 107t133.5 70.5l35 -70q-55 -15 -97 -45.5t-64 -68t-22 -72.5q0 -18 6 -36q33 31 83 31q46 0 79 -28z" />
    <glyph glyph-name="Hbar" unicode="&#x126;" horiz-adv-x="1645" 
d="M1546 1158h-154v-1158h-152v721h-834v-721h-153v1158h-135v91h135v321h153v-321h834v321h152v-321h154v-91zM1240 1158h-834v-300h834v300z" />
    <glyph glyph-name="hbar" unicode="&#x127;" horiz-adv-x="1260" 
d="M1053 901q31 -88 31 -231v-670h-148v631q0 121 -19.5 191t-62.5 112q-73 68 -203 68q-138 0 -218 -85q-43 -46 -63 -116t-20 -182v-619h-147l2 1304h-199v102h199v164h147l-1 -164h360v-102h-360l-1 -332h12q44 68 132.5 111.5t202.5 43.5q82 0 148 -21.5t113 -61.5
q64 -55 95 -143z" />
    <glyph glyph-name="Itilde" unicode="&#x128;" horiz-adv-x="659" 
d="M253 1570h153v-1570h-153v1570zM404 1762.5q-35 16.5 -57.5 39.5t-50.5 59q-33 43 -58 63.5t-62 20.5q-54 1 -84 -47t-30 -132h-89q0 129 55.5 201.5t151.5 72.5q43 0 75.5 -15.5t54.5 -38t49 -57.5q36 -45 62 -66t65 -21q47 0 76 51t29 137h93q0 -87 -24.5 -151
t-69 -98.5t-104.5 -34.5q-47 0 -82 16.5z" />
    <glyph glyph-name="itilde" unicode="&#x129;" horiz-adv-x="549" 
d="M201 1110h147v-1110h-147v1110zM350 1302.5q-35 16.5 -57.5 39.5t-50.5 59q-33 43 -58 63.5t-62 20.5q-54 1 -84 -47t-30 -132h-89q0 129 55.5 201.5t151.5 72.5q43 0 75.5 -15.5t54.5 -38t49 -57.5q36 -45 62 -66t65 -21q47 0 76 51t29 137h93q0 -87 -24.5 -151
t-69 -98.5t-104.5 -34.5q-47 0 -82 16.5z" />
    <glyph glyph-name="Imacron" unicode="&#x12a;" horiz-adv-x="659" 
d="M253 1570h153v-1570h-153v1570zM25 1907h608v-91h-608v91z" />
    <glyph glyph-name="imacron" unicode="&#x12b;" horiz-adv-x="549" 
d="M201 1110h147v-1110h-147v1110zM-29 1447h608v-91h-608v91z" />
    <glyph glyph-name="Iogonek" unicode="&#x12e;" horiz-adv-x="659" 
d="M274 -123.5q-47 -66.5 -47 -124.5q0 -61 45.5 -96t133.5 -35v-95q-142 0 -218.5 51.5t-76.5 137.5q0 68 49.5 143t140.5 142h-48v1570h153v-1570q-85 -57 -132 -123.5z" />
    <glyph glyph-name="iogonek" unicode="&#x12f;" horiz-adv-x="549" 
d="M353.5 1560q32.5 -33 32.5 -78q0 -47 -32.5 -79.5t-78.5 -32.5q-47 0 -79 32.5t-32 79.5q0 45 32.5 78t78.5 33t78.5 -33zM201 1110h147v-1110q-85 -57 -132 -123.5t-47 -124.5q0 -61 45.5 -96t133.5 -35v-95q-142 0 -218.5 51.5t-76.5 137.5q0 68 49.5 143t140.5 142
h-42v1110z" />
    <glyph glyph-name="Idotaccent" unicode="&#x130;" horiz-adv-x="659" 
d="M253 1570h153v-1570h-153v1570zM250.5 1760.5q-32.5 33.5 -32.5 80.5q0 45 32.5 77t78.5 32t78.5 -32t32.5 -77q0 -47 -32.5 -80.5t-78.5 -33.5t-78.5 33.5z" />
    <glyph glyph-name="dotlessi" unicode="&#x131;" horiz-adv-x="549" 
d="M201 1110h147v-1110h-147v1110z" />
    <glyph glyph-name="IJ" unicode="&#x132;" horiz-adv-x="1970" 
d="M253 1570h153v-1570h-153v1570zM972 51q-102 56 -158 158t-63 243l152 20q5 -110 50.5 -189.5t124.5 -120.5q72 -43 174 -43q170 0 261 103q41 51 60.5 134t19.5 238v839h-639v137h792v-976q0 -178 -27 -285.5t-92 -181.5q-65 -71 -157.5 -107t-217.5 -36q-169 0 -280 67
z" />
    <glyph glyph-name="uni0136" unicode="&#x136;" horiz-adv-x="1540" 
d="M1457 0h-181l-530 860h-13l-327 -334v-526h-153v1570h153v-836h13l804 836h205l-580 -592zM893.5 -160.5q40.5 -52.5 40.5 -127.5q0 -58 -25 -123t-78.5 -119.5t-133.5 -79.5l-35 79q55 17 97 51t64 76t22 81q0 20 -6 40q-16 -17 -37.5 -26t-45.5 -9q-46 0 -79 31.5
t-33 75.5q0 43 36 73t88 30q85 0 125.5 -52.5z" />
    <glyph glyph-name="uni0137" unicode="&#x137;" horiz-adv-x="1221" 
d="M203 1570h147v-1063h2l579 603h183l-387 -409l453 -701h-174l-388 604l-1 -1l-267 -274v-329h-147v1570zM740.5 -160.5q40.5 -52.5 40.5 -127.5q0 -58 -25 -123t-78.5 -119.5t-133.5 -79.5l-35 79q55 17 97 51t64 76t22 81q0 20 -6 40q-16 -17 -37.5 -26t-45.5 -9
q-46 0 -79 31.5t-33 75.5q0 43 36 73t88 30q85 0 125.5 -52.5z" />
    <glyph glyph-name="kgreenlandic" unicode="&#x138;" horiz-adv-x="1219" 
d="M201 1108h147v-601h2l570 603h192l-387 -409l453 -701h-174l-388 604l-1 -1l-267 -274v-329h-147v1108z" />
    <glyph glyph-name="Lacute" unicode="&#x139;" 
d="M253 1570h153v-1433h716v-137h-869v1570zM529 2030h158l-287 -317h-113z" />
    <glyph glyph-name="lacute" unicode="&#x13a;" horiz-adv-x="604" 
d="M248 36q-32 31 -42.5 88t-10.5 168v1278h147v-1247q0 -90 4 -126t24 -58q25 -30 91 -30q41 0 82 10l22 -112q-69 -23 -154 -23q-110 0 -163 52zM454 2030h158l-287 -317h-113z" />
    <glyph glyph-name="uni013B" unicode="&#x13b;" 
d="M253 1570h153v-1433h716v-137h-869v1570zM731.5 -160.5q40.5 -52.5 40.5 -127.5q0 -58 -25 -123t-78.5 -119.5t-133.5 -79.5l-35 79q55 17 97 51t64 76t22 81q0 20 -6 40q-16 -17 -37.5 -26t-45.5 -9q-46 0 -79 31.5t-33 75.5q0 43 36 73t88 30q85 0 125.5 -52.5z" />
    <glyph glyph-name="uni013C" unicode="&#x13c;" horiz-adv-x="604" 
d="M248 36q-32 31 -42.5 88t-10.5 168v1278h147v-1247q0 -90 4 -126t24 -58q25 -30 91 -30q41 0 82 10l22 -112q-69 -23 -154 -23q-110 0 -163 52zM433.5 -160.5q40.5 -52.5 40.5 -127.5q0 -58 -25 -123t-78.5 -119.5t-133.5 -79.5l-35 79q55 17 97 51t64 76t22 81
q0 20 -6 40q-16 -17 -37.5 -26t-45.5 -9q-46 0 -79 31.5t-33 75.5q0 43 36 73t88 30q85 0 125.5 -52.5z" />
    <glyph glyph-name="Lcaron" unicode="&#x13d;" 
d="M253 1570h153v-1433h716v-137h-869v1570zM1053 1527.5q42 -61.5 42 -150.5q0 -67 -26 -138.5t-80 -131.5t-133 -89l-35 80q56 22 97.5 63t63.5 92t22 100q0 27 -6 49q-16 -17 -37.5 -26.5t-44.5 -9.5q-46 0 -78.5 33t-32.5 80t33 78.5t83 31.5q90 0 132 -61.5z" />
    <glyph glyph-name="lcaron" unicode="&#x13e;" horiz-adv-x="604" 
d="M248 36q-32 31 -42.5 88t-10.5 168v1278h147v-1247q0 -90 4 -126t24 -58q25 -30 91 -30q41 0 82 10l22 -112q-69 -23 -154 -23q-110 0 -163 52zM735 1527.5q42 -61.5 42 -150.5q0 -67 -26 -138.5t-80 -131.5t-133 -89l-35 80q56 22 97.5 63t63.5 92t22 100q0 27 -6 49
q-16 -17 -37.5 -26.5t-44.5 -9.5q-46 0 -78.5 33t-32.5 80t33 78.5t83 31.5q90 0 132 -61.5z" />
    <glyph glyph-name="Lslash" unicode="&#x141;" 
d="M1122 137v-137h-869v559l-137 -109v166l137 109v845h153v-723l386 308v-165l-386 -308v-545h716z" />
    <glyph glyph-name="lslash" unicode="&#x142;" horiz-adv-x="604" 
d="M565 7q-69 -23 -154 -23q-110 0 -163 52q-32 31 -42.5 88t-10.5 168v431l-153 -106v166l153 105v682h147v-580l214 147v-164l-214 -148v-502q0 -90 4 -126t24 -58q25 -30 91 -30q41 0 82 10z" />
    <glyph glyph-name="Nacute" unicode="&#x143;" horiz-adv-x="1645" 
d="M253 1570h229l744 -1375h14v1375h152v-1570h-231l-742 1377h-13v-1377h-153v1570zM1008 2030h158l-287 -317h-113z" />
    <glyph glyph-name="nacute" unicode="&#x144;" horiz-adv-x="1257" 
d="M201 1110h147v-138h12q44 68 132 111.5t203 43.5q82 0 148 -21.5t113 -61.5q64 -55 94.5 -143t30.5 -231v-670h-147v631q0 121 -19.5 191t-62.5 112q-73 68 -203 68q-139 0 -218 -85q-43 -46 -63 -116t-20 -182v-619h-147v1110zM815 1570h158l-287 -317h-113z" />
    <glyph glyph-name="uni0145" unicode="&#x145;" horiz-adv-x="1645" 
d="M253 1570h229l744 -1375h14v1375h152v-1570h-231l-742 1377h-13v-1377h-153v1570zM933.5 -160.5q40.5 -52.5 40.5 -127.5q0 -58 -25 -123t-78.5 -119.5t-133.5 -79.5l-35 79q55 17 97 51t64 76t22 81q0 20 -6 40q-16 -17 -37.5 -26t-45.5 -9q-46 0 -79 31.5t-33 75.5
q0 43 36 73t88 30q85 0 125.5 -52.5z" />
    <glyph glyph-name="uni0146" unicode="&#x146;" horiz-adv-x="1257" 
d="M201 1110h147v-138h12q44 68 132 111.5t203 43.5q82 0 148 -21.5t113 -61.5q64 -55 94.5 -143t30.5 -231v-670h-147v631q0 121 -19.5 191t-62.5 112q-73 68 -203 68q-139 0 -218 -85q-43 -46 -63 -116t-20 -182v-619h-147v1110zM740.5 -160.5q40.5 -52.5 40.5 -127.5
q0 -58 -25 -123t-78.5 -119.5t-133.5 -79.5l-35 79q55 17 97 51t64 76t22 81q0 20 -6 40q-16 -17 -37.5 -26t-45.5 -9q-46 0 -79 31.5t-33 75.5q0 43 36 73t88 30q85 0 125.5 -52.5z" />
    <glyph glyph-name="Ncaron" unicode="&#x147;" horiz-adv-x="1645" 
d="M253 1570h229l744 -1375h14v1375h152v-1570h-231l-742 1377h-13v-1377h-153v1570zM487 2030h124l212 -206l212 206h124l-336 -342z" />
    <glyph glyph-name="ncaron" unicode="&#x148;" horiz-adv-x="1257" 
d="M201 1110h147v-138h12q44 68 132 111.5t203 43.5q82 0 148 -21.5t113 -61.5q64 -55 94.5 -143t30.5 -231v-670h-147v631q0 121 -19.5 191t-62.5 112q-73 68 -203 68q-139 0 -218 -85q-43 -46 -63 -116t-20 -182v-619h-147v1110zM294 1570h124l212 -206l212 206h124
l-336 -342z" />
    <glyph glyph-name="Eng" unicode="&#x14a;" horiz-adv-x="1621" 
d="M860 -358l4 99q30 -9 63.5 -14.5t57.5 -5.5q94 0 138.5 50t44.5 131q0 46 -25 98l-733 1377h-4v-1377h-153v1570h222l735 -1375h5v1375h152v-1601q0 -101 -36 -180.5t-111 -125t-187 -45.5q-67 0 -173 24z" />
    <glyph glyph-name="eng" unicode="&#x14b;" horiz-adv-x="1257" 
d="M723 -470.5q-46 8.5 -85 21.5l24 118q51 -18 96 -18q85 0 130.5 50t45.5 149v781q0 121 -19.5 191t-62.5 112q-73 68 -203 68q-136 0 -218 -85q-42 -44 -62.5 -113.5t-20.5 -184.5v-619h-147v1110h147v-125h18q45 62 131.5 102t197.5 40q82 0 148 -21.5t113 -61.5
q64 -55 94.5 -143t30.5 -231v-867q0 -143 -74.5 -212.5t-198.5 -69.5q-39 0 -85 8.5z" />
    <glyph glyph-name="Omacron" unicode="&#x14c;" horiz-adv-x="1733" 
d="M478 86q-161 102 -244 283.5t-83 415.5t83 415.5t244 284t387 102.5q227 0 389 -102.5t245.5 -284t83.5 -415.5t-83.5 -415.5t-245.5 -283.5t-389 -102q-226 0 -387 102zM1173 204q127 85 192 235.5t65 345.5t-65 345.5t-192 235.5t-308 85q-179 0 -305.5 -85
t-191.5 -236t-65 -345t65 -345t191.5 -236t305.5 -85q181 0 308 85zM563 1907h608v-91h-608v91z" />
    <glyph glyph-name="omacron" unicode="&#x14d;" horiz-adv-x="1287" 
d="M365.5 54q-120.5 70 -187.5 200t-67 304q0 173 66.5 302t187.5 198t278 69q158 0 278.5 -69t187.5 -198t67 -302q0 -174 -67 -304t-188 -200t-278 -70t-277.5 70zM849 164q87 55 133.5 156.5t46.5 237.5q0 134 -46.5 234.5t-133.5 155t-206 54.5t-206 -54t-133 -154.5
t-46 -235.5q0 -136 46 -237.5t133 -156.5t206 -55t206 55zM339 1447h608v-91h-608v91z" />
    <glyph glyph-name="Ohungarumlaut" unicode="&#x150;" horiz-adv-x="1733" 
d="M478 86q-161 102 -244 283.5t-83 415.5t83 415.5t244 284t387 102.5q227 0 389 -102.5t245.5 -284t83.5 -415.5t-83.5 -415.5t-245.5 -283.5t-389 -102q-226 0 -387 102zM1173 204q127 85 192 235.5t65 345.5t-65 345.5t-192 235.5t-308 85q-179 0 -305.5 -85
t-191.5 -236t-65 -345t65 -345t191.5 -236t305.5 -85q181 0 308 85zM845 2030h135l-246 -317h-116zM1224 2030h159l-267 -317h-118z" />
    <glyph glyph-name="ohungarumlaut" unicode="&#x151;" horiz-adv-x="1287" 
d="M365.5 54q-120.5 70 -187.5 200t-67 304q0 173 66.5 302t187.5 198t278 69q158 0 278.5 -69t187.5 -198t67 -302q0 -174 -67 -304t-188 -200t-278 -70t-277.5 70zM849 164q87 55 133.5 156.5t46.5 237.5q0 134 -46.5 234.5t-133.5 155t-206 54.5t-206 -54t-133 -154.5
t-46 -235.5q0 -136 46 -237.5t133 -156.5t206 -55t206 55zM621 1570h135l-246 -317h-116zM1000 1570h159l-267 -317h-118z" />
    <glyph glyph-name="OE" unicode="&#x152;" horiz-adv-x="2577" 
d="M2461 137v-137h-1025v260q-93 -132 -237.5 -204t-333.5 -72q-226 0 -387 102t-244 283.5t-83 415.5t83 415.5t244 284t387 102.5q189 0 333.5 -72t237.5 -204v259h980v-137h-827v-577h740v-135h-740v-584h872zM1173 204q127 85 192 235.5t65 345.5t-65 345.5t-192 235.5
t-308 85q-179 0 -305.5 -85t-191.5 -236t-65 -345t65 -345t191.5 -236t305.5 -85q181 0 308 85z" />
    <glyph glyph-name="oe" unicode="&#x153;" horiz-adv-x="2115" 
d="M2006.5 557.5q-2.5 -28.5 -6.5 -42.5h-819q4 -124 48 -215.5t125 -141t192 -49.5q104 0 178.5 33t146.5 117l104 -92q-94 -97 -195 -140t-235 -43q-155 0 -268.5 67t-176.5 186q-68 -121 -186.5 -187t-270.5 -66q-157 0 -277.5 70t-187.5 200t-67 304q0 173 66.5 302
t187.5 198t278 69q154 0 273 -66t186 -188q63 119 171 186.5t254 67.5q170 0 278.5 -78t156 -195t47.5 -240q0 -28 -2.5 -56.5zM839.5 158.5q84.5 49.5 133 141t55.5 215.5q-1 12 -1 35q0 29 1 43q-6 125 -54 217t-133 142t-198 50q-119 0 -206 -54t-133 -154.5t-46 -235.5
q0 -136 46 -237.5t133 -156.5t206 -55q112 0 196.5 49.5zM1354.5 954q-75.5 -48 -119.5 -130t-52 -184h678q0 23 -1 34q-6 95 -44.5 168.5t-111 116.5t-176.5 43q-98 0 -173.5 -48z" />
    <glyph glyph-name="Racute" unicode="&#x154;" horiz-adv-x="1418" 
d="M1142 0l-421 691q-52 -3 -115 -3h-200v-688h-153v1570h353q138 0 229.5 -13.5t149 -38.5t102.5 -65q126 -114 126 -324q0 -100 -29 -180t-85 -135q-40 -39 -91 -65t-123 -40v-16l438 -693h-181zM780.5 832q76.5 9 125.5 30.5t84 60.5q71 77 71 208q0 134 -77 214
q-35 33 -82 51.5t-122.5 27.5t-197.5 9h-176v-610h176q122 0 198.5 9zM894 2030h158l-287 -317h-113z" />
    <glyph glyph-name="racute" unicode="&#x155;" horiz-adv-x="802" 
d="M201 1110h137l10 -141h15q52 81 129 119.5t170 38.5q46 0 99 -9v-153h-10q-66 23 -122 23q-57 0 -105.5 -17.5t-90.5 -59.5q-44 -46 -64.5 -127.5t-20.5 -219.5v-564h-147v1110zM600 1570h158l-287 -317h-113z" />
    <glyph glyph-name="uni0156" unicode="&#x156;" horiz-adv-x="1418" 
d="M1142 0l-421 691q-52 -3 -115 -3h-200v-688h-153v1570h353q138 0 229.5 -13.5t149 -38.5t102.5 -65q126 -114 126 -324q0 -100 -29 -180t-85 -135q-40 -39 -91 -65t-123 -40v-16l438 -693h-181zM780.5 832q76.5 9 125.5 30.5t84 60.5q71 77 71 208q0 134 -77 214
q-35 33 -82 51.5t-122.5 27.5t-197.5 9h-176v-610h176q122 0 198.5 9zM819.5 -160.5q40.5 -52.5 40.5 -127.5q0 -58 -25 -123t-78.5 -119.5t-133.5 -79.5l-35 79q55 17 97 51t64 76t22 81q0 20 -6 40q-16 -17 -37.5 -26t-45.5 -9q-46 0 -79 31.5t-33 75.5q0 43 36 73t88 30
q85 0 125.5 -52.5z" />
    <glyph glyph-name="uni0157" unicode="&#x157;" horiz-adv-x="802" 
d="M201 1110h137l10 -141h15q52 81 129 119.5t170 38.5q46 0 99 -9v-153h-10q-66 23 -122 23q-57 0 -105.5 -17.5t-90.5 -59.5q-44 -46 -64.5 -127.5t-20.5 -219.5v-564h-147v1110zM514.5 -160.5q40.5 -52.5 40.5 -127.5q0 -58 -25 -123t-78.5 -119.5t-133.5 -79.5l-35 79
q55 17 97 51t64 76t22 81q0 20 -6 40q-16 -17 -37.5 -26t-45.5 -9q-46 0 -79 31.5t-33 75.5q0 43 36 73t88 30q85 0 125.5 -52.5z" />
    <glyph glyph-name="Rcaron" unicode="&#x158;" horiz-adv-x="1418" 
d="M1142 0l-421 691q-52 -3 -115 -3h-200v-688h-153v1570h353q138 0 229.5 -13.5t149 -38.5t102.5 -65q126 -114 126 -324q0 -100 -29 -180t-85 -135q-40 -39 -91 -65t-123 -40v-16l438 -693h-181zM780.5 832q76.5 9 125.5 30.5t84 60.5q71 77 71 208q0 134 -77 214
q-35 33 -82 51.5t-122.5 27.5t-197.5 9h-176v-610h176q122 0 198.5 9zM373 2030h124l212 -206l212 206h124l-336 -342z" />
    <glyph glyph-name="rcaron" unicode="&#x159;" horiz-adv-x="802" 
d="M201 1110h137l10 -141h15q52 81 129 119.5t170 38.5q46 0 99 -9v-153h-10q-66 23 -122 23q-57 0 -105.5 -17.5t-90.5 -59.5q-44 -46 -64.5 -127.5t-20.5 -219.5v-564h-147v1110zM79 1570h124l212 -206l212 206h124l-336 -342z" />
    <glyph glyph-name="Sacute" unicode="&#x15a;" horiz-adv-x="1277" 
d="M402.5 35.5q-115.5 50.5 -191.5 147.5t-99 233l151 37q23 -159 127.5 -245t264.5 -86q104 0 182.5 39t120.5 107t42 154q0 97 -51 161t-126 103t-204 88q-139 53 -222 97t-140.5 121t-57.5 195q0 120 59 211t160 140t224 49q301 0 446 -252l-126 -79q-56 98 -136 146.5
t-188 48.5q-81 0 -146 -33.5t-102.5 -92.5t-37.5 -133q0 -80 45.5 -133.5t113.5 -87t187 -77.5q147 -54 237 -102t153.5 -135t63.5 -223q0 -132 -62.5 -234t-175 -158.5t-257.5 -56.5q-139 0 -254.5 50.5zM821 2030h158l-287 -317h-113z" />
    <glyph glyph-name="sacute" unicode="&#x15b;" horiz-adv-x="1038" 
d="M352 21q-94 37 -161 105.5t-96 159.5l135 48q33 -109 119 -167t206 -58q113 0 172.5 48.5t59.5 141.5q0 54 -21 90t-60 60q-33 21 -82 35.5t-128 31.5q-71 16 -119 29t-87 31q-159 75 -159 242q0 92 46 162t130 108.5t193 38.5q143 0 245.5 -65.5t148.5 -184.5l-128 -57
q-62 182 -268 182q-101 0 -160 -44.5t-59 -120.5q0 -44 19.5 -74.5t55.5 -51.5q30 -17 73 -29.5t114 -27.5q91 -20 148.5 -37t106.5 -45q67 -38 103.5 -99t36.5 -157q0 -100 -47 -175t-133.5 -116t-200.5 -41q-109 0 -203 37zM696 1570h158l-287 -317h-113z" />
    <glyph glyph-name="Scedilla" unicode="&#x15e;" horiz-adv-x="1277" 
d="M1092 204.5q-60 -100.5 -168 -158t-248 -61.5l-74 -119q36 -5 55 -13q53 -19 82 -58t29 -93q0 -49 -26.5 -89t-72.5 -63t-103 -23q-48 0 -96.5 17.5t-91.5 52.5l42 70q33 -32 73 -47t78 -15q54 0 86 27.5t32 69.5q0 34 -21.5 59t-61.5 37q-40 13 -110 13l103 176
q-126 11 -228 64t-169.5 146t-89.5 219l151 37q23 -159 127.5 -245t264.5 -86q104 0 182.5 39t120.5 107t42 154q0 97 -51 161t-126 103t-204 88q-139 53 -222 97t-140.5 121t-57.5 195q0 120 59 211t160 140t224 49q301 0 446 -252l-126 -79q-56 98 -136 146.5t-188 48.5
q-81 0 -146 -33.5t-102.5 -92.5t-37.5 -133q0 -80 45.5 -133.5t113.5 -87t187 -77.5q147 -54 237 -102t153.5 -135t63.5 -223q0 -129 -60 -229.5z" />
    <glyph glyph-name="scedilla" unicode="&#x15f;" horiz-adv-x="1038" 
d="M549 -16l-73 -118q36 -5 55 -13q53 -19 82 -58t29 -93q0 -49 -26.5 -89t-72.5 -63t-103 -23q-48 0 -96.5 17.5t-91.5 52.5l42 70q33 -32 73 -47t78 -15q54 0 86 27.5t32 69.5q0 34 -21.5 59t-61.5 37q-40 13 -110 13l104 179q-138 19 -239 97.5t-140 198.5l135 48
q33 -109 119 -167t206 -58q113 0 172.5 48.5t59.5 141.5q0 54 -21 90t-60 60q-33 21 -82 35.5t-128 31.5q-71 16 -119 29t-87 31q-159 75 -159 242q0 92 46 162t130 108.5t193 38.5q143 0 245.5 -65.5t148.5 -184.5l-128 -57q-62 182 -268 182q-101 0 -160 -44.5t-59 -120.5
q0 -44 19.5 -74.5t55.5 -51.5q30 -17 73 -29.5t114 -27.5q91 -20 148.5 -37t106.5 -45q67 -38 103.5 -99t36.5 -157q0 -100 -47 -175t-133.5 -116t-200.5 -41h-6z" />
    <glyph glyph-name="Scaron" unicode="&#x160;" horiz-adv-x="1277" 
d="M402.5 35.5q-115.5 50.5 -191.5 147.5t-99 233l151 37q23 -159 127.5 -245t264.5 -86q104 0 182.5 39t120.5 107t42 154q0 97 -51 161t-126 103t-204 88q-139 53 -222 97t-140.5 121t-57.5 195q0 120 59 211t160 140t224 49q301 0 446 -252l-126 -79q-56 98 -136 146.5
t-188 48.5q-81 0 -146 -33.5t-102.5 -92.5t-37.5 -133q0 -80 45.5 -133.5t113.5 -87t187 -77.5q147 -54 237 -102t153.5 -135t63.5 -223q0 -132 -62.5 -234t-175 -158.5t-257.5 -56.5q-139 0 -254.5 50.5zM300 2030h124l212 -206l212 206h124l-336 -342z" />
    <glyph glyph-name="scaron" unicode="&#x161;" horiz-adv-x="1038" 
d="M352 21q-94 37 -161 105.5t-96 159.5l135 48q33 -109 119 -167t206 -58q113 0 172.5 48.5t59.5 141.5q0 54 -21 90t-60 60q-33 21 -82 35.5t-128 31.5q-71 16 -119 29t-87 31q-159 75 -159 242q0 92 46 162t130 108.5t193 38.5q143 0 245.5 -65.5t148.5 -184.5l-128 -57
q-62 182 -268 182q-101 0 -160 -44.5t-59 -120.5q0 -44 19.5 -74.5t55.5 -51.5q30 -17 73 -29.5t114 -27.5q91 -20 148.5 -37t106.5 -45q67 -38 103.5 -99t36.5 -157q0 -100 -47 -175t-133.5 -116t-200.5 -41q-109 0 -203 37zM175 1570h124l212 -206l212 206h124l-336 -342z
" />
    <glyph glyph-name="uni0162" unicode="&#x162;" horiz-adv-x="1401" 
d="M625 1433h-549v137h1248v-137h-546v-1433h-153v1433zM523.5 -455.5q-48.5 17.5 -91.5 52.5l42 70q33 -32 73 -47t78 -15q54 0 86 27.5t32 69.5q0 34 -21.5 59t-61.5 37q-40 13 -110 13l110 189h79l-83 -134q36 -5 55 -13q53 -19 82 -58t29 -93q0 -49 -26.5 -89t-72.5 -63
t-103 -23q-48 0 -96.5 17.5z" />
    <glyph glyph-name="uni0163" unicode="&#x163;" horiz-adv-x="765" 
d="M565 -205q29 -39 29 -93q0 -49 -26.5 -89t-72.5 -63t-103 -23q-48 0 -96.5 17.5t-91.5 52.5l42 70q33 -32 73 -47t78 -15q54 0 86 27.5t32 69.5q0 34 -21.5 59t-61.5 37q-40 13 -110 13l110 188q-104 32 -150 119.5t-46 192.5v674h-184v125h186v304l145 108v-412h288
v-125h-288v-656q0 -220 181 -220q54 0 101 14l25 -120q-27 -8 -67.5 -13.5t-81.5 -5.5q-13 0 -39 2l-74 -120q36 -5 55 -13q53 -19 82 -58z" />
    <glyph glyph-name="Tcaron" unicode="&#x164;" horiz-adv-x="1401" 
d="M625 1433h-549v137h1248v-137h-546v-1433h-153v1433zM367 2030h124l212 -206l212 206h124l-336 -342z" />
    <glyph glyph-name="tcaron" unicode="&#x165;" horiz-adv-x="765" 
d="M360.5 33q-68.5 49 -96.5 122.5t-28 155.5v674h-184v125h186v304l145 108v-412h288v-125h-288v-656q0 -220 181 -220q54 0 101 14l25 -120q-27 -8 -67.5 -13.5t-81.5 -5.5q-112 0 -180.5 49zM802 1771.5q42 -61.5 42 -150.5q0 -67 -26 -138.5t-80 -131.5t-133 -89l-35 80
q56 22 97.5 63t63.5 92t22 100q0 27 -6 49q-16 -17 -37.5 -26.5t-44.5 -9.5q-46 0 -78.5 33t-32.5 80t33 78.5t83 31.5q90 0 132 -61.5z" />
    <glyph glyph-name="Tbar" unicode="&#x166;" horiz-adv-x="1401" 
d="M778 1433v-597h277v-102h-277v-734h-153v734h-275v102h275v597h-549v137h1248v-137h-546z" />
    <glyph glyph-name="tbar" unicode="&#x167;" horiz-adv-x="765" 
d="M383 504v-175q0 -220 181 -220q54 0 101 14l25 -120q-27 -8 -67.5 -13.5t-81.5 -5.5q-112 0 -180.5 49t-96.5 122.5t-28 155.5v193h-207v102h207v379h-184v125h186v304l145 108v-412h288v-125h-288v-379h351v-102h-351z" />
    <glyph glyph-name="Utilde" unicode="&#x168;" horiz-adv-x="1571" 
d="M537 23.5q-109 39.5 -181 114.5q-67 71 -100.5 171.5t-33.5 251.5v1009h153v-1004q0 -110 21 -187t71 -134q51 -60 132 -93t187 -33t186.5 32.5t133.5 93.5q47 54 68.5 128.5t21.5 192.5v1004h153v-1009q0 -151 -31.5 -250.5t-101.5 -172.5q-72 -75 -180.5 -114.5
t-249.5 -39.5q-140 0 -249 39.5zM862 1762.5q-35 16.5 -57.5 39.5t-50.5 59q-33 43 -58 63.5t-62 20.5q-54 1 -84 -47t-30 -132h-89q0 129 55.5 201.5t151.5 72.5q43 0 75.5 -15.5t54.5 -38t49 -57.5q36 -45 62 -66t65 -21q47 0 76 51t29 137h93q0 -87 -24.5 -151t-69 -98.5
t-104.5 -34.5q-47 0 -82 16.5z" />
    <glyph glyph-name="utilde" unicode="&#x169;" horiz-adv-x="1256" 
d="M413 5.5q-66 21.5 -113 60.5q-64 55 -95 143t-31 231v670h147v-630q0 -122 19.5 -191.5t63.5 -111.5q73 -68 203 -68q139 0 217 84q44 47 63.5 116.5t19.5 182.5v618h148v-1110h-148v139h-11q-44 -68 -132.5 -111.5t-202.5 -43.5q-82 0 -148 21.5zM701 1302.5
q-35 16.5 -57.5 39.5t-50.5 59q-33 43 -58 63.5t-62 20.5q-54 1 -84 -47t-30 -132h-89q0 129 55.5 201.5t151.5 72.5q43 0 75.5 -15.5t54.5 -38t49 -57.5q36 -45 62 -66t65 -21q47 0 76 51t29 137h93q0 -87 -24.5 -151t-69 -98.5t-104.5 -34.5q-47 0 -82 16.5z" />
    <glyph glyph-name="Umacron" unicode="&#x16a;" horiz-adv-x="1571" 
d="M537 23.5q-109 39.5 -181 114.5q-67 71 -100.5 171.5t-33.5 251.5v1009h153v-1004q0 -110 21 -187t71 -134q51 -60 132 -93t187 -33t186.5 32.5t133.5 93.5q47 54 68.5 128.5t21.5 192.5v1004h153v-1009q0 -151 -31.5 -250.5t-101.5 -172.5q-72 -75 -180.5 -114.5
t-249.5 -39.5q-140 0 -249 39.5zM483 1907h608v-91h-608v91z" />
    <glyph glyph-name="umacron" unicode="&#x16b;" horiz-adv-x="1256" 
d="M413 5.5q-66 21.5 -113 60.5q-64 55 -95 143t-31 231v670h147v-630q0 -122 19.5 -191.5t63.5 -111.5q73 -68 203 -68q139 0 217 84q44 47 63.5 116.5t19.5 182.5v618h148v-1110h-148v139h-11q-44 -68 -132.5 -111.5t-202.5 -43.5q-82 0 -148 21.5zM322 1447h608v-91h-608
v91z" />
    <glyph glyph-name="Uring" unicode="&#x16e;" horiz-adv-x="1571" 
d="M537 23.5q-109 39.5 -181 114.5q-67 71 -100.5 171.5t-33.5 251.5v1009h153v-1004q0 -110 21 -187t71 -134q51 -60 132 -93t187 -33t186.5 32.5t133.5 93.5q47 54 68.5 128.5t21.5 192.5v1004h153v-1009q0 -151 -31.5 -250.5t-101.5 -172.5q-72 -75 -180.5 -114.5
t-249.5 -39.5q-140 0 -249 39.5zM676.5 1705q-49.5 29 -78 79t-28.5 108q0 59 29 108.5t78.5 78.5t108.5 29q57 0 107 -29t79.5 -79t29.5 -108q0 -59 -29 -108.5t-78.5 -78.5t-108.5 -29q-60 0 -109.5 29zM880 1798.5q38 38.5 38 95.5q0 55 -37.5 92.5t-94.5 37.5
t-94.5 -37.5t-37.5 -92.5q0 -57 38 -95.5t94 -38.5t94 38.5z" />
    <glyph glyph-name="uring" unicode="&#x16f;" horiz-adv-x="1256" 
d="M413 5.5q-66 21.5 -113 60.5q-64 55 -95 143t-31 231v670h147v-630q0 -122 19.5 -191.5t63.5 -111.5q73 -68 203 -68q139 0 217 84q44 47 63.5 116.5t19.5 182.5v618h148v-1110h-148v139h-11q-44 -68 -132.5 -111.5t-202.5 -43.5q-82 0 -148 21.5zM515.5 1245
q-49.5 29 -78 79t-28.5 108q0 59 29 108.5t78.5 78.5t108.5 29q57 0 107 -29t79.5 -79t29.5 -108q0 -59 -29 -108.5t-78.5 -78.5t-108.5 -29q-60 0 -109.5 29zM719 1338.5q38 38.5 38 95.5q0 55 -37.5 92.5t-94.5 37.5t-94.5 -37.5t-37.5 -92.5q0 -57 38 -95.5t94 -38.5
t94 38.5z" />
    <glyph glyph-name="Uhungarumlaut" unicode="&#x170;" horiz-adv-x="1571" 
d="M537 23.5q-109 39.5 -181 114.5q-67 71 -100.5 171.5t-33.5 251.5v1009h153v-1004q0 -110 21 -187t71 -134q51 -60 132 -93t187 -33t186.5 32.5t133.5 93.5q47 54 68.5 128.5t21.5 192.5v1004h153v-1009q0 -151 -31.5 -250.5t-101.5 -172.5q-72 -75 -180.5 -114.5
t-249.5 -39.5q-140 0 -249 39.5zM765 2030h135l-246 -317h-116zM1144 2030h159l-267 -317h-118z" />
    <glyph glyph-name="uhungarumlaut" unicode="&#x171;" horiz-adv-x="1256" 
d="M413 5.5q-66 21.5 -113 60.5q-64 55 -95 143t-31 231v670h147v-630q0 -122 19.5 -191.5t63.5 -111.5q73 -68 203 -68q139 0 217 84q44 47 63.5 116.5t19.5 182.5v618h148v-1110h-148v139h-11q-44 -68 -132.5 -111.5t-202.5 -43.5q-82 0 -148 21.5zM604 1570h135
l-246 -317h-116zM983 1570h159l-267 -317h-118z" />
    <glyph glyph-name="Uogonek" unicode="&#x172;" horiz-adv-x="1571" 
d="M1349 1570v-1009q0 -151 -31.5 -250.5t-101.5 -172.5q-66 -67 -155 -104q-84 -57 -130.5 -123t-46.5 -124q0 -61 45.5 -96t133.5 -35v-95q-142 0 -218.5 51.5t-76.5 137.5q0 57 35.5 120t101.5 122q-61 -8 -119 -8q-140 0 -249 39.5t-181 114.5q-67 71 -100.5 171.5
t-33.5 251.5v1009h153v-1004q0 -110 21 -187t71 -134q51 -60 132 -93t187 -33t186.5 32.5t133.5 93.5q47 54 68.5 128.5t21.5 192.5v1004h153z" />
    <glyph glyph-name="uogonek" unicode="&#x173;" horiz-adv-x="1256" 
d="M923 -123.5q-47 -66.5 -47 -124.5q0 -61 45.5 -96t133.5 -35v-95q-142 0 -218.5 51.5t-76.5 137.5q0 68 49.5 143t140.5 142h-43v139h-11q-44 -68 -132.5 -111.5t-202.5 -43.5q-82 0 -148 21.5t-113 60.5q-64 55 -95 143t-31 231v670h147v-630q0 -122 19.5 -191.5
t63.5 -111.5q73 -68 203 -68q139 0 217 84q44 47 63.5 116.5t19.5 182.5v618h148v-1110q-85 -57 -132 -123.5z" />
    <glyph glyph-name="Wcircumflex" unicode="&#x174;" horiz-adv-x="2455" 
d="M84 1570h165l474 -1390h13l405 1288h173l405 -1288h13l474 1390h165l-557 -1570h-180l-401 1252h-12l-401 -1252h-179zM1226 2051l336 -354h-123l-213 211l-212 -211h-122z" />
    <glyph glyph-name="wcircumflex" unicode="&#x175;" horiz-adv-x="1925" 
d="M51 1110h160l359 -997h21l290 997h163l290 -997h21l359 997h160l-411 -1110h-236l-256 868h-16l-256 -868h-237zM961 1591l336 -354h-123l-213 211l-212 -211h-122z" />
    <glyph glyph-name="Ycircumflex" unicode="&#x176;" horiz-adv-x="1489" 
d="M667 585l-598 985h177l495 -820h7l495 820h178l-601 -985v-585h-153v585zM743 2051l336 -354h-123l-213 211l-212 -211h-122z" />
    <glyph glyph-name="ycircumflex" unicode="&#x177;" horiz-adv-x="1136" 
d="M489 15l-445 1095h161l358 -922h8l359 922h162l-635 -1570h-160zM567 1591l336 -354h-123l-213 211l-212 -211h-122z" />
    <glyph glyph-name="Ydieresis" unicode="&#x178;" horiz-adv-x="1489" 
d="M667 585l-598 985h177l495 -820h7l495 820h178l-601 -985v-585h-153v585zM462.5 1760.5q-32.5 33.5 -32.5 80.5q0 45 32.5 77t78.5 32t78.5 -32t32.5 -77q0 -47 -32.5 -80.5t-78.5 -33.5t-78.5 33.5zM868.5 1760.5q-32.5 33.5 -32.5 80.5q0 45 32.5 77t79.5 32
q45 0 78 -32t33 -77q0 -47 -33 -80.5t-78 -33.5q-47 0 -79.5 33.5z" />
    <glyph glyph-name="Zacute" unicode="&#x179;" horiz-adv-x="1437" 
d="M109 144l1005 1277v12h-962v137h1154v-145l-1005 -1277v-11h1020v-137h-1212v144zM905 2030h158l-287 -317h-113z" />
    <glyph glyph-name="zacute" unicode="&#x17a;" horiz-adv-x="1077" 
d="M82 132l712 837v16h-679v125h864v-135l-712 -837v-13h718v-125h-903v132zM723 1570h158l-287 -317h-113z" />
    <glyph glyph-name="Zdotaccent" unicode="&#x17b;" horiz-adv-x="1437" 
d="M109 144l1005 1277v12h-962v137h1154v-145l-1005 -1277v-11h1020v-137h-1212v144zM641.5 1760.5q-32.5 33.5 -32.5 80.5q0 45 32.5 77t78.5 32t78.5 -32t32.5 -77q0 -47 -32.5 -80.5t-78.5 -33.5t-78.5 33.5z" />
    <glyph glyph-name="zdotaccent" unicode="&#x17c;" horiz-adv-x="1077" 
d="M82 132l712 837v16h-679v125h864v-135l-712 -837v-13h718v-125h-903v132zM459 1402.5q-32 32.5 -32 79.5q0 45 32.5 78t78.5 33t78.5 -33t32.5 -78q0 -47 -32.5 -79.5t-78.5 -32.5q-47 0 -79 32.5z" />
    <glyph glyph-name="Zcaron" unicode="&#x17d;" horiz-adv-x="1437" 
d="M109 144l1005 1277v12h-962v137h1154v-145l-1005 -1277v-11h1020v-137h-1212v144zM384 2030h124l212 -206l212 206h124l-336 -342z" />
    <glyph glyph-name="zcaron" unicode="&#x17e;" horiz-adv-x="1077" 
d="M82 132l712 837v16h-679v125h864v-135l-712 -837v-13h718v-125h-903v132zM202 1570h124l212 -206l212 206h124l-336 -342z" />
    <glyph glyph-name="florin" unicode="&#x192;" horiz-adv-x="1148" 
d="M145 -392q118 0 188.5 32.5t103.5 105t33 195.5v1056h-194v113h194v143q0 101 37.5 179t104.5 120.5t151 42.5q131 0 243 -98l-80 -95q-41 35 -79.5 51.5t-83.5 16.5q-76 0 -122 -56.5t-46 -160.5v-143h303v-113h-303v-1068q0 -222 -113 -328t-337 -106v113z" />
    <glyph glyph-name="uni01C4" unicode="&#x1c4;" horiz-adv-x="3040" 
d="M253 1570h343q168 0 287 -19.5t203 -58.5t155 -100q116 -101 176 -257.5t60 -360.5q0 -197 -58.5 -346t-172.5 -249q-76 -66 -165.5 -105t-207 -56.5t-279.5 -17.5h-341v1570zM580 137q151 0 255.5 17.5t176 51.5t131.5 88q90 82 136 204.5t46 280.5q0 331 -184 501
q-92 85 -216.5 119t-330.5 34h-188v-1296h174zM1712 144l1005 1277v12h-962v137h1154v-145l-1005 -1277v-11h1020v-137h-1212v144zM1987 2030h124l212 -206l212 206h124l-336 -342z" />
    <glyph glyph-name="uni01C5" unicode="&#x1c5;" horiz-adv-x="2708" 
d="M253 1570h343q168 0 287 -19.5t203 -58.5t155 -100q116 -101 176 -257.5t60 -360.5q0 -197 -58.5 -346t-172.5 -249q-76 -66 -165.5 -105t-207 -56.5t-279.5 -17.5h-341v1570zM580 137q151 0 255.5 17.5t176 51.5t131.5 88q90 82 136 204.5t46 280.5q0 331 -184 501
q-92 85 -216.5 119t-330.5 34h-188v-1296h174zM1713 132l712 837v16h-679v125h864v-135l-712 -837v-13h718v-125h-903v132zM1833 1570h124l212 -206l212 206h124l-336 -342z" />
    <glyph glyph-name="uni01C6" unicode="&#x1c6;" horiz-adv-x="2434" 
d="M352 51q-113 67 -174.5 196t-61.5 309t61.5 308.5t173 195.5t259.5 67q128 0 227 -52.5t159 -143.5h11v639h147v-1570h-147v174h-11q-61 -90 -159 -140t-220 -50q-152 0 -265 67zM837.5 164.5q86.5 55.5 134 156.5t47.5 235q0 133 -47.5 234t-133.5 156.5t-199 55.5
q-112 0 -196.5 -51.5t-132 -152t-47.5 -242.5q0 -144 47.5 -244.5t132.5 -151.5t196 -51q112 0 198.5 55.5zM1439 132l712 837v16h-679v125h864v-135l-712 -837v-13h718v-125h-903v132zM1559 1570h124l212 -206l212 206h124l-336 -342z" />
    <glyph glyph-name="uni01C7" unicode="&#x1c7;" horiz-adv-x="2553" 
d="M253 1570h153v-1433h716v-137h-869v1570zM1555 51q-102 56 -158 158t-63 243l152 20q5 -110 50.5 -189.5t124.5 -120.5q72 -43 174 -43q170 0 261 103q41 51 60.5 134t19.5 238v839h-639v137h792v-976q0 -178 -27 -285.5t-92 -181.5q-65 -71 -157.5 -107t-217.5 -36
q-169 0 -280 67z" />
    <glyph glyph-name="uni01C8" unicode="&#x1c8;" horiz-adv-x="1753" 
d="M253 1570h153v-1433h716v-137h-869v1570zM1194 -469.5q-55 9.5 -108 26.5l42 125q29 -12 61.5 -19t56.5 -7q82 0 120 50q21 25 29 65t8 108v1231h148v-1258q0 -87 -12 -147t-45 -102q-66 -82 -207 -82q-38 0 -93 9.5zM1399 1402.5q-32 32.5 -32 79.5q0 45 32.5 78
t78.5 33t78.5 -33t32.5 -78q0 -47 -32.5 -79.5t-78.5 -32.5q-47 0 -79 32.5z" />
    <glyph glyph-name="uni01C9" unicode="&#x1c9;" horiz-adv-x="1158" 
d="M248 36q-32 31 -42.5 88t-10.5 168v1278h147v-1247q0 -90 4 -126t24 -58q25 -30 91 -30q41 0 82 10l22 -112q-69 -23 -154 -23q-110 0 -163 52zM599 -469.5q-55 9.5 -108 26.5l42 125q29 -12 61.5 -19t56.5 -7q82 0 120 50q21 25 29 65t8 108v1231h148v-1258
q0 -87 -12 -147t-45 -102q-66 -82 -207 -82q-38 0 -93 9.5zM804 1402.5q-32 32.5 -32 79.5q0 45 32.5 78t78.5 33t78.5 -33t32.5 -78q0 -47 -32.5 -79.5t-78.5 -32.5q-47 0 -79 32.5z" />
    <glyph glyph-name="uni01CA" unicode="&#x1ca;" horiz-adv-x="2956" 
d="M253 1570h229l744 -1375h14v1375h152v-1570h-231l-742 1377h-13v-1377h-153v1570zM1958 51q-102 56 -158 158t-63 243l152 20q5 -110 50.5 -189.5t124.5 -120.5q72 -43 174 -43q170 0 261 103q41 51 60.5 134t19.5 238v839h-639v137h792v-976q0 -178 -27 -285.5
t-92 -181.5q-65 -71 -157.5 -107t-217.5 -36q-169 0 -280 67z" />
    <glyph glyph-name="uni01CB" unicode="&#x1cb;" horiz-adv-x="2199" 
d="M253 1570h229l744 -1375h14v1375h152v-1570h-231l-742 1377h-13v-1377h-153v1570zM1640 -469.5q-55 9.5 -108 26.5l42 125q29 -12 61.5 -19t56.5 -7q82 0 120 50q21 25 29 65t8 108v1231h148v-1258q0 -87 -12 -147t-45 -102q-66 -82 -207 -82q-38 0 -93 9.5zM1845 1402.5
q-32 32.5 -32 79.5q0 45 32.5 78t78.5 33t78.5 -33t32.5 -78q0 -47 -32.5 -79.5t-78.5 -32.5q-47 0 -79 32.5z" />
    <glyph glyph-name="uni01CC" unicode="&#x1cc;" horiz-adv-x="1811" 
d="M201 1110h147v-138h12q44 68 132 111.5t203 43.5q82 0 148 -21.5t113 -61.5q64 -55 94.5 -143t30.5 -231v-670h-147v631q0 121 -19.5 191t-62.5 112q-73 68 -203 68q-139 0 -218 -85q-43 -46 -63 -116t-20 -182v-619h-147v1110zM1252 -469.5q-55 9.5 -108 26.5l42 125
q29 -12 61.5 -19t56.5 -7q82 0 120 50q21 25 29 65t8 108v1231h148v-1258q0 -87 -12 -147t-45 -102q-66 -82 -207 -82q-38 0 -93 9.5zM1457 1402.5q-32 32.5 -32 79.5q0 45 32.5 78t78.5 33t78.5 -33t32.5 -78q0 -47 -32.5 -79.5t-78.5 -32.5q-47 0 -79 32.5z" />
    <glyph glyph-name="uni01CD" unicode="&#x1cd;" horiz-adv-x="1461" 
d="M1084 377h-704l-129 -377h-167l557 1570h179l557 -1570h-165zM1038 513l-300 882h-9l-302 -882h611zM396 2030h124l212 -206l212 206h124l-336 -342z" />
    <glyph glyph-name="uni01CE" unicode="&#x1ce;" 
d="M1008.5 858q17.5 -75 17.5 -191v-667h-148v172h-12q-43 -80 -140 -129q-103 -59 -236 -59q-119 0 -206.5 41t-134.5 117t-47 179q0 104 39.5 171.5t115.5 105.5q55 28 123.5 38.5t177.5 10.5h320v11q0 105 -16.5 167.5t-54.5 100.5t-98.5 57t-133.5 19q-102 0 -187 -40.5
t-162 -126.5l-91 99q96 99 203.5 146t236.5 47q126 0 219 -35t149 -102q48 -57 65.5 -132zM842.5 297q23.5 54 29.5 105.5t6 119.5h-311q-100 0 -154 -9t-91 -33q-33 -22 -53 -61.5t-20 -97.5q0 -101 69.5 -160t195.5 -59q155 0 257 97q48 44 71.5 98zM262 1570h124
l212 -206l212 206h124l-336 -342z" />
    <glyph glyph-name="uni01CF" unicode="&#x1cf;" horiz-adv-x="659" 
d="M253 1570h153v-1570h-153v1570zM-7 2030h124l212 -206l212 206h124l-336 -342z" />
    <glyph glyph-name="uni01D0" unicode="&#x1d0;" horiz-adv-x="549" 
d="M201 1110h147v-1110h-147v1110zM-61 1570h124l212 -206l212 206h124l-336 -342z" />
    <glyph glyph-name="uni01D1" unicode="&#x1d1;" horiz-adv-x="1733" 
d="M478 86q-161 102 -244 283.5t-83 415.5t83 415.5t244 284t387 102.5q227 0 389 -102.5t245.5 -284t83.5 -415.5t-83.5 -415.5t-245.5 -283.5t-389 -102q-226 0 -387 102zM1173 204q127 85 192 235.5t65 345.5t-65 345.5t-192 235.5t-308 85q-179 0 -305.5 -85
t-191.5 -236t-65 -345t65 -345t191.5 -236t305.5 -85q181 0 308 85zM531 2030h124l212 -206l212 206h124l-336 -342z" />
    <glyph glyph-name="uni01D2" unicode="&#x1d2;" horiz-adv-x="1287" 
d="M365.5 54q-120.5 70 -187.5 200t-67 304q0 173 66.5 302t187.5 198t278 69q158 0 278.5 -69t187.5 -198t67 -302q0 -174 -67 -304t-188 -200t-278 -70t-277.5 70zM849 164q87 55 133.5 156.5t46.5 237.5q0 134 -46.5 234.5t-133.5 155t-206 54.5t-206 -54t-133 -154.5
t-46 -235.5q0 -136 46 -237.5t133 -156.5t206 -55t206 55zM307 1570h124l212 -206l212 206h124l-336 -342z" />
    <glyph glyph-name="uni01D3" unicode="&#x1d3;" horiz-adv-x="1571" 
d="M537 23.5q-109 39.5 -181 114.5q-67 71 -100.5 171.5t-33.5 251.5v1009h153v-1004q0 -110 21 -187t71 -134q51 -60 132 -93t187 -33t186.5 32.5t133.5 93.5q47 54 68.5 128.5t21.5 192.5v1004h153v-1009q0 -151 -31.5 -250.5t-101.5 -172.5q-72 -75 -180.5 -114.5
t-249.5 -39.5q-140 0 -249 39.5zM451 2030h124l212 -206l212 206h124l-336 -342z" />
    <glyph glyph-name="uni01D4" unicode="&#x1d4;" horiz-adv-x="1256" 
d="M413 5.5q-66 21.5 -113 60.5q-64 55 -95 143t-31 231v670h147v-630q0 -122 19.5 -191.5t63.5 -111.5q73 -68 203 -68q139 0 217 84q44 47 63.5 116.5t19.5 182.5v618h148v-1110h-148v139h-11q-44 -68 -132.5 -111.5t-202.5 -43.5q-82 0 -148 21.5zM290 1570h124l212 -206
l212 206h124l-336 -342z" />
    <glyph glyph-name="uni01D5" unicode="&#x1d5;" horiz-adv-x="1571" 
d="M537 23.5q-109 39.5 -181 114.5q-67 71 -100.5 171.5t-33.5 251.5v1009h153v-1004q0 -110 21 -187t71 -134q51 -60 132 -93t187 -33t186.5 32.5t133.5 93.5q47 54 68.5 128.5t21.5 192.5v1004h153v-1009q0 -151 -31.5 -250.5t-101.5 -172.5q-72 -75 -180.5 -114.5
t-249.5 -39.5q-140 0 -249 39.5zM504.5 1760.5q-32.5 33.5 -32.5 80.5q0 45 32.5 77t78.5 32t78.5 -32t32.5 -77q0 -47 -32.5 -80.5t-78.5 -33.5t-78.5 33.5zM910.5 1760.5q-32.5 33.5 -32.5 80.5q0 45 32.5 77t79.5 32q45 0 78 -32t33 -77q0 -47 -33 -80.5t-78 -33.5
q-47 0 -79.5 33.5zM483 2287h608v-91h-608v91z" />
    <glyph glyph-name="uni01D6" unicode="&#x1d6;" horiz-adv-x="1256" 
d="M413 5.5q-66 21.5 -113 60.5q-64 55 -95 143t-31 231v670h147v-630q0 -122 19.5 -191.5t63.5 -111.5q73 -68 203 -68q139 0 217 84q44 47 63.5 116.5t19.5 182.5v618h148v-1110h-148v139h-11q-44 -68 -132.5 -111.5t-202.5 -43.5q-82 0 -148 21.5zM343 1402.5
q-32 32.5 -32 79.5q0 45 32.5 78t78.5 33t78.5 -33t32.5 -78q0 -47 -32.5 -79.5t-78.5 -32.5q-47 0 -79 32.5zM749.5 1402.5q-32.5 32.5 -32.5 79.5q0 45 32.5 78t79.5 33q45 0 78 -33t33 -78q0 -47 -33 -79.5t-78 -32.5q-47 0 -79.5 32.5zM322 1930h608v-91h-608v91z" />
    <glyph glyph-name="uni01D7" unicode="&#x1d7;" horiz-adv-x="1571" 
d="M537 23.5q-109 39.5 -181 114.5q-67 71 -100.5 171.5t-33.5 251.5v1009h153v-1004q0 -110 21 -187t71 -134q51 -60 132 -93t187 -33t186.5 32.5t133.5 93.5q47 54 68.5 128.5t21.5 192.5v1004h153v-1009q0 -151 -31.5 -250.5t-101.5 -172.5q-72 -75 -180.5 -114.5
t-249.5 -39.5q-140 0 -249 39.5zM504.5 1760.5q-32.5 33.5 -32.5 80.5q0 45 32.5 77t78.5 32t78.5 -32t32.5 -77q0 -47 -32.5 -80.5t-78.5 -33.5t-78.5 33.5zM910.5 1760.5q-32.5 33.5 -32.5 80.5q0 45 32.5 77t79.5 32q45 0 78 -32t33 -77q0 -47 -33 -80.5t-78 -33.5
q-47 0 -79.5 33.5zM972 2410h158l-287 -317h-113z" />
    <glyph glyph-name="uni01D8" unicode="&#x1d8;" horiz-adv-x="1256" 
d="M413 5.5q-66 21.5 -113 60.5q-64 55 -95 143t-31 231v670h147v-630q0 -122 19.5 -191.5t63.5 -111.5q73 -68 203 -68q139 0 217 84q44 47 63.5 116.5t19.5 182.5v618h148v-1110h-148v139h-11q-44 -68 -132.5 -111.5t-202.5 -43.5q-82 0 -148 21.5zM343 1402.5
q-32 32.5 -32 79.5q0 45 32.5 78t78.5 33t78.5 -33t32.5 -78q0 -47 -32.5 -79.5t-78.5 -32.5q-47 0 -79 32.5zM749.5 1402.5q-32.5 32.5 -32.5 79.5q0 45 32.5 78t79.5 33q45 0 78 -33t33 -78q0 -47 -33 -79.5t-78 -32.5q-47 0 -79.5 32.5zM811 2053h158l-287 -317h-113z
" />
    <glyph glyph-name="uni01D9" unicode="&#x1d9;" horiz-adv-x="1571" 
d="M537 23.5q-109 39.5 -181 114.5q-67 71 -100.5 171.5t-33.5 251.5v1009h153v-1004q0 -110 21 -187t71 -134q51 -60 132 -93t187 -33t186.5 32.5t133.5 93.5q47 54 68.5 128.5t21.5 192.5v1004h153v-1009q0 -151 -31.5 -250.5t-101.5 -172.5q-72 -75 -180.5 -114.5
t-249.5 -39.5q-140 0 -249 39.5zM504.5 1760.5q-32.5 33.5 -32.5 80.5q0 45 32.5 77t78.5 32t78.5 -32t32.5 -77q0 -47 -32.5 -80.5t-78.5 -33.5t-78.5 33.5zM910.5 1760.5q-32.5 33.5 -32.5 80.5q0 45 32.5 77t79.5 32q45 0 78 -32t33 -77q0 -47 -33 -80.5t-78 -33.5
q-47 0 -79.5 33.5zM451 2410h124l212 -206l212 206h124l-336 -342z" />
    <glyph glyph-name="uni01DA" unicode="&#x1da;" horiz-adv-x="1256" 
d="M413 5.5q-66 21.5 -113 60.5q-64 55 -95 143t-31 231v670h147v-630q0 -122 19.5 -191.5t63.5 -111.5q73 -68 203 -68q139 0 217 84q44 47 63.5 116.5t19.5 182.5v618h148v-1110h-148v139h-11q-44 -68 -132.5 -111.5t-202.5 -43.5q-82 0 -148 21.5zM343 1402.5
q-32 32.5 -32 79.5q0 45 32.5 78t78.5 33t78.5 -33t32.5 -78q0 -47 -32.5 -79.5t-78.5 -32.5q-47 0 -79 32.5zM749.5 1402.5q-32.5 32.5 -32.5 79.5q0 45 32.5 78t79.5 33q45 0 78 -33t33 -78q0 -47 -33 -79.5t-78 -32.5q-47 0 -79.5 32.5zM290 2053h124l212 -206l212 206
h124l-336 -342z" />
    <glyph glyph-name="uni01DB" unicode="&#x1db;" horiz-adv-x="1571" 
d="M537 23.5q-109 39.5 -181 114.5q-67 71 -100.5 171.5t-33.5 251.5v1009h153v-1004q0 -110 21 -187t71 -134q51 -60 132 -93t187 -33t186.5 32.5t133.5 93.5q47 54 68.5 128.5t21.5 192.5v1004h153v-1009q0 -151 -31.5 -250.5t-101.5 -172.5q-72 -75 -180.5 -114.5
t-249.5 -39.5q-140 0 -249 39.5zM504.5 1760.5q-32.5 33.5 -32.5 80.5q0 45 32.5 77t78.5 32t78.5 -32t32.5 -77q0 -47 -32.5 -80.5t-78.5 -33.5t-78.5 33.5zM910.5 1760.5q-32.5 33.5 -32.5 80.5q0 45 32.5 77t79.5 32q45 0 78 -32t33 -77q0 -47 -33 -80.5t-78 -33.5
q-47 0 -79.5 33.5zM452 2410h158l235 -317h-116z" />
    <glyph glyph-name="uni01DC" unicode="&#x1dc;" horiz-adv-x="1256" 
d="M413 5.5q-66 21.5 -113 60.5q-64 55 -95 143t-31 231v670h147v-630q0 -122 19.5 -191.5t63.5 -111.5q73 -68 203 -68q139 0 217 84q44 47 63.5 116.5t19.5 182.5v618h148v-1110h-148v139h-11q-44 -68 -132.5 -111.5t-202.5 -43.5q-82 0 -148 21.5zM343 1402.5
q-32 32.5 -32 79.5q0 45 32.5 78t78.5 33t78.5 -33t32.5 -78q0 -47 -32.5 -79.5t-78.5 -32.5q-47 0 -79 32.5zM749.5 1402.5q-32.5 32.5 -32.5 79.5q0 45 32.5 78t79.5 33q45 0 78 -33t33 -78q0 -47 -33 -79.5t-78 -32.5q-47 0 -79.5 32.5zM291 2053h158l235 -317h-116z" />
    <glyph glyph-name="uni01EB" unicode="&#x1eb;" horiz-adv-x="1287" 
d="M646.5 -124q-46.5 -66 -46.5 -124q0 -61 45.5 -96t133.5 -35v-95q-142 0 -218.5 51.5t-76.5 137.5q0 65 43.5 135t125.5 134h-10q-157 0 -277.5 70t-187.5 200t-67 304q0 173 66.5 302t187.5 198t278 69q158 0 278.5 -69t187.5 -198t67 -302q0 -148 -49 -265
t-139.5 -192.5t-211.5 -102.5q-83 -56 -129.5 -122zM304 320.5q46 -101.5 133 -156.5t206 -55t206 55t133.5 156.5t46.5 237.5q0 134 -46.5 234.5t-133.5 155t-206 54.5t-206 -54t-133 -154.5t-46 -235.5q0 -136 46 -237.5z" />
    <glyph glyph-name="uni01F1" unicode="&#x1f1;" horiz-adv-x="3040" 
d="M253 1570h343q168 0 287 -19.5t203 -58.5t155 -100q116 -101 176 -257.5t60 -360.5q0 -197 -58.5 -346t-172.5 -249q-76 -66 -165.5 -105t-207 -56.5t-279.5 -17.5h-341v1570zM580 137q151 0 255.5 17.5t176 51.5t131.5 88q90 82 136 204.5t46 280.5q0 331 -184 501
q-92 85 -216.5 119t-330.5 34h-188v-1296h174zM1712 144l1005 1277v12h-962v137h1154v-145l-1005 -1277v-11h1020v-137h-1212v144z" />
    <glyph glyph-name="uni01F2" unicode="&#x1f2;" horiz-adv-x="2708" 
d="M253 1570h343q168 0 287 -19.5t203 -58.5t155 -100q116 -101 176 -257.5t60 -360.5q0 -197 -58.5 -346t-172.5 -249q-76 -66 -165.5 -105t-207 -56.5t-279.5 -17.5h-341v1570zM580 137q151 0 255.5 17.5t176 51.5t131.5 88q90 82 136 204.5t46 280.5q0 331 -184 501
q-92 85 -216.5 119t-330.5 34h-188v-1296h174zM1713 132l712 837v16h-679v125h864v-135l-712 -837v-13h718v-125h-903v132z" />
    <glyph glyph-name="uni01F3" unicode="&#x1f3;" horiz-adv-x="2434" 
d="M352 51q-113 67 -174.5 196t-61.5 309t61.5 308.5t173 195.5t259.5 67q128 0 227 -52.5t159 -143.5h11v639h147v-1570h-147v174h-11q-61 -90 -159 -140t-220 -50q-152 0 -265 67zM837.5 164.5q86.5 55.5 134 156.5t47.5 235q0 133 -47.5 234t-133.5 156.5t-199 55.5
q-112 0 -196.5 -51.5t-132 -152t-47.5 -242.5q0 -144 47.5 -244.5t132.5 -151.5t196 -51q112 0 198.5 55.5zM1439 132l712 837v16h-679v125h864v-135l-712 -837v-13h718v-125h-903v132z" />
    <glyph glyph-name="Oslashacute" unicode="&#x1fe;" horiz-adv-x="1733" 
d="M923 1713h-113l242 317h158zM1519.5 1153.5q63.5 -164.5 63.5 -368.5q0 -234 -83.5 -415.5t-245.5 -283.5t-389 -102q-210 0 -371 92l-75 -121l-100 62l80 128q-121 106 -184.5 271t-63.5 369q0 234 83 415.5t244 284t387 102.5q214 0 376 -95l75 121l98 -61l-79 -128
q121 -106 184.5 -270.5zM347.5 493q44.5 -132 130.5 -221l687 1099q-129 80 -300 80q-179 0 -305.5 -85t-191.5 -236t-65 -345q0 -160 44.5 -292zM1173 204q127 85 192 235.5t65 345.5q0 161 -44.5 292.5t-130.5 219.5l-685 -1100q126 -78 295 -78q181 0 308 85z" />
    <glyph glyph-name="oslashacute" unicode="&#x1ff;" horiz-adv-x="1287" 
d="M699 1253h-113l242 317h158zM1128.5 817.5q47.5 -114.5 47.5 -259.5q0 -174 -67 -304t-188 -200t-278 -70q-142 0 -252 56l-84 -134l-101 62l86 138q-87 75 -134 190.5t-47 261.5q0 173 66.5 302t187.5 198t278 69q140 0 253 -55l81 130l100 -61l-83 -134
q87 -75 134.5 -189.5zM285.5 368q27.5 -85 80.5 -144l460 736q-78 42 -183 42q-119 0 -206 -54t-133 -154.5t-46 -235.5q0 -105 27.5 -190zM849 164q87 55 133.5 156.5t46.5 237.5q0 103 -28 187.5t-81 143.5l-460 -738q81 -42 183 -42q119 0 206 55z" />
    <glyph glyph-name="uni0218" unicode="&#x218;" horiz-adv-x="1277" 
d="M402.5 35.5q-115.5 50.5 -191.5 147.5t-99 233l151 37q23 -159 127.5 -245t264.5 -86q104 0 182.5 39t120.5 107t42 154q0 97 -51 161t-126 103t-204 88q-139 53 -222 97t-140.5 121t-57.5 195q0 120 59 211t160 140t224 49q301 0 446 -252l-126 -79q-56 98 -136 146.5
t-188 48.5q-81 0 -146 -33.5t-102.5 -92.5t-37.5 -133q0 -80 45.5 -133.5t113.5 -87t187 -77.5q147 -54 237 -102t153.5 -135t63.5 -223q0 -132 -62.5 -234t-175 -158.5t-257.5 -56.5q-139 0 -254.5 50.5zM757.5 -160.5q40.5 -52.5 40.5 -127.5q0 -58 -25 -123t-78.5 -119.5
t-133.5 -79.5l-35 79q55 17 97 51t64 76t22 81q0 20 -6 40q-16 -17 -37.5 -26t-45.5 -9q-46 0 -79 31.5t-33 75.5q0 43 36 73t88 30q85 0 125.5 -52.5z" />
    <glyph glyph-name="uni0219" unicode="&#x219;" horiz-adv-x="1038" 
d="M352 21q-94 37 -161 105.5t-96 159.5l135 48q33 -109 119 -167t206 -58q113 0 172.5 48.5t59.5 141.5q0 54 -21 90t-60 60q-33 21 -82 35.5t-128 31.5q-71 16 -119 29t-87 31q-159 75 -159 242q0 92 46 162t130 108.5t193 38.5q143 0 245.5 -65.5t148.5 -184.5l-128 -57
q-62 182 -268 182q-101 0 -160 -44.5t-59 -120.5q0 -44 19.5 -74.5t55.5 -51.5q30 -17 73 -29.5t114 -27.5q91 -20 148.5 -37t106.5 -45q67 -38 103.5 -99t36.5 -157q0 -100 -47 -175t-133.5 -116t-200.5 -41q-109 0 -203 37zM631.5 -160.5q40.5 -52.5 40.5 -127.5
q0 -58 -25 -123t-78.5 -119.5t-133.5 -79.5l-35 79q55 17 97 51t64 76t22 81q0 20 -6 40q-16 -17 -37.5 -26t-45.5 -9q-46 0 -79 31.5t-33 75.5q0 43 36 73t88 30q85 0 125.5 -52.5z" />
    <glyph glyph-name="uni021A" unicode="&#x21a;" horiz-adv-x="1401" 
d="M625 1433h-549v137h1248v-137h-546v-1433h-153v1433zM811.5 -160.5q40.5 -52.5 40.5 -127.5q0 -58 -25 -123t-78.5 -119.5t-133.5 -79.5l-35 79q55 17 97 51t64 76t22 81q0 20 -6 40q-16 -17 -37.5 -26t-45.5 -9q-46 0 -79 31.5t-33 75.5q0 43 36 73t88 30
q85 0 125.5 -52.5z" />
    <glyph glyph-name="uni021B" unicode="&#x21b;" horiz-adv-x="765" 
d="M360.5 33q-68.5 49 -96.5 122.5t-28 155.5v674h-184v125h186v304l145 108v-412h288v-125h-288v-656q0 -220 181 -220q54 0 101 14l25 -120q-27 -8 -67.5 -13.5t-81.5 -5.5q-112 0 -180.5 49zM583.5 -160.5q40.5 -52.5 40.5 -127.5q0 -58 -25 -123t-78.5 -119.5
t-133.5 -79.5l-35 79q55 17 97 51t64 76t22 81q0 20 -6 40q-16 -17 -37.5 -26t-45.5 -9q-46 0 -79 31.5t-33 75.5q0 43 36 73t88 30q85 0 125.5 -52.5z" />
    <glyph glyph-name="uni0237" unicode="&#x237;" horiz-adv-x="554" 
d="M-5 -469.5q-55 9.5 -108 26.5l42 125q29 -12 61.5 -19t56.5 -7q82 0 120 50q21 25 29 65t8 108v1231h148v-1258q0 -87 -12 -147t-45 -102q-66 -82 -207 -82q-38 0 -93 9.5z" />
    <glyph glyph-name="circumflex" unicode="&#x2c6;" horiz-adv-x="800" 
d="M399 1591l336 -354h-123l-213 211l-212 -211h-122z" />
    <glyph glyph-name="caron" unicode="&#x2c7;" horiz-adv-x="810" 
d="M69 1570h124l212 -206l212 206h124l-336 -342z" />
    <glyph glyph-name="breve" unicode="&#x2d8;" horiz-adv-x="952" 
d="M223.5 1344.5q-85.5 80.5 -85.5 225.5h106q0 -108 60.5 -161.5t171.5 -53.5t171 54t60 161h108q0 -147 -87 -226.5t-252 -79.5q-167 0 -252.5 80.5z" />
    <glyph glyph-name="dotaccent" unicode="&#x2d9;" horiz-adv-x="544" 
d="M193 1402.5q-32 32.5 -32 79.5q0 45 32.5 78t78.5 33t78.5 -33t32.5 -78q0 -47 -32.5 -79.5t-78.5 -32.5q-47 0 -79 32.5z" />
    <glyph glyph-name="ring" unicode="&#x2da;" horiz-adv-x="714" 
d="M246.5 1245q-49.5 29 -78 79t-28.5 108q0 59 29 108.5t78.5 78.5t108.5 29q57 0 107 -29t79.5 -79t29.5 -108q0 -59 -29 -108.5t-78.5 -78.5t-108.5 -29q-60 0 -109.5 29zM450 1338.5q38 38.5 38 95.5q0 55 -37.5 92.5t-94.5 37.5t-94.5 -37.5t-37.5 -92.5
q0 -57 38 -95.5t94 -38.5t94 38.5z" />
    <glyph glyph-name="ogonek" unicode="&#x2db;" horiz-adv-x="558" 
d="M203.5 -420.5q-76.5 51.5 -76.5 137.5q0 69 50 144.5t143 142.5l102 -2q-85 -57 -132 -123.5t-47 -124.5q0 -61 45.5 -96t133.5 -35v-95q-142 0 -218.5 51.5z" />
    <glyph glyph-name="tilde" unicode="&#x2dc;" horiz-adv-x="1018" 
d="M584 1302.5q-35 16.5 -57.5 39.5t-50.5 59q-33 43 -58 63.5t-62 20.5q-54 1 -84 -47t-30 -132h-89q0 129 55.5 201.5t151.5 72.5q43 0 75.5 -15.5t54.5 -38t49 -57.5q36 -45 62 -66t65 -21q47 0 76 51t29 137h93q0 -87 -24.5 -151t-69 -98.5t-104.5 -34.5q-47 0 -82 16.5
z" />
    <glyph glyph-name="hungarumlaut" unicode="&#x2dd;" horiz-adv-x="937" 
d="M319 1570h135l-246 -317h-116zM698 1570h159l-267 -317h-118z" />
    <glyph glyph-name="gravecomb" unicode="&#x300;" horiz-adv-x="0" 
d="M-482 1570h158l235 -317h-116z" />
    <glyph glyph-name="acutecomb" unicode="&#x301;" horiz-adv-x="0" 
d="M-235 1570h158l-287 -317h-113z" />
    <glyph glyph-name="uni0302" unicode="&#x302;" horiz-adv-x="0" 
d="M-401 1591l336 -354h-123l-213 211l-212 -211h-122z" />
    <glyph glyph-name="tildecomb" unicode="&#x303;" horiz-adv-x="0" 
d="M-434 1302.5q-35 16.5 -57.5 39.5t-50.5 59q-33 43 -58 63.5t-62 20.5q-54 1 -84 -47t-30 -132h-89q0 129 55.5 201.5t151.5 72.5q43 0 75.5 -15.5t54.5 -38t49 -57.5q36 -45 62 -66t65 -21q47 0 76 51t29 137h93q0 -87 -24.5 -151t-69 -98.5t-104.5 -34.5
q-47 0 -82 16.5z" />
    <glyph glyph-name="uni0304" unicode="&#x304;" horiz-adv-x="0" 
d="M-800 1447h608v-91h-608v91z" />
    <glyph glyph-name="uni0306" unicode="&#x306;" horiz-adv-x="0" 
d="M-728.5 1344.5q-85.5 80.5 -85.5 225.5h106q0 -108 60.5 -161.5t171.5 -53.5t171 54t60 161h108q0 -147 -87 -226.5t-252 -79.5q-167 0 -252.5 80.5z" />
    <glyph glyph-name="uni0307" unicode="&#x307;" horiz-adv-x="0" 
d="M-351 1402.5q-32 32.5 -32 79.5q0 45 32.5 78t78.5 33t78.5 -33t32.5 -78q0 -47 -32.5 -79.5t-78.5 -32.5q-47 0 -79 32.5z" />
    <glyph glyph-name="uni0308" unicode="&#x308;" horiz-adv-x="0" 
d="M-758 1402.5q-32 32.5 -32 79.5q0 45 32.5 78t78.5 33t78.5 -33t32.5 -78q0 -47 -32.5 -79.5t-78.5 -32.5q-47 0 -79 32.5zM-351.5 1402.5q-32.5 32.5 -32.5 79.5q0 45 32.5 78t79.5 33q45 0 78 -33t33 -78q0 -47 -33 -79.5t-78 -32.5q-47 0 -79.5 32.5z" />
    <glyph glyph-name="uni030A" unicode="&#x30a;" horiz-adv-x="0" 
d="M-467.5 1245q-49.5 29 -78 79t-28.5 108q0 59 29 108.5t78.5 78.5t108.5 29q57 0 107 -29t79.5 -79t29.5 -108q0 -59 -29 -108.5t-78.5 -78.5t-108.5 -29q-60 0 -109.5 29zM-264 1338.5q38 38.5 38 95.5q0 55 -37.5 92.5t-94.5 37.5t-94.5 -37.5t-37.5 -92.5
q0 -57 38 -95.5t94 -38.5t94 38.5z" />
    <glyph glyph-name="uni030B" unicode="&#x30b;" horiz-adv-x="0" 
d="M-618 1570h135l-246 -317h-116zM-239 1570h159l-267 -317h-118z" />
    <glyph glyph-name="uni030C" unicode="&#x30c;" horiz-adv-x="0" 
d="M-741 1570h124l212 -206l212 206h124l-336 -342z" />
    <glyph glyph-name="uni030F" unicode="&#x30f;" horiz-adv-x="0" 
d="M-590 1253l-267 317h159l226 -317h-118zM-208 1253l-246 317h135l227 -317h-116z" />
    <glyph glyph-name="uni0312" unicode="&#x312;" horiz-adv-x="0" 
d="M-178 1394q33 -28 33 -67t-36 -65.5t-88 -26.5q-85 0 -125.5 46.5t-40.5 113.5q0 52 25 110.5t78.5 107t133.5 70.5l35 -70q-55 -15 -97 -45.5t-64 -68t-22 -72.5q0 -18 6 -36q33 31 83 31q46 0 79 -28z" />
    <glyph glyph-name="uni031B" unicode="&#x31b;" horiz-adv-x="0" 
d="M-462 1220q194 0 194 231v119h113v-109q0 -162 -75 -251.5t-232 -89.5v100z" />
    <glyph glyph-name="uni0326" unicode="&#x326;" horiz-adv-x="0" 
d="M-176.5 -160.5q40.5 -52.5 40.5 -127.5q0 -58 -25 -123t-78.5 -119.5t-133.5 -79.5l-35 79q55 17 97 51t64 76t22 81q0 20 -6 40q-16 -17 -37.5 -26t-45.5 -9q-46 0 -79 31.5t-33 75.5q0 43 36 73t88 30q85 0 125.5 -52.5z" />
    <glyph glyph-name="uni0327" unicode="&#x327;" horiz-adv-x="0" 
d="M-436.5 -455.5q-48.5 17.5 -91.5 52.5l42 70q33 -32 73 -47t78 -15q54 0 86 27.5t32 69.5q0 34 -21.5 59t-61.5 37q-40 13 -110 13l110 189h79l-83 -134q36 -5 55 -13q53 -19 82 -58t29 -93q0 -49 -26.5 -89t-72.5 -63t-103 -23q-48 0 -96.5 17.5z" />
    <glyph glyph-name="uni0328" unicode="&#x328;" horiz-adv-x="0" 
d="M-354.5 -420.5q-76.5 51.5 -76.5 137.5q0 69 50 144.5t143 142.5l102 -2q-85 -57 -132 -123.5t-47 -124.5q0 -61 45.5 -96t133.5 -35v-95q-142 0 -218.5 51.5z" />
    <glyph glyph-name="uni0335" unicode="&#x335;" horiz-adv-x="0" 
d="M-895 703h705v-102h-705v102z" />
    <glyph glyph-name="uni0336" unicode="&#x336;" horiz-adv-x="0" 
d="M-1620 679h1428v-91h-1428v91z" />
    <glyph glyph-name="uni0337" unicode="&#x337;" horiz-adv-x="0" 
d="M-610 727l514 354v-164l-514 -356v166z" />
    <glyph glyph-name="uni0338" unicode="&#x338;" horiz-adv-x="0" 
d="M-899 26l771 1234l100 -61l-770 -1235z" />
    <glyph glyph-name="uni03BC" unicode="&#x3bc;" horiz-adv-x="1440" 
d="M304 1110h145v-669q0 -153 71 -237.5t206 -84.5q94 0 163.5 39t107.5 114.5t38 182.5v655h146v-1110h-146v188q-50 -98 -142.5 -151t-205.5 -53q-93 0 -159.5 34.5t-103.5 102.5v-508h-120v1497z" />
    <glyph glyph-name="pi" unicode="&#x3c0;" horiz-adv-x="1180" 
d="M822.5 72q-63.5 88 -63.5 257v656h-410v-985h-125v985h-118v125h899v-125h-121v-639q0 -132 34 -191.5t102 -59.5q44 0 80 17l38 -99q-59 -29 -127 -29q-125 0 -188.5 88z" />
    <glyph glyph-name="Wgrave" unicode="&#x1e80;" horiz-adv-x="2455" 
d="M84 1570h165l474 -1390h13l405 1288h173l405 -1288h13l474 1390h165l-557 -1570h-180l-401 1252h-12l-401 -1252h-179zM893 2030h158l235 -317h-116z" />
    <glyph glyph-name="wgrave" unicode="&#x1e81;" horiz-adv-x="1925" 
d="M51 1110h160l359 -997h21l290 997h163l290 -997h21l359 997h160l-411 -1110h-236l-256 868h-16l-256 -868h-237zM628 1570h158l235 -317h-116z" />
    <glyph glyph-name="Wacute" unicode="&#x1e82;" horiz-adv-x="2455" 
d="M84 1570h165l474 -1390h13l405 1288h173l405 -1288h13l474 1390h165l-557 -1570h-180l-401 1252h-12l-401 -1252h-179zM1413 2030h158l-287 -317h-113z" />
    <glyph glyph-name="wacute" unicode="&#x1e83;" horiz-adv-x="1925" 
d="M51 1110h160l359 -997h21l290 997h163l290 -997h21l359 997h160l-411 -1110h-236l-256 868h-16l-256 -868h-237zM1148 1570h158l-287 -317h-113z" />
    <glyph glyph-name="Wdieresis" unicode="&#x1e84;" horiz-adv-x="2455" 
d="M84 1570h165l474 -1390h13l405 1288h173l405 -1288h13l474 1390h165l-557 -1570h-180l-401 1252h-12l-401 -1252h-179zM945.5 1760.5q-32.5 33.5 -32.5 80.5q0 45 32.5 77t78.5 32t78.5 -32t32.5 -77q0 -47 -32.5 -80.5t-78.5 -33.5t-78.5 33.5zM1351.5 1760.5
q-32.5 33.5 -32.5 80.5q0 45 32.5 77t79.5 32q45 0 78 -32t33 -77q0 -47 -33 -80.5t-78 -33.5q-47 0 -79.5 33.5z" />
    <glyph glyph-name="wdieresis" unicode="&#x1e85;" horiz-adv-x="1925" 
d="M51 1110h160l359 -997h21l290 997h163l290 -997h21l359 997h160l-411 -1110h-236l-256 868h-16l-256 -868h-237zM680 1402.5q-32 32.5 -32 79.5q0 45 32.5 78t78.5 33t78.5 -33t32.5 -78q0 -47 -32.5 -79.5t-78.5 -32.5q-47 0 -79 32.5zM1086.5 1402.5
q-32.5 32.5 -32.5 79.5q0 45 32.5 78t79.5 33q45 0 78 -33t33 -78q0 -47 -33 -79.5t-78 -32.5q-47 0 -79.5 32.5z" />
    <glyph glyph-name="uni1EA4" unicode="&#x1ea4;" horiz-adv-x="1461" 
d="M1084 377h-704l-129 -377h-167l557 1570h179l557 -1570h-165zM1038 513l-300 882h-9l-302 -882h611zM730 2051l336 -354h-123l-213 211l-212 -211h-122zM917 2511h158l-287 -317h-113z" />
    <glyph glyph-name="uni1EA5" unicode="&#x1ea5;" 
d="M1008.5 858q17.5 -75 17.5 -191v-667h-148v172h-12q-43 -80 -140 -129q-103 -59 -236 -59q-119 0 -206.5 41t-134.5 117t-47 179q0 104 39.5 171.5t115.5 105.5q55 28 123.5 38.5t177.5 10.5h320v11q0 105 -16.5 167.5t-54.5 100.5t-98.5 57t-133.5 19q-102 0 -187 -40.5
t-162 -126.5l-91 99q96 99 203.5 146t236.5 47q126 0 219 -35t149 -102q48 -57 65.5 -132zM842.5 297q23.5 54 29.5 105.5t6 119.5h-311q-100 0 -154 -9t-91 -33q-33 -22 -53 -61.5t-20 -97.5q0 -101 69.5 -160t195.5 -59q155 0 257 97q48 44 71.5 98zM596 1591l336 -354
h-123l-213 211l-212 -211h-122zM783 2051h158l-287 -317h-113z" />
    <glyph glyph-name="uni1EA6" unicode="&#x1ea6;" horiz-adv-x="1461" 
d="M1084 377h-704l-129 -377h-167l557 1570h179l557 -1570h-165zM1038 513l-300 882h-9l-302 -882h611zM730 2051l336 -354h-123l-213 211l-212 -211h-122zM397 2511h158l235 -317h-116z" />
    <glyph glyph-name="uni1EA7" unicode="&#x1ea7;" 
d="M1008.5 858q17.5 -75 17.5 -191v-667h-148v172h-12q-43 -80 -140 -129q-103 -59 -236 -59q-119 0 -206.5 41t-134.5 117t-47 179q0 104 39.5 171.5t115.5 105.5q55 28 123.5 38.5t177.5 10.5h320v11q0 105 -16.5 167.5t-54.5 100.5t-98.5 57t-133.5 19q-102 0 -187 -40.5
t-162 -126.5l-91 99q96 99 203.5 146t236.5 47q126 0 219 -35t149 -102q48 -57 65.5 -132zM842.5 297q23.5 54 29.5 105.5t6 119.5h-311q-100 0 -154 -9t-91 -33q-33 -22 -53 -61.5t-20 -97.5q0 -101 69.5 -160t195.5 -59q155 0 257 97q48 44 71.5 98zM596 1591l336 -354
h-123l-213 211l-212 -211h-122zM263 2051h158l235 -317h-116z" />
    <glyph glyph-name="uni1EAA" unicode="&#x1eaa;" horiz-adv-x="1461" 
d="M1084 377h-704l-129 -377h-167l557 1570h179l557 -1570h-165zM1038 513l-300 882h-9l-302 -882h611zM730 2051l336 -354h-123l-213 211l-212 -211h-122zM807 2243.5q-35 16.5 -57.5 39.5t-50.5 59q-33 43 -58 63.5t-62 20.5q-54 1 -84 -47t-30 -132h-89q0 129 55.5 201.5
t151.5 72.5q43 0 75.5 -15.5t54.5 -38t49 -57.5q36 -45 62 -66t65 -21q47 0 76 51t29 137h93q0 -87 -24.5 -151t-69 -98.5t-104.5 -34.5q-47 0 -82 16.5z" />
    <glyph glyph-name="uni1EAB" unicode="&#x1eab;" 
d="M1008.5 858q17.5 -75 17.5 -191v-667h-148v172h-12q-43 -80 -140 -129q-103 -59 -236 -59q-119 0 -206.5 41t-134.5 117t-47 179q0 104 39.5 171.5t115.5 105.5q55 28 123.5 38.5t177.5 10.5h320v11q0 105 -16.5 167.5t-54.5 100.5t-98.5 57t-133.5 19q-102 0 -187 -40.5
t-162 -126.5l-91 99q96 99 203.5 146t236.5 47q126 0 219 -35t149 -102q48 -57 65.5 -132zM842.5 297q23.5 54 29.5 105.5t6 119.5h-311q-100 0 -154 -9t-91 -33q-33 -22 -53 -61.5t-20 -97.5q0 -101 69.5 -160t195.5 -59q155 0 257 97q48 44 71.5 98zM596 1591l336 -354
h-123l-213 211l-212 -211h-122zM673 1783.5q-35 16.5 -57.5 39.5t-50.5 59q-33 43 -58 63.5t-62 20.5q-54 1 -84 -47t-30 -132h-89q0 129 55.5 201.5t151.5 72.5q43 0 75.5 -15.5t54.5 -38t49 -57.5q36 -45 62 -66t65 -21q47 0 76 51t29 137h93q0 -87 -24.5 -151t-69 -98.5
t-104.5 -34.5q-47 0 -82 16.5z" />
    <glyph glyph-name="uni1EAE" unicode="&#x1eae;" horiz-adv-x="1461" 
d="M1084 377h-704l-129 -377h-167l557 1570h179l557 -1570h-165zM1038 513l-300 882h-9l-302 -882h611zM478.5 1804.5q-85.5 80.5 -85.5 225.5h106q0 -108 60.5 -161.5t171.5 -53.5t171 54t60 161h108q0 -147 -87 -226.5t-252 -79.5q-167 0 -252.5 80.5zM917 2490h158
l-287 -317h-113z" />
    <glyph glyph-name="uni1EAF" unicode="&#x1eaf;" 
d="M1008.5 858q17.5 -75 17.5 -191v-667h-148v172h-12q-43 -80 -140 -129q-103 -59 -236 -59q-119 0 -206.5 41t-134.5 117t-47 179q0 104 39.5 171.5t115.5 105.5q55 28 123.5 38.5t177.5 10.5h320v11q0 105 -16.5 167.5t-54.5 100.5t-98.5 57t-133.5 19q-102 0 -187 -40.5
t-162 -126.5l-91 99q96 99 203.5 146t236.5 47q126 0 219 -35t149 -102q48 -57 65.5 -132zM842.5 297q23.5 54 29.5 105.5t6 119.5h-311q-100 0 -154 -9t-91 -33q-33 -22 -53 -61.5t-20 -97.5q0 -101 69.5 -160t195.5 -59q155 0 257 97q48 44 71.5 98zM344.5 1344.5
q-85.5 80.5 -85.5 225.5h106q0 -108 60.5 -161.5t171.5 -53.5t171 54t60 161h108q0 -147 -87 -226.5t-252 -79.5q-167 0 -252.5 80.5zM783 2030h158l-287 -317h-113z" />
    <glyph glyph-name="uni1EB0" unicode="&#x1eb0;" horiz-adv-x="1461" 
d="M1084 377h-704l-129 -377h-167l557 1570h179l557 -1570h-165zM1038 513l-300 882h-9l-302 -882h611zM478.5 1804.5q-85.5 80.5 -85.5 225.5h106q0 -108 60.5 -161.5t171.5 -53.5t171 54t60 161h108q0 -147 -87 -226.5t-252 -79.5q-167 0 -252.5 80.5zM397 2490h158
l235 -317h-116z" />
    <glyph glyph-name="uni1EB1" unicode="&#x1eb1;" 
d="M1008.5 858q17.5 -75 17.5 -191v-667h-148v172h-12q-43 -80 -140 -129q-103 -59 -236 -59q-119 0 -206.5 41t-134.5 117t-47 179q0 104 39.5 171.5t115.5 105.5q55 28 123.5 38.5t177.5 10.5h320v11q0 105 -16.5 167.5t-54.5 100.5t-98.5 57t-133.5 19q-102 0 -187 -40.5
t-162 -126.5l-91 99q96 99 203.5 146t236.5 47q126 0 219 -35t149 -102q48 -57 65.5 -132zM842.5 297q23.5 54 29.5 105.5t6 119.5h-311q-100 0 -154 -9t-91 -33q-33 -22 -53 -61.5t-20 -97.5q0 -101 69.5 -160t195.5 -59q155 0 257 97q48 44 71.5 98zM344.5 1344.5
q-85.5 80.5 -85.5 225.5h106q0 -108 60.5 -161.5t171.5 -53.5t171 54t60 161h108q0 -147 -87 -226.5t-252 -79.5q-167 0 -252.5 80.5zM263 2030h158l235 -317h-116z" />
    <glyph glyph-name="uni1EB4" unicode="&#x1eb4;" horiz-adv-x="1461" 
d="M1084 377h-704l-129 -377h-167l557 1570h179l557 -1570h-165zM1038 513l-300 882h-9l-302 -882h611zM478.5 1804.5q-85.5 80.5 -85.5 225.5h106q0 -108 60.5 -161.5t171.5 -53.5t171 54t60 161h108q0 -147 -87 -226.5t-252 -79.5q-167 0 -252.5 80.5zM807 2222.5
q-35 16.5 -57.5 39.5t-50.5 59q-33 43 -58 63.5t-62 20.5q-54 1 -84 -47t-30 -132h-89q0 129 55.5 201.5t151.5 72.5q43 0 75.5 -15.5t54.5 -38t49 -57.5q36 -45 62 -66t65 -21q47 0 76 51t29 137h93q0 -87 -24.5 -151t-69 -98.5t-104.5 -34.5q-47 0 -82 16.5z" />
    <glyph glyph-name="uni1EB5" unicode="&#x1eb5;" 
d="M1008.5 858q17.5 -75 17.5 -191v-667h-148v172h-12q-43 -80 -140 -129q-103 -59 -236 -59q-119 0 -206.5 41t-134.5 117t-47 179q0 104 39.5 171.5t115.5 105.5q55 28 123.5 38.5t177.5 10.5h320v11q0 105 -16.5 167.5t-54.5 100.5t-98.5 57t-133.5 19q-102 0 -187 -40.5
t-162 -126.5l-91 99q96 99 203.5 146t236.5 47q126 0 219 -35t149 -102q48 -57 65.5 -132zM842.5 297q23.5 54 29.5 105.5t6 119.5h-311q-100 0 -154 -9t-91 -33q-33 -22 -53 -61.5t-20 -97.5q0 -101 69.5 -160t195.5 -59q155 0 257 97q48 44 71.5 98zM344.5 1344.5
q-85.5 80.5 -85.5 225.5h106q0 -108 60.5 -161.5t171.5 -53.5t171 54t60 161h108q0 -147 -87 -226.5t-252 -79.5q-167 0 -252.5 80.5zM673 1762.5q-35 16.5 -57.5 39.5t-50.5 59q-33 43 -58 63.5t-62 20.5q-54 1 -84 -47t-30 -132h-89q0 129 55.5 201.5t151.5 72.5
q43 0 75.5 -15.5t54.5 -38t49 -57.5q36 -45 62 -66t65 -21q47 0 76 51t29 137h93q0 -87 -24.5 -151t-69 -98.5t-104.5 -34.5q-47 0 -82 16.5z" />
    <glyph glyph-name="uni1EBC" unicode="&#x1ebc;" horiz-adv-x="1394" 
d="M253 1570h980v-137h-827v-577h740v-135h-740v-584h872v-137h-1025v1570zM825 1762.5q-35 16.5 -57.5 39.5t-50.5 59q-33 43 -58 63.5t-62 20.5q-54 1 -84 -47t-30 -132h-89q0 129 55.5 201.5t151.5 72.5q43 0 75.5 -15.5t54.5 -38t49 -57.5q36 -45 62 -66t65 -21
q47 0 76 51t29 137h93q0 -87 -24.5 -151t-69 -98.5t-104.5 -34.5q-47 0 -82 16.5z" />
    <glyph glyph-name="uni1EBD" unicode="&#x1ebd;" 
d="M1091.5 557.5q-2.5 -28.5 -6.5 -42.5h-819q4 -124 48 -215.5t125 -141t192 -49.5q104 0 178.5 33t146.5 117l104 -92q-94 -97 -195 -140t-235 -43q-163 0 -280 74t-177.5 202.5t-60.5 289.5q0 160 59 291t172 208.5t269 77.5q170 0 278.5 -78t156 -195t47.5 -240
q0 -28 -2.5 -56.5zM439.5 954q-75.5 -48 -119.5 -130t-52 -184h678q0 23 -1 34q-6 95 -44.5 168.5t-111 116.5t-176.5 43q-98 0 -173.5 -48zM676 1302.5q-35 16.5 -57.5 39.5t-50.5 59q-33 43 -58 63.5t-62 20.5q-54 1 -84 -47t-30 -132h-89q0 129 55.5 201.5t151.5 72.5
q43 0 75.5 -15.5t54.5 -38t49 -57.5q36 -45 62 -66t65 -21q47 0 76 51t29 137h93q0 -87 -24.5 -151t-69 -98.5t-104.5 -34.5q-47 0 -82 16.5z" />
    <glyph glyph-name="uni1EBE" unicode="&#x1ebe;" horiz-adv-x="1394" 
d="M253 1570h980v-137h-827v-577h740v-135h-740v-584h872v-137h-1025v1570zM748 2051l336 -354h-123l-213 211l-212 -211h-122zM935 2511h158l-287 -317h-113z" />
    <glyph glyph-name="uni1EBF" unicode="&#x1ebf;" 
d="M1091.5 557.5q-2.5 -28.5 -6.5 -42.5h-819q4 -124 48 -215.5t125 -141t192 -49.5q104 0 178.5 33t146.5 117l104 -92q-94 -97 -195 -140t-235 -43q-163 0 -280 74t-177.5 202.5t-60.5 289.5q0 160 59 291t172 208.5t269 77.5q170 0 278.5 -78t156 -195t47.5 -240
q0 -28 -2.5 -56.5zM439.5 954q-75.5 -48 -119.5 -130t-52 -184h678q0 23 -1 34q-6 95 -44.5 168.5t-111 116.5t-176.5 43q-98 0 -173.5 -48zM599 1591l336 -354h-123l-213 211l-212 -211h-122zM786 2051h158l-287 -317h-113z" />
    <glyph glyph-name="uni1EC0" unicode="&#x1ec0;" horiz-adv-x="1394" 
d="M253 1570h980v-137h-827v-577h740v-135h-740v-584h872v-137h-1025v1570zM748 2051l336 -354h-123l-213 211l-212 -211h-122zM415 2511h158l235 -317h-116z" />
    <glyph glyph-name="uni1EC1" unicode="&#x1ec1;" 
d="M1091.5 557.5q-2.5 -28.5 -6.5 -42.5h-819q4 -124 48 -215.5t125 -141t192 -49.5q104 0 178.5 33t146.5 117l104 -92q-94 -97 -195 -140t-235 -43q-163 0 -280 74t-177.5 202.5t-60.5 289.5q0 160 59 291t172 208.5t269 77.5q170 0 278.5 -78t156 -195t47.5 -240
q0 -28 -2.5 -56.5zM439.5 954q-75.5 -48 -119.5 -130t-52 -184h678q0 23 -1 34q-6 95 -44.5 168.5t-111 116.5t-176.5 43q-98 0 -173.5 -48zM599 1591l336 -354h-123l-213 211l-212 -211h-122zM266 2051h158l235 -317h-116z" />
    <glyph glyph-name="uni1EC4" unicode="&#x1ec4;" horiz-adv-x="1394" 
d="M253 1570h980v-137h-827v-577h740v-135h-740v-584h872v-137h-1025v1570zM748 2051l336 -354h-123l-213 211l-212 -211h-122zM825 2243.5q-35 16.5 -57.5 39.5t-50.5 59q-33 43 -58 63.5t-62 20.5q-54 1 -84 -47t-30 -132h-89q0 129 55.5 201.5t151.5 72.5
q43 0 75.5 -15.5t54.5 -38t49 -57.5q36 -45 62 -66t65 -21q47 0 76 51t29 137h93q0 -87 -24.5 -151t-69 -98.5t-104.5 -34.5q-47 0 -82 16.5z" />
    <glyph glyph-name="uni1EC5" unicode="&#x1ec5;" 
d="M1091.5 557.5q-2.5 -28.5 -6.5 -42.5h-819q4 -124 48 -215.5t125 -141t192 -49.5q104 0 178.5 33t146.5 117l104 -92q-94 -97 -195 -140t-235 -43q-163 0 -280 74t-177.5 202.5t-60.5 289.5q0 160 59 291t172 208.5t269 77.5q170 0 278.5 -78t156 -195t47.5 -240
q0 -28 -2.5 -56.5zM439.5 954q-75.5 -48 -119.5 -130t-52 -184h678q0 23 -1 34q-6 95 -44.5 168.5t-111 116.5t-176.5 43q-98 0 -173.5 -48zM599 1591l336 -354h-123l-213 211l-212 -211h-122zM676 1783.5q-35 16.5 -57.5 39.5t-50.5 59q-33 43 -58 63.5t-62 20.5
q-54 1 -84 -47t-30 -132h-89q0 129 55.5 201.5t151.5 72.5q43 0 75.5 -15.5t54.5 -38t49 -57.5q36 -45 62 -66t65 -21q47 0 76 51t29 137h93q0 -87 -24.5 -151t-69 -98.5t-104.5 -34.5q-47 0 -82 16.5z" />
    <glyph glyph-name="uni1ED0" unicode="&#x1ed0;" horiz-adv-x="1733" 
d="M478 86q-161 102 -244 283.5t-83 415.5t83 415.5t244 284t387 102.5q227 0 389 -102.5t245.5 -284t83.5 -415.5t-83.5 -415.5t-245.5 -283.5t-389 -102q-226 0 -387 102zM1173 204q127 85 192 235.5t65 345.5t-65 345.5t-192 235.5t-308 85q-179 0 -305.5 -85
t-191.5 -236t-65 -345t65 -345t191.5 -236t305.5 -85q181 0 308 85zM865 2051l336 -354h-123l-213 211l-212 -211h-122zM1052 2511h158l-287 -317h-113z" />
    <glyph glyph-name="uni1ED1" unicode="&#x1ed1;" horiz-adv-x="1287" 
d="M365.5 54q-120.5 70 -187.5 200t-67 304q0 173 66.5 302t187.5 198t278 69q158 0 278.5 -69t187.5 -198t67 -302q0 -174 -67 -304t-188 -200t-278 -70t-277.5 70zM849 164q87 55 133.5 156.5t46.5 237.5q0 134 -46.5 234.5t-133.5 155t-206 54.5t-206 -54t-133 -154.5
t-46 -235.5q0 -136 46 -237.5t133 -156.5t206 -55t206 55zM641 1591l336 -354h-123l-213 211l-212 -211h-122zM828 2051h158l-287 -317h-113z" />
    <glyph glyph-name="uni1ED2" unicode="&#x1ed2;" horiz-adv-x="1733" 
d="M478 86q-161 102 -244 283.5t-83 415.5t83 415.5t244 284t387 102.5q227 0 389 -102.5t245.5 -284t83.5 -415.5t-83.5 -415.5t-245.5 -283.5t-389 -102q-226 0 -387 102zM1173 204q127 85 192 235.5t65 345.5t-65 345.5t-192 235.5t-308 85q-179 0 -305.5 -85
t-191.5 -236t-65 -345t65 -345t191.5 -236t305.5 -85q181 0 308 85zM865 2051l336 -354h-123l-213 211l-212 -211h-122zM532 2511h158l235 -317h-116z" />
    <glyph glyph-name="uni1ED3" unicode="&#x1ed3;" horiz-adv-x="1287" 
d="M365.5 54q-120.5 70 -187.5 200t-67 304q0 173 66.5 302t187.5 198t278 69q158 0 278.5 -69t187.5 -198t67 -302q0 -174 -67 -304t-188 -200t-278 -70t-277.5 70zM849 164q87 55 133.5 156.5t46.5 237.5q0 134 -46.5 234.5t-133.5 155t-206 54.5t-206 -54t-133 -154.5
t-46 -235.5q0 -136 46 -237.5t133 -156.5t206 -55t206 55zM641 1591l336 -354h-123l-213 211l-212 -211h-122zM308 2051h158l235 -317h-116z" />
    <glyph glyph-name="uni1ED6" unicode="&#x1ed6;" horiz-adv-x="1733" 
d="M478 86q-161 102 -244 283.5t-83 415.5t83 415.5t244 284t387 102.5q227 0 389 -102.5t245.5 -284t83.5 -415.5t-83.5 -415.5t-245.5 -283.5t-389 -102q-226 0 -387 102zM1173 204q127 85 192 235.5t65 345.5t-65 345.5t-192 235.5t-308 85q-179 0 -305.5 -85
t-191.5 -236t-65 -345t65 -345t191.5 -236t305.5 -85q181 0 308 85zM865 2051l336 -354h-123l-213 211l-212 -211h-122zM942 2243.5q-35 16.5 -57.5 39.5t-50.5 59q-33 43 -58 63.5t-62 20.5q-54 1 -84 -47t-30 -132h-89q0 129 55.5 201.5t151.5 72.5q43 0 75.5 -15.5
t54.5 -38t49 -57.5q36 -45 62 -66t65 -21q47 0 76 51t29 137h93q0 -87 -24.5 -151t-69 -98.5t-104.5 -34.5q-47 0 -82 16.5z" />
    <glyph glyph-name="uni1ED7" unicode="&#x1ed7;" horiz-adv-x="1287" 
d="M365.5 54q-120.5 70 -187.5 200t-67 304q0 173 66.5 302t187.5 198t278 69q158 0 278.5 -69t187.5 -198t67 -302q0 -174 -67 -304t-188 -200t-278 -70t-277.5 70zM849 164q87 55 133.5 156.5t46.5 237.5q0 134 -46.5 234.5t-133.5 155t-206 54.5t-206 -54t-133 -154.5
t-46 -235.5q0 -136 46 -237.5t133 -156.5t206 -55t206 55zM641 1591l336 -354h-123l-213 211l-212 -211h-122zM718 1783.5q-35 16.5 -57.5 39.5t-50.5 59q-33 43 -58 63.5t-62 20.5q-54 1 -84 -47t-30 -132h-89q0 129 55.5 201.5t151.5 72.5q43 0 75.5 -15.5t54.5 -38
t49 -57.5q36 -45 62 -66t65 -21q47 0 76 51t29 137h93q0 -87 -24.5 -151t-69 -98.5t-104.5 -34.5q-47 0 -82 16.5z" />
    <glyph glyph-name="Ygrave" unicode="&#x1ef2;" horiz-adv-x="1489" 
d="M667 585l-598 985h177l495 -820h7l495 820h178l-601 -985v-585h-153v585zM410 2030h158l235 -317h-116z" />
    <glyph glyph-name="ygrave" unicode="&#x1ef3;" horiz-adv-x="1136" 
d="M489 15l-445 1095h161l358 -922h8l359 922h162l-635 -1570h-160zM234 1570h158l235 -317h-116z" />
    <glyph glyph-name="uni1EF8" unicode="&#x1ef8;" horiz-adv-x="1489" 
d="M667 585l-598 985h177l495 -820h7l495 820h178l-601 -985v-585h-153v585zM820 1762.5q-35 16.5 -57.5 39.5t-50.5 59q-33 43 -58 63.5t-62 20.5q-54 1 -84 -47t-30 -132h-89q0 129 55.5 201.5t151.5 72.5q43 0 75.5 -15.5t54.5 -38t49 -57.5q36 -45 62 -66t65 -21
q47 0 76 51t29 137h93q0 -87 -24.5 -151t-69 -98.5t-104.5 -34.5q-47 0 -82 16.5z" />
    <glyph glyph-name="uni1EF9" unicode="&#x1ef9;" horiz-adv-x="1136" 
d="M489 15l-445 1095h161l358 -922h8l359 922h162l-635 -1570h-160zM644 1302.5q-35 16.5 -57.5 39.5t-50.5 59q-33 43 -58 63.5t-62 20.5q-54 1 -84 -47t-30 -132h-89q0 129 55.5 201.5t151.5 72.5q43 0 75.5 -15.5t54.5 -38t49 -57.5q36 -45 62 -66t65 -21q47 0 76 51
t29 137h93q0 -87 -24.5 -151t-69 -98.5t-104.5 -34.5q-47 0 -82 16.5z" />
    <glyph glyph-name="endash" unicode="&#x2013;" horiz-adv-x="1138" 
d="M0 749h1138v-114h-1138v114z" />
    <glyph glyph-name="emdash" unicode="&#x2014;" horiz-adv-x="2276" 
d="M0 749h2276v-114h-2276v114z" />
    <glyph glyph-name="quoteleft" unicode="&#x2018;" horiz-adv-x="646" 
d="M434 1054.5q-32 -31.5 -82 -32.5h-2h-1h-7q-85 4 -125.5 65t-40.5 147q0 67 26 138.5t80 131.5t133 89l35 -80q-56 -22 -97.5 -63t-63.5 -91.5t-22 -100.5q0 -26 6 -49q16 17 37.5 26.5t44.5 9.5q47 0 79 -33t32 -80q0 -46 -32 -77.5z" />
    <glyph glyph-name="quoteright" unicode="&#x2019;" horiz-adv-x="643" 
d="M425 1527.5q42 -61.5 42 -150.5q0 -67 -26 -138.5t-80 -131.5t-133 -89l-35 80q56 22 97.5 63t63.5 92t22 100q0 27 -6 49q-16 -17 -37.5 -26.5t-44.5 -9.5q-46 0 -78.5 33t-32.5 80t33 78.5t83 31.5q90 0 132 -61.5z" />
    <glyph glyph-name="quotesinglbase" unicode="&#x201a;" horiz-adv-x="727" 
d="M468 141.5q42 -58.5 42 -144.5q0 -67 -25 -140.5t-79 -135.5t-134 -92l-36 80q83 39 127 108.5t44 146.5q0 20 -3 40q-32 -27 -75 -27q-46 0 -77.5 29t-31.5 79q0 51 34 83t87 32q85 0 127 -58.5z" />
    <glyph glyph-name="quotedblleft" unicode="&#x201c;" horiz-adv-x="1033" 
d="M434.5 1214q31.5 -29 31.5 -79q0 -51 -34 -83t-87 -32q-85 0 -127 58.5t-42 144.5q0 67 25 140.5t79 135.5t134 92l36 -80q-83 -39 -127 -108.5t-44 -146.5q0 -20 3 -40q32 27 75 27q46 0 77.5 -29zM821.5 1214q31.5 -29 31.5 -79q0 -51 -34 -83t-87 -32q-85 0 -127 58.5
t-42 144.5q0 67 25 140.5t79 135.5t134 92l36 -80q-83 -39 -127 -108.5t-44 -146.5q0 -20 3 -40q32 27 75 27q46 0 77.5 -29z" />
    <glyph glyph-name="quotedblright" unicode="&#x201d;" horiz-adv-x="1030" 
d="M425.5 1531.5q41.5 -61.5 41.5 -148.5q0 -68 -26 -140t-80 -132t-133 -89l-35 80q56 22 97.5 63.5t63.5 92.5t22 101q0 26 -6 48q-16 -18 -37.5 -27.5t-44.5 -9.5q-46 0 -78.5 33.5t-32.5 79.5q0 47 33.5 78.5t84.5 31.5q89 0 130.5 -61.5zM812 1531.5
q42 -61.5 42 -148.5q0 -68 -26 -140t-80 -132t-133 -89l-35 80q56 22 97.5 63.5t63.5 92.5t22 101q0 26 -6 48q-16 -18 -37.5 -27.5t-44.5 -9.5q-46 0 -78.5 33.5t-32.5 79.5q0 47 33.5 78.5t84.5 31.5q88 0 130 -61.5z" />
    <glyph glyph-name="quotedblbase" unicode="&#x201e;" horiz-adv-x="1114" 
d="M468 141.5q42 -58.5 42 -144.5q0 -67 -25 -140.5t-79 -135.5t-134 -92l-36 80q83 39 127 108.5t44 146.5q0 20 -3 40q-32 -27 -75 -27q-46 0 -77.5 29t-31.5 79q0 51 34 83t87 32q85 0 127 -58.5zM855 141.5q42 -58.5 42 -144.5q0 -67 -25 -140.5t-79 -135.5t-134 -92
l-36 80q83 39 127 108.5t44 146.5q0 20 -3 40q-32 -27 -75 -27q-46 0 -77.5 29t-31.5 79q0 51 34 83t87 32q85 0 127 -58.5z" />
    <glyph glyph-name="dagger" unicode="&#x2020;" horiz-adv-x="951" 
d="M408 985h-277v135h277v450h135v-450h277v-135h-277v-1213h-135v1213z" />
    <glyph glyph-name="daggerdbl" unicode="&#x2021;" horiz-adv-x="1026" 
d="M445 222h-277v134h277v629h-277v135h277v450h136v-450h276v-135h-276v-629h276v-134h-276v-450h-136v450z" />
    <glyph glyph-name="bullet" unicode="&#x2022;" horiz-adv-x="954" 
d="M344 306.5q-61 35.5 -96.5 96t-35.5 132.5q0 71 35.5 132t96.5 96.5t132 35.5q72 0 132.5 -35.5t96 -96.5t35.5 -132q0 -72 -35.5 -132.5t-96 -96t-132.5 -35.5q-71 0 -132 35.5z" />
    <glyph glyph-name="ellipsis" unicode="&#x2026;" horiz-adv-x="1626" 
d="M276 7q-33 33 -33 80q0 45 33 77t80 32q45 0 77 -32t32 -77q0 -47 -32 -80t-77 -33q-47 0 -80 33zM849 7q-33 33 -33 80q0 45 33 77t80 32q45 0 78 -32t33 -77q0 -47 -33 -80t-78 -33q-47 0 -80 33zM1078.5 7q-32.5 33 -32.5 80q0 45 32.5 77t78.5 32q45 0 78 -32t33 -77
q0 -47 -33 -80t-78 -33q-46 0 -78.5 33z" />
    <glyph glyph-name="perthousand" unicode="&#x2030;" horiz-adv-x="2398" 
d="M292.5 930q-67.5 50 -101 131t-33.5 173q0 91 33 172t98.5 131t158.5 50q85 0 152.5 -46t105.5 -127t38 -182t-37 -181t-103 -125.5t-149 -45.5q-95 0 -162.5 50zM1238 1570h107l-882 -1570h-107zM551 1013q42 32 66 89.5t24 129.5q0 69 -22.5 127t-66 92t-104.5 34
q-63 0 -105 -35.5t-62 -93t-20 -122.5q0 -66 20.5 -123.5t64 -93.5t109.5 -36q54 0 96 32zM1094.5 34q-66.5 50 -100.5 130.5t-34 172.5q0 91 33 172t98.5 131t157.5 50q85 0 152.5 -46t105.5 -126.5t38 -181.5t-37 -181.5t-103 -125.5t-149 -45q-95 0 -161.5 50zM1789 34
q-67 50 -101 130.5t-34 172.5q0 91 33 172t98.5 131t158.5 50q85 0 152.5 -46t105.5 -126.5t38 -181.5t-37 -181.5t-103 -125.5t-149 -45q-95 0 -162 50zM1353 117q43 32 67 89t24 130q0 70 -22.5 127.5t-66.5 91.5t-106 34q-63 0 -105 -36t-62 -93t-20 -123t21 -123
t64.5 -93t108.5 -36q54 0 97 32zM2047.5 117q42.5 32 66 89t23.5 130q0 69 -22.5 127t-66 92t-104.5 34q-63 0 -105 -36t-62 -93t-20 -123t20.5 -123.5t64 -93t109.5 -35.5q54 0 96.5 32z" />
    <glyph glyph-name="guilsinglleft" unicode="&#x2039;" horiz-adv-x="694" 
d="M85 567l441 379v-132l-286 -247l286 -246v-132z" />
    <glyph glyph-name="guilsinglright" unicode="&#x203a;" horiz-adv-x="694" 
d="M168 321l286 246l-286 247v132l441 -379l-441 -378v132z" />
    <glyph glyph-name="fraction" unicode="&#x2044;" horiz-adv-x="319" 
d="M547 1570h108l-884 -1570h-107z" />
    <glyph glyph-name="Euro" unicode="&#x20ac;" horiz-adv-x="1490" 
d="M636 57q-115 73 -186.5 199.5t-101.5 290.5h-161v112h146q-5 42 -5 126q0 53 6 137h-147v115h163q32 162 104 286t185.5 194.5t264.5 70.5q133 0 240 -55.5t183 -161.5l-95 -75q-60 84 -142.5 127.5t-182.5 43.5q-116 0 -203.5 -56t-142 -152.5t-77.5 -221.5h539v-111
h-559q-8 -70 -8 -132q0 -48 6 -130h561v-112h-539q32 -208 139 -327.5t287 -119.5q98 0 177.5 41.5t135.5 123.5l90 -89q-74 -96 -178 -146.5t-229 -50.5q-155 0 -270 73z" />
    <glyph glyph-name="uni20B1" unicode="&#x20b1;" horiz-adv-x="1584" 
d="M1435 1077h-124q-7 -82 -35 -149t-77 -114q-45 -45 -106 -72t-154.5 -40.5t-232.5 -13.5h-200v-688h-153v1077h-169v91h169v402h353q138 0 229.5 -13.5t149 -38.5t102.5 -65q114 -104 125 -285h123v-91zM506 1168h653q-9 109 -75 177q-35 33 -82 51.5t-122.5 27.5
t-197.5 9h-176v-265zM1158 1077h-652v-254h176q122 0 198.5 9t125.5 30.5t84 60.5q55 61 68 154z" />
    <glyph glyph-name="trademark" unicode="&#x2122;" horiz-adv-x="1727" 
d="M288 1484h-236v86h575v-86h-236v-745h-103v745zM795 1570h156l223 -617l223 617h154v-831h-103v717l-240 -645h-67l-245 653v-725h-101v831z" />
    <glyph glyph-name="uni2126" unicode="&#x2126;" horiz-adv-x="1706" 
d="M111 113h460l1 43q-117 65 -204.5 171t-135 235.5t-47.5 264.5q0 122 45.5 245t123.5 207q92 103 229 164t271 61q135 0 271 -61t229 -164q76 -85 122 -207.5t46 -246.5q0 -147 -46 -281t-131 -236.5t-199 -157.5v-40h450v-110h-597v179q122 30 213 120t140.5 225.5
t49.5 298.5q0 107 -35.5 208t-95.5 168q-78 87 -192 138.5t-225 51.5q-110 0 -224.5 -51.5t-192.5 -138.5q-61 -69 -96.5 -170t-35.5 -206q0 -155 49.5 -287t140.5 -225t213 -133v-178h-597v113z" />
    <glyph glyph-name="arrowleft" unicode="&#x2190;" horiz-adv-x="2223" 
d="M2055 634h-1233v-344l-678 399l678 399v-341h1233v-113z" />
    <glyph glyph-name="arrowright" unicode="&#x2192;" horiz-adv-x="2223" 
d="M1401 290v344h-1233v113h1233v341l678 -399z" />
    <glyph glyph-name="partialdiff" unicode="&#x2202;" horiz-adv-x="1519" 
d="M407 50.5q-109 63.5 -168 176.5t-59 260q0 187 81 334.5t220.5 230t306.5 82.5q141 0 232 -85t137 -213q2 34 2 49q0 53 -10 111q-15 239 -113 359t-270 120q-114 0 -205 -54t-135 -168l-112 37q56 141 177.5 218t287.5 77q266 0 397.5 -199t131.5 -557
q0 -234 -72.5 -425t-218 -304t-354.5 -113q-147 0 -256 63.5zM909.5 177q101.5 62 161 165t77.5 225q2 30 2 47q0 98 -36 189t-113.5 150t-194.5 59q-148 0 -259 -70t-170.5 -189.5t-59.5 -263.5q0 -116 46 -200.5t127 -129t182 -44.5q136 0 237.5 62z" />
    <glyph glyph-name="uni2206" unicode="&#x2206;" horiz-adv-x="1533" 
d="M767 1620l635 -1620h-1271zM1236 115l-469 1221l-469 -1221h938z" />
    <glyph glyph-name="product" unicode="&#x220f;" horiz-adv-x="1509" 
d="M321 1445h-118v125h1103v-125h-118v-1445h-125v1445h-616v-1445h-126v1445z" />
    <glyph glyph-name="summation" unicode="&#x2211;" horiz-adv-x="1488" 
d="M1324 1430h-945l615 -645l-614 -644h944v-141h-1166v101l637 684l-637 684v101h1166v-140z" />
    <glyph glyph-name="minus" unicode="&#x2212;" horiz-adv-x="1275" 
d="M240 756h796v-115h-796v115z" />
    <glyph glyph-name="radical" unicode="&#x221a;" horiz-adv-x="1433" 
d="M297 621h-167v125h256l216 -573l570 1397h135l-712 -1719z" />
    <glyph glyph-name="infinity" unicode="&#x221e;" horiz-adv-x="2269" 
d="M418 451q-97 54 -151 148.5t-54 211.5t54 212t151 149t220 54q134 0 260.5 -84.5t230.5 -228.5q113 146 241 229.5t260 83.5q123 0 220 -54t151 -149t54 -212t-54 -211.5t-151 -148.5t-220 -54q-134 0 -261.5 83t-239.5 228q-103 -145 -229.5 -228t-261.5 -83
q-123 0 -220 54zM864.5 592q106.5 75 197.5 219q-90 144 -197 218.5t-210 74.5q-88 0 -159 -37.5t-111 -104.5t-40 -151t40.5 -151t111 -105t158.5 -38q103 0 209.5 75zM1771.5 555q70.5 38 111 105t40.5 151t-40 151t-111 104.5t-159 37.5q-108 0 -216 -78.5t-202 -214.5
q96 -138 203 -216t215 -78q88 0 158.5 38z" />
    <glyph glyph-name="integral" unicode="&#x222b;" horiz-adv-x="1141" 
d="M117 -403q131 0 210 33t115 105t36 192v1330q0 96 42 173t113.5 121t158.5 44q62 0 123 -23t115 -68l-81 -95q-76 61 -157 61q-52 0 -95.5 -26.5t-68.5 -75.5t-25 -115v-1329q0 -225 -124.5 -338.5t-361.5 -113.5v125z" />
    <glyph glyph-name="approxequal" unicode="&#x2248;" horiz-adv-x="1275" 
d="M730.5 812.5q-42.5 21.5 -70 52.5t-61.5 82q-28 41 -48.5 65.5t-49 41t-65.5 16.5q-68 0 -106.5 -60.5t-38.5 -165.5h-115q0 99 32 173t91 114.5t137 40.5q62 0 107 -22.5t73.5 -54.5t62.5 -83q28 -41 47 -64t45.5 -38.5t60.5 -15.5q44 0 78.5 31.5t53 88.5t18.5 131h115
q0 -104 -33 -184.5t-93 -125t-139 -44.5q-59 0 -101.5 21.5zM730.5 321.5q-42.5 21.5 -70 52.5t-61.5 82q-28 41 -48.5 65.5t-49 41t-65.5 16.5q-68 0 -106.5 -61t-38.5 -165h-115q0 98 32 172t91 114.5t137 40.5q62 0 107 -22.5t73.5 -54.5t62.5 -83q28 -41 47 -63.5
t45.5 -38t60.5 -15.5q44 0 78.5 31.5t53 88.5t18.5 131h115q0 -105 -33 -185t-93 -124.5t-139 -44.5q-59 0 -101.5 21.5z" />
    <glyph glyph-name="notequal" unicode="&#x2260;" horiz-adv-x="1275" 
d="M403 465h-204v127h278l172 309h-450v127h527l301 542h107l-302 -542h240v-127h-317l-171 -309h488v-127h-563l-258 -465h-108z" />
    <glyph glyph-name="lessequal" unicode="&#x2264;" horiz-adv-x="1275" 
d="M46 886l1100 626l55 -97l-925 -529l925 -529l-55 -99zM25 0h1195v-113h-1195v113z" />
    <glyph glyph-name="greaterequal" unicode="&#x2265;" horiz-adv-x="1275" 
d="M74 357l925 529l-925 529l55 97l1100 -626l-1100 -628zM55 -113v113h1195v-113h-1195z" />
    <glyph glyph-name="lozenge" unicode="&#x25ca;" horiz-adv-x="1333" 
d="M143 785l417 785h213l417 -785l-417 -785h-213zM683 82l360 703l-360 703h-34l-359 -703l359 -703h34z" />
    <glyph glyph-name="uniF8FF" unicode="&#xf8ff;" horiz-adv-x="2022" 
d="M579.5 47.5q-197.5 115.5 -313 313t-115.5 431.5t115.5 431.5t313 313t431.5 115.5t431.5 -115.5t313 -313t115.5 -431.5t-115.5 -431.5t-313 -313t-431.5 -115.5t-431.5 115.5zM1402.5 116q179.5 105 284 284t104.5 392t-104.5 392t-283.5 283.5t-392 104.5t-392 -104.5
t-284 -284t-105 -391.5q0 -213 105 -392t284 -284t392 -105q212 0 391.5 105zM535.5 466q-11.5 11 -11.5 28v596q0 17 11.5 29t27.5 12q17 0 29 -12t12 -29v-596q0 -17 -12 -28t-29 -11q-16 0 -27.5 11zM983 466q-11 11 -11 28v596q0 17 11 29t28 12t28 -12t11 -29v-596
q0 -17 -11 -28t-28 -11t-28 11zM1432 466l-300 299q-10 13 -10 27q0 17 10 27l300 298q11 14 25 14q15 0 28 -13t13 -28q0 -16 -11 -27l-271 -271l271 -271q11 -11 11 -27q0 -15 -13 -27t-28 -12q-16 0 -25 11zM685 764q-11 11 -11 28t11 28t28 11h148q17 0 29 -11t12 -28
t-12 -28t-29 -11h-148q-17 0 -28 11z" />
    <glyph glyph-name="i.loclTRK" horiz-adv-x="549" 
d="M201 1110h147v-1110h-147v1110zM196 1402.5q-32 32.5 -32 79.5q0 45 32.5 78t78.5 33t78.5 -33t32.5 -78q0 -47 -32.5 -79.5t-78.5 -32.5q-47 0 -79 32.5z" />
    <glyph glyph-name="g.ss01" horiz-adv-x="1350" 
d="M348.5 -407q-120.5 69 -201.5 207l108 89q57 -108 154.5 -172.5t237.5 -64.5q109 0 189 44t123 128.5t43 203.5v149h-10q-64 -95 -156.5 -144t-231.5 -49q-146 0 -258 71t-173.5 201t-61.5 300t61.5 299.5t173.5 200.5t259 71q130 0 231.5 -52.5t155.5 -143.5h10l12 179
h135v-1082q0 -159 -60 -272.5t-171 -172.5t-260 -59q-189 0 -309.5 69zM833.5 164.5q85.5 55.5 133 156.5t47.5 235q0 132 -47.5 233.5t-133 157t-195.5 55.5q-112 0 -198 -55.5t-134 -157t-48 -233.5q0 -133 48 -234.5t134 -157t198 -55.5q110 0 195.5 55.5z" />
    <glyph glyph-name="gbreve.ss01" horiz-adv-x="1350" 
d="M348.5 -407q-120.5 69 -201.5 207l108 89q57 -108 154.5 -172.5t237.5 -64.5q109 0 189 44t123 128.5t43 203.5v149h-10q-64 -95 -156.5 -144t-231.5 -49q-146 0 -258 71t-173.5 201t-61.5 300t61.5 299.5t173.5 200.5t259 71q130 0 231.5 -52.5t155.5 -143.5h10l12 179
h135v-1082q0 -159 -60 -272.5t-171 -172.5t-260 -59q-189 0 -309.5 69zM833.5 164.5q85.5 55.5 133 156.5t47.5 235q0 132 -47.5 233.5t-133 157t-195.5 55.5q-112 0 -198 -55.5t-134 -157t-48 -233.5q0 -133 48 -234.5t134 -157t198 -55.5q110 0 195.5 55.5zM417.5 1344.5
q-85.5 80.5 -85.5 225.5h106q0 -108 60.5 -161.5t171.5 -53.5t171 54t60 161h108q0 -147 -87 -226.5t-252 -79.5q-167 0 -252.5 80.5z" />
    <glyph glyph-name="uni0123.ss01" horiz-adv-x="1350" 
d="M348.5 -407q-120.5 69 -201.5 207l108 89q57 -108 154.5 -172.5t237.5 -64.5q109 0 189 44t123 128.5t43 203.5v149h-10q-64 -95 -156.5 -144t-231.5 -49q-146 0 -258 71t-173.5 201t-61.5 300t61.5 299.5t173.5 200.5t259 71q130 0 231.5 -52.5t155.5 -143.5h10l12 179
h135v-1082q0 -159 -60 -272.5t-171 -172.5t-260 -59q-189 0 -309.5 69zM833.5 164.5q85.5 55.5 133 156.5t47.5 235q0 132 -47.5 233.5t-133 157t-195.5 55.5q-112 0 -198 -55.5t-134 -157t-48 -233.5q0 -133 48 -234.5t134 -157t198 -55.5q110 0 195.5 55.5zM755 1394
q33 -28 33 -67t-36 -65.5t-88 -26.5q-85 0 -125.5 46.5t-40.5 113.5q0 52 25 110.5t78.5 107t133.5 70.5l35 -70q-55 -15 -97 -45.5t-64 -68t-22 -72.5q0 -18 6 -36q33 31 83 31q46 0 79 -28z" />
    <glyph glyph-name="gdotaccent.ss01" horiz-adv-x="1350" 
d="M348.5 -407q-120.5 69 -201.5 207l108 89q57 -108 154.5 -172.5t237.5 -64.5q109 0 189 44t123 128.5t43 203.5v149h-10q-64 -95 -156.5 -144t-231.5 -49q-146 0 -258 71t-173.5 201t-61.5 300t61.5 299.5t173.5 200.5t259 71q130 0 231.5 -52.5t155.5 -143.5h10l12 179
h135v-1082q0 -159 -60 -272.5t-171 -172.5t-260 -59q-189 0 -309.5 69zM833.5 164.5q85.5 55.5 133 156.5t47.5 235q0 132 -47.5 233.5t-133 157t-195.5 55.5q-112 0 -198 -55.5t-134 -157t-48 -233.5q0 -133 48 -234.5t134 -157t198 -55.5q110 0 195.5 55.5zM592 1402.5
q-32 32.5 -32 79.5q0 45 32.5 78t78.5 33t78.5 -33t32.5 -78q0 -47 -32.5 -79.5t-78.5 -32.5q-47 0 -79 32.5z" />
    <glyph glyph-name="T_h" horiz-adv-x="2361" 
d="M2154 901q31 -88 31 -231v-670h-148v631q0 121 -19.5 191t-62.5 112q-73 68 -203 68q-138 0 -218 -85q-43 -46 -63 -116t-20 -182v-619h-147l2 1433h-528v-1433h-153v1433h-549v137h1377l-2 -598h12q44 68 132.5 111.5t202.5 43.5q82 0 148 -21.5t113 -61.5
q64 -55 95 -143z" />
    <glyph glyph-name="f_f_t" horiz-adv-x="1899" 
d="M1824 3q-26 -7 -67.5 -13t-82.5 -6q-149 0 -226.5 83.5t-77.5 243.5v674h-407v-985h-147v985h-439v-985h-145v985h-195v125h195v104q0 114 55 198.5t150 129.5t213 45q79 0 152.5 -20.5t134.5 -61.5q101 82 271 82q85 0 167.5 -24.5t140.5 -65.5v-387h289v-125h-289v-656
q0 -102 41 -161t145 -59q48 0 97 14zM816 1203q0 124 46 210q-92 54 -206 54q-87 0 -150 -31.5t-96 -89.5t-33 -134v-102h439v93zM1374 1415q-33 25 -77.5 38.5t-92.5 13.5q-121 0 -181 -64.5t-60 -202.5v-90h411v305z" />
    <glyph glyph-name="f_t" horiz-adv-x="1305" 
d="M854.5 67.5q-77.5 83.5 -77.5 243.5v674h-408v-985h-147v985h-185v125h185v93q0 190 104.5 287t287.5 97q85 0 167.5 -24.5t140.5 -65.5v-387h289v-125h-289v-656q0 -102 41 -161t145 -59q48 0 97 14l26 -120q-27 -7 -68.5 -13t-82.5 -6q-148 0 -225.5 83.5zM780 1110
v305q-33 25 -77.5 38.5t-92.5 13.5q-121 0 -181 -64.5t-60 -202.5v-90h411z" />
    <glyph glyph-name="t_t" horiz-adv-x="1376" 
d="M1301 3q-27 -8 -67.5 -13.5t-81.5 -5.5q-112 0 -180.5 49t-96.5 122.5t-28 155.5v674h-464v-656q0 -220 181 -220q54 0 101 14l25 -120q-27 -8 -67.5 -13.5t-81.5 -5.5q-112 0 -180.5 49t-96.5 122.5t-28 155.5v674h-184v125h186v304l145 108v-412h466v304l145 108v-412
h288v-125h-288v-656q0 -220 181 -220q54 0 101 14z" />
    <glyph glyph-name="zero.lf" horiz-adv-x="1276" 
d="M344 104.5q-104 120.5 -136.5 293t-32.5 387.5q0 217 31.5 390t133.5 293.5t298 120.5q271 0 370 -228.5t99 -577.5q0 -345 -97.5 -572t-363.5 -227q-198 0 -302 120.5zM841.5 212.5q67.5 97.5 88 240.5t20.5 334q0 193 -20.5 334.5t-89 237t-202.5 95.5t-203 -95.5
t-89.5 -237.5t-20.5 -336q0 -192 21 -334.5t91 -239t206 -96.5q131 0 198.5 97.5z" />
    <glyph glyph-name="one.lf" horiz-adv-x="863" 
d="M619 1570v-1570h-152v1199h-394v118h267q71 0 102.5 27t31.5 90v136h145z" />
    <glyph glyph-name="two.lf" horiz-adv-x="1303" 
d="M113 138l495 417q121 101 196.5 184t117 174.5t41.5 198.5q0 98 -37.5 174t-110.5 119t-176 43q-115 0 -193 -52t-117 -143t-41 -210l-149 8q0 154 60 275.5t175 191t274 69.5q145 0 250.5 -61t160.5 -167t55 -241q0 -118 -44 -223.5t-133.5 -210.5t-233.5 -226
l-357 -299v-20h850v-139h-1083v138z" />
    <glyph glyph-name="three.lf" horiz-adv-x="1328" 
d="M369 40.5q-124 56.5 -194.5 165.5t-70.5 262l145 7q0 -108 50.5 -187.5t142.5 -121.5t212 -42q114 0 204.5 40t142.5 115t52 178q0 141 -93 211.5t-237 88.5q-69 8 -170 8v125q111 0 170 14q111 21 178.5 84.5t67.5 177.5q0 84 -41.5 147t-114.5 97t-164 34
q-97 0 -171 -36.5t-115 -104t-41 -157.5l-145 8q0 131 61.5 229t168.5 151t241 53q128 0 235 -50.5t170 -142.5t63 -211q0 -131 -73 -216t-178 -124v-8q89 -22 164.5 -71.5t122 -130t46.5 -188.5q0 -142 -72 -246.5t-196 -159.5t-278 -55q-159 0 -283 56.5z" />
    <glyph glyph-name="four.lf" horiz-adv-x="1341" 
d="M859 375h-785v97l798 1098h140v-1056h254v-139h-254v-375h-153v375zM859 514v817h-10l-579 -812l5 -5h584z" />
    <glyph glyph-name="five.lf" horiz-adv-x="1323" 
d="M943 972.5q116 -66.5 184 -185.5t68 -269q0 -152 -70 -274t-193 -191t-274 -69q-135 0 -246.5 54t-185.5 151.5t-99 225.5l144 37q18 -98 71.5 -171.5t134.5 -114t179 -40.5q111 0 200 51t140 141t51 201q0 110 -48 198t-133.5 137.5t-193.5 49.5t-198.5 -51.5
t-150.5 -145.5l-148 48l136 815h806v-140h-688l-82 -524q70 66 158 99.5t183 33.5q139 0 255 -66.5z" />
    <glyph glyph-name="six.lf" horiz-adv-x="1274" 
d="M907 955q121 -68 190.5 -187.5t69.5 -265.5q0 -145 -69.5 -263.5t-190 -186.5t-267.5 -68q-149 0 -270.5 68t-191 184.5t-69.5 256.5q0 81 23 161t64 149l464 767h173l-344 -572q72 25 149 25q148 0 269 -68zM832.5 176q87.5 50 138 136.5t50.5 192.5q0 104 -50.5 190.5
t-138.5 136t-194 49.5t-194 -49.5t-139 -136.5t-51 -193q0 -105 50.5 -191t138.5 -135.5t195 -49.5t194.5 50z" />
    <glyph glyph-name="seven.lf" horiz-adv-x="1267" 
d="M1006 1418v12h-936v140h1123v-92l-771 -1478h-168z" />
    <glyph glyph-name="eight.lf" horiz-adv-x="1312" 
d="M398.5 35.5q-120.5 51.5 -194.5 154.5t-74 250q0 146 79 254t216 155v5q-95 46 -149.5 135.5t-54.5 205.5q0 120 62 209t162.5 136t211.5 47q120 0 220 -49.5t158.5 -140.5t58.5 -210q0 -113 -55 -201t-151 -132v-5q136 -48 214 -156t78 -253q0 -147 -73.5 -250
t-193 -154.5t-257.5 -51.5q-137 0 -257.5 51.5zM810 942.5q66 33.5 103 94t37 137.5q0 82 -36.5 144.5t-102.5 97.5t-152 35q-79 0 -145.5 -32.5t-106 -93t-39.5 -142.5t36.5 -144t103 -96t152.5 -34q84 0 150 33.5zM844.5 158q84.5 39 133.5 114t49 178q0 98 -46.5 174
t-131 117.5t-193.5 41.5q-110 0 -194.5 -41.5t-131 -117.5t-46.5 -174q0 -103 50 -178t134.5 -114t187.5 -39q104 0 188.5 39z" />
    <glyph glyph-name="nine.lf" horiz-adv-x="1274" 
d="M903.5 1518q121.5 -68 191 -184.5t69.5 -256.5q0 -81 -23 -161t-64 -149l-464 -767h-173l344 572q-72 -25 -149 -25q-148 0 -269 68t-190.5 187.5t-69.5 265.5q0 145 69.5 263.5t190 186.5t267.5 68q149 0 270.5 -68zM829 738.5q88 49.5 139 136.5t51 193
q0 105 -50.5 191t-138.5 135.5t-195 49.5t-194.5 -50t-138 -136.5t-50.5 -192.5q0 -104 50.5 -190.5t138.5 -136t194 -49.5t194 49.5z" />
    <glyph glyph-name="caroncomb.alt" horiz-adv-x="0" 
d="M-178 1527.5q42 -61.5 42 -150.5q0 -67 -26 -138.5t-80 -131.5t-133 -89l-35 80q56 22 97.5 63t63.5 92t22 100q0 27 -6 49q-16 -17 -37.5 -26.5t-44.5 -9.5q-46 0 -78.5 33t-32.5 80t33 78.5t83 31.5q90 0 132 -61.5z" />
    <glyph glyph-name="uni0308.case" horiz-adv-x="0" 
d="M-757.5 1300.5q-32.5 33.5 -32.5 80.5q0 45 32.5 77t78.5 32t78.5 -32t32.5 -77q0 -47 -32.5 -80.5t-78.5 -33.5t-78.5 33.5zM-351.5 1300.5q-32.5 33.5 -32.5 80.5q0 45 32.5 77t79.5 32q45 0 78 -32t33 -77q0 -47 -33 -80.5t-78 -33.5q-47 0 -79.5 33.5z" />
    <glyph glyph-name="uni0307.case" horiz-adv-x="0" 
d="M-350.5 1300.5q-32.5 33.5 -32.5 80.5q0 45 32.5 77t78.5 32t78.5 -32t32.5 -77q0 -47 -32.5 -80.5t-78.5 -33.5t-78.5 33.5z" />
    <glyph glyph-name="uni0337.case" horiz-adv-x="0" 
d="M-750 727l676 539v-165l-676 -540v166z" />
    <glyph glyph-name="uni0338.case" horiz-adv-x="0" 
d="M-1115 26l997 1596l98 -61l-995 -1597z" />
    <glyph glyph-name="basegreaterlessthan" horiz-adv-x="1194" 
d="M0 0h1194v-113h-1194v113z" />
    <glyph glyph-name="_global" horiz-adv-x="1846" 
 />
    </font>
</defs>
</svg>
