<?xml version="1.0" standalone="no"?>
<!DOCTYPE svg PUBLIC "-//W3C//DTD SVG 1.1//EN" "http://www.w3.org/Graphics/SVG/1.1/DTD/svg11.dtd" >
<svg xmlns="http://www.w3.org/2000/svg" xmlns:xlink="http://www.w3.org/1999/xlink" version="1.1">
<metadata>
Created by FontForge 20170731 at Tue Feb 19 21:55:39 2019
 By Aleksey,,,
Copyright (c) 2019 Hanken Grotesk by Alfredo Marco Pradil. All rights reserved.
</metadata>
<defs>
<font id="HankenGrotesk-Light" horiz-adv-x="0" >
  <font-face 
    font-family="Hanken Grotesk Light"
    font-weight="300"
    font-stretch="normal"
    units-per-em="2048"
    panose-1="0 0 4 0 0 0 0 0 0 0"
    ascent="1570"
    descent="-478"
    x-height="1110"
    cap-height="1570"
    bbox="-1614 -595 2945 2514.06"
    underline-thickness="91"
    underline-position="-363"
    unicode-range="U+0020-FB02"
  />
<missing-glyph horiz-adv-x="1330" 
d="M203 1068h925v-1068h-925v1068zM1075 53v962h-819v-962h819z" />
    <glyph glyph-name="fi" unicode="fi" horiz-adv-x="1090" 
d="M916 0h-98v1019h-470v-1019h-103v1019h-198v91h198v97q0 129 46.5 213.5t127.5 124.5t187 40q91 0 165.5 -26t142.5 -76l-53 -73q-108 87 -250 87q-129 0 -196 -69t-67 -223v-95h568v-1110z" />
    <glyph glyph-name="fl" unicode="fl" horiz-adv-x="1179" 
d="M831.5 51q-43.5 66 -43.5 188v1189q-89 69 -205 69q-74 0 -124.5 -25.5t-80.5 -78.5q-21 -38 -30.5 -92t-9.5 -153v-38h255v-91h-255v-1019h-106v1019h-185v91h185v40q0 117 17.5 187t52.5 117q45 66 115.5 98.5t160.5 32.5t160 -24t156 -81v-1219q0 -62 7 -99.5
t35.5 -61.5t88.5 -24q42 0 90 12l16 -82q-69 -21 -139 -21q-117 0 -160.5 66z" />
    <glyph glyph-name="f_f" unicode="ff" horiz-adv-x="1305" 
d="M245 1019h-198v91h198v112q0 109 52 191.5t143.5 127t205.5 44.5q143 0 260 -71q83 71 228 71q80 0 162 -41l-36 -87q-62 32 -117 32q-110 0 -165 -51t-55 -157v-171h358v-91h-358v-1019h-109v1019h-466v-1019h-103v1019zM815 1110v180q0 97 43 155q-89 52 -207 52
q-93 0 -161.5 -34t-105 -96.5t-36.5 -145.5v-111h467z" />
    <glyph glyph-name="f_f_i" unicode="ffi" horiz-adv-x="1666" 
d="M245 1019h-198v91h198v112q0 109 52 191.5t143.5 127t205.5 44.5q159 0 279 -82q48 41 113 61.5t140 20.5q90 0 164 -26t142 -76l-53 -73q-108 87 -249 87q-129 0 -196 -69t-67 -223v-95h573v-1110h-104v1019h-469v-1019h-105v1019h-466v-1019h-103v1019zM814 1110v97
q0 145 59 229q-98 61 -222 61q-93 0 -161.5 -34t-105 -96.5t-36.5 -145.5v-111h466z" />
    <glyph glyph-name="f_f_l" unicode="ffl" horiz-adv-x="1794" 
d="M1746 6q-69 -21 -144 -21q-86 0 -133 32t-64 86.5t-17 135.5v1196q-91 62 -206 62q-129 0 -196 -69t-67 -223v-95h268v-91h-268v-1019h-105v1019h-466v-1019h-103v1019h-198v91h198v112q0 109 52 191.5t143.5 127t205.5 44.5q166 0 282 -83q94 83 250 83q90 0 165 -26
t149 -79v-1219q0 -63 7.5 -100t38 -61t95.5 -24q49 0 98 12zM814 1110v97q0 136 58 229q-95 61 -221 61q-93 0 -161.5 -34t-105 -96.5t-36.5 -145.5v-111h466z" />
    <glyph glyph-name="h_d_c_o.liga" unicode="hdco" horiz-adv-x="2055" 
d="M595.5 47.5q-197.5 115.5 -313 313t-115.5 431.5t115.5 431.5t313 313t431.5 115.5t432 -115.5t313.5 -313t115.5 -431.5t-115.5 -431.5t-313.5 -313t-432 -115.5t-431.5 115.5zM1419.5 116q179.5 105 284 284t104.5 392t-104.5 392t-284 283.5t-392.5 104.5t-392 -104.5
t-283.5 -283.5t-104.5 -392t104.5 -392t284 -284t391.5 -105q213 0 392.5 105zM551.5 466q-11.5 11 -11.5 28v596q0 17 12 29t27 12q17 0 29 -12t12 -29v-596q0 -17 -12 -28t-29 -11q-16 0 -27.5 11zM999.5 466q-10.5 11 -10.5 28v596q0 17 11 29t27 12q17 0 28 -12t11 -29
v-596q0 -17 -11 -28t-28 -11t-27.5 11zM1442 469l-289 289q-14 14 -14 32q0 17 14 31l289 289q13 14 29 14q18 0 27 -11q12 -12 12 -28q0 -15 -14 -29l-266 -266l266 -267q14 -14 14 -29q0 -16 -12 -28q-11 -11 -27 -11q-15 0 -29 14zM701.5 764q-10.5 11 -10.5 28t10.5 28
t27.5 11h148q17 0 29 -11t12 -28t-12 -28t-29 -11h-148q-17 0 -27.5 11z" />
    <glyph glyph-name="hyphen_hyphen.liga" unicode="&#x2d;&#x2d;" horiz-adv-x="1138" 
d="M0 742h1138v-83h-1138v83z" />
    <glyph glyph-name="hyphen_hyphen_hyphen.liga" unicode="&#x2d;&#x2d;&#x2d;" horiz-adv-x="2276" 
d="M0 742h2276v-83h-2276v83z" />
    <glyph glyph-name="hyphen_greater.liga" unicode="&#x2d;&#x3e;" horiz-adv-x="2178" 
d="M1424 353v302h-1234v83h1234v300l581 -343z" />
    <glyph glyph-name="parenleft_c_parenright.liga" unicode="&#x28;c&#x29;" horiz-adv-x="1939" 
d="M567.5 90q-184.5 108 -292.5 292.5t-108 402.5t108 402.5t292.5 292.5t401.5 108q218 0 402.5 -108t292.5 -292.5t108 -402.5t-108 -402.5t-292.5 -292.5t-402.5 -108q-217 0 -401.5 108zM1335 151.5q168 98.5 266.5 267t98.5 366.5t-98.5 366.5t-266.5 267t-366 98.5
q-199 0 -366.5 -98.5t-266 -266.5t-98.5 -367t98.5 -367t266 -266.5t366.5 -98.5q198 0 366 98.5zM752 318.5q-103 69.5 -158.5 191t-55.5 273.5q0 142 51.5 265t154 198t247.5 75q138 0 244.5 -72t163.5 -206l-85 -34q-44 109 -129 169.5t-194 60.5q-117 0 -199 -63
t-122.5 -167t-40.5 -226q0 -123 41 -226t123 -164.5t200 -61.5q112 0 194.5 60t118.5 168l82 -32q-46 -132 -150 -205t-245 -73q-138 0 -241 69.5z" />
    <glyph glyph-name="parenleft_p_parenright.liga" unicode="&#x28;p&#x29;" horiz-adv-x="1939" 
d="M567.5 90q-184.5 108 -292.5 292.5t-108 402.5t108 402.5t292.5 292.5t401.5 108q218 0 402.5 -108t292.5 -292.5t108 -402.5t-108 -402.5t-292.5 -292.5t-402.5 -108q-217 0 -401.5 108zM1335 151.5q168 98.5 266.5 267t98.5 366.5t-98.5 366.5t-266.5 267t-366 98.5
q-199 0 -366.5 -98.5t-266 -266.5t-98.5 -367t98.5 -367t266 -266.5t366.5 -98.5q198 0 366 98.5zM788 1183l551 -396l-551 -398v794z" />
    <glyph glyph-name="parenleft_r_parenright.liga" unicode="&#x28;r&#x29;" horiz-adv-x="1939" 
d="M567.5 90q-184.5 108 -292.5 292.5t-108 402.5t108 402.5t292.5 292.5t401.5 108q218 0 402.5 -108t292.5 -292.5t108 -402.5t-108 -402.5t-292.5 -292.5t-402.5 -108q-217 0 -401.5 108zM1335 151.5q168 98.5 266.5 267t98.5 366.5t-98.5 366.5t-266.5 267t-366 98.5
q-199 0 -366.5 -98.5t-266 -266.5t-98.5 -367t98.5 -367t266 -266.5t366.5 -98.5q198 0 366 98.5zM725 1278h263q99 0 172 -33t112.5 -94.5t39.5 -144.5q0 -98 -54.5 -164t-154.5 -88l270 -462h-85l-261 453q-30 -3 -63 -3h-163v-450h-76v986zM993 806q119 1 181.5 52
t62.5 147q0 98 -65 150.5t-183 52.5h-188v-402h192z" />
    <glyph glyph-name="less_hyphen.liga" unicode="&#x3c;&#x2d;" horiz-adv-x="2178" 
d="M1988 659h-1234v-303l-581 343l581 342v-299h1234v-83z" />
    <glyph glyph-name=".notdef" horiz-adv-x="1330" 
d="M203 1068h925v-1068h-925v1068zM1075 53v962h-819v-962h819z" />
    <glyph glyph-name=".null" 
 />
    <glyph glyph-name="nonmarkingreturn" horiz-adv-x="682" 
 />
    <glyph glyph-name="space" unicode=" " horiz-adv-x="593" 
 />
    <glyph glyph-name="exclam" unicode="!" horiz-adv-x="702" 
d="M299 1570h105l-10 -1139h-85zM284.5 4.5q-27.5 27.5 -27.5 67.5q0 38 27.5 64.5t67.5 26.5q38 0 65 -27t27 -64q0 -40 -27 -67.5t-65 -27.5q-40 0 -67.5 27.5z" />
    <glyph glyph-name="quotedbl" unicode="&#x22;" horiz-adv-x="943" 
d="M255 1570h91v-612h-91v612zM597 1570h91v-612h-91v612z" />
    <glyph glyph-name="numbersign" unicode="#" horiz-adv-x="1597" 
d="M427 482h-284v79h301l98 478h-303v82h319l97 449h87l-96 -452h433l95 452h87l-96 -452h289v-79h-306l-100 -478h311v-79h-328l-99 -482h-88l101 482h-433l-99 -482h-88zM964 561l96 478h-432l-98 -478h434z" />
    <glyph glyph-name="dollar" unicode="$" horiz-adv-x="1281" 
d="M1086 208.5q-55 -95.5 -154 -153.5t-227 -67v-279h-53v277q-135 1 -245.5 51t-183 144.5t-94.5 225.5l108 26q17 -110 72.5 -188t143.5 -118.5t199 -41.5v698q-4 1 -8.5 3t-10.5 4q-140 54 -222.5 97.5t-139.5 118.5t-57 190q0 114 56.5 202.5t154.5 137.5t217 49h10v258
h53v-261q122 -11 214 -70.5t157 -171.5l-90 -57q-51 90 -120 139t-161 61v-613q139 -52 227.5 -100.5t148.5 -132.5t60 -213q0 -120 -55 -215.5zM366 1061q43 -57 111.5 -94t174.5 -77v597h-13q-89 0 -161 -37.5t-113.5 -103t-41.5 -147.5q0 -81 43 -138zM878 141
q74 45 114 116t40 159q0 92 -43 157t-112 107t-172 83v-676q99 9 173 54z" />
    <glyph glyph-name="percent" unicode="%" horiz-adv-x="1740" 
d="M306 935q-65 51 -96 131.5t-31 167.5q0 88 30.5 168t94 131.5t156.5 51.5q83 0 148 -45.5t101.5 -125.5t36.5 -181q0 -100 -36 -179.5t-99.5 -124.5t-144.5 -45q-95 0 -160 51zM1260 1570h78l-861 -1570h-79zM571.5 994q46.5 35 72.5 97.5t26 141.5q0 75 -24 138
t-71.5 101t-114.5 38q-70 0 -116 -40.5t-67.5 -103.5t-21.5 -132t22 -132t69 -103t120 -40q59 0 105.5 35zM1121.5 36.5q-64.5 51.5 -96 131.5t-31.5 168q0 87 31 167.5t94 131.5t155 51q83 0 148.5 -45.5t102 -125t36.5 -180.5t-36 -180.5t-99.5 -124.5t-144.5 -45
q-95 0 -159.5 51.5zM1387.5 95q46.5 35 72.5 97.5t26 142.5q0 74 -24 137t-72 101t-116 38q-70 0 -116 -40.5t-67 -103t-21 -131.5q0 -70 22 -132.5t69.5 -103t119.5 -40.5q60 0 106.5 35z" />
    <glyph glyph-name="ampersand" unicode="&#x26;" horiz-adv-x="1601" 
d="M1344 -69l-207 243q-96 -94 -220 -142t-271 -48q-141 0 -247 44.5t-164.5 129t-58.5 200.5q0 115 54 201t138.5 145.5t207.5 121.5l-21 25q-86 96 -143.5 188t-57.5 191q0 104 52.5 184.5t143 125t200.5 44.5q104 0 189 -47t133.5 -128.5t48.5 -180.5
q0 -101 -52.5 -177.5t-133 -130.5t-205.5 -118l395 -464h20v-4q120 183 141 461l101 -10q-31 -332 -185 -536l217 -252zM507 1072q51 -81 128 -169l28 -34q119 58 192 104.5t120.5 110t47.5 146.5q0 75 -35 136t-97 96.5t-141 35.5q-85 0 -152 -33.5t-104.5 -94
t-37.5 -137.5q0 -80 51 -161zM885 113.5q109 45.5 191 132.5l-436 510q-114 -59 -189.5 -111t-123.5 -123.5t-48 -165.5q0 -89 46 -154t129 -99.5t193 -34.5q129 0 238 45.5z" />
    <glyph glyph-name="quotesingle" unicode="'" horiz-adv-x="601" 
d="M255 1570h91v-612h-91v612z" />
    <glyph glyph-name="parenleft" unicode="(" horiz-adv-x="634" 
d="M294.5 188q-58.5 144 -89.5 302.5t-31 293.5q0 235 65.5 456t191.5 375h101q-137 -168 -204 -388t-67 -445t71 -449.5t198 -379.5h-99q-78 91 -136.5 235z" />
    <glyph glyph-name="parenright" unicode=")" horiz-adv-x="634" 
d="M104 -47q127 155 198 379.5t71 449.5t-67 445t-204 388h101q126 -154 191.5 -375t65.5 -456q0 -135 -31 -293.5t-89.5 -302.5t-136.5 -235h-99z" />
    <glyph glyph-name="asterisk" unicode="*" horiz-adv-x="1054" 
d="M276 1011l200 223l-285 41l46 137l258 -121l-38 279h139l-40 -279l260 121l44 -137l-284 -41l200 -223l-116 -80l-134 273l-137 -273z" />
    <glyph glyph-name="plus" unicode="+" horiz-adv-x="1260" 
d="M589 654h-524v83h524v525h83v-525h524v-83h-524v-525h-83v525z" />
    <glyph glyph-name="comma" unicode="," horiz-adv-x="726" 
d="M451 108.5q38 -54.5 38 -135.5q0 -64 -23.5 -133.5t-72 -128.5t-119.5 -89l-27 59q78 40 122 115.5t44 154.5q0 36 -9 66q-13 -19 -33.5 -29.5t-43.5 -10.5q-40 0 -66.5 24.5t-26.5 65.5q0 42 29 69t74 27q76 0 114 -54.5z" />
    <glyph glyph-name="hyphen" unicode="-" horiz-adv-x="984" 
d="M200 742h584v-83h-584v83z" />
    <glyph glyph-name="period" unicode="." horiz-adv-x="711" 
d="M290.5 4.5q-27.5 27.5 -27.5 67.5q0 38 27.5 64.5t66.5 26.5q38 0 64.5 -26.5t26.5 -64.5q0 -40 -26.5 -67.5t-64.5 -27.5q-39 0 -66.5 27.5z" />
    <glyph glyph-name="slash" unicode="/" horiz-adv-x="973" 
d="M834 1615h102l-797 -2044h-103z" />
    <glyph glyph-name="zero" unicode="0" horiz-adv-x="1260" 
d="M346 105q-100 120 -132.5 293.5t-32.5 386.5q0 216 31.5 389.5t130 293t286.5 119.5q263 0 358 -228.5t95 -574.5q0 -343 -94 -571t-353 -228q-189 0 -289 120zM849 184q74 103 97 254t23 348q0 200 -23 350t-98 251.5t-219 101.5t-219 -101.5t-98 -252t-23 -350.5
q0 -198 23.5 -349t99.5 -253t221 -102q142 0 216 103z" />
    <glyph glyph-name="one" unicode="1" horiz-adv-x="1260" 
d="M798 1570v-1570h-110v1228h-404v86h287q64 0 93 25t29 82v149h105z" />
    <glyph glyph-name="two" unicode="2" horiz-adv-x="1260" 
d="M91 110l501 411q134 109 216.5 199.5t125.5 188t43 211.5q0 108 -42 190.5t-122 128.5t-191 46q-123 0 -207.5 -53t-127 -149.5t-44.5 -225.5l-106 6q0 155 57.5 273t168.5 183.5t265 65.5q142 0 245 -59t157.5 -163t54.5 -239q0 -123 -45 -231t-137.5 -214.5
t-242.5 -229.5l-406 -330v-19h916v-100h-1079v110z" />
    <glyph glyph-name="three" unicode="3" horiz-adv-x="1260" 
d="M338.5 41q-121.5 56 -189.5 163.5t-68 254.5l104 4q0 -115 54 -200.5t152 -131t228 -45.5q124 0 221.5 44t152.5 126t55 191q0 155 -105 232.5t-264 96.5q-65 8 -154 8v91q103 0 154 11q125 22 205.5 92t80.5 201q0 89 -45.5 158.5t-125.5 107.5t-180 38q-105 0 -186 -40
t-125.5 -114t-44.5 -171l-104 6q0 126 59 222t163.5 147.5t236.5 51.5q127 0 231.5 -50t165.5 -140t61 -205q0 -146 -85 -231t-202 -118v-7q94 -19 177.5 -66t137.5 -129.5t54 -199.5q0 -138 -69.5 -241t-191 -158t-274.5 -55q-158 0 -279.5 56z" />
    <glyph glyph-name="four" unicode="4" horiz-adv-x="1260" 
d="M851 377h-805v75l807 1118h107v-1093h257v-100h-257v-377h-109v377zM851 477v926h-8l-659 -922l5 -4h662z" />
    <glyph glyph-name="five" unicode="5" horiz-adv-x="1260" 
d="M912 966q114 -66 179.5 -183.5t65.5 -265.5q0 -150 -69 -271.5t-190 -191t-269 -69.5q-130 0 -238.5 53.5t-181 150.5t-99.5 225l104 26q21 -106 79 -185.5t144.5 -123t190.5 -43.5q119 0 215.5 56t152 154.5t55.5 219.5q0 119 -52 214t-143 148.5t-206 53.5t-212 -54
t-164 -155l-115 38l136 807h784v-101h-699l-97 -604q76 82 173 124.5t204 42.5q138 0 252 -66z" />
    <glyph glyph-name="six" unicode="6" horiz-adv-x="1260" 
d="M892.5 939q118.5 -68 187 -185t68.5 -259q0 -141 -68 -258t-186 -184.5t-261 -67.5q-144 0 -262.5 67.5t-187 183t-68.5 252.5q0 78 22 153t62 143l468 786h123l-363 -612q96 49 204 49q143 0 261.5 -68zM838.5 142q94.5 54 149.5 148t55 207q0 112 -55 205.5t-149.5 148
t-207.5 54.5q-112 0 -206.5 -54.5t-149.5 -148.5t-55 -207t54.5 -206t148.5 -147t208 -54q113 0 207.5 54z" />
    <glyph glyph-name="seven" unicode="7" horiz-adv-x="1260" 
d="M1055 1456v13h-988v101h1120v-75l-794 -1495h-121z" />
    <glyph glyph-name="eight" unicode="8" horiz-adv-x="1260" 
d="M382 36q-116 51 -188 153t-72 247q0 102 39.5 186.5t112 143.5t170.5 85v2q-105 41 -166.5 134t-61.5 218q0 116 60 202.5t156 132t201 45.5q116 0 211 -49t150 -138t55 -204q0 -120 -62.5 -211t-167.5 -130v-2q97 -27 168.5 -86t110 -143.5t38.5 -185.5q0 -145 -71 -247
t-187 -153t-248 -51t-248 51zM795 930.5q71 37.5 110.5 103.5t39.5 150q0 89 -39.5 158t-110 107t-161.5 38q-83 0 -154.5 -35t-114.5 -100.5t-43 -154.5q0 -90 39 -159t110 -107t164 -38q89 0 160 37.5zM829 124.5q90 41.5 143.5 123t53.5 195.5q0 105 -50 186.5t-140 127
t-206 45.5q-117 0 -207.5 -45.5t-140.5 -127t-50 -186.5q0 -114 54.5 -195.5t145 -123t198.5 -41.5q109 0 199 41.5z" />
    <glyph glyph-name="nine" unicode="9" horiz-adv-x="1260" 
d="M889.5 1517.5q118.5 -67.5 187 -183t68.5 -252.5q0 -78 -22 -153t-62 -143l-468 -786h-123l363 612q-96 -49 -204 -49q-143 0 -261.5 68t-187 185t-68.5 259q0 141 68 258t186 184.5t261 67.5q144 0 262.5 -67.5zM835.5 719.5q94.5 54.5 149.5 148.5t55 207t-54.5 206
t-148.5 147t-208 54q-113 0 -207.5 -54t-149.5 -148t-55 -207q0 -112 55 -205.5t149.5 -148t207.5 -54.5q112 0 206.5 54.5z" />
    <glyph glyph-name="colon" unicode=":" horiz-adv-x="709" 
d="M288.5 925q-27.5 27 -27.5 66q0 38 27.5 65t66.5 27q37 0 64 -27t27 -65q0 -39 -26.5 -66t-64.5 -27q-39 0 -66.5 27zM288.5 4.5q-27.5 27.5 -27.5 67.5q0 38 27.5 64.5t66.5 26.5q38 0 64.5 -26.5t26.5 -64.5q0 -40 -26.5 -67.5t-64.5 -27.5q-39 0 -66.5 27.5z" />
    <glyph glyph-name="semicolon" unicode=";" horiz-adv-x="719" 
d="M275.5 925q-27.5 27 -27.5 66q0 38 27 65t66 27q38 0 65 -27t27 -65q0 -39 -27 -66t-65 -27t-65.5 27zM465 108.5q38 -54.5 38 -135.5q0 -64 -24 -133.5t-72.5 -128.5t-119.5 -89l-26 59q78 40 121.5 115.5t43.5 154.5q0 36 -9 66q-13 -19 -33.5 -29.5t-44.5 -10.5
q-39 0 -65 24.5t-26 65.5q0 42 29 69t73 27q77 0 115 -54.5z" />
    <glyph glyph-name="less" unicode="&#x3c;" horiz-adv-x="1260" 
d="M71 688l1063 606l40 -71l-935 -535l935 -534l-40 -72z" />
    <glyph glyph-name="equal" unicode="=" horiz-adv-x="1260" 
d="M201 1000h857v-92h-857v92zM201 585h857v-92h-857v92z" />
    <glyph glyph-name="greater" unicode="&#x3e;" horiz-adv-x="1260" 
d="M86 154l935 534l-935 535l40 71l1063 -606l-1063 -606z" />
    <glyph glyph-name="question" unicode="?" horiz-adv-x="967" 
d="M314 596q0 82 28 137t68 89t109 78q67 42 106 75t66 85.5t27 129.5q0 148 -93.5 227t-262.5 79q-110 0 -192 -41l-32 89q103 41 223 41q138 0 239.5 -46t156.5 -135t55 -215q0 -95 -31 -158.5t-75 -101t-117 -83.5q-63 -40 -99 -69t-60 -73.5t-24 -108.5v-168h-92v169z
M293.5 4.5q-27.5 27.5 -27.5 67.5q0 38 27.5 64.5t67.5 26.5q38 0 64.5 -26.5t26.5 -64.5q0 -40 -26.5 -67.5t-64.5 -27.5q-40 0 -67.5 27.5z" />
    <glyph glyph-name="at" unicode="@" horiz-adv-x="2369" 
d="M681.5 -276q-222.5 119 -351.5 338.5t-129 510.5q0 292 128 526t355 367t514 133q280 0 501.5 -125.5t346.5 -348t125 -503.5q0 -186 -57 -344t-171 -253.5t-277 -95.5q-110 0 -168.5 66t-58.5 188l1 27q0 65 14 158h-7q-67 -137 -176 -221t-254 -84q-105 0 -182 45
t-118.5 133t-41.5 212q0 165 69 330t198 273t300 108q133 0 208 -72.5t88 -209.5h6l47 223h76l-41 -198q-48 -227 -78 -382t-40 -256q-4 -31 -4 -67q0 -199 169 -199q137 0 232 85t142.5 226t47.5 308q0 261 -113.5 467t-317.5 321.5t-465 115.5q-268 0 -477.5 -123
t-326.5 -340t-117 -490q0 -271 118.5 -474.5t323 -312t456.5 -108.5q84 0 159 13t153 42l25 -71q-88 -30 -168.5 -43.5t-168.5 -13.5q-272 0 -494.5 119zM1278 237.5q111 98.5 169.5 247t58.5 294.5q0 153 -67.5 230.5t-194.5 77.5q-150 0 -262 -96t-171 -243.5t-59 -295.5
q0 -155 68.5 -234t196.5 -79q150 0 261 98.5z" />
    <glyph glyph-name="A" unicode="A" horiz-adv-x="1440" 
d="M1087 390h-731l-133 -390h-121l551 1570h134l551 -1570h-118zM1054 488l-329 964h-5l-330 -964h664z" />
    <glyph glyph-name="B" unicode="B" horiz-adv-x="1423" 
d="M267 1570h445q231 0 347 -91q61 -47 94.5 -120.5t33.5 -170.5q0 -134 -63.5 -226.5t-172.5 -130.5v-6q146 -25 225.5 -127t79.5 -267q0 -97 -29.5 -176t-89.5 -134q-68 -63 -166 -92t-264 -29h-440v1570zM729 865q84 0 145 18t106 56q46 40 71.5 99t25.5 135
q0 72 -23 129t-68 94q-86 75 -273 75h-336v-606h352zM684 99q146 0 232.5 23t147.5 83q83 81 83 234q0 101 -35.5 172t-100.5 109q-41 24 -97.5 35t-135.5 11h-401v-667h307z" />
    <glyph glyph-name="C" unicode="C" horiz-adv-x="1636" 
d="M490.5 81.5q-155.5 96.5 -237.5 277t-82 429.5q0 250 83 429t241.5 273.5t380.5 94.5q239 0 393 -104.5t233 -313.5l-104 -39q-66 181 -194 270t-328 89q-189 0 -322.5 -82.5t-203.5 -239t-70 -377.5q0 -208 64 -367t194.5 -248.5t323.5 -89.5q391 0 540 369l106 -34
q-86 -213 -247.5 -323t-398.5 -110q-216 0 -371.5 96.5z" />
    <glyph glyph-name="D" unicode="D" horiz-adv-x="1641" 
d="M267 1570h329q166 0 285 -20t204.5 -58.5t155.5 -99.5q115 -102 175 -258t60 -360q0 -195 -57.5 -343.5t-169.5 -247.5q-111 -98 -263.5 -140.5t-391.5 -42.5h-327v1570zM585 99q228 0 362.5 40t227.5 126q94 87 142.5 216t48.5 296q0 353 -196 534q-97 87 -229.5 123.5
t-345.5 36.5h-218v-1372h208z" />
    <glyph glyph-name="E" unicode="E" horiz-adv-x="1409" 
d="M267 1570h974v-99h-864v-632h765v-98h-765v-642h910v-99h-1020v1570z" />
    <glyph glyph-name="F" unicode="F" horiz-adv-x="1374" 
d="M267 1570h1005v-99h-895v-632h780v-98h-780v-741h-110v1570z" />
    <glyph glyph-name="G" unicode="G" horiz-adv-x="1719" 
d="M1510 795v-795h-100v308h-12q-60 -155 -194 -239t-334 -84q-219 0 -376.5 96.5t-240 277.5t-82.5 431q0 249 83 427.5t241 273t380 94.5q239 0 393.5 -104.5t232.5 -313.5l-103 -39q-66 181 -194 270t-329 89q-189 0 -322.5 -82t-203 -238.5t-69.5 -376.5
q0 -209 65.5 -368t201 -249t337.5 -90q270 0 397 162t129 452h-422v98h522z" />
    <glyph glyph-name="H" unicode="H" horiz-adv-x="1629" 
d="M267 1570h110v-729h876v729h109v-1570h-109v742h-876v-742h-110v1570z" />
    <glyph glyph-name="I" unicode="I" horiz-adv-x="644" 
d="M267 1570h110v-1570h-110v1570z" />
    <glyph glyph-name="J" unicode="J" horiz-adv-x="1321" 
d="M346 42q-107 54 -168.5 157t-69.5 245l109 13q7 -121 61 -207.5t145 -127.5q76 -39 177 -39q183 0 282 113q47 56 68.5 147.5t21.5 260.5v867h-655v99h764v-966q0 -182 -26.5 -291.5t-90.5 -183.5q-125 -144 -364 -144q-146 0 -254 57z" />
    <glyph glyph-name="K" unicode="K" horiz-adv-x="1519" 
d="M1419 0h-130l-557 892h-11l-344 -352v-540h-110v1570h110v-879h11l846 879h148l-578 -592z" />
    <glyph glyph-name="L" unicode="L" horiz-adv-x="1200" 
d="M267 1570h110v-1471h732v-99h-842v1570z" />
    <glyph glyph-name="M" unicode="M" horiz-adv-x="1948" 
d="M267 1570h186l521 -1256h1l520 1256h185v-1570h-109v1461h-10l-524 -1263h-126l-524 1263h-10v-1461h-110v1570z" />
    <glyph glyph-name="N" unicode="N" horiz-adv-x="1628" 
d="M267 1570h166l808 -1432h12v1432h108v-1570h-167l-807 1434h-10v-1434h-110v1570z" />
    <glyph glyph-name="O" unicode="O" horiz-adv-x="1744" 
d="M487.5 89q-158.5 104 -239.5 285t-81 411t81 411t239.5 285t382.5 104q226 0 385.5 -104t240.5 -285t81 -411t-81 -411t-240.5 -285t-385.5 -104q-224 0 -382.5 104zM1197.5 174q134.5 91 202.5 250t68 361t-68 361t-202.5 250t-327.5 91q-191 0 -325 -91t-201.5 -250
t-67.5 -361t67.5 -361t201.5 -250t325 -91q193 0 327.5 91z" />
    <glyph glyph-name="P" unicode="P" horiz-adv-x="1329" 
d="M267 1570h321q143 0 235.5 -14t150.5 -40.5t103 -68.5q121 -113 121 -313q0 -93 -27 -170t-80 -131q-46 -48 -109 -76.5t-158 -42.5t-236 -14h-211v-700h-110v1570zM572 798q130 0 213 11t137 35t92 67q37 41 56 98.5t19 126.5q0 146 -87 235q-37 36 -87 57.5t-132 32
t-211 10.5h-195v-673h195z" />
    <glyph glyph-name="Q" unicode="Q" horiz-adv-x="1752" 
d="M1516 427q-60 -162 -175 -270l171 -167l-67 -71l-180 177q-166 -111 -396 -111q-224 0 -382.5 104t-239.5 285t-81 411t81 411t239.5 285t382.5 104q225 0 384.5 -104t241 -285t81.5 -411q0 -196 -60 -358zM1190 170l-316 312l65 69l328 -321q98 94 149 237.5t51 317.5
q0 202 -68 361t-202.5 250t-327.5 91q-191 0 -325 -91t-201.5 -250t-67.5 -361t67.5 -361t201.5 -250t325 -91q186 0 321 87z" />
    <glyph glyph-name="R" unicode="R" horiz-adv-x="1411" 
d="M1166 0l-436 704q-57 -4 -142 -4h-211v-700h-110v1570h321q143 0 235.5 -14t150.5 -40.5t103 -68.5q121 -113 121 -313q0 -93 -27 -170t-80 -131q-42 -44 -99.5 -72t-142.5 -43v-14l447 -704h-130zM785 809q83 11 137 35t92 67q37 41 56 98.5t19 126.5q0 146 -87 235
q-37 36 -87 57.5t-132 32t-211 10.5h-195v-673h195q130 0 213 11z" />
    <glyph glyph-name="S" unicode="S" horiz-adv-x="1281" 
d="M408.5 35.5q-111.5 49.5 -184.5 144.5t-95 227l108 26q17 -111 73 -189t144.5 -118.5t200.5 -40.5t197.5 43t132.5 118t47 170q0 104 -54 172.5t-133 110t-212 91.5q-140 54 -222.5 97.5t-139.5 118.5t-57 190q0 114 56.5 202.5t154.5 137.5t217 49q146 0 253.5 -59.5
t180.5 -185.5l-90 -57q-59 105 -143.5 154.5t-203.5 49.5q-89 0 -161 -37.5t-113.5 -103t-41.5 -147.5q0 -87 48.5 -145.5t120.5 -94.5t197 -83q147 -55 236.5 -103t152.5 -133t63 -216q0 -127 -61.5 -227t-172 -155.5t-251.5 -55.5q-136 0 -247.5 49.5z" />
    <glyph glyph-name="T" unicode="T" horiz-adv-x="1424" 
d="M659 1471h-568v99h1242v-99h-565v-1471h-109v1471z" />
    <glyph glyph-name="U" unicode="U" horiz-adv-x="1577" 
d="M544 26q-107 41 -179 117q-64 70 -95.5 167t-31.5 234v1026h109v-1023q0 -107 23 -187t75 -139q56 -66 142.5 -102t200.5 -36q115 0 201.5 35.5t143.5 102.5q50 58 73.5 136t23.5 190v1023h109v-1026q0 -136 -31 -232.5t-96 -168.5q-70 -76 -177.5 -117t-246.5 -41
q-137 0 -244 41z" />
    <glyph glyph-name="V" unicode="V" horiz-adv-x="1440" 
d="M102 1570h119l496 -1452h4l496 1452h121l-551 -1570h-134z" />
    <glyph glyph-name="W" unicode="W" horiz-adv-x="2475" 
d="M102 1570h119l492 -1443h12l447 1375h131l447 -1375h11l493 1443h118l-550 -1570h-135l-445 1351h-10l-445 -1351h-134z" />
    <glyph glyph-name="X" unicode="X" horiz-adv-x="1472" 
d="M1236 0l-501 710l-498 -710h-130l559 794l-547 776h131l486 -698l486 698h131l-546 -776l558 -794h-129z" />
    <glyph glyph-name="Y" unicode="Y" horiz-adv-x="1488" 
d="M688 586l-600 984h127l528 -868h1l529 868h128l-603 -984v-586h-110v586z" />
    <glyph glyph-name="Z" unicode="Z" horiz-adv-x="1454" 
d="M118 108l1065 1354v9h-1018v99h1154v-108l-1065 -1354v-9h1073v-99h-1209v108z" />
    <glyph glyph-name="bracketleft" unicode="[" horiz-adv-x="748" 
d="M257 1692h393v-75h-304v-1666h304v-75h-393v1816z" />
    <glyph glyph-name="backslash" unicode="\" horiz-adv-x="973" 
d="M834 -429l-797 2044h102l798 -2044h-103z" />
    <glyph glyph-name="bracketright" unicode="]" horiz-adv-x="748" 
d="M98 -124v75h304v1666h-304v75h393v-1816h-393z" />
    <glyph glyph-name="asciicircum" unicode="^" horiz-adv-x="1260" 
d="M629 1613l476 -1092h-114l-362 881l-357 -881h-114z" />
    <glyph glyph-name="underscore" unicode="_" horiz-adv-x="1280" 
d="M200 0h880v-83h-880v83z" />
    <glyph glyph-name="grave" unicode="`" horiz-adv-x="547" 
d="M96 1570h114l235 -316h-87z" />
    <glyph glyph-name="a" unicode="a" horiz-adv-x="1197" 
d="M992 862.5q19 -76.5 19 -198.5v-664h-105v223h-9q-22 -51 -59.5 -91.5t-80.5 -67.5q-115 -79 -264 -79q-116 0 -202 40.5t-132 115t-46 174.5q0 190 143 269q54 30 126.5 41.5t189.5 11.5h334v22q0 113 -18.5 180t-59.5 109t-105.5 64t-146.5 22q-110 0 -196 -43
t-164 -137l-67 71q91 104 194 152t233 48q119 0 207 -33t142 -96q48 -57 67 -133.5zM866 287q27 61 33.5 116.5t6.5 127.5v15h-328q-114 0 -174.5 -11t-100.5 -37q-40 -27 -62.5 -72.5t-22.5 -110.5q0 -112 77 -177.5t214 -65.5q163 0 274 102q56 52 83 113z" />
    <glyph glyph-name="b" unicode="b" horiz-adv-x="1372" 
d="M492 55q-109 70 -164 190h-7v-245h-106v1570h106v-708h7q54 120 163.5 191.5t253.5 71.5q148 0 261 -66.5t176 -194.5t63 -308t-63 -308.5t-177 -195.5t-264 -67q-140 0 -249 70zM940.5 131.5q93.5 55.5 146 163.5t52.5 261q0 152 -52.5 260t-146 163t-214.5 55
t-214.5 -60.5t-146 -169t-52.5 -248.5t52.5 -249.5t146.5 -170t214 -60.5q121 0 214.5 55.5z" />
    <glyph glyph-name="c" unicode="c" horiz-adv-x="1137" 
d="M352.5 59q-110.5 74 -169 203.5t-58.5 290.5q0 151 55 281.5t164 210.5t265 80q149 0 262 -76.5t173 -220.5l-100 -40q-45 114 -133 177.5t-202 63.5q-123 0 -208 -65.5t-127.5 -174t-42.5 -236.5q0 -129 42.5 -236t128 -171t208.5 -64q117 0 203 63t123 175l97 -37
q-49 -141 -160.5 -219.5t-261.5 -78.5q-148 0 -258.5 74z" />
    <glyph glyph-name="d" unicode="d" horiz-adv-x="1372" 
d="M367 52q-114 67 -177 195.5t-63 308.5t63 308t176 194.5t261 66.5q144 0 253.5 -71.5t163.5 -191.5h7v708h106v-1570h-106v245h-7q-55 -120 -164 -190t-249 -70q-150 0 -264 67zM860 136.5q94 60.5 146.5 170t52.5 249.5t-52.5 248.5t-146 169t-214.5 60.5t-214.5 -55
t-146 -163t-52.5 -260q0 -153 52.5 -261t146 -163.5t214.5 -55.5q120 0 214 60.5z" />
    <glyph glyph-name="e" unicode="e" horiz-adv-x="1199" 
d="M1080 573q-2 -28 -6 -42h-837q2 -140 50 -242.5t135.5 -157.5t207.5 -55q110 0 188 34t157 121l75 -67q-95 -97 -191.5 -138t-229.5 -41q-156 0 -269.5 72.5t-173.5 200.5t-60 292q0 162 58.5 293t168 206.5t258.5 75.5q166 0 271.5 -76t152.5 -189.5t47 -231.5
q0 -27 -2 -55zM423 980.5q-82 -53.5 -129.5 -147t-55.5 -211.5h737q0 8 0.5 19.5t-0.5 26.5q-4 98 -43.5 181t-119.5 134t-200 51q-107 0 -189 -53.5z" />
    <glyph glyph-name="f" unicode="f" horiz-adv-x="746" 
d="M289 1019h-242v91h243v181q0 148 75.5 221t206.5 73q51 0 92 -10.5t79 -30.5l-35 -87q-59 32 -124 32q-188 0 -188 -207v-172h301v-91h-301v-1019h-107v1019z" />
    <glyph glyph-name="g" unicode="g" horiz-adv-x="1180" 
d="M1091 -124q0 -180 -133 -265q-120 -79 -355 -79q-232 0 -360 77q-135 80 -135 267q0 12 1.5 23t4.5 28l161 145v8q-29 15 -49 33q-71 67 -71 178q0 110 98 216q-74 98 -74 234q0 114 52 201t143.5 135t206.5 48q89 0 163 -29t127 -82l171 154l56 -70l-174 -153
q54 -93 54 -211q0 -115 -51 -200.5t-141.5 -130.5t-204.5 -45q-77 0 -144 21.5t-119 61.5q-36 -36 -53 -71t-17 -74q0 -78 50 -121q35 -28 88.5 -37t99.5 -9h277q91 0 149 -15.5t99 -49.5q80 -64 80 -188zM426 997.5q-68 -36.5 -105.5 -104t-37.5 -155.5q0 -87 37 -152.5
t104.5 -101t156.5 -35.5t155.5 35.5t103 100.5t36.5 152q0 90 -36.5 157t-102.5 103.5t-154 36.5q-89 0 -157 -36.5zM963.5 -240.5q21.5 43.5 21.5 103.5q0 91 -51 132q-53 44 -166 44h-282q-65 0 -122 11l-151 -144q-1 -7 -2 -17t-1 -22q0 -127 90 -184q47 -32 122.5 -46
t180.5 -14q95 0 170 16.5t124 47.5q45 29 66.5 72.5z" />
    <glyph glyph-name="h" unicode="h" horiz-adv-x="1242" 
d="M216 1570h106l-1 -637h7q41 87 132 139.5t215 52.5q81 0 147 -22t111 -61q61 -54 91.5 -140t30.5 -224v-678h-106v641q0 125 -21 200t-69 120q-76 73 -215 73q-143 0 -230 -87q-48 -49 -70.5 -123.5t-22.5 -190.5v-633h-106z" />
    <glyph glyph-name="i" unicode="i" horiz-adv-x="531" 
d="M213 1110h106v-1110h-106v1110zM198 1434q-27 27 -27 67q0 38 27.5 65t66.5 27q37 0 64.5 -27t27.5 -65q0 -39 -27 -66.5t-65 -27.5q-40 0 -67 27z" />
    <glyph glyph-name="j" unicode="j" horiz-adv-x="535" 
d="M-31 -468.5q-53 9.5 -101 25.5l31 91q31 -13 68 -20.5t63 -7.5q50 0 84.5 14.5t57.5 43.5t33 73.5t10 113.5v1245h106v-1264q0 -83 -13.5 -142.5t-45.5 -100.5q-65 -81 -205 -81q-35 0 -88 9.5zM202 1434q-27 27 -27 67q0 38 27.5 65t66.5 27q37 0 64.5 -27t27.5 -65
q0 -39 -27 -66.5t-65 -27.5q-40 0 -67 27z" />
    <glyph glyph-name="k" unicode="k" horiz-adv-x="1208" 
d="M1029 0l-413 633l-295 -303v-330h-106v1570h106v-1112l628 652h133l-388 -406l460 -704h-125z" />
    <glyph glyph-name="l" unicode="l" horiz-adv-x="597" 
d="M257 35q-31 32 -40.5 88.5t-9.5 168.5v1278h106v-1257v-33q0 -74 5.5 -110.5t25.5 -59.5q29 -34 100 -34q42 0 90 12l16 -82q-69 -21 -139 -21q-103 0 -154 50z" />
    <glyph glyph-name="m" unicode="m" horiz-adv-x="1943" 
d="M213 1110h102v-180h6q41 91 126.5 143t207.5 52q134 0 221 -61t121 -173h4q44 110 141.5 172t235.5 62q170 0 260 -86q69 -63 94 -167.5t25 -244.5v-627h-106v612q0 146 -21.5 224.5t-70.5 127.5q-71 70 -205 70q-116 0 -193 -58q-62 -45 -92.5 -121t-30.5 -193v-662
h-106v662q0 122 -25.5 196.5t-77.5 116.5q-71 59 -195 59q-112 0 -188 -53q-64 -46 -95.5 -124.5t-31.5 -194.5v-662h-106v1110z" />
    <glyph glyph-name="n" unicode="n" horiz-adv-x="1240" 
d="M213 1110h106v-177h6q42 87 133 139.5t214 52.5q82 0 148 -22t111 -61q61 -54 91 -140t30 -224v-678h-105v641q0 125 -21 200t-69 120q-76 73 -215 73q-72 0 -130.5 -22.5t-99.5 -64.5q-48 -49 -70.5 -123t-22.5 -191v-633h-106v1110z" />
    <glyph glyph-name="o" unicode="o" horiz-adv-x="1295" 
d="M374.5 55q-118.5 70 -184.5 200t-66 303q0 172 66 300.5t184.5 197.5t271.5 69t272.5 -69.5t186.5 -198t67 -299.5q0 -173 -67 -302.5t-186.5 -200t-272.5 -70.5t-271.5 70zM866.5 135.5q95.5 59.5 147.5 168.5t52 254q0 143 -52 251t-147 166.5t-221 58.5
q-125 0 -219 -58t-145.5 -166t-51.5 -252q0 -146 51.5 -255t145.5 -168t219 -59t220.5 59.5z" />
    <glyph glyph-name="p" unicode="p" horiz-adv-x="1372" 
d="M1005 1058q114 -67 177 -195.5t63 -308.5t-63 -308t-176 -194.5t-261 -66.5q-144 0 -253.5 71.5t-163.5 191.5h-7v-708h-106v1570h106v-245h7q55 120 164 190t249 70q150 0 264 -67zM512 973.5q-94 -60.5 -146.5 -170t-52.5 -249.5t52.5 -248.5t146 -169t214.5 -60.5
t214.5 55t146 163t52.5 260q0 153 -52.5 261t-146 163.5t-214.5 55.5q-120 0 -214 -60.5z" />
    <glyph glyph-name="q" unicode="q" horiz-adv-x="1372" 
d="M880 1055q109 -70 164 -190h7v245h106v-1570h-106v708h-7q-54 -120 -163.5 -191.5t-253.5 -71.5q-148 0 -261 66.5t-176 194.5t-63 308t63 308.5t177 195.5t264 67q140 0 249 -70zM431.5 978.5q-93.5 -55.5 -146 -163.5t-52.5 -261q0 -152 52.5 -260t146 -163t214.5 -55
t214.5 60.5t146 169t52.5 248.5t-52.5 249.5t-146.5 170t-214 60.5q-121 0 -214.5 -55.5z" />
    <glyph glyph-name="r" unicode="r" horiz-adv-x="809" 
d="M213 1110h99l7 -183h11q50 100 137 149t189 49q56 0 104 -11v-109h-9q-67 20 -116 20q-132 0 -216 -84q-50 -49 -75 -131.5t-25 -212.5v-597h-106v1110z" />
    <glyph glyph-name="s" unicode="s" horiz-adv-x="1043" 
d="M358.5 21q-92.5 36 -158 102.5t-94.5 154.5l98 35q35 -112 129.5 -174.5t225.5 -62.5q126 0 195.5 57.5t69.5 162.5q0 61 -24.5 102t-70.5 68q-40 23 -94.5 39.5t-138.5 34.5q-73 16 -119 28.5t-83 29.5q-152 71 -152 230q0 90 45 157t127 103.5t188 36.5
q140 0 239.5 -62.5t145.5 -177.5l-92 -42q-34 94 -109.5 142.5t-186.5 48.5q-76 0 -132.5 -23.5t-87.5 -67t-31 -101.5q0 -52 23.5 -87t68.5 -60q34 -18 80 -31t118 -28q93 -21 151.5 -38t106.5 -45q64 -38 99.5 -96.5t35.5 -149.5q0 -98 -46 -170.5t-130 -112t-196 -39.5
q-108 0 -200.5 36z" />
    <glyph glyph-name="t" unicode="t" horiz-adv-x="751" 
d="M308 85q-63 100 -63 227v707h-186v91h187v313l104 80v-393h306v-91h-306v-695q0 -101 40 -174.5t161 -73.5q25 0 53 4t48 10l18 -88q-26 -7 -62 -12t-72 -5q-165 0 -228 100z" />
    <glyph glyph-name="u" unicode="u" horiz-adv-x="1239" 
d="M419 7q-66 22 -111 61q-61 55 -91 140.5t-30 223.5v678h105v-640q0 -125 21 -200.5t69 -120.5q76 -73 215 -73q72 0 130.5 22.5t99.5 65.5q48 49 70.5 123t22.5 191v632h106v-1110h-106v177h-6q-42 -87 -133 -139.5t-214 -52.5q-82 0 -148 22z" />
    <glyph glyph-name="v" unicode="v" horiz-adv-x="1143" 
d="M64 1110h115l389 -1031h8l388 1031h116l-426 -1110h-165z" />
    <glyph glyph-name="w" unicode="w" horiz-adv-x="1925" 
d="M64 1110h115l388 -1027h17l317 1027h123l317 -1027h18l387 1027h115l-425 -1110h-171l-296 939h-12l-297 -939h-171z" />
    <glyph glyph-name="x" unicode="x" horiz-adv-x="1113" 
d="M916 0l-360 484l-358 -484h-129l418 556l-418 554h130l356 -481l356 481h131l-417 -554l418 -556h-127z" />
    <glyph glyph-name="y" unicode="y" horiz-adv-x="1128" 
d="M506 10l-448 1100h116l388 -980h2l388 980h118l-639 -1570h-115z" />
    <glyph glyph-name="z" unicode="z" horiz-adv-x="1072" 
d="M85 100l757 905v14h-720v91h851v-104l-757 -905v-10h757v-91h-888v100z" />
    <glyph glyph-name="braceleft" unicode="{" horiz-adv-x="694" 
d="M318 -75q-59 72 -59 197v414q0 59 -33.5 93t-95.5 55v89q65 16 97 53.5t32 116.5v459q0 130 60 196.5t179 66.5h98v-74h-66q-94 0 -136 -47t-42 -143v-459q0 -88 -33 -137t-102 -71v-12q66 -26 100.5 -71.5t34.5 -113.5v-414q0 -92 42.5 -144.5t119.5 -52.5h81v-73h-111
q-107 0 -166 72z" />
    <glyph glyph-name="bar" unicode="|" horiz-adv-x="726" 
d="M322 1704h82v-2273h-82v2273z" />
    <glyph glyph-name="braceright" unicode="}" horiz-adv-x="694" 
d="M99 -147v73h81q77 0 119.5 52.5t42.5 144.5v414q0 68 34.5 113.5t100.5 71.5v12q-69 22 -102 71t-33 137v459q0 96 -42 143t-136 47h-66v74h98q119 0 179 -66.5t60 -196.5v-459q0 -79 32 -116.5t97 -53.5v-89q-62 -21 -95.5 -55t-33.5 -93v-414q0 -125 -59 -197t-166 -72
h-111z" />
    <glyph glyph-name="asciitilde" unicode="~" horiz-adv-x="1260" 
d="M732 450.5q-40 21.5 -67 52.5t-60 81q-31 45 -52.5 70.5t-51.5 43t-70 17.5q-75 0 -117.5 -63t-42.5 -174h-83q0 94 29.5 165t84.5 109.5t129 38.5q59 0 101 -22.5t69.5 -54t63.5 -83.5q28 -43 49 -68t49 -41.5t64 -16.5q49 0 87 32.5t58.5 92t20.5 137.5h83
q0 -101 -31 -177.5t-87.5 -118.5t-130.5 -42q-55 0 -95 21.5z" />
    <glyph glyph-name="uni00A0" unicode="&#xa0;" horiz-adv-x="996" 
 />
    <glyph glyph-name="exclamdown" unicode="&#xa1;" horiz-adv-x="701" 
d="M416.5 1105.5q27.5 -27.5 27.5 -67.5q0 -38 -27.5 -64.5t-67.5 -26.5q-38 0 -65 27t-27 64q0 40 27 67.5t65 27.5q40 0 67.5 -27.5zM402 -460h-105l10 1139h85z" />
    <glyph glyph-name="cent" unicode="&#xa2;" horiz-adv-x="1340" 
d="M670 -13q-137 9 -238.5 84.5t-155.5 201t-54 280.5q0 145 51 272t152 208.5t245 90.5v209h62v-208q139 -7 246 -84t164 -213l-101 -40q-43 107 -123.5 169t-185.5 69v-942q108 6 187 68t115 168l97 -37q-49 -136 -153.5 -214t-245.5 -84v-221l-62 -1v224zM670 1024
q-111 -9 -188 -75.5t-115 -170.5t-38 -225q0 -122 38 -224.5t115 -168t188 -74.5v938z" />
    <glyph glyph-name="sterling" unicode="&#xa3;" horiz-adv-x="1442" 
d="M353 91h879v-91h-1022v117q92 23 164 74t112 120t40 145q0 53 -11.5 105t-26.5 96t-46 122h-222v91h189q-46 136 -46 254q0 130 56 234.5t157.5 164.5t234.5 60q150 0 263 -88t170 -239l-87 -32q-48 128 -137.5 198t-208.5 70q-105 0 -186 -46t-126 -130t-45 -193
q0 -67 12 -128t34 -125h482v-91h-448q29 -73 44.5 -116.5t26.5 -96t11 -107.5q0 -106 -48 -177.5t-93 -101.5t-122 -71v-18z" />
    <glyph glyph-name="currency" unicode="&#xa4;" horiz-adv-x="1599" 
d="M306 272l109 109q-59 68 -89.5 152t-30.5 172t30.5 172t89.5 153l-108 108l58 60l109 -109q69 60 153 90.5t173 30.5t172.5 -30.5t151.5 -90.5l109 109l60 -59l-110 -108q60 -69 91 -153t31 -173q0 -88 -31 -172t-91 -153l110 -108l-59 -60l-110 110q-68 -60 -152 -90.5
t-173 -30.5t-172.5 30.5t-152.5 90.5l-109 -110zM639.5 315.5q77.5 -31.5 159.5 -31.5q83 0 160.5 31.5t137.5 92.5q61 60 92.5 137.5t31.5 160.5t-31.5 159.5t-92.5 136.5q-60 61 -137.5 92.5t-159.5 31.5q-83 0 -160.5 -31.5t-137.5 -92.5q-61 -61 -92.5 -138.5
t-31.5 -159.5q0 -83 31.5 -159.5t91.5 -136.5q61 -61 138.5 -92.5z" />
    <glyph glyph-name="yen" unicode="&#xa5;" horiz-adv-x="1643" 
d="M765 254h-420v88h420v245h-420v88h371l-551 895h132l523 -866l526 866h132l-552 -895h370v-88h-419v-245h419v-88h-419v-254h-112v254z" />
    <glyph glyph-name="brokenbar" unicode="&#xa6;" horiz-adv-x="726" 
d="M404 1070v-911h-83v873h1v38h82z" />
    <glyph glyph-name="section" unicode="&#xa7;" horiz-adv-x="1192" 
d="M316 58q-125 73 -187 228l97 31q60 -129 155.5 -186t256.5 -57q143 0 233 52t90 164q0 65 -46 108t-114.5 69t-187.5 60q-143 41 -230.5 76.5t-149 101.5t-61.5 170q0 129 98 221q-98 72 -98 185q0 90 54 159t146 107t203 38q279 0 408 -189l-84 -50q-51 79 -130.5 117
t-197.5 38q-90 0 -160 -29.5t-109 -80t-39 -111.5q0 -63 45 -105t113 -67.5t185 -58.5q143 -40 232 -76t151.5 -103.5t62.5 -173.5q0 -131 -95 -219q95 -73 95 -187q0 -106 -58.5 -174.5t-153.5 -99.5t-209 -31q-190 0 -315 73zM937.5 594.5q23.5 44.5 23.5 99.5
q0 79 -51 131t-125 82.5t-200 68.5q-83 25 -134 42t-95 40q-47 -34 -70 -81t-23 -100q0 -77 50.5 -128t124.5 -81.5t197 -66.5q78 -23 133 -41.5t99 -41.5q47 32 70.5 76.5z" />
    <glyph glyph-name="dieresis" unicode="&#xa8;" horiz-adv-x="932" 
d="M203 1434q-27 27 -27 67q0 38 27.5 65t66.5 27q37 0 64.5 -27t27.5 -65q0 -39 -27 -66.5t-65 -27.5q-40 0 -67 27zM597 1434q-27 27 -27 67q0 38 27 65t66 27q37 0 64.5 -27t27.5 -65q0 -39 -27 -66.5t-65 -27.5q-39 0 -66 27z" />
    <glyph glyph-name="copyright" unicode="&#xa9;" horiz-adv-x="1939" 
d="M567.5 90q-184.5 108 -292.5 292.5t-108 402.5t108 402.5t292.5 292.5t401.5 108q218 0 402.5 -108t292.5 -292.5t108 -402.5t-108 -402.5t-292.5 -292.5t-402.5 -108q-217 0 -401.5 108zM1335 151.5q168 98.5 266.5 267t98.5 366.5t-98.5 366.5t-266.5 267t-366 98.5
q-199 0 -366.5 -98.5t-266 -266.5t-98.5 -367t98.5 -367t266 -266.5t366.5 -98.5q198 0 366 98.5zM752 318.5q-103 69.5 -158.5 191t-55.5 273.5q0 142 51.5 265t154 198t247.5 75q138 0 244.5 -72t163.5 -206l-85 -34q-44 109 -129 169.5t-194 60.5q-117 0 -199 -63
t-122.5 -167t-40.5 -226q0 -123 41 -226t123 -164.5t200 -61.5q112 0 194.5 60t118.5 168l82 -32q-46 -132 -150 -205t-245 -73q-138 0 -241 69.5z" />
    <glyph glyph-name="ordfeminine" unicode="&#xaa;" horiz-adv-x="931" 
d="M670 1503.5q75 -81.5 75 -230.5v-480h-65v165q-110 -176 -303 -176q-76 0 -136 28t-94 80t-34 121q0 115 86.5 173t245.5 58h232l-2 52q-5 112 -63.5 169t-170.5 57q-79 0 -138.5 -32t-107.5 -95l-51 49q66 76 137.5 109.5t169.5 33.5q144 0 219 -81.5zM671 1088
q4 44 6 90h-226q-130 0 -196.5 -42t-66.5 -125q0 -48 25.5 -84.5t71 -57t103.5 -20.5q93 0 164.5 50t115.5 144z" />
    <glyph glyph-name="guillemotleft" unicode="&#xab;" horiz-adv-x="1095" 
d="M103 568l428 373v-98l-314 -275l314 -276v-97zM499 568l428 373v-98l-314 -275l314 -276v-97z" />
    <glyph glyph-name="logicalnot" unicode="&#xac;" horiz-adv-x="1260" 
d="M951 790h-886v95h987v-562h-101v467z" />
    <glyph glyph-name="uni00AD" unicode="&#xad;" horiz-adv-x="1143" 
d="M200 742h743v-83h-743v83z" />
    <glyph glyph-name="registered" unicode="&#xae;" horiz-adv-x="1939" 
d="M567.5 90q-184.5 108 -292.5 292.5t-108 402.5t108 402.5t292.5 292.5t401.5 108q218 0 402.5 -108t292.5 -292.5t108 -402.5t-108 -402.5t-292.5 -292.5t-402.5 -108q-217 0 -401.5 108zM1335 151.5q168 98.5 266.5 267t98.5 366.5t-98.5 366.5t-266.5 267t-366 98.5
q-199 0 -366.5 -98.5t-266 -266.5t-98.5 -367t98.5 -367t266 -266.5t366.5 -98.5q198 0 366 98.5zM725 1278h263q99 0 172 -33t112.5 -94.5t39.5 -144.5q0 -98 -54.5 -164t-154.5 -88l270 -462h-85l-261 453q-30 -3 -63 -3h-163v-450h-76v986zM993 806q119 1 181.5 52
t62.5 147q0 98 -65 150.5t-183 52.5h-188v-402h192z" />
    <glyph glyph-name="macron" unicode="&#xaf;" horiz-adv-x="1007" 
d="M201 1451h605v-69h-605v69z" />
    <glyph glyph-name="degree" unicode="&#xb0;" horiz-adv-x="1116" 
d="M400 992.5q-73 42.5 -116 115.5t-43 159t43 159.5t116 116t159 42.5t158.5 -42.5t115 -115.5t42.5 -160q0 -86 -42.5 -159t-115 -115.5t-158.5 -42.5t-159 42.5zM680.5 1057.5q55.5 32.5 87.5 88t32 121.5t-32 122t-87.5 88.5t-121.5 32.5t-121.5 -32.5t-88 -88.5
t-32.5 -122t32.5 -121.5t88 -88t121.5 -32.5t121.5 32.5z" />
    <glyph glyph-name="plusminus" unicode="&#xb1;" horiz-adv-x="1260" 
d="M589 745h-536v83h536v533h83v-533h535v-83h-535v-536h-83v536zM53 0h1138v-83h-1138v83z" />
    <glyph glyph-name="acute" unicode="&#xb4;" horiz-adv-x="548" 
d="M339 1570h115l-270 -316h-84z" />
    <glyph glyph-name="uni00B5" unicode="&#xb5;" horiz-adv-x="1435" 
d="M321 1110h105v-681q0 -167 76 -256.5t223 -89.5q99 0 173.5 42t115 122.5t40.5 190.5v672h104v-1110h-104v208q-47 -106 -141 -164.5t-214 -58.5q-107 0 -180.5 43.5t-110.5 127.5v-551h-87v1505z" />
    <glyph glyph-name="paragraph" unicode="&#xb6;" horiz-adv-x="1397" 
d="M672 692q-132 0 -247 53t-185 152.5t-70 233.5t70 233.5t185 152.5t247 53h79v-1843h-79v965zM997 1570h78v-1843h-78v1843z" />
    <glyph glyph-name="periodcentered" unicode="&#xb7;" horiz-adv-x="792" 
d="M324 688.5q-33 19.5 -52 52.5t-19 71q0 61 41 102t102 41q39 0 72 -19t52 -51.5t19 -72.5q0 -38 -19 -71t-52 -52.5t-72 -19.5t-72 19.5z" />
    <glyph glyph-name="cedilla" unicode="&#xb8;" horiz-adv-x="611" 
d="M179.5 -452.5q-44.5 15.5 -82.5 46.5l32 53q29 -28 68 -41.5t76 -13.5q57 0 92 29t35 75q0 36 -22 62t-62 38q-40 13 -99 13l108 191h61l-87 -148q26 -3 54 -12q51 -18 79.5 -55.5t28.5 -88.5q0 -46 -25 -83.5t-68.5 -59t-98.5 -21.5q-45 0 -89.5 15.5z" />
    <glyph glyph-name="ordmasculine" unicode="&#xba;" horiz-adv-x="996" 
d="M306.5 850q-85.5 52 -134 142.5t-48.5 199.5t48.5 199t134.5 142t192 52t191.5 -52t134 -142t48.5 -199t-48.5 -199.5t-133.5 -142.5t-192 -52t-192.5 52zM654 908.5q67 42.5 104 117t37 166.5t-37 166t-104 116.5t-155 42.5t-156 -42.5t-105 -116.5t-37 -166t37 -166.5
t105 -117t156 -42.5t155 42.5z" />
    <glyph glyph-name="guillemotright" unicode="&#xbb;" horiz-adv-x="1095" 
d="M168 292l314 276l-314 275v98l428 -373l-428 -373v97zM564 292l314 276l-314 275v98l428 -373l-428 -373v97z" />
    <glyph glyph-name="questiondown" unicode="&#xbf;" horiz-adv-x="968" 
d="M673.5 1105.5q27.5 -27.5 27.5 -67.5q0 -38 -27.5 -64.5t-67.5 -26.5q-37 0 -64 27t-27 64q0 40 26.5 67.5t64.5 27.5q40 0 67.5 -27.5zM653 514q0 -82 -28 -137t-68 -89t-109 -78q-67 -42 -106 -75t-66 -85.5t-27 -129.5q0 -148 93.5 -227t262.5 -79q110 0 192 41
l32 -89q-103 -41 -223 -41q-138 0 -239.5 46t-156.5 135t-55 215q0 95 31 158.5t75 101t117 83.5q63 40 99 69t60 73.5t24 108.5v168h92v-169z" />
    <glyph glyph-name="Agrave" unicode="&#xc0;" horiz-adv-x="1440" 
d="M1087 390h-731l-133 -390h-121l551 1570h134l551 -1570h-118zM1054 488l-329 964h-5l-330 -964h664zM415 2030h114l235 -316h-87z" />
    <glyph glyph-name="Aacute" unicode="&#xc1;" horiz-adv-x="1440" 
d="M1087 390h-731l-133 -390h-121l551 1570h134l551 -1570h-118zM1054 488l-329 964h-5l-330 -964h664zM918 2030h115l-270 -316h-84z" />
    <glyph glyph-name="Acircumflex" unicode="&#xc2;" horiz-adv-x="1440" 
d="M1087 390h-731l-133 -390h-121l551 1570h134l551 -1570h-118zM1054 488l-329 964h-5l-330 -964h664zM720 2044l330 -342h-95l-235 236l-236 -236h-93z" />
    <glyph glyph-name="Atilde" unicode="&#xc3;" horiz-adv-x="1440" 
d="M1087 390h-731l-133 -390h-121l551 1570h134l551 -1570h-118zM1054 488l-329 964h-5l-330 -964h664zM802 1774.5q-34 16.5 -56 40t-50 62.5q-23 32 -39 50.5t-38 30.5t-52 12q-60 1 -94 -49.5t-34 -138.5h-67q0 122 53 191t144 67q44 0 76 -15.5t53 -38.5t48 -60
q35 -48 64 -72t73 -24q52 0 85 54.5t33 145.5h70q0 -81 -23.5 -143t-66 -95.5t-98.5 -33.5q-47 0 -81 16.5z" />
    <glyph glyph-name="Adieresis" unicode="&#xc4;" horiz-adv-x="1440" 
d="M1087 390h-731l-133 -390h-121l551 1570h134l551 -1570h-118zM1054 488l-329 964h-5l-330 -964h664zM458 1773.5q-27 27.5 -27 66.5q0 38 27 64.5t67 26.5q38 0 65 -27t27 -64q0 -39 -27 -66.5t-65 -27.5q-40 0 -67 27.5zM852 1773.5q-27 27.5 -27 66.5q0 38 27 64.5
t66 26.5q38 0 65 -27t27 -64q0 -39 -27 -66.5t-65 -27.5q-39 0 -66 27.5z" />
    <glyph glyph-name="Aring" unicode="&#xc5;" horiz-adv-x="1440" 
d="M1087 390h-731l-133 -390h-121l551 1570h134l551 -1570h-118zM1054 488l-329 964h-5l-330 -964h664zM617.5 1712.5q-46.5 27.5 -73 74t-26.5 101.5q0 56 27 102t73.5 73t101.5 27q54 0 100.5 -27.5t74.5 -74t28 -100.5q0 -56 -27 -102.5t-73.5 -73.5t-102.5 -27
t-102.5 27.5zM790 1767.5q32 18.5 50.5 51t18.5 70.5t-18 69.5t-50 50t-71 18.5q-38 0 -70 -18.5t-50.5 -50.5t-18.5 -69q0 -39 18.5 -71t50 -50.5t70.5 -18.5q38 0 70 18.5z" />
    <glyph glyph-name="AE" unicode="&#xc6;" horiz-adv-x="2115" 
d="M1121 1472v-636h759v-93h-759v-643h872v-100h-982v391h-650l-138 -391h-121l567 1570h1324v-98h-872zM1011 487v985h-270l-347 -985h617z" />
    <glyph glyph-name="Ccedilla" unicode="&#xc7;" horiz-adv-x="1636" 
d="M1269.5 100.5q-155.5 -109.5 -382.5 -115.5l-78 -133q26 -3 54 -12q51 -18 79.5 -55.5t28.5 -88.5q0 -46 -25 -83.5t-68.5 -59t-98.5 -21.5q-45 0 -89.5 15.5t-82.5 46.5l32 53q29 -28 68 -41.5t76 -13.5q57 0 92 29t35 75q0 36 -22 62t-62 38q-40 13 -99 13l100 177
q-205 8 -353 106.5t-225.5 276t-77.5 419.5q0 250 83 429t241.5 273.5t380.5 94.5q239 0 393 -104.5t233 -313.5l-104 -39q-66 181 -194 270t-328 89q-189 0 -322.5 -82.5t-203.5 -239t-70 -377.5q0 -208 64 -367t194.5 -248.5t323.5 -89.5q391 0 540 369l106 -34
q-83 -208 -238.5 -317.5z" />
    <glyph glyph-name="Egrave" unicode="&#xc8;" horiz-adv-x="1409" 
d="M267 1570h974v-99h-864v-632h765v-98h-765v-642h910v-99h-1020v1570zM461 2030h114l235 -316h-87z" />
    <glyph glyph-name="Eacute" unicode="&#xc9;" horiz-adv-x="1409" 
d="M267 1570h974v-99h-864v-632h765v-98h-765v-642h910v-99h-1020v1570zM964 2030h115l-270 -316h-84z" />
    <glyph glyph-name="Ecircumflex" unicode="&#xca;" horiz-adv-x="1409" 
d="M267 1570h974v-99h-864v-632h765v-98h-765v-642h910v-99h-1020v1570zM766 2044l330 -342h-95l-235 236l-236 -236h-93z" />
    <glyph glyph-name="Edieresis" unicode="&#xcb;" horiz-adv-x="1409" 
d="M267 1570h974v-99h-864v-632h765v-98h-765v-642h910v-99h-1020v1570zM504 1773.5q-27 27.5 -27 66.5q0 38 27 64.5t67 26.5q38 0 65 -27t27 -64q0 -39 -27 -66.5t-65 -27.5q-40 0 -67 27.5zM898 1773.5q-27 27.5 -27 66.5q0 38 27 64.5t66 26.5q38 0 65 -27t27 -64
q0 -39 -27 -66.5t-65 -27.5q-39 0 -66 27.5z" />
    <glyph glyph-name="Igrave" unicode="&#xcc;" horiz-adv-x="644" 
d="M267 1570h110v-1570h-110v1570zM15 2030h114l235 -316h-87z" />
    <glyph glyph-name="Iacute" unicode="&#xcd;" horiz-adv-x="644" 
d="M267 1570h110v-1570h-110v1570zM518 2030h115l-270 -316h-84z" />
    <glyph glyph-name="Icircumflex" unicode="&#xce;" horiz-adv-x="644" 
d="M267 1570h110v-1570h-110v1570zM320 2044l330 -342h-95l-235 236l-236 -236h-93z" />
    <glyph glyph-name="Idieresis" unicode="&#xcf;" horiz-adv-x="644" 
d="M267 1570h110v-1570h-110v1570zM58 1773.5q-27 27.5 -27 66.5q0 38 27 64.5t67 26.5q38 0 65 -27t27 -64q0 -39 -27 -66.5t-65 -27.5q-40 0 -67 27.5zM452 1773.5q-27 27.5 -27 66.5q0 38 27 64.5t66 26.5q38 0 65 -27t27 -64q0 -39 -27 -66.5t-65 -27.5q-39 0 -66 27.5z
" />
    <glyph glyph-name="Eth" unicode="&#xd0;" horiz-adv-x="1641" 
d="M1416 1134q60 -156 60 -360q0 -195 -57.5 -343.5t-169.5 -247.5q-111 -98 -263.5 -140.5t-391.5 -42.5h-327v735h-169v75h169v760h329q166 0 285 -20t204.5 -58.5t155.5 -99.5q115 -102 175 -258zM1317.5 481q48.5 129 48.5 296q0 353 -196 534q-97 87 -229.5 123.5
t-345.5 36.5h-218v-661h427v-75h-427v-636h208q228 0 362.5 40t227.5 126q94 87 142.5 216z" />
    <glyph glyph-name="Ntilde" unicode="&#xd1;" horiz-adv-x="1628" 
d="M267 1570h166l808 -1432h12v1432h108v-1570h-167l-807 1434h-10v-1434h-110v1570zM896 1774.5q-34 16.5 -56 40t-50 62.5q-23 32 -39 50.5t-38 30.5t-52 12q-60 1 -94 -49.5t-34 -138.5h-67q0 122 53 191t144 67q44 0 76 -15.5t53 -38.5t48 -60q35 -48 64 -72t73 -24
q52 0 85 54.5t33 145.5h70q0 -81 -23.5 -143t-66 -95.5t-98.5 -33.5q-47 0 -81 16.5z" />
    <glyph glyph-name="Ograve" unicode="&#xd2;" horiz-adv-x="1744" 
d="M487.5 89q-158.5 104 -239.5 285t-81 411t81 411t239.5 285t382.5 104q226 0 385.5 -104t240.5 -285t81 -411t-81 -411t-240.5 -285t-385.5 -104q-224 0 -382.5 104zM1197.5 174q134.5 91 202.5 250t68 361t-68 361t-202.5 250t-327.5 91q-191 0 -325 -91t-201.5 -250
t-67.5 -361t67.5 -361t201.5 -250t325 -91q193 0 327.5 91zM566 2030h114l235 -316h-87z" />
    <glyph glyph-name="Oacute" unicode="&#xd3;" horiz-adv-x="1744" 
d="M487.5 89q-158.5 104 -239.5 285t-81 411t81 411t239.5 285t382.5 104q226 0 385.5 -104t240.5 -285t81 -411t-81 -411t-240.5 -285t-385.5 -104q-224 0 -382.5 104zM1197.5 174q134.5 91 202.5 250t68 361t-68 361t-202.5 250t-327.5 91q-191 0 -325 -91t-201.5 -250
t-67.5 -361t67.5 -361t201.5 -250t325 -91q193 0 327.5 91zM1069 2030h115l-270 -316h-84z" />
    <glyph glyph-name="Ocircumflex" unicode="&#xd4;" horiz-adv-x="1744" 
d="M487.5 89q-158.5 104 -239.5 285t-81 411t81 411t239.5 285t382.5 104q226 0 385.5 -104t240.5 -285t81 -411t-81 -411t-240.5 -285t-385.5 -104q-224 0 -382.5 104zM1197.5 174q134.5 91 202.5 250t68 361t-68 361t-202.5 250t-327.5 91q-191 0 -325 -91t-201.5 -250
t-67.5 -361t67.5 -361t201.5 -250t325 -91q193 0 327.5 91zM871 2044l330 -342h-95l-235 236l-236 -236h-93z" />
    <glyph glyph-name="Otilde" unicode="&#xd5;" horiz-adv-x="1744" 
d="M487.5 89q-158.5 104 -239.5 285t-81 411t81 411t239.5 285t382.5 104q226 0 385.5 -104t240.5 -285t81 -411t-81 -411t-240.5 -285t-385.5 -104q-224 0 -382.5 104zM1197.5 174q134.5 91 202.5 250t68 361t-68 361t-202.5 250t-327.5 91q-191 0 -325 -91t-201.5 -250
t-67.5 -361t67.5 -361t201.5 -250t325 -91q193 0 327.5 91zM953 1774.5q-34 16.5 -56 40t-50 62.5q-23 32 -39 50.5t-38 30.5t-52 12q-60 1 -94 -49.5t-34 -138.5h-67q0 122 53 191t144 67q44 0 76 -15.5t53 -38.5t48 -60q35 -48 64 -72t73 -24q52 0 85 54.5t33 145.5h70
q0 -81 -23.5 -143t-66 -95.5t-98.5 -33.5q-47 0 -81 16.5z" />
    <glyph glyph-name="Odieresis" unicode="&#xd6;" horiz-adv-x="1744" 
d="M487.5 89q-158.5 104 -239.5 285t-81 411t81 411t239.5 285t382.5 104q226 0 385.5 -104t240.5 -285t81 -411t-81 -411t-240.5 -285t-385.5 -104q-224 0 -382.5 104zM1197.5 174q134.5 91 202.5 250t68 361t-68 361t-202.5 250t-327.5 91q-191 0 -325 -91t-201.5 -250
t-67.5 -361t67.5 -361t201.5 -250t325 -91q193 0 327.5 91zM609 1773.5q-27 27.5 -27 66.5q0 38 27 64.5t67 26.5q38 0 65 -27t27 -64q0 -39 -27 -66.5t-65 -27.5q-40 0 -67 27.5zM1003 1773.5q-27 27.5 -27 66.5q0 38 27 64.5t66 26.5q38 0 65 -27t27 -64q0 -39 -27 -66.5
t-65 -27.5q-39 0 -66 27.5z" />
    <glyph glyph-name="multiply" unicode="&#xd7;" horiz-adv-x="1260" 
d="M631 600l-370 -371l-59 59l370 371l-371 371l59 59l371 -372l371 371l58 -59l-370 -370l371 -372l-59 -58z" />
    <glyph glyph-name="Oslash" unicode="&#xd8;" horiz-adv-x="1744" 
d="M1513 1154.5q64 -166.5 64 -369.5q0 -230 -81 -411t-240.5 -285t-385.5 -104q-222 0 -385 105l-81 -129l-73 45l86 136q-122 107 -186 273.5t-64 369.5q0 230 81 411t239.5 285t382.5 104q226 0 388 -106l81 128l72 -45l-84 -134q122 -107 186 -273.5zM326 469
q50 -143 147 -237l731 1160q-139 95 -334 95q-191 0 -325 -91t-201.5 -250t-67.5 -361q0 -173 50 -316zM1197.5 174q134.5 91 202.5 250t68 361q0 174 -50 316.5t-148 236.5l-730 -1160q137 -95 330 -95t327.5 91z" />
    <glyph glyph-name="Ugrave" unicode="&#xd9;" horiz-adv-x="1577" 
d="M544 26q-107 41 -179 117q-64 70 -95.5 167t-31.5 234v1026h109v-1023q0 -107 23 -187t75 -139q56 -66 142.5 -102t200.5 -36q115 0 201.5 35.5t143.5 102.5q50 58 73.5 136t23.5 190v1023h109v-1026q0 -136 -31 -232.5t-96 -168.5q-70 -76 -177.5 -117t-246.5 -41
q-137 0 -244 41zM484 2030h114l235 -316h-87z" />
    <glyph glyph-name="Uacute" unicode="&#xda;" horiz-adv-x="1577" 
d="M544 26q-107 41 -179 117q-64 70 -95.5 167t-31.5 234v1026h109v-1023q0 -107 23 -187t75 -139q56 -66 142.5 -102t200.5 -36q115 0 201.5 35.5t143.5 102.5q50 58 73.5 136t23.5 190v1023h109v-1026q0 -136 -31 -232.5t-96 -168.5q-70 -76 -177.5 -117t-246.5 -41
q-137 0 -244 41zM987 2030h115l-270 -316h-84z" />
    <glyph glyph-name="Ucircumflex" unicode="&#xdb;" horiz-adv-x="1577" 
d="M544 26q-107 41 -179 117q-64 70 -95.5 167t-31.5 234v1026h109v-1023q0 -107 23 -187t75 -139q56 -66 142.5 -102t200.5 -36q115 0 201.5 35.5t143.5 102.5q50 58 73.5 136t23.5 190v1023h109v-1026q0 -136 -31 -232.5t-96 -168.5q-70 -76 -177.5 -117t-246.5 -41
q-137 0 -244 41zM789 2044l330 -342h-95l-235 236l-236 -236h-93z" />
    <glyph glyph-name="Udieresis" unicode="&#xdc;" horiz-adv-x="1577" 
d="M544 26q-107 41 -179 117q-64 70 -95.5 167t-31.5 234v1026h109v-1023q0 -107 23 -187t75 -139q56 -66 142.5 -102t200.5 -36q115 0 201.5 35.5t143.5 102.5q50 58 73.5 136t23.5 190v1023h109v-1026q0 -136 -31 -232.5t-96 -168.5q-70 -76 -177.5 -117t-246.5 -41
q-137 0 -244 41zM527 1773.5q-27 27.5 -27 66.5q0 38 27 64.5t67 26.5q38 0 65 -27t27 -64q0 -39 -27 -66.5t-65 -27.5q-40 0 -67 27.5zM921 1773.5q-27 27.5 -27 66.5q0 38 27 64.5t66 26.5q38 0 65 -27t27 -64q0 -39 -27 -66.5t-65 -27.5q-39 0 -66 27.5z" />
    <glyph glyph-name="Yacute" unicode="&#xdd;" horiz-adv-x="1488" 
d="M688 586l-600 984h127l528 -868h1l529 868h128l-603 -984v-586h-110v586zM941 2030h115l-270 -316h-84z" />
    <glyph glyph-name="Thorn" unicode="&#xde;" horiz-adv-x="1328" 
d="M267 1570h110v-229h332q154 0 264 -52t167.5 -150t57.5 -234q0 -139 -58 -236.5t-167.5 -148t-263.5 -50.5h-332v-470h-110v1570zM702 573q187 0 287 86t100 247q0 167 -106 249.5t-281 82.5h-325v-665h325z" />
    <glyph glyph-name="germandbls" unicode="&#xdf;" horiz-adv-x="1353" 
d="M668 2.5q-69 17.5 -146 50.5l38 93q67 -31 126.5 -47t119.5 -16q84 0 146 32t95 90.5t33 136.5q0 61 -25 109t-60.5 82.5t-94.5 80.5q-54 42 -86.5 72.5t-54.5 70.5t-22 90q0 44 16 76t39 54t63 52q44 33 70 58.5t44.5 65t18.5 94.5q0 80 -43 135.5t-116 83t-162 27.5
q-185 0 -266 -114t-81 -296v-1083h-105v1083q0 153 52 266t153.5 174.5t246.5 61.5q121 0 217.5 -40.5t152 -117t55.5 -179.5q0 -73 -23.5 -124.5t-56 -83t-82.5 -67.5q-49 -36 -72 -61.5t-23 -61.5q0 -29 16.5 -55t42 -48t71.5 -57q68 -51 112.5 -93.5t76.5 -106t32 -146.5
q0 -108 -47.5 -189t-133 -125.5t-197.5 -44.5q-71 0 -140 17.5z" />
    <glyph glyph-name="agrave" unicode="&#xe0;" horiz-adv-x="1197" 
d="M992 862.5q19 -76.5 19 -198.5v-664h-105v223h-9q-22 -51 -59.5 -91.5t-80.5 -67.5q-115 -79 -264 -79q-116 0 -202 40.5t-132 115t-46 174.5q0 190 143 269q54 30 126.5 41.5t189.5 11.5h334v22q0 113 -18.5 180t-59.5 109t-105.5 64t-146.5 22q-110 0 -196 -43
t-164 -137l-67 71q91 104 194 152t233 48q119 0 207 -33t142 -96q48 -57 67 -133.5zM866 287q27 61 33.5 116.5t6.5 127.5v15h-328q-114 0 -174.5 -11t-100.5 -37q-40 -27 -62.5 -72.5t-22.5 -110.5q0 -112 77 -177.5t214 -65.5q163 0 274 102q56 52 83 113zM289 1570h114
l235 -316h-87z" />
    <glyph glyph-name="aacute" unicode="&#xe1;" horiz-adv-x="1197" 
d="M992 862.5q19 -76.5 19 -198.5v-664h-105v223h-9q-22 -51 -59.5 -91.5t-80.5 -67.5q-115 -79 -264 -79q-116 0 -202 40.5t-132 115t-46 174.5q0 190 143 269q54 30 126.5 41.5t189.5 11.5h334v22q0 113 -18.5 180t-59.5 109t-105.5 64t-146.5 22q-110 0 -196 -43
t-164 -137l-67 71q91 104 194 152t233 48q119 0 207 -33t142 -96q48 -57 67 -133.5zM866 287q27 61 33.5 116.5t6.5 127.5v15h-328q-114 0 -174.5 -11t-100.5 -37q-40 -27 -62.5 -72.5t-22.5 -110.5q0 -112 77 -177.5t214 -65.5q163 0 274 102q56 52 83 113zM792 1570h115
l-270 -316h-84z" />
    <glyph glyph-name="acircumflex" unicode="&#xe2;" horiz-adv-x="1197" 
d="M992 862.5q19 -76.5 19 -198.5v-664h-105v223h-9q-22 -51 -59.5 -91.5t-80.5 -67.5q-115 -79 -264 -79q-116 0 -202 40.5t-132 115t-46 174.5q0 190 143 269q54 30 126.5 41.5t189.5 11.5h334v22q0 113 -18.5 180t-59.5 109t-105.5 64t-146.5 22q-110 0 -196 -43
t-164 -137l-67 71q91 104 194 152t233 48q119 0 207 -33t142 -96q48 -57 67 -133.5zM866 287q27 61 33.5 116.5t6.5 127.5v15h-328q-114 0 -174.5 -11t-100.5 -37q-40 -27 -62.5 -72.5t-22.5 -110.5q0 -112 77 -177.5t214 -65.5q163 0 274 102q56 52 83 113zM594 1584
l330 -342h-95l-235 236l-236 -236h-93z" />
    <glyph glyph-name="atilde" unicode="&#xe3;" horiz-adv-x="1197" 
d="M992 862.5q19 -76.5 19 -198.5v-664h-105v223h-9q-22 -51 -59.5 -91.5t-80.5 -67.5q-115 -79 -264 -79q-116 0 -202 40.5t-132 115t-46 174.5q0 190 143 269q54 30 126.5 41.5t189.5 11.5h334v22q0 113 -18.5 180t-59.5 109t-105.5 64t-146.5 22q-110 0 -196 -43
t-164 -137l-67 71q91 104 194 152t233 48q119 0 207 -33t142 -96q48 -57 67 -133.5zM866 287q27 61 33.5 116.5t6.5 127.5v15h-328q-114 0 -174.5 -11t-100.5 -37q-40 -27 -62.5 -72.5t-22.5 -110.5q0 -112 77 -177.5t214 -65.5q163 0 274 102q56 52 83 113zM676 1314.5
q-34 16.5 -56 40t-50 62.5q-23 32 -39 50.5t-38 30.5t-52 12q-60 1 -94 -49.5t-34 -138.5h-67q0 122 53 191t144 67q44 0 76 -15.5t53 -38.5t48 -60q35 -48 64 -72t73 -24q52 0 85 54.5t33 145.5h70q0 -81 -23.5 -143t-66 -95.5t-98.5 -33.5q-47 0 -81 16.5z" />
    <glyph glyph-name="adieresis" unicode="&#xe4;" horiz-adv-x="1197" 
d="M992 862.5q19 -76.5 19 -198.5v-664h-105v223h-9q-22 -51 -59.5 -91.5t-80.5 -67.5q-115 -79 -264 -79q-116 0 -202 40.5t-132 115t-46 174.5q0 190 143 269q54 30 126.5 41.5t189.5 11.5h334v22q0 113 -18.5 180t-59.5 109t-105.5 64t-146.5 22q-110 0 -196 -43
t-164 -137l-67 71q91 104 194 152t233 48q119 0 207 -33t142 -96q48 -57 67 -133.5zM866 287q27 61 33.5 116.5t6.5 127.5v15h-328q-114 0 -174.5 -11t-100.5 -37q-40 -27 -62.5 -72.5t-22.5 -110.5q0 -112 77 -177.5t214 -65.5q163 0 274 102q56 52 83 113zM332 1434
q-27 27 -27 67q0 38 27.5 65t66.5 27q37 0 64.5 -27t27.5 -65q0 -39 -27 -66.5t-65 -27.5q-40 0 -67 27zM726 1434q-27 27 -27 67q0 38 27 65t66 27q37 0 64.5 -27t27.5 -65q0 -39 -27 -66.5t-65 -27.5q-39 0 -66 27z" />
    <glyph glyph-name="aring" unicode="&#xe5;" horiz-adv-x="1197" 
d="M992 862.5q19 -76.5 19 -198.5v-664h-105v223h-9q-22 -51 -59.5 -91.5t-80.5 -67.5q-115 -79 -264 -79q-116 0 -202 40.5t-132 115t-46 174.5q0 190 143 269q54 30 126.5 41.5t189.5 11.5h334v22q0 113 -18.5 180t-59.5 109t-105.5 64t-146.5 22q-110 0 -196 -43
t-164 -137l-67 71q91 104 194 152t233 48q119 0 207 -33t142 -96q48 -57 67 -133.5zM866 287q27 61 33.5 116.5t6.5 127.5v15h-328q-114 0 -174.5 -11t-100.5 -37q-40 -27 -62.5 -72.5t-22.5 -110.5q0 -112 77 -177.5t214 -65.5q163 0 274 102q56 52 83 113zM491.5 1252.5
q-46.5 27.5 -73 74t-26.5 101.5q0 56 27 102t73.5 73t101.5 27q54 0 100.5 -27.5t74.5 -74t28 -100.5q0 -56 -27 -102.5t-73.5 -73.5t-102.5 -27t-102.5 27.5zM664 1307.5q32 18.5 50.5 51t18.5 70.5t-18 69.5t-50 50t-71 18.5q-38 0 -70 -18.5t-50.5 -50.5t-18.5 -69
q0 -39 18.5 -71t50 -50.5t70.5 -18.5q38 0 70 18.5z" />
    <glyph glyph-name="ae" unicode="&#xe6;" horiz-adv-x="1981" 
d="M290 24.5q-87 39.5 -134.5 114t-47.5 176.5q0 161 120.5 231.5t359.5 70.5h319v58q0 178 -84.5 267.5t-245.5 89.5q-112 0 -196.5 -44.5t-157.5 -140.5l-79 63q89 110 194 162.5t239 52.5q166 0 265 -80t126 -236l7 2q50 147 159.5 230.5t262.5 83.5q163 0 267.5 -76
t151.5 -190t47 -232q0 -26 -2 -57t-5 -44h-838q4 -141 52 -240.5t135 -151.5t207 -52q109 0 187 33t158 116l74 -67q-95 -96 -191 -137.5t-225 -41.5q-164 0 -279 79.5t-168 223.5h-7q-80 -156 -200.5 -229.5t-267.5 -73.5q-116 0 -203 39.5zM1756 617q1 12 1 37
q0 91 -37.5 178t-119.5 144.5t-208 57.5q-107 0 -188 -52t-128.5 -146t-57.5 -219h738zM759.5 159.5q107.5 83.5 157.5 240.5q-10 56 -10 126h-313q-176 0 -277.5 -45t-101.5 -169q0 -72 34.5 -125t99.5 -82t154 -29q149 0 256.5 83.5z" />
    <glyph glyph-name="ccedilla" unicode="&#xe7;" horiz-adv-x="1137" 
d="M813 145q86 63 123 175l97 -37q-48 -136 -153.5 -214t-248.5 -84l-78 -133q26 -3 54 -12q51 -18 79.5 -55.5t28.5 -88.5q0 -46 -25 -83.5t-68.5 -59t-98.5 -21.5q-45 0 -89.5 15.5t-82.5 46.5l32 53q29 -28 68 -41.5t76 -13.5q57 0 92 29t35 75q0 36 -22 62t-62 38
q-40 13 -99 13l100 177q-137 10 -238 86.5t-154.5 201.5t-53.5 279q0 151 55 281.5t164 210.5t265 80q149 0 262 -76.5t173 -220.5l-100 -40q-45 114 -133 177.5t-202 63.5q-123 0 -208 -65.5t-127.5 -174t-42.5 -236.5q0 -129 42.5 -236t128 -171t208.5 -64q117 0 203 63z
" />
    <glyph glyph-name="egrave" unicode="&#xe8;" horiz-adv-x="1199" 
d="M1080 573q-2 -28 -6 -42h-837q2 -140 50 -242.5t135.5 -157.5t207.5 -55q110 0 188 34t157 121l75 -67q-95 -97 -191.5 -138t-229.5 -41q-156 0 -269.5 72.5t-173.5 200.5t-60 292q0 162 58.5 293t168 206.5t258.5 75.5q166 0 271.5 -76t152.5 -189.5t47 -231.5
q0 -27 -2 -55zM423 980.5q-82 -53.5 -129.5 -147t-55.5 -211.5h737q0 8 0.5 19.5t-0.5 26.5q-4 98 -43.5 181t-119.5 134t-200 51q-107 0 -189 -53.5zM295 1570h114l235 -316h-87z" />
    <glyph glyph-name="eacute" unicode="&#xe9;" horiz-adv-x="1199" 
d="M1080 573q-2 -28 -6 -42h-837q2 -140 50 -242.5t135.5 -157.5t207.5 -55q110 0 188 34t157 121l75 -67q-95 -97 -191.5 -138t-229.5 -41q-156 0 -269.5 72.5t-173.5 200.5t-60 292q0 162 58.5 293t168 206.5t258.5 75.5q166 0 271.5 -76t152.5 -189.5t47 -231.5
q0 -27 -2 -55zM423 980.5q-82 -53.5 -129.5 -147t-55.5 -211.5h737q0 8 0.5 19.5t-0.5 26.5q-4 98 -43.5 181t-119.5 134t-200 51q-107 0 -189 -53.5zM798 1570h115l-270 -316h-84z" />
    <glyph glyph-name="ecircumflex" unicode="&#xea;" horiz-adv-x="1199" 
d="M1080 573q-2 -28 -6 -42h-837q2 -140 50 -242.5t135.5 -157.5t207.5 -55q110 0 188 34t157 121l75 -67q-95 -97 -191.5 -138t-229.5 -41q-156 0 -269.5 72.5t-173.5 200.5t-60 292q0 162 58.5 293t168 206.5t258.5 75.5q166 0 271.5 -76t152.5 -189.5t47 -231.5
q0 -27 -2 -55zM423 980.5q-82 -53.5 -129.5 -147t-55.5 -211.5h737q0 8 0.5 19.5t-0.5 26.5q-4 98 -43.5 181t-119.5 134t-200 51q-107 0 -189 -53.5zM600 1584l330 -342h-95l-235 236l-236 -236h-93z" />
    <glyph glyph-name="edieresis" unicode="&#xeb;" horiz-adv-x="1199" 
d="M1080 573q-2 -28 -6 -42h-837q2 -140 50 -242.5t135.5 -157.5t207.5 -55q110 0 188 34t157 121l75 -67q-95 -97 -191.5 -138t-229.5 -41q-156 0 -269.5 72.5t-173.5 200.5t-60 292q0 162 58.5 293t168 206.5t258.5 75.5q166 0 271.5 -76t152.5 -189.5t47 -231.5
q0 -27 -2 -55zM423 980.5q-82 -53.5 -129.5 -147t-55.5 -211.5h737q0 8 0.5 19.5t-0.5 26.5q-4 98 -43.5 181t-119.5 134t-200 51q-107 0 -189 -53.5zM338 1434q-27 27 -27 67q0 38 27.5 65t66.5 27q37 0 64.5 -27t27.5 -65q0 -39 -27 -66.5t-65 -27.5q-40 0 -67 27z
M732 1434q-27 27 -27 67q0 38 27 65t66 27q37 0 64.5 -27t27.5 -65q0 -39 -27 -66.5t-65 -27.5q-39 0 -66 27z" />
    <glyph glyph-name="igrave" unicode="&#xec;" horiz-adv-x="531" 
d="M213 1110h106v-1110h-106v1110zM-41 1570h114l235 -316h-87z" />
    <glyph glyph-name="iacute" unicode="&#xed;" horiz-adv-x="531" 
d="M213 1110h106v-1110h-106v1110zM462 1570h115l-270 -316h-84z" />
    <glyph glyph-name="icircumflex" unicode="&#xee;" horiz-adv-x="531" 
d="M213 1110h106v-1110h-106v1110zM264 1584l330 -342h-95l-235 236l-236 -236h-93z" />
    <glyph glyph-name="idieresis" unicode="&#xef;" horiz-adv-x="531" 
d="M213 1110h106v-1110h-106v1110zM2 1434q-27 27 -27 67q0 38 27.5 65t66.5 27q37 0 64.5 -27t27.5 -65q0 -39 -27 -66.5t-65 -27.5q-40 0 -67 27zM396 1434q-27 27 -27 67q0 38 27 65t66 27q37 0 64.5 -27t27.5 -65q0 -39 -27 -66.5t-65 -27.5q-39 0 -66 27z" />
    <glyph glyph-name="eth" unicode="&#xf0;" horiz-adv-x="1249" 
d="M362 54.5q-119 69.5 -188 187t-69 255.5t70 253.5t189.5 182.5t259.5 67q65 0 124.5 -22.5t107.5 -63.5l-232 398l-148 -169h-69l188 214l-130 213h115l83 -138l120 138h69l-158 -178l336 -574q61 -103 86.5 -176.5t25.5 -146.5q0 -139 -69.5 -256t-188.5 -185.5
t-260 -68.5q-143 0 -262 69.5zM830 143q94 55 149.5 148.5t55.5 205.5q0 110 -55.5 203.5t-150 149t-205.5 55.5t-205.5 -55.5t-150.5 -149t-56 -203.5q0 -111 55.5 -205t150.5 -149t206 -55q112 0 206 55z" />
    <glyph glyph-name="ntilde" unicode="&#xf1;" horiz-adv-x="1240" 
d="M213 1110h106v-177h6q42 87 133 139.5t214 52.5q82 0 148 -22t111 -61q61 -54 91 -140t30 -224v-678h-105v641q0 125 -21 200t-69 120q-76 73 -215 73q-72 0 -130.5 -22.5t-99.5 -64.5q-48 -49 -70.5 -123t-22.5 -191v-633h-106v1110zM703 1314.5q-34 16.5 -56 40
t-50 62.5q-23 32 -39 50.5t-38 30.5t-52 12q-60 1 -94 -49.5t-34 -138.5h-67q0 122 53 191t144 67q44 0 76 -15.5t53 -38.5t48 -60q35 -48 64 -72t73 -24q52 0 85 54.5t33 145.5h70q0 -81 -23.5 -143t-66 -95.5t-98.5 -33.5q-47 0 -81 16.5z" />
    <glyph glyph-name="ograve" unicode="&#xf2;" horiz-adv-x="1295" 
d="M374.5 55q-118.5 70 -184.5 200t-66 303q0 172 66 300.5t184.5 197.5t271.5 69t272.5 -69.5t186.5 -198t67 -299.5q0 -173 -67 -302.5t-186.5 -200t-272.5 -70.5t-271.5 70zM866.5 135.5q95.5 59.5 147.5 168.5t52 254q0 143 -52 251t-147 166.5t-221 58.5
q-125 0 -219 -58t-145.5 -166t-51.5 -252q0 -146 51.5 -255t145.5 -168t219 -59t220.5 59.5zM341 1570h114l235 -316h-87z" />
    <glyph glyph-name="oacute" unicode="&#xf3;" horiz-adv-x="1295" 
d="M374.5 55q-118.5 70 -184.5 200t-66 303q0 172 66 300.5t184.5 197.5t271.5 69t272.5 -69.5t186.5 -198t67 -299.5q0 -173 -67 -302.5t-186.5 -200t-272.5 -70.5t-271.5 70zM866.5 135.5q95.5 59.5 147.5 168.5t52 254q0 143 -52 251t-147 166.5t-221 58.5
q-125 0 -219 -58t-145.5 -166t-51.5 -252q0 -146 51.5 -255t145.5 -168t219 -59t220.5 59.5zM844 1570h115l-270 -316h-84z" />
    <glyph glyph-name="ocircumflex" unicode="&#xf4;" horiz-adv-x="1295" 
d="M374.5 55q-118.5 70 -184.5 200t-66 303q0 172 66 300.5t184.5 197.5t271.5 69t272.5 -69.5t186.5 -198t67 -299.5q0 -173 -67 -302.5t-186.5 -200t-272.5 -70.5t-271.5 70zM866.5 135.5q95.5 59.5 147.5 168.5t52 254q0 143 -52 251t-147 166.5t-221 58.5
q-125 0 -219 -58t-145.5 -166t-51.5 -252q0 -146 51.5 -255t145.5 -168t219 -59t220.5 59.5zM646 1584l330 -342h-95l-235 236l-236 -236h-93z" />
    <glyph glyph-name="otilde" unicode="&#xf5;" horiz-adv-x="1295" 
d="M374.5 55q-118.5 70 -184.5 200t-66 303q0 172 66 300.5t184.5 197.5t271.5 69t272.5 -69.5t186.5 -198t67 -299.5q0 -173 -67 -302.5t-186.5 -200t-272.5 -70.5t-271.5 70zM866.5 135.5q95.5 59.5 147.5 168.5t52 254q0 143 -52 251t-147 166.5t-221 58.5
q-125 0 -219 -58t-145.5 -166t-51.5 -252q0 -146 51.5 -255t145.5 -168t219 -59t220.5 59.5zM728 1314.5q-34 16.5 -56 40t-50 62.5q-23 32 -39 50.5t-38 30.5t-52 12q-60 1 -94 -49.5t-34 -138.5h-67q0 122 53 191t144 67q44 0 76 -15.5t53 -38.5t48 -60q35 -48 64 -72
t73 -24q52 0 85 54.5t33 145.5h70q0 -81 -23.5 -143t-66 -95.5t-98.5 -33.5q-47 0 -81 16.5z" />
    <glyph glyph-name="odieresis" unicode="&#xf6;" horiz-adv-x="1295" 
d="M374.5 55q-118.5 70 -184.5 200t-66 303q0 172 66 300.5t184.5 197.5t271.5 69t272.5 -69.5t186.5 -198t67 -299.5q0 -173 -67 -302.5t-186.5 -200t-272.5 -70.5t-271.5 70zM866.5 135.5q95.5 59.5 147.5 168.5t52 254q0 143 -52 251t-147 166.5t-221 58.5
q-125 0 -219 -58t-145.5 -166t-51.5 -252q0 -146 51.5 -255t145.5 -168t219 -59t220.5 59.5zM384 1434q-27 27 -27 67q0 38 27.5 65t66.5 27q37 0 64.5 -27t27.5 -65q0 -39 -27 -66.5t-65 -27.5q-40 0 -67 27zM778 1434q-27 27 -27 67q0 38 27 65t66 27q37 0 64.5 -27
t27.5 -65q0 -39 -27 -66.5t-65 -27.5q-39 0 -66 27z" />
    <glyph glyph-name="divide" unicode="&#xf7;" horiz-adv-x="1260" 
d="M545 1010.5q-27 27.5 -27 66.5q0 38 27 64.5t66 26.5q38 0 65 -26.5t27 -64.5q0 -39 -27 -66.5t-65 -27.5q-39 0 -66 27.5zM243 741h761v-85h-761v85zM545 233.5q-27 27.5 -27 66.5q0 38 27 65.5t66 27.5q37 0 64.5 -27.5t27.5 -65.5q0 -39 -27 -66.5t-65 -27.5
q-39 0 -66 27.5z" />
    <glyph glyph-name="oslash" unicode="&#xf8;" horiz-adv-x="1295" 
d="M1122.5 820q49.5 -116 49.5 -262q0 -173 -67 -302.5t-186.5 -200t-272.5 -70.5q-150 0 -266 67l-85 -135l-73 45l88 139q-89 75 -137.5 192t-48.5 265q0 172 66 300.5t184.5 197.5t271.5 69q149 0 267 -66l83 132l73 -45l-85 -136q89 -74 138.5 -190zM264.5 344.5
q34.5 -94.5 98.5 -158.5l499 792q-95 56 -216 56q-125 0 -219 -58t-145.5 -166t-51.5 -252q0 -119 34.5 -213.5zM866.5 135.5q95.5 59.5 147.5 168.5t52 254q0 117 -35.5 211t-100.5 157l-499 -793q94 -57 215 -57q125 0 220.5 59.5z" />
    <glyph glyph-name="ugrave" unicode="&#xf9;" horiz-adv-x="1239" 
d="M419 7q-66 22 -111 61q-61 55 -91 140.5t-30 223.5v678h105v-640q0 -125 21 -200.5t69 -120.5q76 -73 215 -73q72 0 130.5 22.5t99.5 65.5q48 49 70.5 123t22.5 191v632h106v-1110h-106v177h-6q-42 -87 -133 -139.5t-214 -52.5q-82 0 -148 22zM311 1570h114l235 -316h-87
z" />
    <glyph glyph-name="uacute" unicode="&#xfa;" horiz-adv-x="1239" 
d="M419 7q-66 22 -111 61q-61 55 -91 140.5t-30 223.5v678h105v-640q0 -125 21 -200.5t69 -120.5q76 -73 215 -73q72 0 130.5 22.5t99.5 65.5q48 49 70.5 123t22.5 191v632h106v-1110h-106v177h-6q-42 -87 -133 -139.5t-214 -52.5q-82 0 -148 22zM814 1570h115l-270 -316
h-84z" />
    <glyph glyph-name="ucircumflex" unicode="&#xfb;" horiz-adv-x="1239" 
d="M419 7q-66 22 -111 61q-61 55 -91 140.5t-30 223.5v678h105v-640q0 -125 21 -200.5t69 -120.5q76 -73 215 -73q72 0 130.5 22.5t99.5 65.5q48 49 70.5 123t22.5 191v632h106v-1110h-106v177h-6q-42 -87 -133 -139.5t-214 -52.5q-82 0 -148 22zM616 1584l330 -342h-95
l-235 236l-236 -236h-93z" />
    <glyph glyph-name="udieresis" unicode="&#xfc;" horiz-adv-x="1239" 
d="M419 7q-66 22 -111 61q-61 55 -91 140.5t-30 223.5v678h105v-640q0 -125 21 -200.5t69 -120.5q76 -73 215 -73q72 0 130.5 22.5t99.5 65.5q48 49 70.5 123t22.5 191v632h106v-1110h-106v177h-6q-42 -87 -133 -139.5t-214 -52.5q-82 0 -148 22zM354 1434q-27 27 -27 67
q0 38 27.5 65t66.5 27q37 0 64.5 -27t27.5 -65q0 -39 -27 -66.5t-65 -27.5q-40 0 -67 27zM748 1434q-27 27 -27 67q0 38 27 65t66 27q37 0 64.5 -27t27.5 -65q0 -39 -27 -66.5t-65 -27.5q-39 0 -66 27z" />
    <glyph glyph-name="yacute" unicode="&#xfd;" horiz-adv-x="1128" 
d="M506 10l-448 1100h116l388 -980h2l388 980h118l-639 -1570h-115zM761 1570h115l-270 -316h-84z" />
    <glyph glyph-name="thorn" unicode="&#xfe;" horiz-adv-x="1371" 
d="M216 1570h106v-704h7q56 120 164.5 189.5t248.5 69.5q148 0 262.5 -71t178 -200.5t63.5 -299.5t-63.5 -299t-177 -199.5t-259.5 -70.5q-144 0 -253.5 71.5t-163.5 191.5h-7v-708h-106v2030zM940 135.5q94 59.5 147 168t53 250.5q0 143 -53 252t-147 168.5t-213 59.5
q-120 0 -214 -60.5t-146.5 -169.5t-52.5 -250q0 -139 52.5 -248t146.5 -169.5t214 -60.5q119 0 213 59.5z" />
    <glyph glyph-name="ydieresis" unicode="&#xff;" horiz-adv-x="1128" 
d="M506 10l-448 1100h116l388 -980h2l388 980h118l-639 -1570h-115zM301 1434q-27 27 -27 67q0 38 27.5 65t66.5 27q37 0 64.5 -27t27.5 -65q0 -39 -27 -66.5t-65 -27.5q-40 0 -67 27zM695 1434q-27 27 -27 67q0 38 27 65t66 27q37 0 64.5 -27t27.5 -65q0 -39 -27 -66.5
t-65 -27.5q-39 0 -66 27z" />
    <glyph glyph-name="Amacron" unicode="&#x100;" horiz-adv-x="1440" 
d="M1087 390h-731l-133 -390h-121l551 1570h134l551 -1570h-118zM1054 488l-329 964h-5l-330 -964h664zM419 1911h605v-69h-605v69z" />
    <glyph glyph-name="amacron" unicode="&#x101;" horiz-adv-x="1197" 
d="M992 862.5q19 -76.5 19 -198.5v-664h-105v223h-9q-22 -51 -59.5 -91.5t-80.5 -67.5q-115 -79 -264 -79q-116 0 -202 40.5t-132 115t-46 174.5q0 190 143 269q54 30 126.5 41.5t189.5 11.5h334v22q0 113 -18.5 180t-59.5 109t-105.5 64t-146.5 22q-110 0 -196 -43
t-164 -137l-67 71q91 104 194 152t233 48q119 0 207 -33t142 -96q48 -57 67 -133.5zM866 287q27 61 33.5 116.5t6.5 127.5v15h-328q-114 0 -174.5 -11t-100.5 -37q-40 -27 -62.5 -72.5t-22.5 -110.5q0 -112 77 -177.5t214 -65.5q163 0 274 102q56 52 83 113zM293 1451h605
v-69h-605v69z" />
    <glyph glyph-name="Abreve" unicode="&#x102;" horiz-adv-x="1440" 
d="M1087 390h-731l-133 -390h-121l551 1570h134l551 -1570h-118zM1054 488l-329 964h-5l-330 -964h664zM470 1808q-85 78 -85 222h79q0 -115 66.5 -173.5t189.5 -58.5q124 0 189.5 59t65.5 173h79q0 -145 -86 -222.5t-248 -77.5q-165 0 -250 78z" />
    <glyph glyph-name="abreve" unicode="&#x103;" horiz-adv-x="1197" 
d="M992 862.5q19 -76.5 19 -198.5v-664h-105v223h-9q-22 -51 -59.5 -91.5t-80.5 -67.5q-115 -79 -264 -79q-116 0 -202 40.5t-132 115t-46 174.5q0 190 143 269q54 30 126.5 41.5t189.5 11.5h334v22q0 113 -18.5 180t-59.5 109t-105.5 64t-146.5 22q-110 0 -196 -43
t-164 -137l-67 71q91 104 194 152t233 48q119 0 207 -33t142 -96q48 -57 67 -133.5zM866 287q27 61 33.5 116.5t6.5 127.5v15h-328q-114 0 -174.5 -11t-100.5 -37q-40 -27 -62.5 -72.5t-22.5 -110.5q0 -112 77 -177.5t214 -65.5q163 0 274 102q56 52 83 113zM344 1348
q-85 78 -85 222h79q0 -115 66.5 -173.5t189.5 -58.5q124 0 189.5 59t65.5 173h79q0 -145 -86 -222.5t-248 -77.5q-165 0 -250 78z" />
    <glyph glyph-name="Aogonek" unicode="&#x104;" horiz-adv-x="1440" 
d="M1202.5 -360q46.5 -38 135.5 -38v-71q-128 0 -197 51t-69 136q0 72 48.5 146t138.5 136h-39l-133 390h-731l-133 -390h-121l551 1570h134l551 -1570q-86 -55 -134 -124t-48 -133q0 -65 46.5 -103zM1054 488l-329 964h-5l-330 -964h664z" />
    <glyph glyph-name="aogonek" unicode="&#x105;" horiz-adv-x="1197" 
d="M877 -124q-48 -69 -48 -133q0 -65 46.5 -103t135.5 -38v-71q-128 0 -197 51t-69 136q0 72 48.5 146t138.5 136h-26v223h-9q-22 -51 -59.5 -91.5t-80.5 -67.5q-115 -79 -264 -79q-116 0 -202 40.5t-132 115t-46 174.5q0 190 143 269q54 30 126.5 41.5t189.5 11.5h334v22
q0 113 -18.5 180t-59.5 109t-105.5 64t-146.5 22q-110 0 -196 -43t-164 -137l-67 71q91 104 194 152t233 48q119 0 207 -33t142 -96q48 -57 67 -133.5t19 -198.5v-664q-86 -55 -134 -124zM866 287q27 61 33.5 116.5t6.5 127.5v15h-328q-114 0 -174.5 -11t-100.5 -37
q-40 -27 -62.5 -72.5t-22.5 -110.5q0 -112 77 -177.5t214 -65.5q163 0 274 102q56 52 83 113z" />
    <glyph glyph-name="Cacute" unicode="&#x106;" horiz-adv-x="1636" 
d="M490.5 81.5q-155.5 96.5 -237.5 277t-82 429.5q0 250 83 429t241.5 273.5t380.5 94.5q239 0 393 -104.5t233 -313.5l-104 -39q-66 181 -194 270t-328 89q-189 0 -322.5 -82.5t-203.5 -239t-70 -377.5q0 -208 64 -367t194.5 -248.5t323.5 -89.5q391 0 540 369l106 -34
q-86 -213 -247.5 -323t-398.5 -110q-216 0 -371.5 96.5zM1022 2030h115l-270 -316h-84z" />
    <glyph glyph-name="cacute" unicode="&#x107;" horiz-adv-x="1137" 
d="M352.5 59q-110.5 74 -169 203.5t-58.5 290.5q0 151 55 281.5t164 210.5t265 80q149 0 262 -76.5t173 -220.5l-100 -40q-45 114 -133 177.5t-202 63.5q-123 0 -208 -65.5t-127.5 -174t-42.5 -236.5q0 -129 42.5 -236t128 -171t208.5 -64q117 0 203 63t123 175l97 -37
q-49 -141 -160.5 -219.5t-261.5 -78.5q-148 0 -258.5 74zM807 1570h115l-270 -316h-84z" />
    <glyph glyph-name="Cdotaccent" unicode="&#x10a;" horiz-adv-x="1636" 
d="M490.5 81.5q-155.5 96.5 -237.5 277t-82 429.5q0 250 83 429t241.5 273.5t380.5 94.5q239 0 393 -104.5t233 -313.5l-104 -39q-66 181 -194 270t-328 89q-189 0 -322.5 -82.5t-203.5 -239t-70 -377.5q0 -208 64 -367t194.5 -248.5t323.5 -89.5q391 0 540 369l106 -34
q-86 -213 -247.5 -323t-398.5 -110q-216 0 -371.5 96.5zM758 1773.5q-27 27.5 -27 66.5q0 38 27 64.5t67 26.5q38 0 65 -27t27 -64q0 -39 -27 -66.5t-65 -27.5q-40 0 -67 27.5z" />
    <glyph glyph-name="cdotaccent" unicode="&#x10b;" horiz-adv-x="1137" 
d="M352.5 59q-110.5 74 -169 203.5t-58.5 290.5q0 151 55 281.5t164 210.5t265 80q149 0 262 -76.5t173 -220.5l-100 -40q-45 114 -133 177.5t-202 63.5q-123 0 -208 -65.5t-127.5 -174t-42.5 -236.5q0 -129 42.5 -236t128 -171t208.5 -64q117 0 203 63t123 175l97 -37
q-49 -141 -160.5 -219.5t-261.5 -78.5q-148 0 -258.5 74zM543 1434q-27 27 -27 67q0 38 27.5 65t66.5 27q37 0 64.5 -27t27.5 -65q0 -39 -27 -66.5t-65 -27.5q-40 0 -67 27z" />
    <glyph glyph-name="Ccaron" unicode="&#x10c;" horiz-adv-x="1636" 
d="M490.5 81.5q-155.5 96.5 -237.5 277t-82 429.5q0 250 83 429t241.5 273.5t380.5 94.5q239 0 393 -104.5t233 -313.5l-104 -39q-66 181 -194 270t-328 89q-189 0 -322.5 -82.5t-203.5 -239t-70 -377.5q0 -208 64 -367t194.5 -248.5t323.5 -89.5q391 0 540 369l106 -34
q-86 -213 -247.5 -323t-398.5 -110q-216 0 -371.5 96.5zM495 2030h95l235 -232l236 232h94l-330 -333z" />
    <glyph glyph-name="ccaron" unicode="&#x10d;" horiz-adv-x="1137" 
d="M352.5 59q-110.5 74 -169 203.5t-58.5 290.5q0 151 55 281.5t164 210.5t265 80q149 0 262 -76.5t173 -220.5l-100 -40q-45 114 -133 177.5t-202 63.5q-123 0 -208 -65.5t-127.5 -174t-42.5 -236.5q0 -129 42.5 -236t128 -171t208.5 -64q117 0 203 63t123 175l97 -37
q-49 -141 -160.5 -219.5t-261.5 -78.5q-148 0 -258.5 74zM280 1570h95l235 -232l236 232h94l-330 -333z" />
    <glyph glyph-name="Dcaron" unicode="&#x10e;" horiz-adv-x="1641" 
d="M267 1570h329q166 0 285 -20t204.5 -58.5t155.5 -99.5q115 -102 175 -258t60 -360q0 -195 -57.5 -343.5t-169.5 -247.5q-111 -98 -263.5 -140.5t-391.5 -42.5h-327v1570zM585 99q228 0 362.5 40t227.5 126q94 87 142.5 216t48.5 296q0 353 -196 534q-97 87 -229.5 123.5
t-345.5 36.5h-218v-1372h208zM501 2030h95l235 -232l236 232h94l-330 -333z" />
    <glyph glyph-name="dcaron" unicode="&#x10f;" horiz-adv-x="1372" 
d="M367 52q-114 67 -177 195.5t-63 308.5t63 308t176 194.5t261 66.5q144 0 253.5 -71.5t163.5 -191.5h7v708h106v-1570h-106v245h-7q-55 -120 -164 -190t-249 -70q-150 0 -264 67zM860 136.5q94 60.5 146.5 170t52.5 249.5t-52.5 248.5t-146 169t-214.5 60.5t-214.5 -55
t-146 -163t-52.5 -260q0 -153 52.5 -261t146 -163.5t214.5 -55.5q120 0 214 60.5zM1517.5 1531q38.5 -56 38.5 -139q0 -64 -24 -132.5t-73 -126t-119 -86.5l-26 59q53 24 92.5 68t60.5 97.5t21 104.5q0 42 -14 73q-12 -22 -33.5 -34.5t-46.5 -12.5q-39 0 -66 26.5t-27 66.5
q0 39 28 65.5t70 26.5q80 0 118.5 -56z" />
    <glyph glyph-name="Dcroat" unicode="&#x110;" horiz-adv-x="1641" 
d="M1416 1134q60 -156 60 -360q0 -195 -57.5 -343.5t-169.5 -247.5q-111 -98 -263.5 -140.5t-391.5 -42.5h-327v735h-169v75h169v760h329q166 0 285 -20t204.5 -58.5t155.5 -99.5q115 -102 175 -258zM1317.5 481q48.5 129 48.5 296q0 353 -196 534q-97 87 -229.5 123.5
t-345.5 36.5h-218v-661h427v-75h-427v-636h208q228 0 362.5 40t227.5 126q94 87 142.5 216z" />
    <glyph glyph-name="dcroat" unicode="&#x111;" horiz-adv-x="1372" 
d="M1306 1339h-149v-1339h-106v245h-7q-55 -120 -164 -190t-249 -70q-150 0 -264 67t-177 195.5t-63 308.5t63 308t176 194.5t261 66.5q144 0 253.5 -71.5t163.5 -191.5h7v477h-451v75h451v156h106v-156h149v-75zM860 136.5q94 60.5 146.5 170t52.5 249.5t-52.5 248.5
t-146 169t-214.5 60.5t-214.5 -55t-146 -163t-52.5 -260q0 -153 52.5 -261t146 -163.5t214.5 -55.5q120 0 214 60.5z" />
    <glyph glyph-name="Emacron" unicode="&#x112;" horiz-adv-x="1409" 
d="M267 1570h974v-99h-864v-632h765v-98h-765v-642h910v-99h-1020v1570zM465 1911h605v-69h-605v69z" />
    <glyph glyph-name="emacron" unicode="&#x113;" horiz-adv-x="1199" 
d="M1080 573q-2 -28 -6 -42h-837q2 -140 50 -242.5t135.5 -157.5t207.5 -55q110 0 188 34t157 121l75 -67q-95 -97 -191.5 -138t-229.5 -41q-156 0 -269.5 72.5t-173.5 200.5t-60 292q0 162 58.5 293t168 206.5t258.5 75.5q166 0 271.5 -76t152.5 -189.5t47 -231.5
q0 -27 -2 -55zM423 980.5q-82 -53.5 -129.5 -147t-55.5 -211.5h737q0 8 0.5 19.5t-0.5 26.5q-4 98 -43.5 181t-119.5 134t-200 51q-107 0 -189 -53.5zM299 1451h605v-69h-605v69z" />
    <glyph glyph-name="Edotaccent" unicode="&#x116;" horiz-adv-x="1409" 
d="M267 1570h974v-99h-864v-632h765v-98h-765v-642h910v-99h-1020v1570zM700 1773.5q-27 27.5 -27 66.5q0 38 27 64.5t67 26.5q38 0 65 -27t27 -64q0 -39 -27 -66.5t-65 -27.5q-40 0 -67 27.5z" />
    <glyph glyph-name="edotaccent" unicode="&#x117;" horiz-adv-x="1199" 
d="M1080 573q-2 -28 -6 -42h-837q2 -140 50 -242.5t135.5 -157.5t207.5 -55q110 0 188 34t157 121l75 -67q-95 -97 -191.5 -138t-229.5 -41q-156 0 -269.5 72.5t-173.5 200.5t-60 292q0 162 58.5 293t168 206.5t258.5 75.5q166 0 271.5 -76t152.5 -189.5t47 -231.5
q0 -27 -2 -55zM423 980.5q-82 -53.5 -129.5 -147t-55.5 -211.5h737q0 8 0.5 19.5t-0.5 26.5q-4 98 -43.5 181t-119.5 134t-200 51q-107 0 -189 -53.5zM534 1434q-27 27 -27 67q0 38 27.5 65t66.5 27q37 0 64.5 -27t27.5 -65q0 -39 -27 -66.5t-65 -27.5q-40 0 -67 27z" />
    <glyph glyph-name="Eogonek" unicode="&#x118;" horiz-adv-x="1409" 
d="M1153 -124q-48 -69 -48 -133q0 -65 46.5 -103t135.5 -38v-71q-128 0 -197 51t-69 136q0 72 48.5 146t138.5 136h-941v1570h974v-99h-864v-632h765v-98h-765v-642h910v-99q-86 -55 -134 -124z" />
    <glyph glyph-name="eogonek" unicode="&#x119;" horiz-adv-x="1199" 
d="M1080 573q-2 -28 -6 -42h-837q2 -140 50 -242.5t135.5 -157.5t207.5 -55q110 0 188 34t157 121l75 -67q-74 -75 -144 -114q-80 -55 -124 -121t-44 -127q0 -65 46.5 -103t135.5 -38v-71q-128 0 -197 51t-69 136q0 54 28.5 111t82.5 109q-63 -12 -136 -12
q-156 0 -269.5 72.5t-173.5 200.5t-60 292q0 162 58.5 293t168 206.5t258.5 75.5q166 0 271.5 -76t152.5 -189.5t47 -231.5q0 -27 -2 -55zM423 980.5q-82 -53.5 -129.5 -147t-55.5 -211.5h737q0 8 0.5 19.5t-0.5 26.5q-4 98 -43.5 181t-119.5 134t-200 51q-107 0 -189 -53.5
z" />
    <glyph glyph-name="Ecaron" unicode="&#x11a;" horiz-adv-x="1409" 
d="M267 1570h974v-99h-864v-632h765v-98h-765v-642h910v-99h-1020v1570zM437 2030h95l235 -232l236 232h94l-330 -333z" />
    <glyph glyph-name="ecaron" unicode="&#x11b;" horiz-adv-x="1199" 
d="M1080 573q-2 -28 -6 -42h-837q2 -140 50 -242.5t135.5 -157.5t207.5 -55q110 0 188 34t157 121l75 -67q-95 -97 -191.5 -138t-229.5 -41q-156 0 -269.5 72.5t-173.5 200.5t-60 292q0 162 58.5 293t168 206.5t258.5 75.5q166 0 271.5 -76t152.5 -189.5t47 -231.5
q0 -27 -2 -55zM423 980.5q-82 -53.5 -129.5 -147t-55.5 -211.5h737q0 8 0.5 19.5t-0.5 26.5q-4 98 -43.5 181t-119.5 134t-200 51q-107 0 -189 -53.5zM271 1570h95l235 -232l236 232h94l-330 -333z" />
    <glyph glyph-name="Gbreve" unicode="&#x11e;" horiz-adv-x="1719" 
d="M1510 795v-795h-100v308h-12q-60 -155 -194 -239t-334 -84q-219 0 -376.5 96.5t-240 277.5t-82.5 431q0 249 83 427.5t241 273t380 94.5q239 0 393.5 -104.5t232.5 -313.5l-103 -39q-66 181 -194 270t-329 89q-189 0 -322.5 -82t-203 -238.5t-69.5 -376.5
q0 -209 65.5 -368t201 -249t337.5 -90q270 0 397 162t129 452h-422v98h522zM618 1808q-85 78 -85 222h79q0 -115 66.5 -173.5t189.5 -58.5q124 0 189.5 59t65.5 173h79q0 -145 -86 -222.5t-248 -77.5q-165 0 -250 78z" />
    <glyph glyph-name="gbreve" unicode="&#x11f;" horiz-adv-x="1180" 
d="M1091 -124q0 -180 -133 -265q-120 -79 -355 -79q-232 0 -360 77q-135 80 -135 267q0 12 1.5 23t4.5 28l161 145v8q-29 15 -49 33q-71 67 -71 178q0 110 98 216q-74 98 -74 234q0 114 52 201t143.5 135t206.5 48q89 0 163 -29t127 -82l171 154l56 -70l-174 -153
q54 -93 54 -211q0 -115 -51 -200.5t-141.5 -130.5t-204.5 -45q-77 0 -144 21.5t-119 61.5q-36 -36 -53 -71t-17 -74q0 -78 50 -121q35 -28 88.5 -37t99.5 -9h277q91 0 149 -15.5t99 -49.5q80 -64 80 -188zM426 997.5q-68 -36.5 -105.5 -104t-37.5 -155.5q0 -87 37 -152.5
t104.5 -101t156.5 -35.5t155.5 35.5t103 100.5t36.5 152q0 90 -36.5 157t-102.5 103.5t-154 36.5q-89 0 -157 -36.5zM963.5 -240.5q21.5 43.5 21.5 103.5q0 91 -51 132q-53 44 -166 44h-282q-65 0 -122 11l-151 -144q-1 -7 -2 -17t-1 -22q0 -127 90 -184q47 -32 122.5 -46
t180.5 -14q95 0 170 16.5t124 47.5q45 29 66.5 72.5zM338 1348q-85 78 -85 222h79q0 -115 66.5 -173.5t189.5 -58.5q124 0 189.5 59t65.5 173h79q0 -145 -86 -222.5t-248 -77.5q-165 0 -250 78z" />
    <glyph glyph-name="Gdotaccent" unicode="&#x120;" horiz-adv-x="1719" 
d="M1510 795v-795h-100v308h-12q-60 -155 -194 -239t-334 -84q-219 0 -376.5 96.5t-240 277.5t-82.5 431q0 249 83 427.5t241 273t380 94.5q239 0 393.5 -104.5t232.5 -313.5l-103 -39q-66 181 -194 270t-329 89q-189 0 -322.5 -82t-203 -238.5t-69.5 -376.5
q0 -209 65.5 -368t201 -249t337.5 -90q270 0 397 162t129 452h-422v98h522zM802 1773.5q-27 27.5 -27 66.5q0 38 27 64.5t67 26.5q38 0 65 -27t27 -64q0 -39 -27 -66.5t-65 -27.5q-40 0 -67 27.5z" />
    <glyph glyph-name="gdotaccent" unicode="&#x121;" horiz-adv-x="1180" 
d="M1091 -124q0 -180 -133 -265q-120 -79 -355 -79q-232 0 -360 77q-135 80 -135 267q0 12 1.5 23t4.5 28l161 145v8q-29 15 -49 33q-71 67 -71 178q0 110 98 216q-74 98 -74 234q0 114 52 201t143.5 135t206.5 48q89 0 163 -29t127 -82l171 154l56 -70l-174 -153
q54 -93 54 -211q0 -115 -51 -200.5t-141.5 -130.5t-204.5 -45q-77 0 -144 21.5t-119 61.5q-36 -36 -53 -71t-17 -74q0 -78 50 -121q35 -28 88.5 -37t99.5 -9h277q91 0 149 -15.5t99 -49.5q80 -64 80 -188zM426 997.5q-68 -36.5 -105.5 -104t-37.5 -155.5q0 -87 37 -152.5
t104.5 -101t156.5 -35.5t155.5 35.5t103 100.5t36.5 152q0 90 -36.5 157t-102.5 103.5t-154 36.5q-89 0 -157 -36.5zM963.5 -240.5q21.5 43.5 21.5 103.5q0 91 -51 132q-53 44 -166 44h-282q-65 0 -122 11l-151 -144q-1 -7 -2 -17t-1 -22q0 -127 90 -184q47 -32 122.5 -46
t180.5 -14q95 0 170 16.5t124 47.5q45 29 66.5 72.5zM522 1434q-27 27 -27 67q0 38 27.5 65t66.5 27q37 0 64.5 -27t27.5 -65q0 -39 -27 -66.5t-65 -27.5q-40 0 -67 27z" />
    <glyph glyph-name="uni0122" unicode="&#x122;" horiz-adv-x="1719" 
d="M1510 795v-795h-100v308h-12q-60 -155 -194 -239t-334 -84q-219 0 -376.5 96.5t-240 277.5t-82.5 431q0 249 83 427.5t241 273t380 94.5q239 0 393.5 -104.5t232.5 -313.5l-103 -39q-66 181 -194 270t-329 89q-189 0 -322.5 -82t-203 -238.5t-69.5 -376.5
q0 -209 65.5 -368t201 -249t337.5 -90q270 0 397 162t129 452h-422v98h522zM987.5 -164q37.5 -49 37.5 -120q0 -56 -23.5 -118t-72 -114.5t-119.5 -78.5l-26 59q52 20 92 57.5t61 83t21 87.5q0 35 -13 62q-13 -21 -34.5 -32.5t-46.5 -11.5q-39 0 -66.5 26t-27.5 63
q0 35 30 60.5t73 25.5q77 0 114.5 -49z" />
    <glyph glyph-name="uni0123" unicode="&#x123;" horiz-adv-x="1180" 
d="M1091 -124q0 -180 -133 -265q-120 -79 -355 -79q-232 0 -360 77q-135 80 -135 267q0 12 1.5 23t4.5 28l161 145v8q-29 15 -49 33q-71 67 -71 178q0 110 98 216q-74 98 -74 234q0 114 52 201t143.5 135t206.5 48q89 0 163 -29t127 -82l171 154l56 -70l-174 -153
q54 -93 54 -211q0 -115 -51 -200.5t-141.5 -130.5t-204.5 -45q-77 0 -144 21.5t-119 61.5q-36 -36 -53 -71t-17 -74q0 -78 50 -121q35 -28 88.5 -37t99.5 -9h277q91 0 149 -15.5t99 -49.5q80 -64 80 -188zM426 997.5q-68 -36.5 -105.5 -104t-37.5 -155.5q0 -87 37 -152.5
t104.5 -101t156.5 -35.5t155.5 35.5t103 100.5t36.5 152q0 90 -36.5 157t-102.5 103.5t-154 36.5q-89 0 -157 -36.5zM963.5 -240.5q21.5 43.5 21.5 103.5q0 91 -51 132q-53 44 -166 44h-282q-65 0 -122 11l-151 -144q-1 -7 -2 -17t-1 -22q0 -127 90 -184q47 -32 122.5 -46
t180.5 -14q95 0 170 16.5t124 47.5q45 29 66.5 72.5zM670 1374q28 -23 28 -56q0 -32 -30 -54.5t-73 -22.5q-77 0 -114.5 43.5t-37.5 107.5q0 50 23.5 105.5t72 102.5t119.5 70l26 -53q-52 -17 -92 -51t-61 -74.5t-21 -78.5q0 -30 13 -55q13 19 34.5 29t46.5 10q38 0 66 -23z
" />
    <glyph glyph-name="Hbar" unicode="&#x126;" horiz-adv-x="1629" 
d="M1526 1172h-164v-1172h-109v742h-876v-742h-110v1172h-153v68h153v330h110v-330h876v330h109v-330h164v-68zM1253 1172h-876v-331h876v331z" />
    <glyph glyph-name="hbar" unicode="&#x127;" horiz-adv-x="1242" 
d="M1024.5 902q30.5 -86 30.5 -224v-678h-106v641q0 125 -21 200t-69 120q-76 73 -215 73q-143 0 -230 -87q-48 -49 -70.5 -123.5t-22.5 -190.5v-633h-106l1 1305h-213v75h213v190h106v-190h387v-75h-387l-1 -372h7q41 87 132 139.5t215 52.5q81 0 147 -22t111 -61
q61 -54 91.5 -140z" />
    <glyph glyph-name="Itilde" unicode="&#x128;" horiz-adv-x="644" 
d="M267 1570h110v-1570h-110v1570zM402 1774.5q-34 16.5 -56 40t-50 62.5q-23 32 -39 50.5t-38 30.5t-52 12q-60 1 -94 -49.5t-34 -138.5h-67q0 122 53 191t144 67q44 0 76 -15.5t53 -38.5t48 -60q35 -48 64 -72t73 -24q52 0 85 54.5t33 145.5h70q0 -81 -23.5 -143
t-66 -95.5t-98.5 -33.5q-47 0 -81 16.5z" />
    <glyph glyph-name="itilde" unicode="&#x129;" horiz-adv-x="531" 
d="M213 1110h106v-1110h-106v1110zM346 1314.5q-34 16.5 -56 40t-50 62.5q-23 32 -39 50.5t-38 30.5t-52 12q-60 1 -94 -49.5t-34 -138.5h-67q0 122 53 191t144 67q44 0 76 -15.5t53 -38.5t48 -60q35 -48 64 -72t73 -24q52 0 85 54.5t33 145.5h70q0 -81 -23.5 -143
t-66 -95.5t-98.5 -33.5q-47 0 -81 16.5z" />
    <glyph glyph-name="Imacron" unicode="&#x12a;" horiz-adv-x="644" 
d="M267 1570h110v-1570h-110v1570zM19 1911h605v-69h-605v69z" />
    <glyph glyph-name="imacron" unicode="&#x12b;" horiz-adv-x="531" 
d="M213 1110h106v-1110h-106v1110zM-37 1451h605v-69h-605v69z" />
    <glyph glyph-name="Iogonek" unicode="&#x12e;" horiz-adv-x="644" 
d="M243 -124q-48 -69 -48 -133q0 -65 46.5 -103t135.5 -38v-71q-128 0 -197 51t-69 136q0 72 48.5 146t138.5 136h-31v1570h110v-1570q-86 -55 -134 -124z" />
    <glyph glyph-name="iogonek" unicode="&#x12f;" horiz-adv-x="531" 
d="M330 1566q27 -27 27 -65q0 -39 -27 -66.5t-65 -27.5q-40 0 -67 27t-27 67q0 38 27.5 65t66.5 27q38 0 65 -27zM213 1110h106v-1110q-86 -55 -134 -124t-48 -133q0 -65 46.5 -103t135.5 -38v-71q-128 0 -197 51t-69 136q0 72 48.5 146t138.5 136h-27v1110z" />
    <glyph glyph-name="Idotaccent" unicode="&#x130;" horiz-adv-x="644" 
d="M267 1570h110v-1570h-110v1570zM254 1773.5q-27 27.5 -27 66.5q0 38 27 64.5t67 26.5q38 0 65 -27t27 -64q0 -39 -27 -66.5t-65 -27.5q-40 0 -67 27.5z" />
    <glyph glyph-name="dotlessi" unicode="&#x131;" horiz-adv-x="531" 
d="M213 1110h106v-1110h-106v1110z" />
    <glyph glyph-name="IJ" unicode="&#x132;" horiz-adv-x="1965" 
d="M267 1570h110v-1570h-110v1570zM990 42q-107 54 -168.5 157t-69.5 245l109 13q7 -121 61 -207.5t145 -127.5q76 -39 177 -39q183 0 282 113q47 56 68.5 147.5t21.5 260.5v867h-655v99h764v-966q0 -182 -26.5 -291.5t-90.5 -183.5q-125 -144 -364 -144q-146 0 -254 57z
" />
    <glyph glyph-name="uni0136" unicode="&#x136;" horiz-adv-x="1519" 
d="M1419 0h-130l-557 892h-11l-344 -352v-540h-110v1570h110v-879h11l846 879h148l-578 -592zM888.5 -164q37.5 -49 37.5 -120q0 -56 -23.5 -118t-72 -114.5t-119.5 -78.5l-26 59q52 20 92 57.5t61 83t21 87.5q0 35 -13 62q-13 -21 -34.5 -32.5t-46.5 -11.5q-39 0 -66.5 26
t-27.5 63q0 35 30 60.5t73 25.5q77 0 114.5 -49z" />
    <glyph glyph-name="uni0137" unicode="&#x137;" horiz-adv-x="1208" 
d="M1029 0l-413 633l-295 -303v-330h-106v1570h106v-1112l628 652h133l-388 -406l460 -704h-125zM747.5 -164q37.5 -49 37.5 -120q0 -56 -23.5 -118t-72 -114.5t-119.5 -78.5l-26 59q52 20 92 57.5t61 83t21 87.5q0 35 -13 62q-13 -21 -34.5 -32.5t-46.5 -11.5
q-39 0 -66.5 26t-27.5 63q0 35 30 60.5t73 25.5q77 0 114.5 -49z" />
    <glyph glyph-name="kgreenlandic" unicode="&#x138;" horiz-adv-x="1206" 
d="M1026 0l-412 633l-295 -303v-330h-106v1106h106v-647l622 651h139l-388 -406l459 -704h-125z" />
    <glyph glyph-name="Lacute" unicode="&#x139;" horiz-adv-x="1200" 
d="M267 1570h110v-1471h732v-99h-842v1570zM547 2030h115l-270 -316h-84z" />
    <glyph glyph-name="lacute" unicode="&#x13a;" horiz-adv-x="597" 
d="M257 35q-31 32 -40.5 88.5t-9.5 168.5v1278h106v-1257v-33q0 -74 5.5 -110.5t25.5 -59.5q29 -34 100 -34q42 0 90 12l16 -82q-69 -21 -139 -21q-103 0 -154 50zM458 2030h115l-270 -316h-84z" />
    <glyph glyph-name="uni013B" unicode="&#x13b;" horiz-adv-x="1200" 
d="M267 1570h110v-1471h732v-99h-842v1570zM747.5 -164q37.5 -49 37.5 -120q0 -56 -23.5 -118t-72 -114.5t-119.5 -78.5l-26 59q52 20 92 57.5t61 83t21 87.5q0 35 -13 62q-13 -21 -34.5 -32.5t-46.5 -11.5q-39 0 -66.5 26t-27.5 63q0 35 30 60.5t73 25.5q77 0 114.5 -49z
" />
    <glyph glyph-name="uni013C" unicode="&#x13c;" horiz-adv-x="597" 
d="M257 35q-31 32 -40.5 88.5t-9.5 168.5v1278h106v-1257v-33q0 -74 5.5 -110.5t25.5 -59.5q29 -34 100 -34q42 0 90 12l16 -82q-69 -21 -139 -21q-103 0 -154 50zM444.5 -164q37.5 -49 37.5 -120q0 -56 -23.5 -118t-72 -114.5t-119.5 -78.5l-26 59q52 20 92 57.5t61 83
t21 87.5q0 35 -13 62q-13 -21 -34.5 -32.5t-46.5 -11.5q-39 0 -66.5 26t-27.5 63q0 35 30 60.5t73 25.5q77 0 114.5 -49z" />
    <glyph glyph-name="Lcaron" unicode="&#x13d;" horiz-adv-x="1200" 
d="M267 1570h110v-1471h732v-99h-842v1570zM1010.5 1531q38.5 -56 38.5 -139q0 -64 -24 -132.5t-73 -126t-119 -86.5l-26 59q53 24 92.5 68t60.5 97.5t21 104.5q0 42 -14 73q-12 -22 -33.5 -34.5t-46.5 -12.5q-39 0 -66 26.5t-27 66.5q0 39 28 65.5t70 26.5q80 0 118.5 -56z
" />
    <glyph glyph-name="lcaron" unicode="&#x13e;" horiz-adv-x="597" 
d="M257 35q-31 32 -40.5 88.5t-9.5 168.5v1278h106v-1257v-33q0 -74 5.5 -110.5t25.5 -59.5q29 -34 100 -34q42 0 90 12l16 -82q-69 -21 -139 -21q-103 0 -154 50zM697.5 1531q38.5 -56 38.5 -139q0 -64 -24 -132.5t-73 -126t-119 -86.5l-26 59q53 24 92.5 68t60.5 97.5
t21 104.5q0 42 -14 73q-12 -22 -33.5 -34.5t-46.5 -12.5q-39 0 -66 26.5t-27 66.5q0 39 28 65.5t70 26.5q80 0 118.5 -56z" />
    <glyph glyph-name="Lslash" unicode="&#x141;" horiz-adv-x="1200" 
d="M1109 99v-99h-842v597l-137 -110v120l137 110v853h110v-765l433 347v-119l-433 -348v-586h732z" />
    <glyph glyph-name="lslash" unicode="&#x142;" horiz-adv-x="597" 
d="M550 6q-69 -21 -139 -21q-103 0 -154 50q-31 32 -40.5 88.5t-9.5 168.5v493l-165 -112v119l165 112v666h106v-594l228 155v-118l-228 -155v-545v-33q0 -74 5.5 -110.5t25.5 -59.5q29 -34 100 -34q42 0 90 12z" />
    <glyph glyph-name="Nacute" unicode="&#x143;" horiz-adv-x="1628" 
d="M267 1570h166l808 -1432h12v1432h108v-1570h-167l-807 1434h-10v-1434h-110v1570zM1012 2030h115l-270 -316h-84z" />
    <glyph glyph-name="nacute" unicode="&#x144;" horiz-adv-x="1240" 
d="M213 1110h106v-177h6q42 87 133 139.5t214 52.5q82 0 148 -22t111 -61q61 -54 91 -140t30 -224v-678h-105v641q0 125 -21 200t-69 120q-76 73 -215 73q-72 0 -130.5 -22.5t-99.5 -64.5q-48 -49 -70.5 -123t-22.5 -191v-633h-106v1110zM819 1570h115l-270 -316h-84z" />
    <glyph glyph-name="uni0145" unicode="&#x145;" horiz-adv-x="1628" 
d="M267 1570h166l808 -1432h12v1432h108v-1570h-167l-807 1434h-10v-1434h-110v1570zM918.5 -164q37.5 -49 37.5 -120q0 -56 -23.5 -118t-72 -114.5t-119.5 -78.5l-26 59q52 20 92 57.5t61 83t21 87.5q0 35 -13 62q-13 -21 -34.5 -32.5t-46.5 -11.5q-39 0 -66.5 26t-27.5 63
q0 35 30 60.5t73 25.5q77 0 114.5 -49z" />
    <glyph glyph-name="uni0146" unicode="&#x146;" horiz-adv-x="1240" 
d="M213 1110h106v-177h6q42 87 133 139.5t214 52.5q82 0 148 -22t111 -61q61 -54 91 -140t30 -224v-678h-105v641q0 125 -21 200t-69 120q-76 73 -215 73q-72 0 -130.5 -22.5t-99.5 -64.5q-48 -49 -70.5 -123t-22.5 -191v-633h-106v1110zM725.5 -164q37.5 -49 37.5 -120
q0 -56 -23.5 -118t-72 -114.5t-119.5 -78.5l-26 59q52 20 92 57.5t61 83t21 87.5q0 35 -13 62q-13 -21 -34.5 -32.5t-46.5 -11.5q-39 0 -66.5 26t-27.5 63q0 35 30 60.5t73 25.5q77 0 114.5 -49z" />
    <glyph glyph-name="Ncaron" unicode="&#x147;" horiz-adv-x="1628" 
d="M267 1570h166l808 -1432h12v1432h108v-1570h-167l-807 1434h-10v-1434h-110v1570zM485 2030h95l235 -232l236 232h94l-330 -333z" />
    <glyph glyph-name="ncaron" unicode="&#x148;" horiz-adv-x="1240" 
d="M213 1110h106v-177h6q42 87 133 139.5t214 52.5q82 0 148 -22t111 -61q61 -54 91 -140t30 -224v-678h-105v641q0 125 -21 200t-69 120q-76 73 -215 73q-72 0 -130.5 -22.5t-99.5 -64.5q-48 -49 -70.5 -123t-22.5 -191v-633h-106v1110zM292 1570h95l235 -232l236 232h94
l-330 -333z" />
    <glyph glyph-name="Eng" unicode="&#x14a;" horiz-adv-x="1601" 
d="M943 -365.5q-46 7.5 -92 19.5l6 74q32 -11 69.5 -18t63.5 -7q105 0 153.5 57.5t48.5 147.5q0 44 -22 92l-789 1434h-4v-1434h-110v1570h162l790 -1432h4v1432h109v-1612q0 -151 -77.5 -241t-232.5 -90q-33 0 -79 7.5z" />
    <glyph glyph-name="eng" unicode="&#x14b;" horiz-adv-x="1240" 
d="M695.5 -470q-43.5 8 -82.5 21l20 86q26 -10 55 -15t53 -5q100 0 153 58.5t53 173.5v792q0 125 -21 200t-69 120q-76 73 -215 73q-141 0 -230 -87q-47 -47 -70 -121.5t-23 -192.5v-633h-106v1110h106v-155h16q43 77 131.5 123.5t205.5 46.5q82 0 148 -22t111 -61
q61 -54 91 -140t30 -224v-861q0 -147 -74.5 -221t-203.5 -74q-35 0 -78.5 8z" />
    <glyph glyph-name="Omacron" unicode="&#x14c;" horiz-adv-x="1744" 
d="M487.5 89q-158.5 104 -239.5 285t-81 411t81 411t239.5 285t382.5 104q226 0 385.5 -104t240.5 -285t81 -411t-81 -411t-240.5 -285t-385.5 -104q-224 0 -382.5 104zM1197.5 174q134.5 91 202.5 250t68 361t-68 361t-202.5 250t-327.5 91q-191 0 -325 -91t-201.5 -250
t-67.5 -361t67.5 -361t201.5 -250t325 -91q193 0 327.5 91zM570 1911h605v-69h-605v69z" />
    <glyph glyph-name="omacron" unicode="&#x14d;" horiz-adv-x="1295" 
d="M374.5 55q-118.5 70 -184.5 200t-66 303q0 172 66 300.5t184.5 197.5t271.5 69t272.5 -69.5t186.5 -198t67 -299.5q0 -173 -67 -302.5t-186.5 -200t-272.5 -70.5t-271.5 70zM866.5 135.5q95.5 59.5 147.5 168.5t52 254q0 143 -52 251t-147 166.5t-221 58.5
q-125 0 -219 -58t-145.5 -166t-51.5 -252q0 -146 51.5 -255t145.5 -168t219 -59t220.5 59.5zM345 1451h605v-69h-605v69z" />
    <glyph glyph-name="Ohungarumlaut" unicode="&#x150;" horiz-adv-x="1744" 
d="M487.5 89q-158.5 104 -239.5 285t-81 411t81 411t239.5 285t382.5 104q226 0 385.5 -104t240.5 -285t81 -411t-81 -411t-240.5 -285t-385.5 -104q-224 0 -382.5 104zM1197.5 174q134.5 91 202.5 250t68 361t-68 361t-202.5 250t-327.5 91q-191 0 -325 -91t-201.5 -250
t-67.5 -361t67.5 -361t201.5 -250t325 -91q193 0 327.5 91zM876 2030h99l-242 -316h-86zM1238 2030h115l-256 -316h-88z" />
    <glyph glyph-name="ohungarumlaut" unicode="&#x151;" horiz-adv-x="1295" 
d="M374.5 55q-118.5 70 -184.5 200t-66 303q0 172 66 300.5t184.5 197.5t271.5 69t272.5 -69.5t186.5 -198t67 -299.5q0 -173 -67 -302.5t-186.5 -200t-272.5 -70.5t-271.5 70zM866.5 135.5q95.5 59.5 147.5 168.5t52 254q0 143 -52 251t-147 166.5t-221 58.5
q-125 0 -219 -58t-145.5 -166t-51.5 -252q0 -146 51.5 -255t145.5 -168t219 -59t220.5 59.5zM651 1570h99l-242 -316h-86zM1013 1570h115l-256 -316h-88z" />
    <glyph glyph-name="OE" unicode="&#x152;" horiz-adv-x="2615" 
d="M2493 99v-99h-1020v328q-87 -162 -240 -252.5t-363 -90.5q-224 0 -382.5 104t-239.5 285t-81 411t81 411t239.5 285t382.5 104q210 0 363 -90.5t240 -252.5v328h974v-99h-864v-632h765v-98h-765v-642h910zM1197.5 174q134.5 91 202.5 250t68 361t-68 361t-202.5 250
t-327.5 91q-191 0 -325 -91t-201.5 -250t-67.5 -361t67.5 -361t201.5 -250t325 -91q193 0 327.5 91z" />
    <glyph glyph-name="oe" unicode="&#x153;" horiz-adv-x="2138" 
d="M2019 573q-2 -28 -6 -42h-837q2 -140 50 -242.5t135.5 -157.5t207.5 -55q110 0 188 34t157 121l75 -67q-95 -97 -191.5 -138t-229.5 -41q-161 0 -277.5 78t-174.5 215q-63 -139 -186 -216t-284 -77q-153 0 -271.5 70t-184.5 200t-66 303q0 172 66 300.5t184.5 197.5
t271.5 69q162 0 286 -77t186 -217q57 137 168.5 215.5t263.5 78.5q166 0 271.5 -76t152.5 -189.5t47 -231.5q0 -27 -2 -55zM860 131q93 55 146.5 157t58.5 238v24q0 22 1 32q-4 137 -57.5 239t-147 157.5t-215.5 55.5q-125 0 -219 -58t-145.5 -166t-51.5 -252
q0 -146 51.5 -255t145.5 -168t219 -59q121 0 214 55zM1362 980.5q-82 -53.5 -129.5 -147t-55.5 -211.5h737q0 8 0.5 19.5t-0.5 26.5q-4 98 -43.5 181t-119.5 134t-200 51q-107 0 -189 -53.5z" />
    <glyph glyph-name="Racute" unicode="&#x154;" horiz-adv-x="1411" 
d="M1166 0l-436 704q-57 -4 -142 -4h-211v-700h-110v1570h321q143 0 235.5 -14t150.5 -40.5t103 -68.5q121 -113 121 -313q0 -93 -27 -170t-80 -131q-42 -44 -99.5 -72t-142.5 -43v-14l447 -704h-130zM785 809q83 11 137 35t92 67q37 41 56 98.5t19 126.5q0 146 -87 235
q-37 36 -87 57.5t-132 32t-211 10.5h-195v-673h195q130 0 213 11zM904 2030h115l-270 -316h-84z" />
    <glyph glyph-name="racute" unicode="&#x155;" horiz-adv-x="809" 
d="M213 1110h99l7 -183h11q50 100 137 149t189 49q56 0 104 -11v-109h-9q-67 20 -116 20q-132 0 -216 -84q-50 -49 -75 -131.5t-25 -212.5v-597h-106v1110zM632 1570h115l-270 -316h-84z" />
    <glyph glyph-name="uni0156" unicode="&#x156;" horiz-adv-x="1411" 
d="M1166 0l-436 704q-57 -4 -142 -4h-211v-700h-110v1570h321q143 0 235.5 -14t150.5 -40.5t103 -68.5q121 -113 121 -313q0 -93 -27 -170t-80 -131q-42 -44 -99.5 -72t-142.5 -43v-14l447 -704h-130zM785 809q83 11 137 35t92 67q37 41 56 98.5t19 126.5q0 146 -87 235
q-37 36 -87 57.5t-132 32t-211 10.5h-195v-673h195q130 0 213 11zM810.5 -164q37.5 -49 37.5 -120q0 -56 -23.5 -118t-72 -114.5t-119.5 -78.5l-26 59q52 20 92 57.5t61 83t21 87.5q0 35 -13 62q-13 -21 -34.5 -32.5t-46.5 -11.5q-39 0 -66.5 26t-27.5 63q0 35 30 60.5
t73 25.5q77 0 114.5 -49z" />
    <glyph glyph-name="uni0157" unicode="&#x157;" horiz-adv-x="809" 
d="M213 1110h99l7 -183h11q50 100 137 149t189 49q56 0 104 -11v-109h-9q-67 20 -116 20q-132 0 -216 -84q-50 -49 -75 -131.5t-25 -212.5v-597h-106v1110zM515.5 -164q37.5 -49 37.5 -120q0 -56 -23.5 -118t-72 -114.5t-119.5 -78.5l-26 59q52 20 92 57.5t61 83t21 87.5
q0 35 -13 62q-13 -21 -34.5 -32.5t-46.5 -11.5q-39 0 -66.5 26t-27.5 63q0 35 30 60.5t73 25.5q77 0 114.5 -49z" />
    <glyph glyph-name="Rcaron" unicode="&#x158;" horiz-adv-x="1411" 
d="M1166 0l-436 704q-57 -4 -142 -4h-211v-700h-110v1570h321q143 0 235.5 -14t150.5 -40.5t103 -68.5q121 -113 121 -313q0 -93 -27 -170t-80 -131q-42 -44 -99.5 -72t-142.5 -43v-14l447 -704h-130zM785 809q83 11 137 35t92 67q37 41 56 98.5t19 126.5q0 146 -87 235
q-37 36 -87 57.5t-132 32t-211 10.5h-195v-673h195q130 0 213 11zM377 2030h95l235 -232l236 232h94l-330 -333z" />
    <glyph glyph-name="rcaron" unicode="&#x159;" horiz-adv-x="809" 
d="M213 1110h99l7 -183h11q50 100 137 149t189 49q56 0 104 -11v-109h-9q-67 20 -116 20q-132 0 -216 -84q-50 -49 -75 -131.5t-25 -212.5v-597h-106v1110zM105 1570h95l235 -232l236 232h94l-330 -333z" />
    <glyph glyph-name="Sacute" unicode="&#x15a;" horiz-adv-x="1281" 
d="M408.5 35.5q-111.5 49.5 -184.5 144.5t-95 227l108 26q17 -111 73 -189t144.5 -118.5t200.5 -40.5t197.5 43t132.5 118t47 170q0 104 -54 172.5t-133 110t-212 91.5q-140 54 -222.5 97.5t-139.5 118.5t-57 190q0 114 56.5 202.5t154.5 137.5t217 49q146 0 253.5 -59.5
t180.5 -185.5l-90 -57q-59 105 -143.5 154.5t-203.5 49.5q-89 0 -161 -37.5t-113.5 -103t-41.5 -147.5q0 -87 48.5 -145.5t120.5 -94.5t197 -83q147 -55 236.5 -103t152.5 -133t63 -216q0 -127 -61.5 -227t-172 -155.5t-251.5 -55.5q-136 0 -247.5 49.5zM832 2030h115
l-270 -316h-84z" />
    <glyph glyph-name="sacute" unicode="&#x15b;" horiz-adv-x="1043" 
d="M358.5 21q-92.5 36 -158 102.5t-94.5 154.5l98 35q35 -112 129.5 -174.5t225.5 -62.5q126 0 195.5 57.5t69.5 162.5q0 61 -24.5 102t-70.5 68q-40 23 -94.5 39.5t-138.5 34.5q-73 16 -119 28.5t-83 29.5q-152 71 -152 230q0 90 45 157t127 103.5t188 36.5
q140 0 239.5 -62.5t145.5 -177.5l-92 -42q-34 94 -109.5 142.5t-186.5 48.5q-76 0 -132.5 -23.5t-87.5 -67t-31 -101.5q0 -52 23.5 -87t68.5 -60q34 -18 80 -31t118 -28q93 -21 151.5 -38t106.5 -45q64 -38 99.5 -96.5t35.5 -149.5q0 -98 -46 -170.5t-130 -112t-196 -39.5
q-108 0 -200.5 36zM711 1570h115l-270 -316h-84z" />
    <glyph glyph-name="Scedilla" unicode="&#x15e;" horiz-adv-x="1281" 
d="M1082.5 202q-58.5 -98 -163 -154.5t-239.5 -61.5l-79 -134q26 -3 54 -12q51 -18 79.5 -55.5t28.5 -88.5q0 -46 -25 -83.5t-68.5 -59t-98.5 -21.5q-45 0 -89.5 15.5t-82.5 46.5l32 53q29 -28 68 -41.5t76 -13.5q57 0 92 29t35 75q0 36 -22 62t-62 38q-40 13 -99 13
l101 178q-128 7 -231.5 58t-171 143.5t-88.5 218.5l108 26q17 -111 73 -189t144.5 -118.5t200.5 -40.5t197.5 43t132.5 118t47 170q0 104 -54 172.5t-133 110t-212 91.5q-140 54 -222.5 97.5t-139.5 118.5t-57 190q0 114 56.5 202.5t154.5 137.5t217 49q146 0 253.5 -59.5
t180.5 -185.5l-90 -57q-59 105 -143.5 154.5t-203.5 49.5q-89 0 -161 -37.5t-113.5 -103t-41.5 -147.5q0 -87 48.5 -145.5t120.5 -94.5t197 -83q147 -55 236.5 -103t152.5 -133t63 -216q0 -124 -58.5 -222z" />
    <glyph glyph-name="scedilla" unicode="&#x15f;" horiz-adv-x="1043" 
d="M553 -15l-78 -133q26 -3 54 -12q51 -18 79.5 -55.5t28.5 -88.5q0 -46 -25 -83.5t-68.5 -59t-98.5 -21.5q-45 0 -89.5 15.5t-82.5 46.5l32 53q29 -28 68 -41.5t76 -13.5q57 0 92 29t35 75q0 36 -22 62t-62 38q-40 13 -99 13l101 179q-141 16 -244.5 93t-143.5 197l98 35
q35 -112 129.5 -174.5t225.5 -62.5q126 0 195.5 57.5t69.5 162.5q0 61 -24.5 102t-70.5 68q-40 23 -94.5 39.5t-138.5 34.5q-73 16 -119 28.5t-83 29.5q-152 71 -152 230q0 90 45 157t127 103.5t188 36.5q140 0 239.5 -62.5t145.5 -177.5l-92 -42q-34 94 -109.5 142.5
t-186.5 48.5q-76 0 -132.5 -23.5t-87.5 -67t-31 -101.5q0 -52 23.5 -87t68.5 -60q34 -18 80 -31t118 -28q93 -21 151.5 -38t106.5 -45q64 -38 99.5 -96.5t35.5 -149.5q0 -98 -46 -170.5t-130 -112t-196 -39.5h-6z" />
    <glyph glyph-name="Scaron" unicode="&#x160;" horiz-adv-x="1281" 
d="M408.5 35.5q-111.5 49.5 -184.5 144.5t-95 227l108 26q17 -111 73 -189t144.5 -118.5t200.5 -40.5t197.5 43t132.5 118t47 170q0 104 -54 172.5t-133 110t-212 91.5q-140 54 -222.5 97.5t-139.5 118.5t-57 190q0 114 56.5 202.5t154.5 137.5t217 49q146 0 253.5 -59.5
t180.5 -185.5l-90 -57q-59 105 -143.5 154.5t-203.5 49.5q-89 0 -161 -37.5t-113.5 -103t-41.5 -147.5q0 -87 48.5 -145.5t120.5 -94.5t197 -83q147 -55 236.5 -103t152.5 -133t63 -216q0 -127 -61.5 -227t-172 -155.5t-251.5 -55.5q-136 0 -247.5 49.5zM305 2030h95
l235 -232l236 232h94l-330 -333z" />
    <glyph glyph-name="scaron" unicode="&#x161;" horiz-adv-x="1043" 
d="M358.5 21q-92.5 36 -158 102.5t-94.5 154.5l98 35q35 -112 129.5 -174.5t225.5 -62.5q126 0 195.5 57.5t69.5 162.5q0 61 -24.5 102t-70.5 68q-40 23 -94.5 39.5t-138.5 34.5q-73 16 -119 28.5t-83 29.5q-152 71 -152 230q0 90 45 157t127 103.5t188 36.5
q140 0 239.5 -62.5t145.5 -177.5l-92 -42q-34 94 -109.5 142.5t-186.5 48.5q-76 0 -132.5 -23.5t-87.5 -67t-31 -101.5q0 -52 23.5 -87t68.5 -60q34 -18 80 -31t118 -28q93 -21 151.5 -38t106.5 -45q64 -38 99.5 -96.5t35.5 -149.5q0 -98 -46 -170.5t-130 -112t-196 -39.5
q-108 0 -200.5 36zM184 1570h95l235 -232l236 232h94l-330 -333z" />
    <glyph glyph-name="uni0162" unicode="&#x162;" horiz-adv-x="1424" 
d="M659 1471h-568v99h1242v-99h-565v-1471h-109v1471zM536.5 -452.5q-44.5 15.5 -82.5 46.5l32 53q29 -28 68 -41.5t76 -13.5q57 0 92 29t35 75q0 36 -22 62t-62 38q-40 13 -99 13l108 191h61l-87 -148q26 -3 54 -12q51 -18 79.5 -55.5t28.5 -88.5q0 -46 -25 -83.5
t-68.5 -59t-98.5 -21.5q-45 0 -89.5 15.5z" />
    <glyph glyph-name="uni0163" unicode="&#x163;" horiz-adv-x="751" 
d="M542.5 -215.5q28.5 -37.5 28.5 -88.5q0 -46 -25 -83.5t-68.5 -59t-98.5 -21.5q-45 0 -89.5 15.5t-82.5 46.5l32 53q29 -28 68 -41.5t76 -13.5q57 0 92 29t35 75q0 36 -22 62t-62 38q-40 13 -99 13l107 190q-106 31 -147.5 121t-41.5 192v707h-186v91h187v313l104 80v-393
h306v-91h-306v-695q0 -101 40 -174.5t161 -73.5q25 0 53 4t48 10l18 -88q-26 -7 -62 -12t-72 -5q-24 0 -47 3l-80 -136q26 -3 54 -12q51 -18 79.5 -55.5z" />
    <glyph glyph-name="Tcaron" unicode="&#x164;" horiz-adv-x="1424" 
d="M659 1471h-568v99h1242v-99h-565v-1471h-109v1471zM386 2030h95l235 -232l236 232h94l-330 -333z" />
    <glyph glyph-name="tcaron" unicode="&#x165;" horiz-adv-x="751" 
d="M308 85q-63 100 -63 227v707h-186v91h187v313l104 80v-393h306v-91h-306v-695q0 -101 40 -174.5t161 -73.5q25 0 53 4t48 10l18 -88q-26 -7 -62 -12t-72 -5q-165 0 -228 100zM762.5 1754q38.5 -56 38.5 -139q0 -64 -24 -132.5t-73 -126t-119 -86.5l-26 59q53 24 92.5 68
t60.5 97.5t21 104.5q0 42 -14 73q-12 -22 -33.5 -34.5t-46.5 -12.5q-39 0 -66 26.5t-27 66.5q0 39 28 65.5t70 26.5q80 0 118.5 -56z" />
    <glyph glyph-name="Tbar" unicode="&#x166;" horiz-adv-x="1424" 
d="M768 1471v-649h301v-75h-301v-747h-109v747h-296v75h296v649h-568v99h1242v-99h-565z" />
    <glyph glyph-name="tbar" unicode="&#x167;" horiz-adv-x="751" 
d="M350 517v-193q0 -101 40 -174.5t161 -73.5q25 0 53 4t48 10l18 -88q-26 -7 -62 -12t-72 -5q-165 0 -228 100t-63 227v205h-223v75h223v427h-186v91h187v313l104 80v-393h306v-91h-306v-427h378v-75h-378z" />
    <glyph glyph-name="Utilde" unicode="&#x168;" horiz-adv-x="1577" 
d="M544 26q-107 41 -179 117q-64 70 -95.5 167t-31.5 234v1026h109v-1023q0 -107 23 -187t75 -139q56 -66 142.5 -102t200.5 -36q115 0 201.5 35.5t143.5 102.5q50 58 73.5 136t23.5 190v1023h109v-1026q0 -136 -31 -232.5t-96 -168.5q-70 -76 -177.5 -117t-246.5 -41
q-137 0 -244 41zM871 1774.5q-34 16.5 -56 40t-50 62.5q-23 32 -39 50.5t-38 30.5t-52 12q-60 1 -94 -49.5t-34 -138.5h-67q0 122 53 191t144 67q44 0 76 -15.5t53 -38.5t48 -60q35 -48 64 -72t73 -24q52 0 85 54.5t33 145.5h70q0 -81 -23.5 -143t-66 -95.5t-98.5 -33.5
q-47 0 -81 16.5z" />
    <glyph glyph-name="utilde" unicode="&#x169;" horiz-adv-x="1239" 
d="M419 7q-66 22 -111 61q-61 55 -91 140.5t-30 223.5v678h105v-640q0 -125 21 -200.5t69 -120.5q76 -73 215 -73q72 0 130.5 22.5t99.5 65.5q48 49 70.5 123t22.5 191v632h106v-1110h-106v177h-6q-42 -87 -133 -139.5t-214 -52.5q-82 0 -148 22zM698 1314.5
q-34 16.5 -56 40t-50 62.5q-23 32 -39 50.5t-38 30.5t-52 12q-60 1 -94 -49.5t-34 -138.5h-67q0 122 53 191t144 67q44 0 76 -15.5t53 -38.5t48 -60q35 -48 64 -72t73 -24q52 0 85 54.5t33 145.5h70q0 -81 -23.5 -143t-66 -95.5t-98.5 -33.5q-47 0 -81 16.5z" />
    <glyph glyph-name="Umacron" unicode="&#x16a;" horiz-adv-x="1577" 
d="M544 26q-107 41 -179 117q-64 70 -95.5 167t-31.5 234v1026h109v-1023q0 -107 23 -187t75 -139q56 -66 142.5 -102t200.5 -36q115 0 201.5 35.5t143.5 102.5q50 58 73.5 136t23.5 190v1023h109v-1026q0 -136 -31 -232.5t-96 -168.5q-70 -76 -177.5 -117t-246.5 -41
q-137 0 -244 41zM488 1911h605v-69h-605v69z" />
    <glyph glyph-name="umacron" unicode="&#x16b;" horiz-adv-x="1239" 
d="M419 7q-66 22 -111 61q-61 55 -91 140.5t-30 223.5v678h105v-640q0 -125 21 -200.5t69 -120.5q76 -73 215 -73q72 0 130.5 22.5t99.5 65.5q48 49 70.5 123t22.5 191v632h106v-1110h-106v177h-6q-42 -87 -133 -139.5t-214 -52.5q-82 0 -148 22zM315 1451h605v-69h-605v69z
" />
    <glyph glyph-name="Uring" unicode="&#x16e;" horiz-adv-x="1577" 
d="M544 26q-107 41 -179 117q-64 70 -95.5 167t-31.5 234v1026h109v-1023q0 -107 23 -187t75 -139q56 -66 142.5 -102t200.5 -36q115 0 201.5 35.5t143.5 102.5q50 58 73.5 136t23.5 190v1023h109v-1026q0 -136 -31 -232.5t-96 -168.5q-70 -76 -177.5 -117t-246.5 -41
q-137 0 -244 41zM686.5 1712.5q-46.5 27.5 -73 74t-26.5 101.5q0 56 27 102t73.5 73t101.5 27q54 0 100.5 -27.5t74.5 -74t28 -100.5q0 -56 -27 -102.5t-73.5 -73.5t-102.5 -27t-102.5 27.5zM859 1767.5q32 18.5 50.5 51t18.5 70.5t-18 69.5t-50 50t-71 18.5
q-38 0 -70 -18.5t-50.5 -50.5t-18.5 -69q0 -39 18.5 -71t50 -50.5t70.5 -18.5q38 0 70 18.5z" />
    <glyph glyph-name="uring" unicode="&#x16f;" horiz-adv-x="1239" 
d="M419 7q-66 22 -111 61q-61 55 -91 140.5t-30 223.5v678h105v-640q0 -125 21 -200.5t69 -120.5q76 -73 215 -73q72 0 130.5 22.5t99.5 65.5q48 49 70.5 123t22.5 191v632h106v-1110h-106v177h-6q-42 -87 -133 -139.5t-214 -52.5q-82 0 -148 22zM513.5 1252.5
q-46.5 27.5 -73 74t-26.5 101.5q0 56 27 102t73.5 73t101.5 27q54 0 100.5 -27.5t74.5 -74t28 -100.5q0 -56 -27 -102.5t-73.5 -73.5t-102.5 -27t-102.5 27.5zM686 1307.5q32 18.5 50.5 51t18.5 70.5t-18 69.5t-50 50t-71 18.5q-38 0 -70 -18.5t-50.5 -50.5t-18.5 -69
q0 -39 18.5 -71t50 -50.5t70.5 -18.5q38 0 70 18.5z" />
    <glyph glyph-name="Uhungarumlaut" unicode="&#x170;" horiz-adv-x="1577" 
d="M544 26q-107 41 -179 117q-64 70 -95.5 167t-31.5 234v1026h109v-1023q0 -107 23 -187t75 -139q56 -66 142.5 -102t200.5 -36q115 0 201.5 35.5t143.5 102.5q50 58 73.5 136t23.5 190v1023h109v-1026q0 -136 -31 -232.5t-96 -168.5q-70 -76 -177.5 -117t-246.5 -41
q-137 0 -244 41zM794 2030h99l-242 -316h-86zM1156 2030h115l-256 -316h-88z" />
    <glyph glyph-name="uhungarumlaut" unicode="&#x171;" horiz-adv-x="1239" 
d="M419 7q-66 22 -111 61q-61 55 -91 140.5t-30 223.5v678h105v-640q0 -125 21 -200.5t69 -120.5q76 -73 215 -73q72 0 130.5 22.5t99.5 65.5q48 49 70.5 123t22.5 191v632h106v-1110h-106v177h-6q-42 -87 -133 -139.5t-214 -52.5q-82 0 -148 22zM621 1570h99l-242 -316h-86
zM983 1570h115l-256 -316h-88z" />
    <glyph glyph-name="Uogonek" unicode="&#x172;" horiz-adv-x="1577" 
d="M1339 1570v-1026q0 -136 -31 -232.5t-96 -168.5q-68 -74 -169 -114q-83 -55 -129.5 -122.5t-46.5 -130.5q0 -65 46.5 -103t135.5 -38v-71q-128 0 -197 51t-69 136q0 61 35.5 124.5t102.5 120.5q-64 -11 -133 -11q-137 0 -244 41t-179 117q-64 70 -95.5 167t-31.5 234
v1026h109v-1023q0 -107 23 -187t75 -139q56 -66 142.5 -102t200.5 -36q115 0 201.5 35.5t143.5 102.5q50 58 73.5 136t23.5 190v1023h109z" />
    <glyph glyph-name="uogonek" unicode="&#x173;" horiz-adv-x="1239" 
d="M892 -124q-48 -69 -48 -133q0 -65 46.5 -103t135.5 -38v-71q-128 0 -197 51t-69 136q0 72 48.5 146t138.5 136h-27v177h-6q-42 -87 -133 -139.5t-214 -52.5q-82 0 -148 22t-111 61q-61 55 -91 140.5t-30 223.5v678h105v-640q0 -125 21 -200.5t69 -120.5q76 -73 215 -73
q72 0 130.5 22.5t99.5 65.5q48 49 70.5 123t22.5 191v632h106v-1110q-86 -55 -134 -124z" />
    <glyph glyph-name="Wcircumflex" unicode="&#x174;" horiz-adv-x="2475" 
d="M102 1570h119l492 -1443h12l447 1375h131l447 -1375h11l493 1443h118l-550 -1570h-135l-445 1351h-10l-445 -1351h-134zM1237 2044l330 -342h-95l-235 236l-236 -236h-93z" />
    <glyph glyph-name="wcircumflex" unicode="&#x175;" horiz-adv-x="1925" 
d="M64 1110h115l388 -1027h17l317 1027h123l317 -1027h18l387 1027h115l-425 -1110h-171l-296 939h-12l-297 -939h-171zM962 1584l330 -342h-95l-235 236l-236 -236h-93z" />
    <glyph glyph-name="Ycircumflex" unicode="&#x176;" horiz-adv-x="1488" 
d="M688 586l-600 984h127l528 -868h1l529 868h128l-603 -984v-586h-110v586zM743 2044l330 -342h-95l-235 236l-236 -236h-93z" />
    <glyph glyph-name="ycircumflex" unicode="&#x177;" horiz-adv-x="1128" 
d="M506 10l-448 1100h116l388 -980h2l388 980h118l-639 -1570h-115zM563 1584l330 -342h-95l-235 236l-236 -236h-93z" />
    <glyph glyph-name="Ydieresis" unicode="&#x178;" horiz-adv-x="1488" 
d="M688 586l-600 984h127l528 -868h1l529 868h128l-603 -984v-586h-110v586zM481 1773.5q-27 27.5 -27 66.5q0 38 27 64.5t67 26.5q38 0 65 -27t27 -64q0 -39 -27 -66.5t-65 -27.5q-40 0 -67 27.5zM875 1773.5q-27 27.5 -27 66.5q0 38 27 64.5t66 26.5q38 0 65 -27t27 -64
q0 -39 -27 -66.5t-65 -27.5q-39 0 -66 27.5z" />
    <glyph glyph-name="Zacute" unicode="&#x179;" horiz-adv-x="1454" 
d="M118 108l1065 1354v9h-1018v99h1154v-108l-1065 -1354v-9h1073v-99h-1209v108zM927 2030h115l-270 -316h-84z" />
    <glyph glyph-name="zacute" unicode="&#x17a;" horiz-adv-x="1072" 
d="M85 100l757 905v14h-720v91h851v-104l-757 -905v-10h757v-91h-888v100zM729 1570h115l-270 -316h-84z" />
    <glyph glyph-name="Zdotaccent" unicode="&#x17b;" horiz-adv-x="1454" 
d="M118 108l1065 1354v9h-1018v99h1154v-108l-1065 -1354v-9h1073v-99h-1209v108zM663 1773.5q-27 27.5 -27 66.5q0 38 27 64.5t67 26.5q38 0 65 -27t27 -64q0 -39 -27 -66.5t-65 -27.5q-40 0 -67 27.5z" />
    <glyph glyph-name="zdotaccent" unicode="&#x17c;" horiz-adv-x="1072" 
d="M85 100l757 905v14h-720v91h851v-104l-757 -905v-10h757v-91h-888v100zM465 1434q-27 27 -27 67q0 38 27.5 65t66.5 27q37 0 64.5 -27t27.5 -65q0 -39 -27 -66.5t-65 -27.5q-40 0 -67 27z" />
    <glyph glyph-name="Zcaron" unicode="&#x17d;" horiz-adv-x="1454" 
d="M118 108l1065 1354v9h-1018v99h1154v-108l-1065 -1354v-9h1073v-99h-1209v108zM400 2030h95l235 -232l236 232h94l-330 -333z" />
    <glyph glyph-name="zcaron" unicode="&#x17e;" horiz-adv-x="1072" 
d="M85 100l757 905v14h-720v91h851v-104l-757 -905v-10h757v-91h-888v100zM202 1570h95l235 -232l236 232h94l-330 -333z" />
    <glyph glyph-name="florin" unicode="&#x192;" horiz-adv-x="1176" 
d="M163 -429q120 0 194 34.5t109 108.5t35 196v1117h-192v83h192v145q0 101 35 177t98.5 117.5t146.5 41.5q63 0 122.5 -23.5t109.5 -67.5l-58 -70q-82 70 -174 70q-87 0 -138 -64.5t-51 -180.5v-145h318v-83h-318v-1125q0 -211 -107.5 -312.5t-321.5 -101.5v83z" />
    <glyph glyph-name="uni01C4" unicode="&#x1c4;" horiz-adv-x="3072" 
d="M267 1570h329q166 0 285 -20t204.5 -58.5t155.5 -99.5q115 -102 175 -258t60 -360q0 -195 -57.5 -343.5t-169.5 -247.5q-111 -98 -263.5 -140.5t-391.5 -42.5h-327v1570zM585 99q228 0 362.5 40t227.5 126q94 87 142.5 216t48.5 296q0 353 -196 534q-97 87 -229.5 123.5
t-345.5 36.5h-218v-1372h208zM1736 108l1065 1354v9h-1018v99h1154v-108l-1065 -1354v-9h1073v-99h-1209v108zM2018 2030h95l235 -232l236 232h94l-330 -333z" />
    <glyph glyph-name="uni01C5" unicode="&#x1c5;" horiz-adv-x="2715" 
d="M267 1570h329q166 0 285 -20t204.5 -58.5t155.5 -99.5q115 -102 175 -258t60 -360q0 -195 -57.5 -343.5t-169.5 -247.5q-111 -98 -263.5 -140.5t-391.5 -42.5h-327v1570zM585 99q228 0 362.5 40t227.5 126q94 87 142.5 216t48.5 296q0 353 -196 534q-97 87 -229.5 123.5
t-345.5 36.5h-218v-1372h208zM1728 100l757 905v14h-720v91h851v-104l-757 -905v-10h757v-91h-888v100zM1845 1570h95l235 -232l236 232h94l-330 -333z" />
    <glyph glyph-name="uni01C6" unicode="&#x1c6;" horiz-adv-x="2444" 
d="M367 52q-114 67 -177 195.5t-63 308.5t63 308t176 194.5t261 66.5q144 0 253.5 -71.5t163.5 -191.5h7v708h106v-1570h-106v245h-7q-55 -120 -164 -190t-249 -70q-150 0 -264 67zM860 136.5q94 60.5 146.5 170t52.5 249.5t-52.5 248.5t-146 169t-214.5 60.5t-214.5 -55
t-146 -163t-52.5 -260q0 -153 52.5 -261t146 -163.5t214.5 -55.5q120 0 214 60.5zM1457 100l757 905v14h-720v91h851v-104l-757 -905v-10h757v-91h-888v100zM1574 1570h95l235 -232l236 232h94l-330 -333z" />
    <glyph glyph-name="uni01C7" unicode="&#x1c7;" horiz-adv-x="2564" 
d="M267 1570h110v-1471h732v-99h-842v1570zM1589 42q-107 54 -168.5 157t-69.5 245l109 13q7 -121 61 -207.5t145 -127.5q76 -39 177 -39q183 0 282 113q47 56 68.5 147.5t21.5 260.5v867h-655v99h764v-966q0 -182 -26.5 -291.5t-90.5 -183.5q-125 -144 -364 -144
q-146 0 -254 57z" />
    <glyph glyph-name="uni01C8" unicode="&#x1c8;" horiz-adv-x="1735" 
d="M267 1570h110v-1471h732v-99h-842v1570zM1169 -468.5q-53 9.5 -101 25.5l31 91q31 -13 68 -20.5t63 -7.5q50 0 84.5 14.5t57.5 43.5t33 73.5t10 113.5v1245h106v-1264q0 -83 -13.5 -142.5t-45.5 -100.5q-65 -81 -205 -81q-35 0 -88 9.5zM1402 1434q-27 27 -27 67
q0 38 27.5 65t66.5 27q37 0 64.5 -27t27.5 -65q0 -39 -27 -66.5t-65 -27.5q-40 0 -67 27z" />
    <glyph glyph-name="uni01C9" unicode="&#x1c9;" horiz-adv-x="1132" 
d="M257 35q-31 32 -40.5 88.5t-9.5 168.5v1278h106v-1257v-33q0 -74 5.5 -110.5t25.5 -59.5q29 -34 100 -34q42 0 90 12l16 -82q-69 -21 -139 -21q-103 0 -154 50zM566 -468.5q-53 9.5 -101 25.5l31 91q31 -13 68 -20.5t63 -7.5q50 0 84.5 14.5t57.5 43.5t33 73.5t10 113.5
v1245h106v-1264q0 -83 -13.5 -142.5t-45.5 -100.5q-65 -81 -205 -81q-35 0 -88 9.5zM799 1434q-27 27 -27 67q0 38 27.5 65t66.5 27q37 0 64.5 -27t27.5 -65q0 -39 -27 -66.5t-65 -27.5q-40 0 -67 27z" />
    <glyph glyph-name="uni01CA" unicode="&#x1ca;" horiz-adv-x="2949" 
d="M267 1570h166l808 -1432h12v1432h108v-1570h-167l-807 1434h-10v-1434h-110v1570zM1974 42q-107 54 -168.5 157t-69.5 245l109 13q7 -121 61 -207.5t145 -127.5q76 -39 177 -39q183 0 282 113q47 56 68.5 147.5t21.5 260.5v867h-655v99h764v-966q0 -182 -26.5 -291.5
t-90.5 -183.5q-125 -144 -364 -144q-146 0 -254 57z" />
    <glyph glyph-name="uni01CB" unicode="&#x1cb;" horiz-adv-x="2163" 
d="M267 1570h166l808 -1432h12v1432h108v-1570h-167l-807 1434h-10v-1434h-110v1570zM1597 -468.5q-53 9.5 -101 25.5l31 91q31 -13 68 -20.5t63 -7.5q50 0 84.5 14.5t57.5 43.5t33 73.5t10 113.5v1245h106v-1264q0 -83 -13.5 -142.5t-45.5 -100.5q-65 -81 -205 -81
q-35 0 -88 9.5zM1830 1434q-27 27 -27 67q0 38 27.5 65t66.5 27q37 0 64.5 -27t27.5 -65q0 -39 -27 -66.5t-65 -27.5q-40 0 -67 27z" />
    <glyph glyph-name="uni01CC" unicode="&#x1cc;" horiz-adv-x="1775" 
d="M213 1110h106v-177h6q42 87 133 139.5t214 52.5q82 0 148 -22t111 -61q61 -54 91 -140t30 -224v-678h-105v641q0 125 -21 200t-69 120q-76 73 -215 73q-72 0 -130.5 -22.5t-99.5 -64.5q-48 -49 -70.5 -123t-22.5 -191v-633h-106v1110zM1209 -468.5q-53 9.5 -101 25.5
l31 91q31 -13 68 -20.5t63 -7.5q50 0 84.5 14.5t57.5 43.5t33 73.5t10 113.5v1245h106v-1264q0 -83 -13.5 -142.5t-45.5 -100.5q-65 -81 -205 -81q-35 0 -88 9.5zM1442 1434q-27 27 -27 67q0 38 27.5 65t66.5 27q37 0 64.5 -27t27.5 -65q0 -39 -27 -66.5t-65 -27.5
q-40 0 -67 27z" />
    <glyph glyph-name="uni01CD" unicode="&#x1cd;" horiz-adv-x="1440" 
d="M1087 390h-731l-133 -390h-121l551 1570h134l551 -1570h-118zM1054 488l-329 964h-5l-330 -964h664zM391 2030h95l235 -232l236 232h94l-330 -333z" />
    <glyph glyph-name="uni01CE" unicode="&#x1ce;" horiz-adv-x="1197" 
d="M992 862.5q19 -76.5 19 -198.5v-664h-105v223h-9q-22 -51 -59.5 -91.5t-80.5 -67.5q-115 -79 -264 -79q-116 0 -202 40.5t-132 115t-46 174.5q0 190 143 269q54 30 126.5 41.5t189.5 11.5h334v22q0 113 -18.5 180t-59.5 109t-105.5 64t-146.5 22q-110 0 -196 -43
t-164 -137l-67 71q91 104 194 152t233 48q119 0 207 -33t142 -96q48 -57 67 -133.5zM866 287q27 61 33.5 116.5t6.5 127.5v15h-328q-114 0 -174.5 -11t-100.5 -37q-40 -27 -62.5 -72.5t-22.5 -110.5q0 -112 77 -177.5t214 -65.5q163 0 274 102q56 52 83 113zM265 1570h95
l235 -232l236 232h94l-330 -333z" />
    <glyph glyph-name="uni01CF" unicode="&#x1cf;" horiz-adv-x="644" 
d="M267 1570h110v-1570h-110v1570zM-9 2030h95l235 -232l236 232h94l-330 -333z" />
    <glyph glyph-name="uni01D0" unicode="&#x1d0;" horiz-adv-x="531" 
d="M213 1110h106v-1110h-106v1110zM-65 1570h95l235 -232l236 232h94l-330 -333z" />
    <glyph glyph-name="uni01D1" unicode="&#x1d1;" horiz-adv-x="1744" 
d="M487.5 89q-158.5 104 -239.5 285t-81 411t81 411t239.5 285t382.5 104q226 0 385.5 -104t240.5 -285t81 -411t-81 -411t-240.5 -285t-385.5 -104q-224 0 -382.5 104zM1197.5 174q134.5 91 202.5 250t68 361t-68 361t-202.5 250t-327.5 91q-191 0 -325 -91t-201.5 -250
t-67.5 -361t67.5 -361t201.5 -250t325 -91q193 0 327.5 91zM542 2030h95l235 -232l236 232h94l-330 -333z" />
    <glyph glyph-name="uni01D2" unicode="&#x1d2;" horiz-adv-x="1295" 
d="M374.5 55q-118.5 70 -184.5 200t-66 303q0 172 66 300.5t184.5 197.5t271.5 69t272.5 -69.5t186.5 -198t67 -299.5q0 -173 -67 -302.5t-186.5 -200t-272.5 -70.5t-271.5 70zM866.5 135.5q95.5 59.5 147.5 168.5t52 254q0 143 -52 251t-147 166.5t-221 58.5
q-125 0 -219 -58t-145.5 -166t-51.5 -252q0 -146 51.5 -255t145.5 -168t219 -59t220.5 59.5zM317 1570h95l235 -232l236 232h94l-330 -333z" />
    <glyph glyph-name="uni01D3" unicode="&#x1d3;" horiz-adv-x="1577" 
d="M544 26q-107 41 -179 117q-64 70 -95.5 167t-31.5 234v1026h109v-1023q0 -107 23 -187t75 -139q56 -66 142.5 -102t200.5 -36q115 0 201.5 35.5t143.5 102.5q50 58 73.5 136t23.5 190v1023h109v-1026q0 -136 -31 -232.5t-96 -168.5q-70 -76 -177.5 -117t-246.5 -41
q-137 0 -244 41zM460 2030h95l235 -232l236 232h94l-330 -333z" />
    <glyph glyph-name="uni01D4" unicode="&#x1d4;" horiz-adv-x="1239" 
d="M419 7q-66 22 -111 61q-61 55 -91 140.5t-30 223.5v678h105v-640q0 -125 21 -200.5t69 -120.5q76 -73 215 -73q72 0 130.5 22.5t99.5 65.5q48 49 70.5 123t22.5 191v632h106v-1110h-106v177h-6q-42 -87 -133 -139.5t-214 -52.5q-82 0 -148 22zM287 1570h95l235 -232
l236 232h94l-330 -333z" />
    <glyph glyph-name="uni01D5" unicode="&#x1d5;" horiz-adv-x="1577" 
d="M544 26q-107 41 -179 117q-64 70 -95.5 167t-31.5 234v1026h109v-1023q0 -107 23 -187t75 -139q56 -66 142.5 -102t200.5 -36q115 0 201.5 35.5t143.5 102.5q50 58 73.5 136t23.5 190v1023h109v-1026q0 -136 -31 -232.5t-96 -168.5q-70 -76 -177.5 -117t-246.5 -41
q-137 0 -244 41zM527 1773.5q-27 27.5 -27 66.5q0 38 27 64.5t67 26.5q38 0 65 -27t27 -64q0 -39 -27 -66.5t-65 -27.5q-40 0 -67 27.5zM921 1773.5q-27 27.5 -27 66.5q0 38 27 64.5t66 26.5q38 0 65 -27t27 -64q0 -39 -27 -66.5t-65 -27.5q-39 0 -66 27.5zM488 2272h605
v-69h-605v69z" />
    <glyph glyph-name="uni01D6" unicode="&#x1d6;" horiz-adv-x="1239" 
d="M419 7q-66 22 -111 61q-61 55 -91 140.5t-30 223.5v678h105v-640q0 -125 21 -200.5t69 -120.5q76 -73 215 -73q72 0 130.5 22.5t99.5 65.5q48 49 70.5 123t22.5 191v632h106v-1110h-106v177h-6q-42 -87 -133 -139.5t-214 -52.5q-82 0 -148 22zM354 1434q-27 27 -27 67
q0 38 27.5 65t66.5 27q37 0 64.5 -27t27.5 -65q0 -39 -27 -66.5t-65 -27.5q-40 0 -67 27zM748 1434q-27 27 -27 67q0 38 27 65t66 27q37 0 64.5 -27t27.5 -65q0 -39 -27 -66.5t-65 -27.5q-39 0 -66 27zM315 1934h605v-69h-605v69z" />
    <glyph glyph-name="uni01D7" unicode="&#x1d7;" horiz-adv-x="1577" 
d="M544 26q-107 41 -179 117q-64 70 -95.5 167t-31.5 234v1026h109v-1023q0 -107 23 -187t75 -139q56 -66 142.5 -102t200.5 -36q115 0 201.5 35.5t143.5 102.5q50 58 73.5 136t23.5 190v1023h109v-1026q0 -136 -31 -232.5t-96 -168.5q-70 -76 -177.5 -117t-246.5 -41
q-137 0 -244 41zM527 1773.5q-27 27.5 -27 66.5q0 38 27 64.5t67 26.5q38 0 65 -27t27 -64q0 -39 -27 -66.5t-65 -27.5q-40 0 -67 27.5zM921 1773.5q-27 27.5 -27 66.5q0 38 27 64.5t66 26.5q38 0 65 -27t27 -64q0 -39 -27 -66.5t-65 -27.5q-39 0 -66 27.5zM987 2391h115
l-270 -316h-84z" />
    <glyph glyph-name="uni01D8" unicode="&#x1d8;" horiz-adv-x="1239" 
d="M419 7q-66 22 -111 61q-61 55 -91 140.5t-30 223.5v678h105v-640q0 -125 21 -200.5t69 -120.5q76 -73 215 -73q72 0 130.5 22.5t99.5 65.5q48 49 70.5 123t22.5 191v632h106v-1110h-106v177h-6q-42 -87 -133 -139.5t-214 -52.5q-82 0 -148 22zM354 1434q-27 27 -27 67
q0 38 27.5 65t66.5 27q37 0 64.5 -27t27.5 -65q0 -39 -27 -66.5t-65 -27.5q-40 0 -67 27zM748 1434q-27 27 -27 67q0 38 27 65t66 27q37 0 64.5 -27t27.5 -65q0 -39 -27 -66.5t-65 -27.5q-39 0 -66 27zM814 2053h115l-270 -316h-84z" />
    <glyph glyph-name="uni01D9" unicode="&#x1d9;" horiz-adv-x="1577" 
d="M544 26q-107 41 -179 117q-64 70 -95.5 167t-31.5 234v1026h109v-1023q0 -107 23 -187t75 -139q56 -66 142.5 -102t200.5 -36q115 0 201.5 35.5t143.5 102.5q50 58 73.5 136t23.5 190v1023h109v-1026q0 -136 -31 -232.5t-96 -168.5q-70 -76 -177.5 -117t-246.5 -41
q-137 0 -244 41zM527 1773.5q-27 27.5 -27 66.5q0 38 27 64.5t67 26.5q38 0 65 -27t27 -64q0 -39 -27 -66.5t-65 -27.5q-40 0 -67 27.5zM921 1773.5q-27 27.5 -27 66.5q0 38 27 64.5t66 26.5q38 0 65 -27t27 -64q0 -39 -27 -66.5t-65 -27.5q-39 0 -66 27.5zM460 2391h95
l235 -232l236 232h94l-330 -333z" />
    <glyph glyph-name="uni01DA" unicode="&#x1da;" horiz-adv-x="1239" 
d="M419 7q-66 22 -111 61q-61 55 -91 140.5t-30 223.5v678h105v-640q0 -125 21 -200.5t69 -120.5q76 -73 215 -73q72 0 130.5 22.5t99.5 65.5q48 49 70.5 123t22.5 191v632h106v-1110h-106v177h-6q-42 -87 -133 -139.5t-214 -52.5q-82 0 -148 22zM354 1434q-27 27 -27 67
q0 38 27.5 65t66.5 27q37 0 64.5 -27t27.5 -65q0 -39 -27 -66.5t-65 -27.5q-40 0 -67 27zM748 1434q-27 27 -27 67q0 38 27 65t66 27q37 0 64.5 -27t27.5 -65q0 -39 -27 -66.5t-65 -27.5q-39 0 -66 27zM287 2053h95l235 -232l236 232h94l-330 -333z" />
    <glyph glyph-name="uni01DB" unicode="&#x1db;" horiz-adv-x="1577" 
d="M544 26q-107 41 -179 117q-64 70 -95.5 167t-31.5 234v1026h109v-1023q0 -107 23 -187t75 -139q56 -66 142.5 -102t200.5 -36q115 0 201.5 35.5t143.5 102.5q50 58 73.5 136t23.5 190v1023h109v-1026q0 -136 -31 -232.5t-96 -168.5q-70 -76 -177.5 -117t-246.5 -41
q-137 0 -244 41zM527 1773.5q-27 27.5 -27 66.5q0 38 27 64.5t67 26.5q38 0 65 -27t27 -64q0 -39 -27 -66.5t-65 -27.5q-40 0 -67 27.5zM921 1773.5q-27 27.5 -27 66.5q0 38 27 64.5t66 26.5q38 0 65 -27t27 -64q0 -39 -27 -66.5t-65 -27.5q-39 0 -66 27.5zM484 2391h114
l235 -316h-87z" />
    <glyph glyph-name="uni01DC" unicode="&#x1dc;" horiz-adv-x="1239" 
d="M419 7q-66 22 -111 61q-61 55 -91 140.5t-30 223.5v678h105v-640q0 -125 21 -200.5t69 -120.5q76 -73 215 -73q72 0 130.5 22.5t99.5 65.5q48 49 70.5 123t22.5 191v632h106v-1110h-106v177h-6q-42 -87 -133 -139.5t-214 -52.5q-82 0 -148 22zM354 1434q-27 27 -27 67
q0 38 27.5 65t66.5 27q37 0 64.5 -27t27.5 -65q0 -39 -27 -66.5t-65 -27.5q-40 0 -67 27zM748 1434q-27 27 -27 67q0 38 27 65t66 27q37 0 64.5 -27t27.5 -65q0 -39 -27 -66.5t-65 -27.5q-39 0 -66 27zM311 2053h114l235 -316h-87z" />
    <glyph glyph-name="uni01EB" unicode="&#x1eb;" horiz-adv-x="1295" 
d="M636 -125.5q-47 -68.5 -47 -131.5q0 -65 46.5 -103t135.5 -38v-71q-128 0 -197 51t-69 136q0 67 43 137t124 131q-9 -1 -26 -1q-153 0 -271.5 70t-184.5 200t-66 303q0 172 66 300.5t184.5 197.5t271.5 69t272.5 -69.5t186.5 -198t67 -299.5q0 -149 -50.5 -267t-142 -193
t-212.5 -101q-84 -54 -131 -122.5zM281.5 303q51.5 -109 145.5 -168t219 -59t220.5 59.5t147.5 168.5t52 254q0 143 -52 251t-147 166.5t-221 58.5q-125 0 -219 -58t-145.5 -166t-51.5 -252q0 -146 51.5 -255z" />
    <glyph glyph-name="uni01F1" unicode="&#x1f1;" horiz-adv-x="3072" 
d="M267 1570h329q166 0 285 -20t204.5 -58.5t155.5 -99.5q115 -102 175 -258t60 -360q0 -195 -57.5 -343.5t-169.5 -247.5q-111 -98 -263.5 -140.5t-391.5 -42.5h-327v1570zM585 99q228 0 362.5 40t227.5 126q94 87 142.5 216t48.5 296q0 353 -196 534q-97 87 -229.5 123.5
t-345.5 36.5h-218v-1372h208zM1736 108l1065 1354v9h-1018v99h1154v-108l-1065 -1354v-9h1073v-99h-1209v108z" />
    <glyph glyph-name="uni01F2" unicode="&#x1f2;" horiz-adv-x="2715" 
d="M267 1570h329q166 0 285 -20t204.5 -58.5t155.5 -99.5q115 -102 175 -258t60 -360q0 -195 -57.5 -343.5t-169.5 -247.5q-111 -98 -263.5 -140.5t-391.5 -42.5h-327v1570zM585 99q228 0 362.5 40t227.5 126q94 87 142.5 216t48.5 296q0 353 -196 534q-97 87 -229.5 123.5
t-345.5 36.5h-218v-1372h208zM1728 100l757 905v14h-720v91h851v-104l-757 -905v-10h757v-91h-888v100z" />
    <glyph glyph-name="uni01F3" unicode="&#x1f3;" horiz-adv-x="2444" 
d="M367 52q-114 67 -177 195.5t-63 308.5t63 308t176 194.5t261 66.5q144 0 253.5 -71.5t163.5 -191.5h7v708h106v-1570h-106v245h-7q-55 -120 -164 -190t-249 -70q-150 0 -264 67zM860 136.5q94 60.5 146.5 170t52.5 249.5t-52.5 248.5t-146 169t-214.5 60.5t-214.5 -55
t-146 -163t-52.5 -260q0 -153 52.5 -261t146 -163.5t214.5 -55.5q120 0 214 60.5zM1457 100l757 905v14h-720v91h851v-104l-757 -905v-10h757v-91h-888v100z" />
    <glyph glyph-name="Oslashacute" unicode="&#x1fe;" horiz-adv-x="1744" 
d="M914 1714h-84l239 316h115zM1513 1154.5q64 -166.5 64 -369.5q0 -230 -81 -411t-240.5 -285t-385.5 -104q-222 0 -385 105l-81 -129l-73 45l86 136q-122 107 -186 273.5t-64 369.5q0 230 81 411t239.5 285t382.5 104q226 0 388 -106l81 128l72 -45l-84 -134
q122 -107 186 -273.5zM326 469q50 -143 147 -237l731 1160q-139 95 -334 95q-191 0 -325 -91t-201.5 -250t-67.5 -361q0 -173 50 -316zM1197.5 174q134.5 91 202.5 250t68 361q0 174 -50 316.5t-148 236.5l-730 -1160q137 -95 330 -95t327.5 91z" />
    <glyph glyph-name="oslashacute" unicode="&#x1ff;" horiz-adv-x="1295" 
d="M689 1254h-84l239 316h115zM1122.5 820q49.5 -116 49.5 -262q0 -173 -67 -302.5t-186.5 -200t-272.5 -70.5q-150 0 -266 67l-85 -135l-73 45l88 139q-89 75 -137.5 192t-48.5 265q0 172 66 300.5t184.5 197.5t271.5 69q149 0 267 -66l83 132l73 -45l-85 -136
q89 -74 138.5 -190zM264.5 344.5q34.5 -94.5 98.5 -158.5l499 792q-95 56 -216 56q-125 0 -219 -58t-145.5 -166t-51.5 -252q0 -119 34.5 -213.5zM866.5 135.5q95.5 59.5 147.5 168.5t52 254q0 117 -35.5 211t-100.5 157l-499 -793q94 -57 215 -57q125 0 220.5 59.5z" />
    <glyph glyph-name="uni0218" unicode="&#x218;" horiz-adv-x="1281" 
d="M408.5 35.5q-111.5 49.5 -184.5 144.5t-95 227l108 26q17 -111 73 -189t144.5 -118.5t200.5 -40.5t197.5 43t132.5 118t47 170q0 104 -54 172.5t-133 110t-212 91.5q-140 54 -222.5 97.5t-139.5 118.5t-57 190q0 114 56.5 202.5t154.5 137.5t217 49q146 0 253.5 -59.5
t180.5 -185.5l-90 -57q-59 105 -143.5 154.5t-203.5 49.5q-89 0 -161 -37.5t-113.5 -103t-41.5 -147.5q0 -87 48.5 -145.5t120.5 -94.5t197 -83q147 -55 236.5 -103t152.5 -133t63 -216q0 -127 -61.5 -227t-172 -155.5t-251.5 -55.5q-136 0 -247.5 49.5zM761.5 -164
q37.5 -49 37.5 -120q0 -56 -23.5 -118t-72 -114.5t-119.5 -78.5l-26 59q52 20 92 57.5t61 83t21 87.5q0 35 -13 62q-13 -21 -34.5 -32.5t-46.5 -11.5q-39 0 -66.5 26t-27.5 63q0 35 30 60.5t73 25.5q77 0 114.5 -49z" />
    <glyph glyph-name="uni0219" unicode="&#x219;" horiz-adv-x="1043" 
d="M358.5 21q-92.5 36 -158 102.5t-94.5 154.5l98 35q35 -112 129.5 -174.5t225.5 -62.5q126 0 195.5 57.5t69.5 162.5q0 61 -24.5 102t-70.5 68q-40 23 -94.5 39.5t-138.5 34.5q-73 16 -119 28.5t-83 29.5q-152 71 -152 230q0 90 45 157t127 103.5t188 36.5
q140 0 239.5 -62.5t145.5 -177.5l-92 -42q-34 94 -109.5 142.5t-186.5 48.5q-76 0 -132.5 -23.5t-87.5 -67t-31 -101.5q0 -52 23.5 -87t68.5 -60q34 -18 80 -31t118 -28q93 -21 151.5 -38t106.5 -45q64 -38 99.5 -96.5t35.5 -149.5q0 -98 -46 -170.5t-130 -112t-196 -39.5
q-108 0 -200.5 36zM635.5 -164q37.5 -49 37.5 -120q0 -56 -23.5 -118t-72 -114.5t-119.5 -78.5l-26 59q52 20 92 57.5t61 83t21 87.5q0 35 -13 62q-13 -21 -34.5 -32.5t-46.5 -11.5q-39 0 -66.5 26t-27.5 63q0 35 30 60.5t73 25.5q77 0 114.5 -49z" />
    <glyph glyph-name="uni021A" unicode="&#x21a;" horiz-adv-x="1424" 
d="M659 1471h-568v99h1242v-99h-565v-1471h-109v1471zM816.5 -164q37.5 -49 37.5 -120q0 -56 -23.5 -118t-72 -114.5t-119.5 -78.5l-26 59q52 20 92 57.5t61 83t21 87.5q0 35 -13 62q-13 -21 -34.5 -32.5t-46.5 -11.5q-39 0 -66.5 26t-27.5 63q0 35 30 60.5t73 25.5
q77 0 114.5 -49z" />
    <glyph glyph-name="uni021B" unicode="&#x21b;" horiz-adv-x="751" 
d="M308 85q-63 100 -63 227v707h-186v91h187v313l104 80v-393h306v-91h-306v-695q0 -101 40 -174.5t161 -73.5q25 0 53 4t48 10l18 -88q-26 -7 -62 -12t-72 -5q-165 0 -228 100zM569.5 -164q37.5 -49 37.5 -120q0 -56 -23.5 -118t-72 -114.5t-119.5 -78.5l-26 59
q52 20 92 57.5t61 83t21 87.5q0 35 -13 62q-13 -21 -34.5 -32.5t-46.5 -11.5q-39 0 -66.5 26t-27.5 63q0 35 30 60.5t73 25.5q77 0 114.5 -49z" />
    <glyph glyph-name="uni0237" unicode="&#x237;" horiz-adv-x="535" 
d="M-31 -468.5q-53 9.5 -101 25.5l31 91q31 -13 68 -20.5t63 -7.5q50 0 84.5 14.5t57.5 43.5t33 73.5t10 113.5v1245h106v-1264q0 -83 -13.5 -142.5t-45.5 -100.5q-65 -81 -205 -81q-35 0 -88 9.5z" />
    <glyph glyph-name="circumflex" unicode="&#x2c6;" horiz-adv-x="820" 
d="M410 1584l330 -342h-95l-235 236l-236 -236h-93z" />
    <glyph glyph-name="caron" unicode="&#x2c7;" horiz-adv-x="828" 
d="M84 1570h95l235 -232l236 232h94l-330 -333z" />
    <glyph glyph-name="breve" unicode="&#x2d8;" horiz-adv-x="969" 
d="M235 1348q-85 78 -85 222h79q0 -115 66.5 -173.5t189.5 -58.5q124 0 189.5 59t65.5 173h79q0 -145 -86 -222.5t-248 -77.5q-165 0 -250 78z" />
    <glyph glyph-name="dotaccent" unicode="&#x2d9;" horiz-adv-x="538" 
d="M203 1434q-27 27 -27 67q0 38 27.5 65t66.5 27q37 0 64.5 -27t27.5 -65q0 -39 -27 -66.5t-65 -27.5q-40 0 -67 27z" />
    <glyph glyph-name="ring" unicode="&#x2da;" horiz-adv-x="716" 
d="M254.5 1252.5q-46.5 27.5 -73 74t-26.5 101.5q0 56 27 102t73.5 73t101.5 27q54 0 100.5 -27.5t74.5 -74t28 -100.5q0 -56 -27 -102.5t-73.5 -73.5t-102.5 -27t-102.5 27.5zM427 1307.5q32 18.5 50.5 51t18.5 70.5t-18 69.5t-50 50t-71 18.5q-38 0 -70 -18.5t-50.5 -50.5
t-18.5 -69q0 -39 18.5 -71t50 -50.5t70.5 -18.5q38 0 70 18.5z" />
    <glyph glyph-name="ogonek" unicode="&#x2db;" horiz-adv-x="548" 
d="M210 -417q-69 51 -69 136q0 73 50.5 148.5t143.5 138.5l72 -5q-86 -55 -134 -124t-48 -133q0 -65 46.5 -103t135.5 -38v-71q-128 0 -197 51z" />
    <glyph glyph-name="tilde" unicode="&#x2dc;" horiz-adv-x="1031" 
d="M595 1314.5q-34 16.5 -56 40t-50 62.5q-23 32 -39 50.5t-38 30.5t-52 12q-60 1 -94 -49.5t-34 -138.5h-67q0 122 53 191t144 67q44 0 76 -15.5t53 -38.5t48 -60q35 -48 64 -72t73 -24q52 0 85 54.5t33 145.5h70q0 -81 -23.5 -143t-66 -95.5t-98.5 -33.5q-47 0 -81 16.5z
" />
    <glyph glyph-name="hungarumlaut" unicode="&#x2dd;" horiz-adv-x="907" 
d="M333 1570h99l-242 -316h-86zM695 1570h115l-256 -316h-88z" />
    <glyph glyph-name="gravecomb" unicode="&#x300;" 
d="M-451 1570h114l235 -316h-87z" />
    <glyph glyph-name="acutecomb" unicode="&#x301;" 
d="M-209 1570h115l-270 -316h-84z" />
    <glyph glyph-name="uni0302" unicode="&#x302;" 
d="M-410 1584l330 -342h-95l-235 236l-236 -236h-93z" />
    <glyph glyph-name="tildecomb" unicode="&#x303;" 
d="M-436 1314.5q-34 16.5 -56 40t-50 62.5q-23 32 -39 50.5t-38 30.5t-52 12q-60 1 -94 -49.5t-34 -138.5h-67q0 122 53 191t144 67q44 0 76 -15.5t53 -38.5t48 -60q35 -48 64 -72t73 -24q52 0 85 54.5t33 145.5h70q0 -81 -23.5 -143t-66 -95.5t-98.5 -33.5q-47 0 -81 16.5z
" />
    <glyph glyph-name="uni0304" unicode="&#x304;" 
d="M-806 1451h605v-69h-605v69z" />
    <glyph glyph-name="uni0306" unicode="&#x306;" 
d="M-734 1348q-85 78 -85 222h79q0 -115 66.5 -173.5t189.5 -58.5q124 0 189.5 59t65.5 173h79q0 -145 -86 -222.5t-248 -77.5q-165 0 -250 78z" />
    <glyph glyph-name="uni0307" unicode="&#x307;" 
d="M-335 1434q-27 27 -27 67q0 38 27.5 65t66.5 27q37 0 64.5 -27t27.5 -65q0 -39 -27 -66.5t-65 -27.5q-40 0 -67 27z" />
    <glyph glyph-name="uni0308" unicode="&#x308;" 
d="M-729 1434q-27 27 -27 67q0 38 27.5 65t66.5 27q37 0 64.5 -27t27.5 -65q0 -39 -27 -66.5t-65 -27.5q-40 0 -67 27zM-335 1434q-27 27 -27 67q0 38 27 65t66 27q37 0 64.5 -27t27.5 -65q0 -39 -27 -66.5t-65 -27.5q-39 0 -66 27z" />
    <glyph glyph-name="uni030A" unicode="&#x30a;" 
d="M-461.5 1252.5q-46.5 27.5 -73 74t-26.5 101.5q0 56 27 102t73.5 73t101.5 27q54 0 100.5 -27.5t74.5 -74t28 -100.5q0 -56 -27 -102.5t-73.5 -73.5t-102.5 -27t-102.5 27.5zM-289 1307.5q32 18.5 50.5 51t18.5 70.5t-18 69.5t-50 50t-71 18.5q-38 0 -70 -18.5
t-50.5 -50.5t-18.5 -69q0 -39 18.5 -71t50 -50.5t70.5 -18.5q38 0 70 18.5z" />
    <glyph glyph-name="uni030B" unicode="&#x30b;" 
d="M-574 1570h99l-242 -316h-86zM-212 1570h115l-256 -316h-88z" />
    <glyph glyph-name="uni030C" unicode="&#x30c;" 
d="M-744 1570h95l235 -232l236 232h94l-330 -333z" />
    <glyph glyph-name="uni030F" unicode="&#x30f;" 
d="M-554 1254l-256 316h115l229 -316h-88zM-190 1254l-242 316h99l229 -316h-86z" />
    <glyph glyph-name="uni0312" unicode="&#x312;" 
d="M-183 1374q28 -23 28 -56q0 -32 -30 -54.5t-73 -22.5q-77 0 -114.5 43.5t-37.5 107.5q0 50 23.5 105.5t72 102.5t119.5 70l26 -53q-52 -17 -92 -51t-61 -74.5t-21 -78.5q0 -30 13 -55q13 19 34.5 29t46.5 10q38 0 66 -23z" />
    <glyph glyph-name="uni031B" unicode="&#x31b;" 
d="M-462 1197q110 0 159.5 64t49.5 186v123h83v-116q0 -160 -71.5 -245.5t-220.5 -85.5v74z" />
    <glyph glyph-name="uni0326" unicode="&#x326;" 
d="M-188.5 -164q37.5 -49 37.5 -120q0 -56 -23.5 -118t-72 -114.5t-119.5 -78.5l-26 59q52 20 92 57.5t61 83t21 87.5q0 35 -13 62q-13 -21 -34.5 -32.5t-46.5 -11.5q-39 0 -66.5 26t-27.5 63q0 35 30 60.5t73 25.5q77 0 114.5 -49z" />
    <glyph glyph-name="uni0327" unicode="&#x327;" 
d="M-431.5 -452.5q-44.5 15.5 -82.5 46.5l32 53q29 -28 68 -41.5t76 -13.5q57 0 92 29t35 75q0 36 -22 62t-62 38q-40 13 -99 13l108 191h61l-87 -148q26 -3 54 -12q51 -18 79.5 -55.5t28.5 -88.5q0 -46 -25 -83.5t-68.5 -59t-98.5 -21.5q-45 0 -89.5 15.5z" />
    <glyph glyph-name="uni0328" unicode="&#x328;" 
d="M-338 -417q-69 51 -69 136q0 73 50.5 148.5t143.5 138.5l72 -5q-86 -55 -134 -124t-48 -133q0 -65 46.5 -103t135.5 -38v-71q-128 0 -197 51z" />
    <glyph glyph-name="uni0335" unicode="&#x335;" 
d="M-906 688h706v-75h-706v75z" />
    <glyph glyph-name="uni0336" unicode="&#x336;" 
d="M-1614 668h1412v-68h-1412v68z" />
    <glyph glyph-name="uni0337" unicode="&#x337;" 
d="M-603 705l499 339v-118l-499 -340v119z" />
    <glyph glyph-name="uni0338" unicode="&#x338;" 
d="M-889 19l774 1229l73 -45l-774 -1229z" />
    <glyph glyph-name="uni03BC" unicode="&#x3bc;" horiz-adv-x="1435" 
d="M321 1110h105v-681q0 -167 76 -256.5t223 -89.5q99 0 173.5 42t115 122.5t40.5 190.5v672h104v-1110h-104v208q-47 -106 -141 -164.5t-214 -58.5q-107 0 -180.5 43.5t-110.5 127.5v-551h-87v1505z" />
    <glyph glyph-name="pi" unicode="&#x3c0;" horiz-adv-x="1212" 
d="M850 81.5q-63 96.5 -63 276.5v661h-463v-1019h-91v1019h-125v91h901v-91h-131v-649q0 -303 165 -303q44 0 91 18l28 -74q-63 -26 -124 -26q-125 0 -188 96.5z" />
    <glyph glyph-name="Wgrave" unicode="&#x1e80;" horiz-adv-x="2475" 
d="M102 1570h119l492 -1443h12l447 1375h131l447 -1375h11l493 1443h118l-550 -1570h-135l-445 1351h-10l-445 -1351h-134zM932 2030h114l235 -316h-87z" />
    <glyph glyph-name="wgrave" unicode="&#x1e81;" horiz-adv-x="1925" 
d="M64 1110h115l388 -1027h17l317 1027h123l317 -1027h18l387 1027h115l-425 -1110h-171l-296 939h-12l-297 -939h-171zM657 1570h114l235 -316h-87z" />
    <glyph glyph-name="Wacute" unicode="&#x1e82;" horiz-adv-x="2475" 
d="M102 1570h119l492 -1443h12l447 1375h131l447 -1375h11l493 1443h118l-550 -1570h-135l-445 1351h-10l-445 -1351h-134zM1435 2030h115l-270 -316h-84z" />
    <glyph glyph-name="wacute" unicode="&#x1e83;" horiz-adv-x="1925" 
d="M64 1110h115l388 -1027h17l317 1027h123l317 -1027h18l387 1027h115l-425 -1110h-171l-296 939h-12l-297 -939h-171zM1160 1570h115l-270 -316h-84z" />
    <glyph glyph-name="Wdieresis" unicode="&#x1e84;" horiz-adv-x="2475" 
d="M102 1570h119l492 -1443h12l447 1375h131l447 -1375h11l493 1443h118l-550 -1570h-135l-445 1351h-10l-445 -1351h-134zM975 1773.5q-27 27.5 -27 66.5q0 38 27 64.5t67 26.5q38 0 65 -27t27 -64q0 -39 -27 -66.5t-65 -27.5q-40 0 -67 27.5zM1369 1773.5
q-27 27.5 -27 66.5q0 38 27 64.5t66 26.5q38 0 65 -27t27 -64q0 -39 -27 -66.5t-65 -27.5q-39 0 -66 27.5z" />
    <glyph glyph-name="wdieresis" unicode="&#x1e85;" horiz-adv-x="1925" 
d="M64 1110h115l388 -1027h17l317 1027h123l317 -1027h18l387 1027h115l-425 -1110h-171l-296 939h-12l-297 -939h-171zM700 1434q-27 27 -27 67q0 38 27.5 65t66.5 27q37 0 64.5 -27t27.5 -65q0 -39 -27 -66.5t-65 -27.5q-40 0 -67 27zM1094 1434q-27 27 -27 67q0 38 27 65
t66 27q37 0 64.5 -27t27.5 -65q0 -39 -27 -66.5t-65 -27.5q-39 0 -66 27z" />
    <glyph glyph-name="uni1EA4" unicode="&#x1ea4;" horiz-adv-x="1440" 
d="M1087 390h-731l-133 -390h-121l551 1570h134l551 -1570h-118zM1054 488l-329 964h-5l-330 -964h664zM720 2044l330 -342h-95l-235 236l-236 -236h-93zM918 2504h115l-270 -316h-84z" />
    <glyph glyph-name="uni1EA5" unicode="&#x1ea5;" horiz-adv-x="1197" 
d="M992 862.5q19 -76.5 19 -198.5v-664h-105v223h-9q-22 -51 -59.5 -91.5t-80.5 -67.5q-115 -79 -264 -79q-116 0 -202 40.5t-132 115t-46 174.5q0 190 143 269q54 30 126.5 41.5t189.5 11.5h334v22q0 113 -18.5 180t-59.5 109t-105.5 64t-146.5 22q-110 0 -196 -43
t-164 -137l-67 71q91 104 194 152t233 48q119 0 207 -33t142 -96q48 -57 67 -133.5zM866 287q27 61 33.5 116.5t6.5 127.5v15h-328q-114 0 -174.5 -11t-100.5 -37q-40 -27 -62.5 -72.5t-22.5 -110.5q0 -112 77 -177.5t214 -65.5q163 0 274 102q56 52 83 113zM594 1584
l330 -342h-95l-235 236l-236 -236h-93zM792 2044h115l-270 -316h-84z" />
    <glyph glyph-name="uni1EA6" unicode="&#x1ea6;" horiz-adv-x="1440" 
d="M1087 390h-731l-133 -390h-121l551 1570h134l551 -1570h-118zM1054 488l-329 964h-5l-330 -964h664zM720 2044l330 -342h-95l-235 236l-236 -236h-93zM415 2504h114l235 -316h-87z" />
    <glyph glyph-name="uni1EA7" unicode="&#x1ea7;" horiz-adv-x="1197" 
d="M992 862.5q19 -76.5 19 -198.5v-664h-105v223h-9q-22 -51 -59.5 -91.5t-80.5 -67.5q-115 -79 -264 -79q-116 0 -202 40.5t-132 115t-46 174.5q0 190 143 269q54 30 126.5 41.5t189.5 11.5h334v22q0 113 -18.5 180t-59.5 109t-105.5 64t-146.5 22q-110 0 -196 -43
t-164 -137l-67 71q91 104 194 152t233 48q119 0 207 -33t142 -96q48 -57 67 -133.5zM866 287q27 61 33.5 116.5t6.5 127.5v15h-328q-114 0 -174.5 -11t-100.5 -37q-40 -27 -62.5 -72.5t-22.5 -110.5q0 -112 77 -177.5t214 -65.5q163 0 274 102q56 52 83 113zM594 1584
l330 -342h-95l-235 236l-236 -236h-93zM289 2044h114l235 -316h-87z" />
    <glyph glyph-name="uni1EAA" unicode="&#x1eaa;" horiz-adv-x="1440" 
d="M1087 390h-731l-133 -390h-121l551 1570h134l551 -1570h-118zM1054 488l-329 964h-5l-330 -964h664zM720 2044l330 -342h-95l-235 236l-236 -236h-93zM802 2248.5q-34 16.5 -56 40t-50 62.5q-23 32 -39 50.5t-38 30.5t-52 12q-60 1 -94 -49.5t-34 -138.5h-67
q0 122 53 191t144 67q44 0 76 -15.5t53 -38.5t48 -60q35 -48 64 -72t73 -24q52 0 85 54.5t33 145.5h70q0 -81 -23.5 -143t-66 -95.5t-98.5 -33.5q-47 0 -81 16.5z" />
    <glyph glyph-name="uni1EAB" unicode="&#x1eab;" horiz-adv-x="1197" 
d="M992 862.5q19 -76.5 19 -198.5v-664h-105v223h-9q-22 -51 -59.5 -91.5t-80.5 -67.5q-115 -79 -264 -79q-116 0 -202 40.5t-132 115t-46 174.5q0 190 143 269q54 30 126.5 41.5t189.5 11.5h334v22q0 113 -18.5 180t-59.5 109t-105.5 64t-146.5 22q-110 0 -196 -43
t-164 -137l-67 71q91 104 194 152t233 48q119 0 207 -33t142 -96q48 -57 67 -133.5zM866 287q27 61 33.5 116.5t6.5 127.5v15h-328q-114 0 -174.5 -11t-100.5 -37q-40 -27 -62.5 -72.5t-22.5 -110.5q0 -112 77 -177.5t214 -65.5q163 0 274 102q56 52 83 113zM594 1584
l330 -342h-95l-235 236l-236 -236h-93zM676 1788.5q-34 16.5 -56 40t-50 62.5q-23 32 -39 50.5t-38 30.5t-52 12q-60 1 -94 -49.5t-34 -138.5h-67q0 122 53 191t144 67q44 0 76 -15.5t53 -38.5t48 -60q35 -48 64 -72t73 -24q52 0 85 54.5t33 145.5h70q0 -81 -23.5 -143
t-66 -95.5t-98.5 -33.5q-47 0 -81 16.5z" />
    <glyph glyph-name="uni1EAE" unicode="&#x1eae;" horiz-adv-x="1440" 
d="M1087 390h-731l-133 -390h-121l551 1570h134l551 -1570h-118zM1054 488l-329 964h-5l-330 -964h664zM470 1808q-85 78 -85 222h79q0 -115 66.5 -173.5t189.5 -58.5q124 0 189.5 59t65.5 173h79q0 -145 -86 -222.5t-248 -77.5q-165 0 -250 78zM918 2490h115l-270 -316h-84
z" />
    <glyph glyph-name="uni1EAF" unicode="&#x1eaf;" horiz-adv-x="1197" 
d="M992 862.5q19 -76.5 19 -198.5v-664h-105v223h-9q-22 -51 -59.5 -91.5t-80.5 -67.5q-115 -79 -264 -79q-116 0 -202 40.5t-132 115t-46 174.5q0 190 143 269q54 30 126.5 41.5t189.5 11.5h334v22q0 113 -18.5 180t-59.5 109t-105.5 64t-146.5 22q-110 0 -196 -43
t-164 -137l-67 71q91 104 194 152t233 48q119 0 207 -33t142 -96q48 -57 67 -133.5zM866 287q27 61 33.5 116.5t6.5 127.5v15h-328q-114 0 -174.5 -11t-100.5 -37q-40 -27 -62.5 -72.5t-22.5 -110.5q0 -112 77 -177.5t214 -65.5q163 0 274 102q56 52 83 113zM344 1348
q-85 78 -85 222h79q0 -115 66.5 -173.5t189.5 -58.5q124 0 189.5 59t65.5 173h79q0 -145 -86 -222.5t-248 -77.5q-165 0 -250 78zM792 2030h115l-270 -316h-84z" />
    <glyph glyph-name="uni1EB0" unicode="&#x1eb0;" horiz-adv-x="1440" 
d="M1087 390h-731l-133 -390h-121l551 1570h134l551 -1570h-118zM1054 488l-329 964h-5l-330 -964h664zM470 1808q-85 78 -85 222h79q0 -115 66.5 -173.5t189.5 -58.5q124 0 189.5 59t65.5 173h79q0 -145 -86 -222.5t-248 -77.5q-165 0 -250 78zM415 2490h114l235 -316h-87z
" />
    <glyph glyph-name="uni1EB1" unicode="&#x1eb1;" horiz-adv-x="1197" 
d="M992 862.5q19 -76.5 19 -198.5v-664h-105v223h-9q-22 -51 -59.5 -91.5t-80.5 -67.5q-115 -79 -264 -79q-116 0 -202 40.5t-132 115t-46 174.5q0 190 143 269q54 30 126.5 41.5t189.5 11.5h334v22q0 113 -18.5 180t-59.5 109t-105.5 64t-146.5 22q-110 0 -196 -43
t-164 -137l-67 71q91 104 194 152t233 48q119 0 207 -33t142 -96q48 -57 67 -133.5zM866 287q27 61 33.5 116.5t6.5 127.5v15h-328q-114 0 -174.5 -11t-100.5 -37q-40 -27 -62.5 -72.5t-22.5 -110.5q0 -112 77 -177.5t214 -65.5q163 0 274 102q56 52 83 113zM344 1348
q-85 78 -85 222h79q0 -115 66.5 -173.5t189.5 -58.5q124 0 189.5 59t65.5 173h79q0 -145 -86 -222.5t-248 -77.5q-165 0 -250 78zM289 2030h114l235 -316h-87z" />
    <glyph glyph-name="uni1EB4" unicode="&#x1eb4;" horiz-adv-x="1440" 
d="M1087 390h-731l-133 -390h-121l551 1570h134l551 -1570h-118zM1054 488l-329 964h-5l-330 -964h664zM470 1808q-85 78 -85 222h79q0 -115 66.5 -173.5t189.5 -58.5q124 0 189.5 59t65.5 173h79q0 -145 -86 -222.5t-248 -77.5q-165 0 -250 78zM802 2234.5q-34 16.5 -56 40
t-50 62.5q-23 32 -39 50.5t-38 30.5t-52 12q-60 1 -94 -49.5t-34 -138.5h-67q0 122 53 191t144 67q44 0 76 -15.5t53 -38.5t48 -60q35 -48 64 -72t73 -24q52 0 85 54.5t33 145.5h70q0 -81 -23.5 -143t-66 -95.5t-98.5 -33.5q-47 0 -81 16.5z" />
    <glyph glyph-name="uni1EB5" unicode="&#x1eb5;" horiz-adv-x="1197" 
d="M992 862.5q19 -76.5 19 -198.5v-664h-105v223h-9q-22 -51 -59.5 -91.5t-80.5 -67.5q-115 -79 -264 -79q-116 0 -202 40.5t-132 115t-46 174.5q0 190 143 269q54 30 126.5 41.5t189.5 11.5h334v22q0 113 -18.5 180t-59.5 109t-105.5 64t-146.5 22q-110 0 -196 -43
t-164 -137l-67 71q91 104 194 152t233 48q119 0 207 -33t142 -96q48 -57 67 -133.5zM866 287q27 61 33.5 116.5t6.5 127.5v15h-328q-114 0 -174.5 -11t-100.5 -37q-40 -27 -62.5 -72.5t-22.5 -110.5q0 -112 77 -177.5t214 -65.5q163 0 274 102q56 52 83 113zM344 1348
q-85 78 -85 222h79q0 -115 66.5 -173.5t189.5 -58.5q124 0 189.5 59t65.5 173h79q0 -145 -86 -222.5t-248 -77.5q-165 0 -250 78zM676 1774.5q-34 16.5 -56 40t-50 62.5q-23 32 -39 50.5t-38 30.5t-52 12q-60 1 -94 -49.5t-34 -138.5h-67q0 122 53 191t144 67q44 0 76 -15.5
t53 -38.5t48 -60q35 -48 64 -72t73 -24q52 0 85 54.5t33 145.5h70q0 -81 -23.5 -143t-66 -95.5t-98.5 -33.5q-47 0 -81 16.5z" />
    <glyph glyph-name="uni1EBC" unicode="&#x1ebc;" horiz-adv-x="1409" 
d="M267 1570h974v-99h-864v-632h765v-98h-765v-642h910v-99h-1020v1570zM848 1774.5q-34 16.5 -56 40t-50 62.5q-23 32 -39 50.5t-38 30.5t-52 12q-60 1 -94 -49.5t-34 -138.5h-67q0 122 53 191t144 67q44 0 76 -15.5t53 -38.5t48 -60q35 -48 64 -72t73 -24q52 0 85 54.5
t33 145.5h70q0 -81 -23.5 -143t-66 -95.5t-98.5 -33.5q-47 0 -81 16.5z" />
    <glyph glyph-name="uni1EBD" unicode="&#x1ebd;" horiz-adv-x="1199" 
d="M1080 573q-2 -28 -6 -42h-837q2 -140 50 -242.5t135.5 -157.5t207.5 -55q110 0 188 34t157 121l75 -67q-95 -97 -191.5 -138t-229.5 -41q-156 0 -269.5 72.5t-173.5 200.5t-60 292q0 162 58.5 293t168 206.5t258.5 75.5q166 0 271.5 -76t152.5 -189.5t47 -231.5
q0 -27 -2 -55zM423 980.5q-82 -53.5 -129.5 -147t-55.5 -211.5h737q0 8 0.5 19.5t-0.5 26.5q-4 98 -43.5 181t-119.5 134t-200 51q-107 0 -189 -53.5zM682 1314.5q-34 16.5 -56 40t-50 62.5q-23 32 -39 50.5t-38 30.5t-52 12q-60 1 -94 -49.5t-34 -138.5h-67q0 122 53 191
t144 67q44 0 76 -15.5t53 -38.5t48 -60q35 -48 64 -72t73 -24q52 0 85 54.5t33 145.5h70q0 -81 -23.5 -143t-66 -95.5t-98.5 -33.5q-47 0 -81 16.5z" />
    <glyph glyph-name="uni1EBE" unicode="&#x1ebe;" horiz-adv-x="1409" 
d="M267 1570h974v-99h-864v-632h765v-98h-765v-642h910v-99h-1020v1570zM766 2044l330 -342h-95l-235 236l-236 -236h-93zM964 2504h115l-270 -316h-84z" />
    <glyph glyph-name="uni1EBF" unicode="&#x1ebf;" horiz-adv-x="1199" 
d="M1080 573q-2 -28 -6 -42h-837q2 -140 50 -242.5t135.5 -157.5t207.5 -55q110 0 188 34t157 121l75 -67q-95 -97 -191.5 -138t-229.5 -41q-156 0 -269.5 72.5t-173.5 200.5t-60 292q0 162 58.5 293t168 206.5t258.5 75.5q166 0 271.5 -76t152.5 -189.5t47 -231.5
q0 -27 -2 -55zM423 980.5q-82 -53.5 -129.5 -147t-55.5 -211.5h737q0 8 0.5 19.5t-0.5 26.5q-4 98 -43.5 181t-119.5 134t-200 51q-107 0 -189 -53.5zM600 1584l330 -342h-95l-235 236l-236 -236h-93zM798 2044h115l-270 -316h-84z" />
    <glyph glyph-name="uni1EC0" unicode="&#x1ec0;" horiz-adv-x="1409" 
d="M267 1570h974v-99h-864v-632h765v-98h-765v-642h910v-99h-1020v1570zM766 2044l330 -342h-95l-235 236l-236 -236h-93zM461 2504h114l235 -316h-87z" />
    <glyph glyph-name="uni1EC1" unicode="&#x1ec1;" horiz-adv-x="1199" 
d="M1080 573q-2 -28 -6 -42h-837q2 -140 50 -242.5t135.5 -157.5t207.5 -55q110 0 188 34t157 121l75 -67q-95 -97 -191.5 -138t-229.5 -41q-156 0 -269.5 72.5t-173.5 200.5t-60 292q0 162 58.5 293t168 206.5t258.5 75.5q166 0 271.5 -76t152.5 -189.5t47 -231.5
q0 -27 -2 -55zM423 980.5q-82 -53.5 -129.5 -147t-55.5 -211.5h737q0 8 0.5 19.5t-0.5 26.5q-4 98 -43.5 181t-119.5 134t-200 51q-107 0 -189 -53.5zM600 1584l330 -342h-95l-235 236l-236 -236h-93zM295 2044h114l235 -316h-87z" />
    <glyph glyph-name="uni1EC4" unicode="&#x1ec4;" horiz-adv-x="1409" 
d="M267 1570h974v-99h-864v-632h765v-98h-765v-642h910v-99h-1020v1570zM766 2044l330 -342h-95l-235 236l-236 -236h-93zM848 2248.5q-34 16.5 -56 40t-50 62.5q-23 32 -39 50.5t-38 30.5t-52 12q-60 1 -94 -49.5t-34 -138.5h-67q0 122 53 191t144 67q44 0 76 -15.5
t53 -38.5t48 -60q35 -48 64 -72t73 -24q52 0 85 54.5t33 145.5h70q0 -81 -23.5 -143t-66 -95.5t-98.5 -33.5q-47 0 -81 16.5z" />
    <glyph glyph-name="uni1EC5" unicode="&#x1ec5;" horiz-adv-x="1199" 
d="M1080 573q-2 -28 -6 -42h-837q2 -140 50 -242.5t135.5 -157.5t207.5 -55q110 0 188 34t157 121l75 -67q-95 -97 -191.5 -138t-229.5 -41q-156 0 -269.5 72.5t-173.5 200.5t-60 292q0 162 58.5 293t168 206.5t258.5 75.5q166 0 271.5 -76t152.5 -189.5t47 -231.5
q0 -27 -2 -55zM423 980.5q-82 -53.5 -129.5 -147t-55.5 -211.5h737q0 8 0.5 19.5t-0.5 26.5q-4 98 -43.5 181t-119.5 134t-200 51q-107 0 -189 -53.5zM600 1584l330 -342h-95l-235 236l-236 -236h-93zM682 1788.5q-34 16.5 -56 40t-50 62.5q-23 32 -39 50.5t-38 30.5t-52 12
q-60 1 -94 -49.5t-34 -138.5h-67q0 122 53 191t144 67q44 0 76 -15.5t53 -38.5t48 -60q35 -48 64 -72t73 -24q52 0 85 54.5t33 145.5h70q0 -81 -23.5 -143t-66 -95.5t-98.5 -33.5q-47 0 -81 16.5z" />
    <glyph glyph-name="uni1ED0" unicode="&#x1ed0;" horiz-adv-x="1744" 
d="M487.5 89q-158.5 104 -239.5 285t-81 411t81 411t239.5 285t382.5 104q226 0 385.5 -104t240.5 -285t81 -411t-81 -411t-240.5 -285t-385.5 -104q-224 0 -382.5 104zM1197.5 174q134.5 91 202.5 250t68 361t-68 361t-202.5 250t-327.5 91q-191 0 -325 -91t-201.5 -250
t-67.5 -361t67.5 -361t201.5 -250t325 -91q193 0 327.5 91zM871 2044l330 -342h-95l-235 236l-236 -236h-93zM1069 2504h115l-270 -316h-84z" />
    <glyph glyph-name="uni1ED1" unicode="&#x1ed1;" horiz-adv-x="1295" 
d="M374.5 55q-118.5 70 -184.5 200t-66 303q0 172 66 300.5t184.5 197.5t271.5 69t272.5 -69.5t186.5 -198t67 -299.5q0 -173 -67 -302.5t-186.5 -200t-272.5 -70.5t-271.5 70zM866.5 135.5q95.5 59.5 147.5 168.5t52 254q0 143 -52 251t-147 166.5t-221 58.5
q-125 0 -219 -58t-145.5 -166t-51.5 -252q0 -146 51.5 -255t145.5 -168t219 -59t220.5 59.5zM646 1584l330 -342h-95l-235 236l-236 -236h-93zM844 2044h115l-270 -316h-84z" />
    <glyph glyph-name="uni1ED2" unicode="&#x1ed2;" horiz-adv-x="1744" 
d="M487.5 89q-158.5 104 -239.5 285t-81 411t81 411t239.5 285t382.5 104q226 0 385.5 -104t240.5 -285t81 -411t-81 -411t-240.5 -285t-385.5 -104q-224 0 -382.5 104zM1197.5 174q134.5 91 202.5 250t68 361t-68 361t-202.5 250t-327.5 91q-191 0 -325 -91t-201.5 -250
t-67.5 -361t67.5 -361t201.5 -250t325 -91q193 0 327.5 91zM871 2044l330 -342h-95l-235 236l-236 -236h-93zM566 2504h114l235 -316h-87z" />
    <glyph glyph-name="uni1ED3" unicode="&#x1ed3;" horiz-adv-x="1295" 
d="M374.5 55q-118.5 70 -184.5 200t-66 303q0 172 66 300.5t184.5 197.5t271.5 69t272.5 -69.5t186.5 -198t67 -299.5q0 -173 -67 -302.5t-186.5 -200t-272.5 -70.5t-271.5 70zM866.5 135.5q95.5 59.5 147.5 168.5t52 254q0 143 -52 251t-147 166.5t-221 58.5
q-125 0 -219 -58t-145.5 -166t-51.5 -252q0 -146 51.5 -255t145.5 -168t219 -59t220.5 59.5zM646 1584l330 -342h-95l-235 236l-236 -236h-93zM341 2044h114l235 -316h-87z" />
    <glyph glyph-name="uni1ED6" unicode="&#x1ed6;" horiz-adv-x="1744" 
d="M487.5 89q-158.5 104 -239.5 285t-81 411t81 411t239.5 285t382.5 104q226 0 385.5 -104t240.5 -285t81 -411t-81 -411t-240.5 -285t-385.5 -104q-224 0 -382.5 104zM1197.5 174q134.5 91 202.5 250t68 361t-68 361t-202.5 250t-327.5 91q-191 0 -325 -91t-201.5 -250
t-67.5 -361t67.5 -361t201.5 -250t325 -91q193 0 327.5 91zM871 2044l330 -342h-95l-235 236l-236 -236h-93zM953 2248.5q-34 16.5 -56 40t-50 62.5q-23 32 -39 50.5t-38 30.5t-52 12q-60 1 -94 -49.5t-34 -138.5h-67q0 122 53 191t144 67q44 0 76 -15.5t53 -38.5t48 -60
q35 -48 64 -72t73 -24q52 0 85 54.5t33 145.5h70q0 -81 -23.5 -143t-66 -95.5t-98.5 -33.5q-47 0 -81 16.5z" />
    <glyph glyph-name="uni1ED7" unicode="&#x1ed7;" horiz-adv-x="1295" 
d="M374.5 55q-118.5 70 -184.5 200t-66 303q0 172 66 300.5t184.5 197.5t271.5 69t272.5 -69.5t186.5 -198t67 -299.5q0 -173 -67 -302.5t-186.5 -200t-272.5 -70.5t-271.5 70zM866.5 135.5q95.5 59.5 147.5 168.5t52 254q0 143 -52 251t-147 166.5t-221 58.5
q-125 0 -219 -58t-145.5 -166t-51.5 -252q0 -146 51.5 -255t145.5 -168t219 -59t220.5 59.5zM646 1584l330 -342h-95l-235 236l-236 -236h-93zM728 1788.5q-34 16.5 -56 40t-50 62.5q-23 32 -39 50.5t-38 30.5t-52 12q-60 1 -94 -49.5t-34 -138.5h-67q0 122 53 191t144 67
q44 0 76 -15.5t53 -38.5t48 -60q35 -48 64 -72t73 -24q52 0 85 54.5t33 145.5h70q0 -81 -23.5 -143t-66 -95.5t-98.5 -33.5q-47 0 -81 16.5z" />
    <glyph glyph-name="Ygrave" unicode="&#x1ef2;" horiz-adv-x="1488" 
d="M688 586l-600 984h127l528 -868h1l529 868h128l-603 -984v-586h-110v586zM438 2030h114l235 -316h-87z" />
    <glyph glyph-name="ygrave" unicode="&#x1ef3;" horiz-adv-x="1128" 
d="M506 10l-448 1100h116l388 -980h2l388 980h118l-639 -1570h-115zM258 1570h114l235 -316h-87z" />
    <glyph glyph-name="uni1EF8" unicode="&#x1ef8;" horiz-adv-x="1488" 
d="M688 586l-600 984h127l528 -868h1l529 868h128l-603 -984v-586h-110v586zM825 1774.5q-34 16.5 -56 40t-50 62.5q-23 32 -39 50.5t-38 30.5t-52 12q-60 1 -94 -49.5t-34 -138.5h-67q0 122 53 191t144 67q44 0 76 -15.5t53 -38.5t48 -60q35 -48 64 -72t73 -24
q52 0 85 54.5t33 145.5h70q0 -81 -23.5 -143t-66 -95.5t-98.5 -33.5q-47 0 -81 16.5z" />
    <glyph glyph-name="uni1EF9" unicode="&#x1ef9;" horiz-adv-x="1128" 
d="M506 10l-448 1100h116l388 -980h2l388 980h118l-639 -1570h-115zM645 1314.5q-34 16.5 -56 40t-50 62.5q-23 32 -39 50.5t-38 30.5t-52 12q-60 1 -94 -49.5t-34 -138.5h-67q0 122 53 191t144 67q44 0 76 -15.5t53 -38.5t48 -60q35 -48 64 -72t73 -24q52 0 85 54.5
t33 145.5h70q0 -81 -23.5 -143t-66 -95.5t-98.5 -33.5q-47 0 -81 16.5z" />
    <glyph glyph-name="endash" unicode="&#x2013;" horiz-adv-x="1138" 
d="M0 742h1138v-83h-1138v83z" />
    <glyph glyph-name="emdash" unicode="&#x2014;" horiz-adv-x="2276" 
d="M0 742h2276v-83h-2276v83z" />
    <glyph glyph-name="quoteleft" unicode="&#x2018;" horiz-adv-x="641" 
d="M421 1079.5q-27 -26.5 -69 -27.5h-2h-1h-6q-76 4 -113 60t-37 136q0 64 24.5 132t73.5 125.5t119 87.5l26 -59q-53 -24 -92.5 -68.5t-60.5 -97.5t-21 -104q0 -40 13 -72q13 22 34 34t46 12q39 0 66 -26.5t27 -66.5q0 -39 -27 -65.5z" />
    <glyph glyph-name="quoteright" unicode="&#x2019;" horiz-adv-x="638" 
d="M406.5 1531q38.5 -56 38.5 -139q0 -64 -24 -132.5t-73 -126t-119 -86.5l-26 59q53 24 92.5 68t60.5 97.5t21 104.5q0 42 -14 73q-12 -22 -33.5 -34.5t-46.5 -12.5q-39 0 -66 26.5t-27 66.5q0 39 28 65.5t70 26.5q80 0 118.5 -56z" />
    <glyph glyph-name="quotesinglbase" unicode="&#x201a;" horiz-adv-x="726" 
d="M451 108.5q38 -54.5 38 -135.5q0 -64 -23.5 -133.5t-72 -128.5t-119.5 -89l-27 59q78 40 122 115.5t44 154.5q0 36 -9 66q-13 -19 -33.5 -29.5t-43.5 -10.5q-40 0 -66.5 24.5t-26.5 65.5q0 42 29 69t74 27q76 0 114 -54.5z" />
    <glyph glyph-name="quotedblleft" unicode="&#x201c;" horiz-adv-x="1005" 
d="M422.5 1212.5q26.5 -24.5 26.5 -65.5q0 -42 -29 -69t-74 -27q-76 0 -114 54.5t-38 135.5q0 64 23.5 133.5t72 128.5t119.5 89l27 -59q-78 -40 -122 -115.5t-44 -154.5q0 -36 9 -66q13 19 33.5 29.5t43.5 10.5q40 0 66.5 -24.5zM786.5 1212.5q26.5 -24.5 26.5 -65.5
q0 -42 -29 -69t-74 -27q-76 0 -114 54.5t-38 135.5q0 64 23.5 133.5t72 128.5t119.5 89l27 -59q-78 -40 -122 -115.5t-44 -154.5q0 -36 9 -66q13 19 33.5 29.5t43.5 10.5q40 0 66.5 -24.5z" />
    <glyph glyph-name="quotedblright" unicode="&#x201d;" horiz-adv-x="1002" 
d="M406.5 1536.5q38.5 -56.5 38.5 -138.5q0 -64 -24 -132.5t-73 -126t-119 -87.5l-26 60q53 24 92.5 68.5t60.5 97.5t21 104q0 42 -14 73q-12 -22 -33.5 -35t-46.5 -13q-39 0 -66 27t-27 67q0 39 28 65.5t71 26.5q79 0 117.5 -56.5zM770.5 1536.5q38.5 -56.5 38.5 -138.5
q0 -64 -24 -132.5t-73 -126t-119 -87.5l-26 60q53 24 92.5 68.5t60.5 97.5t21 104q0 40 -13 72q-13 -22 -34.5 -34.5t-46.5 -12.5q-39 0 -66 27t-27 67q0 39 28 65.5t71 26.5q79 0 117.5 -56.5z" />
    <glyph glyph-name="quotedblbase" unicode="&#x201e;" horiz-adv-x="1090" 
d="M451 108.5q38 -54.5 38 -135.5q0 -64 -23.5 -133.5t-72 -128.5t-119.5 -89l-27 59q78 40 122 115.5t44 154.5q0 36 -9 66q-13 -19 -33.5 -29.5t-43.5 -10.5q-40 0 -66.5 24.5t-26.5 65.5q0 42 29 69t74 27q76 0 114 -54.5zM815 108.5q38 -54.5 38 -135.5
q0 -64 -23.5 -133.5t-72 -128.5t-119.5 -89l-27 59q78 40 122 115.5t44 154.5q0 36 -9 66q-13 -19 -33.5 -29.5t-43.5 -10.5q-40 0 -66.5 24.5t-26.5 65.5q0 42 29 69t74 27q76 0 114 -54.5z" />
    <glyph glyph-name="dagger" unicode="&#x2020;" horiz-adv-x="968" 
d="M436 1014h-288v98h288v458h98v-458h286v-98h-286v-1242h-98v1242z" />
    <glyph glyph-name="daggerdbl" unicode="&#x2021;" horiz-adv-x="1032" 
d="M468 230h-288v97h288v687h-288v98h288v458h97v-458h287v-98h-287v-687h287v-97h-287v-458h-97v458z" />
    <glyph glyph-name="bullet" unicode="&#x2022;" horiz-adv-x="986" 
d="M360.5 306.5q-60.5 35.5 -96 96t-35.5 132.5q0 71 35.5 132t96 96.5t132.5 35.5q71 0 132 -35.5t96.5 -96.5t35.5 -132q0 -72 -35.5 -132.5t-96.5 -96t-132 -35.5q-72 0 -132.5 35.5z" />
    <glyph glyph-name="ellipsis" unicode="&#x2026;" horiz-adv-x="1629" 
d="M421.5 131.5q26.5 -26.5 26.5 -64.5q0 -39 -26.5 -66.5t-64.5 -27.5q-39 0 -66.5 27.5t-27.5 66.5q0 38 27.5 64.5t66.5 26.5q38 0 64.5 -26.5zM1111 131q27 -27 27 -64q0 -39 -27 -66.5t-65 -27.5h-1h-1q-39 0 -66 27.5t-27 66.5q0 38 27 64.5t66 26.5h1h1q38 0 65 -27z
" />
    <glyph glyph-name="perthousand" unicode="&#x2030;" horiz-adv-x="2425" 
d="M306 935q-65 51 -96 131.5t-31 167.5q0 88 30.5 168t94 131.5t156.5 51.5q83 0 148 -45.5t101.5 -125.5t36.5 -181q0 -100 -36 -179.5t-99.5 -124.5t-144.5 -45q-95 0 -160 51zM1260 1570h78l-861 -1570h-79zM571.5 994q46.5 35 72.5 97.5t26 141.5q0 75 -24 138
t-71.5 101t-114.5 38q-70 0 -116 -40.5t-67.5 -103.5t-21.5 -132t22 -132t69 -103t120 -40q59 0 105.5 35zM1121.5 36.5q-64.5 51.5 -96 131.5t-31.5 168q0 87 31 167.5t94 131.5t155 51q83 0 148.5 -45.5t102 -125t36.5 -180.5t-36 -180.5t-99.5 -124.5t-144.5 -45
q-95 0 -159.5 51.5zM1806 36.5q-65 51.5 -96.5 131.5t-31.5 168q0 87 31 167.5t94.5 131.5t155.5 51q83 0 148.5 -45.5t102 -125t36.5 -180.5t-36 -180.5t-99.5 -124.5t-144.5 -45q-95 0 -160 51.5zM1387.5 95q46.5 35 72.5 97.5t26 142.5q0 74 -24 137t-72 101t-116 38
q-70 0 -116 -40.5t-67 -103t-21 -131.5q0 -70 22 -132.5t69.5 -103t119.5 -40.5q60 0 106.5 35zM2071.5 95q46.5 35 72.5 97.5t26 142.5q0 74 -24 137t-72 101t-115 38q-70 0 -116 -40.5t-67.5 -103t-21.5 -131.5q0 -70 22 -132.5t69.5 -103t120.5 -40.5q59 0 105.5 35z" />
    <glyph glyph-name="guilsinglleft" unicode="&#x2039;" horiz-adv-x="699" 
d="M103 568l428 373v-98l-314 -275l314 -276v-97z" />
    <glyph glyph-name="guilsinglright" unicode="&#x203a;" horiz-adv-x="699" 
d="M168 292l314 276l-314 275v98l428 -373l-428 -373v97z" />
    <glyph glyph-name="fraction" unicode="&#x2044;" horiz-adv-x="304" 
d="M543 1570h79l-862 -1570h-79z" />
    <glyph glyph-name="Euro" unicode="&#x20ac;" horiz-adv-x="1521" 
d="M652 60q-115 75 -185.5 205t-97.5 297h-166v82h154q-7 66 -7 141q0 57 8 151h-155v85h167q30 165 101 292t184.5 200t264.5 73q131 0 236 -54.5t180 -159.5l-70 -54q-63 88 -150.5 133.5t-192.5 45.5q-127 0 -221.5 -61.5t-153 -169t-82.5 -245.5h558v-82h-571
q-9 -72 -9 -148q0 -80 7 -144h573v-82h-558q34 -226 149 -358.5t310 -132.5q103 0 187 43.5t144 127.5l66 -64q-72 -95 -174 -145.5t-225 -50.5q-156 0 -271 75z" />
    <glyph glyph-name="uni20B1" unicode="&#x20b1;" horiz-adv-x="1592" 
d="M1422 1098h-124q-5 -81 -31.5 -148.5t-74.5 -116.5q-46 -48 -109 -76.5t-158 -42.5t-236 -14h-211v-700h-110v1098h-168v68h168v404h321q143 0 235.5 -14t150.5 -40.5t103 -68.5q111 -105 120 -281h124v-68zM478 1166h711q-9 126 -86 205q-37 36 -87 57.5t-132 32
t-211 10.5h-195v-305zM1188 1098h-710v-300h195q130 0 213 11t137 35t92 67q64 71 73 187z" />
    <glyph glyph-name="trademark" unicode="&#x2122;" horiz-adv-x="1703" 
d="M302 1505h-243v65h560v-65h-241v-757h-76v757zM798 1570h117l243 -634l245 634h114v-822h-77v732l-256 -648h-51l-260 658v-742h-75v822z" />
    <glyph glyph-name="uni2126" unicode="&#x2126;" horiz-adv-x="1717" 
d="M124 83h485l1 67q-119 65 -208 171.5t-137 239t-48 273.5q0 117 43.5 234t117.5 199q89 101 220.5 161t261.5 60q131 0 262.5 -60t220.5 -161q72 -82 115.5 -199.5t43.5 -234.5q0 -155 -47.5 -292.5t-134.5 -240t-204 -154.5v-65h478v-81h-584v171q122 34 213.5 126.5
t141 230.5t49.5 304q0 105 -36 206.5t-97 170.5q-78 89 -193.5 142t-227.5 53t-227.5 -53t-193.5 -142q-62 -71 -98 -172t-36 -205q0 -154 49.5 -288t140.5 -230.5t213 -143.5v-170h-584v83z" />
    <glyph glyph-name="arrowleft" unicode="&#x2190;" horiz-adv-x="2178" 
d="M1988 655h-1234v-302l-581 342l581 343v-300h1234v-83z" />
    <glyph glyph-name="arrowright" unicode="&#x2192;" horiz-adv-x="2178" 
d="M1423 353v302h-1233v83h1233v300l582 -343z" />
    <glyph glyph-name="partialdiff" unicode="&#x2202;" horiz-adv-x="1543" 
d="M424.5 49.5q-107.5 62.5 -166 175t-58.5 257.5q0 191 80.5 341t221 233t313.5 83q111 0 191 -52t127 -134t68 -178q3 36 3 71q0 41 -5 88q-10 285 -115 427t-301 142q-127 0 -224 -59t-143 -178l-81 28q54 138 173 214t284 76q261 0 391 -197t130 -564q0 -227 -70.5 -417
t-214.5 -304.5t-354 -114.5q-142 0 -249.5 62.5zM928.5 144.5q106.5 63.5 171 170t88.5 237.5q4 40 4 64q0 106 -38 205.5t-120.5 164t-207.5 64.5q-158 0 -277.5 -74t-184.5 -203t-65 -289q0 -123 49 -214t135 -140t196 -49q143 0 249.5 63.5z" />
    <glyph glyph-name="uni2206" unicode="&#x2206;" horiz-adv-x="1560" 
d="M781 1610l626 -1610h-1255zM1286 84l-505 1315l-507 -1315h1012z" />
    <glyph glyph-name="product" unicode="&#x220f;" horiz-adv-x="1508" 
d="M338 1479h-128v91h1087v-91h-126v-1479h-91v1479h-651v-1479h-91v1479z" />
    <glyph glyph-name="summation" unicode="&#x2211;" horiz-adv-x="1501" 
d="M1326 1469h-1007l640 -684l-640 -684h1007v-101h-1150v92l640 693l-640 693v92h1150v-101z" />
    <glyph glyph-name="minus" unicode="&#x2212;" horiz-adv-x="1260" 
d="M254 741h753v-85h-753v85z" />
    <glyph glyph-name="radical" unicode="&#x221a;" horiz-adv-x="1455" 
d="M312 627h-164v91h227l235 -593l598 1445h99l-702 -1679z" />
    <glyph glyph-name="infinity" unicode="&#x221e;" horiz-adv-x="2323" 
d="M435 451.5q-96 54.5 -150 148.5t-54 209t54 209t150 148.5t215 54.5q139 0 268.5 -91.5t235.5 -245.5q258 337 519 337q119 0 214.5 -54.5t149.5 -148.5t54 -209t-54 -209t-149.5 -148.5t-214.5 -54.5q-263 0 -519 337q-105 -155 -234.5 -246t-269.5 -91
q-119 0 -215 54.5zM889.5 567q114.5 82 215.5 242q-101 160 -215.5 241.5t-228.5 81.5q-93 0 -169.5 -42.5t-120.5 -116t-44 -164.5t44 -165t120.5 -116.5t169.5 -42.5q114 0 228.5 82zM1831 527.5q77 42.5 121 116.5t44 165t-44 164.5t-121 116t-170 42.5
q-120 0 -235.5 -86t-222.5 -237q107 -152 222.5 -238t235.5 -86q93 0 170 42.5z" />
    <glyph glyph-name="integral" unicode="&#x222b;" horiz-adv-x="1178" 
d="M135 -444q133 0 213 34.5t117.5 108.5t37.5 196v1360q0 95 40.5 171.5t111 120.5t156.5 44q60 0 120 -23t113 -67l-58 -70q-41 34 -86.5 51.5t-88.5 17.5q-61 0 -110.5 -31t-78 -87.5t-28.5 -128.5v-1360q0 -428 -459 -428v91z" />
    <glyph glyph-name="approxequal" unicode="&#x2248;" horiz-adv-x="1260" 
d="M730 816.5q-40 21.5 -66.5 52t-61.5 81.5q-29 44 -51 70t-52.5 43.5t-69.5 17.5q-75 0 -117.5 -63t-42.5 -174h-85q0 95 30 165.5t85.5 109t129.5 38.5q59 0 101 -22t70 -54t62 -83q28 -43 49 -68t49 -41.5t65 -16.5q49 0 86.5 32.5t58 91.5t20.5 137h84
q0 -100 -31 -176.5t-87.5 -119t-130.5 -42.5q-55 0 -95 21.5zM730 344.5q-40 21.5 -66.5 52t-61.5 81.5q-29 44 -51 70t-52.5 43.5t-69.5 17.5q-75 0 -117.5 -63.5t-42.5 -173.5h-85q0 94 30 164.5t85.5 109t129.5 38.5q59 0 101 -22t70 -54t62 -83q28 -43 49 -68t49 -41.5
t65 -16.5q49 0 86.5 32.5t58 92t20.5 137.5h84q0 -100 -31 -176.5t-87.5 -119t-130.5 -42.5q-55 0 -95 21.5z" />
    <glyph glyph-name="notequal" unicode="&#x2260;" horiz-adv-x="1260" 
d="M428 493h-228v92h281l175 323h-456v92h512l310 570h78l-309 -570h266v-92h-322l-175 -323h497v-92h-551l-267 -493h-80z" />
    <glyph glyph-name="lessequal" unicode="&#x2264;" horiz-adv-x="1260" 
d="M65 893l1064 605l39 -70l-935 -535l935 -535l-39 -71zM52 0h1128v-83h-1128v83z" />
    <glyph glyph-name="greaterequal" unicode="&#x2265;" horiz-adv-x="1260" 
d="M92 358l935 535l-935 535l39 70l1064 -605l-1064 -606zM80 -83v83h1128v-83h-1128z" />
    <glyph glyph-name="lozenge" unicode="&#x25ca;" horiz-adv-x="1321" 
d="M164 785l414 785h165l414 -785l-414 -785h-165zM678 63l372 722l-372 723h-36l-371 -723l371 -722h36z" />
    <glyph glyph-name="uniF8FF" unicode="&#xf8ff;" horiz-adv-x="2055" 
d="M595.5 47.5q-197.5 115.5 -313 313t-115.5 431.5t115.5 431.5t313 313t431.5 115.5t432 -115.5t313.5 -313t115.5 -431.5t-115.5 -431.5t-313.5 -313t-432 -115.5t-431.5 115.5zM1419.5 116q179.5 105 284 284t104.5 392t-104.5 392t-284 283.5t-392.5 104.5t-392 -104.5
t-283.5 -283.5t-104.5 -392t104.5 -392t284 -284t391.5 -105q213 0 392.5 105zM551.5 466q-11.5 11 -11.5 28v596q0 17 12 29t27 12q17 0 29 -12t12 -29v-596q0 -17 -12 -28t-29 -11q-16 0 -27.5 11zM999.5 466q-10.5 11 -10.5 28v596q0 17 11 29t27 12q17 0 28 -12t11 -29
v-596q0 -17 -11 -28t-28 -11t-27.5 11zM1448 466l-300 299q-9 12 -9 27q0 18 9 27l302 298q8 14 23 14q16 0 28.5 -13t12.5 -28q0 -16 -11 -27l-271 -271l271 -271q11 -11 11 -27t-12.5 -27.5t-28.5 -11.5t-25 11zM701.5 764q-10.5 11 -10.5 28t10.5 28t27.5 11h148
q17 0 29 -11t12 -28t-12 -28t-29 -11h-148q-17 0 -27.5 11z" />
    <glyph glyph-name="i.loclTRK" horiz-adv-x="531" 
d="M213 1110h106v-1110h-106v1110zM198 1434q-27 27 -27 67q0 38 27.5 65t66.5 27q37 0 64.5 -27t27.5 -65q0 -39 -27 -66.5t-65 -27.5q-40 0 -67 27z" />
    <glyph glyph-name="g.ss01" horiz-adv-x="1366" 
d="M359.5 -399.5q-123.5 74.5 -197.5 216.5l78 64q57 -121 163.5 -191.5t260.5 -70.5q112 0 199 48t136 140t49 221v219h-6q-58 -124 -163.5 -193t-256.5 -69q-144 0 -257.5 72.5t-177 202.5t-63.5 296t63.5 295.5t177.5 201.5t259 72t256 -71.5t162 -191.5h6l8 248h98
v-1082q0 -158 -61.5 -271t-171 -172t-250.5 -59q-188 0 -311.5 74.5zM857.5 137q93.5 61 146 170t52.5 249t-52.5 248.5t-146 169t-212.5 60.5q-120 0 -214.5 -61t-147.5 -169.5t-53 -247.5t53 -248.5t147.5 -170.5t214.5 -61q119 0 212.5 61z" />
    <glyph glyph-name="gbreve.ss01" horiz-adv-x="1366" 
d="M359.5 -399.5q-123.5 74.5 -197.5 216.5l78 64q57 -121 163.5 -191.5t260.5 -70.5q112 0 199 48t136 140t49 221v219h-6q-58 -124 -163.5 -193t-256.5 -69q-144 0 -257.5 72.5t-177 202.5t-63.5 296t63.5 295.5t177.5 201.5t259 72t256 -71.5t162 -191.5h6l8 248h98
v-1082q0 -158 -61.5 -271t-171 -172t-250.5 -59q-188 0 -311.5 74.5zM857.5 137q93.5 61 146 170t52.5 249t-52.5 248.5t-146 169t-212.5 60.5q-120 0 -214.5 -61t-147.5 -169.5t-53 -247.5t53 -248.5t147.5 -170.5t214.5 -61q119 0 212.5 61zM421 1348q-85 78 -85 222h79
q0 -115 66.5 -173.5t189.5 -58.5q124 0 189.5 59t65.5 173h79q0 -145 -86 -222.5t-248 -77.5q-165 0 -250 78z" />
    <glyph glyph-name="uni0123.ss01" horiz-adv-x="1366" 
d="M359.5 -399.5q-123.5 74.5 -197.5 216.5l78 64q57 -121 163.5 -191.5t260.5 -70.5q112 0 199 48t136 140t49 221v219h-6q-58 -124 -163.5 -193t-256.5 -69q-144 0 -257.5 72.5t-177 202.5t-63.5 296t63.5 295.5t177.5 201.5t259 72t256 -71.5t162 -191.5h6l8 248h98
v-1082q0 -158 -61.5 -271t-171 -172t-250.5 -59q-188 0 -311.5 74.5zM857.5 137q93.5 61 146 170t52.5 249t-52.5 248.5t-146 169t-212.5 60.5q-120 0 -214.5 -61t-147.5 -169.5t-53 -247.5t53 -248.5t147.5 -170.5t214.5 -61q119 0 212.5 61zM753 1374q28 -23 28 -56
q0 -32 -30 -54.5t-73 -22.5q-77 0 -114.5 43.5t-37.5 107.5q0 50 23.5 105.5t72 102.5t119.5 70l26 -53q-52 -17 -92 -51t-61 -74.5t-21 -78.5q0 -30 13 -55q13 19 34.5 29t46.5 10q38 0 66 -23z" />
    <glyph glyph-name="gdotaccent.ss01" horiz-adv-x="1366" 
d="M359.5 -399.5q-123.5 74.5 -197.5 216.5l78 64q57 -121 163.5 -191.5t260.5 -70.5q112 0 199 48t136 140t49 221v219h-6q-58 -124 -163.5 -193t-256.5 -69q-144 0 -257.5 72.5t-177 202.5t-63.5 296t63.5 295.5t177.5 201.5t259 72t256 -71.5t162 -191.5h6l8 248h98
v-1082q0 -158 -61.5 -271t-171 -172t-250.5 -59q-188 0 -311.5 74.5zM857.5 137q93.5 61 146 170t52.5 249t-52.5 248.5t-146 169t-212.5 60.5q-120 0 -214.5 -61t-147.5 -169.5t-53 -247.5t53 -248.5t147.5 -170.5t214.5 -61q119 0 212.5 61zM605 1434q-27 27 -27 67
q0 38 27.5 65t66.5 27q37 0 64.5 -27t27.5 -65q0 -39 -27 -66.5t-65 -27.5q-40 0 -67 27z" />
    <glyph glyph-name="T_h" horiz-adv-x="2344" 
d="M2125.5 902q30.5 -86 30.5 -224v-678h-106v641q0 125 -21 200t-69 120q-76 73 -215 73q-143 0 -230 -87q-48 -49 -70.5 -123.5t-22.5 -190.5v-633h-106l1 1471h-549v-1471h-109v1471h-568v99h1332l-1 -637h7q41 87 132 139.5t215 52.5q81 0 147 -22t111 -61
q61 -54 91.5 -140z" />
    <glyph glyph-name="f_f_t" horiz-adv-x="1850" 
d="M1769 2q-24 -7 -61.5 -12t-74.5 -5q-143 0 -216 83t-73 244v707h-428v-1019h-106v1019h-461v-1019h-104v1019h-198v91h198v112q0 110 52 192.5t143.5 126.5t205.5 44q159 0 275 -78q90 78 245 78q79 0 153 -24.5t129 -67.5v-383h308v-91h-308v-695q0 -120 46.5 -184
t156.5 -64q54 0 100 14zM810 1207q0 141 55 234q-93 56 -214 56q-93 0 -161 -34t-104.5 -96.5t-36.5 -145.5v-111h461v97zM1346 1435q-36 30 -83 46t-99 16q-123 0 -185.5 -69t-62.5 -223v-95h430v325z" />
    <glyph glyph-name="f_t" horiz-adv-x="1272" 
d="M839 68q-73 83 -73 244v707h-428v-1019h-106v1019h-185v91h185v97q0 191 94.5 284.5t261.5 93.5q79 0 153 -24.5t129 -67.5v-383h308v-91h-308v-695q0 -120 46.5 -184t156.5 -64q54 0 100 14l18 -88q-24 -7 -61.5 -12t-74.5 -5q-143 0 -216 83zM768 1110v325
q-36 30 -83 46t-99 16q-123 0 -185.5 -69t-62.5 -223v-95h430z" />
    <glyph glyph-name="t_t" horiz-adv-x="1343" 
d="M1262 2q-26 -7 -62 -12t-72 -5q-165 0 -228 100t-63 227v707h-487v-695q0 -101 40 -174.5t161 -73.5q25 0 53 4t48 10l18 -88q-26 -7 -62 -12t-72 -5q-165 0 -228 100t-63 227v707h-186v91h187v313l104 80v-393h488v313l104 80v-393h306v-91h-306v-695q0 -101 40 -174.5
t161 -73.5q25 0 53 4t48 10z" />
    <glyph glyph-name="zero.lf" horiz-adv-x="1275" 
d="M354 105q-100 120 -132.5 293.5t-32.5 386.5q0 216 31.5 389.5t130 293t286.5 119.5q263 0 358 -228.5t95 -574.5q0 -343 -94 -571t-353 -228q-189 0 -289 120zM857 184q74 103 97 254t23 348q0 200 -23 350t-98 251.5t-219 101.5t-219 -101.5t-98 -252t-23 -350.5
q0 -198 23.5 -349t99.5 -253t221 -102q142 0 216 103z" />
    <glyph glyph-name="one.lf" horiz-adv-x="857" 
d="M600 1570v-1570h-110v1228h-404v86h287q64 0 93 25t29 82v149h105z" />
    <glyph glyph-name="two.lf" horiz-adv-x="1315" 
d="M119 110l501 411q134 109 216.5 199.5t125.5 188t43 211.5q0 108 -42 190.5t-122 128.5t-191 46q-123 0 -207.5 -53t-127 -149.5t-44.5 -225.5l-106 6q0 155 57.5 273t168.5 183.5t265 65.5q142 0 245 -59t157.5 -163t54.5 -239q0 -123 -45 -231t-137.5 -214.5
t-242.5 -229.5l-406 -330v-19h916v-100h-1079v110z" />
    <glyph glyph-name="three.lf" horiz-adv-x="1336" 
d="M377.5 41q-121.5 56 -189.5 163.5t-68 254.5l104 4q0 -115 54 -200.5t152 -131t228 -45.5q124 0 221.5 44t152.5 126t55 191q0 155 -105 232.5t-264 96.5q-65 8 -154 8v91q103 0 154 11q125 22 205.5 92t80.5 201q0 89 -45.5 158.5t-125.5 107.5t-180 38q-105 0 -186 -40
t-125.5 -114t-44.5 -171l-104 6q0 126 59 222t163.5 147.5t236.5 51.5q127 0 231.5 -50t165.5 -140t61 -205q0 -146 -85 -231t-202 -118v-7q94 -19 177.5 -66t137.5 -129.5t54 -199.5q0 -138 -69.5 -241t-191 -158t-274.5 -55q-158 0 -279.5 56z" />
    <glyph glyph-name="four.lf" horiz-adv-x="1348" 
d="M894 377h-805v75l807 1118h107v-1093h257v-100h-257v-377h-109v377zM894 477v926h-8l-659 -922l5 -4h662z" />
    <glyph glyph-name="five.lf" horiz-adv-x="1329" 
d="M943 966q114 -66 179.5 -183.5t65.5 -265.5q0 -150 -69 -271.5t-190 -191t-269 -69.5q-130 0 -238.5 53.5t-181 150.5t-99.5 225l104 26q21 -106 79 -185.5t144.5 -123t190.5 -43.5q119 0 215.5 56t152 154.5t55.5 219.5q0 119 -52 214t-143 148.5t-206 53.5t-212 -54
t-164 -155l-115 38l136 807h784v-101h-699l-97 -604q76 82 173 124.5t204 42.5q138 0 252 -66z" />
    <glyph glyph-name="six.lf" horiz-adv-x="1281" 
d="M902.5 939q118.5 -68 187 -185t68.5 -259q0 -141 -68 -258t-186 -184.5t-261 -67.5q-144 0 -262.5 67.5t-187 183t-68.5 252.5q0 78 22 153t62 143l468 786h123l-363 -612q96 49 204 49q143 0 261.5 -68zM848.5 142q94.5 54 149.5 148t55 207q0 112 -55 205.5t-149.5 148
t-207.5 54.5q-112 0 -206.5 -54.5t-149.5 -148.5t-55 -207t54.5 -206t148.5 -147t208 -54q113 0 207.5 54z" />
    <glyph glyph-name="seven.lf" horiz-adv-x="1291" 
d="M1070 1456v13h-988v101h1120v-75l-794 -1495h-121z" />
    <glyph glyph-name="eight.lf" horiz-adv-x="1304" 
d="M404 36q-116 51 -188 153t-72 247q0 102 39.5 186.5t112 143.5t170.5 85v2q-105 41 -166.5 134t-61.5 218q0 116 60 202.5t156 132t201 45.5q116 0 211 -49t150 -138t55 -204q0 -120 -62.5 -211t-167.5 -130v-2q97 -27 168.5 -86t110 -143.5t38.5 -185.5q0 -145 -71 -247
t-187 -153t-248 -51t-248 51zM817 930.5q71 37.5 110.5 103.5t39.5 150q0 89 -39.5 158t-110 107t-161.5 38q-83 0 -154.5 -35t-114.5 -100.5t-43 -154.5q0 -90 39 -159t110 -107t164 -38q89 0 160 37.5zM851 124.5q90 41.5 143.5 123t53.5 195.5q0 105 -50 186.5t-140 127
t-206 45.5q-117 0 -207.5 -45.5t-140.5 -127t-50 -186.5q0 -114 54.5 -195.5t145 -123t198.5 -41.5q109 0 199 41.5z" />
    <glyph glyph-name="nine.lf" horiz-adv-x="1280" 
d="M899.5 1517.5q118.5 -67.5 187 -183t68.5 -252.5q0 -78 -22 -153t-62 -143l-468 -786h-123l363 612q-96 -49 -204 -49q-143 0 -261.5 68t-187 185t-68.5 259q0 141 68 258t186 184.5t261 67.5q144 0 262.5 -67.5zM845.5 719.5q94.5 54.5 149.5 148.5t55 207t-54.5 206
t-148.5 147t-208 54q-113 0 -207.5 -54t-149.5 -148t-55 -207q0 -112 55 -205.5t149.5 -148t207.5 -54.5q112 0 206.5 54.5z" />
    <glyph glyph-name="caroncomb.alt" 
d="M-189.5 1531q38.5 -56 38.5 -139q0 -64 -24 -132.5t-73 -126t-119 -86.5l-26 59q53 24 92.5 68t60.5 97.5t21 104.5q0 42 -14 73q-12 -22 -33.5 -34.5t-46.5 -12.5q-39 0 -66 26.5t-27 66.5q0 39 28 65.5t70 26.5q80 0 118.5 -56z" />
    <glyph glyph-name="uni0308.case" 
d="M-729 1313.5q-27 27.5 -27 66.5q0 38 27 64.5t67 26.5q38 0 65 -27t27 -64q0 -39 -27 -66.5t-65 -27.5q-40 0 -67 27.5zM-335 1313.5q-27 27.5 -27 66.5q0 38 27 64.5t66 26.5q38 0 65 -27t27 -64q0 -39 -27 -66.5t-65 -27.5q-39 0 -66 27.5z" />
    <glyph glyph-name="uni0307.case" 
d="M-335 1313.5q-27 27.5 -27 66.5q0 38 27 64.5t67 26.5q38 0 65 -27t27 -64q0 -39 -27 -66.5t-65 -27.5q-40 0 -67 27.5z" />
    <glyph glyph-name="uni0337.case" 
d="M-760 705l680 545v-119l-680 -546v120z" />
    <glyph glyph-name="uni0338.case" 
d="M-1115 19l1008 1601l72 -45l-1007 -1601z" />
    <glyph glyph-name="basegreaterlessthan" horiz-adv-x="1126" 
d="M0 0h1126v-83h-1126v83z" />
    <glyph glyph-name="_global" horiz-adv-x="2006" 
 />
    </font>
</defs>
</svg>
