<?xml version="1.0" standalone="no"?>
<!DOCTYPE svg PUBLIC "-//W3C//DTD SVG 1.1//EN" "http://www.w3.org/Graphics/SVG/1.1/DTD/svg11.dtd" >
<svg xmlns="http://www.w3.org/2000/svg" xmlns:xlink="http://www.w3.org/1999/xlink" version="1.1">
<metadata>
Created by FontForge 20170731 at Tue Feb 19 21:55:38 2019
 By Aleksey,,,
Copyright (c) 2019 Hanken Grotesk by Alfredo Marco Pradil. All rights reserved.
</metadata>
<defs>
<font id="HankenGrotesk-Medium" horiz-adv-x="0" >
  <font-face 
    font-family="Hanken Grotesk Medium"
    font-weight="500"
    font-stretch="normal"
    units-per-em="2048"
    panose-1="0 0 6 0 0 0 0 0 0 0"
    ascent="1570"
    descent="-478"
    x-height="1110"
    cap-height="1570"
    bbox="-1627 -626 2903 2526"
    underline-thickness="91"
    underline-position="-363"
    unicode-range="U+0020-FB02"
  />
<missing-glyph horiz-adv-x="1254" 
d="M168 1065h917v-1065h-917v1065zM1004 84v897h-751v-897h751z" />
    <glyph glyph-name="fi" unicode="fi" horiz-adv-x="1154" 
d="M1001 0h-175v951h-421v-951h-187v951h-191v159h191v89q0 126 55 213.5t149 131.5t211 44q114 0 201.5 -27t166.5 -82l-89 -132q-58 44 -124 66.5t-146 22.5q-117 0 -177 -60.5t-60 -180.5v-85h596v-1110z" />
    <glyph glyph-name="fl" unicode="fl" horiz-adv-x="1261" 
d="M833 230v1151q-88 55 -205 55q-123 0 -182 -73q-24 -31 -35 -80t-11 -134v-39h239v-159h-239v-951h-188v951h-185v159h185v44q0 118 25.5 193t74.5 125q55 57 134.5 86.5t172.5 29.5q80 0 140 -9.5t121 -33t142 -68.5v-1204q0 -65 22.5 -98.5t84.5 -33.5q39 0 75 9
l27 -141q-36 -13 -81.5 -20t-86.5 -7q-230 0 -230 248z" />
    <glyph glyph-name="f_f" unicode="ff" horiz-adv-x="1320" 
d="M218 951h-191v159h191v96q0 116 58 202.5t157.5 133t219.5 46.5q157 0 278 -72q46 35 105 53.5t127 18.5q91 0 182 -43l-64 -155q-51 30 -100 30q-77 0 -119.5 -40.5t-42.5 -123.5v-146h285v-159h-285v-951h-195v951h-419v-951h-187v951zM826 1110v164q0 68 25 116
q-80 46 -189 46q-122 0 -189.5 -63t-67.5 -169v-94h421z" />
    <glyph glyph-name="f_f_i" unicode="ffi" horiz-adv-x="1773" 
d="M218 951h-191v159h191v96q0 116 58 202.5t157.5 133t219.5 46.5q83 0 160.5 -22t142.5 -66q55 43 128.5 65.5t155.5 22.5q114 0 201.5 -27t167.5 -82l-89 -132q-117 89 -271 89q-116 0 -176 -60.5t-60 -180.5v-85h607v-1110h-186v951h-421v-951h-189v951h-419v-951h-187
v951zM824 1110v89q0 103 41 182q-89 55 -203 55q-122 0 -189.5 -63t-67.5 -169v-94h419z" />
    <glyph glyph-name="f_f_l" unicode="ffl" horiz-adv-x="1868" 
d="M1839 9q-36 -13 -82 -20t-89 -7q-117 0 -175.5 60.5t-58.5 187.5v1163q-84 43 -185 43q-116 0 -176 -60.5t-60 -180.5v-85h239v-159h-239v-951h-189v951h-419v-951h-187v951h-191v159h191v96q0 116 58 202.5t157.5 133t219.5 46.5q83 0 162 -22t143 -67q54 43 125.5 66
t156.5 23q114 0 202.5 -27.5t177.5 -85.5v-1202q0 -65 23.5 -98.5t88.5 -33.5q44 0 79 9zM824 1110v89q0 103 40 183q-87 54 -202 54q-122 0 -189.5 -63t-67.5 -169v-94h419z" />
    <glyph glyph-name="h_d_c_o.liga" unicode="hdco" horiz-adv-x="1989" 
d="M562.5 47.5q-197.5 115.5 -313 313t-115.5 431.5t115.5 431.5t313 313t431.5 115.5t432 -115.5t313.5 -313t115.5 -431.5t-115.5 -431.5t-313.5 -313t-432 -115.5t-431.5 115.5zM1386.5 116q179.5 105 284 284t104.5 392t-104.5 392t-284 283.5t-392.5 104.5t-392 -104.5
t-283.5 -283.5t-104.5 -392t104.5 -392t284 -284t391.5 -105q213 0 392.5 105zM518.5 466q-11.5 11 -11.5 28v596q0 17 12 29t27 12q17 0 29 -12t12 -29v-596q0 -17 -12 -28t-29 -11q-16 0 -27.5 11zM966.5 466q-10.5 11 -10.5 28v596q0 17 11 29t27 12q17 0 28 -12t11 -29
v-596q0 -17 -11 -28t-28 -11t-27.5 11zM1409 469l-289 289q-14 14 -14 32q0 17 14 31l289 289q13 14 29 14q18 0 27 -11q12 -12 12 -28q0 -15 -14 -29l-266 -266l266 -267q14 -14 14 -29q0 -16 -12 -28q-11 -11 -27 -11q-15 0 -29 14zM668.5 764q-10.5 11 -10.5 28t10.5 28
t27.5 11h148q17 0 29 -11t12 -28t-12 -28t-29 -11h-148q-17 0 -27.5 11z" />
    <glyph glyph-name="hyphen_hyphen.liga" unicode="&#x2d;&#x2d;" horiz-adv-x="1138" 
d="M0 755h1138v-143h-1138v143z" />
    <glyph glyph-name="hyphen_hyphen_hyphen.liga" unicode="&#x2d;&#x2d;&#x2d;" horiz-adv-x="2276" 
d="M0 755h2276v-143h-2276v143z" />
    <glyph glyph-name="hyphen_greater.liga" unicode="&#x2d;&#x3e;" horiz-adv-x="2269" 
d="M1379 228v384h-1233v143h1233v383l774 -455z" />
    <glyph glyph-name="parenleft_c_parenright.liga" unicode="&#x28;c&#x29;" horiz-adv-x="1916" 
d="M545 84q-189 109 -300 295t-111 406t111 406t300 295t413 109t413 -109t300 -295t111 -406t-111 -406t-300 -295t-413 -109t-413 109zM1309.5 189q161.5 93 256.5 251t95 345t-95 345.5t-256.5 251.5t-351.5 93q-191 0 -353 -93t-257 -251.5t-95 -345.5t95 -345t257 -251
t353 -93q190 0 351.5 93zM739.5 347.5q-101.5 67.5 -154.5 182t-53 253.5q0 133 50.5 249t151.5 187t244 71q140 0 244.5 -69.5t158.5 -203.5l-148 -59q-33 88 -100 139.5t-155 51.5q-94 0 -158.5 -51t-96 -134.5t-31.5 -180.5q0 -98 31.5 -180.5t96.5 -132t161 -49.5
q89 0 154.5 50t93.5 137l141 -55q-46 -130 -148.5 -201.5t-240.5 -71.5q-140 0 -241.5 67.5z" />
    <glyph glyph-name="parenleft_p_parenright.liga" unicode="&#x28;p&#x29;" horiz-adv-x="1916" 
d="M545 84q-189 109 -300 295t-111 406t111 406t300 295t413 109t413 -109t300 -295t111 -406t-111 -406t-300 -295t-413 -109t-413 109zM1309.5 189q161.5 93 256.5 251t95 345t-95 345.5t-256.5 251.5t-351.5 93q-191 0 -353 -93t-257 -251.5t-95 -345.5t95 -345t257 -251
t353 -93q190 0 351.5 93zM781 1183l550 -396l-550 -398v794z" />
    <glyph glyph-name="parenleft_r_parenright.liga" unicode="&#x28;r&#x29;" horiz-adv-x="1916" 
d="M545 84q-189 109 -300 295t-111 406t111 406t300 295t413 109t413 -109t300 -295t111 -406t-111 -406t-300 -295t-413 -109t-413 109zM1309.5 189q161.5 93 256.5 251t95 345t-95 345.5t-256.5 251.5t-351.5 93q-191 0 -353 -93t-257 -251.5t-95 -345.5t95 -345t257 -251
t353 -93q190 0 351.5 93zM694 1263h282q97 0 171 -33.5t114.5 -95.5t40.5 -144q0 -90 -51.5 -155t-142.5 -91l264 -437h-145l-244 423q-18 -2 -55 -2h-107v-421h-127v956zM988 833q90 1 138 42t48 113q0 76 -52 118.5t-144 42.5h-157v-316h167z" />
    <glyph glyph-name="less_hyphen.liga" unicode="&#x3c;&#x2d;" horiz-adv-x="2269" 
d="M2123 612h-1233v-384l-774 455l774 455v-383h1233v-143z" />
    <glyph glyph-name=".notdef" horiz-adv-x="1254" 
d="M168 1065h917v-1065h-917v1065zM1004 84v897h-751v-897h751z" />
    <glyph glyph-name=".null" 
 />
    <glyph glyph-name="nonmarkingreturn" horiz-adv-x="682" 
 />
    <glyph glyph-name="space" unicode=" " horiz-adv-x="571" 
 />
    <glyph glyph-name="exclam" unicode="!" horiz-adv-x="703" 
d="M259 1570h187l-20 -1117h-146zM286.5 -5.5q-30.5 17.5 -48 48t-17.5 66.5q0 35 17.5 64.5t48 46.5t66.5 17q35 0 64.5 -17t47 -46.5t17.5 -64.5q0 -36 -17.5 -66t-47.5 -48t-64 -18q-36 0 -66.5 17.5z" />
    <glyph glyph-name="quotedbl" unicode="&#x22;" horiz-adv-x="978" 
d="M228 1570h159v-667h-159v667zM592 1570h159v-667h-159v667z" />
    <glyph glyph-name="numbersign" unicode="#" horiz-adv-x="1572" 
d="M389 471h-271v134h301l79 385h-286v141h314l100 439h150l-98 -444h355l96 444h150l-98 -444h273v-136h-303l-81 -385h291v-134h-321l-98 -471h-150l100 471h-355l-98 -471h-150zM924 605l77 385h-355l-77 -385h355z" />
    <glyph glyph-name="dollar" unicode="$" horiz-adv-x="1272" 
d="M1107 216q-56 -100 -158.5 -160t-236.5 -70v-277h-84v276q-135 5 -248 57.5t-187.5 150t-96.5 233.5l193 47q19 -146 109.5 -226t229.5 -87v589l-21 8q-138 52 -222 97t-142.5 124t-58.5 201t59 214t160 142t225 53v255h84v-259q125 -13 223.5 -76t163.5 -179l-161 -100
q-83 149 -226 179v-499q144 -53 234 -101t153.5 -136.5t63.5 -227.5q0 -128 -56 -228zM411.5 1079q31.5 -45 84.5 -76.5t132 -62.5v475q-70 -2 -126.5 -32t-89 -81.5t-32.5 -115.5q0 -62 31.5 -107zM899.5 249.5q67.5 72.5 67.5 178.5q0 74 -32.5 127t-87.5 90t-135 71v-554
q120 15 187.5 87.5z" />
    <glyph glyph-name="percent" unicode="%" horiz-adv-x="1666" 
d="M279 925q-70 49 -106 130.5t-36 177.5q0 95 35.5 176.5t103.5 130t161 48.5q87 0 156.5 -46.5t109 -128t39.5 -182.5t-38.5 -182t-106.5 -127t-153 -46q-95 0 -165 49zM1217 1570h135l-904 -1570h-134zM530.5 1033q38.5 29 60 81t21.5 117t-21 117t-60.5 82.5t-93.5 30.5
q-56 0 -94.5 -31.5t-57.5 -83t-19 -113.5q0 -97 45.5 -163t132.5 -66q48 0 86.5 29zM1067 31q-69 49 -105 130.5t-36 177.5q0 95 35.5 176.5t103 130t159.5 48.5q88 0 157.5 -46.5t108.5 -128t39 -182.5t-38.5 -182t-106.5 -127t-153 -46q-95 0 -164 49zM1319 138.5
q39 29.5 61 81.5t22 117q0 64 -21 116.5t-61.5 83t-95.5 30.5q-56 0 -94 -31.5t-57 -83.5t-19 -113q0 -98 45.5 -164t131.5 -66q49 0 88 29.5z" />
    <glyph glyph-name="ampersand" unicode="&#x26;" horiz-adv-x="1593" 
d="M1318 -77l-198 229q-98 -86 -222 -129t-265 -43q-146 0 -258 45t-175 132t-63 209q0 112 51.5 198t132.5 148.5t197 124.5q-54 59 -95 111.5t-75 125.5t-34 150q0 107 56.5 189.5t151.5 127.5t206 45t201 -48t141.5 -132t51.5 -186q0 -93 -44.5 -168t-116 -133
t-174.5 -117l317 -365h25v-2q89 170 102 402l180 -20q-29 -325 -174 -533l213 -243zM525 1117q29 -59 61.5 -101t80.5 -99q90 48 149.5 91t96 96.5t36.5 119.5q0 58 -27 107t-77.5 78t-116.5 29q-67 0 -120 -26t-82.5 -73t-29.5 -108q0 -55 29 -114zM842 163.5
q96 38.5 171 112.5l-380 439q-100 -56 -166 -105t-107 -111t-41 -137t41 -128.5t112.5 -81t162.5 -27.5q111 0 207 38.5z" />
    <glyph glyph-name="quotesingle" unicode="'" horiz-adv-x="614" 
d="M228 1570h159v-667h-159v667z" />
    <glyph glyph-name="parenleft" unicode="(" horiz-adv-x="644" 
d="M270 143.5q-60 147.5 -92 317.5t-32 324q0 274 68 501t193 373h173q-145 -177 -214.5 -401.5t-69.5 -476.5q0 -263 70.5 -479.5t211.5 -394.5h-168q-80 89 -140 236.5z" />
    <glyph glyph-name="parenright" unicode=")" horiz-adv-x="644" 
d="M66 -93q141 178 211.5 394.5t70.5 479.5q0 252 -69.5 476.5t-214.5 401.5h173q125 -146 193 -373t68 -501q0 -154 -32 -324t-92 -317.5t-140 -236.5h-168z" />
    <glyph glyph-name="asterisk" unicode="*" horiz-adv-x="1029" 
d="M239 1010l187 207l-269 39l57 164l246 -109l-34 259h177l-36 -259l245 109l55 -164l-269 -39l189 -207l-145 -98l-130 260l-130 -260z" />
    <glyph glyph-name="plus" unicode="+" horiz-adv-x="1290" 
d="M573 624h-498v143h498v498h144v-498h498v-143h-498v-501h-144v501z" />
    <glyph glyph-name="comma" unicode="," horiz-adv-x="728" 
d="M484.5 175q45.5 -63 45.5 -155q0 -70 -26.5 -147t-85 -142t-147.5 -95l-46 100q87 37 131 101.5t44 139.5q0 12 -1 18q-28 -18 -67 -18q-53 0 -90 34t-37 91q0 60 39.5 97.5t99.5 37.5q95 1 140.5 -62z" />
    <glyph glyph-name="hyphen" unicode="-" horiz-adv-x="976" 
d="M180 755h616v-143h-616v143z" />
    <glyph glyph-name="period" unicode="." horiz-adv-x="705" 
d="M288.5 -5.5q-30.5 17.5 -48 48t-17.5 66.5q0 35 17.5 64.5t48 46.5t66.5 17q53 0 90 -37.5t37 -90.5q0 -36 -17 -66.5t-46 -48t-64 -17.5q-36 0 -66.5 17.5z" />
    <glyph glyph-name="slash" unicode="/" horiz-adv-x="997" 
d="M815 1659h177l-810 -2046h-177z" />
    <glyph glyph-name="zero" unicode="0" horiz-adv-x="1290" 
d="M340 103.5q-108 121.5 -141 294t-33 387.5q0 218 32 390.5t137.5 294t308.5 121.5q279 0 383 -228.5t104 -579.5q0 -347 -101.5 -574t-374.5 -227q-207 0 -315 121.5zM832.5 241.5q60.5 91.5 78 225.5t17.5 320q0 188 -17.5 320t-80 221.5t-186.5 89.5t-186.5 -89.5
t-80 -222t-17.5 -321.5q0 -187 18 -320.5t82 -224t191 -90.5q121 0 181.5 91.5z" />
    <glyph glyph-name="one" unicode="1" horiz-adv-x="1290" 
d="M851 1570v-1570h-196v1170h-384v150h248q79 0 112 29.5t33 97.5v123h187z" />
    <glyph glyph-name="two" unicode="2" horiz-adv-x="1290" 
d="M107 166l489 423q109 95 177.5 170t108.5 160t40 185q0 89 -34 158.5t-100 109t-160 39.5q-108 0 -179.5 -51t-106.5 -137t-37 -194l-191 11q0 152 61.5 277t180.5 198t283 73q148 0 256 -62.5t164 -170.5t56 -242q0 -113 -42.5 -216.5t-129 -207t-224.5 -223.5
l-309 -268v-21h785v-177h-1088v166z" />
    <glyph glyph-name="three" unicode="3" horiz-adv-x="1290" 
d="M346 39q-127 57 -200 169t-73 270l186 9q0 -101 47.5 -174t132.5 -112t196 -39q104 0 188 36t132.5 104.5t48.5 163.5q0 128 -81 191t-211 80q-69 9 -184 9v160q124 0 184 16q207 45 207 232q0 78 -37.5 135t-103 87t-148.5 30q-88 0 -155.5 -33t-105 -95t-37.5 -145
l-186 12q0 135 63.5 235.5t173.5 154t245 53.5q129 0 239 -51t175.5 -144.5t65.5 -216.5q0 -117 -61 -202t-155 -130v-9q84 -25 151.5 -76.5t107 -129.5t39.5 -178q0 -146 -74.5 -252t-201 -161.5t-281.5 -55.5q-160 0 -287 57z" />
    <glyph glyph-name="four" unicode="4" horiz-adv-x="1290" 
d="M803 373h-764v119l787 1078h173v-1019h253v-178h-253v-373h-196v373zM803 551v707h-11l-501 -700l7 -7h505z" />
    <glyph glyph-name="five" unicode="5" horiz-adv-x="1290" 
d="M933 980q118 -67 187.5 -187.5t69.5 -273.5q0 -154 -71 -276.5t-196 -191.5t-279 -69q-139 0 -253.5 54.5t-189.5 153t-99 226.5l185 48q14 -89 63 -157t124.5 -105.5t167.5 -37.5q102 0 184 46t128.5 127.5t46.5 183.5q0 101 -44.5 181.5t-124 126t-179.5 45.5
q-104 0 -188 -48.5t-135 -136.5l-182 57l136 824h829v-180h-676l-69 -447q65 52 143 78t163 26q141 0 259 -67z" />
    <glyph glyph-name="six" unicode="6" horiz-adv-x="1290" 
d="M923.5 971q123.5 -69 194 -190t70.5 -271t-70.5 -270.5t-193.5 -189t-275 -68.5q-154 0 -278.5 69t-195 187t-70.5 260q0 84 24 168.5t67 154.5l459 749h223l-331 -540q46 10 99 10q154 0 277.5 -69zM827 209q81 45 127.5 124.5t46.5 178.5q0 98 -46.5 177t-127.5 124
t-181 45q-99 0 -180 -45.5t-128 -125t-47 -177.5t46.5 -177t127.5 -124t181 -45t181 45z" />
    <glyph glyph-name="seven" unicode="7" horiz-adv-x="1290" 
d="M967 1379v11h-885v180h1126v-109l-746 -1461h-216z" />
    <glyph glyph-name="eight" unicode="8" horiz-adv-x="1290" 
d="M379 34q-124 52 -200.5 156.5t-76.5 253.5q0 139 71 244t198 159v9q-85 50 -133.5 136t-48.5 194q0 123 64.5 214.5t169.5 139.5t223 48q124 0 229 -49.5t167 -142t62 -215.5q0 -106 -49 -191.5t-133 -133.5v-9q125 -54 195.5 -159t70.5 -244q0 -149 -75.5 -253.5
t-199.5 -156.5t-267 -52t-267 52zM789 954.5q61 30.5 95.5 84.5t34.5 124q0 74 -34 131.5t-95 89t-141 31.5q-76 0 -137.5 -30t-97.5 -85.5t-36 -129.5q0 -73 34 -129t95.5 -86.5t141.5 -30.5q79 0 140 30.5zM823.5 191q78.5 36 123.5 104.5t45 161.5q0 92 -43.5 161.5
t-121.5 108t-181 38.5t-181 -38.5t-121.5 -108t-43.5 -161.5q0 -93 45.5 -161.5t124.5 -104.5t176 -36q99 0 177.5 36z" />
    <glyph glyph-name="nine" unicode="9" horiz-adv-x="1290" 
d="M919.5 1519q124.5 -69 195 -187t70.5 -260q0 -84 -24 -168.5t-67 -154.5l-459 -749h-223l331 540q-46 -10 -99 -10q-154 0 -277.5 69t-194 190t-70.5 271t70.5 270.5t193.5 189t275 68.5q154 0 278.5 -69zM824 757.5q81 45.5 128 125t47 177.5t-46.5 177t-127.5 124
t-181 45t-181 -45t-127.5 -124.5t-46.5 -178.5q0 -98 46.5 -177t127.5 -124t181 -45q99 0 180 45.5z" />
    <glyph glyph-name="colon" unicode=":" horiz-adv-x="689" 
d="M279.5 841q-30.5 17 -48 47t-17.5 65t18 65t48 47.5t66 17.5q34 0 63.5 -17.5t46.5 -47.5t17 -65t-17 -65t-46.5 -47t-63.5 -17q-36 0 -66.5 17zM279.5 -5.5q-30.5 17.5 -48 48t-17.5 66.5q0 35 17.5 64.5t48 46.5t66.5 17q34 0 63.5 -17t46.5 -46.5t17 -64.5
q0 -36 -17 -66.5t-46.5 -48t-63.5 -17.5q-36 0 -66.5 17.5z" />
    <glyph glyph-name="semicolon" unicode=";" horiz-adv-x="708" 
d="M272 841q-30 17 -47.5 47t-17.5 65t17.5 65t47 47.5t65.5 17.5q34 0 64 -17.5t47.5 -47.5t17.5 -65t-17.5 -65t-47 -47t-64.5 -17t-65 17zM486.5 175q45.5 -63 45.5 -155q0 -70 -27 -147t-86 -142t-148 -95l-43 100q85 38 128.5 102t43.5 139v17q-31 -17 -68 -17
q-53 0 -89 34t-36 91q0 60 39.5 97.5t99.5 37.5q95 1 140.5 -62z" />
    <glyph glyph-name="less" unicode="&#x3c;" horiz-adv-x="1290" 
d="M25 674l1136 646l70 -123l-915 -523l915 -524l-70 -125z" />
    <glyph glyph-name="equal" unicode="=" horiz-adv-x="1290" 
d="M200 1056h890v-162h-890v162zM200 598h890v-161h-890v161z" />
    <glyph glyph-name="greater" unicode="&#x3e;" horiz-adv-x="1290" 
d="M59 150l915 524l-915 523l70 123l1136 -646l-1136 -649z" />
    <glyph glyph-name="question" unicode="?" horiz-adv-x="949" 
d="M280 580q0 96 29.5 160.5t71.5 102.5t111 83q60 40 94 69.5t57.5 75t23.5 110.5q0 123 -78.5 188t-215.5 65q-55 0 -110.5 -14t-103.5 -41l-52 157q60 26 128 39t136 13q137 0 241 -47.5t162.5 -139.5t58.5 -222q0 -93 -29.5 -156t-71.5 -101t-112 -85q-61 -40 -96 -70.5
t-59 -77t-24 -111.5v-130h-161v132zM295.5 -5.5q-30.5 17.5 -48 48t-17.5 66.5q0 35 17.5 64.5t48 46.5t66.5 17q34 0 63.5 -17t46.5 -46.5t17 -64.5q0 -36 -17 -66.5t-46.5 -48t-63.5 -17.5q-36 0 -66.5 17.5z" />
    <glyph glyph-name="at" unicode="@" horiz-adv-x="2282" 
d="M635.5 -270.5q-221.5 120.5 -347.5 340.5t-126 506q0 288 126.5 520.5t353 365.5t512.5 133q279 0 499.5 -125t345 -347.5t124.5 -503.5q0 -193 -60 -351.5t-175 -251.5t-272 -93q-109 0 -171 57.5t-73 165.5q-6 35 -6 77q0 17 2 59h-12q-63 -106 -157.5 -168t-215.5 -62
q-109 0 -191 48t-127.5 142t-45.5 227q0 172 72.5 335t203 266.5t297.5 103.5q112 0 182 -53.5t94 -153.5h9l34 148h130l-34 -158q-57 -265 -87.5 -426t-35.5 -265q-1 -13 -1 -37q0 -88 34.5 -134.5t111.5 -46.5q112 0 194.5 76.5t126 206.5t43.5 288q0 246 -104.5 440
t-294.5 303.5t-438 109.5q-254 0 -450.5 -116.5t-305.5 -320.5t-109 -459q0 -252 109 -444t301 -296.5t432 -104.5q79 0 149 12.5t145 40.5l41 -119q-88 -29 -168.5 -42.5t-166.5 -13.5q-276 0 -497.5 120.5zM1214.5 270.5q100.5 88.5 155 224.5t54.5 272q0 140 -59.5 207.5
t-169.5 67.5q-132 0 -233 -84.5t-156 -218t-55 -273.5q0 -144 60.5 -214t171.5 -70q131 0 231.5 88.5z" />
    <glyph glyph-name="A" unicode="A" horiz-adv-x="1481" 
d="M1081 364h-677l-124 -364h-214l562 1570h225l562 -1570h-211zM1022 537l-271 801h-14l-274 -801h559z" />
    <glyph glyph-name="B" unicode="B" horiz-adv-x="1436" 
d="M239 1570h482q252 0 376 -91q136 -98 136 -296q0 -130 -57.5 -216.5t-156.5 -124.5v-14q134 -32 206 -130t72 -250q0 -101 -34 -188t-105 -146q-70 -60 -165.5 -87t-237.5 -27h-516v1570zM687 903q96 0 154.5 10.5t100.5 37.5q44 30 70 79t26 119q0 60 -19 106.5
t-54 75.5q-72 64 -241 64h-289v-492h252zM710 175q107 0 182.5 16t133.5 71q75 67 75 202q0 88 -32 145.5t-88 86.5q-38 20 -92.5 26t-148.5 6h-305v-553h275z" />
    <glyph glyph-name="C" unicode="C" horiz-adv-x="1629" 
d="M471.5 79q-162.5 97 -248.5 278t-86 430t86.5 429.5t250.5 276t391 95.5q247 0 414 -111.5t246 -325.5l-185 -70q-58 165 -177.5 249.5t-297.5 84.5q-166 0 -286 -75t-183.5 -216t-63.5 -337q0 -190 60.5 -332.5t178.5 -221t287 -78.5q179 0 302.5 89.5t184.5 258.5
l189 -59q-79 -224 -251.5 -343t-424.5 -119q-224 0 -386.5 97z" />
    <glyph glyph-name="D" unicode="D" horiz-adv-x="1611" 
d="M239 1570h357q170 0 288.5 -19.5t201 -58t154.5 -99.5q117 -102 178 -258t61 -361q0 -199 -60 -349t-177 -250q-76 -64 -164 -102t-204.5 -55.5t-279.5 -17.5h-355v1570zM576 175q148 0 246 16t164 48t124 84q173 156 173 458q0 154 -43 271.5t-127 196.5q-60 55 -130 87
t-162.5 45.5t-226.5 13.5h-159v-1220h141z" />
    <glyph glyph-name="E" unicode="E" horiz-adv-x="1379" 
d="M239 1570h985v-175h-789v-521h714v-173h-714v-526h835v-175h-1031v1570z" />
    <glyph glyph-name="F" unicode="F" horiz-adv-x="1322" 
d="M239 1570h1001v-175h-805v-521h698v-173h-698v-701h-196v1570z" />
    <glyph glyph-name="G" unicode="G" horiz-adv-x="1718" 
d="M1538 821v-821h-177v171h-16q-74 -84 -201 -136.5t-293 -52.5q-219 0 -380 97t-247.5 279.5t-86.5 431.5q0 248 86.5 427.5t249.5 275t389 95.5q248 0 415.5 -112t244.5 -325l-182 -70q-58 165 -178 249.5t-300 84.5q-166 0 -285 -74.5t-182 -215t-63 -335.5
q0 -191 62.5 -334t185 -222t298.5 -79q156 0 263.5 60.5t162 171t57.5 262.5h-430v172h607z" />
    <glyph glyph-name="H" unicode="H" horiz-adv-x="1661" 
d="M239 1570h196v-694h792v694h195v-1570h-195v701h-792v-701h-196v1570z" />
    <glyph glyph-name="I" unicode="I" horiz-adv-x="674" 
d="M239 1570h196v-1570h-196v1570z" />
    <glyph glyph-name="J" unicode="J" horiz-adv-x="1302" 
d="M416.5 1.5q-78.5 19.5 -136.5 57.5q-195 122 -205 401l196 27q3 -99 40.5 -171.5t102.5 -112.5q69 -48 173 -48q155 0 239 93q37 46 54 120t17 217v810h-624v175h819v-985q0 -175 -27.5 -281t-92.5 -179q-67 -72 -162.5 -107.5t-222.5 -35.5q-92 0 -170.5 19.5z" />
    <glyph glyph-name="K" unicode="K" horiz-adv-x="1561" 
d="M1495 0h-232l-503 828h-15l-310 -315v-513h-196v1570h196v-792h16l760 792h264l-583 -592z" />
    <glyph glyph-name="L" unicode="L" horiz-adv-x="1197" 
d="M239 1570h196v-1395h701v-175h-897v1570z" />
    <glyph glyph-name="M" unicode="M" horiz-adv-x="1946" 
d="M239 1570h330l398 -1078h11l399 1078h330v-1570h-196v1374h-16l-410 -1099h-225l-409 1099h-16v-1374h-196v1570z" />
    <glyph glyph-name="N" unicode="N" horiz-adv-x="1661" 
d="M239 1570h291l681 -1317h16v1317h195v-1570h-293l-678 1320h-16v-1320h-196v1570z" />
    <glyph glyph-name="O" unicode="O" horiz-adv-x="1723" 
d="M468.5 82.5q-163.5 100.5 -249 282t-85.5 420.5t85.5 420.5t249 282t391.5 100.5t392 -100.5t250 -282t86 -420.5t-86 -420.5t-250 -282t-392 -100.5t-391.5 100.5zM1149 234.5q120 79.5 182 221.5t62 329t-62 329t-182 221.5t-289 79.5q-167 0 -286.5 -79.5
t-181.5 -221.5t-62 -329t62 -329t181.5 -221.5t286.5 -79.5q169 0 289 79.5z" />
    <glyph glyph-name="P" unicode="P" horiz-adv-x="1327" 
d="M239 1570h385q197 0 302 -27t171 -84q132 -116 132 -335q0 -107 -31.5 -190t-91.5 -140q-67 -61 -174.5 -89.5t-307.5 -28.5h-189v-676h-196v1570zM592 849q115 0 184.5 7.5t114 26t76.5 52.5q66 69 66 191q0 123 -68 194q-32 29 -75.5 45t-113.5 23t-184 7h-157v-546
h157z" />
    <glyph glyph-name="Q" unicode="Q" horiz-adv-x="1739" 
d="M1534.5 445q-53.5 -153 -155.5 -260l166 -160l-121 -127l-182 178q-163 -94 -382 -94q-228 0 -391.5 100.5t-249 282t-85.5 420.5t85.5 420.5t249 282t391.5 100.5t392 -100.5t250 -282t86 -420.5q0 -187 -53.5 -340zM1105 210l-274 268l116 123l295 -284
q74 83 112.5 202.5t38.5 265.5q0 187 -62 329t-182 221.5t-289 79.5q-167 0 -286.5 -79.5t-181.5 -221.5t-62 -329t62 -329t181.5 -221.5t286.5 -79.5q138 0 245 55z" />
    <glyph glyph-name="R" unicode="R" horiz-adv-x="1424" 
d="M1117 0l-406 678q-54 -2 -87 -2h-189v-676h-196v1570h385q197 0 302 -27t171 -84q132 -116 132 -335q0 -107 -31.5 -190t-91.5 -140q-35 -32 -79 -55t-105 -37v-19l427 -683h-232zM776.5 856.5q69.5 7.5 114 26t76.5 52.5q66 69 66 191q0 123 -68 194q-32 29 -75.5 45
t-113.5 23t-184 7h-157v-546h157q115 0 184.5 7.5z" />
    <glyph glyph-name="S" unicode="S" horiz-adv-x="1272" 
d="M397 35q-119 51 -198.5 150.5t-102.5 240.5l193 47q20 -153 118 -233.5t248 -80.5q97 0 167.5 35t107.5 96t37 138q0 90 -48.5 150t-119.5 96.5t-194 83.5q-138 53 -221.5 97.5t-141.5 123t-58 200.5q0 125 61 217.5t165.5 142t231.5 49.5q149 0 265.5 -63.5
t191.5 -195.5l-161 -100q-104 186 -301 186q-72 0 -130.5 -29.5t-92.5 -81.5t-34 -118q0 -73 43 -122t107.5 -80.5t177.5 -72.5q146 -54 236.5 -102t154.5 -137t64 -228q0 -136 -63.5 -240.5t-178 -162t-263.5 -57.5q-142 0 -261 51z" />
    <glyph glyph-name="T" unicode="T" horiz-adv-x="1377" 
d="M592 1395h-531v175h1254v-175h-528v-1395h-195v1395z" />
    <glyph glyph-name="U" unicode="U" horiz-adv-x="1566" 
d="M530.5 20.5q-110.5 38.5 -184.5 111.5q-71 71 -105 175.5t-34 270.5v992h196v-985q0 -114 18.5 -188t67.5 -128q48 -54 122.5 -84t171.5 -30q98 0 172.5 29.5t123.5 84.5q45 51 64.5 121.5t19.5 194.5v985h196v-992q0 -166 -32.5 -269t-106.5 -177q-73 -73 -183.5 -111.5
t-253.5 -38.5q-142 0 -252.5 38.5z" />
    <glyph glyph-name="V" unicode="V" horiz-adv-x="1481" 
d="M66 1570h212l455 -1338h13l455 1338h214l-562 -1570h-225z" />
    <glyph glyph-name="W" unicode="W" horiz-adv-x="2435" 
d="M66 1570h212l455 -1338h13l364 1202h214l364 -1202h14l455 1338h212l-562 -1570h-225l-358 1154h-13l-358 -1154h-225z" />
    <glyph glyph-name="X" unicode="X" horiz-adv-x="1493" 
d="M619 790l-539 780h234l428 -637h7l430 637h234l-539 -780l546 -790h-232l-442 639h-4l-437 -639h-232z" />
    <glyph glyph-name="Y" unicode="Y" horiz-adv-x="1490" 
d="M646 585l-596 985h228l462 -771h11l462 771h227l-598 -985v-585h-196v585z" />
    <glyph glyph-name="Z" unicode="Z" horiz-adv-x="1420" 
d="M100 180l944 1199v16h-905v175h1154v-182l-945 -1199v-14h967v-175h-1215v180z" />
    <glyph glyph-name="bracketleft" unicode="[" horiz-adv-x="740" 
d="M230 1720h437v-127h-282v-1618h282v-127h-437v1872z" />
    <glyph glyph-name="backslash" unicode="\" horiz-adv-x="997" 
d="M815 -387l-810 2046h177l810 -2046h-177z" />
    <glyph glyph-name="bracketright" unicode="]" horiz-adv-x="740" 
d="M73 -152v127h282v1618h-282v127h437v-1872h-437z" />
    <glyph glyph-name="asciicircum" unicode="^" horiz-adv-x="1290" 
d="M644 1638l553 -1144h-200l-353 785l-348 -785h-200z" />
    <glyph glyph-name="underscore" unicode="_" horiz-adv-x="1272" 
d="M180 0h912v-143h-912v143z" />
    <glyph glyph-name="grave" unicode="`" horiz-adv-x="576" 
d="M61 1570h203l234 -318h-145z" />
    <glyph glyph-name="a" unicode="a" horiz-adv-x="1201" 
d="M1024 853.5q16 -73.5 16 -184.5v-669h-189v121h-16q-48 -61 -139 -98q-92 -41 -209 -41q-122 0 -211.5 42t-137 120.5t-47.5 183.5q0 108 42.5 177.5t123.5 106.5q56 25 121.5 35.5t165.5 10.5h307q0 96 -15 154t-51 91q-35 33 -90 49.5t-122 16.5q-94 0 -176.5 -38
t-159.5 -116l-116 127q200 187 452 187q135 0 233 -36.5t154 -107.5q48 -58 64 -131.5zM832.5 341.5q17.5 66.5 18.5 156.5h-296q-85 0 -132.5 -7.5t-81.5 -28.5q-27 -18 -44 -51t-17 -83q0 -89 62 -142.5t177 -53.5q147 0 241 91q55 52 72.5 118.5z" />
    <glyph glyph-name="b" unicode="b" horiz-adv-x="1343" 
d="M549 12.5q-87 30.5 -153 89.5h-16v-102h-188v1570h188v-571h16q138 130 353 130q149 0 259 -67.5t170 -196.5t60 -310q0 -180 -60 -309t-172 -196.5t-266 -67.5q-104 0 -191 30.5zM888 188q76 47 118.5 140t42.5 227q0 133 -42 226t-118.5 140.5t-178.5 47.5
q-105 0 -183 -50.5t-120 -144t-42 -219.5q0 -127 42.5 -220.5t120.5 -143.5t182 -50q102 0 178 47z" />
    <glyph glyph-name="c" unicode="c" horiz-adv-x="1131" 
d="M332 59q-115 77 -174.5 207t-59.5 287q0 151 57 282.5t171.5 212.5t278.5 81q160 0 278.5 -79.5t179.5 -232.5l-178 -71q-34 98 -108 155t-172 57q-105 0 -176.5 -56.5t-106.5 -148.5t-35 -200q0 -109 34 -200t105.5 -146t178.5 -55q100 0 173 56t103 152l170 -64
q-51 -148 -168.5 -231t-274.5 -83q-161 0 -276 77z" />
    <glyph glyph-name="d" unicode="d" horiz-adv-x="1343" 
d="M337 49.5q-112 67.5 -172 196.5t-60 309q0 181 60 310t170 196.5t259 67.5q215 0 353 -130h16v571h188v-1570h-188v102h-16q-66 -59 -153 -89.5t-191 -30.5q-154 0 -266 67.5zM815 191q78 50 120.5 143.5t42.5 220.5q0 126 -42 219.5t-120 144t-183 50.5
q-102 0 -178.5 -47.5t-118.5 -140.5t-42 -226q0 -134 42.5 -227t118.5 -140t178 -47q104 0 182 50z" />
    <glyph glyph-name="e" unicode="e" horiz-adv-x="1199" 
d="M1103 543.5q-3 -29.5 -6 -45.5h-801q5 -108 45.5 -188.5t114.5 -124.5t177 -44q96 0 167.5 32.5t137.5 113.5l132 -116q-95 -99 -199.5 -144t-240.5 -45q-169 0 -289.5 75.5t-181.5 205t-61 288.5q0 157 59 288.5t175.5 210.5t279.5 79q175 0 285.5 -80t159.5 -200
t49 -248q0 -28 -3 -57.5zM456 927q-68 -42 -108 -113t-49 -156h617l-1 22q-12 138 -89.5 213.5t-211.5 75.5q-90 0 -158 -42z" />
    <glyph glyph-name="f" unicode="f" horiz-adv-x="730" 
d="M253 951h-226v159h228v167q0 159 86 235t226 76q105 0 188 -43l-61 -155q-51 30 -105 30q-69 0 -107 -38t-38 -124v-148h257v-159h-257v-951h-191v951z" />
    <glyph glyph-name="g" unicode="g" horiz-adv-x="1201" 
d="M1102 3.5q22 -45.5 22 -99.5q0 -100 -37.5 -173t-108.5 -118q-133 -89 -370 -89q-242 0 -385 85q-70 41 -105.5 106.5t-35.5 147.5q0 37 9 78l143 105v10q-15 10 -27 21q-84 78 -84 194q0 123 95 236q-50 92 -50 210q0 123 56 216.5t153.5 144.5t218.5 51
q81 0 150.5 -22.5t123.5 -64.5l170 148l98 -123l-170 -143q51 -96 51 -219q0 -128 -55 -218.5t-150.5 -137t-215.5 -46.5q-80 0 -149.5 21t-123.5 61q-38 -49 -38 -98q0 -59 43 -96q46 -36 152 -36h278q111 0 173 -18t107 -55q40 -33 62 -78.5zM420 901q-65 -68 -65 -189
q0 -118 65 -184t178 -66q112 0 175.5 66t63.5 184q0 121 -64 189t-175 68q-113 0 -178 -68zM918 -199.5q17 31.5 17 78.5q0 58 -36 85q-38 31 -130 31h-280q-60 0 -111 9l-109 -97q-5 -23 -5 -41q0 -83 57 -125q42 -33 113.5 -45t175.5 -12q77 0 144.5 15.5t112.5 45.5
q34 24 51 55.5z" />
    <glyph glyph-name="h" unicode="h" horiz-adv-x="1277" 
d="M193 1570h189l-2 -560h16q49 50 133.5 84.5t189.5 34.5q163 0 264 -82q67 -56 98.5 -146t31.5 -239v-662h-189v621q0 119 -18 183t-57 102q-66 63 -191 63q-135 0 -205 -82q-40 -44 -56.5 -108.5t-16.5 -173.5v-605h-189z" />
    <glyph glyph-name="i" unicode="i" horiz-adv-x="567" 
d="M189 1110h189v-1110h-189v1110zM192.5 1370.5q-37.5 37.5 -37.5 92.5q0 35 17 65t47 47.5t65 17.5t65 -17.5t47.5 -47.5t17.5 -65q0 -36 -17.5 -65.5t-47.5 -47t-65 -17.5q-54 0 -91.5 37.5z" />
    <glyph glyph-name="j" unicode="j" horiz-adv-x="573" 
d="M20 -471q-57 9 -113 27l52 160q26 -11 54 -17t51 -6q36 0 59 10t39 31q18 21 24.5 56.5t6.5 102.5v1217h189v-1253q0 -92 -10.5 -151.5t-43.5 -101.5q-66 -84 -210 -84q-41 0 -98 9zM197.5 1370.5q-37.5 37.5 -37.5 92.5q0 35 17 65t47 47.5t65 17.5t65 -17.5t47.5 -47.5
t17.5 -65q0 -36 -17.5 -65.5t-47.5 -47t-65 -17.5q-54 0 -91.5 37.5z" />
    <glyph glyph-name="k" unicode="k" horiz-adv-x="1233" 
d="M191 1570h189v-1012h5l527 552h235l-387 -411l446 -699h-223l-362 571h-4l-237 -243v-328h-189v1570z" />
    <glyph glyph-name="l" unicode="l" horiz-adv-x="610" 
d="M239 36q-32 30 -44.5 87.5t-12.5 167.5v1279h189v-1238q0 -79 4 -112t21 -52q24 -27 82 -27q40 0 75 9l27 -141q-36 -13 -81.5 -20t-86.5 -7q-116 0 -173 54z" />
    <glyph glyph-name="m" unicode="m" horiz-adv-x="1948" 
d="M189 1110h182v-106h14q105 125 298 125q115 0 197 -45t126 -121h13q129 166 374 166q83 0 150.5 -20.5t115.5 -59.5q81 -68 103 -177t22 -226v-646h-189v617q0 125 -18 189.5t-57 103.5q-59 59 -175 59q-54 0 -95.5 -13t-77.5 -41q-49 -40 -70 -102.5t-21 -170.5v-642
h-189v642q0 110 -19 172.5t-58 97.5q-33 29 -76 43t-100 14q-54 0 -94 -12.5t-72 -37.5q-51 -40 -73 -106t-22 -171v-642h-189v1110z" />
    <glyph glyph-name="n" unicode="n" horiz-adv-x="1274" 
d="M189 1110h189v-100h16q49 50 133.5 84.5t189.5 34.5q163 0 264 -82q66 -56 97.5 -146t31.5 -239v-662h-188v621q0 119 -18 183t-57 102q-68 63 -192 63q-134 0 -204 -82q-40 -44 -56.5 -108.5t-16.5 -173.5v-605h-189v1110z" />
    <glyph glyph-name="o" unicode="o" horiz-adv-x="1279" 
d="M354.5 52q-122.5 70 -189.5 200.5t-67 305.5t67 304t189.5 198t284.5 69t285 -69t190 -198t67 -304t-67.5 -305.5t-190 -200.5t-284.5 -70t-284.5 70zM830.5 192q79.5 51 120.5 145t41 221q0 125 -41 217.5t-120.5 143t-191.5 50.5q-113 0 -192 -50t-119.5 -142
t-40.5 -219t40.5 -221t119.5 -145t192 -51q112 0 191.5 51z" />
    <glyph glyph-name="p" unicode="p" horiz-adv-x="1343" 
d="M1006 1060.5q112 -67.5 172 -196.5t60 -309q0 -181 -60 -310t-170 -196.5t-259 -67.5q-215 0 -353 130h-16v-571h-188v1570h188v-102h16q66 59 153 89.5t191 30.5q154 0 266 -67.5zM528 919q-78 -50 -120.5 -143.5t-42.5 -220.5q0 -126 42 -219.5t120 -144t183 -50.5
q102 0 178.5 47.5t118.5 140.5t42 226q0 134 -42.5 227t-118.5 140t-178 47q-104 0 -182 -50z" />
    <glyph glyph-name="q" unicode="q" horiz-adv-x="1343" 
d="M794 1097.5q87 -30.5 153 -89.5h16v102h188v-1570h-188v571h-16q-138 -130 -353 -130q-149 0 -259 67.5t-170 196.5t-60 310q0 180 60 309t172 196.5t266 67.5q104 0 191 -30.5zM455 922q-76 -47 -118.5 -140t-42.5 -227q0 -133 42 -226t118.5 -140.5t178.5 -47.5
q105 0 183 50.5t120 144t42 219.5q0 127 -42.5 220.5t-120.5 143.5t-182 50q-102 0 -178 -47z" />
    <glyph glyph-name="r" unicode="r" horiz-adv-x="794" 
d="M189 1110h175l14 -100h18q55 62 120.5 90.5t150.5 28.5q36 0 95 -7v-196h-11q-72 25 -127 25q-54 0 -96.5 -15t-79.5 -55q-39 -42 -54.5 -122t-15.5 -229v-530h-189v1110z" />
    <glyph glyph-name="s" unicode="s" horiz-adv-x="1033" 
d="M344.5 20.5q-95.5 38.5 -163.5 109t-97 164.5l173 61q30 -105 107 -159.5t187 -54.5q200 0 200 162q0 84 -68 129q-27 18 -70.5 30.5t-117.5 29.5q-69 14 -118.5 27.5t-89.5 33.5q-82 39 -124 103.5t-42 151.5q0 95 47.5 167.5t133 113t196.5 40.5q146 0 251.5 -68.5
t151.5 -191.5l-164 -73q-28 89 -87.5 131t-153.5 42q-86 0 -136.5 -37t-50.5 -99q0 -36 15.5 -61.5t44.5 -45.5q27 -17 66 -28t110 -26q85 -18 143 -35t108 -45q69 -39 107.5 -103t38.5 -164q0 -101 -48.5 -179t-137 -121t-205.5 -43q-111 0 -206.5 38.5z" />
    <glyph glyph-name="t" unicode="t" horiz-adv-x="778" 
d="M364.5 28q-71.5 46 -104 120t-32.5 161v642h-182v159h184v294l186 137v-431h269v-159h-269v-616q0 -194 162 -194q52 0 100 16l32 -152q-29 -10 -73.5 -16.5t-90.5 -6.5q-110 0 -181.5 46z" />
    <glyph glyph-name="u" unicode="u" horiz-adv-x="1272" 
d="M291 64q-66 56 -97.5 146t-31.5 238v662h188v-621q0 -119 18 -183t58 -101q67 -64 191 -64q133 0 204 82q40 44 56.5 108.5t16.5 173.5v605h189v-1110h-189v100h-16q-50 -50 -134 -84t-189 -34q-165 0 -264 82z" />
    <glyph glyph-name="v" unicode="v" horiz-adv-x="1172" 
d="M39 1110h204l330 -967h25l330 967h205l-396 -1110h-302z" />
    <glyph glyph-name="w" unicode="w" horiz-adv-x="1925" 
d="M39 1110h204l330 -967h25l262 967h205l262 -967h25l330 967h204l-396 -1110h-302l-216 796h-19l-216 -796h-302z" />
    <glyph glyph-name="x" unicode="x" horiz-adv-x="1136" 
d="M444 558l-401 552h232l287 -418h11l287 418h232l-400 -552l400 -558h-225l-294 423h-11l-291 -423h-228z" />
    <glyph glyph-name="y" unicode="y" horiz-adv-x="1145" 
d="M471 20l-441 1090h207l327 -864h14l330 864h207l-633 -1570h-204z" />
    <glyph glyph-name="z" unicode="z" horiz-adv-x="1083" 
d="M80 164l666 769v18h-637v159h876v-166l-666 -769v-16h678v-159h-917v164z" />
    <glyph glyph-name="braceleft" unicode="{" horiz-adv-x="687" 
d="M295.5 -81.5q-61.5 77.5 -61.5 213.5v373q0 51 -18.5 83.5t-46.5 50t-71 32.5v135q43 13 71.5 31t46.5 53t18 93v396q0 139 62.5 214t181.5 75h136v-125h-72q-77 0 -111.5 -43t-34.5 -123v-396q0 -98 -36.5 -151.5t-109.5 -83.5v-16q71 -30 108.5 -82.5t37.5 -140.5v-373
q0 -79 33.5 -124.5t102.5 -45.5h82v-123h-143q-114 0 -175.5 77.5z" />
    <glyph glyph-name="bar" unicode="|" horiz-adv-x="715" 
d="M287 1704h141v-2273h-141v2273z" />
    <glyph glyph-name="braceright" unicode="}" horiz-adv-x="687" 
d="M73 -159v123h82q69 0 102.5 45.5t33.5 124.5v373q0 88 37.5 140.5t108.5 82.5v16q-73 30 -109.5 83.5t-36.5 151.5v396q0 80 -34.5 123t-111.5 43h-72v125h136q119 0 181.5 -75t62.5 -214v-396q0 -58 18 -93t46.5 -53t71.5 -31v-135q-43 -15 -71 -32.5t-46.5 -50
t-18.5 -83.5v-373q0 -136 -61.5 -213.5t-175.5 -77.5h-143z" />
    <glyph glyph-name="asciitilde" unicode="~" horiz-adv-x="1290" 
d="M735 420q-44 22 -72 52.5t-63 80.5q-26 39 -45.5 62.5t-46.5 38.5t-62 15q-61 0 -95.5 -57t-34.5 -157h-143q0 103 33.5 181t95.5 120.5t144 42.5q67 0 114 -23t76 -55t64 -83q27 -39 44.5 -60t42 -35.5t55.5 -14.5q40 0 71 30t48 84.5t17 124.5h144q0 -109 -35 -192.5
t-98.5 -130t-146.5 -46.5q-63 0 -107 22z" />
    <glyph glyph-name="uni00A0" unicode="&#xa0;" horiz-adv-x="1365" 
 />
    <glyph glyph-name="exclamdown" unicode="&#xa1;" horiz-adv-x="703" 
d="M416.5 1115.5q30.5 -17.5 48 -48t17.5 -66.5q0 -35 -17.5 -64.5t-48 -46.5t-66.5 -17q-35 0 -64.5 17t-47 46.5t-17.5 64.5q0 36 17.5 66t47.5 48t64 18q36 0 66.5 -17.5zM444 -460h-187l20 1117h146z" />
    <glyph glyph-name="cent" unicode="&#xa2;" horiz-adv-x="1304" 
d="M628 -14q-141 15 -242.5 94t-153.5 202.5t-52 270.5q0 142 50.5 267.5t151.5 208t246 97.5v207h100v-204q144 -11 253 -90.5t166 -221.5l-180 -71q-31 88 -93.5 142.5t-145.5 64.5v-796q85 10 147 63.5t90 139.5l171 -64q-49 -140 -156.5 -222t-251.5 -92v-219h-100v223z
M628 949q-85 -15 -143 -72.5t-86 -142t-28 -181.5q0 -98 28 -181.5t86 -139.5t143 -70v787z" />
    <glyph glyph-name="sterling" unicode="&#xa3;" horiz-adv-x="1406" 
d="M446 159h796v-159h-1058v173q81 26 148.5 75.5t106.5 113t39 130.5q0 55 -12.5 109.5t-35.5 124.5h-239v159h186q-40 140 -40 253q0 128 56 232.5t161 164.5t247 60q104 0 191.5 -43.5t150.5 -119.5t99 -174l-150 -54q-41 110 -116.5 171t-174.5 61q-92 0 -161 -36
t-106.5 -103.5t-37.5 -160.5q0 -66 10.5 -127t29.5 -124h456v-159h-402q22 -63 33.5 -117.5t11.5 -112.5q0 -82 -30.5 -144t-67.5 -97.5t-91 -77.5v-18z" />
    <glyph glyph-name="currency" unicode="&#xa4;" horiz-adv-x="1559" 
d="M255 282l114 114q-52 65 -78.5 144t-26.5 162t26.5 162.5t78.5 145.5l-112 112l100 105l114 -114q67 52 146.5 79t162.5 27t162.5 -27t145.5 -79l113 114l103 -103l-114 -111q52 -66 79 -146t27 -164t-27 -163t-79 -146l114 -112l-100 -105l-116 117q-66 -52 -145.5 -79
t-162.5 -27q-84 0 -163 27t-146 79l-114 -117zM637.5 359q68.5 -28 141.5 -28t141.5 28t121.5 82q54 54 82 122.5t28 140.5t-28 140t-82 121q-53 54 -121 81.5t-141 27.5t-141 -27.5t-122 -81.5t-81.5 -123t-27.5 -143q0 -72 27 -139.5t79 -118.5q55 -54 123.5 -82z" />
    <glyph glyph-name="yen" unicode="&#xa5;" horiz-adv-x="1627" 
d="M712 243h-384v155h384v196h-384v152h296l-506 824h237l457 -776l460 776h237l-505 -824h293v-152h-382v-196h382v-155h-382v-243h-203v243z" />
    <glyph glyph-name="brokenbar" unicode="&#xa6;" horiz-adv-x="715" 
d="M287 1673h141v-927h-141v927zM284 426h144v-920h-144v920z" />
    <glyph glyph-name="section" unicode="&#xa7;" horiz-adv-x="1138" 
d="M272.5 59.5q-131.5 77.5 -176.5 236.5l177 54q41 -113 119 -163t211 -50q119 0 192.5 41.5t73.5 128.5q0 56 -40 92t-99.5 57t-164.5 48q-136 35 -219.5 68.5t-143 98.5t-59.5 171q0 67 24.5 122t71.5 103q-96 80 -96 198q0 99 57.5 172.5t153.5 112t208 38.5
q143 0 250 -54t164 -146l-150 -86q-74 141 -271 141q-77 0 -134 -25t-87.5 -66.5t-30.5 -88.5q0 -52 38.5 -86t96 -54t160.5 -46q137 -34 223 -67.5t147 -101t61 -178.5q0 -132 -91 -223q91 -78 91 -200q0 -112 -62 -185t-162 -106.5t-216 -33.5q-185 0 -316.5 77.5z
M845 639q24 39 24 87q0 65 -42.5 107t-105 67t-169.5 56q-98 27 -158 50q-45 -28 -68 -71t-23 -88q0 -62 41.5 -102.5t103 -64t166.5 -53.5q105 -29 162 -51q45 24 69 63z" />
    <glyph glyph-name="dieresis" unicode="&#xa8;" horiz-adv-x="969" 
d="M183.5 1370.5q-37.5 37.5 -37.5 92.5q0 35 17 65t47 47.5t65 17.5t65 -17.5t47.5 -47.5t17.5 -65q0 -36 -17.5 -65.5t-47.5 -47t-65 -17.5q-54 0 -91.5 37.5zM601.5 1370.5q-37.5 37.5 -37.5 92.5q0 35 17.5 65t47 47.5t65.5 17.5q35 0 65 -17.5t47.5 -47.5t17.5 -65
q0 -36 -17.5 -65.5t-47.5 -47t-65 -17.5q-55 0 -92.5 37.5z" />
    <glyph glyph-name="copyright" unicode="&#xa9;" horiz-adv-x="1916" 
d="M545 84q-189 109 -300 295t-111 406t111 406t300 295t413 109t413 -109t300 -295t111 -406t-111 -406t-300 -295t-413 -109t-413 109zM1309.5 189q161.5 93 256.5 251t95 345t-95 345.5t-256.5 251.5t-351.5 93q-191 0 -353 -93t-257 -251.5t-95 -345.5t95 -345t257 -251
t353 -93q190 0 351.5 93zM739.5 347.5q-101.5 67.5 -154.5 182t-53 253.5q0 133 50.5 249t151.5 187t244 71q140 0 244.5 -69.5t158.5 -203.5l-148 -59q-33 88 -100 139.5t-155 51.5q-94 0 -158.5 -51t-96 -134.5t-31.5 -180.5q0 -98 31.5 -180.5t96.5 -132t161 -49.5
q89 0 154.5 50t93.5 137l141 -55q-46 -130 -148.5 -201.5t-240.5 -71.5q-140 0 -241.5 67.5z" />
    <glyph glyph-name="ordfeminine" unicode="&#xaa;" horiz-adv-x="912" 
d="M226 814q-62 29 -98.5 83t-36.5 125q0 119 86.5 177.5t234.5 58.5h225q0 23 -4 55q-22 168 -201 168q-71 0 -128 -30.5t-99 -80.5l-80 82q74 72 149 104t177 32q147 0 223.5 -83t76.5 -231v-475h-107v127h-2q-54 -72 -123.5 -106.5t-156.5 -34.5q-74 0 -136 29z
M521.5 936q62.5 42 99.5 115q14 62 16 100h-216q-98 0 -150.5 -33t-52.5 -96q0 -37 22 -66t59.5 -45.5t82.5 -16.5q77 0 139.5 42z" />
    <glyph glyph-name="guillemotleft" unicode="&#xab;" horiz-adv-x="1129" 
d="M69 567l452 384v-166l-257 -218l257 -217v-166zM508 567l453 384v-166l-258 -218l258 -217v-166z" />
    <glyph glyph-name="logicalnot" unicode="&#xac;" horiz-adv-x="1290" 
d="M919 717h-839v168h1019v-562h-180v394z" />
    <glyph glyph-name="uni00AD" unicode="&#xad;" horiz-adv-x="1136" 
d="M180 755h776v-143h-776v143z" />
    <glyph glyph-name="registered" unicode="&#xae;" horiz-adv-x="1916" 
d="M545 84q-189 109 -300 295t-111 406t111 406t300 295t413 109t413 -109t300 -295t111 -406t-111 -406t-300 -295t-413 -109t-413 109zM1309.5 189q161.5 93 256.5 251t95 345t-95 345.5t-256.5 251.5t-351.5 93q-191 0 -353 -93t-257 -251.5t-95 -345.5t95 -345t257 -251
t353 -93q190 0 351.5 93zM694 1263h282q97 0 171 -33.5t114.5 -95.5t40.5 -144q0 -90 -51.5 -155t-142.5 -91l264 -437h-145l-244 423q-18 -2 -55 -2h-107v-421h-127v956zM988 833q90 1 138 42t48 113q0 76 -52 118.5t-144 42.5h-157v-316h167z" />
    <glyph glyph-name="macron" unicode="&#xaf;" horiz-adv-x="976" 
d="M182 1443h612v-114h-612v114z" />
    <glyph glyph-name="degree" unicode="&#xb0;" horiz-adv-x="1051" 
d="M365.5 990q-73.5 43 -117 116.5t-43.5 160.5t43.5 161t117 117t160.5 43t161 -43t117 -117t43 -161t-43 -160.5t-117 -116.5t-161 -43t-160.5 43zM623.5 1100q44.5 26 70 70.5t25.5 96.5q0 53 -25.5 97.5t-70 70.5t-97.5 26t-96.5 -26t-69 -70.5t-25.5 -97.5
q0 -52 25.5 -96.5t69 -70.5t96.5 -26t97.5 26z" />
    <glyph glyph-name="plusminus" unicode="&#xb1;" horiz-adv-x="1290" 
d="M573 715h-521v143h521v503h144v-503h521v-143h-521v-506h-144v506zM52 0h1179v-143h-1179v143z" />
    <glyph glyph-name="acute" unicode="&#xb4;" horiz-adv-x="578" 
d="M316 1570h203l-305 -318h-141z" />
    <glyph glyph-name="uni00B5" unicode="&#xb5;" horiz-adv-x="1445" 
d="M287 1110h186v-657q0 -139 65.5 -218.5t189.5 -79.5q134 0 211.5 81t77.5 235v639h187v-1110h-187v168q-55 -91 -146 -138.5t-195 -47.5q-161 0 -237 104v-466h-152v1490z" />
    <glyph glyph-name="paragraph" unicode="&#xb6;" horiz-adv-x="1431" 
d="M630 692q-132 0 -247.5 53t-185.5 152.5t-70 233.5t70 233.5t185.5 152.5t247.5 53h135v-1843h-135v965zM1010 1570h135v-1843h-135v1843z" />
    <glyph glyph-name="periodcentered" unicode="&#xb7;" horiz-adv-x="746" 
d="M295.5 683q-35.5 21 -56.5 57t-21 77q0 42 20.5 77t56.5 55t78 20t77.5 -20t56.5 -55t21 -77t-20.5 -77.5t-56 -56.5t-78.5 -21q-42 0 -77.5 21z" />
    <glyph glyph-name="cedilla" unicode="&#xb8;" horiz-adv-x="619" 
d="M177.5 -459q-52.5 19 -100.5 59l53 86q37 -35 78 -51.5t79 -16.5q50 0 79.5 26t29.5 65q0 32 -21 55.5t-61 35.5q-40 13 -121 13l112 187h98l-80 -121q35 -3 57 -13q54 -19 84 -60t30 -97q0 -53 -27.5 -95.5t-76 -67t-108.5 -24.5q-52 0 -104.5 19z" />
    <glyph glyph-name="ordmasculine" unicode="&#xba;" horiz-adv-x="967" 
d="M285.5 847q-88.5 53 -138 144.5t-49.5 200.5t49.5 199.5t138 143.5t199.5 53q110 0 197.5 -53t137 -143.5t49.5 -199.5t-49.5 -200.5t-137 -144.5t-197.5 -53q-111 0 -199.5 53zM621.5 945q56.5 37 86 101.5t29.5 145.5t-29 145t-86 101t-137 37q-81 0 -138.5 -37
t-87 -101t-29.5 -145t29.5 -145.5t87 -101.5t138.5 -37q80 0 136.5 37z" />
    <glyph glyph-name="guillemotright" unicode="&#xbb;" horiz-adv-x="1129" 
d="M168 350l258 217l-258 218v166l453 -384l-453 -383v166zM608 350l257 217l-257 218v166l452 -384l-452 -383v166z" />
    <glyph glyph-name="questiondown" unicode="&#xbf;" horiz-adv-x="951" 
d="M653.5 1115.5q30.5 -17.5 48 -48t17.5 -66.5q0 -35 -17.5 -64.5t-48 -46.5t-66.5 -17q-34 0 -63.5 17t-46.5 46.5t-17 64.5q0 36 17 66.5t46.5 48t63.5 17.5q36 0 66.5 -17.5zM669 530q0 -96 -29.5 -160.5t-71.5 -102.5t-111 -83q-60 -40 -94 -69.5t-57.5 -75
t-23.5 -110.5q0 -123 78.5 -188t215.5 -65q55 0 110.5 14t103.5 41l52 -157q-60 -26 -128 -39t-136 -13q-137 0 -241 47.5t-162.5 139.5t-58.5 222q0 93 29.5 156t71.5 101t112 85q61 40 96 70.5t59 77t24 111.5v130h161v-132z" />
    <glyph glyph-name="Agrave" unicode="&#xc0;" horiz-adv-x="1481" 
d="M1081 364h-677l-124 -364h-214l562 1570h225l562 -1570h-211zM1022 537l-271 801h-14l-274 -801h559zM377 2030h203l234 -318h-145z" />
    <glyph glyph-name="Aacute" unicode="&#xc1;" horiz-adv-x="1481" 
d="M1081 364h-677l-124 -364h-214l562 1570h225l562 -1570h-211zM1022 537l-271 801h-14l-274 -801h559zM915 2030h203l-305 -318h-141z" />
    <glyph glyph-name="Acircumflex" unicode="&#xc2;" horiz-adv-x="1481" 
d="M1081 364h-677l-124 -364h-214l562 1570h225l562 -1570h-211zM1022 537l-271 801h-14l-274 -801h559zM740 2057l341 -366h-152l-189 187l-189 -187h-150z" />
    <glyph glyph-name="Atilde" unicode="&#xc3;" horiz-adv-x="1481" 
d="M1081 364h-677l-124 -364h-214l562 1570h225l562 -1570h-211zM1022 537l-271 801h-14l-274 -801h559zM811 1749.5q-35 15.5 -58.5 38t-51.5 57.5q-33 40 -55 58t-54 18q-48 0 -74 -45t-26 -126h-112q0 137 58 213t158 76q44 0 77 -15t55.5 -36.5t51.5 -55.5
q36 -41 58.5 -59t55.5 -18q42 0 68 47t26 128h116q0 -91 -25.5 -158t-73 -102.5t-111.5 -35.5q-48 0 -83 15.5z" />
    <glyph glyph-name="Adieresis" unicode="&#xc4;" horiz-adv-x="1481" 
d="M1081 364h-677l-124 -364h-214l562 1570h225l562 -1570h-211zM1022 537l-271 801h-14l-274 -801h559zM467 1726.5q-30 17.5 -47 48t-17 66.5q0 53 37.5 90.5t91.5 37.5q35 0 65 -17t47.5 -46.5t17.5 -64.5q0 -36 -17.5 -66t-47.5 -48t-65 -18t-65 17.5zM885.5 1726.5
q-29.5 17.5 -47 48t-17.5 66.5q0 53 37.5 90.5t92.5 37.5q35 0 65 -17t47.5 -46.5t17.5 -64.5q0 -36 -17.5 -66t-47.5 -48t-65 -18q-36 0 -65.5 17.5z" />
    <glyph glyph-name="Aring" unicode="&#xc5;" horiz-adv-x="1481" 
d="M1081 364h-677l-124 -364h-214l562 1570h225l562 -1570h-211zM1022 537l-271 801h-14l-274 -801h559zM625.5 1697q-52.5 31 -83 84t-30.5 115t31 115t84 84t115 31q61 0 114 -31t84.5 -84t31.5 -115q0 -63 -31 -115.5t-83.5 -83.5t-115.5 -31q-64 0 -116.5 31zM831 1807
q36 36 36 91q0 52 -35 87.5t-90 35.5q-54 0 -89.5 -35.5t-35.5 -87.5q0 -55 36 -91t89 -36t89 36z" />
    <glyph glyph-name="AE" unicode="&#xc6;" horiz-adv-x="2146" 
d="M1208 1397v-528h724v-164h-724v-528h829v-177h-1024v366h-601l-132 -366h-214l594 1570h1377v-173h-829zM1013 535v862h-230l-310 -862h540z" />
    <glyph glyph-name="Ccedilla" unicode="&#xc7;" horiz-adv-x="1629" 
d="M853 -18l-68 -103q35 -3 57 -13q54 -19 84 -60t30 -97q0 -53 -27.5 -95.5t-76 -67t-108.5 -24.5q-52 0 -104.5 19t-100.5 59l53 86q37 -35 78 -51.5t79 -16.5q50 0 79.5 26t29.5 65q0 32 -21 55.5t-61 35.5q-40 13 -121 13l104 174q-194 21 -334 123t-214 274.5
t-74 402.5q0 249 86.5 429.5t250.5 276t391 95.5q247 0 414 -111.5t246 -325.5l-185 -70q-58 165 -177.5 249.5t-297.5 84.5q-166 0 -286 -75t-183.5 -216t-63.5 -337q0 -190 60.5 -332.5t178.5 -221t287 -78.5q179 0 302.5 89.5t184.5 258.5l189 -59q-79 -224 -251.5 -343
t-424.5 -119h-5z" />
    <glyph glyph-name="Egrave" unicode="&#xc8;" horiz-adv-x="1379" 
d="M239 1570h985v-175h-789v-521h714v-173h-714v-526h835v-175h-1031v1570zM368 2030h203l234 -318h-145z" />
    <glyph glyph-name="Eacute" unicode="&#xc9;" horiz-adv-x="1379" 
d="M239 1570h985v-175h-789v-521h714v-173h-714v-526h835v-175h-1031v1570zM906 2030h203l-305 -318h-141z" />
    <glyph glyph-name="Ecircumflex" unicode="&#xca;" horiz-adv-x="1379" 
d="M239 1570h985v-175h-789v-521h714v-173h-714v-526h835v-175h-1031v1570zM731 2057l341 -366h-152l-189 187l-189 -187h-150z" />
    <glyph glyph-name="Edieresis" unicode="&#xcb;" horiz-adv-x="1379" 
d="M239 1570h985v-175h-789v-521h714v-173h-714v-526h835v-175h-1031v1570zM458 1726.5q-30 17.5 -47 48t-17 66.5q0 53 37.5 90.5t91.5 37.5q35 0 65 -17t47.5 -46.5t17.5 -64.5q0 -36 -17.5 -66t-47.5 -48t-65 -18t-65 17.5zM876.5 1726.5q-29.5 17.5 -47 48t-17.5 66.5
q0 53 37.5 90.5t92.5 37.5q35 0 65 -17t47.5 -46.5t17.5 -64.5q0 -36 -17.5 -66t-47.5 -48t-65 -18q-36 0 -65.5 17.5z" />
    <glyph glyph-name="Igrave" unicode="&#xcc;" horiz-adv-x="674" 
d="M239 1570h196v-1570h-196v1570zM-28 2030h203l234 -318h-145z" />
    <glyph glyph-name="Iacute" unicode="&#xcd;" horiz-adv-x="674" 
d="M239 1570h196v-1570h-196v1570zM510 2030h203l-305 -318h-141z" />
    <glyph glyph-name="Icircumflex" unicode="&#xce;" horiz-adv-x="674" 
d="M239 1570h196v-1570h-196v1570zM335 2057l341 -366h-152l-189 187l-189 -187h-150z" />
    <glyph glyph-name="Idieresis" unicode="&#xcf;" horiz-adv-x="674" 
d="M239 1570h196v-1570h-196v1570zM62 1726.5q-30 17.5 -47 48t-17 66.5q0 53 37.5 90.5t91.5 37.5q35 0 65 -17t47.5 -46.5t17.5 -64.5q0 -36 -17.5 -66t-47.5 -48t-65 -18t-65 17.5zM480.5 1726.5q-29.5 17.5 -47 48t-17.5 66.5q0 53 37.5 90.5t92.5 37.5q35 0 65 -17
t47.5 -46.5t17.5 -64.5q0 -36 -17.5 -66t-47.5 -48t-65 -18q-36 0 -65.5 17.5z" />
    <glyph glyph-name="Eth" unicode="&#xd0;" horiz-adv-x="1611" 
d="M1418 1135q61 -156 61 -361q0 -199 -60 -349t-177 -250q-76 -64 -164 -102t-204.5 -55.5t-279.5 -17.5h-355v696h-163v128h163v746h357q170 0 288.5 -19.5t201 -58t154.5 -99.5q117 -102 178 -258zM1283 781q0 154 -43 271.5t-127 196.5q-60 55 -130 87t-162.5 45.5
t-226.5 13.5h-159v-571h346v-128h-346v-521h141q148 0 246 16t164 48t124 84q173 156 173 458z" />
    <glyph glyph-name="Ntilde" unicode="&#xd1;" horiz-adv-x="1661" 
d="M239 1570h291l681 -1317h16v1317h195v-1570h-293l-678 1320h-16v-1320h-196v1570zM900 1749.5q-35 15.5 -58.5 38t-51.5 57.5q-33 40 -55 58t-54 18q-48 0 -74 -45t-26 -126h-112q0 137 58 213t158 76q44 0 77 -15t55.5 -36.5t51.5 -55.5q36 -41 58.5 -59t55.5 -18
q42 0 68 47t26 128h116q0 -91 -25.5 -158t-73 -102.5t-111.5 -35.5q-48 0 -83 15.5z" />
    <glyph glyph-name="Ograve" unicode="&#xd2;" horiz-adv-x="1723" 
d="M468.5 82.5q-163.5 100.5 -249 282t-85.5 420.5t85.5 420.5t249 282t391.5 100.5t392 -100.5t250 -282t86 -420.5t-86 -420.5t-250 -282t-392 -100.5t-391.5 100.5zM1149 234.5q120 79.5 182 221.5t62 329t-62 329t-182 221.5t-289 79.5q-167 0 -286.5 -79.5
t-181.5 -221.5t-62 -329t62 -329t181.5 -221.5t286.5 -79.5q169 0 289 79.5zM497 2030h203l234 -318h-145z" />
    <glyph glyph-name="Oacute" unicode="&#xd3;" horiz-adv-x="1723" 
d="M468.5 82.5q-163.5 100.5 -249 282t-85.5 420.5t85.5 420.5t249 282t391.5 100.5t392 -100.5t250 -282t86 -420.5t-86 -420.5t-250 -282t-392 -100.5t-391.5 100.5zM1149 234.5q120 79.5 182 221.5t62 329t-62 329t-182 221.5t-289 79.5q-167 0 -286.5 -79.5
t-181.5 -221.5t-62 -329t62 -329t181.5 -221.5t286.5 -79.5q169 0 289 79.5zM1035 2030h203l-305 -318h-141z" />
    <glyph glyph-name="Ocircumflex" unicode="&#xd4;" horiz-adv-x="1723" 
d="M468.5 82.5q-163.5 100.5 -249 282t-85.5 420.5t85.5 420.5t249 282t391.5 100.5t392 -100.5t250 -282t86 -420.5t-86 -420.5t-250 -282t-392 -100.5t-391.5 100.5zM1149 234.5q120 79.5 182 221.5t62 329t-62 329t-182 221.5t-289 79.5q-167 0 -286.5 -79.5
t-181.5 -221.5t-62 -329t62 -329t181.5 -221.5t286.5 -79.5q169 0 289 79.5zM860 2057l341 -366h-152l-189 187l-189 -187h-150z" />
    <glyph glyph-name="Otilde" unicode="&#xd5;" horiz-adv-x="1723" 
d="M468.5 82.5q-163.5 100.5 -249 282t-85.5 420.5t85.5 420.5t249 282t391.5 100.5t392 -100.5t250 -282t86 -420.5t-86 -420.5t-250 -282t-392 -100.5t-391.5 100.5zM1149 234.5q120 79.5 182 221.5t62 329t-62 329t-182 221.5t-289 79.5q-167 0 -286.5 -79.5
t-181.5 -221.5t-62 -329t62 -329t181.5 -221.5t286.5 -79.5q169 0 289 79.5zM931 1749.5q-35 15.5 -58.5 38t-51.5 57.5q-33 40 -55 58t-54 18q-48 0 -74 -45t-26 -126h-112q0 137 58 213t158 76q44 0 77 -15t55.5 -36.5t51.5 -55.5q36 -41 58.5 -59t55.5 -18q42 0 68 47
t26 128h116q0 -91 -25.5 -158t-73 -102.5t-111.5 -35.5q-48 0 -83 15.5z" />
    <glyph glyph-name="Odieresis" unicode="&#xd6;" horiz-adv-x="1723" 
d="M468.5 82.5q-163.5 100.5 -249 282t-85.5 420.5t85.5 420.5t249 282t391.5 100.5t392 -100.5t250 -282t86 -420.5t-86 -420.5t-250 -282t-392 -100.5t-391.5 100.5zM1149 234.5q120 79.5 182 221.5t62 329t-62 329t-182 221.5t-289 79.5q-167 0 -286.5 -79.5
t-181.5 -221.5t-62 -329t62 -329t181.5 -221.5t286.5 -79.5q169 0 289 79.5zM587 1726.5q-30 17.5 -47 48t-17 66.5q0 53 37.5 90.5t91.5 37.5q35 0 65 -17t47.5 -46.5t17.5 -64.5q0 -36 -17.5 -66t-47.5 -48t-65 -18t-65 17.5zM1005.5 1726.5q-29.5 17.5 -47 48t-17.5 66.5
q0 53 37.5 90.5t92.5 37.5q35 0 65 -17t47.5 -46.5t17.5 -64.5q0 -36 -17.5 -66t-47.5 -48t-65 -18q-36 0 -65.5 17.5z" />
    <glyph glyph-name="multiply" unicode="&#xd7;" horiz-adv-x="1290" 
d="M644 575l-352 -352l-101 101l352 353l-352 352l102 101l352 -352l352 352l101 -101l-352 -352l354 -354l-102 -102z" />
    <glyph glyph-name="Oslash" unicode="&#xd8;" horiz-adv-x="1723" 
d="M1525 1151.5q63 -163.5 63 -366.5q0 -239 -86 -420.5t-250 -282t-392 -100.5q-203 0 -356 81l-70 -114l-127 78l74 120q-121 106 -184 269.5t-63 368.5q0 239 85.5 420.5t249 282t391.5 100.5q206 0 361 -83l71 115l125 -78l-75 -121q120 -106 183 -269.5zM369 517
q39 -121 114 -205l642 1038q-115 65 -265 65q-167 0 -286.5 -79.5t-181.5 -221.5t-62 -329q0 -147 39 -268zM1149 234.5q120 79.5 182 221.5t62 329q0 147 -38.5 267.5t-113.5 203.5l-641 -1038q112 -63 260 -63q169 0 289 79.5z" />
    <glyph glyph-name="Ugrave" unicode="&#xd9;" horiz-adv-x="1566" 
d="M530.5 20.5q-110.5 38.5 -184.5 111.5q-71 71 -105 175.5t-34 270.5v992h196v-985q0 -114 18.5 -188t67.5 -128q48 -54 122.5 -84t171.5 -30q98 0 172.5 29.5t123.5 84.5q45 51 64.5 121.5t19.5 194.5v985h196v-992q0 -166 -32.5 -269t-106.5 -177q-73 -73 -183.5 -111.5
t-253.5 -38.5q-142 0 -252.5 38.5zM420 2030h203l234 -318h-145z" />
    <glyph glyph-name="Uacute" unicode="&#xda;" horiz-adv-x="1566" 
d="M530.5 20.5q-110.5 38.5 -184.5 111.5q-71 71 -105 175.5t-34 270.5v992h196v-985q0 -114 18.5 -188t67.5 -128q48 -54 122.5 -84t171.5 -30q98 0 172.5 29.5t123.5 84.5q45 51 64.5 121.5t19.5 194.5v985h196v-992q0 -166 -32.5 -269t-106.5 -177q-73 -73 -183.5 -111.5
t-253.5 -38.5q-142 0 -252.5 38.5zM958 2030h203l-305 -318h-141z" />
    <glyph glyph-name="Ucircumflex" unicode="&#xdb;" horiz-adv-x="1566" 
d="M530.5 20.5q-110.5 38.5 -184.5 111.5q-71 71 -105 175.5t-34 270.5v992h196v-985q0 -114 18.5 -188t67.5 -128q48 -54 122.5 -84t171.5 -30q98 0 172.5 29.5t123.5 84.5q45 51 64.5 121.5t19.5 194.5v985h196v-992q0 -166 -32.5 -269t-106.5 -177q-73 -73 -183.5 -111.5
t-253.5 -38.5q-142 0 -252.5 38.5zM783 2057l341 -366h-152l-189 187l-189 -187h-150z" />
    <glyph glyph-name="Udieresis" unicode="&#xdc;" horiz-adv-x="1566" 
d="M530.5 20.5q-110.5 38.5 -184.5 111.5q-71 71 -105 175.5t-34 270.5v992h196v-985q0 -114 18.5 -188t67.5 -128q48 -54 122.5 -84t171.5 -30q98 0 172.5 29.5t123.5 84.5q45 51 64.5 121.5t19.5 194.5v985h196v-992q0 -166 -32.5 -269t-106.5 -177q-73 -73 -183.5 -111.5
t-253.5 -38.5q-142 0 -252.5 38.5zM510 1726.5q-30 17.5 -47 48t-17 66.5q0 53 37.5 90.5t91.5 37.5q35 0 65 -17t47.5 -46.5t17.5 -64.5q0 -36 -17.5 -66t-47.5 -48t-65 -18t-65 17.5zM928.5 1726.5q-29.5 17.5 -47 48t-17.5 66.5q0 53 37.5 90.5t92.5 37.5q35 0 65 -17
t47.5 -46.5t17.5 -64.5q0 -36 -17.5 -66t-47.5 -48t-65 -18q-36 0 -65.5 17.5z" />
    <glyph glyph-name="Yacute" unicode="&#xdd;" horiz-adv-x="1490" 
d="M646 585l-596 985h228l462 -771h11l462 771h227l-598 -985v-585h-196v585zM919 2030h203l-305 -318h-141z" />
    <glyph glyph-name="Thorn" unicode="&#xde;" horiz-adv-x="1327" 
d="M239 1570h196v-221h316q153 0 260 -53.5t162.5 -154t55.5 -240.5q0 -144 -57 -244.5t-164.5 -152t-256.5 -51.5h-316v-453h-196v1570zM737 637q146 0 221 67.5t75 198.5q0 145 -85 203.5t-211 58.5h-302v-528h302z" />
    <glyph glyph-name="germandbls" unicode="&#xdf;" horiz-adv-x="1347" 
d="M685.5 -4q-62.5 14 -130.5 40l66 162q102 -43 185 -43q99 0 156 53t57 140q0 49 -21.5 87.5t-52.5 68t-84 69.5q-58 44 -93 77t-59 79t-24 106q0 53 18 90.5t43 62t68 57.5q39 29 62.5 51t39 53.5t15.5 74.5q0 60 -32.5 106t-93.5 71.5t-143 25.5q-284 0 -284 -330v-1097
h-187v1097q0 152 58 263t164.5 169.5t248.5 58.5q130 0 233.5 -45.5t162.5 -127.5t59 -188q0 -74 -25 -126.5t-59 -84.5t-86 -68q-47 -32 -68 -54t-21 -52q0 -34 28.5 -62.5t90.5 -73.5q71 -52 117 -95t80 -108.5t34 -152.5q0 -108 -51 -192t-141.5 -130t-205.5 -46
q-62 0 -124.5 14z" />
    <glyph glyph-name="agrave" unicode="&#xe0;" horiz-adv-x="1201" 
d="M1024 853.5q16 -73.5 16 -184.5v-669h-189v121h-16q-48 -61 -139 -98q-92 -41 -209 -41q-122 0 -211.5 42t-137 120.5t-47.5 183.5q0 108 42.5 177.5t123.5 106.5q56 25 121.5 35.5t165.5 10.5h307q0 96 -15 154t-51 91q-35 33 -90 49.5t-122 16.5q-94 0 -176.5 -38
t-159.5 -116l-116 127q200 187 452 187q135 0 233 -36.5t154 -107.5q48 -58 64 -131.5zM832.5 341.5q17.5 66.5 18.5 156.5h-296q-85 0 -132.5 -7.5t-81.5 -28.5q-27 -18 -44 -51t-17 -83q0 -89 62 -142.5t177 -53.5q147 0 241 91q55 52 72.5 118.5zM236 1570h203l234 -318
h-145z" />
    <glyph glyph-name="aacute" unicode="&#xe1;" horiz-adv-x="1201" 
d="M1024 853.5q16 -73.5 16 -184.5v-669h-189v121h-16q-48 -61 -139 -98q-92 -41 -209 -41q-122 0 -211.5 42t-137 120.5t-47.5 183.5q0 108 42.5 177.5t123.5 106.5q56 25 121.5 35.5t165.5 10.5h307q0 96 -15 154t-51 91q-35 33 -90 49.5t-122 16.5q-94 0 -176.5 -38
t-159.5 -116l-116 127q200 187 452 187q135 0 233 -36.5t154 -107.5q48 -58 64 -131.5zM832.5 341.5q17.5 66.5 18.5 156.5h-296q-85 0 -132.5 -7.5t-81.5 -28.5q-27 -18 -44 -51t-17 -83q0 -89 62 -142.5t177 -53.5q147 0 241 91q55 52 72.5 118.5zM774 1570h203l-305 -318
h-141z" />
    <glyph glyph-name="acircumflex" unicode="&#xe2;" horiz-adv-x="1201" 
d="M1024 853.5q16 -73.5 16 -184.5v-669h-189v121h-16q-48 -61 -139 -98q-92 -41 -209 -41q-122 0 -211.5 42t-137 120.5t-47.5 183.5q0 108 42.5 177.5t123.5 106.5q56 25 121.5 35.5t165.5 10.5h307q0 96 -15 154t-51 91q-35 33 -90 49.5t-122 16.5q-94 0 -176.5 -38
t-159.5 -116l-116 127q200 187 452 187q135 0 233 -36.5t154 -107.5q48 -58 64 -131.5zM832.5 341.5q17.5 66.5 18.5 156.5h-296q-85 0 -132.5 -7.5t-81.5 -28.5q-27 -18 -44 -51t-17 -83q0 -89 62 -142.5t177 -53.5q147 0 241 91q55 52 72.5 118.5zM599 1597l341 -366h-152
l-189 187l-189 -187h-150z" />
    <glyph glyph-name="atilde" unicode="&#xe3;" horiz-adv-x="1201" 
d="M1024 853.5q16 -73.5 16 -184.5v-669h-189v121h-16q-48 -61 -139 -98q-92 -41 -209 -41q-122 0 -211.5 42t-137 120.5t-47.5 183.5q0 108 42.5 177.5t123.5 106.5q56 25 121.5 35.5t165.5 10.5h307q0 96 -15 154t-51 91q-35 33 -90 49.5t-122 16.5q-94 0 -176.5 -38
t-159.5 -116l-116 127q200 187 452 187q135 0 233 -36.5t154 -107.5q48 -58 64 -131.5zM832.5 341.5q17.5 66.5 18.5 156.5h-296q-85 0 -132.5 -7.5t-81.5 -28.5q-27 -18 -44 -51t-17 -83q0 -89 62 -142.5t177 -53.5q147 0 241 91q55 52 72.5 118.5zM670 1289.5
q-35 15.5 -58.5 38t-51.5 57.5q-33 40 -55 58t-54 18q-48 0 -74 -45t-26 -126h-112q0 137 58 213t158 76q44 0 77 -15t55.5 -36.5t51.5 -55.5q36 -41 58.5 -59t55.5 -18q42 0 68 47t26 128h116q0 -91 -25.5 -158t-73 -102.5t-111.5 -35.5q-48 0 -83 15.5z" />
    <glyph glyph-name="adieresis" unicode="&#xe4;" horiz-adv-x="1201" 
d="M1024 853.5q16 -73.5 16 -184.5v-669h-189v121h-16q-48 -61 -139 -98q-92 -41 -209 -41q-122 0 -211.5 42t-137 120.5t-47.5 183.5q0 108 42.5 177.5t123.5 106.5q56 25 121.5 35.5t165.5 10.5h307q0 96 -15 154t-51 91q-35 33 -90 49.5t-122 16.5q-94 0 -176.5 -38
t-159.5 -116l-116 127q200 187 452 187q135 0 233 -36.5t154 -107.5q48 -58 64 -131.5zM832.5 341.5q17.5 66.5 18.5 156.5h-296q-85 0 -132.5 -7.5t-81.5 -28.5q-27 -18 -44 -51t-17 -83q0 -89 62 -142.5t177 -53.5q147 0 241 91q55 52 72.5 118.5zM299.5 1370.5
q-37.5 37.5 -37.5 92.5q0 35 17 65t47 47.5t65 17.5t65 -17.5t47.5 -47.5t17.5 -65q0 -36 -17.5 -65.5t-47.5 -47t-65 -17.5q-54 0 -91.5 37.5zM717.5 1370.5q-37.5 37.5 -37.5 92.5q0 35 17.5 65t47 47.5t65.5 17.5q35 0 65 -17.5t47.5 -47.5t17.5 -65q0 -36 -17.5 -65.5
t-47.5 -47t-65 -17.5q-55 0 -92.5 37.5z" />
    <glyph glyph-name="aring" unicode="&#xe5;" horiz-adv-x="1201" 
d="M1024 853.5q16 -73.5 16 -184.5v-669h-189v121h-16q-48 -61 -139 -98q-92 -41 -209 -41q-122 0 -211.5 42t-137 120.5t-47.5 183.5q0 108 42.5 177.5t123.5 106.5q56 25 121.5 35.5t165.5 10.5h307q0 96 -15 154t-51 91q-35 33 -90 49.5t-122 16.5q-94 0 -176.5 -38
t-159.5 -116l-116 127q200 187 452 187q135 0 233 -36.5t154 -107.5q48 -58 64 -131.5zM832.5 341.5q17.5 66.5 18.5 156.5h-296q-85 0 -132.5 -7.5t-81.5 -28.5q-27 -18 -44 -51t-17 -83q0 -89 62 -142.5t177 -53.5q147 0 241 91q55 52 72.5 118.5zM484.5 1237
q-52.5 31 -83 84t-30.5 115t31 115t84 84t115 31q61 0 114 -31t84.5 -84t31.5 -115q0 -63 -31 -115.5t-83.5 -83.5t-115.5 -31q-64 0 -116.5 31zM690 1347q36 36 36 91q0 52 -35 87.5t-90 35.5q-54 0 -89.5 -35.5t-35.5 -87.5q0 -55 36 -91t89 -36t89 36z" />
    <glyph glyph-name="ae" unicode="&#xe6;" horiz-adv-x="1959" 
d="M276.5 23q-91.5 41 -142 119t-50.5 186q0 167 122 242.5t349 75.5h301v43q0 134 -73.5 205t-204.5 71q-98 0 -178 -41.5t-147 -124.5l-139 113q94 107 211 162t253 55q142 0 240 -58.5t142 -169.5l16 2q62 108 163.5 167t241.5 59q169 0 277.5 -80t157 -201.5
t48.5 -249.5q0 -28 -2 -63t-5 -48h-801q12 -163 96.5 -249t240.5 -86q92 0 164 31t141 104l129 -116q-92 -98 -195.5 -143.5t-232.5 -45.5q-159 0 -270.5 63t-172.5 180h-18q-87 -134 -203.5 -188.5t-245.5 -54.5q-121 0 -212.5 41zM1677 646q0 39 -4 62q-10 71 -47 130
t-102 95t-154 36q-138 0 -217 -86t-97 -237h621zM669 174q74 33 124 96t67 149q-4 27 -4 68h-289q-70 0 -130.5 -8.5t-111 -45.5t-50.5 -112q0 -82 62 -131t173 -49q85 0 159 33z" />
    <glyph glyph-name="ccedilla" unicode="&#xe7;" horiz-adv-x="1131" 
d="M778 208q73 56 103 152l170 -64q-48 -140 -156 -222t-253 -91l-69 -104q35 -3 57 -13q54 -19 84 -60t30 -97q0 -53 -27.5 -95.5t-76 -67t-108.5 -24.5q-52 0 -104.5 19t-100.5 59l53 86q37 -35 78 -51.5t79 -16.5q50 0 79.5 26t29.5 65q0 32 -21 55.5t-61 35.5
q-40 13 -121 13l103 172q-142 15 -243 94.5t-153 203.5t-52 270q0 151 57 282.5t171.5 212.5t278.5 81q160 0 278.5 -79.5t179.5 -232.5l-178 -71q-34 98 -108 155t-172 57q-105 0 -176.5 -56.5t-106.5 -148.5t-35 -200q0 -109 34 -200t105.5 -146t178.5 -55q100 0 173 56z
" />
    <glyph glyph-name="egrave" unicode="&#xe8;" horiz-adv-x="1199" 
d="M1103 543.5q-3 -29.5 -6 -45.5h-801q5 -108 45.5 -188.5t114.5 -124.5t177 -44q96 0 167.5 32.5t137.5 113.5l132 -116q-95 -99 -199.5 -144t-240.5 -45q-169 0 -289.5 75.5t-181.5 205t-61 288.5q0 157 59 288.5t175.5 210.5t279.5 79q175 0 285.5 -80t159.5 -200
t49 -248q0 -28 -3 -57.5zM456 927q-68 -42 -108 -113t-49 -156h617l-1 22q-12 138 -89.5 213.5t-211.5 75.5q-90 0 -158 -42zM236 1570h203l234 -318h-145z" />
    <glyph glyph-name="eacute" unicode="&#xe9;" horiz-adv-x="1199" 
d="M1103 543.5q-3 -29.5 -6 -45.5h-801q5 -108 45.5 -188.5t114.5 -124.5t177 -44q96 0 167.5 32.5t137.5 113.5l132 -116q-95 -99 -199.5 -144t-240.5 -45q-169 0 -289.5 75.5t-181.5 205t-61 288.5q0 157 59 288.5t175.5 210.5t279.5 79q175 0 285.5 -80t159.5 -200
t49 -248q0 -28 -3 -57.5zM456 927q-68 -42 -108 -113t-49 -156h617l-1 22q-12 138 -89.5 213.5t-211.5 75.5q-90 0 -158 -42zM774 1570h203l-305 -318h-141z" />
    <glyph glyph-name="ecircumflex" unicode="&#xea;" horiz-adv-x="1199" 
d="M1103 543.5q-3 -29.5 -6 -45.5h-801q5 -108 45.5 -188.5t114.5 -124.5t177 -44q96 0 167.5 32.5t137.5 113.5l132 -116q-95 -99 -199.5 -144t-240.5 -45q-169 0 -289.5 75.5t-181.5 205t-61 288.5q0 157 59 288.5t175.5 210.5t279.5 79q175 0 285.5 -80t159.5 -200
t49 -248q0 -28 -3 -57.5zM456 927q-68 -42 -108 -113t-49 -156h617l-1 22q-12 138 -89.5 213.5t-211.5 75.5q-90 0 -158 -42zM599 1597l341 -366h-152l-189 187l-189 -187h-150z" />
    <glyph glyph-name="edieresis" unicode="&#xeb;" horiz-adv-x="1199" 
d="M1103 543.5q-3 -29.5 -6 -45.5h-801q5 -108 45.5 -188.5t114.5 -124.5t177 -44q96 0 167.5 32.5t137.5 113.5l132 -116q-95 -99 -199.5 -144t-240.5 -45q-169 0 -289.5 75.5t-181.5 205t-61 288.5q0 157 59 288.5t175.5 210.5t279.5 79q175 0 285.5 -80t159.5 -200
t49 -248q0 -28 -3 -57.5zM456 927q-68 -42 -108 -113t-49 -156h617l-1 22q-12 138 -89.5 213.5t-211.5 75.5q-90 0 -158 -42zM299.5 1370.5q-37.5 37.5 -37.5 92.5q0 35 17 65t47 47.5t65 17.5t65 -17.5t47.5 -47.5t17.5 -65q0 -36 -17.5 -65.5t-47.5 -47t-65 -17.5
q-54 0 -91.5 37.5zM717.5 1370.5q-37.5 37.5 -37.5 92.5q0 35 17.5 65t47 47.5t65.5 17.5q35 0 65 -17.5t47.5 -47.5t17.5 -65q0 -36 -17.5 -65.5t-47.5 -47t-65 -17.5q-55 0 -92.5 37.5z" />
    <glyph glyph-name="igrave" unicode="&#xec;" horiz-adv-x="567" 
d="M189 1110h189v-1110h-189v1110zM-81 1570h203l234 -318h-145z" />
    <glyph glyph-name="iacute" unicode="&#xed;" horiz-adv-x="567" 
d="M189 1110h189v-1110h-189v1110zM457 1570h203l-305 -318h-141z" />
    <glyph glyph-name="icircumflex" unicode="&#xee;" horiz-adv-x="567" 
d="M189 1110h189v-1110h-189v1110zM282 1597l341 -366h-152l-189 187l-189 -187h-150z" />
    <glyph glyph-name="idieresis" unicode="&#xef;" horiz-adv-x="567" 
d="M189 1110h189v-1110h-189v1110zM-17.5 1370.5q-37.5 37.5 -37.5 92.5q0 35 17 65t47 47.5t65 17.5t65 -17.5t47.5 -47.5t17.5 -65q0 -36 -17.5 -65.5t-47.5 -47t-65 -17.5q-54 0 -91.5 37.5zM400.5 1370.5q-37.5 37.5 -37.5 92.5q0 35 17.5 65t47 47.5t65.5 17.5
q35 0 65 -17.5t47.5 -47.5t17.5 -65q0 -36 -17.5 -65.5t-47.5 -47t-65 -17.5q-55 0 -92.5 37.5z" />
    <glyph glyph-name="eth" unicode="&#xf0;" horiz-adv-x="1249" 
d="M346.5 54.5q-125.5 72.5 -197.5 194.5t-72 263q0 144 74 261.5t199.5 185t273.5 67.5q74 0 131 -43l-166 278l-100 -114h-107l162 184l-153 239h207l69 -105l88 105h107l-147 -166l302 -507q88 -147 120.5 -229.5t32.5 -160.5q0 -143 -73.5 -263.5t-198.5 -191
t-274 -70.5q-152 0 -277.5 72.5zM801.5 210.5q81.5 46.5 129 126.5t47.5 175q0 93 -48 172.5t-129.5 126.5t-176.5 47t-177 -47t-130 -126.5t-48 -172.5q0 -94 48 -174t130 -127t177 -47q96 0 177.5 46.5z" />
    <glyph glyph-name="ntilde" unicode="&#xf1;" horiz-adv-x="1274" 
d="M189 1110h189v-100h16q49 50 133.5 84.5t189.5 34.5q163 0 264 -82q66 -56 97.5 -146t31.5 -239v-662h-188v621q0 119 -18 183t-57 102q-68 63 -192 63q-134 0 -204 -82q-40 -44 -56.5 -108.5t-16.5 -173.5v-605h-189v1110zM706 1289.5q-35 15.5 -58.5 38t-51.5 57.5
q-33 40 -55 58t-54 18q-48 0 -74 -45t-26 -126h-112q0 137 58 213t158 76q44 0 77 -15t55.5 -36.5t51.5 -55.5q36 -41 58.5 -59t55.5 -18q42 0 68 47t26 128h116q0 -91 -25.5 -158t-73 -102.5t-111.5 -35.5q-48 0 -83 15.5z" />
    <glyph glyph-name="ograve" unicode="&#xf2;" horiz-adv-x="1279" 
d="M354.5 52q-122.5 70 -189.5 200.5t-67 305.5t67 304t189.5 198t284.5 69t285 -69t190 -198t67 -304t-67.5 -305.5t-190 -200.5t-284.5 -70t-284.5 70zM830.5 192q79.5 51 120.5 145t41 221q0 125 -41 217.5t-120.5 143t-191.5 50.5q-113 0 -192 -50t-119.5 -142
t-40.5 -219t40.5 -221t119.5 -145t192 -51q112 0 191.5 51zM274 1570h203l234 -318h-145z" />
    <glyph glyph-name="oacute" unicode="&#xf3;" horiz-adv-x="1279" 
d="M354.5 52q-122.5 70 -189.5 200.5t-67 305.5t67 304t189.5 198t284.5 69t285 -69t190 -198t67 -304t-67.5 -305.5t-190 -200.5t-284.5 -70t-284.5 70zM830.5 192q79.5 51 120.5 145t41 221q0 125 -41 217.5t-120.5 143t-191.5 50.5q-113 0 -192 -50t-119.5 -142
t-40.5 -219t40.5 -221t119.5 -145t192 -51q112 0 191.5 51zM812 1570h203l-305 -318h-141z" />
    <glyph glyph-name="ocircumflex" unicode="&#xf4;" horiz-adv-x="1279" 
d="M354.5 52q-122.5 70 -189.5 200.5t-67 305.5t67 304t189.5 198t284.5 69t285 -69t190 -198t67 -304t-67.5 -305.5t-190 -200.5t-284.5 -70t-284.5 70zM830.5 192q79.5 51 120.5 145t41 221q0 125 -41 217.5t-120.5 143t-191.5 50.5q-113 0 -192 -50t-119.5 -142
t-40.5 -219t40.5 -221t119.5 -145t192 -51q112 0 191.5 51zM637 1597l341 -366h-152l-189 187l-189 -187h-150z" />
    <glyph glyph-name="otilde" unicode="&#xf5;" horiz-adv-x="1279" 
d="M354.5 52q-122.5 70 -189.5 200.5t-67 305.5t67 304t189.5 198t284.5 69t285 -69t190 -198t67 -304t-67.5 -305.5t-190 -200.5t-284.5 -70t-284.5 70zM830.5 192q79.5 51 120.5 145t41 221q0 125 -41 217.5t-120.5 143t-191.5 50.5q-113 0 -192 -50t-119.5 -142
t-40.5 -219t40.5 -221t119.5 -145t192 -51q112 0 191.5 51zM708 1289.5q-35 15.5 -58.5 38t-51.5 57.5q-33 40 -55 58t-54 18q-48 0 -74 -45t-26 -126h-112q0 137 58 213t158 76q44 0 77 -15t55.5 -36.5t51.5 -55.5q36 -41 58.5 -59t55.5 -18q42 0 68 47t26 128h116
q0 -91 -25.5 -158t-73 -102.5t-111.5 -35.5q-48 0 -83 15.5z" />
    <glyph glyph-name="odieresis" unicode="&#xf6;" horiz-adv-x="1279" 
d="M354.5 52q-122.5 70 -189.5 200.5t-67 305.5t67 304t189.5 198t284.5 69t285 -69t190 -198t67 -304t-67.5 -305.5t-190 -200.5t-284.5 -70t-284.5 70zM830.5 192q79.5 51 120.5 145t41 221q0 125 -41 217.5t-120.5 143t-191.5 50.5q-113 0 -192 -50t-119.5 -142
t-40.5 -219t40.5 -221t119.5 -145t192 -51q112 0 191.5 51zM337.5 1370.5q-37.5 37.5 -37.5 92.5q0 35 17 65t47 47.5t65 17.5t65 -17.5t47.5 -47.5t17.5 -65q0 -36 -17.5 -65.5t-47.5 -47t-65 -17.5q-54 0 -91.5 37.5zM755.5 1370.5q-37.5 37.5 -37.5 92.5q0 35 17.5 65
t47 47.5t65.5 17.5q35 0 65 -17.5t47.5 -47.5t17.5 -65q0 -36 -17.5 -65.5t-47.5 -47t-65 -17.5q-55 0 -92.5 37.5z" />
    <glyph glyph-name="divide" unicode="&#xf7;" horiz-adv-x="1290" 
d="M562.5 962q-29.5 18 -47 48t-17.5 66q0 53 37.5 90.5t92.5 37.5q35 0 65 -17t47.5 -46.5t17.5 -64.5t-17.5 -65.5t-47.5 -48.5t-65 -18q-36 0 -65.5 18zM218 771h854v-145h-854v145zM562.5 188.5q-29.5 17.5 -47 48t-17.5 66.5q0 35 17.5 64.5t47 47t65.5 17.5
q35 0 65 -17.5t47.5 -47.5t17.5 -64q0 -36 -17.5 -66t-47.5 -48t-65 -18q-36 0 -65.5 17.5z" />
    <glyph glyph-name="oslash" unicode="&#xf8;" horiz-adv-x="1279" 
d="M1135 815.5q46 -113.5 46 -257.5q0 -175 -67.5 -305.5t-190 -200.5t-284.5 -70q-132 0 -238 47l-83 -134l-127 78l84 136q-85 76 -131 190.5t-46 258.5q0 175 67 304t189.5 198t284.5 69q130 0 239 -46l80 130l127 -77l-82 -132q86 -75 132 -188.5zM370 263l419 677
q-66 29 -150 29q-113 0 -192 -50t-119.5 -142t-40.5 -219q0 -186 83 -295zM830.5 192q79.5 51 120.5 145t41 221q0 90 -21.5 164t-62.5 127l-420 -679q67 -29 151 -29q112 0 191.5 51z" />
    <glyph glyph-name="ugrave" unicode="&#xf9;" horiz-adv-x="1272" 
d="M291 64q-66 56 -97.5 146t-31.5 238v662h188v-621q0 -119 18 -183t58 -101q67 -64 191 -64q133 0 204 82q40 44 56.5 108.5t16.5 173.5v605h189v-1110h-189v100h-16q-50 -50 -134 -84t-189 -34q-165 0 -264 82zM270 1570h203l234 -318h-145z" />
    <glyph glyph-name="uacute" unicode="&#xfa;" horiz-adv-x="1272" 
d="M291 64q-66 56 -97.5 146t-31.5 238v662h188v-621q0 -119 18 -183t58 -101q67 -64 191 -64q133 0 204 82q40 44 56.5 108.5t16.5 173.5v605h189v-1110h-189v100h-16q-50 -50 -134 -84t-189 -34q-165 0 -264 82zM808 1570h203l-305 -318h-141z" />
    <glyph glyph-name="ucircumflex" unicode="&#xfb;" horiz-adv-x="1272" 
d="M291 64q-66 56 -97.5 146t-31.5 238v662h188v-621q0 -119 18 -183t58 -101q67 -64 191 -64q133 0 204 82q40 44 56.5 108.5t16.5 173.5v605h189v-1110h-189v100h-16q-50 -50 -134 -84t-189 -34q-165 0 -264 82zM633 1597l341 -366h-152l-189 187l-189 -187h-150z" />
    <glyph glyph-name="udieresis" unicode="&#xfc;" horiz-adv-x="1272" 
d="M291 64q-66 56 -97.5 146t-31.5 238v662h188v-621q0 -119 18 -183t58 -101q67 -64 191 -64q133 0 204 82q40 44 56.5 108.5t16.5 173.5v605h189v-1110h-189v100h-16q-50 -50 -134 -84t-189 -34q-165 0 -264 82zM333.5 1370.5q-37.5 37.5 -37.5 92.5q0 35 17 65t47 47.5
t65 17.5t65 -17.5t47.5 -47.5t17.5 -65q0 -36 -17.5 -65.5t-47.5 -47t-65 -17.5q-54 0 -91.5 37.5zM751.5 1370.5q-37.5 37.5 -37.5 92.5q0 35 17.5 65t47 47.5t65.5 17.5q35 0 65 -17.5t47.5 -47.5t17.5 -65q0 -36 -17.5 -65.5t-47.5 -47t-65 -17.5q-55 0 -92.5 37.5z" />
    <glyph glyph-name="yacute" unicode="&#xfd;" horiz-adv-x="1145" 
d="M471 20l-441 1090h207l327 -864h14l330 864h207l-633 -1570h-204zM746 1570h203l-305 -318h-141z" />
    <glyph glyph-name="thorn" unicode="&#xfe;" horiz-adv-x="1345" 
d="M193 1570h189v-562h16q66 59 153 90t191 31q154 0 266 -67.5t172 -197t60 -309.5q0 -181 -60 -309.5t-170 -196t-259 -67.5q-216 0 -353 130h-16v-572h-189v2030zM890.5 188.5q76.5 47.5 118.5 140.5t42 226q0 134 -42.5 227t-119 140t-177.5 47q-104 0 -182.5 -50
t-121 -143.5t-42.5 -220.5q0 -126 42.5 -219.5t120.5 -144t183 -50.5q102 0 178.5 47.5z" />
    <glyph glyph-name="ydieresis" unicode="&#xff;" horiz-adv-x="1145" 
d="M471 20l-441 1090h207l327 -864h14l330 864h207l-633 -1570h-204zM271.5 1370.5q-37.5 37.5 -37.5 92.5q0 35 17 65t47 47.5t65 17.5t65 -17.5t47.5 -47.5t17.5 -65q0 -36 -17.5 -65.5t-47.5 -47t-65 -17.5q-54 0 -91.5 37.5zM689.5 1370.5q-37.5 37.5 -37.5 92.5
q0 35 17.5 65t47 47.5t65.5 17.5q35 0 65 -17.5t47.5 -47.5t17.5 -65q0 -36 -17.5 -65.5t-47.5 -47t-65 -17.5q-55 0 -92.5 37.5z" />
    <glyph glyph-name="Amacron" unicode="&#x100;" horiz-adv-x="1481" 
d="M1081 364h-677l-124 -364h-214l562 1570h225l562 -1570h-211zM1022 537l-271 801h-14l-274 -801h559zM435 1903h612v-114h-612v114z" />
    <glyph glyph-name="amacron" unicode="&#x101;" horiz-adv-x="1201" 
d="M1024 853.5q16 -73.5 16 -184.5v-669h-189v121h-16q-48 -61 -139 -98q-92 -41 -209 -41q-122 0 -211.5 42t-137 120.5t-47.5 183.5q0 108 42.5 177.5t123.5 106.5q56 25 121.5 35.5t165.5 10.5h307q0 96 -15 154t-51 91q-35 33 -90 49.5t-122 16.5q-94 0 -176.5 -38
t-159.5 -116l-116 127q200 187 452 187q135 0 233 -36.5t154 -107.5q48 -58 64 -131.5zM832.5 341.5q17.5 66.5 18.5 156.5h-296q-85 0 -132.5 -7.5t-81.5 -28.5q-27 -18 -44 -51t-17 -83q0 -89 62 -142.5t177 -53.5q147 0 241 91q55 52 72.5 118.5zM294 1443h612v-114h-612
v114z" />
    <glyph glyph-name="Abreve" unicode="&#x102;" horiz-adv-x="1481" 
d="M1081 364h-677l-124 -364h-214l562 1570h225l562 -1570h-211zM1022 537l-271 801h-14l-274 -801h559zM483.5 1800.5q-85.5 82.5 -85.5 229.5h134q0 -101 54.5 -149.5t152.5 -48.5q100 0 154 49.5t54 148.5h136q0 -150 -88 -231t-256 -81q-170 0 -255.5 82.5z" />
    <glyph glyph-name="abreve" unicode="&#x103;" horiz-adv-x="1201" 
d="M1024 853.5q16 -73.5 16 -184.5v-669h-189v121h-16q-48 -61 -139 -98q-92 -41 -209 -41q-122 0 -211.5 42t-137 120.5t-47.5 183.5q0 108 42.5 177.5t123.5 106.5q56 25 121.5 35.5t165.5 10.5h307q0 96 -15 154t-51 91q-35 33 -90 49.5t-122 16.5q-94 0 -176.5 -38
t-159.5 -116l-116 127q200 187 452 187q135 0 233 -36.5t154 -107.5q48 -58 64 -131.5zM832.5 341.5q17.5 66.5 18.5 156.5h-296q-85 0 -132.5 -7.5t-81.5 -28.5q-27 -18 -44 -51t-17 -83q0 -89 62 -142.5t177 -53.5q147 0 241 91q55 52 72.5 118.5zM342.5 1340.5
q-85.5 82.5 -85.5 229.5h134q0 -101 54.5 -149.5t152.5 -48.5q100 0 154 49.5t54 148.5h136q0 -150 -88 -231t-256 -81q-170 0 -255.5 82.5z" />
    <glyph glyph-name="Aogonek" unicode="&#x104;" horiz-adv-x="1481" 
d="M1081 364h-677l-124 -364h-214l562 1570h225l562 -1570h-211zM1022 537l-271 801h-14l-274 -801h559zM1175 -426q-83 52 -83 140q0 66 49.5 141t141.5 145h132q-84 -56 -129.5 -120t-45.5 -119q0 -56 44.5 -88t130.5 -32v-119q-157 0 -240 52z" />
    <glyph glyph-name="aogonek" unicode="&#x105;" horiz-adv-x="1201" 
d="M910.5 -120q-45.5 -64 -45.5 -119q0 -56 44.5 -88t130.5 -32v-119q-157 0 -240 52t-83 140q0 66 49.5 141t141.5 145h-57v121h-16q-48 -61 -139 -98q-92 -41 -209 -41q-122 0 -211.5 42t-137 120.5t-47.5 183.5q0 108 42.5 177.5t123.5 106.5q56 25 121.5 35.5
t165.5 10.5h307q0 96 -15 154t-51 91q-35 33 -90 49.5t-122 16.5q-94 0 -176.5 -38t-159.5 -116l-116 127q200 187 452 187q135 0 233 -36.5t154 -107.5q48 -58 64 -131.5t16 -184.5v-669q-84 -56 -129.5 -120zM832.5 341.5q17.5 66.5 18.5 156.5h-296q-85 0 -132.5 -7.5
t-81.5 -28.5q-27 -18 -44 -51t-17 -83q0 -89 62 -142.5t177 -53.5q147 0 241 91q55 52 72.5 118.5z" />
    <glyph glyph-name="Cacute" unicode="&#x106;" horiz-adv-x="1629" 
d="M471.5 79q-162.5 97 -248.5 278t-86 430t86.5 429.5t250.5 276t391 95.5q247 0 414 -111.5t246 -325.5l-185 -70q-58 165 -177.5 249.5t-297.5 84.5q-166 0 -286 -75t-183.5 -216t-63.5 -337q0 -190 60.5 -332.5t178.5 -221t287 -78.5q179 0 302.5 89.5t184.5 258.5
l189 -59q-79 -224 -251.5 -343t-424.5 -119q-224 0 -386.5 97zM990 2030h203l-305 -318h-141z" />
    <glyph glyph-name="cacute" unicode="&#x107;" horiz-adv-x="1131" 
d="M332 59q-115 77 -174.5 207t-59.5 287q0 151 57 282.5t171.5 212.5t278.5 81q160 0 278.5 -79.5t179.5 -232.5l-178 -71q-34 98 -108 155t-172 57q-105 0 -176.5 -56.5t-106.5 -148.5t-35 -200q0 -109 34 -200t105.5 -146t178.5 -55q100 0 173 56t103 152l170 -64
q-51 -148 -168.5 -231t-274.5 -83q-161 0 -276 77zM778 1570h203l-305 -318h-141z" />
    <glyph glyph-name="Cdotaccent" unicode="&#x10a;" horiz-adv-x="1629" 
d="M471.5 79q-162.5 97 -248.5 278t-86 430t86.5 429.5t250.5 276t391 95.5q247 0 414 -111.5t246 -325.5l-185 -70q-58 165 -177.5 249.5t-297.5 84.5q-166 0 -286 -75t-183.5 -216t-63.5 -337q0 -190 60.5 -332.5t178.5 -221t287 -78.5q179 0 302.5 89.5t184.5 258.5
l189 -59q-79 -224 -251.5 -343t-424.5 -119q-224 0 -386.5 97zM752 1726.5q-30 17.5 -47 48t-17 66.5q0 53 37.5 90.5t91.5 37.5q35 0 65 -17t47.5 -46.5t17.5 -64.5q0 -36 -17.5 -66t-47.5 -48t-65 -18t-65 17.5z" />
    <glyph glyph-name="cdotaccent" unicode="&#x10b;" horiz-adv-x="1131" 
d="M332 59q-115 77 -174.5 207t-59.5 287q0 151 57 282.5t171.5 212.5t278.5 81q160 0 278.5 -79.5t179.5 -232.5l-178 -71q-34 98 -108 155t-172 57q-105 0 -176.5 -56.5t-106.5 -148.5t-35 -200q0 -109 34 -200t105.5 -146t178.5 -55q100 0 173 56t103 152l170 -64
q-51 -148 -168.5 -231t-274.5 -83q-161 0 -276 77zM513.5 1370.5q-37.5 37.5 -37.5 92.5q0 35 17 65t47 47.5t65 17.5t65 -17.5t47.5 -47.5t17.5 -65q0 -36 -17.5 -65.5t-47.5 -47t-65 -17.5q-54 0 -91.5 37.5z" />
    <glyph glyph-name="Ccaron" unicode="&#x10c;" horiz-adv-x="1629" 
d="M471.5 79q-162.5 97 -248.5 278t-86 430t86.5 429.5t250.5 276t391 95.5q247 0 414 -111.5t246 -325.5l-185 -70q-58 165 -177.5 249.5t-297.5 84.5q-166 0 -286 -75t-183.5 -216t-63.5 -337q0 -190 60.5 -332.5t178.5 -221t287 -78.5q179 0 302.5 89.5t184.5 258.5
l189 -59q-79 -224 -251.5 -343t-424.5 -119q-224 0 -386.5 97zM476 2030h152l189 -180l189 180h152l-341 -350z" />
    <glyph glyph-name="ccaron" unicode="&#x10d;" horiz-adv-x="1131" 
d="M332 59q-115 77 -174.5 207t-59.5 287q0 151 57 282.5t171.5 212.5t278.5 81q160 0 278.5 -79.5t179.5 -232.5l-178 -71q-34 98 -108 155t-172 57q-105 0 -176.5 -56.5t-106.5 -148.5t-35 -200q0 -109 34 -200t105.5 -146t178.5 -55q100 0 173 56t103 152l170 -64
q-51 -148 -168.5 -231t-274.5 -83q-161 0 -276 77zM264 1570h152l189 -180l189 180h152l-341 -350z" />
    <glyph glyph-name="Dcaron" unicode="&#x10e;" horiz-adv-x="1611" 
d="M239 1570h357q170 0 288.5 -19.5t201 -58t154.5 -99.5q117 -102 178 -258t61 -361q0 -199 -60 -349t-177 -250q-76 -64 -164 -102t-204.5 -55.5t-279.5 -17.5h-355v1570zM576 175q148 0 246 16t164 48t124 84q173 156 173 458q0 154 -43 271.5t-127 196.5q-60 55 -130 87
t-162.5 45.5t-226.5 13.5h-159v-1220h141zM465 2030h152l189 -180l189 180h152l-341 -350z" />
    <glyph glyph-name="dcaron" unicode="&#x10f;" horiz-adv-x="1343" 
d="M337 49.5q-112 67.5 -172 196.5t-60 309q0 181 60 310t170 196.5t259 67.5q215 0 353 -130h16v571h188v-1570h-188v102h-16q-66 -59 -153 -89.5t-191 -30.5q-154 0 -266 67.5zM815 191q78 50 120.5 143.5t42.5 220.5q0 126 -42 219.5t-120 144t-183 50.5
q-102 0 -178.5 -47.5t-118.5 -140.5t-42 -226q0 -134 42.5 -227t118.5 -140t178 -47q104 0 182 50zM1547 1524q46 -67 46 -161q0 -70 -28 -145t-86.5 -137t-146.5 -91l-44 100q59 20 102.5 58.5t66 86.5t22.5 96q0 10 -2 28q-36 -28 -79 -28q-36 0 -65.5 17.5t-47 48
t-17.5 66.5q0 55 38 91.5t96 36.5q99 0 145 -67z" />
    <glyph glyph-name="Dcroat" unicode="&#x110;" horiz-adv-x="1611" 
d="M1418 1135q61 -156 61 -361q0 -199 -60 -349t-177 -250q-76 -64 -164 -102t-204.5 -55.5t-279.5 -17.5h-355v696h-163v128h163v746h357q170 0 288.5 -19.5t201 -58t154.5 -99.5q117 -102 178 -258zM1283 781q0 154 -43 271.5t-127 196.5q-60 55 -130 87t-162.5 45.5
t-226.5 13.5h-159v-571h346v-128h-346v-521h141q148 0 246 16t164 48t124 84q173 156 173 458z" />
    <glyph glyph-name="dcroat" unicode="&#x111;" horiz-adv-x="1343" 
d="M1293 1338h-142v-1338h-188v102h-16q-66 -59 -153 -89.5t-191 -30.5q-154 0 -266 67.5t-172 196.5t-60 309q0 181 60 310t170 196.5t259 67.5q215 0 353 -130h16v339h-375v128h375v104h188v-104h142v-128zM815 191q78 50 120.5 143.5t42.5 220.5q0 126 -42 219.5
t-120 144t-183 50.5q-102 0 -178.5 -47.5t-118.5 -140.5t-42 -226q0 -134 42.5 -227t118.5 -140t178 -47q104 0 182 50z" />
    <glyph glyph-name="Emacron" unicode="&#x112;" horiz-adv-x="1379" 
d="M239 1570h985v-175h-789v-521h714v-173h-714v-526h835v-175h-1031v1570zM426 1903h612v-114h-612v114z" />
    <glyph glyph-name="emacron" unicode="&#x113;" horiz-adv-x="1199" 
d="M1103 543.5q-3 -29.5 -6 -45.5h-801q5 -108 45.5 -188.5t114.5 -124.5t177 -44q96 0 167.5 32.5t137.5 113.5l132 -116q-95 -99 -199.5 -144t-240.5 -45q-169 0 -289.5 75.5t-181.5 205t-61 288.5q0 157 59 288.5t175.5 210.5t279.5 79q175 0 285.5 -80t159.5 -200
t49 -248q0 -28 -3 -57.5zM456 927q-68 -42 -108 -113t-49 -156h617l-1 22q-12 138 -89.5 213.5t-211.5 75.5q-90 0 -158 -42zM294 1443h612v-114h-612v114z" />
    <glyph glyph-name="Edotaccent" unicode="&#x116;" horiz-adv-x="1379" 
d="M239 1570h985v-175h-789v-521h714v-173h-714v-526h835v-175h-1031v1570zM668 1726.5q-30 17.5 -47 48t-17 66.5q0 53 37.5 90.5t91.5 37.5q35 0 65 -17t47.5 -46.5t17.5 -64.5q0 -36 -17.5 -66t-47.5 -48t-65 -18t-65 17.5z" />
    <glyph glyph-name="edotaccent" unicode="&#x117;" horiz-adv-x="1199" 
d="M1103 543.5q-3 -29.5 -6 -45.5h-801q5 -108 45.5 -188.5t114.5 -124.5t177 -44q96 0 167.5 32.5t137.5 113.5l132 -116q-95 -99 -199.5 -144t-240.5 -45q-169 0 -289.5 75.5t-181.5 205t-61 288.5q0 157 59 288.5t175.5 210.5t279.5 79q175 0 285.5 -80t159.5 -200
t49 -248q0 -28 -3 -57.5zM456 927q-68 -42 -108 -113t-49 -156h617l-1 22q-12 138 -89.5 213.5t-211.5 75.5q-90 0 -158 -42zM509.5 1370.5q-37.5 37.5 -37.5 92.5q0 35 17 65t47 47.5t65 17.5t65 -17.5t47.5 -47.5t17.5 -65q0 -36 -17.5 -65.5t-47.5 -47t-65 -17.5
q-54 0 -91.5 37.5z" />
    <glyph glyph-name="Eogonek" unicode="&#x118;" horiz-adv-x="1379" 
d="M239 1570h985v-175h-789v-521h714v-173h-714v-526h835v-175h-1031v1570zM1030 -426q-83 52 -83 140q0 66 49.5 141t141.5 145h132q-84 -56 -129.5 -120t-45.5 -119q0 -56 44.5 -88t130.5 -32v-119q-157 0 -240 52z" />
    <glyph glyph-name="eogonek" unicode="&#x119;" horiz-adv-x="1199" 
d="M1103 543.5q-3 -29.5 -6 -45.5h-801q5 -108 45.5 -188.5t114.5 -124.5t177 -44q96 0 167.5 32.5t137.5 113.5l132 -116q-60 -63 -122 -103h1q-84 -56 -129.5 -120t-45.5 -119q0 -56 44.5 -88t130.5 -32v-119q-157 0 -240 52t-83 140q0 47 26 100t76 106q-46 -6 -98 -6
q-169 0 -289.5 75.5t-181.5 205t-61 288.5q0 157 59 288.5t175.5 210.5t279.5 79q175 0 285.5 -80t159.5 -200t49 -248q0 -28 -3 -57.5zM456 927q-68 -42 -108 -113t-49 -156h617l-1 22q-12 138 -89.5 213.5t-211.5 75.5q-90 0 -158 -42z" />
    <glyph glyph-name="Ecaron" unicode="&#x11a;" horiz-adv-x="1379" 
d="M239 1570h985v-175h-789v-521h714v-173h-714v-526h835v-175h-1031v1570zM392 2030h152l189 -180l189 180h152l-341 -350z" />
    <glyph glyph-name="ecaron" unicode="&#x11b;" horiz-adv-x="1199" 
d="M1103 543.5q-3 -29.5 -6 -45.5h-801q5 -108 45.5 -188.5t114.5 -124.5t177 -44q96 0 167.5 32.5t137.5 113.5l132 -116q-95 -99 -199.5 -144t-240.5 -45q-169 0 -289.5 75.5t-181.5 205t-61 288.5q0 157 59 288.5t175.5 210.5t279.5 79q175 0 285.5 -80t159.5 -200
t49 -248q0 -28 -3 -57.5zM456 927q-68 -42 -108 -113t-49 -156h617l-1 22q-12 138 -89.5 213.5t-211.5 75.5q-90 0 -158 -42zM260 1570h152l189 -180l189 180h152l-341 -350z" />
    <glyph glyph-name="Gbreve" unicode="&#x11e;" horiz-adv-x="1718" 
d="M1538 821v-821h-177v171h-16q-74 -84 -201 -136.5t-293 -52.5q-219 0 -380 97t-247.5 279.5t-86.5 431.5q0 248 86.5 427.5t249.5 275t389 95.5q248 0 415.5 -112t244.5 -325l-182 -70q-58 165 -178 249.5t-300 84.5q-166 0 -285 -74.5t-182 -215t-63 -335.5
q0 -191 62.5 -334t185 -222t298.5 -79q156 0 263.5 60.5t162 171t57.5 262.5h-430v172h607zM601.5 1800.5q-85.5 82.5 -85.5 229.5h134q0 -101 54.5 -149.5t152.5 -48.5q100 0 154 49.5t54 148.5h136q0 -150 -88 -231t-256 -81q-170 0 -255.5 82.5z" />
    <glyph glyph-name="gbreve" unicode="&#x11f;" horiz-adv-x="1201" 
d="M1102 3.5q22 -45.5 22 -99.5q0 -100 -37.5 -173t-108.5 -118q-133 -89 -370 -89q-242 0 -385 85q-70 41 -105.5 106.5t-35.5 147.5q0 37 9 78l143 105v10q-15 10 -27 21q-84 78 -84 194q0 123 95 236q-50 92 -50 210q0 123 56 216.5t153.5 144.5t218.5 51
q81 0 150.5 -22.5t123.5 -64.5l170 148l98 -123l-170 -143q51 -96 51 -219q0 -128 -55 -218.5t-150.5 -137t-215.5 -46.5q-80 0 -149.5 21t-123.5 61q-38 -49 -38 -98q0 -59 43 -96q46 -36 152 -36h278q111 0 173 -18t107 -55q40 -33 62 -78.5zM420 901q-65 -68 -65 -189
q0 -118 65 -184t178 -66q112 0 175.5 66t63.5 184q0 121 -64 189t-175 68q-113 0 -178 -68zM918 -199.5q17 31.5 17 78.5q0 58 -36 85q-38 31 -130 31h-280q-60 0 -111 9l-109 -97q-5 -23 -5 -41q0 -83 57 -125q42 -33 113.5 -45t175.5 -12q77 0 144.5 15.5t112.5 45.5
q34 24 51 55.5zM342.5 1340.5q-85.5 82.5 -85.5 229.5h134q0 -101 54.5 -149.5t152.5 -48.5q100 0 154 49.5t54 148.5h136q0 -150 -88 -231t-256 -81q-170 0 -255.5 82.5z" />
    <glyph glyph-name="Gdotaccent" unicode="&#x120;" horiz-adv-x="1718" 
d="M1538 821v-821h-177v171h-16q-74 -84 -201 -136.5t-293 -52.5q-219 0 -380 97t-247.5 279.5t-86.5 431.5q0 248 86.5 427.5t249.5 275t389 95.5q248 0 415.5 -112t244.5 -325l-182 -70q-58 165 -178 249.5t-300 84.5q-166 0 -285 -74.5t-182 -215t-63 -335.5
q0 -191 62.5 -334t185 -222t298.5 -79q156 0 263.5 60.5t162 171t57.5 262.5h-430v172h607zM795 1726.5q-30 17.5 -47 48t-17 66.5q0 53 37.5 90.5t91.5 37.5q35 0 65 -17t47.5 -46.5t17.5 -64.5q0 -36 -17.5 -66t-47.5 -48t-65 -18t-65 17.5z" />
    <glyph glyph-name="gdotaccent" unicode="&#x121;" horiz-adv-x="1201" 
d="M1102 3.5q22 -45.5 22 -99.5q0 -100 -37.5 -173t-108.5 -118q-133 -89 -370 -89q-242 0 -385 85q-70 41 -105.5 106.5t-35.5 147.5q0 37 9 78l143 105v10q-15 10 -27 21q-84 78 -84 194q0 123 95 236q-50 92 -50 210q0 123 56 216.5t153.5 144.5t218.5 51
q81 0 150.5 -22.5t123.5 -64.5l170 148l98 -123l-170 -143q51 -96 51 -219q0 -128 -55 -218.5t-150.5 -137t-215.5 -46.5q-80 0 -149.5 21t-123.5 61q-38 -49 -38 -98q0 -59 43 -96q46 -36 152 -36h278q111 0 173 -18t107 -55q40 -33 62 -78.5zM420 901q-65 -68 -65 -189
q0 -118 65 -184t178 -66q112 0 175.5 66t63.5 184q0 121 -64 189t-175 68q-113 0 -178 -68zM918 -199.5q17 31.5 17 78.5q0 58 -36 85q-38 31 -130 31h-280q-60 0 -111 9l-109 -97q-5 -23 -5 -41q0 -83 57 -125q42 -33 113.5 -45t175.5 -12q77 0 144.5 15.5t112.5 45.5
q34 24 51 55.5zM509.5 1370.5q-37.5 37.5 -37.5 92.5q0 35 17 65t47 47.5t65 17.5t65 -17.5t47.5 -47.5t17.5 -65q0 -36 -17.5 -65.5t-47.5 -47t-65 -17.5q-54 0 -91.5 37.5z" />
    <glyph glyph-name="uni0122" unicode="&#x122;" horiz-adv-x="1718" 
d="M1538 821v-821h-177v171h-16q-74 -84 -201 -136.5t-293 -52.5q-219 0 -380 97t-247.5 279.5t-86.5 431.5q0 248 86.5 427.5t249.5 275t389 95.5q248 0 415.5 -112t244.5 -325l-182 -70q-58 165 -178 249.5t-300 84.5q-166 0 -285 -74.5t-182 -215t-63 -335.5
q0 -191 62.5 -334t185 -222t298.5 -79q156 0 263.5 60.5t162 171t57.5 262.5h-430v172h607zM977 -156q44 -56 44 -135q0 -61 -26.5 -128.5t-85 -124.5t-147.5 -82l-43 100q58 14 101.5 44.5t66.5 69t23 75.5q0 12 -1 18q-38 -27 -83 -27q-35 0 -65 17t-47.5 46t-17.5 62
q0 52 41.5 86.5t101.5 34.5q94 0 138 -56z" />
    <glyph glyph-name="uni0123" unicode="&#x123;" horiz-adv-x="1201" 
d="M1102 3.5q22 -45.5 22 -99.5q0 -100 -37.5 -173t-108.5 -118q-133 -89 -370 -89q-242 0 -385 85q-70 41 -105.5 106.5t-35.5 147.5q0 37 9 78l143 105v10q-15 10 -27 21q-84 78 -84 194q0 123 95 236q-50 92 -50 210q0 123 56 216.5t153.5 144.5t218.5 51
q81 0 150.5 -22.5t123.5 -64.5l170 148l98 -123l-170 -143q51 -96 51 -219q0 -128 -55 -218.5t-150.5 -137t-215.5 -46.5q-80 0 -149.5 21t-123.5 61q-38 -49 -38 -98q0 -59 43 -96q46 -36 152 -36h278q111 0 173 -18t107 -55q40 -33 62 -78.5zM420 901q-65 -68 -65 -189
q0 -118 65 -184t178 -66q112 0 175.5 66t63.5 184q0 121 -64 189t-175 68q-113 0 -178 -68zM918 -199.5q17 31.5 17 78.5q0 58 -36 85q-38 31 -130 31h-280q-60 0 -111 9l-109 -97q-5 -23 -5 -41q0 -83 57 -125q42 -33 113.5 -45t175.5 -12q77 0 144.5 15.5t112.5 45.5
q34 24 51 55.5zM661 1432q30 -15 47.5 -40.5t17.5 -55.5q0 -46 -41 -77.5t-100 -31.5q-95 0 -139.5 50t-44.5 121q0 54 26.5 115t85 112t147.5 73l43 -90q-58 -13 -101.5 -40t-66.5 -61.5t-23 -67.5q0 -11 1 -16q38 24 83 24q35 0 65 -15z" />
    <glyph glyph-name="Hbar" unicode="&#x126;" horiz-adv-x="1661" 
d="M1565 1144h-143v-1144h-195v701h-792v-701h-196v1144h-119v113h119v313h196v-313h792v313h195v-313h143v-113zM1227 1144h-792v-268h792v268z" />
    <glyph glyph-name="hbar" unicode="&#x127;" horiz-adv-x="1277" 
d="M1081.5 901q31.5 -90 31.5 -239v-662h-189v621q0 119 -18 183t-57 102q-66 63 -191 63q-135 0 -205 -82q-40 -44 -56.5 -108.5t-16.5 -173.5v-605h-189l2 1304h-183v128h183v138h189v-138h333v-128h-334l-1 -294h16q49 50 133.5 84.5t189.5 34.5q163 0 264 -82
q67 -56 98.5 -146z" />
    <glyph glyph-name="Itilde" unicode="&#x128;" horiz-adv-x="674" 
d="M239 1570h196v-1570h-196v1570zM406 1749.5q-35 15.5 -58.5 38t-51.5 57.5q-33 40 -55 58t-54 18q-48 0 -74 -45t-26 -126h-112q0 137 58 213t158 76q44 0 77 -15t55.5 -36.5t51.5 -55.5q36 -41 58.5 -59t55.5 -18q42 0 68 47t26 128h116q0 -91 -25.5 -158t-73 -102.5
t-111.5 -35.5q-48 0 -83 15.5z" />
    <glyph glyph-name="itilde" unicode="&#x129;" horiz-adv-x="567" 
d="M189 1110h189v-1110h-189v1110zM353 1289.5q-35 15.5 -58.5 38t-51.5 57.5q-33 40 -55 58t-54 18q-48 0 -74 -45t-26 -126h-112q0 137 58 213t158 76q44 0 77 -15t55.5 -36.5t51.5 -55.5q36 -41 58.5 -59t55.5 -18q42 0 68 47t26 128h116q0 -91 -25.5 -158t-73 -102.5
t-111.5 -35.5q-48 0 -83 15.5z" />
    <glyph glyph-name="Imacron" unicode="&#x12a;" horiz-adv-x="674" 
d="M239 1570h196v-1570h-196v1570zM30 1903h612v-114h-612v114z" />
    <glyph glyph-name="imacron" unicode="&#x12b;" horiz-adv-x="567" 
d="M189 1110h189v-1110h-189v1110zM-23 1443h612v-114h-612v114z" />
    <glyph glyph-name="Iogonek" unicode="&#x12e;" horiz-adv-x="674" 
d="M239 1570h196v-1570h-196v1570zM195 -426q-83 52 -83 140q0 66 49.5 141t141.5 145h132q-84 -56 -129.5 -120t-45.5 -119q0 -56 44.5 -88t130.5 -32v-119q-157 0 -240 52z" />
    <glyph glyph-name="iogonek" unicode="&#x12f;" horiz-adv-x="567" 
d="M189 1110h189v-1110h-189v1110zM192.5 1370.5q-37.5 37.5 -37.5 92.5q0 35 17 65t47 47.5t65 17.5t65 -17.5t47.5 -47.5t17.5 -65q0 -36 -17.5 -65.5t-47.5 -47t-65 -17.5q-54 0 -91.5 37.5zM138 -426q-83 52 -83 140q0 66 49.5 141t141.5 145h132q-84 -56 -129.5 -120
t-45.5 -119q0 -56 44.5 -88t130.5 -32v-119q-157 0 -240 52z" />
    <glyph glyph-name="Idotaccent" unicode="&#x130;" horiz-adv-x="674" 
d="M239 1570h196v-1570h-196v1570zM272 1726.5q-30 17.5 -47 48t-17 66.5q0 53 37.5 90.5t91.5 37.5q35 0 65 -17t47.5 -46.5t17.5 -64.5q0 -36 -17.5 -66t-47.5 -48t-65 -18t-65 17.5z" />
    <glyph glyph-name="dotlessi" unicode="&#x131;" horiz-adv-x="567" 
d="M189 1110h189v-1110h-189v1110z" />
    <glyph glyph-name="IJ" unicode="&#x132;" horiz-adv-x="1976" 
d="M239 1570h196v-1570h-196v1570zM1090.5 1.5q-78.5 19.5 -136.5 57.5q-195 122 -205 401l196 27q3 -99 40.5 -171.5t102.5 -112.5q69 -48 173 -48q155 0 239 93q37 46 54 120t17 217v810h-624v175h819v-985q0 -175 -27.5 -281t-92.5 -179q-67 -72 -162.5 -107.5
t-222.5 -35.5q-92 0 -170.5 19.5z" />
    <glyph glyph-name="uni0136" unicode="&#x136;" horiz-adv-x="1561" 
d="M1495 0h-232l-503 828h-15l-310 -315v-513h-196v1570h196v-792h16l760 792h264l-583 -592zM898 -156q44 -56 44 -135q0 -61 -26.5 -128.5t-85 -124.5t-147.5 -82l-43 100q58 14 101.5 44.5t66.5 69t23 75.5q0 12 -1 18q-38 -27 -83 -27q-35 0 -65 17t-47.5 46t-17.5 62
q0 52 41.5 86.5t101.5 34.5q94 0 138 -56z" />
    <glyph glyph-name="uni0137" unicode="&#x137;" horiz-adv-x="1233" 
d="M191 1570h189v-1012h5l527 552h235l-387 -411l446 -699h-223l-362 571h-4l-237 -243v-328h-189v1570zM734 -156q44 -56 44 -135q0 -61 -26.5 -128.5t-85 -124.5t-147.5 -82l-43 100q58 14 101.5 44.5t66.5 69t23 75.5q0 12 -1 18q-38 -27 -83 -27q-35 0 -65 17t-47.5 46
t-17.5 62q0 52 41.5 86.5t101.5 34.5q94 0 138 -56z" />
    <glyph glyph-name="kgreenlandic" unicode="&#x138;" horiz-adv-x="1231" 
d="M189 1110h189v-552h4l517 552h246l-387 -411l446 -699h-223l-362 571h-5l-236 -243v-328h-189v1110z" />
    <glyph glyph-name="Lacute" unicode="&#x139;" horiz-adv-x="1197" 
d="M239 1570h196v-1395h701v-175h-897v1570zM510 2030h203l-305 -318h-141z" />
    <glyph glyph-name="lacute" unicode="&#x13a;" horiz-adv-x="610" 
d="M239 36q-32 30 -44.5 87.5t-12.5 167.5v1279h189v-1238q0 -79 4 -112t21 -52q24 -27 82 -27q40 0 75 9l27 -141q-36 -13 -81.5 -20t-86.5 -7q-116 0 -173 54zM451 2030h203l-305 -318h-141z" />
    <glyph glyph-name="uni013B" unicode="&#x13b;" horiz-adv-x="1197" 
d="M239 1570h196v-1395h701v-175h-897v1570zM715 -156q44 -56 44 -135q0 -61 -26.5 -128.5t-85 -124.5t-147.5 -82l-43 100q58 14 101.5 44.5t66.5 69t23 75.5q0 12 -1 18q-38 -27 -83 -27q-35 0 -65 17t-47.5 46t-17.5 62q0 52 41.5 86.5t101.5 34.5q94 0 138 -56z" />
    <glyph glyph-name="uni013C" unicode="&#x13c;" horiz-adv-x="610" 
d="M239 36q-32 30 -44.5 87.5t-12.5 167.5v1279h189v-1238q0 -79 4 -112t21 -52q24 -27 82 -27q40 0 75 9l27 -141q-36 -13 -81.5 -20t-86.5 -7q-116 0 -173 54zM422 -156q44 -56 44 -135q0 -61 -26.5 -128.5t-85 -124.5t-147.5 -82l-43 100q58 14 101.5 44.5t66.5 69
t23 75.5q0 12 -1 18q-38 -27 -83 -27q-35 0 -65 17t-47.5 46t-17.5 62q0 52 41.5 86.5t101.5 34.5q94 0 138 -56z" />
    <glyph glyph-name="Lcaron" unicode="&#x13d;" horiz-adv-x="1197" 
d="M239 1570h196v-1395h701v-175h-897v1570zM1094 1524q46 -67 46 -161q0 -70 -28 -145t-86.5 -137t-146.5 -91l-44 100q59 20 102.5 58.5t66 86.5t22.5 96q0 10 -2 28q-36 -28 -79 -28q-36 0 -65.5 17.5t-47 48t-17.5 66.5q0 55 38 91.5t96 36.5q99 0 145 -67z" />
    <glyph glyph-name="lcaron" unicode="&#x13e;" horiz-adv-x="610" 
d="M239 36q-32 30 -44.5 87.5t-12.5 167.5v1279h189v-1238q0 -79 4 -112t21 -52q24 -27 82 -27q40 0 75 9l27 -141q-36 -13 -81.5 -20t-86.5 -7q-116 0 -173 54zM771 1524q46 -67 46 -161q0 -70 -28 -145t-86.5 -137t-146.5 -91l-44 100q59 20 102.5 58.5t66 86.5t22.5 96
q0 10 -2 28q-36 -28 -79 -28q-36 0 -65.5 17.5t-47 48t-17.5 66.5q0 55 38 91.5t96 36.5q99 0 145 -67z" />
    <glyph glyph-name="Lslash" unicode="&#x141;" horiz-adv-x="1197" 
d="M1136 175v-175h-897v521l-137 -109v212l137 109v837h196v-682l338 268v-209l-338 -269v-503h701z" />
    <glyph glyph-name="lslash" unicode="&#x142;" horiz-adv-x="610" 
d="M580 9q-36 -13 -81.5 -20t-86.5 -7q-116 0 -173 54q-32 30 -44.5 87.5t-12.5 167.5v370l-141 -99v212l141 98v698h189v-566l198 138v-209l-198 -139v-462q0 -79 4 -112t21 -52q24 -27 82 -27q40 0 75 9z" />
    <glyph glyph-name="Nacute" unicode="&#x143;" horiz-adv-x="1661" 
d="M239 1570h291l681 -1317h16v1317h195v-1570h-293l-678 1320h-16v-1320h-196v1570zM1004 2030h203l-305 -318h-141z" />
    <glyph glyph-name="nacute" unicode="&#x144;" horiz-adv-x="1274" 
d="M189 1110h189v-100h16q49 50 133.5 84.5t189.5 34.5q163 0 264 -82q66 -56 97.5 -146t31.5 -239v-662h-188v621q0 119 -18 183t-57 102q-68 63 -192 63q-134 0 -204 -82q-40 -44 -56.5 -108.5t-16.5 -173.5v-605h-189v1110zM810 1570h203l-305 -318h-141z" />
    <glyph glyph-name="uni0145" unicode="&#x145;" horiz-adv-x="1661" 
d="M239 1570h291l681 -1317h16v1317h195v-1570h-293l-678 1320h-16v-1320h-196v1570zM948 -156q44 -56 44 -135q0 -61 -26.5 -128.5t-85 -124.5t-147.5 -82l-43 100q58 14 101.5 44.5t66.5 69t23 75.5q0 12 -1 18q-38 -27 -83 -27q-35 0 -65 17t-47.5 46t-17.5 62
q0 52 41.5 86.5t101.5 34.5q94 0 138 -56z" />
    <glyph glyph-name="uni0146" unicode="&#x146;" horiz-adv-x="1274" 
d="M189 1110h189v-100h16q49 50 133.5 84.5t189.5 34.5q163 0 264 -82q66 -56 97.5 -146t31.5 -239v-662h-188v621q0 119 -18 183t-57 102q-68 63 -192 63q-134 0 -204 -82q-40 -44 -56.5 -108.5t-16.5 -173.5v-605h-189v1110zM754 -156q44 -56 44 -135q0 -61 -26.5 -128.5
t-85 -124.5t-147.5 -82l-43 100q58 14 101.5 44.5t66.5 69t23 75.5q0 12 -1 18q-38 -27 -83 -27q-35 0 -65 17t-47.5 46t-17.5 62q0 52 41.5 86.5t101.5 34.5q94 0 138 -56z" />
    <glyph glyph-name="Ncaron" unicode="&#x147;" horiz-adv-x="1661" 
d="M239 1570h291l681 -1317h16v1317h195v-1570h-293l-678 1320h-16v-1320h-196v1570zM490 2030h152l189 -180l189 180h152l-341 -350z" />
    <glyph glyph-name="ncaron" unicode="&#x148;" horiz-adv-x="1274" 
d="M189 1110h189v-100h16q49 50 133.5 84.5t189.5 34.5q163 0 264 -82q66 -56 97.5 -146t31.5 -239v-662h-188v621q0 119 -18 183t-57 102q-68 63 -192 63q-134 0 -204 -82q-40 -44 -56.5 -108.5t-16.5 -173.5v-605h-189v1110zM296 1570h152l189 -180l189 180h152l-341 -350
z" />
    <glyph glyph-name="Eng" unicode="&#x14a;" horiz-adv-x="1641" 
d="M869 -371l3 125q64 -16 109 -16q83 0 123.5 43.5t40.5 113.5q0 45 -28 105l-678 1320h-4v-1320h-196v1570h282l680 -1317h5v1317h196v-1590q0 -105 -38.5 -188.5t-118.5 -133t-201 -49.5q-74 0 -175 20z" />
    <glyph glyph-name="eng" unicode="&#x14b;" horiz-adv-x="1274" 
d="M752.5 -471q-48.5 9 -90.5 23l30 150q42 -16 84 -16q70 0 108 41t38 125v769q0 119 -18 183t-57 102q-68 63 -192 63q-131 0 -204 -82q-38 -41 -55.5 -105.5t-17.5 -176.5v-605h-189v1110h189v-95h20q47 47 131 80.5t188 33.5q163 0 264 -82q66 -56 97.5 -146t31.5 -239
v-874q0 -140 -74 -204t-194 -64q-41 0 -89.5 9z" />
    <glyph glyph-name="Omacron" unicode="&#x14c;" horiz-adv-x="1723" 
d="M468.5 82.5q-163.5 100.5 -249 282t-85.5 420.5t85.5 420.5t249 282t391.5 100.5t392 -100.5t250 -282t86 -420.5t-86 -420.5t-250 -282t-392 -100.5t-391.5 100.5zM1149 234.5q120 79.5 182 221.5t62 329t-62 329t-182 221.5t-289 79.5q-167 0 -286.5 -79.5
t-181.5 -221.5t-62 -329t62 -329t181.5 -221.5t286.5 -79.5q169 0 289 79.5zM555 1903h612v-114h-612v114z" />
    <glyph glyph-name="omacron" unicode="&#x14d;" horiz-adv-x="1279" 
d="M354.5 52q-122.5 70 -189.5 200.5t-67 305.5t67 304t189.5 198t284.5 69t285 -69t190 -198t67 -304t-67.5 -305.5t-190 -200.5t-284.5 -70t-284.5 70zM830.5 192q79.5 51 120.5 145t41 221q0 125 -41 217.5t-120.5 143t-191.5 50.5q-113 0 -192 -50t-119.5 -142
t-40.5 -219t40.5 -221t119.5 -145t192 -51q112 0 191.5 51zM332 1443h612v-114h-612v114z" />
    <glyph glyph-name="Ohungarumlaut" unicode="&#x150;" horiz-adv-x="1723" 
d="M468.5 82.5q-163.5 100.5 -249 282t-85.5 420.5t85.5 420.5t249 282t391.5 100.5t392 -100.5t250 -282t86 -420.5t-86 -420.5t-250 -282t-392 -100.5t-391.5 100.5zM1149 234.5q120 79.5 182 221.5t62 329t-62 329t-182 221.5t-289 79.5q-167 0 -286.5 -79.5
t-181.5 -221.5t-62 -329t62 -329t181.5 -221.5t286.5 -79.5q169 0 289 79.5zM814 2030h171l-251 -318h-145zM1210 2030h202l-277 -318h-148z" />
    <glyph glyph-name="ohungarumlaut" unicode="&#x151;" horiz-adv-x="1279" 
d="M354.5 52q-122.5 70 -189.5 200.5t-67 305.5t67 304t189.5 198t284.5 69t285 -69t190 -198t67 -304t-67.5 -305.5t-190 -200.5t-284.5 -70t-284.5 70zM830.5 192q79.5 51 120.5 145t41 221q0 125 -41 217.5t-120.5 143t-191.5 50.5q-113 0 -192 -50t-119.5 -142
t-40.5 -219t40.5 -221t119.5 -145t192 -51q112 0 191.5 51zM591 1570h171l-251 -318h-145zM987 1570h202l-277 -318h-148z" />
    <glyph glyph-name="OE" unicode="&#x152;" horiz-adv-x="2540" 
d="M2431 175v-175h-1031v207q-95 -109 -231.5 -167t-308.5 -58q-228 0 -391.5 100.5t-249 282t-85.5 420.5t85.5 420.5t249 282t391.5 100.5q172 0 308.5 -58t231.5 -167v207h985v-175h-789v-521h714v-173h-714v-526h835zM1149 234.5q120 79.5 182 221.5t62 329t-62 329
t-182 221.5t-289 79.5q-167 0 -286.5 -79.5t-181.5 -221.5t-62 -329t62 -329t181.5 -221.5t286.5 -79.5q169 0 289 79.5z" />
    <glyph glyph-name="oe" unicode="&#x153;" horiz-adv-x="2091" 
d="M1995 543.5q-3 -29.5 -6 -45.5h-801q5 -108 45.5 -188.5t114.5 -124.5t177 -44q96 0 167.5 32.5t137.5 113.5l132 -116q-95 -99 -199.5 -144t-240.5 -45q-148 0 -258.5 58.5t-178.5 162.5q-71 -106 -185.5 -163.5t-260.5 -57.5q-162 0 -284.5 70t-189.5 200.5t-67 305.5
t67 304t189.5 198t284.5 69q147 0 262 -57.5t186 -163.5q66 104 171.5 162.5t245.5 58.5q175 0 285.5 -80t159.5 -200t49 -248q0 -28 -3 -57.5zM889 241q91 100 102 275q-1 11 -1 35q0 28 1 42q-8 175 -100 275.5t-252 100.5q-113 0 -192 -50t-119.5 -142t-40.5 -219
t40.5 -221t119.5 -145t192 -51q159 0 250 100zM1348 927q-68 -42 -108 -113t-49 -156h617l-1 22q-12 138 -89.5 213.5t-211.5 75.5q-90 0 -158 -42z" />
    <glyph glyph-name="Racute" unicode="&#x154;" horiz-adv-x="1424" 
d="M1117 0l-406 678q-54 -2 -87 -2h-189v-676h-196v1570h385q197 0 302 -27t171 -84q132 -116 132 -335q0 -107 -31.5 -190t-91.5 -140q-35 -32 -79 -55t-105 -37v-19l427 -683h-232zM776.5 856.5q69.5 7.5 114 26t76.5 52.5q66 69 66 191q0 123 -68 194q-32 29 -75.5 45
t-113.5 23t-184 7h-157v-546h157q115 0 184.5 7.5zM885 2030h203l-305 -318h-141z" />
    <glyph glyph-name="racute" unicode="&#x155;" horiz-adv-x="794" 
d="M189 1110h175l14 -100h18q55 62 120.5 90.5t150.5 28.5q36 0 95 -7v-196h-11q-72 25 -127 25q-54 0 -96.5 -15t-79.5 -55q-39 -42 -54.5 -122t-15.5 -229v-530h-189v1110zM569 1570h203l-305 -318h-141z" />
    <glyph glyph-name="uni0156" unicode="&#x156;" horiz-adv-x="1424" 
d="M1117 0l-406 678q-54 -2 -87 -2h-189v-676h-196v1570h385q197 0 302 -27t171 -84q132 -116 132 -335q0 -107 -31.5 -190t-91.5 -140q-35 -32 -79 -55t-105 -37v-19l427 -683h-232zM776.5 856.5q69.5 7.5 114 26t76.5 52.5q66 69 66 191q0 123 -68 194q-32 29 -75.5 45
t-113.5 23t-184 7h-157v-546h157q115 0 184.5 7.5zM829 -156q44 -56 44 -135q0 -61 -26.5 -128.5t-85 -124.5t-147.5 -82l-43 100q58 14 101.5 44.5t66.5 69t23 75.5q0 12 -1 18q-38 -27 -83 -27q-35 0 -65 17t-47.5 46t-17.5 62q0 52 41.5 86.5t101.5 34.5q94 0 138 -56z
" />
    <glyph glyph-name="uni0157" unicode="&#x157;" horiz-adv-x="794" 
d="M189 1110h175l14 -100h18q55 62 120.5 90.5t150.5 28.5q36 0 95 -7v-196h-11q-72 25 -127 25q-54 0 -96.5 -15t-79.5 -55q-39 -42 -54.5 -122t-15.5 -229v-530h-189v1110zM513 -156q44 -56 44 -135q0 -61 -26.5 -128.5t-85 -124.5t-147.5 -82l-43 100q58 14 101.5 44.5
t66.5 69t23 75.5q0 12 -1 18q-38 -27 -83 -27q-35 0 -65 17t-47.5 46t-17.5 62q0 52 41.5 86.5t101.5 34.5q94 0 138 -56z" />
    <glyph glyph-name="Rcaron" unicode="&#x158;" horiz-adv-x="1424" 
d="M1117 0l-406 678q-54 -2 -87 -2h-189v-676h-196v1570h385q197 0 302 -27t171 -84q132 -116 132 -335q0 -107 -31.5 -190t-91.5 -140q-35 -32 -79 -55t-105 -37v-19l427 -683h-232zM776.5 856.5q69.5 7.5 114 26t76.5 52.5q66 69 66 191q0 123 -68 194q-32 29 -75.5 45
t-113.5 23t-184 7h-157v-546h157q115 0 184.5 7.5zM371 2030h152l189 -180l189 180h152l-341 -350z" />
    <glyph glyph-name="rcaron" unicode="&#x159;" horiz-adv-x="794" 
d="M189 1110h175l14 -100h18q55 62 120.5 90.5t150.5 28.5q36 0 95 -7v-196h-11q-72 25 -127 25q-54 0 -96.5 -15t-79.5 -55q-39 -42 -54.5 -122t-15.5 -229v-530h-189v1110zM55 1570h152l189 -180l189 180h152l-341 -350z" />
    <glyph glyph-name="Sacute" unicode="&#x15a;" horiz-adv-x="1272" 
d="M397 35q-119 51 -198.5 150.5t-102.5 240.5l193 47q20 -153 118 -233.5t248 -80.5q97 0 167.5 35t107.5 96t37 138q0 90 -48.5 150t-119.5 96.5t-194 83.5q-138 53 -221.5 97.5t-141.5 123t-58 200.5q0 125 61 217.5t165.5 142t231.5 49.5q149 0 265.5 -63.5
t191.5 -195.5l-161 -100q-104 186 -301 186q-72 0 -130.5 -29.5t-92.5 -81.5t-34 -118q0 -73 43 -122t107.5 -80.5t177.5 -72.5q146 -54 236.5 -102t154.5 -137t64 -228q0 -136 -63.5 -240.5t-178 -162t-263.5 -57.5q-142 0 -261 51zM810 2030h203l-305 -318h-141z" />
    <glyph glyph-name="sacute" unicode="&#x15b;" horiz-adv-x="1033" 
d="M344.5 20.5q-95.5 38.5 -163.5 109t-97 164.5l173 61q30 -105 107 -159.5t187 -54.5q200 0 200 162q0 84 -68 129q-27 18 -70.5 30.5t-117.5 29.5q-69 14 -118.5 27.5t-89.5 33.5q-82 39 -124 103.5t-42 151.5q0 95 47.5 167.5t133 113t196.5 40.5q146 0 251.5 -68.5
t151.5 -191.5l-164 -73q-28 89 -87.5 131t-153.5 42q-86 0 -136.5 -37t-50.5 -99q0 -36 15.5 -61.5t44.5 -45.5q27 -17 66 -28t110 -26q85 -18 143 -35t108 -45q69 -39 107.5 -103t38.5 -164q0 -101 -48.5 -179t-137 -121t-205.5 -43q-111 0 -206.5 38.5zM680 1570h203
l-305 -318h-141z" />
    <glyph glyph-name="Scedilla" unicode="&#x15e;" horiz-adv-x="1272" 
d="M1102 207q-61 -103 -172 -161.5t-255 -61.5l-70 -105q35 -3 57 -13q54 -19 84 -60t30 -97q0 -53 -27.5 -95.5t-76 -67t-108.5 -24.5q-52 0 -104.5 19t-100.5 59l53 86q37 -35 78 -51.5t79 -16.5q50 0 79.5 26t29.5 65q0 32 -21 55.5t-61 35.5q-40 13 -121 13l105 175
q-124 13 -226 67.5t-169.5 148.5t-88.5 222l193 47q20 -153 118 -233.5t248 -80.5q97 0 167.5 35t107.5 96t37 138q0 90 -48.5 150t-119.5 96.5t-194 83.5q-138 53 -221.5 97.5t-141.5 123t-58 200.5q0 125 61 217.5t165.5 142t231.5 49.5q149 0 265.5 -63.5t191.5 -195.5
l-161 -100q-104 186 -301 186q-72 0 -130.5 -29.5t-92.5 -81.5t-34 -118q0 -73 43 -122t107.5 -80.5t177.5 -72.5q146 -54 236.5 -102t154.5 -137t64 -228q0 -134 -61 -237z" />
    <glyph glyph-name="scedilla" unicode="&#x15f;" horiz-adv-x="1033" 
d="M546 -18l-68 -103q35 -3 57 -13q54 -19 84 -60t30 -97q0 -53 -27.5 -95.5t-76 -67t-108.5 -24.5q-52 0 -104.5 19t-100.5 59l53 86q37 -35 78 -51.5t79 -16.5q50 0 79.5 26t29.5 65q0 32 -21 55.5t-61 35.5q-40 13 -121 13l106 177q-135 23 -234 103.5t-136 200.5l173 61
q30 -105 107 -159.5t187 -54.5q200 0 200 162q0 84 -68 129q-27 18 -70.5 30.5t-117.5 29.5q-69 14 -118.5 27.5t-89.5 33.5q-82 39 -124 103.5t-42 151.5q0 95 47.5 167.5t133 113t196.5 40.5q146 0 251.5 -68.5t151.5 -191.5l-164 -73q-28 89 -87.5 131t-153.5 42
q-86 0 -136.5 -37t-50.5 -99q0 -36 15.5 -61.5t44.5 -45.5q27 -17 66 -28t110 -26q85 -18 143 -35t108 -45q69 -39 107.5 -103t38.5 -164q0 -101 -48.5 -179t-137 -121t-205.5 -43h-5z" />
    <glyph glyph-name="Scaron" unicode="&#x160;" horiz-adv-x="1272" 
d="M397 35q-119 51 -198.5 150.5t-102.5 240.5l193 47q20 -153 118 -233.5t248 -80.5q97 0 167.5 35t107.5 96t37 138q0 90 -48.5 150t-119.5 96.5t-194 83.5q-138 53 -221.5 97.5t-141.5 123t-58 200.5q0 125 61 217.5t165.5 142t231.5 49.5q149 0 265.5 -63.5
t191.5 -195.5l-161 -100q-104 186 -301 186q-72 0 -130.5 -29.5t-92.5 -81.5t-34 -118q0 -73 43 -122t107.5 -80.5t177.5 -72.5q146 -54 236.5 -102t154.5 -137t64 -228q0 -136 -63.5 -240.5t-178 -162t-263.5 -57.5q-142 0 -261 51zM296 2030h152l189 -180l189 180h152
l-341 -350z" />
    <glyph glyph-name="scaron" unicode="&#x161;" horiz-adv-x="1033" 
d="M344.5 20.5q-95.5 38.5 -163.5 109t-97 164.5l173 61q30 -105 107 -159.5t187 -54.5q200 0 200 162q0 84 -68 129q-27 18 -70.5 30.5t-117.5 29.5q-69 14 -118.5 27.5t-89.5 33.5q-82 39 -124 103.5t-42 151.5q0 95 47.5 167.5t133 113t196.5 40.5q146 0 251.5 -68.5
t151.5 -191.5l-164 -73q-28 89 -87.5 131t-153.5 42q-86 0 -136.5 -37t-50.5 -99q0 -36 15.5 -61.5t44.5 -45.5q27 -17 66 -28t110 -26q85 -18 143 -35t108 -45q69 -39 107.5 -103t38.5 -164q0 -101 -48.5 -179t-137 -121t-205.5 -43q-111 0 -206.5 38.5zM166 1570h152
l189 -180l189 180h152l-341 -350z" />
    <glyph glyph-name="uni0162" unicode="&#x162;" horiz-adv-x="1377" 
d="M592 1395h-531v175h1254v-175h-528v-1395h-195v1395zM511.5 -459q-52.5 19 -100.5 59l53 86q37 -35 78 -51.5t79 -16.5q50 0 79.5 26t29.5 65q0 32 -21 55.5t-61 35.5q-40 13 -121 13l112 187h98l-80 -121q35 -3 57 -13q54 -19 84 -60t30 -97q0 -53 -27.5 -95.5t-76 -67
t-108.5 -24.5q-52 0 -104.5 19z" />
    <glyph glyph-name="uni0163" unicode="&#x163;" horiz-adv-x="778" 
d="M589 -194q30 -41 30 -97q0 -53 -27.5 -95.5t-76 -67t-108.5 -24.5q-52 0 -104.5 19t-100.5 59l53 86q37 -35 78 -51.5t79 -16.5q50 0 79.5 26t29.5 65q0 32 -21 55.5t-61 35.5q-40 13 -121 13l111 186q-102 32 -151.5 117t-49.5 193v642h-182v159h184v294l186 137v-431
h269v-159h-269v-616q0 -194 162 -194q52 0 100 16l32 -152q-29 -10 -73.5 -16.5t-90.5 -6.5q-20 0 -29 1l-69 -104q35 -3 57 -13q54 -19 84 -60z" />
    <glyph glyph-name="Tcaron" unicode="&#x164;" horiz-adv-x="1377" 
d="M592 1395h-531v175h1254v-175h-528v-1395h-195v1395zM348 2030h152l189 -180l189 180h152l-341 -350z" />
    <glyph glyph-name="tcaron" unicode="&#x165;" horiz-adv-x="778" 
d="M364.5 28q-71.5 46 -104 120t-32.5 161v642h-182v159h184v294l186 137v-431h269v-159h-269v-616q0 -194 162 -194q52 0 100 16l32 -152q-29 -10 -73.5 -16.5t-90.5 -6.5q-110 0 -181.5 46zM842 1788q46 -67 46 -161q0 -70 -28 -145t-86.5 -137t-146.5 -91l-44 100
q59 20 102.5 58.5t66 86.5t22.5 96q0 10 -2 28q-36 -28 -79 -28q-36 0 -65.5 17.5t-47 48t-17.5 66.5q0 55 38 91.5t96 36.5q99 0 145 -67z" />
    <glyph glyph-name="Tbar" unicode="&#x166;" horiz-adv-x="1377" 
d="M787 1395v-546h255v-128h-255v-721h-195v721h-255v128h255v546h-531v175h1254v-175h-528z" />
    <glyph glyph-name="tbar" unicode="&#x167;" horiz-adv-x="778" 
d="M416 491v-156q0 -194 162 -194q52 0 100 16l32 -152q-29 -10 -73.5 -16.5t-90.5 -6.5q-110 0 -181.5 46t-104 120t-32.5 161v182h-191v128h191v332h-182v159h184v294l186 137v-431h269v-159h-269v-332h326v-128h-326z" />
    <glyph glyph-name="Utilde" unicode="&#x168;" horiz-adv-x="1566" 
d="M530.5 20.5q-110.5 38.5 -184.5 111.5q-71 71 -105 175.5t-34 270.5v992h196v-985q0 -114 18.5 -188t67.5 -128q48 -54 122.5 -84t171.5 -30q98 0 172.5 29.5t123.5 84.5q45 51 64.5 121.5t19.5 194.5v985h196v-992q0 -166 -32.5 -269t-106.5 -177q-73 -73 -183.5 -111.5
t-253.5 -38.5q-142 0 -252.5 38.5zM854 1749.5q-35 15.5 -58.5 38t-51.5 57.5q-33 40 -55 58t-54 18q-48 0 -74 -45t-26 -126h-112q0 137 58 213t158 76q44 0 77 -15t55.5 -36.5t51.5 -55.5q36 -41 58.5 -59t55.5 -18q42 0 68 47t26 128h116q0 -91 -25.5 -158t-73 -102.5
t-111.5 -35.5q-48 0 -83 15.5z" />
    <glyph glyph-name="utilde" unicode="&#x169;" horiz-adv-x="1272" 
d="M291 64q-66 56 -97.5 146t-31.5 238v662h188v-621q0 -119 18 -183t58 -101q67 -64 191 -64q133 0 204 82q40 44 56.5 108.5t16.5 173.5v605h189v-1110h-189v100h-16q-50 -50 -134 -84t-189 -34q-165 0 -264 82zM704 1289.5q-35 15.5 -58.5 38t-51.5 57.5q-33 40 -55 58
t-54 18q-48 0 -74 -45t-26 -126h-112q0 137 58 213t158 76q44 0 77 -15t55.5 -36.5t51.5 -55.5q36 -41 58.5 -59t55.5 -18q42 0 68 47t26 128h116q0 -91 -25.5 -158t-73 -102.5t-111.5 -35.5q-48 0 -83 15.5z" />
    <glyph glyph-name="Umacron" unicode="&#x16a;" horiz-adv-x="1566" 
d="M530.5 20.5q-110.5 38.5 -184.5 111.5q-71 71 -105 175.5t-34 270.5v992h196v-985q0 -114 18.5 -188t67.5 -128q48 -54 122.5 -84t171.5 -30q98 0 172.5 29.5t123.5 84.5q45 51 64.5 121.5t19.5 194.5v985h196v-992q0 -166 -32.5 -269t-106.5 -177q-73 -73 -183.5 -111.5
t-253.5 -38.5q-142 0 -252.5 38.5zM478 1903h612v-114h-612v114z" />
    <glyph glyph-name="umacron" unicode="&#x16b;" horiz-adv-x="1272" 
d="M291 64q-66 56 -97.5 146t-31.5 238v662h188v-621q0 -119 18 -183t58 -101q67 -64 191 -64q133 0 204 82q40 44 56.5 108.5t16.5 173.5v605h189v-1110h-189v100h-16q-50 -50 -134 -84t-189 -34q-165 0 -264 82zM328 1443h612v-114h-612v114z" />
    <glyph glyph-name="Uring" unicode="&#x16e;" horiz-adv-x="1566" 
d="M530.5 20.5q-110.5 38.5 -184.5 111.5q-71 71 -105 175.5t-34 270.5v992h196v-985q0 -114 18.5 -188t67.5 -128q48 -54 122.5 -84t171.5 -30q98 0 172.5 29.5t123.5 84.5q45 51 64.5 121.5t19.5 194.5v985h196v-992q0 -166 -32.5 -269t-106.5 -177q-73 -73 -183.5 -111.5
t-253.5 -38.5q-142 0 -252.5 38.5zM668.5 1697q-52.5 31 -83 84t-30.5 115t31 115t84 84t115 31q61 0 114 -31t84.5 -84t31.5 -115q0 -63 -31 -115.5t-83.5 -83.5t-115.5 -31q-64 0 -116.5 31zM874 1807q36 36 36 91q0 52 -35 87.5t-90 35.5q-54 0 -89.5 -35.5t-35.5 -87.5
q0 -55 36 -91t89 -36t89 36z" />
    <glyph glyph-name="uring" unicode="&#x16f;" horiz-adv-x="1272" 
d="M291 64q-66 56 -97.5 146t-31.5 238v662h188v-621q0 -119 18 -183t58 -101q67 -64 191 -64q133 0 204 82q40 44 56.5 108.5t16.5 173.5v605h189v-1110h-189v100h-16q-50 -50 -134 -84t-189 -34q-165 0 -264 82zM518.5 1237q-52.5 31 -83 84t-30.5 115t31 115t84 84
t115 31q61 0 114 -31t84.5 -84t31.5 -115q0 -63 -31 -115.5t-83.5 -83.5t-115.5 -31q-64 0 -116.5 31zM724 1347q36 36 36 91q0 52 -35 87.5t-90 35.5q-54 0 -89.5 -35.5t-35.5 -87.5q0 -55 36 -91t89 -36t89 36z" />
    <glyph glyph-name="Uhungarumlaut" unicode="&#x170;" horiz-adv-x="1566" 
d="M530.5 20.5q-110.5 38.5 -184.5 111.5q-71 71 -105 175.5t-34 270.5v992h196v-985q0 -114 18.5 -188t67.5 -128q48 -54 122.5 -84t171.5 -30q98 0 172.5 29.5t123.5 84.5q45 51 64.5 121.5t19.5 194.5v985h196v-992q0 -166 -32.5 -269t-106.5 -177q-73 -73 -183.5 -111.5
t-253.5 -38.5q-142 0 -252.5 38.5zM737 2030h171l-251 -318h-145zM1133 2030h202l-277 -318h-148z" />
    <glyph glyph-name="uhungarumlaut" unicode="&#x171;" horiz-adv-x="1272" 
d="M291 64q-66 56 -97.5 146t-31.5 238v662h188v-621q0 -119 18 -183t58 -101q67 -64 191 -64q133 0 204 82q40 44 56.5 108.5t16.5 173.5v605h189v-1110h-189v100h-16q-50 -50 -134 -84t-189 -34q-165 0 -264 82zM587 1570h171l-251 -318h-145zM983 1570h202l-277 -318
h-148z" />
    <glyph glyph-name="Uogonek" unicode="&#x172;" horiz-adv-x="1566" 
d="M1359 1570v-992q0 -166 -32.5 -269t-106.5 -177q-60 -60 -145 -96q-83 -56 -128.5 -120t-45.5 -119q0 -56 44.5 -88t130.5 -32v-119q-157 0 -240 52t-83 140q0 54 34 115.5t99 122.5q-49 -6 -103 -6q-142 0 -252.5 38.5t-184.5 111.5q-71 71 -105 175.5t-34 270.5v992
h196v-985q0 -114 18.5 -188t67.5 -128q48 -54 122.5 -84t171.5 -30q98 0 172.5 29.5t123.5 84.5q45 51 64.5 121.5t19.5 194.5v985h196z" />
    <glyph glyph-name="uogonek" unicode="&#x173;" horiz-adv-x="1272" 
d="M953.5 -120q-45.5 -64 -45.5 -119q0 -56 44.5 -88t130.5 -32v-119q-157 0 -240 52t-83 140q0 66 49.5 141t141.5 145h-57v100h-16q-50 -50 -134 -84t-189 -34q-165 0 -264 82q-66 56 -97.5 146t-31.5 238v662h188v-621q0 -119 18 -183t58 -101q67 -64 191 -64
q133 0 204 82q40 44 56.5 108.5t16.5 173.5v605h189v-1110q-84 -56 -129.5 -120z" />
    <glyph glyph-name="Wcircumflex" unicode="&#x174;" horiz-adv-x="2435" 
d="M66 1570h212l455 -1338h13l364 1202h214l364 -1202h14l455 1338h212l-562 -1570h-225l-358 1154h-13l-358 -1154h-225zM1215 2057l341 -366h-152l-189 187l-189 -187h-150z" />
    <glyph glyph-name="wcircumflex" unicode="&#x175;" horiz-adv-x="1925" 
d="M39 1110h204l330 -967h25l262 967h205l262 -967h25l330 967h204l-396 -1110h-302l-216 796h-19l-216 -796h-302zM961 1597l341 -366h-152l-189 187l-189 -187h-150z" />
    <glyph glyph-name="Ycircumflex" unicode="&#x176;" horiz-adv-x="1490" 
d="M646 585l-596 985h228l462 -771h11l462 771h227l-598 -985v-585h-196v585zM744 2057l341 -366h-152l-189 187l-189 -187h-150z" />
    <glyph glyph-name="ycircumflex" unicode="&#x177;" horiz-adv-x="1145" 
d="M471 20l-441 1090h207l327 -864h14l330 864h207l-633 -1570h-204zM571 1597l341 -366h-152l-189 187l-189 -187h-150z" />
    <glyph glyph-name="Ydieresis" unicode="&#x178;" horiz-adv-x="1490" 
d="M646 585l-596 985h228l462 -771h11l462 771h227l-598 -985v-585h-196v585zM471 1726.5q-30 17.5 -47 48t-17 66.5q0 53 37.5 90.5t91.5 37.5q35 0 65 -17t47.5 -46.5t17.5 -64.5q0 -36 -17.5 -66t-47.5 -48t-65 -18t-65 17.5zM889.5 1726.5q-29.5 17.5 -47 48t-17.5 66.5
q0 53 37.5 90.5t92.5 37.5q35 0 65 -17t47.5 -46.5t17.5 -64.5q0 -36 -17.5 -66t-47.5 -48t-65 -18q-36 0 -65.5 17.5z" />
    <glyph glyph-name="Zacute" unicode="&#x179;" horiz-adv-x="1420" 
d="M100 180l944 1199v16h-905v175h1154v-182l-945 -1199v-14h967v-175h-1215v180zM883 2030h203l-305 -318h-141z" />
    <glyph glyph-name="zacute" unicode="&#x17a;" horiz-adv-x="1083" 
d="M80 164l666 769v18h-637v159h876v-166l-666 -769v-16h678v-159h-917v164zM717 1570h203l-305 -318h-141z" />
    <glyph glyph-name="Zdotaccent" unicode="&#x17b;" horiz-adv-x="1420" 
d="M100 180l944 1199v16h-905v175h1154v-182l-945 -1199v-14h967v-175h-1215v180zM645 1726.5q-30 17.5 -47 48t-17 66.5q0 53 37.5 90.5t91.5 37.5q35 0 65 -17t47.5 -46.5t17.5 -64.5q0 -36 -17.5 -66t-47.5 -48t-65 -18t-65 17.5z" />
    <glyph glyph-name="zdotaccent" unicode="&#x17c;" horiz-adv-x="1083" 
d="M80 164l666 769v18h-637v159h876v-166l-666 -769v-16h678v-159h-917v164zM452.5 1370.5q-37.5 37.5 -37.5 92.5q0 35 17 65t47 47.5t65 17.5t65 -17.5t47.5 -47.5t17.5 -65q0 -36 -17.5 -65.5t-47.5 -47t-65 -17.5q-54 0 -91.5 37.5z" />
    <glyph glyph-name="Zcaron" unicode="&#x17d;" horiz-adv-x="1420" 
d="M100 180l944 1199v16h-905v175h1154v-182l-945 -1199v-14h967v-175h-1215v180zM369 2030h152l189 -180l189 180h152l-341 -350z" />
    <glyph glyph-name="zcaron" unicode="&#x17e;" horiz-adv-x="1083" 
d="M80 164l666 769v18h-637v159h876v-166l-666 -769v-16h678v-159h-917v164zM203 1570h152l189 -180l189 180h152l-341 -350z" />
    <glyph glyph-name="florin" unicode="&#x192;" horiz-adv-x="1120" 
d="M127 -355q115 0 182.5 31t98.5 102t31 195v994h-196v143h196v142q0 102 40 181t110 123t157 44q134 0 253 -105l-102 -121q-43 36 -76.5 51t-74.5 15q-66 0 -107 -48t-41 -140v-142h287v-143h-287v-1010q0 -234 -119 -344.5t-352 -110.5v143z" />
    <glyph glyph-name="uni01C4" unicode="&#x1c4;" horiz-adv-x="3008" 
d="M239 1570h357q170 0 288.5 -19.5t201 -58t154.5 -99.5q117 -102 178 -258t61 -361q0 -199 -60 -349t-177 -250q-76 -64 -164 -102t-204.5 -55.5t-279.5 -17.5h-355v1570zM576 175q148 0 246 16t164 48t124 84q173 156 173 458q0 154 -43 271.5t-127 196.5q-60 55 -130 87
t-162.5 45.5t-226.5 13.5h-159v-1220h141zM1688 180l944 1199v16h-905v175h1154v-182l-945 -1199v-14h967v-175h-1215v180zM1957 2030h152l189 -180l189 180h152l-341 -350z" />
    <glyph glyph-name="uni01C5" unicode="&#x1c5;" horiz-adv-x="2699" 
d="M239 1570h357q170 0 288.5 -19.5t201 -58t154.5 -99.5q117 -102 178 -258t61 -361q0 -199 -60 -349t-177 -250q-76 -64 -164 -102t-204.5 -55.5t-279.5 -17.5h-355v1570zM576 175q148 0 246 16t164 48t124 84q173 156 173 458q0 154 -43 271.5t-127 196.5q-60 55 -130 87
t-162.5 45.5t-226.5 13.5h-159v-1220h141zM1696 164l666 769v18h-637v159h876v-166l-666 -769v-16h678v-159h-917v164zM1819 1570h152l189 -180l189 180h152l-341 -350z" />
    <glyph glyph-name="uni01C6" unicode="&#x1c6;" horiz-adv-x="2426" 
d="M337 49.5q-112 67.5 -172 196.5t-60 309q0 181 60 310t170 196.5t259 67.5q215 0 353 -130h16v571h188v-1570h-188v102h-16q-66 -59 -153 -89.5t-191 -30.5q-154 0 -266 67.5zM815 191q78 50 120.5 143.5t42.5 220.5q0 126 -42 219.5t-120 144t-183 50.5
q-102 0 -178.5 -47.5t-118.5 -140.5t-42 -226q0 -134 42.5 -227t118.5 -140t178 -47q104 0 182 50zM1423 164l666 769v18h-637v159h876v-166l-666 -769v-16h678v-159h-917v164zM1546 1570h152l189 -180l189 180h152l-341 -350z" />
    <glyph glyph-name="uni01C7" unicode="&#x1c7;" horiz-adv-x="2540" 
d="M239 1570h196v-1395h701v-175h-897v1570zM1654.5 1.5q-78.5 19.5 -136.5 57.5q-195 122 -205 401l196 27q3 -99 40.5 -171.5t102.5 -112.5q69 -48 173 -48q155 0 239 93q37 46 54 120t17 217v810h-624v175h819v-985q0 -175 -27.5 -281t-92.5 -179q-67 -72 -162.5 -107.5
t-222.5 -35.5q-92 0 -170.5 19.5z" />
    <glyph glyph-name="uni01C8" unicode="&#x1c8;" horiz-adv-x="1770" 
d="M239 1570h196v-1395h701v-175h-897v1570zM1217 -471q-57 9 -113 27l52 160q26 -11 54 -17t51 -6q36 0 59 10t39 31q18 21 24.5 56.5t6.5 102.5v1217h189v-1253q0 -92 -10.5 -151.5t-43.5 -101.5q-66 -84 -210 -84q-41 0 -98 9zM1394.5 1370.5q-37.5 37.5 -37.5 92.5
q0 35 17 65t47 47.5t65 17.5t65 -17.5t47.5 -47.5t17.5 -65q0 -36 -17.5 -65.5t-47.5 -47t-65 -17.5q-54 0 -91.5 37.5z" />
    <glyph glyph-name="uni01C9" unicode="&#x1c9;" horiz-adv-x="1183" 
d="M239 36q-32 30 -44.5 87.5t-12.5 167.5v1279h189v-1238q0 -79 4 -112t21 -52q24 -27 82 -27q40 0 75 9l27 -141q-36 -13 -81.5 -20t-86.5 -7q-116 0 -173 54zM630 -471q-57 9 -113 27l52 160q26 -11 54 -17t51 -6q36 0 59 10t39 31q18 21 24.5 56.5t6.5 102.5v1217h189
v-1253q0 -92 -10.5 -151.5t-43.5 -101.5q-66 -84 -210 -84q-41 0 -98 9zM807.5 1370.5q-37.5 37.5 -37.5 92.5q0 35 17 65t47 47.5t65 17.5t65 -17.5t47.5 -47.5t17.5 -65q0 -36 -17.5 -65.5t-47.5 -47t-65 -17.5q-54 0 -91.5 37.5z" />
    <glyph glyph-name="uni01CA" unicode="&#x1ca;" horiz-adv-x="2963" 
d="M239 1570h291l681 -1317h16v1317h195v-1570h-293l-678 1320h-16v-1320h-196v1570zM2077.5 1.5q-78.5 19.5 -136.5 57.5q-195 122 -205 401l196 27q3 -99 40.5 -171.5t102.5 -112.5q69 -48 173 -48q155 0 239 93q37 46 54 120t17 217v810h-624v175h819v-985
q0 -175 -27.5 -281t-92.5 -179q-67 -72 -162.5 -107.5t-222.5 -35.5q-92 0 -170.5 19.5z" />
    <glyph glyph-name="uni01CB" unicode="&#x1cb;" horiz-adv-x="2234" 
d="M239 1570h291l681 -1317h16v1317h195v-1570h-293l-678 1320h-16v-1320h-196v1570zM1681 -471q-57 9 -113 27l52 160q26 -11 54 -17t51 -6q36 0 59 10t39 31q18 21 24.5 56.5t6.5 102.5v1217h189v-1253q0 -92 -10.5 -151.5t-43.5 -101.5q-66 -84 -210 -84q-41 0 -98 9z
M1858.5 1370.5q-37.5 37.5 -37.5 92.5q0 35 17 65t47 47.5t65 17.5t65 -17.5t47.5 -47.5t17.5 -65q0 -36 -17.5 -65.5t-47.5 -47t-65 -17.5q-54 0 -91.5 37.5z" />
    <glyph glyph-name="uni01CC" unicode="&#x1cc;" horiz-adv-x="1847" 
d="M189 1110h189v-100h16q49 50 133.5 84.5t189.5 34.5q163 0 264 -82q66 -56 97.5 -146t31.5 -239v-662h-188v621q0 119 -18 183t-57 102q-68 63 -192 63q-134 0 -204 -82q-40 -44 -56.5 -108.5t-16.5 -173.5v-605h-189v1110zM1294 -471q-57 9 -113 27l52 160
q26 -11 54 -17t51 -6q36 0 59 10t39 31q18 21 24.5 56.5t6.5 102.5v1217h189v-1253q0 -92 -10.5 -151.5t-43.5 -101.5q-66 -84 -210 -84q-41 0 -98 9zM1471.5 1370.5q-37.5 37.5 -37.5 92.5q0 35 17 65t47 47.5t65 17.5t65 -17.5t47.5 -47.5t17.5 -65q0 -36 -17.5 -65.5
t-47.5 -47t-65 -17.5q-54 0 -91.5 37.5z" />
    <glyph glyph-name="uni01CD" unicode="&#x1cd;" horiz-adv-x="1481" 
d="M1081 364h-677l-124 -364h-214l562 1570h225l562 -1570h-211zM1022 537l-271 801h-14l-274 -801h559zM401 2030h152l189 -180l189 180h152l-341 -350z" />
    <glyph glyph-name="uni01CE" unicode="&#x1ce;" horiz-adv-x="1201" 
d="M1024 853.5q16 -73.5 16 -184.5v-669h-189v121h-16q-48 -61 -139 -98q-92 -41 -209 -41q-122 0 -211.5 42t-137 120.5t-47.5 183.5q0 108 42.5 177.5t123.5 106.5q56 25 121.5 35.5t165.5 10.5h307q0 96 -15 154t-51 91q-35 33 -90 49.5t-122 16.5q-94 0 -176.5 -38
t-159.5 -116l-116 127q200 187 452 187q135 0 233 -36.5t154 -107.5q48 -58 64 -131.5zM832.5 341.5q17.5 66.5 18.5 156.5h-296q-85 0 -132.5 -7.5t-81.5 -28.5q-27 -18 -44 -51t-17 -83q0 -89 62 -142.5t177 -53.5q147 0 241 91q55 52 72.5 118.5zM260 1570h152l189 -180
l189 180h152l-341 -350z" />
    <glyph glyph-name="uni01CF" unicode="&#x1cf;" horiz-adv-x="674" 
d="M239 1570h196v-1570h-196v1570zM-4 2030h152l189 -180l189 180h152l-341 -350z" />
    <glyph glyph-name="uni01D0" unicode="&#x1d0;" horiz-adv-x="567" 
d="M189 1110h189v-1110h-189v1110zM-57 1570h152l189 -180l189 180h152l-341 -350z" />
    <glyph glyph-name="uni01D1" unicode="&#x1d1;" horiz-adv-x="1723" 
d="M468.5 82.5q-163.5 100.5 -249 282t-85.5 420.5t85.5 420.5t249 282t391.5 100.5t392 -100.5t250 -282t86 -420.5t-86 -420.5t-250 -282t-392 -100.5t-391.5 100.5zM1149 234.5q120 79.5 182 221.5t62 329t-62 329t-182 221.5t-289 79.5q-167 0 -286.5 -79.5
t-181.5 -221.5t-62 -329t62 -329t181.5 -221.5t286.5 -79.5q169 0 289 79.5zM521 2030h152l189 -180l189 180h152l-341 -350z" />
    <glyph glyph-name="uni01D2" unicode="&#x1d2;" horiz-adv-x="1279" 
d="M354.5 52q-122.5 70 -189.5 200.5t-67 305.5t67 304t189.5 198t284.5 69t285 -69t190 -198t67 -304t-67.5 -305.5t-190 -200.5t-284.5 -70t-284.5 70zM830.5 192q79.5 51 120.5 145t41 221q0 125 -41 217.5t-120.5 143t-191.5 50.5q-113 0 -192 -50t-119.5 -142
t-40.5 -219t40.5 -221t119.5 -145t192 -51q112 0 191.5 51zM298 1570h152l189 -180l189 180h152l-341 -350z" />
    <glyph glyph-name="uni01D3" unicode="&#x1d3;" horiz-adv-x="1566" 
d="M530.5 20.5q-110.5 38.5 -184.5 111.5q-71 71 -105 175.5t-34 270.5v992h196v-985q0 -114 18.5 -188t67.5 -128q48 -54 122.5 -84t171.5 -30q98 0 172.5 29.5t123.5 84.5q45 51 64.5 121.5t19.5 194.5v985h196v-992q0 -166 -32.5 -269t-106.5 -177q-73 -73 -183.5 -111.5
t-253.5 -38.5q-142 0 -252.5 38.5zM444 2030h152l189 -180l189 180h152l-341 -350z" />
    <glyph glyph-name="uni01D4" unicode="&#x1d4;" horiz-adv-x="1272" 
d="M291 64q-66 56 -97.5 146t-31.5 238v662h188v-621q0 -119 18 -183t58 -101q67 -64 191 -64q133 0 204 82q40 44 56.5 108.5t16.5 173.5v605h189v-1110h-189v100h-16q-50 -50 -134 -84t-189 -34q-165 0 -264 82zM294 1570h152l189 -180l189 180h152l-341 -350z" />
    <glyph glyph-name="uni01D5" unicode="&#x1d5;" horiz-adv-x="1566" 
d="M530.5 20.5q-110.5 38.5 -184.5 111.5q-71 71 -105 175.5t-34 270.5v992h196v-985q0 -114 18.5 -188t67.5 -128q48 -54 122.5 -84t171.5 -30q98 0 172.5 29.5t123.5 84.5q45 51 64.5 121.5t19.5 194.5v985h196v-992q0 -166 -32.5 -269t-106.5 -177q-73 -73 -183.5 -111.5
t-253.5 -38.5q-142 0 -252.5 38.5zM510 1726.5q-30 17.5 -47 48t-17 66.5q0 53 37.5 90.5t91.5 37.5q35 0 65 -17t47.5 -46.5t17.5 -64.5q0 -36 -17.5 -66t-47.5 -48t-65 -18t-65 17.5zM928.5 1726.5q-29.5 17.5 -47 48t-17.5 66.5q0 53 37.5 90.5t92.5 37.5q35 0 65 -17
t47.5 -46.5t17.5 -64.5q0 -36 -17.5 -66t-47.5 -48t-65 -18q-36 0 -65.5 17.5zM478 2302h612v-114h-612v114z" />
    <glyph glyph-name="uni01D6" unicode="&#x1d6;" horiz-adv-x="1272" 
d="M291 64q-66 56 -97.5 146t-31.5 238v662h188v-621q0 -119 18 -183t58 -101q67 -64 191 -64q133 0 204 82q40 44 56.5 108.5t16.5 173.5v605h189v-1110h-189v100h-16q-50 -50 -134 -84t-189 -34q-165 0 -264 82zM333.5 1370.5q-37.5 37.5 -37.5 92.5q0 35 17 65t47 47.5
t65 17.5t65 -17.5t47.5 -47.5t17.5 -65q0 -36 -17.5 -65.5t-47.5 -47t-65 -17.5q-54 0 -91.5 37.5zM751.5 1370.5q-37.5 37.5 -37.5 92.5q0 35 17.5 65t47 47.5t65.5 17.5q35 0 65 -17.5t47.5 -47.5t17.5 -65q0 -36 -17.5 -65.5t-47.5 -47t-65 -17.5q-55 0 -92.5 37.5z
M328 1926h612v-114h-612v114z" />
    <glyph glyph-name="uni01D7" unicode="&#x1d7;" horiz-adv-x="1566" 
d="M530.5 20.5q-110.5 38.5 -184.5 111.5q-71 71 -105 175.5t-34 270.5v992h196v-985q0 -114 18.5 -188t67.5 -128q48 -54 122.5 -84t171.5 -30q98 0 172.5 29.5t123.5 84.5q45 51 64.5 121.5t19.5 194.5v985h196v-992q0 -166 -32.5 -269t-106.5 -177q-73 -73 -183.5 -111.5
t-253.5 -38.5q-142 0 -252.5 38.5zM510 1726.5q-30 17.5 -47 48t-17 66.5q0 53 37.5 90.5t91.5 37.5q35 0 65 -17t47.5 -46.5t17.5 -64.5q0 -36 -17.5 -66t-47.5 -48t-65 -18t-65 17.5zM928.5 1726.5q-29.5 17.5 -47 48t-17.5 66.5q0 53 37.5 90.5t92.5 37.5q35 0 65 -17
t47.5 -46.5t17.5 -64.5q0 -36 -17.5 -66t-47.5 -48t-65 -18q-36 0 -65.5 17.5zM958 2429h203l-305 -318h-141z" />
    <glyph glyph-name="uni01D8" unicode="&#x1d8;" horiz-adv-x="1272" 
d="M291 64q-66 56 -97.5 146t-31.5 238v662h188v-621q0 -119 18 -183t58 -101q67 -64 191 -64q133 0 204 82q40 44 56.5 108.5t16.5 173.5v605h189v-1110h-189v100h-16q-50 -50 -134 -84t-189 -34q-165 0 -264 82zM333.5 1370.5q-37.5 37.5 -37.5 92.5q0 35 17 65t47 47.5
t65 17.5t65 -17.5t47.5 -47.5t17.5 -65q0 -36 -17.5 -65.5t-47.5 -47t-65 -17.5q-54 0 -91.5 37.5zM751.5 1370.5q-37.5 37.5 -37.5 92.5q0 35 17.5 65t47 47.5t65.5 17.5q35 0 65 -17.5t47.5 -47.5t17.5 -65q0 -36 -17.5 -65.5t-47.5 -47t-65 -17.5q-55 0 -92.5 37.5z
M808 2053h203l-305 -318h-141z" />
    <glyph glyph-name="uni01D9" unicode="&#x1d9;" horiz-adv-x="1566" 
d="M530.5 20.5q-110.5 38.5 -184.5 111.5q-71 71 -105 175.5t-34 270.5v992h196v-985q0 -114 18.5 -188t67.5 -128q48 -54 122.5 -84t171.5 -30q98 0 172.5 29.5t123.5 84.5q45 51 64.5 121.5t19.5 194.5v985h196v-992q0 -166 -32.5 -269t-106.5 -177q-73 -73 -183.5 -111.5
t-253.5 -38.5q-142 0 -252.5 38.5zM510 1726.5q-30 17.5 -47 48t-17 66.5q0 53 37.5 90.5t91.5 37.5q35 0 65 -17t47.5 -46.5t17.5 -64.5q0 -36 -17.5 -66t-47.5 -48t-65 -18t-65 17.5zM928.5 1726.5q-29.5 17.5 -47 48t-17.5 66.5q0 53 37.5 90.5t92.5 37.5q35 0 65 -17
t47.5 -46.5t17.5 -64.5q0 -36 -17.5 -66t-47.5 -48t-65 -18q-36 0 -65.5 17.5zM444 2429h152l189 -180l189 180h152l-341 -350z" />
    <glyph glyph-name="uni01DA" unicode="&#x1da;" horiz-adv-x="1272" 
d="M291 64q-66 56 -97.5 146t-31.5 238v662h188v-621q0 -119 18 -183t58 -101q67 -64 191 -64q133 0 204 82q40 44 56.5 108.5t16.5 173.5v605h189v-1110h-189v100h-16q-50 -50 -134 -84t-189 -34q-165 0 -264 82zM333.5 1370.5q-37.5 37.5 -37.5 92.5q0 35 17 65t47 47.5
t65 17.5t65 -17.5t47.5 -47.5t17.5 -65q0 -36 -17.5 -65.5t-47.5 -47t-65 -17.5q-54 0 -91.5 37.5zM751.5 1370.5q-37.5 37.5 -37.5 92.5q0 35 17.5 65t47 47.5t65.5 17.5q35 0 65 -17.5t47.5 -47.5t17.5 -65q0 -36 -17.5 -65.5t-47.5 -47t-65 -17.5q-55 0 -92.5 37.5z
M294 2053h152l189 -180l189 180h152l-341 -350z" />
    <glyph glyph-name="uni01DB" unicode="&#x1db;" horiz-adv-x="1566" 
d="M530.5 20.5q-110.5 38.5 -184.5 111.5q-71 71 -105 175.5t-34 270.5v992h196v-985q0 -114 18.5 -188t67.5 -128q48 -54 122.5 -84t171.5 -30q98 0 172.5 29.5t123.5 84.5q45 51 64.5 121.5t19.5 194.5v985h196v-992q0 -166 -32.5 -269t-106.5 -177q-73 -73 -183.5 -111.5
t-253.5 -38.5q-142 0 -252.5 38.5zM510 1726.5q-30 17.5 -47 48t-17 66.5q0 53 37.5 90.5t91.5 37.5q35 0 65 -17t47.5 -46.5t17.5 -64.5q0 -36 -17.5 -66t-47.5 -48t-65 -18t-65 17.5zM928.5 1726.5q-29.5 17.5 -47 48t-17.5 66.5q0 53 37.5 90.5t92.5 37.5q35 0 65 -17
t47.5 -46.5t17.5 -64.5q0 -36 -17.5 -66t-47.5 -48t-65 -18q-36 0 -65.5 17.5zM420 2429h203l234 -318h-145z" />
    <glyph glyph-name="uni01DC" unicode="&#x1dc;" horiz-adv-x="1272" 
d="M291 64q-66 56 -97.5 146t-31.5 238v662h188v-621q0 -119 18 -183t58 -101q67 -64 191 -64q133 0 204 82q40 44 56.5 108.5t16.5 173.5v605h189v-1110h-189v100h-16q-50 -50 -134 -84t-189 -34q-165 0 -264 82zM333.5 1370.5q-37.5 37.5 -37.5 92.5q0 35 17 65t47 47.5
t65 17.5t65 -17.5t47.5 -47.5t17.5 -65q0 -36 -17.5 -65.5t-47.5 -47t-65 -17.5q-54 0 -91.5 37.5zM751.5 1370.5q-37.5 37.5 -37.5 92.5q0 35 17.5 65t47 47.5t65.5 17.5q35 0 65 -17.5t47.5 -47.5t17.5 -65q0 -36 -17.5 -65.5t-47.5 -47t-65 -17.5q-55 0 -92.5 37.5z
M270 2053h203l234 -318h-145z" />
    <glyph glyph-name="uni01EB" unicode="&#x1eb;" horiz-adv-x="1279" 
d="M657 -121.5q-45 -63.5 -45 -117.5q0 -56 44.5 -88t130.5 -32v-119q-157 0 -240 52t-83 140q0 62 43.5 131.5t124.5 136.5q-160 1 -280.5 71.5t-187 200.5t-66.5 304q0 175 67 304t189.5 198t284.5 69t285 -69t190 -198t67 -304q0 -148 -48 -264t-137.5 -191.5
t-211.5 -104.5q-82 -56 -127 -119.5zM327.5 337q40.5 -94 119.5 -145t192 -51q112 0 191.5 51t120.5 145t41 221q0 125 -41 217.5t-120.5 143t-191.5 50.5q-113 0 -192 -50t-119.5 -142t-40.5 -219t40.5 -221z" />
    <glyph glyph-name="uni01F1" unicode="&#x1f1;" horiz-adv-x="3008" 
d="M239 1570h357q170 0 288.5 -19.5t201 -58t154.5 -99.5q117 -102 178 -258t61 -361q0 -199 -60 -349t-177 -250q-76 -64 -164 -102t-204.5 -55.5t-279.5 -17.5h-355v1570zM576 175q148 0 246 16t164 48t124 84q173 156 173 458q0 154 -43 271.5t-127 196.5q-60 55 -130 87
t-162.5 45.5t-226.5 13.5h-159v-1220h141zM1688 180l944 1199v16h-905v175h1154v-182l-945 -1199v-14h967v-175h-1215v180z" />
    <glyph glyph-name="uni01F2" unicode="&#x1f2;" horiz-adv-x="2699" 
d="M239 1570h357q170 0 288.5 -19.5t201 -58t154.5 -99.5q117 -102 178 -258t61 -361q0 -199 -60 -349t-177 -250q-76 -64 -164 -102t-204.5 -55.5t-279.5 -17.5h-355v1570zM576 175q148 0 246 16t164 48t124 84q173 156 173 458q0 154 -43 271.5t-127 196.5q-60 55 -130 87
t-162.5 45.5t-226.5 13.5h-159v-1220h141zM1696 164l666 769v18h-637v159h876v-166l-666 -769v-16h678v-159h-917v164z" />
    <glyph glyph-name="uni01F3" unicode="&#x1f3;" horiz-adv-x="2426" 
d="M337 49.5q-112 67.5 -172 196.5t-60 309q0 181 60 310t170 196.5t259 67.5q215 0 353 -130h16v571h188v-1570h-188v102h-16q-66 -59 -153 -89.5t-191 -30.5q-154 0 -266 67.5zM815 191q78 50 120.5 143.5t42.5 220.5q0 126 -42 219.5t-120 144t-183 50.5
q-102 0 -178.5 -47.5t-118.5 -140.5t-42 -226q0 -134 42.5 -227t118.5 -140t178 -47q104 0 182 50zM1423 164l666 769v18h-637v159h876v-166l-666 -769v-16h678v-159h-917v164z" />
    <glyph glyph-name="Oslashacute" unicode="&#x1fe;" horiz-adv-x="1723" 
d="M933 1712h-141l243 318h203zM1525 1151.5q63 -163.5 63 -366.5q0 -239 -86 -420.5t-250 -282t-392 -100.5q-203 0 -356 81l-70 -114l-127 78l74 120q-121 106 -184 269.5t-63 368.5q0 239 85.5 420.5t249 282t391.5 100.5q206 0 361 -83l71 115l125 -78l-75 -121
q120 -106 183 -269.5zM369 517q39 -121 114 -205l642 1038q-115 65 -265 65q-167 0 -286.5 -79.5t-181.5 -221.5t-62 -329q0 -147 39 -268zM1149 234.5q120 79.5 182 221.5t62 329q0 147 -38.5 267.5t-113.5 203.5l-641 -1038q112 -63 260 -63q169 0 289 79.5z" />
    <glyph glyph-name="oslashacute" unicode="&#x1ff;" horiz-adv-x="1279" 
d="M710 1252h-141l243 318h203zM1135 815.5q46 -113.5 46 -257.5q0 -175 -67.5 -305.5t-190 -200.5t-284.5 -70q-132 0 -238 47l-83 -134l-127 78l84 136q-85 76 -131 190.5t-46 258.5q0 175 67 304t189.5 198t284.5 69q130 0 239 -46l80 130l127 -77l-82 -132
q86 -75 132 -188.5zM370 263l419 677q-66 29 -150 29q-113 0 -192 -50t-119.5 -142t-40.5 -219q0 -186 83 -295zM830.5 192q79.5 51 120.5 145t41 221q0 90 -21.5 164t-62.5 127l-420 -679q67 -29 151 -29q112 0 191.5 51z" />
    <glyph glyph-name="uni0218" unicode="&#x218;" horiz-adv-x="1272" 
d="M397 35q-119 51 -198.5 150.5t-102.5 240.5l193 47q20 -153 118 -233.5t248 -80.5q97 0 167.5 35t107.5 96t37 138q0 90 -48.5 150t-119.5 96.5t-194 83.5q-138 53 -221.5 97.5t-141.5 123t-58 200.5q0 125 61 217.5t165.5 142t231.5 49.5q149 0 265.5 -63.5
t191.5 -195.5l-161 -100q-104 186 -301 186q-72 0 -130.5 -29.5t-92.5 -81.5t-34 -118q0 -73 43 -122t107.5 -80.5t177.5 -72.5q146 -54 236.5 -102t154.5 -137t64 -228q0 -136 -63.5 -240.5t-178 -162t-263.5 -57.5q-142 0 -261 51zM754 -156q44 -56 44 -135
q0 -61 -26.5 -128.5t-85 -124.5t-147.5 -82l-43 100q58 14 101.5 44.5t66.5 69t23 75.5q0 12 -1 18q-38 -27 -83 -27q-35 0 -65 17t-47.5 46t-17.5 62q0 52 41.5 86.5t101.5 34.5q94 0 138 -56z" />
    <glyph glyph-name="uni0219" unicode="&#x219;" horiz-adv-x="1033" 
d="M344.5 20.5q-95.5 38.5 -163.5 109t-97 164.5l173 61q30 -105 107 -159.5t187 -54.5q200 0 200 162q0 84 -68 129q-27 18 -70.5 30.5t-117.5 29.5q-69 14 -118.5 27.5t-89.5 33.5q-82 39 -124 103.5t-42 151.5q0 95 47.5 167.5t133 113t196.5 40.5q146 0 251.5 -68.5
t151.5 -191.5l-164 -73q-28 89 -87.5 131t-153.5 42q-86 0 -136.5 -37t-50.5 -99q0 -36 15.5 -61.5t44.5 -45.5q27 -17 66 -28t110 -26q85 -18 143 -35t108 -45q69 -39 107.5 -103t38.5 -164q0 -101 -48.5 -179t-137 -121t-205.5 -43q-111 0 -206.5 38.5zM627 -156
q44 -56 44 -135q0 -61 -26.5 -128.5t-85 -124.5t-147.5 -82l-43 100q58 14 101.5 44.5t66.5 69t23 75.5q0 12 -1 18q-38 -27 -83 -27q-35 0 -65 17t-47.5 46t-17.5 62q0 52 41.5 86.5t101.5 34.5q94 0 138 -56z" />
    <glyph glyph-name="uni021A" unicode="&#x21a;" horiz-adv-x="1377" 
d="M592 1395h-531v175h1254v-175h-528v-1395h-195v1395zM806 -156q44 -56 44 -135q0 -61 -26.5 -128.5t-85 -124.5t-147.5 -82l-43 100q58 14 101.5 44.5t66.5 69t23 75.5q0 12 -1 18q-38 -27 -83 -27q-35 0 -65 17t-47.5 46t-17.5 62q0 52 41.5 86.5t101.5 34.5
q94 0 138 -56z" />
    <glyph glyph-name="uni021B" unicode="&#x21b;" horiz-adv-x="778" 
d="M364.5 28q-71.5 46 -104 120t-32.5 161v642h-182v159h184v294l186 137v-431h269v-159h-269v-616q0 -194 162 -194q52 0 100 16l32 -152q-29 -10 -73.5 -16.5t-90.5 -6.5q-110 0 -181.5 46zM597 -156q44 -56 44 -135q0 -61 -26.5 -128.5t-85 -124.5t-147.5 -82l-43 100
q58 14 101.5 44.5t66.5 69t23 75.5q0 12 -1 18q-38 -27 -83 -27q-35 0 -65 17t-47.5 46t-17.5 62q0 52 41.5 86.5t101.5 34.5q94 0 138 -56z" />
    <glyph glyph-name="uni0237" unicode="&#x237;" horiz-adv-x="573" 
d="M20 -471q-57 9 -113 27l52 160q26 -11 54 -17t51 -6q36 0 59 10t39 31q18 21 24.5 56.5t6.5 102.5v1217h189v-1253q0 -92 -10.5 -151.5t-43.5 -101.5q-66 -84 -210 -84q-41 0 -98 9z" />
    <glyph glyph-name="circumflex" unicode="&#x2c6;" horiz-adv-x="781" 
d="M389 1597l341 -366h-152l-189 187l-189 -187h-150z" />
    <glyph glyph-name="caron" unicode="&#x2c7;" horiz-adv-x="792" 
d="M55 1570h152l189 -180l189 180h152l-341 -350z" />
    <glyph glyph-name="breve" unicode="&#x2d8;" horiz-adv-x="935" 
d="M210.5 1340.5q-85.5 82.5 -85.5 229.5h134q0 -101 54.5 -149.5t152.5 -48.5q100 0 154 49.5t54 148.5h136q0 -150 -88 -231t-256 -81q-170 0 -255.5 82.5z" />
    <glyph glyph-name="dotaccent" unicode="&#x2d9;" horiz-adv-x="551" 
d="M183.5 1370.5q-37.5 37.5 -37.5 92.5q0 35 17 65t47 47.5t65 17.5t65 -17.5t47.5 -47.5t17.5 -65q0 -36 -17.5 -65.5t-47.5 -47t-65 -17.5q-54 0 -91.5 37.5z" />
    <glyph glyph-name="ring" unicode="&#x2da;" horiz-adv-x="712" 
d="M238.5 1237q-52.5 31 -83 84t-30.5 115t31 115t84 84t115 31q61 0 114 -31t84.5 -84t31.5 -115q0 -63 -31 -115.5t-83.5 -83.5t-115.5 -31q-64 0 -116.5 31zM444 1347q36 36 36 91q0 52 -35 87.5t-90 35.5q-54 0 -89.5 -35.5t-35.5 -87.5q0 -55 36 -91t89 -36t89 36z" />
    <glyph glyph-name="ogonek" unicode="&#x2db;" horiz-adv-x="567" 
d="M197 -424q-83 52 -83 140q0 66 49.5 141t141.5 145h132q-84 -56 -129.5 -120t-45.5 -119q0 -56 44.5 -88t130.5 -32v-119q-157 0 -240 52z" />
    <glyph glyph-name="tilde" unicode="&#x2dc;" horiz-adv-x="1006" 
d="M572 1289.5q-35 15.5 -58.5 38t-51.5 57.5q-33 40 -55 58t-54 18q-48 0 -74 -45t-26 -126h-112q0 137 58 213t158 76q44 0 77 -15t55.5 -36.5t51.5 -55.5q36 -41 58.5 -59t55.5 -18q42 0 68 47t26 128h116q0 -91 -25.5 -158t-73 -102.5t-111.5 -35.5q-48 0 -83 15.5z" />
    <glyph glyph-name="hungarumlaut" unicode="&#x2dd;" horiz-adv-x="967" 
d="M305 1570h171l-251 -318h-145zM701 1570h202l-277 -318h-148z" />
    <glyph glyph-name="gravecomb" unicode="&#x300;" 
d="M-515 1570h203l234 -318h-145z" />
    <glyph glyph-name="acutecomb" unicode="&#x301;" 
d="M-262 1570h203l-305 -318h-141z" />
    <glyph glyph-name="uni0302" unicode="&#x302;" 
d="M-392 1597l341 -366h-152l-189 187l-189 -187h-150z" />
    <glyph glyph-name="tildecomb" unicode="&#x303;" 
d="M-434 1289.5q-35 15.5 -58.5 38t-51.5 57.5q-33 40 -55 58t-54 18q-48 0 -74 -45t-26 -126h-112q0 137 58 213t158 76q44 0 77 -15t55.5 -36.5t51.5 -55.5q36 -41 58.5 -59t55.5 -18q42 0 68 47t26 128h116q0 -91 -25.5 -158t-73 -102.5t-111.5 -35.5q-48 0 -83 15.5z
" />
    <glyph glyph-name="uni0304" unicode="&#x304;" 
d="M-794 1443h612v-114h-612v114z" />
    <glyph glyph-name="uni0306" unicode="&#x306;" 
d="M-724.5 1340.5q-85.5 82.5 -85.5 229.5h134q0 -101 54.5 -149.5t152.5 -48.5q100 0 154 49.5t54 148.5h136q0 -150 -88 -231t-256 -81q-170 0 -255.5 82.5z" />
    <glyph glyph-name="uni0307" unicode="&#x307;" 
d="M-367.5 1370.5q-37.5 37.5 -37.5 92.5q0 35 17 65t47 47.5t65 17.5t65 -17.5t47.5 -47.5t17.5 -65q0 -36 -17.5 -65.5t-47.5 -47t-65 -17.5q-54 0 -91.5 37.5z" />
    <glyph glyph-name="uni0308" unicode="&#x308;" 
d="M-785.5 1370.5q-37.5 37.5 -37.5 92.5q0 35 17 65t47 47.5t65 17.5t65 -17.5t47.5 -47.5t17.5 -65q0 -36 -17.5 -65.5t-47.5 -47t-65 -17.5q-54 0 -91.5 37.5zM-367.5 1370.5q-37.5 37.5 -37.5 92.5q0 35 17.5 65t47 47.5t65.5 17.5q35 0 65 -17.5t47.5 -47.5t17.5 -65
q0 -36 -17.5 -65.5t-47.5 -47t-65 -17.5q-55 0 -92.5 37.5z" />
    <glyph glyph-name="uni030A" unicode="&#x30a;" 
d="M-473.5 1237q-52.5 31 -83 84t-30.5 115t31 115t84 84t115 31q61 0 114 -31t84.5 -84t31.5 -115q0 -63 -31 -115.5t-83.5 -83.5t-115.5 -31q-64 0 -116.5 31zM-268 1347q36 36 36 91q0 52 -35 87.5t-90 35.5q-54 0 -89.5 -35.5t-35.5 -87.5q0 -55 36 -91t89 -36t89 36z
" />
    <glyph glyph-name="uni030B" unicode="&#x30b;" 
d="M-662 1570h171l-251 -318h-145zM-266 1570h202l-277 -318h-148z" />
    <glyph glyph-name="uni030C" unicode="&#x30c;" 
d="M-737 1570h152l189 -180l189 180h152l-341 -350z" />
    <glyph glyph-name="uni030F" unicode="&#x30f;" 
d="M-626 1252l-277 318h202l223 -318h-148zM-225 1252l-251 318h171l225 -318h-145z" />
    <glyph glyph-name="uni0312" unicode="&#x312;" 
d="M-199 1432q30 -15 47.5 -40.5t17.5 -55.5q0 -46 -41 -77.5t-100 -31.5q-95 0 -139.5 50t-44.5 121q0 54 26.5 115t85 112t147.5 73l43 -90q-58 -13 -101.5 -40t-66.5 -61.5t-23 -67.5q0 -11 1 -16q38 24 83 24q35 0 65 -15z" />
    <glyph glyph-name="uni031B" unicode="&#x31b;" 
d="M-462 1242q95 0 136 58.5t41 153.5v116h143v-102q0 -162 -78.5 -256.5t-241.5 -94.5v125z" />
    <glyph glyph-name="uni0326" unicode="&#x326;" 
d="M-165 -156q44 -56 44 -135q0 -61 -26.5 -128.5t-85 -124.5t-147.5 -82l-43 100q58 14 101.5 44.5t66.5 69t23 75.5q0 12 -1 18q-38 -27 -83 -27q-35 0 -65 17t-47.5 46t-17.5 62q0 52 41.5 86.5t101.5 34.5q94 0 138 -56z" />
    <glyph glyph-name="uni0327" unicode="&#x327;" 
d="M-441.5 -459q-52.5 19 -100.5 59l53 86q37 -35 78 -51.5t79 -16.5q50 0 79.5 26t29.5 65q0 32 -21 55.5t-61 35.5q-40 13 -121 13l112 187h98l-80 -121q35 -3 57 -13q54 -19 84 -60t30 -97q0 -53 -27.5 -95.5t-76 -67t-108.5 -24.5q-52 0 -104.5 19z" />
    <glyph glyph-name="uni0328" unicode="&#x328;" 
d="M-370 -424q-83 52 -83 140q0 66 49.5 141t141.5 145h132q-84 -56 -129.5 -120t-45.5 -119q0 -56 44.5 -88t130.5 -32v-119q-157 0 -240 52z" />
    <glyph glyph-name="uni0335" unicode="&#x335;" 
d="M-885 717h705v-128h-705v128z" />
    <glyph glyph-name="uni0336" unicode="&#x336;" 
d="M-1627 689h1445v-113h-1445v113z" />
    <glyph glyph-name="uni0337" unicode="&#x337;" 
d="M-617 749l528 368v-209l-528 -371v212z" />
    <glyph glyph-name="uni0338" unicode="&#x338;" 
d="M-908 32l767 1240l127 -77l-767 -1241z" />
    <glyph glyph-name="uni03BC" unicode="&#x3bc;" horiz-adv-x="1445" 
d="M287 1110h186v-657q0 -139 65.5 -218.5t189.5 -79.5q134 0 211.5 81t77.5 235v639h187v-1110h-187v168q-55 -91 -146 -138.5t-195 -47.5q-161 0 -237 104v-466h-152v1490z" />
    <glyph glyph-name="pi" unicode="&#x3c0;" horiz-adv-x="1149" 
d="M795 62q-65 80 -65 238v651h-357v-951h-159v951h-109v159h896v-159h-111v-628q0 -113 27 -156.5t80 -43.5q39 0 68 16l50 -125q-57 -32 -130 -32q-125 0 -190 80z" />
    <glyph glyph-name="Wgrave" unicode="&#x1e80;" horiz-adv-x="2435" 
d="M66 1570h212l455 -1338h13l364 1202h214l364 -1202h14l455 1338h212l-562 -1570h-225l-358 1154h-13l-358 -1154h-225zM852 2030h203l234 -318h-145z" />
    <glyph glyph-name="wgrave" unicode="&#x1e81;" horiz-adv-x="1925" 
d="M39 1110h204l330 -967h25l262 967h205l262 -967h25l330 967h204l-396 -1110h-302l-216 796h-19l-216 -796h-302zM598 1570h203l234 -318h-145z" />
    <glyph glyph-name="Wacute" unicode="&#x1e82;" horiz-adv-x="2435" 
d="M66 1570h212l455 -1338h13l364 1202h214l364 -1202h14l455 1338h212l-562 -1570h-225l-358 1154h-13l-358 -1154h-225zM1390 2030h203l-305 -318h-141z" />
    <glyph glyph-name="wacute" unicode="&#x1e83;" horiz-adv-x="1925" 
d="M39 1110h204l330 -967h25l262 967h205l262 -967h25l330 967h204l-396 -1110h-302l-216 796h-19l-216 -796h-302zM1136 1570h203l-305 -318h-141z" />
    <glyph glyph-name="Wdieresis" unicode="&#x1e84;" horiz-adv-x="2435" 
d="M66 1570h212l455 -1338h13l364 1202h214l364 -1202h14l455 1338h212l-562 -1570h-225l-358 1154h-13l-358 -1154h-225zM942 1726.5q-30 17.5 -47 48t-17 66.5q0 53 37.5 90.5t91.5 37.5q35 0 65 -17t47.5 -46.5t17.5 -64.5q0 -36 -17.5 -66t-47.5 -48t-65 -18t-65 17.5z
M1360.5 1726.5q-29.5 17.5 -47 48t-17.5 66.5q0 53 37.5 90.5t92.5 37.5q35 0 65 -17t47.5 -46.5t17.5 -64.5q0 -36 -17.5 -66t-47.5 -48t-65 -18q-36 0 -65.5 17.5z" />
    <glyph glyph-name="wdieresis" unicode="&#x1e85;" horiz-adv-x="1925" 
d="M39 1110h204l330 -967h25l262 967h205l262 -967h25l330 967h204l-396 -1110h-302l-216 796h-19l-216 -796h-302zM661.5 1370.5q-37.5 37.5 -37.5 92.5q0 35 17 65t47 47.5t65 17.5t65 -17.5t47.5 -47.5t17.5 -65q0 -36 -17.5 -65.5t-47.5 -47t-65 -17.5q-54 0 -91.5 37.5
zM1079.5 1370.5q-37.5 37.5 -37.5 92.5q0 35 17.5 65t47 47.5t65.5 17.5q35 0 65 -17.5t47.5 -47.5t17.5 -65q0 -36 -17.5 -65.5t-47.5 -47t-65 -17.5q-55 0 -92.5 37.5z" />
    <glyph glyph-name="uni1EA4" unicode="&#x1ea4;" horiz-adv-x="1481" 
d="M1081 364h-677l-124 -364h-214l562 1570h225l562 -1570h-211zM1022 537l-271 801h-14l-274 -801h559zM740 2057l341 -366h-152l-189 187l-189 -187h-150zM915 2517h203l-305 -318h-141z" />
    <glyph glyph-name="uni1EA5" unicode="&#x1ea5;" horiz-adv-x="1201" 
d="M1024 853.5q16 -73.5 16 -184.5v-669h-189v121h-16q-48 -61 -139 -98q-92 -41 -209 -41q-122 0 -211.5 42t-137 120.5t-47.5 183.5q0 108 42.5 177.5t123.5 106.5q56 25 121.5 35.5t165.5 10.5h307q0 96 -15 154t-51 91q-35 33 -90 49.5t-122 16.5q-94 0 -176.5 -38
t-159.5 -116l-116 127q200 187 452 187q135 0 233 -36.5t154 -107.5q48 -58 64 -131.5zM832.5 341.5q17.5 66.5 18.5 156.5h-296q-85 0 -132.5 -7.5t-81.5 -28.5q-27 -18 -44 -51t-17 -83q0 -89 62 -142.5t177 -53.5q147 0 241 91q55 52 72.5 118.5zM599 1597l341 -366h-152
l-189 187l-189 -187h-150zM774 2057h203l-305 -318h-141z" />
    <glyph glyph-name="uni1EA6" unicode="&#x1ea6;" horiz-adv-x="1481" 
d="M1081 364h-677l-124 -364h-214l562 1570h225l562 -1570h-211zM1022 537l-271 801h-14l-274 -801h559zM740 2057l341 -366h-152l-189 187l-189 -187h-150zM377 2517h203l234 -318h-145z" />
    <glyph glyph-name="uni1EA7" unicode="&#x1ea7;" horiz-adv-x="1201" 
d="M1024 853.5q16 -73.5 16 -184.5v-669h-189v121h-16q-48 -61 -139 -98q-92 -41 -209 -41q-122 0 -211.5 42t-137 120.5t-47.5 183.5q0 108 42.5 177.5t123.5 106.5q56 25 121.5 35.5t165.5 10.5h307q0 96 -15 154t-51 91q-35 33 -90 49.5t-122 16.5q-94 0 -176.5 -38
t-159.5 -116l-116 127q200 187 452 187q135 0 233 -36.5t154 -107.5q48 -58 64 -131.5zM832.5 341.5q17.5 66.5 18.5 156.5h-296q-85 0 -132.5 -7.5t-81.5 -28.5q-27 -18 -44 -51t-17 -83q0 -89 62 -142.5t177 -53.5q147 0 241 91q55 52 72.5 118.5zM599 1597l341 -366h-152
l-189 187l-189 -187h-150zM236 2057h203l234 -318h-145z" />
    <glyph glyph-name="uni1EAA" unicode="&#x1eaa;" horiz-adv-x="1481" 
d="M1081 364h-677l-124 -364h-214l562 1570h225l562 -1570h-211zM1022 537l-271 801h-14l-274 -801h559zM740 2057l341 -366h-152l-189 187l-189 -187h-150zM811 2236.5q-35 15.5 -58.5 38t-51.5 57.5q-33 40 -55 58t-54 18q-48 0 -74 -45t-26 -126h-112q0 137 58 213
t158 76q44 0 77 -15t55.5 -36.5t51.5 -55.5q36 -41 58.5 -59t55.5 -18q42 0 68 47t26 128h116q0 -91 -25.5 -158t-73 -102.5t-111.5 -35.5q-48 0 -83 15.5z" />
    <glyph glyph-name="uni1EAB" unicode="&#x1eab;" horiz-adv-x="1201" 
d="M1024 853.5q16 -73.5 16 -184.5v-669h-189v121h-16q-48 -61 -139 -98q-92 -41 -209 -41q-122 0 -211.5 42t-137 120.5t-47.5 183.5q0 108 42.5 177.5t123.5 106.5q56 25 121.5 35.5t165.5 10.5h307q0 96 -15 154t-51 91q-35 33 -90 49.5t-122 16.5q-94 0 -176.5 -38
t-159.5 -116l-116 127q200 187 452 187q135 0 233 -36.5t154 -107.5q48 -58 64 -131.5zM832.5 341.5q17.5 66.5 18.5 156.5h-296q-85 0 -132.5 -7.5t-81.5 -28.5q-27 -18 -44 -51t-17 -83q0 -89 62 -142.5t177 -53.5q147 0 241 91q55 52 72.5 118.5zM599 1597l341 -366h-152
l-189 187l-189 -187h-150zM670 1776.5q-35 15.5 -58.5 38t-51.5 57.5q-33 40 -55 58t-54 18q-48 0 -74 -45t-26 -126h-112q0 137 58 213t158 76q44 0 77 -15t55.5 -36.5t51.5 -55.5q36 -41 58.5 -59t55.5 -18q42 0 68 47t26 128h116q0 -91 -25.5 -158t-73 -102.5
t-111.5 -35.5q-48 0 -83 15.5z" />
    <glyph glyph-name="uni1EAE" unicode="&#x1eae;" horiz-adv-x="1481" 
d="M1081 364h-677l-124 -364h-214l562 1570h225l562 -1570h-211zM1022 537l-271 801h-14l-274 -801h559zM483.5 1800.5q-85.5 82.5 -85.5 229.5h134q0 -101 54.5 -149.5t152.5 -48.5q100 0 154 49.5t54 148.5h136q0 -150 -88 -231t-256 -81q-170 0 -255.5 82.5zM915 2490
h203l-305 -318h-141z" />
    <glyph glyph-name="uni1EAF" unicode="&#x1eaf;" horiz-adv-x="1201" 
d="M1024 853.5q16 -73.5 16 -184.5v-669h-189v121h-16q-48 -61 -139 -98q-92 -41 -209 -41q-122 0 -211.5 42t-137 120.5t-47.5 183.5q0 108 42.5 177.5t123.5 106.5q56 25 121.5 35.5t165.5 10.5h307q0 96 -15 154t-51 91q-35 33 -90 49.5t-122 16.5q-94 0 -176.5 -38
t-159.5 -116l-116 127q200 187 452 187q135 0 233 -36.5t154 -107.5q48 -58 64 -131.5zM832.5 341.5q17.5 66.5 18.5 156.5h-296q-85 0 -132.5 -7.5t-81.5 -28.5q-27 -18 -44 -51t-17 -83q0 -89 62 -142.5t177 -53.5q147 0 241 91q55 52 72.5 118.5zM342.5 1340.5
q-85.5 82.5 -85.5 229.5h134q0 -101 54.5 -149.5t152.5 -48.5q100 0 154 49.5t54 148.5h136q0 -150 -88 -231t-256 -81q-170 0 -255.5 82.5zM774 2030h203l-305 -318h-141z" />
    <glyph glyph-name="uni1EB0" unicode="&#x1eb0;" horiz-adv-x="1481" 
d="M1081 364h-677l-124 -364h-214l562 1570h225l562 -1570h-211zM1022 537l-271 801h-14l-274 -801h559zM483.5 1800.5q-85.5 82.5 -85.5 229.5h134q0 -101 54.5 -149.5t152.5 -48.5q100 0 154 49.5t54 148.5h136q0 -150 -88 -231t-256 -81q-170 0 -255.5 82.5zM377 2490
h203l234 -318h-145z" />
    <glyph glyph-name="uni1EB1" unicode="&#x1eb1;" horiz-adv-x="1201" 
d="M1024 853.5q16 -73.5 16 -184.5v-669h-189v121h-16q-48 -61 -139 -98q-92 -41 -209 -41q-122 0 -211.5 42t-137 120.5t-47.5 183.5q0 108 42.5 177.5t123.5 106.5q56 25 121.5 35.5t165.5 10.5h307q0 96 -15 154t-51 91q-35 33 -90 49.5t-122 16.5q-94 0 -176.5 -38
t-159.5 -116l-116 127q200 187 452 187q135 0 233 -36.5t154 -107.5q48 -58 64 -131.5zM832.5 341.5q17.5 66.5 18.5 156.5h-296q-85 0 -132.5 -7.5t-81.5 -28.5q-27 -18 -44 -51t-17 -83q0 -89 62 -142.5t177 -53.5q147 0 241 91q55 52 72.5 118.5zM342.5 1340.5
q-85.5 82.5 -85.5 229.5h134q0 -101 54.5 -149.5t152.5 -48.5q100 0 154 49.5t54 148.5h136q0 -150 -88 -231t-256 -81q-170 0 -255.5 82.5zM236 2030h203l234 -318h-145z" />
    <glyph glyph-name="uni1EB4" unicode="&#x1eb4;" horiz-adv-x="1481" 
d="M1081 364h-677l-124 -364h-214l562 1570h225l562 -1570h-211zM1022 537l-271 801h-14l-274 -801h559zM483.5 1800.5q-85.5 82.5 -85.5 229.5h134q0 -101 54.5 -149.5t152.5 -48.5q100 0 154 49.5t54 148.5h136q0 -150 -88 -231t-256 -81q-170 0 -255.5 82.5zM811 2209.5
q-35 15.5 -58.5 38t-51.5 57.5q-33 40 -55 58t-54 18q-48 0 -74 -45t-26 -126h-112q0 137 58 213t158 76q44 0 77 -15t55.5 -36.5t51.5 -55.5q36 -41 58.5 -59t55.5 -18q42 0 68 47t26 128h116q0 -91 -25.5 -158t-73 -102.5t-111.5 -35.5q-48 0 -83 15.5z" />
    <glyph glyph-name="uni1EB5" unicode="&#x1eb5;" horiz-adv-x="1201" 
d="M1024 853.5q16 -73.5 16 -184.5v-669h-189v121h-16q-48 -61 -139 -98q-92 -41 -209 -41q-122 0 -211.5 42t-137 120.5t-47.5 183.5q0 108 42.5 177.5t123.5 106.5q56 25 121.5 35.5t165.5 10.5h307q0 96 -15 154t-51 91q-35 33 -90 49.5t-122 16.5q-94 0 -176.5 -38
t-159.5 -116l-116 127q200 187 452 187q135 0 233 -36.5t154 -107.5q48 -58 64 -131.5zM832.5 341.5q17.5 66.5 18.5 156.5h-296q-85 0 -132.5 -7.5t-81.5 -28.5q-27 -18 -44 -51t-17 -83q0 -89 62 -142.5t177 -53.5q147 0 241 91q55 52 72.5 118.5zM342.5 1340.5
q-85.5 82.5 -85.5 229.5h134q0 -101 54.5 -149.5t152.5 -48.5q100 0 154 49.5t54 148.5h136q0 -150 -88 -231t-256 -81q-170 0 -255.5 82.5zM670 1749.5q-35 15.5 -58.5 38t-51.5 57.5q-33 40 -55 58t-54 18q-48 0 -74 -45t-26 -126h-112q0 137 58 213t158 76q44 0 77 -15
t55.5 -36.5t51.5 -55.5q36 -41 58.5 -59t55.5 -18q42 0 68 47t26 128h116q0 -91 -25.5 -158t-73 -102.5t-111.5 -35.5q-48 0 -83 15.5z" />
    <glyph glyph-name="uni1EBC" unicode="&#x1ebc;" horiz-adv-x="1379" 
d="M239 1570h985v-175h-789v-521h714v-173h-714v-526h835v-175h-1031v1570zM802 1749.5q-35 15.5 -58.5 38t-51.5 57.5q-33 40 -55 58t-54 18q-48 0 -74 -45t-26 -126h-112q0 137 58 213t158 76q44 0 77 -15t55.5 -36.5t51.5 -55.5q36 -41 58.5 -59t55.5 -18q42 0 68 47
t26 128h116q0 -91 -25.5 -158t-73 -102.5t-111.5 -35.5q-48 0 -83 15.5z" />
    <glyph glyph-name="uni1EBD" unicode="&#x1ebd;" horiz-adv-x="1199" 
d="M1103 543.5q-3 -29.5 -6 -45.5h-801q5 -108 45.5 -188.5t114.5 -124.5t177 -44q96 0 167.5 32.5t137.5 113.5l132 -116q-95 -99 -199.5 -144t-240.5 -45q-169 0 -289.5 75.5t-181.5 205t-61 288.5q0 157 59 288.5t175.5 210.5t279.5 79q175 0 285.5 -80t159.5 -200
t49 -248q0 -28 -3 -57.5zM456 927q-68 -42 -108 -113t-49 -156h617l-1 22q-12 138 -89.5 213.5t-211.5 75.5q-90 0 -158 -42zM670 1289.5q-35 15.5 -58.5 38t-51.5 57.5q-33 40 -55 58t-54 18q-48 0 -74 -45t-26 -126h-112q0 137 58 213t158 76q44 0 77 -15t55.5 -36.5
t51.5 -55.5q36 -41 58.5 -59t55.5 -18q42 0 68 47t26 128h116q0 -91 -25.5 -158t-73 -102.5t-111.5 -35.5q-48 0 -83 15.5z" />
    <glyph glyph-name="uni1EBE" unicode="&#x1ebe;" horiz-adv-x="1379" 
d="M239 1570h985v-175h-789v-521h714v-173h-714v-526h835v-175h-1031v1570zM731 2057l341 -366h-152l-189 187l-189 -187h-150zM906 2517h203l-305 -318h-141z" />
    <glyph glyph-name="uni1EBF" unicode="&#x1ebf;" horiz-adv-x="1199" 
d="M1103 543.5q-3 -29.5 -6 -45.5h-801q5 -108 45.5 -188.5t114.5 -124.5t177 -44q96 0 167.5 32.5t137.5 113.5l132 -116q-95 -99 -199.5 -144t-240.5 -45q-169 0 -289.5 75.5t-181.5 205t-61 288.5q0 157 59 288.5t175.5 210.5t279.5 79q175 0 285.5 -80t159.5 -200
t49 -248q0 -28 -3 -57.5zM456 927q-68 -42 -108 -113t-49 -156h617l-1 22q-12 138 -89.5 213.5t-211.5 75.5q-90 0 -158 -42zM599 1597l341 -366h-152l-189 187l-189 -187h-150zM774 2057h203l-305 -318h-141z" />
    <glyph glyph-name="uni1EC0" unicode="&#x1ec0;" horiz-adv-x="1379" 
d="M239 1570h985v-175h-789v-521h714v-173h-714v-526h835v-175h-1031v1570zM731 2057l341 -366h-152l-189 187l-189 -187h-150zM368 2517h203l234 -318h-145z" />
    <glyph glyph-name="uni1EC1" unicode="&#x1ec1;" horiz-adv-x="1199" 
d="M1103 543.5q-3 -29.5 -6 -45.5h-801q5 -108 45.5 -188.5t114.5 -124.5t177 -44q96 0 167.5 32.5t137.5 113.5l132 -116q-95 -99 -199.5 -144t-240.5 -45q-169 0 -289.5 75.5t-181.5 205t-61 288.5q0 157 59 288.5t175.5 210.5t279.5 79q175 0 285.5 -80t159.5 -200
t49 -248q0 -28 -3 -57.5zM456 927q-68 -42 -108 -113t-49 -156h617l-1 22q-12 138 -89.5 213.5t-211.5 75.5q-90 0 -158 -42zM599 1597l341 -366h-152l-189 187l-189 -187h-150zM236 2057h203l234 -318h-145z" />
    <glyph glyph-name="uni1EC4" unicode="&#x1ec4;" horiz-adv-x="1379" 
d="M239 1570h985v-175h-789v-521h714v-173h-714v-526h835v-175h-1031v1570zM731 2057l341 -366h-152l-189 187l-189 -187h-150zM802 2236.5q-35 15.5 -58.5 38t-51.5 57.5q-33 40 -55 58t-54 18q-48 0 -74 -45t-26 -126h-112q0 137 58 213t158 76q44 0 77 -15t55.5 -36.5
t51.5 -55.5q36 -41 58.5 -59t55.5 -18q42 0 68 47t26 128h116q0 -91 -25.5 -158t-73 -102.5t-111.5 -35.5q-48 0 -83 15.5z" />
    <glyph glyph-name="uni1EC5" unicode="&#x1ec5;" horiz-adv-x="1199" 
d="M1103 543.5q-3 -29.5 -6 -45.5h-801q5 -108 45.5 -188.5t114.5 -124.5t177 -44q96 0 167.5 32.5t137.5 113.5l132 -116q-95 -99 -199.5 -144t-240.5 -45q-169 0 -289.5 75.5t-181.5 205t-61 288.5q0 157 59 288.5t175.5 210.5t279.5 79q175 0 285.5 -80t159.5 -200
t49 -248q0 -28 -3 -57.5zM456 927q-68 -42 -108 -113t-49 -156h617l-1 22q-12 138 -89.5 213.5t-211.5 75.5q-90 0 -158 -42zM599 1597l341 -366h-152l-189 187l-189 -187h-150zM670 1776.5q-35 15.5 -58.5 38t-51.5 57.5q-33 40 -55 58t-54 18q-48 0 -74 -45t-26 -126h-112
q0 137 58 213t158 76q44 0 77 -15t55.5 -36.5t51.5 -55.5q36 -41 58.5 -59t55.5 -18q42 0 68 47t26 128h116q0 -91 -25.5 -158t-73 -102.5t-111.5 -35.5q-48 0 -83 15.5z" />
    <glyph glyph-name="uni1ED0" unicode="&#x1ed0;" horiz-adv-x="1723" 
d="M468.5 82.5q-163.5 100.5 -249 282t-85.5 420.5t85.5 420.5t249 282t391.5 100.5t392 -100.5t250 -282t86 -420.5t-86 -420.5t-250 -282t-392 -100.5t-391.5 100.5zM1149 234.5q120 79.5 182 221.5t62 329t-62 329t-182 221.5t-289 79.5q-167 0 -286.5 -79.5
t-181.5 -221.5t-62 -329t62 -329t181.5 -221.5t286.5 -79.5q169 0 289 79.5zM860 2057l341 -366h-152l-189 187l-189 -187h-150zM1035 2517h203l-305 -318h-141z" />
    <glyph glyph-name="uni1ED1" unicode="&#x1ed1;" horiz-adv-x="1279" 
d="M354.5 52q-122.5 70 -189.5 200.5t-67 305.5t67 304t189.5 198t284.5 69t285 -69t190 -198t67 -304t-67.5 -305.5t-190 -200.5t-284.5 -70t-284.5 70zM830.5 192q79.5 51 120.5 145t41 221q0 125 -41 217.5t-120.5 143t-191.5 50.5q-113 0 -192 -50t-119.5 -142
t-40.5 -219t40.5 -221t119.5 -145t192 -51q112 0 191.5 51zM637 1597l341 -366h-152l-189 187l-189 -187h-150zM812 2057h203l-305 -318h-141z" />
    <glyph glyph-name="uni1ED2" unicode="&#x1ed2;" horiz-adv-x="1723" 
d="M468.5 82.5q-163.5 100.5 -249 282t-85.5 420.5t85.5 420.5t249 282t391.5 100.5t392 -100.5t250 -282t86 -420.5t-86 -420.5t-250 -282t-392 -100.5t-391.5 100.5zM1149 234.5q120 79.5 182 221.5t62 329t-62 329t-182 221.5t-289 79.5q-167 0 -286.5 -79.5
t-181.5 -221.5t-62 -329t62 -329t181.5 -221.5t286.5 -79.5q169 0 289 79.5zM860 2057l341 -366h-152l-189 187l-189 -187h-150zM497 2517h203l234 -318h-145z" />
    <glyph glyph-name="uni1ED3" unicode="&#x1ed3;" horiz-adv-x="1279" 
d="M354.5 52q-122.5 70 -189.5 200.5t-67 305.5t67 304t189.5 198t284.5 69t285 -69t190 -198t67 -304t-67.5 -305.5t-190 -200.5t-284.5 -70t-284.5 70zM830.5 192q79.5 51 120.5 145t41 221q0 125 -41 217.5t-120.5 143t-191.5 50.5q-113 0 -192 -50t-119.5 -142
t-40.5 -219t40.5 -221t119.5 -145t192 -51q112 0 191.5 51zM637 1597l341 -366h-152l-189 187l-189 -187h-150zM274 2057h203l234 -318h-145z" />
    <glyph glyph-name="uni1ED6" unicode="&#x1ed6;" horiz-adv-x="1723" 
d="M468.5 82.5q-163.5 100.5 -249 282t-85.5 420.5t85.5 420.5t249 282t391.5 100.5t392 -100.5t250 -282t86 -420.5t-86 -420.5t-250 -282t-392 -100.5t-391.5 100.5zM1149 234.5q120 79.5 182 221.5t62 329t-62 329t-182 221.5t-289 79.5q-167 0 -286.5 -79.5
t-181.5 -221.5t-62 -329t62 -329t181.5 -221.5t286.5 -79.5q169 0 289 79.5zM860 2057l341 -366h-152l-189 187l-189 -187h-150zM931 2236.5q-35 15.5 -58.5 38t-51.5 57.5q-33 40 -55 58t-54 18q-48 0 -74 -45t-26 -126h-112q0 137 58 213t158 76q44 0 77 -15t55.5 -36.5
t51.5 -55.5q36 -41 58.5 -59t55.5 -18q42 0 68 47t26 128h116q0 -91 -25.5 -158t-73 -102.5t-111.5 -35.5q-48 0 -83 15.5z" />
    <glyph glyph-name="uni1ED7" unicode="&#x1ed7;" horiz-adv-x="1279" 
d="M354.5 52q-122.5 70 -189.5 200.5t-67 305.5t67 304t189.5 198t284.5 69t285 -69t190 -198t67 -304t-67.5 -305.5t-190 -200.5t-284.5 -70t-284.5 70zM830.5 192q79.5 51 120.5 145t41 221q0 125 -41 217.5t-120.5 143t-191.5 50.5q-113 0 -192 -50t-119.5 -142
t-40.5 -219t40.5 -221t119.5 -145t192 -51q112 0 191.5 51zM637 1597l341 -366h-152l-189 187l-189 -187h-150zM708 1776.5q-35 15.5 -58.5 38t-51.5 57.5q-33 40 -55 58t-54 18q-48 0 -74 -45t-26 -126h-112q0 137 58 213t158 76q44 0 77 -15t55.5 -36.5t51.5 -55.5
q36 -41 58.5 -59t55.5 -18q42 0 68 47t26 128h116q0 -91 -25.5 -158t-73 -102.5t-111.5 -35.5q-48 0 -83 15.5z" />
    <glyph glyph-name="Ygrave" unicode="&#x1ef2;" horiz-adv-x="1490" 
d="M646 585l-596 985h228l462 -771h11l462 771h227l-598 -985v-585h-196v585zM381 2030h203l234 -318h-145z" />
    <glyph glyph-name="ygrave" unicode="&#x1ef3;" horiz-adv-x="1145" 
d="M471 20l-441 1090h207l327 -864h14l330 864h207l-633 -1570h-204zM208 1570h203l234 -318h-145z" />
    <glyph glyph-name="uni1EF8" unicode="&#x1ef8;" horiz-adv-x="1490" 
d="M646 585l-596 985h228l462 -771h11l462 771h227l-598 -985v-585h-196v585zM815 1749.5q-35 15.5 -58.5 38t-51.5 57.5q-33 40 -55 58t-54 18q-48 0 -74 -45t-26 -126h-112q0 137 58 213t158 76q44 0 77 -15t55.5 -36.5t51.5 -55.5q36 -41 58.5 -59t55.5 -18q42 0 68 47
t26 128h116q0 -91 -25.5 -158t-73 -102.5t-111.5 -35.5q-48 0 -83 15.5z" />
    <glyph glyph-name="uni1EF9" unicode="&#x1ef9;" horiz-adv-x="1145" 
d="M471 20l-441 1090h207l327 -864h14l330 864h207l-633 -1570h-204zM642 1289.5q-35 15.5 -58.5 38t-51.5 57.5q-33 40 -55 58t-54 18q-48 0 -74 -45t-26 -126h-112q0 137 58 213t158 76q44 0 77 -15t55.5 -36.5t51.5 -55.5q36 -41 58.5 -59t55.5 -18q42 0 68 47t26 128
h116q0 -91 -25.5 -158t-73 -102.5t-111.5 -35.5q-48 0 -83 15.5z" />
    <glyph glyph-name="endash" unicode="&#x2013;" horiz-adv-x="1138" 
d="M0 755h1138v-143h-1138v143z" />
    <glyph glyph-name="emdash" unicode="&#x2014;" horiz-adv-x="2276" 
d="M0 755h2276v-143h-2276v143z" />
    <glyph glyph-name="quoteleft" unicode="&#x2018;" horiz-adv-x="651" 
d="M447.5 1029.5q-37.5 -36.5 -94.5 -37.5h-3h-2q-10 0 -15 1q-90 7 -132 72t-42 155q0 70 28 144.5t87 137t147 91.5l43 -100q-59 -20 -102.5 -58.5t-66 -86.5t-22.5 -96q0 -10 2 -28q36 28 80 28q36 0 65.5 -18t47 -48t17.5 -66q0 -54 -37.5 -90.5z" />
    <glyph glyph-name="quoteright" unicode="&#x2019;" horiz-adv-x="649" 
d="M443 1524q46 -67 46 -161q0 -70 -28 -145t-86.5 -137t-146.5 -91l-44 100q59 20 102.5 58.5t66 86.5t22.5 96q0 10 -2 28q-36 -28 -79 -28q-36 0 -65.5 17.5t-47 48t-17.5 66.5q0 55 38 91.5t96 36.5q99 0 145 -67z" />
    <glyph glyph-name="quotesinglbase" unicode="&#x201a;" horiz-adv-x="728" 
d="M484.5 175q45.5 -63 45.5 -155q0 -70 -26.5 -147t-85 -142t-147.5 -95l-46 100q87 37 131 101.5t44 139.5q0 12 -1 18q-28 -18 -67 -18q-53 0 -90 34t-37 91q0 60 39.5 97.5t99.5 37.5q95 1 140.5 -62z" />
    <glyph glyph-name="quotedblleft" unicode="&#x201c;" horiz-adv-x="1060" 
d="M447 1216q37 -34 37 -91q0 -60 -39.5 -97.5t-99.5 -37.5q-95 -1 -140.5 62t-45.5 155q0 70 26.5 147t85 142t147.5 95l46 -100q-87 -37 -131 -101.5t-44 -139.5q0 -12 1 -18q29 18 67 18q53 0 90 -34zM857 1216q37 -34 37 -91q0 -60 -39.5 -97.5t-99.5 -37.5
q-95 -1 -140.5 62t-45.5 155q0 70 26.5 147t85 142t147.5 95l46 -100q-87 -37 -131 -101.5t-44 -139.5q0 -12 1 -18q29 18 67 18q53 0 90 -34z" />
    <glyph glyph-name="quotedblright" unicode="&#x201d;" horiz-adv-x="1058" 
d="M443.5 1526.5q45.5 -66.5 45.5 -158.5q0 -71 -28 -146.5t-86.5 -138t-146.5 -91.5l-44 100q59 20 102.5 59t66 87.5t22.5 97.5q0 9 -2 25q-34 -28 -79 -28q-36 0 -65.5 18.5t-47 48.5t-17.5 65q0 55 38.5 91.5t97.5 36.5q98 0 143.5 -66.5zM853.5 1526.5
q45.5 -66.5 45.5 -158.5q0 -71 -28 -146.5t-87 -138t-147 -91.5l-43 100q59 20 102.5 59t66 87.5t22.5 97.5q0 9 -2 25q-36 -28 -80 -28q-36 0 -65.5 18.5t-47 48.5t-17.5 65q0 54 38.5 91t97.5 37q99 0 144.5 -66.5z" />
    <glyph glyph-name="quotedblbase" unicode="&#x201e;" horiz-adv-x="1138" 
d="M484.5 175q45.5 -63 45.5 -155q0 -70 -26.5 -147t-85 -142t-147.5 -95l-46 100q87 37 131 101.5t44 139.5q0 12 -1 18q-28 -18 -67 -18q-53 0 -90 34t-37 91q0 60 39.5 97.5t99.5 37.5q95 1 140.5 -62zM894.5 175q45.5 -63 45.5 -155q0 -70 -26.5 -147t-85 -142
t-147.5 -95l-46 100q87 37 131 101.5t44 139.5q0 12 -1 18q-28 -18 -67 -18q-53 0 -90 34t-37 91q0 60 39.5 97.5t99.5 37.5q95 1 140.5 -62z" />
    <glyph glyph-name="dagger" unicode="&#x2020;" horiz-adv-x="933" 
d="M380 956h-266v173h266v441h173v-441h266v-173h-266v-1184h-173v1184z" />
    <glyph glyph-name="daggerdbl" unicode="&#x2021;" horiz-adv-x="1019" 
d="M423 214h-266v171h266v571h-266v173h266v441h173v-441h266v-173h-266v-571h266v-171h-266v-442h-173v442z" />
    <glyph glyph-name="bullet" unicode="&#x2022;" horiz-adv-x="922" 
d="M327.5 306.5q-60.5 35.5 -96 96t-35.5 132.5q0 71 35.5 132t96 96.5t132.5 35.5q71 0 132 -35.5t96.5 -96.5t35.5 -132q0 -72 -35.5 -132.5t-96.5 -96t-132 -35.5q-72 0 -132.5 35.5z" />
    <glyph glyph-name="ellipsis" unicode="&#x2026;" horiz-adv-x="1622" 
d="M288.5 -7.5q-30.5 17.5 -48 48t-17.5 66.5q0 34 17.5 63.5t48 46.5t66.5 17q53 0 90 -37t37 -90q0 -36 -17 -66.5t-46 -48t-64 -17.5q-36 0 -66.5 17.5zM746.5 -7q-30.5 18 -48.5 48t-18 66q0 34 18 63.5t48.5 46.5t65.5 17t65 -17t47.5 -46.5t17.5 -63.5
q0 -36 -17.5 -66t-47.5 -48t-65 -18t-65.5 18zM1204.5 -7.5q-29.5 17.5 -47 48t-17.5 66.5q0 35 17.5 64t47 46t65.5 17q34 0 64 -17t47.5 -46.5t17.5 -63.5q0 -36 -17.5 -66t-47.5 -48t-64 -18q-36 0 -65.5 17.5z" />
    <glyph glyph-name="perthousand" unicode="&#x2030;" horiz-adv-x="2371" 
d="M279 925q-70 49 -106 130.5t-36 177.5q0 95 35.5 176.5t103.5 130t161 48.5q87 0 156.5 -46.5t109 -128t39.5 -182.5t-38.5 -182t-106.5 -127t-153 -46q-95 0 -165 49zM1217 1570h135l-904 -1570h-134zM530.5 1033q38.5 29 60 81t21.5 117t-21 117t-60.5 82.5t-93.5 30.5
q-56 0 -94.5 -31.5t-57.5 -83t-19 -113.5q0 -97 45.5 -163t132.5 -66q48 0 86.5 29zM1067 31q-69 49 -105 130.5t-36 177.5q0 95 35.5 176.5t103 130t159.5 48.5q88 0 157.5 -46.5t108.5 -128t39 -182.5t-38.5 -182t-106.5 -127t-153 -46q-95 0 -164 49zM1771.5 31
q-69.5 49 -106 130.5t-36.5 177.5q0 95 35.5 176.5t103.5 130t162 48.5q87 0 156.5 -46.5t109 -128t39.5 -182.5t-38.5 -182t-107 -127t-153.5 -46q-95 0 -164.5 49zM1319 138.5q39 29.5 61 81.5t22 117q0 64 -21 116.5t-61.5 83t-95.5 30.5q-56 0 -94 -31.5t-57 -83.5
t-19 -113q0 -98 45.5 -164t131.5 -66q49 0 88 29.5zM2022.5 138.5q38.5 29.5 60.5 81.5t22 117q0 64 -21 116.5t-60.5 83t-93.5 30.5q-56 0 -94.5 -31.5t-57.5 -83.5t-19 -113q0 -98 45 -164t132 -66q48 0 86.5 29.5z" />
    <glyph glyph-name="guilsinglleft" unicode="&#x2039;" horiz-adv-x="689" 
d="M68 567l453 384v-166l-258 -218l258 -217v-166z" />
    <glyph glyph-name="guilsinglright" unicode="&#x203a;" horiz-adv-x="689" 
d="M168 350l258 217l-258 218v166l453 -384l-453 -383v166z" />
    <glyph glyph-name="fraction" unicode="&#x2044;" horiz-adv-x="335" 
d="M551 1570h136l-905 -1570h-135z" />
    <glyph glyph-name="Euro" unicode="&#x20ac;" horiz-adv-x="1459" 
d="M620.5 53.5q-115.5 71.5 -188 195t-104.5 283.5h-157v142h138q-4 38 -4 111q0 51 4 123h-138v146h159q34 158 107 279t186.5 189.5t263.5 68.5q136 0 244.5 -56.5t186.5 -164.5l-121 -96q-56 80 -134 121t-171 41q-158 0 -257.5 -105.5t-133.5 -276.5h521v-142h-546
q-7 -53 -7 -116q0 -42 4 -116h549v-141h-521q32 -190 130.5 -296t262.5 -106q190 0 296 159l114 -114q-75 -98 -181 -149t-233 -51q-154 0 -269.5 71.5z" />
    <glyph glyph-name="uni20B1" unicode="&#x20b1;" horiz-adv-x="1577" 
d="M1447 1056h-123q-18 -166 -120 -262q-67 -61 -174.5 -89.5t-307.5 -28.5h-189v-676h-196v1056h-169v114h169v400h385q197 0 302 -27t171 -84q118 -103 130 -289h122v-114zM533 1170h596q-12 94 -66 150q-32 29 -75.5 45t-113.5 23t-184 7h-157v-225zM1125 1056h-592v-207
h157q115 0 184.5 7.5t114 26t76.5 52.5q46 47 60 121z" />
    <glyph glyph-name="trademark" unicode="&#x2122;" horiz-adv-x="1750" 
d="M275 1463h-229v107h589v-107h-230v-733h-130v733zM792 1570h196l202 -601l200 601h196v-840h-130v701l-225 -641h-82l-230 648v-708h-127v840z" />
    <glyph glyph-name="uni2126" unicode="&#x2126;" horiz-adv-x="1695" 
d="M98 143h434l3 19q-115 66 -201.5 171t-134 231t-47.5 255q0 127 48.5 255.5t129.5 215.5q97 105 238.5 167.5t280.5 62.5t279.5 -62.5t236.5 -167.5q81 -88 129.5 -215.5t48.5 -257.5q0 -139 -45.5 -269t-128.5 -232.5t-193 -160.5v-16h421v-139h-609v187
q121 27 212 113.5t140.5 219.5t49.5 295q0 108 -34.5 207.5t-94.5 165.5q-77 85 -189.5 135.5t-222.5 50.5q-109 0 -223 -50.5t-191 -135.5q-60 -67 -95 -167t-35 -206q0 -156 49.5 -286.5t140.5 -219t213 -122.5v-187h-610v143z" />
    <glyph glyph-name="arrowleft" unicode="&#x2190;" horiz-adv-x="2269" 
d="M2123 612h-1233v-384l-774 455l774 455v-383h1233v-143z" />
    <glyph glyph-name="arrowright" unicode="&#x2192;" horiz-adv-x="2269" 
d="M1379 228v384h-1233v143h1233v383l774 -455z" />
    <glyph glyph-name="partialdiff" unicode="&#x2202;" horiz-adv-x="1495" 
d="M390.5 50.5q-111.5 64.5 -171.5 179t-60 262.5q0 184 82 329t220.5 226.5t300.5 81.5q218 0 351 -232q3 87 -14 161q-20 193 -110.5 291t-239.5 98q-102 0 -187 -49t-127 -158l-141 46q58 143 181 221.5t292 78.5q182 0 302 -93t177.5 -261.5t57.5 -396.5
q0 -240 -75 -432.5t-222 -304.5t-354 -112q-151 0 -262.5 64.5zM889.5 210.5q96.5 60.5 151.5 159.5t67 213q1 10 1 31q0 91 -34.5 173t-107 134.5t-182.5 52.5q-138 0 -240.5 -66t-156 -176t-53.5 -238q0 -108 43.5 -186t118.5 -118t167 -40q129 0 225.5 60.5z" />
    <glyph glyph-name="uni2206" unicode="&#x2206;" horiz-adv-x="1506" 
d="M753 1629l644 -1629h-1288zM1186 146l-433 1126l-432 -1126h865z" />
    <glyph glyph-name="product" unicode="&#x220f;" horiz-adv-x="1511" 
d="M305 1411h-109v159h1119v-159h-109v-1411h-159v1411h-583v-1411h-159v1411z" />
    <glyph glyph-name="summation" unicode="&#x2211;" horiz-adv-x="1475" 
d="M1322 1390h-880l587 -605l-587 -605h880v-180h-1183v109l635 676l-635 676v109h1183v-180z" />
    <glyph glyph-name="minus" unicode="&#x2212;" horiz-adv-x="1290" 
d="M225 771h840v-145h-840v145z" />
    <glyph glyph-name="radical" unicode="&#x221a;" horiz-adv-x="1411" 
d="M282 614h-170v160h284l198 -553l542 1349h170l-721 -1759z" />
    <glyph glyph-name="infinity" unicode="&#x221e;" horiz-adv-x="2214" 
d="M400.5 450q-97.5 54 -151 148.5t-53.5 213.5q0 120 53.5 215.5t151 149.5t225.5 54t253 -77.5t225 -211.5q106 136 231.5 212.5t252.5 76.5q128 0 225.5 -54t151 -149.5t53.5 -215.5q0 -119 -53.5 -213.5t-151 -148.5t-225.5 -54q-129 0 -254.5 76t-229.5 211
q-99 -135 -223.5 -211t-254.5 -76q-128 0 -225.5 54zM839.5 616q98.5 68 179.5 196q-80 130 -178.5 197t-191.5 67q-83 0 -148 -32.5t-101 -92.5t-36 -139q0 -77 36.5 -137t101 -93.5t147.5 -33.5q92 0 190.5 68zM1712.5 581.5q64.5 33.5 101 93.5t36.5 137q0 79 -36 139
t-100.5 92.5t-147.5 32.5q-96 0 -196 -70t-182 -194q84 -124 183.5 -194t194.5 -70q82 0 146.5 33.5z" />
    <glyph glyph-name="integral" unicode="&#x222b;" horiz-adv-x="1104" 
d="M98 -362q130 0 207 32t112.5 102t35.5 187v1299q0 97 43 175t116.5 122.5t161.5 44.5q63 0 125 -24t116 -70l-103 -120q-67 54 -138 54q-44 0 -81 -22t-59 -64t-22 -100v-1300q0 -234 -134 -354.5t-380 -120.5v159z" />
    <glyph glyph-name="approxequal" unicode="&#x2248;" horiz-adv-x="1290" 
d="M732.5 809q-44.5 22 -73 53t-62.5 81q-28 41 -47 63t-45 37t-61 15q-61 0 -95.5 -57t-34.5 -157h-146q0 102 34.5 180t97 121t144.5 43q66 0 113 -23t76 -55t64 -83q27 -39 44.5 -60t42 -35.5t56.5 -14.5q39 0 69.5 30.5t47.5 84.5t17 124h146q0 -108 -35 -192
t-98.5 -130.5t-146.5 -46.5q-63 0 -107.5 22zM732.5 300q-44.5 22 -72.5 52.5t-63 80.5q-28 41 -47 63t-45 37t-61 15q-61 0 -95.5 -57.5t-34.5 -155.5h-146q0 101 34.5 178.5t97 120t144.5 42.5q66 0 113 -22.5t76 -54.5t64 -82q27 -39 44.5 -60t42 -35.5t56.5 -14.5
q39 0 69.5 30.5t47.5 84.5t17 124h146q0 -108 -35 -191.5t-98.5 -130t-146.5 -46.5q-63 0 -107.5 22z" />
    <glyph glyph-name="notequal" unicode="&#x2260;" horiz-adv-x="1290" 
d="M378 437h-180v161h275l169 296h-444v162h542l293 514h134l-293 -514h214v-162h-312l-168 -296h480v-161h-576l-248 -437h-137z" />
    <glyph glyph-name="lessequal" unicode="&#x2264;" horiz-adv-x="1290" 
d="M27 878l1136 647l70 -123l-914 -524l914 -523l-70 -125zM-2 0h1263v-143h-1263v143z" />
    <glyph glyph-name="greaterequal" unicode="&#x2265;" horiz-adv-x="1290" 
d="M57 355l914 523l-914 524l70 123l1136 -647l-1136 -648zM29 -143v143h1263v-143h-1263z" />
    <glyph glyph-name="lozenge" unicode="&#x25ca;" horiz-adv-x="1345" 
d="M123 785l419 785h261l419 -785l-419 -785h-261zM687 102l348 683l-348 683h-32l-346 -683l346 -683h32z" />
    <glyph glyph-name="uniF8FF" unicode="&#xf8ff;" horiz-adv-x="1989" 
d="M562.5 47.5q-197.5 115.5 -313 313t-115.5 431.5t115.5 431.5t313 313t431.5 115.5t432 -115.5t313.5 -313t115.5 -431.5t-115.5 -431.5t-313.5 -313t-432 -115.5t-431.5 115.5zM1386.5 116q179.5 105 284 284t104.5 392t-104.5 392t-284 283.5t-392.5 104.5t-392 -104.5
t-283.5 -283.5t-104.5 -392t104.5 -392t284 -284t391.5 -105q213 0 392.5 105zM518.5 466q-11.5 11 -11.5 28v596q0 17 12 29t27 12q17 0 29 -12t12 -29v-596q0 -17 -12 -28t-29 -11q-16 0 -27.5 11zM966.5 466q-10.5 11 -10.5 28v596q0 17 11 29t27 12q17 0 28 -12t11 -29
v-596q0 -17 -11 -28t-28 -11t-27.5 11zM1415 466l-300 299q-9 12 -9 27q0 18 9 27l300 298q11 14 25 14q16 0 28.5 -13t12.5 -28q0 -16 -11 -27l-271 -271l271 -271q11 -11 11 -27t-12.5 -27.5t-28.5 -11.5t-25 11zM668.5 764q-10.5 11 -10.5 28t10.5 28t27.5 11h148
q17 0 29 -11t12 -28t-12 -28t-29 -11h-148q-17 0 -27.5 11z" />
    <glyph glyph-name="i.loclTRK" horiz-adv-x="567" 
d="M189 1110h189v-1110h-189v1110zM192.5 1370.5q-37.5 37.5 -37.5 92.5q0 35 17 65t47 47.5t65 17.5t65 -17.5t47.5 -47.5t17.5 -65q0 -36 -17.5 -65.5t-47.5 -47t-65 -17.5q-54 0 -91.5 37.5z" />
    <glyph glyph-name="g.ss01" horiz-adv-x="1333" 
d="M421 -448.5q-94 29.5 -162.5 86.5t-126.5 146l139 114q126 -212 359 -212q158 0 242 88.5t84 252.5v80h-14q-72 -65 -150.5 -95t-206.5 -30q-147 0 -257 70t-170 200t-60 303q0 174 60 303.5t170.5 200t258.5 70.5q115 0 206 -34.5t149 -95.5h14l16 111h173v-1083
q0 -160 -59.5 -273.5t-171.5 -172.5t-270 -59q-129 0 -223 29.5zM809.5 191q77.5 50 120 143.5t42.5 220.5q0 126 -42.5 219.5t-120 144t-179.5 50.5q-103 0 -180.5 -50.5t-120 -144t-42.5 -219.5t42.5 -219.5t120 -144t180.5 -50.5q102 0 179.5 50z" />
    <glyph glyph-name="gbreve.ss01" horiz-adv-x="1333" 
d="M421 -448.5q-94 29.5 -162.5 86.5t-126.5 146l139 114q126 -212 359 -212q158 0 242 88.5t84 252.5v80h-14q-72 -65 -150.5 -95t-206.5 -30q-147 0 -257 70t-170 200t-60 303q0 174 60 303.5t170.5 200t258.5 70.5q115 0 206 -34.5t149 -95.5h14l16 111h173v-1083
q0 -160 -59.5 -273.5t-171.5 -172.5t-270 -59q-129 0 -223 29.5zM809.5 191q77.5 50 120 143.5t42.5 220.5q0 126 -42.5 219.5t-120 144t-179.5 50.5q-103 0 -180.5 -50.5t-120 -144t-42.5 -219.5t42.5 -219.5t120 -144t180.5 -50.5q102 0 179.5 50zM410.5 1340.5
q-85.5 82.5 -85.5 229.5h134q0 -101 54.5 -149.5t152.5 -48.5q100 0 154 49.5t54 148.5h136q0 -150 -88 -231t-256 -81q-170 0 -255.5 82.5z" />
    <glyph glyph-name="uni0123.ss01" horiz-adv-x="1333" 
d="M421 -448.5q-94 29.5 -162.5 86.5t-126.5 146l139 114q126 -212 359 -212q158 0 242 88.5t84 252.5v80h-14q-72 -65 -150.5 -95t-206.5 -30q-147 0 -257 70t-170 200t-60 303q0 174 60 303.5t170.5 200t258.5 70.5q115 0 206 -34.5t149 -95.5h14l16 111h173v-1083
q0 -160 -59.5 -273.5t-171.5 -172.5t-270 -59q-129 0 -223 29.5zM809.5 191q77.5 50 120 143.5t42.5 220.5q0 126 -42.5 219.5t-120 144t-179.5 50.5q-103 0 -180.5 -50.5t-120 -144t-42.5 -219.5t42.5 -219.5t120 -144t180.5 -50.5q102 0 179.5 50zM729 1432
q30 -15 47.5 -40.5t17.5 -55.5q0 -46 -41 -77.5t-100 -31.5q-95 0 -139.5 50t-44.5 121q0 54 26.5 115t85 112t147.5 73l43 -90q-58 -13 -101.5 -40t-66.5 -61.5t-23 -67.5q0 -11 1 -16q38 24 83 24q35 0 65 -15z" />
    <glyph glyph-name="gdotaccent.ss01" horiz-adv-x="1333" 
d="M421 -448.5q-94 29.5 -162.5 86.5t-126.5 146l139 114q126 -212 359 -212q158 0 242 88.5t84 252.5v80h-14q-72 -65 -150.5 -95t-206.5 -30q-147 0 -257 70t-170 200t-60 303q0 174 60 303.5t170.5 200t258.5 70.5q115 0 206 -34.5t149 -95.5h14l16 111h173v-1083
q0 -160 -59.5 -273.5t-171.5 -172.5t-270 -59q-129 0 -223 29.5zM809.5 191q77.5 50 120 143.5t42.5 220.5q0 126 -42.5 219.5t-120 144t-179.5 50.5q-103 0 -180.5 -50.5t-120 -144t-42.5 -219.5t42.5 -219.5t120 -144t180.5 -50.5q102 0 179.5 50zM577.5 1370.5
q-37.5 37.5 -37.5 92.5q0 35 17 65t47 47.5t65 17.5t65 -17.5t47.5 -47.5t17.5 -65q0 -36 -17.5 -65.5t-47.5 -47t-65 -17.5q-54 0 -91.5 37.5z" />
    <glyph glyph-name="T_h" horiz-adv-x="2378" 
d="M2182.5 901q31.5 -90 31.5 -239v-662h-189v621q0 119 -18 183t-57 102q-66 63 -191 63q-135 0 -205 -82q-40 -44 -56.5 -108.5t-16.5 -173.5v-605h-189l2 1395h-507v-1395h-195v1395h-531v175h1422l-2 -560h16q49 50 133.5 84.5t189.5 34.5q163 0 264 -82
q67 -56 98.5 -146z" />
    <glyph glyph-name="f_f_t" horiz-adv-x="1948" 
d="M1880 5q-26 -9 -72 -16t-92 -7q-154 0 -236.5 85t-82.5 242v642h-387v-951h-189v951h-416v-951h-187v951h-191v159h191v96q0 117 58 203.5t157 132.5t220 46q82 0 159.5 -21.5t141.5 -64.5q110 86 295 86q92 0 183 -24t152 -62v-392h271v-159h-271v-616q0 -86 35.5 -140
t132.5 -54q48 0 96 16zM821 1199q0 107 38 186q-86 51 -197 51q-122 0 -189.5 -63t-67.5 -169v-94h416v89zM1402 1395q-30 20 -71.5 30.5t-85.5 10.5q-119 0 -177 -60t-58 -181v-85h392v285z" />
    <glyph glyph-name="f_t" horiz-adv-x="1338" 
d="M869.5 67q-82.5 85 -82.5 242v642h-387v-951h-188v951h-185v159h185v89q0 125 52.5 212.5t148.5 132t226 44.5q93 0 183.5 -24t151.5 -62v-392h271v-159h-271v-616q0 -86 35.5 -140t132.5 -54q48 0 96 16l32 -152q-26 -9 -72 -16t-92 -7q-154 0 -236.5 85zM792 1110v285
q-30 20 -71.5 30.5t-85.5 10.5q-119 0 -177 -60t-58 -181v-85h392z" />
    <glyph glyph-name="t_t" horiz-adv-x="1409" 
d="M1340 5q-29 -10 -73.5 -16.5t-90.5 -6.5q-110 0 -181.5 46t-104 120t-32.5 161v642h-442v-616q0 -194 162 -194q52 0 100 16l32 -152q-29 -10 -73.5 -16.5t-90.5 -6.5q-110 0 -181.5 46t-104 120t-32.5 161v642h-182v159h184v294l186 137v-431h444v294l186 137v-431h269
v-159h-269v-616q0 -194 162 -194q52 0 100 16z" />
    <glyph glyph-name="zero.lf" horiz-adv-x="1277" 
d="M333 103.5q-108 121.5 -141 294t-33 387.5q0 218 32 390.5t137.5 294t308.5 121.5q279 0 383 -228.5t104 -579.5q0 -347 -101.5 -574t-374.5 -227q-207 0 -315 121.5zM825.5 241.5q60.5 91.5 78 225.5t17.5 320q0 188 -17.5 320t-80 221.5t-186.5 89.5t-186.5 -89.5
t-80 -222t-17.5 -321.5q0 -187 18 -320.5t82 -224t191 -90.5q121 0 181.5 91.5z" />
    <glyph glyph-name="one.lf" horiz-adv-x="869" 
d="M639 1570v-1570h-196v1170h-384v150h248q79 0 112 29.5t33 97.5v123h187z" />
    <glyph glyph-name="two.lf" horiz-adv-x="1290" 
d="M107 166l489 423q109 95 177.5 170t108.5 160t40 185q0 89 -34 158.5t-100 109t-160 39.5q-108 0 -179.5 -51t-106.5 -137t-37 -194l-191 11q0 152 61.5 277t180.5 198t283 73q148 0 256 -62.5t164 -170.5t56 -242q0 -113 -42.5 -216.5t-129 -207t-224.5 -223.5
l-309 -268v-21h785v-177h-1088v166z" />
    <glyph glyph-name="three.lf" horiz-adv-x="1320" 
d="M362 39q-127 57 -200 169t-73 270l186 9q0 -101 47.5 -174t132.5 -112t196 -39q104 0 188 36t132.5 104.5t48.5 163.5q0 128 -81 191t-211 80q-69 9 -184 9v160q124 0 184 16q207 45 207 232q0 78 -37.5 135t-103 87t-148.5 30q-88 0 -155.5 -33t-105 -95t-37.5 -145
l-186 12q0 135 63.5 235.5t173.5 154t245 53.5q129 0 239 -51t175.5 -144.5t65.5 -216.5q0 -117 -61 -202t-155 -130v-9q84 -25 151.5 -76.5t107 -129.5t39.5 -178q0 -146 -74.5 -252t-201 -161.5t-281.5 -55.5q-160 0 -287 57z" />
    <glyph glyph-name="four.lf" horiz-adv-x="1333" 
d="M823 373h-764v119l787 1078h173v-1019h253v-178h-253v-373h-196v373zM823 551v707h-11l-501 -700l7 -7h505z" />
    <glyph glyph-name="five.lf" horiz-adv-x="1318" 
d="M944 980q118 -67 187.5 -187.5t69.5 -273.5q0 -154 -71 -276.5t-196 -191.5t-279 -69q-139 0 -253.5 54.5t-189.5 153t-99 226.5l185 48q14 -89 63 -157t124.5 -105.5t167.5 -37.5q102 0 184 46t128.5 127.5t46.5 183.5q0 101 -44.5 181.5t-124 126t-179.5 45.5
q-104 0 -188 -48.5t-135 -136.5l-182 57l136 824h829v-180h-676l-69 -447q65 52 143 78t163 26q141 0 259 -67z" />
    <glyph glyph-name="six.lf" horiz-adv-x="1267" 
d="M912.5 971q123.5 -69 194 -190t70.5 -271t-70.5 -270.5t-193.5 -189t-275 -68.5q-154 0 -278.5 69t-195 187t-70.5 260q0 84 24 168.5t67 154.5l459 749h223l-331 -540q46 10 99 10q154 0 277.5 -69zM816 209q81 45 127.5 124.5t46.5 178.5q0 98 -46.5 177t-127.5 124
t-181 45q-99 0 -180 -45.5t-128 -125t-47 -177.5t46.5 -177t127.5 -124t181 -45t181 45z" />
    <glyph glyph-name="seven.lf" horiz-adv-x="1242" 
d="M942 1379v11h-885v180h1126v-109l-746 -1461h-216z" />
    <glyph glyph-name="eight.lf" horiz-adv-x="1320" 
d="M393 34q-124 52 -200.5 156.5t-76.5 253.5q0 139 71 244t198 159v9q-85 50 -133.5 136t-48.5 194q0 123 64.5 214.5t169.5 139.5t223 48q124 0 229 -49.5t167 -142t62 -215.5q0 -106 -49 -191.5t-133 -133.5v-9q125 -54 195.5 -159t70.5 -244q0 -149 -75.5 -253.5
t-199.5 -156.5t-267 -52t-267 52zM803 954.5q61 30.5 95.5 84.5t34.5 124q0 74 -34 131.5t-95 89t-141 31.5q-76 0 -137.5 -30t-97.5 -85.5t-36 -129.5q0 -73 34 -129t95.5 -86.5t141.5 -30.5q79 0 140 30.5zM837.5 191q78.5 36 123.5 104.5t45 161.5q0 92 -43.5 161.5
t-121.5 108t-181 38.5t-181 -38.5t-121.5 -108t-43.5 -161.5q0 -93 45.5 -161.5t124.5 -104.5t176 -36q99 0 177.5 36z" />
    <glyph glyph-name="nine.lf" horiz-adv-x="1267" 
d="M908.5 1519q124.5 -69 195 -187t70.5 -260q0 -84 -24 -168.5t-67 -154.5l-459 -749h-223l331 540q-46 -10 -99 -10q-154 0 -277.5 69t-194 190t-70.5 271t70.5 270.5t193.5 189t275 68.5q154 0 278.5 -69zM813 757.5q81 45.5 128 125t47 177.5t-46.5 177t-127.5 124
t-181 45t-181 -45t-127.5 -124.5t-46.5 -178.5q0 -98 46.5 -177t127.5 -124t181 -45q99 0 180 45.5z" />
    <glyph glyph-name="caroncomb.alt" 
d="M-166 1524q46 -67 46 -161q0 -70 -28 -145t-86.5 -137t-146.5 -91l-44 100q59 20 102.5 58.5t66 86.5t22.5 96q0 10 -2 28q-36 -28 -79 -28q-36 0 -65.5 17.5t-47 48t-17.5 66.5q0 55 38 91.5t96 36.5q99 0 145 -67z" />
    <glyph glyph-name="uni0308.case" 
d="M-759 1266.5q-30 17.5 -47 48t-17 66.5q0 53 37.5 90.5t91.5 37.5q35 0 65 -17t47.5 -46.5t17.5 -64.5q0 -36 -17.5 -66t-47.5 -48t-65 -18t-65 17.5zM-340.5 1266.5q-29.5 17.5 -47 48t-17.5 66.5q0 53 37.5 90.5t92.5 37.5q35 0 65 -17t47.5 -46.5t17.5 -64.5
q0 -36 -17.5 -66t-47.5 -48t-65 -18q-36 0 -65.5 17.5z" />
    <glyph glyph-name="uni0307.case" 
d="M-341 1266.5q-30 17.5 -47 48t-17 66.5q0 53 37.5 90.5t91.5 37.5q35 0 65 -17t47.5 -46.5t17.5 -64.5q0 -36 -17.5 -66t-47.5 -48t-65 -18t-65 17.5z" />
    <glyph glyph-name="uni0337.case" 
d="M-740 749l671 532v-209l-671 -535v212z" />
    <glyph glyph-name="uni0338.case" 
d="M-1115 32l985 1593l125 -78l-983 -1593z" />
    <glyph glyph-name="basegreaterlessthan" horiz-adv-x="1261" 
d="M0 0h1261v-143h-1261v143z" />
    <glyph glyph-name="_global" horiz-adv-x="1686" 
 />
    </font>
</defs>
</svg>
