<?xml version="1.0" standalone="no"?>
<!DOCTYPE svg PUBLIC "-//W3C//DTD SVG 1.1//EN" "http://www.w3.org/Graphics/SVG/1.1/DTD/svg11.dtd" >
<svg xmlns="http://www.w3.org/2000/svg" xmlns:xlink="http://www.w3.org/1999/xlink" version="1.1">
<metadata>
Created by FontForge 20170731 at Tue Feb 19 21:55:41 2019
 By Aleksey,,,
Copyright (c) 2019 Hanken Grotesk by Alfredo Marco Pradil. All rights reserved.
</metadata>
<defs>
<font id="HankenGrotesk-Black" horiz-adv-x="0" >
  <font-face 
    font-family="Hanken Grotesk Black"
    font-weight="900"
    font-stretch="normal"
    units-per-em="2048"
    panose-1="0 0 10 0 0 0 0 0 0 0"
    ascent="1570"
    descent="-478"
    x-height="1110"
    cap-height="1570"
    bbox="-1634 -655 2883 2490"
    underline-thickness="91"
    underline-position="-363"
    unicode-range="U+0020-FB02"
  />
<missing-glyph horiz-adv-x="1179" 
d="M134 1060h910v-1060h-910v1060zM931 114v833h-683v-833h683z" />
    <glyph glyph-name="fi" unicode="fi" horiz-adv-x="1261" 
d="M1133 0h-273v876h-359v-876h-296v876h-180v234h180v78q0 123 66 215.5t182.5 142t263.5 49.5q122 0 231.5 -33t191.5 -85l-136 -210q-66 43 -139.5 66t-147.5 23q-112 0 -164 -48t-52 -125v-73h632v-1110z" />
    <glyph glyph-name="fl" unicode="fl" horiz-adv-x="1418" 
d="M988.5 27.5q-76.5 52.5 -76.5 190.5v1104q-43 15 -94 24.5t-99 9.5q-66 0 -111 -17.5t-69 -48.5q-24 -30 -30 -65.5t-6 -86.5v-28h221v-234h-221v-876h-296v876h-182v234h182v32q0 84 21 167t97 156q70 66 172 98t240 32q121 0 227 -27t247 -93v-1186q0 -34 21 -49
t54 -15q26 0 57 9l41 -223q-42 -15 -100.5 -25.5t-107.5 -10.5q-111 0 -187.5 52.5z" />
    <glyph glyph-name="f_f" unicode="ff" horiz-adv-x="1388" 
d="M205 876h-180v234h180v76q0 125 65.5 218t175.5 142t239 49q81 0 159.5 -20.5t140.5 -58.5q109 79 239 79q104 0 205 -48l-96 -243q-19 12 -41 19.5t-40 7.5q-34 0 -59.5 -27.5t-25.5 -79.5v-114h189v-234h-189v-876h-307v876h-359v-876h-296v876zM862 1110v144
q0 41 3 66q-83 36 -166 36q-100 0 -149 -48t-49 -127v-71h361z" />
    <glyph glyph-name="f_f_i" unicode="ffi" horiz-adv-x="1932" 
d="M205 876h-180v234h180v76q0 125 65.5 218t175.5 142t239 49q88 0 175.5 -25t158.5 -73q73 50 155.5 74t190.5 24q241 0 430 -118l-136 -210q-65 44 -139 66.5t-148 22.5q-111 0 -163.5 -47.5t-52.5 -125.5v-73h655v-1110h-295v876h-360v-876h-296v876h-359v-876h-296v876
zM860 1110v78q0 56 18 123q-34 20 -82 32.5t-97 12.5q-100 0 -149 -48t-49 -127v-71h359z" />
    <glyph glyph-name="f_f_l" unicode="ffl" horiz-adv-x="2016" 
d="M1982 11q-43 -16 -101 -26t-111 -10q-105 0 -179.5 53t-74.5 190v1118q-82 20 -155 20q-101 0 -153 -48.5t-52 -124.5v-73h205v-234h-205v-876h-296v876h-359v-876h-296v876h-180v234h180v76q0 125 65.5 218t175.5 142t239 49q85 0 173.5 -25t159.5 -73q67 47 156 72.5
t194 25.5q121 0 233 -33t210 -94v-1179q0 -33 21.5 -48.5t53.5 -15.5q25 0 55 9zM860 1110v78q0 65 18 120q-34 21 -80.5 34.5t-98.5 13.5q-100 0 -149 -48t-49 -127v-71h359z" />
    <glyph glyph-name="h_d_c_o.liga" unicode="hdco" horiz-adv-x="1907" 
d="M521.5 47.5q-197.5 115.5 -313 313t-115.5 431.5t115.5 431.5t313 313t431.5 115.5t432 -115.5t313.5 -313t115.5 -431.5t-115.5 -431.5t-313.5 -313t-432 -115.5t-431.5 115.5zM1345.5 116q179.5 105 284 284t104.5 392t-104.5 392t-284 283.5t-392.5 104.5t-392 -104.5
t-283.5 -283.5t-104.5 -392t104.5 -392t284 -284t391.5 -105q213 0 392.5 105zM477.5 466q-11.5 11 -11.5 28v596q0 17 12 29t27 12q17 0 29 -12t12 -29v-596q0 -17 -12 -28t-29 -11q-16 0 -27.5 11zM925.5 466q-10.5 11 -10.5 28v596q0 17 11 29t27 12q17 0 28 -12t11 -29
v-596q0 -17 -11 -28t-28 -11t-27.5 11zM1368 469l-289 289q-14 14 -14 32q0 17 14 31l289 289q13 14 29 14q18 0 27 -11q12 -12 12 -28q0 -15 -14 -29l-266 -266l266 -267q14 -14 14 -29q0 -16 -12 -28q-11 -11 -27 -11q-15 0 -29 14zM627.5 764q-10.5 11 -10.5 28t10.5 28
t27.5 11h148q17 0 29 -11t12 -28t-12 -28t-29 -11h-148q-17 0 -27.5 11z" />
    <glyph glyph-name="hyphen_hyphen.liga" unicode="&#x2d;&#x2d;" horiz-adv-x="1138" 
d="M0 769h1138v-205h-1138v205z" />
    <glyph glyph-name="hyphen_hyphen_hyphen.liga" unicode="&#x2d;&#x2d;&#x2d;" horiz-adv-x="2276" 
d="M0 769h2276v-205h-2276v205z" />
    <glyph glyph-name="hyphen_greater.liga" unicode="&#x2d;&#x3e;" horiz-adv-x="2339" 
d="M1322 143v465h-1234v204h1234v465l967 -567z" />
    <glyph glyph-name="parenleft_c_parenright.liga" unicode="&#x28;c&#x29;" horiz-adv-x="1877" 
d="M514.5 77.5q-194.5 109.5 -308 297t-113.5 410.5t113.5 410.5t308 297t425.5 109.5q229 0 423 -109.5t307.5 -297t113.5 -410.5t-113.5 -410.5t-307.5 -297t-423 -109.5q-231 0 -425.5 109.5zM1279 226q155 87 246 235t91 324t-91 324t-246 235t-339 87
q-185 0 -340.5 -87t-246.5 -235t-91 -324t91 -324t246.5 -235t340.5 -87q184 0 339 87zM720 375q-100 66 -149.5 174.5t-49.5 233.5q0 124 49 232.5t148.5 175.5t241.5 67q140 0 242.5 -67t153.5 -201l-211 -82q-19 66 -68.5 108t-116.5 42q-72 0 -120.5 -39t-71 -101.5
t-22.5 -134.5q0 -115 53 -193t161 -78q67 0 116.5 40t68.5 106l200 -78q-44 -128 -145 -199.5t-237 -71.5q-143 0 -243 66z" />
    <glyph glyph-name="parenleft_p_parenright.liga" unicode="&#x28;p&#x29;" horiz-adv-x="1877" 
d="M514.5 77.5q-194.5 109.5 -308 297t-113.5 410.5t113.5 410.5t308 297t425.5 109.5q229 0 423 -109.5t307.5 -297t113.5 -410.5t-113.5 -410.5t-307.5 -297t-423 -109.5q-231 0 -425.5 109.5zM1279 226q155 87 246 235t91 324t-91 324t-246 235t-339 87
q-185 0 -340.5 -87t-246.5 -235t-91 -324t91 -324t246.5 -235t340.5 -87q184 0 339 87zM767 1183l551 -396l-551 -398v794z" />
    <glyph glyph-name="parenleft_r_parenright.liga" unicode="&#x28;r&#x29;" horiz-adv-x="1877" 
d="M514.5 77.5q-194.5 109.5 -308 297t-113.5 410.5t113.5 410.5t308 297t425.5 109.5q229 0 423 -109.5t307.5 -297t113.5 -410.5t-113.5 -410.5t-307.5 -297t-423 -109.5q-231 0 -425.5 109.5zM1279 226q155 87 246 235t91 324t-91 324t-246 235t-339 87
q-185 0 -340.5 -87t-246.5 -235t-91 -324t91 -324t246.5 -235t340.5 -87q184 0 339 87zM658 1249h300q95 0 168.5 -34.5t115 -97t41.5 -143.5t-47 -145.5t-128 -95.5l255 -412h-205l-225 394h-48h-50v-394h-177v928zM974 860q62 4 97 34t35 78q0 54 -39 86t-107 32h-125
v-230h139z" />
    <glyph glyph-name="less_hyphen.liga" unicode="&#x3c;&#x2d;" horiz-adv-x="2339" 
d="M2251 564h-1234v-464l-967 567l967 566v-464h1234v-205z" />
    <glyph glyph-name=".notdef" horiz-adv-x="1179" 
d="M134 1060h910v-1060h-910v1060zM931 114v833h-683v-833h683z" />
    <glyph glyph-name=".null" 
 />
    <glyph glyph-name="nonmarkingreturn" horiz-adv-x="682" 
 />
    <glyph glyph-name="space" unicode=" " horiz-adv-x="548" 
 />
    <glyph glyph-name="exclam" unicode="!" horiz-adv-x="685" 
d="M205 1570h268l-32 -1094h-204zM254.5 -0.5q-38.5 22.5 -61 61.5t-22.5 85q0 45 22.5 83t61 60.5t84.5 22.5q45 0 83 -22.5t60.5 -60.5t22.5 -83q0 -46 -22.5 -85t-60.5 -61.5t-83 -22.5q-46 0 -84.5 22.5z" />
    <glyph glyph-name="quotedbl" unicode="&#x22;" horiz-adv-x="1001" 
d="M193 1570h228v-721h-228v721zM580 1570h228v-721h-228v721z" />
    <glyph glyph-name="numbersign" unicode="#" horiz-adv-x="1536" 
d="M346 460h-257v191h298l61 291h-268v200h309l100 428h214l-98 -437h278l93 437h214l-100 -437h260v-191h-301l-64 -291h274v-191h-315l-97 -460h-212l98 460h-278l-95 -460h-212zM878 651l60 291h-278l-59 -291h277z" />
    <glyph glyph-name="dollar" unicode="$" horiz-adv-x="1290" 
d="M1155.5 226q-59.5 -109 -170 -172t-259.5 -72v-273h-114v273q-137 11 -254.5 66.5t-197.5 158.5t-103 248l334 84q10 -115 68.5 -178.5t152.5 -78.5v410l-32 12q-137 51 -222 97t-145.5 130.5t-60.5 217.5q0 134 61.5 231t166 151t232.5 62v250h114v-252
q133 -14 244.5 -84t183.5 -196l-280 -171q-25 51 -64 87.5t-84 54.5v-307l29 -10q144 -49 235.5 -97t158 -142.5t66.5 -247.5q0 -143 -59.5 -252zM520.5 1080q31.5 -34 91.5 -62v276q-55 -10 -89 -45t-34 -86q0 -49 31.5 -83zM843 338.5q38 44.5 38 107.5q0 69 -40 115.5
t-115 82.5v-362q79 12 117 56.5z" />
    <glyph glyph-name="percent" unicode="%" horiz-adv-x="1597" 
d="M258.5 907.5q-76.5 45.5 -121 129t-44.5 194.5q0 108 43.5 191t118.5 128t168 45q94 0 170.5 -48.5t120.5 -132.5t44 -187q0 -101 -43 -184.5t-118 -132t-167 -48.5q-95 0 -171.5 45.5zM1174 1570h228l-974 -1570h-228zM488 1095.5q26 19.5 41 54t15 77.5q0 72 -34.5 112
t-86.5 40q-50 0 -82 -37.5t-32 -110.5q0 -76 34 -115.5t87 -39.5q32 0 58 19.5zM1004.5 20.5q-76.5 45.5 -120.5 129t-44 194.5q0 109 43 191.5t118 127.5t169 45t170.5 -48.5t120 -132.5t43.5 -186q0 -100 -42.5 -184t-117.5 -133t-168 -49q-95 0 -171.5 45.5zM1256 234
q32 43 32 107q0 70 -33.5 111.5t-84.5 41.5t-83.5 -38.5t-32.5 -111.5q0 -76 34 -114.5t88 -38.5q48 0 80 43z" />
    <glyph glyph-name="ampersand" unicode="&#x26;" horiz-adv-x="1609" 
d="M1293 -89l-184 209q-103 -75 -225.5 -111t-255.5 -36q-153 0 -275 45.5t-193 136.5t-71 223q0 108 48 194.5t124 152t182 130.5q-177 172 -177 362q0 113 63.5 198t165.5 130.5t215 45.5q122 0 221.5 -51t156.5 -138.5t57 -193.5q0 -119 -67.5 -214.5t-185.5 -184.5
l193 -213h21q51 138 55 307l307 -34q-29 -315 -155 -523l207 -232zM610.5 1112q32.5 -60 75.5 -110q78 52 119.5 102.5t41.5 108.5q0 53 -34.5 89t-102.5 36q-56 0 -94 -30.5t-38 -80.5q0 -55 32.5 -115zM789.5 246q74.5 28 137.5 81l-281 319q-121 -78 -183.5 -141.5
t-62.5 -135.5q0 -77 68.5 -114t164.5 -37q82 0 156.5 28z" />
    <glyph glyph-name="quotesingle" unicode="'" horiz-adv-x="614" 
d="M193 1570h228v-721h-228v721z" />
    <glyph glyph-name="parenleft" unicode="(" horiz-adv-x="637" 
d="M240 99q-62 152 -95 333t-33 353q0 313 71.5 546.5t196.5 372.5h244q-154 -188 -226.5 -416t-72.5 -507q0 -205 32 -362.5t96 -289t168 -268.5h-236q-83 86 -145 238z" />
    <glyph glyph-name="parenright" unicode=")" horiz-adv-x="637" 
d="M16 -139q104 137 168 268.5t96 289t32 362.5q0 279 -72.5 507t-226.5 416h244q125 -139 196.5 -372.5t71.5 -546.5q0 -172 -33 -353t-95 -333t-145 -238h-236z" />
    <glyph glyph-name="asterisk" unicode="*" horiz-adv-x="994" 
d="M198 1010l175 191l-252 37l68 191l232 -98l-32 239h216l-32 -239l233 98l66 -191l-253 -37l175 -191l-175 -116l-123 246l-123 -246z" />
    <glyph glyph-name="plus" unicode="+" horiz-adv-x="1277" 
d="M535 592h-474v204h474v474h205v-474h473v-204h-473v-474h-205v474z" />
    <glyph glyph-name="comma" unicode="," horiz-adv-x="712" 
d="M467.5 277q49.5 -34 71 -89t21.5 -120q0 -77 -30 -162t-98.5 -156t-176.5 -100l-62 141q168 60 181 193q-22 -7 -49 -7q-44 0 -80.5 19t-58.5 55t-22 86q0 51 23 90t63.5 60.5t90.5 21.5q77 2 126.5 -32z" />
    <glyph glyph-name="hyphen" unicode="-" horiz-adv-x="963" 
d="M157 769h649v-205h-649v205z" />
    <glyph glyph-name="period" unicode="." horiz-adv-x="685" 
d="M259 -0.5q-39 22.5 -61.5 61.5t-22.5 85q0 45 22.5 83t61.5 60.5t85 22.5q45 0 83 -22.5t60.5 -60.5t22.5 -83q0 -46 -22.5 -85t-60.5 -61.5t-83 -22.5q-46 0 -85 22.5z" />
    <glyph glyph-name="slash" unicode="/" horiz-adv-x="997" 
d="M783 1704h252l-821 -2048h-253z" />
    <glyph glyph-name="zero" unicode="0" horiz-adv-x="1277" 
d="M299 98.5q-115 125.5 -148 298.5t-33 388q0 218 32.5 391t146.5 298.5t340 125.5t340.5 -125.5t147.5 -298.5t33 -391q0 -216 -33.5 -389.5t-148 -298t-337.5 -124.5q-225 0 -340 125.5zM778.5 328.5q45.5 73.5 57 182t11.5 274.5t-12 274t-57.5 181t-140.5 73
q-93 0 -138.5 -73t-57 -180.5t-11.5 -274.5q0 -168 11.5 -276t57.5 -181t140 -73t139.5 73.5z" />
    <glyph glyph-name="one" unicode="1" horiz-adv-x="1277" 
d="M899 1570v-1570h-323v1083h-358v246h192q51 0 88.5 10t64 44.5t26.5 104.5v82h310z" />
    <glyph glyph-name="two" unicode="2" horiz-adv-x="1277" 
d="M107 250l473 444q123 115 179 202t56 185q0 58 -21 109t-66 82.5t-114 31.5q-123 0 -178 -94t-61 -225l-316 21q0 149 68 283.5t198.5 218t307.5 83.5q158 0 272.5 -67t173.5 -180t59 -249q0 -107 -46.5 -207.5t-118.5 -189.5t-188 -209l-168 -173v-22h596v-294h-1106
v250z" />
    <glyph glyph-name="three" unicode="3" horiz-adv-x="1277" 
d="M355 33q-133 60 -214.5 180t-81.5 292l307 18q0 -77 38 -134t103 -87.5t142 -30.5q66 0 120.5 24t87.5 75t33 128t-38 118t-110 58q-47 10 -109.5 14t-147.5 4v257q90 0 143 5t91 22q41 19 62.5 58t21.5 92q0 86 -54 128.5t-139 42.5q-99 0 -158 -54.5t-61 -145.5
l-305 20q0 147 71 256t188.5 166.5t255.5 57.5q134 0 251 -53.5t189 -156t72 -242.5q0 -76 -23.5 -158.5t-85.5 -139.5v-12q104 -46 149.5 -146t45.5 -218q0 -158 -75.5 -270.5t-202.5 -170t-279 -57.5q-154 0 -287 60z" />
    <glyph glyph-name="four" unicode="4" horiz-adv-x="1277" 
d="M705 366h-712v187l762 1017h274v-910h243v-294h-243v-366h-324v366zM705 660v387h-18l-266 -373l9 -14h275z" />
    <glyph glyph-name="five" unicode="5" horiz-adv-x="1277" 
d="M932.5 1002.5q125.5 -69.5 200.5 -195t75 -286.5q0 -159 -74.5 -284t-205.5 -194.5t-295 -69.5q-148 0 -271 57t-202.5 158.5t-100.5 230.5l305 82q4 -65 39.5 -117t94.5 -81.5t132 -29.5q78 0 138.5 32.5t94.5 91t34 133.5q0 73 -35 131t-97.5 91t-140.5 33
q-85 0 -149 -40t-90 -108l-283 84l137 849h894v-298h-641l-33 -242q93 42 203 42q145 0 270.5 -69.5z" />
    <glyph glyph-name="six" unicode="6" horiz-adv-x="1277" 
d="M955 1011q124 -73 193 -197t69 -279q0 -164 -74 -291.5t-205 -199t-296 -71.5q-167 0 -300.5 72.5t-208 197t-74.5 274.5q0 88 27.5 186.5t75.5 172.5l448 694h371l-309 -479q159 -7 283 -80zM778.5 305.5q61.5 32.5 96.5 91.5t35 135t-35 135t-97 92t-139 33
q-79 0 -140.5 -33t-95.5 -92t-34 -132q0 -77 34.5 -136.5t95.5 -92.5t140 -33q78 0 139.5 32.5z" />
    <glyph glyph-name="seven" unicode="7" horiz-adv-x="1277" 
d="M812 1263v11h-737v296h1136v-161l-672 -1409h-355z" />
    <glyph glyph-name="eight" unicode="8" horiz-adv-x="1277" 
d="M356 28q-131 55 -211.5 163.5t-80.5 263.5q0 121 48.5 220.5t146.5 164.5v18q-60 59 -91 137t-31 163q0 132 69.5 231.5t185 153.5t247.5 54q133 0 248.5 -53.5t185 -153.5t69.5 -232q0 -85 -31.5 -163t-91.5 -137v-18q99 -65 147.5 -164.5t48.5 -220.5
q0 -155 -80.5 -263.5t-212 -163.5t-283.5 -55t-283 55zM780 990q55 48 55 130q0 54 -24 97t-68.5 67t-103.5 24t-103 -24t-68 -67t-24 -97q0 -82 55 -130t140 -48q86 0 141 48zM772 292q57 30 87.5 83t30.5 121q0 70 -32 124.5t-89.5 85.5t-129.5 31t-129 -31t-89 -85.5
t-32 -124.5q0 -68 30.5 -121t87 -83t132.5 -30t133 30z" />
    <glyph glyph-name="nine" unicode="9" horiz-adv-x="1277" 
d="M932.5 1524.5q133.5 -72.5 208 -197t74.5 -274.5q0 -88 -27.5 -186.5t-75.5 -172.5l-448 -694h-371l309 479q-159 7 -283 80t-193 197t-69 279q0 164 74 291.5t205 199t296 71.5q167 0 300.5 -72.5zM775.5 811q61.5 33 95.5 92t34 132q0 77 -34.5 136.5t-95.5 92.5
t-140 33q-78 0 -139.5 -32.5t-96.5 -91.5t-35 -135t35 -135t97 -92t139 -33q79 0 140.5 33z" />
    <glyph glyph-name="colon" unicode=":" horiz-adv-x="667" 
d="M250 771.5q-39 22.5 -61.5 61t-22.5 84.5q0 45 22.5 83t61.5 60.5t85 22.5q45 0 83 -22.5t60.5 -60.5t22.5 -83q0 -46 -22.5 -84.5t-60.5 -61t-83 -22.5q-46 0 -85 22.5zM250 -0.5q-39 22.5 -61.5 61.5t-22.5 85q0 45 22.5 83t61.5 60.5t85 22.5q45 0 83 -22.5
t60.5 -60.5t22.5 -83q0 -46 -22.5 -85t-60.5 -61.5t-83 -22.5q-46 0 -85 22.5z" />
    <glyph glyph-name="semicolon" unicode=";" horiz-adv-x="689" 
d="M246.5 771.5q-38.5 22.5 -61.5 61t-23 84.5q0 45 22.5 83t61 60.5t84.5 22.5q45 0 83 -22.5t60.5 -60.5t22.5 -83q0 -46 -22.5 -84.5t-60.5 -61t-83 -22.5t-83.5 22.5zM465.5 277q49.5 -34 71 -89t21.5 -120q0 -77 -30 -162t-98.5 -156t-176.5 -100l-62 141
q168 60 181 193q-22 -7 -49 -7q-44 0 -80.5 19t-58.5 55t-22 86q0 51 23 90t63.5 60.5t90.5 21.5q77 2 126.5 -32z" />
    <glyph glyph-name="less" unicode="&#x3c;" horiz-adv-x="1277" 
d="M-32 658l1208 689l103 -177l-897 -512l897 -512l-103 -178z" />
    <glyph glyph-name="equal" unicode="=" horiz-adv-x="1277" 
d="M177 1110h922v-229h-922v229zM177 612h922v-230h-922v230z" />
    <glyph glyph-name="greater" unicode="&#x3e;" horiz-adv-x="1277" 
d="M-2 146l897 512l-897 512l103 177l1208 -689l-1208 -690z" />
    <glyph glyph-name="question" unicode="?" horiz-adv-x="906" 
d="M232 564q0 112 31 185t74.5 114.5t113.5 88.5q53 36 82.5 62t49.5 65t20 93q0 97 -63.5 148.5t-168.5 51.5q-59 0 -121 -17.5t-113 -50.5l-73 225q68 31 148 47.5t154 16.5q135 0 242.5 -49.5t169.5 -145.5t62 -231q0 -92 -28 -154.5t-69 -101t-107 -84.5
q-58 -41 -92.5 -72t-58 -78.5t-23.5 -114.5v-91h-230v93zM263.5 -0.5q-38.5 22.5 -61 61.5t-22.5 85q0 45 22.5 83t61 60.5t84.5 22.5q45 0 83 -22.5t60.5 -60.5t22.5 -83q0 -46 -22.5 -85t-60.5 -61.5t-83 -22.5q-46 0 -84.5 22.5z" />
    <glyph glyph-name="at" unicode="@" horiz-adv-x="2175" 
d="M579 -264.5q-220 122.5 -343.5 342t-123.5 500.5q0 284 126 515t351 364.5t510 133.5q278 0 498 -125.5t344.5 -348t124.5 -503.5q0 -199 -63 -357.5t-179 -249.5t-268 -91q-102 0 -169 42t-94 122q-18 51 -21 116h-18q-60 -75 -139.5 -115t-176.5 -40q-112 0 -199 51.5
t-136.5 151.5t-49.5 241q0 178 75.5 339t208 260t294.5 99q91 0 155.5 -34t99.5 -98h13l21 75h184l-34 -159q-66 -309 -93 -457.5t-27 -245.5q0 -89 29 -131t96 -42q88 0 158 68t109.5 187.5t39.5 267.5q0 233 -96 415.5t-273 285.5t-409 103q-241 0 -424.5 -110.5
t-283.5 -302t-100 -427.5q0 -233 99 -413t277 -279.5t407 -99.5q74 0 139 11.5t136 38.5l59 -168q-86 -29 -166 -42t-168 -13q-280 0 -500 122.5zM1140 303q90 78 140.5 201t50.5 251q0 244 -195 244q-113 0 -204 -73.5t-141.5 -193t-50.5 -252.5t52 -194t146 -61
q112 0 202 78z" />
    <glyph glyph-name="A" unicode="A" horiz-adv-x="1570" 
d="M1082 321h-590l-110 -321h-366l585 1570h373l580 -1570h-364zM982 619l-179 535h-27l-183 -535h389z" />
    <glyph glyph-name="B" unicode="B" horiz-adv-x="1477" 
d="M203 1570h523h42q114 0 216 -17t183 -72q73 -49 113 -120.5t40 -184.5q0 -229 -178 -316v-27q114 -44 173 -135t59 -222q0 -112 -42 -210t-133 -166q-61 -46 -153.5 -73t-201.5 -27h-641v1570zM753 967q70 0 112 6.5t70 30.5q48 35 48 125q0 73 -45 104
q-27 22 -72.5 30.5t-112.5 8.5h-214v-305h214zM778 298q70 0 120.5 10t84.5 38q57 46 57 146q0 101 -62 141q-32 21 -81.5 28.5t-118.5 7.5h-239v-371h239z" />
    <glyph glyph-name="C" unicode="C" horiz-adv-x="1636" 
d="M450 73q-173 98 -266 281t-93 431q0 247 93 430t265 281.5t404 98.5q175 0 317.5 -56t243.5 -161.5t154 -251.5l-314 -120q-44 137 -150 214t-251 77q-129 0 -225 -63t-148 -178.5t-52 -270.5q0 -161 54 -276.5t151 -175.5t225 -60q151 0 257 83t148 229l321 -98
q-47 -160 -147.5 -275t-247.5 -176t-331 -61q-235 0 -408 98z" />
    <glyph glyph-name="D" unicode="D" horiz-adv-x="1586" 
d="M203 1570h405q176 0 292 -19.5t195 -56.5t154 -99q121 -100 183.5 -256t62.5 -365q0 -204 -63.5 -357.5t-189.5 -252.5q-74 -59 -152 -93.5t-193.5 -52.5t-291.5 -18h-402v1570zM573 298q129 0 208 11.5t131 35.5t103 69q143 127 143 373q0 119 -33 211t-94 151
q-49 48 -98 73.5t-125.5 37.5t-204.5 12h-64v-974h34z" />
    <glyph glyph-name="E" unicode="E" horiz-adv-x="1381" 
d="M203 1570h1008v-298h-672v-339h633v-298h-633v-337h717v-298h-1053v1570z" />
    <glyph glyph-name="F" unicode="F" horiz-adv-x="1270" 
d="M203 1570h996v-298h-660v-339h569v-298h-569v-635h-336v1570z" />
    <glyph glyph-name="G" unicode="G" horiz-adv-x="1741" 
d="M1597 865v-865h-254l-34 86h-39q-73 -52 -186.5 -81.5t-234.5 -29.5q-232 0 -402.5 98t-262 282t-91.5 435q0 245 93 426.5t265.5 280t404.5 98.5q176 0 319 -57t244 -162.5t153 -249.5l-316 -120q-44 137 -150 214t-250 77q-129 0 -225.5 -62t-148.5 -177t-52 -268
q0 -162 57 -278.5t159.5 -177.5t236.5 -61q114 0 203.5 35t143.5 101t62 158h-439v298h744z" />
    <glyph glyph-name="H" unicode="H" horiz-adv-x="1736" 
d="M203 1570h336v-637h658v637h337v-1570h-337v635h-658v-635h-336v1570z" />
    <glyph glyph-name="I" unicode="I" horiz-adv-x="742" 
d="M203 1570h336v-1570h-336v1570z" />
    <glyph glyph-name="J" unicode="J" horiz-adv-x="1304" 
d="M357.5 3.5q-100.5 28.5 -168.5 87.5q-74 64 -113 165t-35 229l337 50q-2 -70 8 -118t35 -80q52 -64 162 -64q117 0 168 59q22 26 31.5 73t9.5 150v717h-571v298h908v-1015q0 -159 -27.5 -262.5t-97.5 -174.5q-141 -143 -421 -143q-125 0 -225.5 28.5z" />
    <glyph glyph-name="K" unicode="K" horiz-adv-x="1657" 
d="M1045 979l584 -979h-398l-412 726h-26l-254 -255v-471h-336v1570h336v-617h25l622 617h448z" />
    <glyph glyph-name="L" unicode="L" horiz-adv-x="1220" 
d="M203 1570h336v-1272h651v-298h-987v1570z" />
    <glyph glyph-name="M" unicode="M" horiz-adv-x="1964" 
d="M203 1570h566l198 -789h30l200 789h564v-1570h-334v1233h-28l-220 -833h-392l-220 833h-28v-1233h-336v1570z" />
    <glyph glyph-name="N" unicode="N" horiz-adv-x="1736" 
d="M203 1570h498l469 -1133h27v1133h337v-1570h-501l-466 1136h-28v-1136h-336v1570z" />
    <glyph glyph-name="O" unicode="O" horiz-adv-x="1713" 
d="M452 70.5q-172 95.5 -265.5 278t-93.5 436.5t93.5 436.5t265.5 278t404 95.5q233 0 405 -95t265.5 -277.5t93.5 -437.5t-93.5 -437t-265.5 -277.5t-405 -95.5q-232 0 -404 95.5zM1082 332.5q97 59.5 150.5 175t53.5 277.5t-53.5 277.5t-150.5 175t-226 59.5
q-128 0 -224 -59.5t-149 -175t-53 -277.5t53 -277.5t149 -175t224 -59.5q129 0 226 59.5z" />
    <glyph glyph-name="P" unicode="P" horiz-adv-x="1349" 
d="M203 1570h557q131 0 222.5 -21t157.5 -72q74 -57 113.5 -150.5t39.5 -220.5t-39 -220.5t-114 -152.5q-66 -51 -159 -74.5t-221 -23.5h-221v-635h-336v1570zM637 933q96 0 140.5 2t75 10t50.5 27q27 25 40 58t13 83q0 45 -12 74t-32 49q-22 23 -63 29.5t-128 6.5h-84h-98
v-339h98z" />
    <glyph glyph-name="Q" unicode="Q" horiz-adv-x="1739" 
d="M1574 464.5q-46 -143.5 -133 -247.5l159 -151l-180 -189l-186 179q-165 -81 -378 -81q-232 0 -404 95.5t-265.5 278t-93.5 436.5t93.5 436.5t265.5 278t404 95.5q233 0 405 -95t265.5 -277.5t93.5 -437.5q0 -177 -46 -320.5zM989 291l-190 182l177 185l223 -212
q87 132 87 339q0 162 -53.5 277.5t-150.5 175t-226 59.5q-128 0 -224 -59.5t-149 -175t-53 -277.5t53 -277.5t149 -175t224 -59.5q72 0 133 18z" />
    <glyph glyph-name="R" unicode="R" horiz-adv-x="1470" 
d="M1051 0l-360 635h-152v-635h-336v1570h489q167 0 274.5 -21t173.5 -72q74 -57 113.5 -150.5t39.5 -220.5t-39 -220.5t-114 -152.5q-41 -32 -89 -50v-37l399 -646h-399zM637 933q96 0 140.5 2t75 10t50.5 27q27 25 40 58t13 83q0 45 -12 74t-32 49q-22 23 -63 29.5
t-128 6.5h-84h-98v-339h98z" />
    <glyph glyph-name="S" unicode="S" horiz-adv-x="1290" 
d="M394 32.5q-131 52.5 -221.5 159.5t-115.5 263l334 84q11 -133 86.5 -197t193.5 -64q106 0 158 47t52 121q0 68 -40 114.5t-99 75.5t-165 69q-136 50 -220.5 96t-144.5 130.5t-60 217.5q0 142 69 242.5t184 152t253 51.5q154 0 284.5 -70.5t211.5 -213.5l-280 -171
q-35 72 -97 114.5t-126 42.5q-70 0 -116 -37t-46 -97q0 -51 34 -86t84.5 -57.5t145.5 -54.5q144 -48 236 -95.5t159 -142.5t67 -249q0 -151 -66.5 -263.5t-188.5 -173.5t-286 -61q-149 0 -280 52.5z" />
    <glyph glyph-name="T" unicode="T" horiz-adv-x="1331" 
d="M498 1272h-468v298h1272v-298h-469v-1272h-335v1272z" />
    <glyph glyph-name="U" unicode="U" horiz-adv-x="1575" 
d="M521.5 11q-116.5 36 -193.5 103q-55 47 -89 111.5t-51 163t-17 244.5v937h336v-926q0 -134 14 -199t50 -99q35 -33 89.5 -53t126.5 -20q138 0 214 73q25 23 39 57t20.5 90.5t6.5 150.5v926h337v-937q0 -145 -17 -243.5t-51 -163.5t-89 -112q-77 -67 -193.5 -103
t-266.5 -36q-149 0 -265.5 36z" />
    <glyph glyph-name="V" unicode="V" horiz-adv-x="1570" 
d="M16 1570h364l387 -1154h29l392 1154h366l-585 -1570h-373z" />
    <glyph glyph-name="W" unicode="W" horiz-adv-x="2471" 
d="M16 1570h364l389 -1156h27l258 940h364l259 -940h25l389 1156h364l-580 -1570h-405l-218 878h-32l-219 -878h-405z" />
    <glyph glyph-name="X" unicode="X" horiz-adv-x="1552" 
d="M555 783l-528 787h401l334 -535h23l337 535h403l-531 -787l528 -783h-400l-339 519h-21l-332 -519h-403z" />
    <glyph glyph-name="Y" unicode="Y" horiz-adv-x="1516" 
d="M589 585l-591 985h393l351 -612h29l353 612h394l-592 -985v-585h-337v585z" />
    <glyph glyph-name="Z" unicode="Z" horiz-adv-x="1404" 
d="M93 296l749 949v27h-724v298h1154v-300l-749 -951v-21h797v-298h-1227v296z" />
    <glyph glyph-name="bracketleft" unicode="[" horiz-adv-x="712" 
d="M196 1748h480v-180h-262v-1568h262v-182h-480v1930z" />
    <glyph glyph-name="backslash" unicode="\" horiz-adv-x="997" 
d="M783 -344l-821 2048h252l822 -2048h-253z" />
    <glyph glyph-name="bracketright" unicode="]" horiz-adv-x="712" 
d="M36 -182v182h262v1568h-262v180h480v-1930h-480z" />
    <glyph glyph-name="asciicircum" unicode="^" horiz-adv-x="1277" 
d="M637 1663l630 -1197h-286l-344 690l-341 -690h-287z" />
    <glyph glyph-name="underscore" unicode="_" horiz-adv-x="1258" 
d="M157 0h944v-205h-944v205z" />
    <glyph glyph-name="grave" unicode="`" horiz-adv-x="587" 
d="M20 1570h289l235 -321h-205z" />
    <glyph glyph-name="a" unicode="a" horiz-adv-x="1222" 
d="M1071 859q17 -68 17 -183v-676h-255l-43 68h-25q-36 -32 -71 -50q-86 -43 -205 -43q-128 0 -223.5 46t-147.5 130t-52 195q0 101 43.5 175.5t124.5 115.5q52 27 130.5 39.5t220.5 12.5h205q-2 61 -13.5 97t-39.5 58q-50 41 -157 41q-70 0 -151.5 -31.5t-155.5 -88.5
l-177 200q109 80 235.5 125.5t248.5 45.5q155 0 266.5 -42t172.5 -122q35 -45 52 -113zM776 356q11 41 13 99h-293q-29 0 -53 -8.5t-45 -32.5q-17 -19 -22 -31.5t-5 -38.5q0 -59 42.5 -95.5t128.5 -36.5q58 0 111 19.5t87 55.5q25 28 36 69z" />
    <glyph glyph-name="b" unicode="b" horiz-adv-x="1313" 
d="M610.5 -0.5q-74.5 24.5 -123.5 66.5h-25l-46 -66h-252v1570h298v-523h25q49 42 120.5 65.5t147.5 23.5q151 0 258.5 -69.5t163.5 -200t56 -311.5t-56 -311.5t-162 -199.5t-253 -69q-77 0 -151.5 24.5zM869.5 309.5q63.5 84.5 63.5 245.5q0 160 -64 245t-184 85
t-185 -84.5t-65 -245.5q0 -163 64.5 -246.5t185.5 -83.5t184.5 84.5z" />
    <glyph glyph-name="c" unicode="c" horiz-adv-x="1138" 
d="M316.5 49.5q-119.5 74.5 -185 207t-65.5 301.5q0 171 66.5 302t187 203.5t276.5 72.5q124 0 225 -44.5t169 -126t95 -189.5l-270 -77q-20 87 -74.5 137.5t-144.5 50.5q-118 0 -172.5 -91.5t-54.5 -237.5t54.5 -240.5t172.5 -94.5q88 0 143.5 52.5t75.5 140.5l273 -75
q-30 -112 -98.5 -194.5t-169.5 -127t-226 -44.5q-158 0 -277.5 74.5z" />
    <glyph glyph-name="d" unicode="d" horiz-adv-x="1313" 
d="M298 44q-106 69 -162 199.5t-56 311.5t56 311.5t163.5 200t258.5 69.5q76 0 147.5 -23.5t120.5 -65.5h25v523h298v-1570h-252l-46 66h-25q-49 -42 -123.5 -66.5t-151.5 -24.5q-147 0 -253 69zM813.5 308.5q64.5 83.5 64.5 246.5q0 161 -65 245.5t-185 84.5t-184 -85
t-64 -245q0 -161 63.5 -245.5t184.5 -84.5t185.5 83.5z" />
    <glyph glyph-name="e" unicode="e" horiz-adv-x="1204" 
d="M1129 457h-753q12 -103 78 -167.5t183 -64.5q77 0 140 31t115 104l203 -180q-180 -205 -460 -205q-187 0 -316 80t-192 211.5t-63 284.5q0 149 60 283t184.5 218t308.5 84t301 -85.5t168.5 -215.5t51.5 -271q0 -44 -9 -107zM460 828.5q-61 -56.5 -80 -136.5h466
q-4 31 -11 54q-20 69 -81.5 104t-134.5 35q-98 0 -159 -56.5z" />
    <glyph glyph-name="f" unicode="f" horiz-adv-x="753" 
d="M228 876h-203v234h205v148q0 117 48.5 192.5t128 110t176.5 34.5q109 0 211 -48l-95 -243q-19 12 -41.5 19.5t-40.5 7.5q-89 0 -89 -102v-119h198v-234h-198v-876h-300v876z" />
    <glyph glyph-name="g" unicode="g" horiz-adv-x="1227" 
d="M1143 47q22 -43 22 -95q0 -244 -180 -355q-136 -82 -371 -82q-133 0 -243 23.5t-187 70.5q-71 44 -109.5 106t-38.5 133q0 22 4 53t12 58l130 55v18q-100 89 -100 225q0 140 132 251q-59 95 -59 213q0 120 61 214.5t167 147.5t236 53q139 0 248 -63l171 144l152 -188
l-161 -128q45 -92 45 -196q0 -126 -60.5 -217t-163 -138t-226.5 -47q-139 0 -247 57q-38 -38 -38 -76q0 -24 9.5 -42.5t24.5 -29.5q38 -23 105 -23h318q107 0 174.5 -16t112.5 -52q38 -31 60 -74zM496 848.5q-45 -52.5 -45 -131.5q0 -78 44.5 -128t125.5 -50q78 0 122 50
t44 128q0 51 -19.5 93t-57 66.5t-89.5 24.5q-80 0 -125 -52.5zM872 -127q0 16 -4 27t-15 20q-14 11 -32.5 15t-46.5 4h-278q-60 0 -106 7l-46 -37q-7 -22 -7 -46q0 -28 13.5 -48t43.5 -38q77 -43 225 -43q56 0 114.5 14.5t94.5 44.5q44 35 44 80z" />
    <glyph glyph-name="h" unicode="h" horiz-adv-x="1327" 
d="M164 1570h300v-535h25q49 47 123 74t169 27q87 0 156 -23t117 -62q63 -51 93.5 -124t37.5 -139.5t7 -145.5v-642h-298v594q0 61 -2.5 99.5t-14.5 74.5t-37 63q-56 54 -157 54q-123 0 -178 -77q-27 -41 -34 -96.5t-7 -142.5v-569h-300v1570z" />
    <glyph glyph-name="i" unicode="i" horiz-adv-x="624" 
d="M162 1110h300v-1110h-300v1110zM217 1238.5q-44 25.5 -70 69.5t-26 96q0 50 26 93.5t70 69.5t95 26t95 -26t70 -69.5t26 -93.5q0 -52 -26 -95.5t-70 -69.5t-95 -26t-95 25.5z" />
    <glyph glyph-name="j" unicode="j" horiz-adv-x="626" 
d="M-43 -444l79 246q16 -6 37 -10t34 -4q22 0 31 7.5t10 8.5q11 13 13.5 37t2.5 91v1178h298v-1240q0 -74 -2 -114t-12.5 -80t-33.5 -72q-29 -39 -83 -62.5t-133 -23.5q-122 0 -241 38zM217 1238.5q-44 25.5 -70 69.5t-26 96q0 50 26 93.5t70 69.5t95 26t95 -26t70 -69.5
t26 -93.5q0 -52 -26 -95.5t-70 -69.5t-95 -26t-95 25.5z" />
    <glyph glyph-name="k" unicode="k" horiz-adv-x="1272" 
d="M164 1570h300v-881h9l376 421h387l-387 -418l428 -692h-351l-293 487h-14l-155 -162v-325h-300v1570z" />
    <glyph glyph-name="l" unicode="l" horiz-adv-x="660" 
d="M221 39q-34 32 -51.5 86.5t-17.5 163.5v1281h301v-1210q0 -59 3.5 -81t9.5 -31q11 -13 25.5 -18t34.5 -5q26 0 57 9l43 -223q-44 -16 -101.5 -26t-105.5 -10q-129 0 -198 64z" />
    <glyph glyph-name="m" unicode="m" horiz-adv-x="1959" 
d="M162 1110h259l23 -68h25q63 41 133 67.5t156 26.5q102 0 177.5 -36.5t122.5 -98.5h25q65 63 152.5 99t189.5 36q77 0 144.5 -19.5t114.5 -53.5q64 -47 94.5 -116.5t37.5 -133.5t7 -141v-672h-294v624q0 163 -52 218q-23 23 -61 35.5t-78 12.5q-49 0 -87.5 -13.5
t-62.5 -39.5q-32 -33 -40 -85.5t-8 -135.5v-616h-296v616q0 73 -8.5 129t-36.5 90q-20 24 -60 39.5t-91 15.5q-90 0 -138 -48q-32 -32 -42.5 -85t-10.5 -141v-616h-295v1110z" />
    <glyph glyph-name="n" unicode="n" horiz-adv-x="1320" 
d="M162 1110h273l22 -70h25q50 45 126 70.5t163 25.5q172 0 276 -85q64 -51 94.5 -120.5t37.5 -135t7 -153.5v-642h-294v596q0 65 -2.5 103t-14.5 73t-38 61q-56 57 -158 57q-125 0 -181 -82q-25 -38 -33 -93.5t-8 -143.5v-571h-295v1110z" />
    <glyph glyph-name="o" unicode="o" horiz-adv-x="1258" 
d="M330.5 50.5q-128.5 75.5 -197.5 208t-69 299.5q0 166 69 297.5t197.5 206t299.5 74.5t299 -74.5t197 -206t69 -297.5q0 -167 -69 -299.5t-197.5 -208t-298.5 -75.5q-171 0 -299.5 75.5zM830.5 319q63.5 94 63.5 239q0 143 -63.5 235t-200.5 92q-138 0 -202 -92.5
t-64 -234.5q0 -144 64 -238.5t202 -94.5q137 0 200.5 94z" />
    <glyph glyph-name="p" unicode="p" horiz-adv-x="1313" 
d="M1015 1066q106 -69 162 -199.5t56 -311.5t-56 -311.5t-163.5 -200t-258.5 -69.5q-76 0 -147.5 23.5t-120.5 65.5h-25v-523h-298v1570h252l46 -66h25q49 42 123.5 66.5t151.5 24.5q147 0 253 -69zM499.5 801.5q-64.5 -83.5 -64.5 -246.5q0 -161 65 -245.5t185 -84.5
t184 85t64 245q0 161 -63.5 245.5t-184.5 84.5t-185.5 -83.5z" />
    <glyph glyph-name="q" unicode="q" horiz-adv-x="1313" 
d="M702.5 1110.5q74.5 -24.5 123.5 -66.5h25l46 66h252v-1570h-298v523h-25q-49 -42 -120.5 -65.5t-147.5 -23.5q-151 0 -258.5 69.5t-163.5 200t-56 311.5t56 311.5t162 199.5t253 69q77 0 151.5 -24.5zM443.5 800.5q-63.5 -84.5 -63.5 -245.5q0 -160 64 -245t184 -85
t185 84.5t65 245.5q0 163 -64.5 246.5t-185.5 83.5t-184.5 -84.5z" />
    <glyph glyph-name="r" unicode="r" horiz-adv-x="840" 
d="M162 1110h275l20 -70h25q56 44 124 70t158 26q42 0 64 -3v-305h-16q-87 30 -153 30q-100 0 -154 -50q-28 -26 -36.5 -73.5t-8.5 -142.5v-592h-298v1110z" />
    <glyph glyph-name="s" unicode="s" horiz-adv-x="1033" 
d="M312.5 14.5q-102.5 39.5 -174.5 111.5t-102 165l235 105q28 -76 97.5 -123.5t150.5 -47.5q60 0 98 26.5t38 76.5q0 46 -35 71.5t-108 44.5q-5 1 -64 17t-134 51q-88 41 -142 107t-54 175q0 108 54.5 185.5t148.5 117t209 39.5q151 0 267 -66t168 -176l-225 -125
q-37 58 -97 95t-122 37q-49 0 -83.5 -22t-34.5 -60q0 -35 31.5 -53t100.5 -38q79 -22 135 -41.5t101 -44.5q176 -95 176 -287q0 -113 -52 -199t-146 -133.5t-217 -47.5q-117 0 -219.5 39.5z" />
    <glyph glyph-name="t" unicode="t" horiz-adv-x="817" 
d="M374.5 13.5q-80.5 38.5 -125 113t-44.5 180.5v569h-175v234h182v269l293 212v-481h221v-234h-221v-530q0 -68 29 -94.5t83 -26.5q36 0 100 18l48 -236q-39 -13 -94.5 -22.5t-108.5 -9.5q-107 0 -187.5 38.5z" />
    <glyph glyph-name="u" unicode="u" horiz-adv-x="1322" 
d="M275 57q-78 61 -110.5 156t-32.5 256v641h300v-593q0 -107 11 -156.5t42 -80.5q54 -55 161 -55q58 0 101.5 19t69.5 54q25 33 35 86t10 158v568h299v-1110h-299v75h-25q-52 -49 -126 -74.5t-167 -25.5q-163 0 -269 82z" />
    <glyph glyph-name="v" unicode="v" horiz-adv-x="1206" 
d="M0 1110h321l275 -832h16l273 832h321l-403 -1110h-400z" />
    <glyph glyph-name="w" unicode="w" horiz-adv-x="1900" 
d="M0 1110h321l275 -832h14l180 832h320l180 -832h14l275 832h321l-403 -1110h-400l-139 708h-14l-141 -708h-400z" />
    <glyph glyph-name="x" unicode="x" horiz-adv-x="1170" 
d="M389 560l-378 550h364l196 -334h27l198 334h362l-375 -550l375 -560h-355l-205 344h-27l-202 -344h-358z" />
    <glyph glyph-name="y" unicode="y" horiz-adv-x="1165" 
d="M423 32l-432 1078h328l248 -712h27l255 712h325l-626 -1570h-323z" />
    <glyph glyph-name="z" unicode="z" horiz-adv-x="1110" 
d="M80 248l550 589v25h-530v248h910v-245l-550 -592v-25h575v-248h-955v248z" />
    <glyph glyph-name="braceleft" unicode="{" horiz-adv-x="687" 
d="M268 -89.5q-63 83.5 -63 230.5v332q0 63 -21 100t-48.5 53t-76.5 34v177q49 18 76.5 34t48.5 53t21 100v332q0 148 65 231t183 83h175v-175h-82q-111 0 -111 -143v-333q0 -107 -40 -166t-117 -93v-23q77 -36 117 -94t40 -165v-332q0 -144 111 -144h82v-175h-175
q-122 0 -185 83.5z" />
    <glyph glyph-name="bar" unicode="|" horiz-adv-x="692" 
d="M246 1704h200v-2273h-200v2273z" />
    <glyph glyph-name="braceright" unicode="}" horiz-adv-x="687" 
d="M59 -173v175h82q111 0 111 144v332q0 107 40 165t117 94v23q-77 34 -117 93t-40 166v333q0 143 -111 143h-82v175h175q118 0 183 -83t65 -231v-332q0 -63 21 -100t48.5 -53t76.5 -34v-177q-49 -18 -76.5 -34t-48.5 -53t-21 -100v-332q0 -147 -63 -230.5t-185 -83.5h-175z
" />
    <glyph glyph-name="asciitilde" unicode="~" horiz-adv-x="1277" 
d="M715 391q-49 22 -78.5 53t-63.5 80q-24 35 -41 54.5t-40 32.5t-53 13q-47 0 -73.5 -52t-26.5 -140h-205q0 111 38 195.5t107 131.5t160 47q75 0 126 -23t81.5 -55t64.5 -82q24 -34 39.5 -52t36.5 -30.5t48 -12.5q31 0 54.5 28t37 77t13.5 111h205q0 -117 -38.5 -207
t-109 -140.5t-162.5 -50.5q-71 0 -120 22z" />
    <glyph glyph-name="uni00A0" unicode="&#xa0;" horiz-adv-x="626" 
 />
    <glyph glyph-name="exclamdown" unicode="&#xa1;" horiz-adv-x="692" 
d="M430.5 1110.5q38.5 -22.5 61 -61.5t22.5 -85q0 -45 -22.5 -83t-61 -60.5t-84.5 -22.5q-45 0 -83 22.5t-60.5 60.5t-22.5 83q0 46 22.5 85t60.5 61.5t83 22.5q46 0 84.5 -22.5zM480 -460h-268l32 1094h204z" />
    <glyph glyph-name="cent" unicode="&#xa2;" horiz-adv-x="1242" 
d="M573 -16q-145 20 -246.5 102.5t-152.5 205t-51 261.5t50.5 262.5t152 208t247.5 105.5v204h137v-202q150 -12 260 -94t168 -231l-257 -101q-19 68 -64 115t-107 61v-651q62 13 107 58.5t64 111.5l245 -93q-51 -143 -160 -228t-256 -99v-217h-137v221zM573 874
q-88 -30 -131.5 -119t-43.5 -202q0 -114 43 -200.5t132 -115.5v637z" />
    <glyph glyph-name="sterling" unicode="&#xa3;" horiz-adv-x="1384" 
d="M614 271h642v-271h-1099v266q137 78 192.5 159t55.5 178q0 35 -6 71h-240v234h186q-33 141 -33 253q0 124 55 227.5t160 164t249 60.5q193 0 309 -97.5t171 -252.5l-250 -93q-68 175 -223 175q-200 0 -200 -191q0 -58 11 -116t32 -130h400v-234h-338q11 -58 11 -112
q0 -145 -85 -273v-18z" />
    <glyph glyph-name="currency" unicode="&#xa4;" horiz-adv-x="1497" 
d="M193 294l119 116q-44 64 -67 138t-23 152t23 153t67 139l-116 114l143 150l118 -120q66 45 141.5 68t153.5 23q77 0 151 -22.5t137 -66.5l118 116l146 -144l-118 -116q44 -64 67 -139.5t23 -153.5t-23 -153.5t-67 -140.5l118 -113l-143 -151l-121 121q-64 -45 -139 -68
t-153 -23q-77 0 -152 23t-141 68l-118 -121zM625 401q60 -25 122 -25q63 0 122.5 25t106.5 72t71 107t24 123t-24 121t-71 104q-46 46 -105 70t-123 24q-63 0 -122.5 -24.5t-106.5 -71.5q-46 -46 -69.5 -106t-23.5 -123t23 -121t68 -103q48 -47 108 -72z" />
    <glyph glyph-name="yen" unicode="&#xa5;" horiz-adv-x="1584" 
d="M646 234h-350v219h350v148h-350v218h223l-462 751h341l392 -687l393 687h344l-460 -751h219v-218h-346v-148h346v-219h-346v-234h-294v234z" />
    <glyph glyph-name="brokenbar" unicode="&#xa6;" horiz-adv-x="692" 
d="M246 1688h202v-973h-202v973zM243 405h203v-974h-203v974z" />
    <glyph glyph-name="section" unicode="&#xa7;" horiz-adv-x="1076" 
d="M325.5 14.5q-102.5 34.5 -174.5 108t-94 184.5l259 78q22 -100 81 -143.5t165 -43.5q95 0 153.5 31.5t58.5 93.5q0 47 -34 76.5t-86 46t-142 36.5q-128 30 -208 59.5t-137.5 93.5t-57.5 173q0 69 25 124.5t71 105.5q-93 83 -93 211q0 108 60.5 186t159.5 118t212 40
q97 0 181.5 -28.5t146 -77t93.5 -106.5l-216 -125q-22 59 -77.5 93.5t-136.5 34.5q-64 0 -109 -20t-67 -52t-22 -67q0 -42 32 -68t80 -40.5t136 -33.5q131 -28 213.5 -58t142.5 -97.5t60 -182.5q0 -132 -89 -228q89 -82 89 -214q0 -117 -66 -194.5t-170 -113t-221 -35.5
q-116 0 -218.5 34.5zM749.5 682.5q24.5 32.5 24.5 75.5q0 55 -39 89t-99.5 53.5t-168.5 43.5l-39 9q-45 -20 -68 -59.5t-23 -76.5q0 -49 38 -80t95 -49t158 -41l52 -12q45 15 69.5 47.5z" />
    <glyph glyph-name="dieresis" unicode="&#xa8;" horiz-adv-x="999" 
d="M193 1280.5q-39 22.5 -61.5 61.5t-22.5 85q0 45 22.5 83t61.5 60.5t85 22.5q45 0 83 -22.5t60.5 -60.5t22.5 -83q0 -46 -22.5 -85t-60.5 -61.5t-83 -22.5q-46 0 -85 22.5zM636.5 1280.5q-38.5 22.5 -61 61.5t-22.5 85q0 45 22.5 83t61 60.5t84.5 22.5q45 0 83 -22.5
t60.5 -60.5t22.5 -83q0 -46 -22.5 -85t-60.5 -61.5t-83 -22.5q-46 0 -84.5 22.5z" />
    <glyph glyph-name="copyright" unicode="&#xa9;" horiz-adv-x="1877" 
d="M514.5 77.5q-194.5 109.5 -308 297t-113.5 410.5t113.5 410.5t308 297t425.5 109.5q229 0 423 -109.5t307.5 -297t113.5 -410.5t-113.5 -410.5t-307.5 -297t-423 -109.5q-231 0 -425.5 109.5zM1279 226q155 87 246 235t91 324t-91 324t-246 235t-339 87
q-185 0 -340.5 -87t-246.5 -235t-91 -324t91 -324t246.5 -235t340.5 -87q184 0 339 87zM720 375q-100 66 -149.5 174.5t-49.5 233.5q0 124 49 232.5t148.5 175.5t241.5 67q140 0 242.5 -67t153.5 -201l-211 -82q-19 66 -68.5 108t-116.5 42q-72 0 -120.5 -39t-71 -101.5
t-22.5 -134.5q0 -115 53 -193t161 -78q67 0 116.5 40t68.5 106l200 -78q-44 -128 -145 -199.5t-237 -71.5q-143 0 -243 66z" />
    <glyph glyph-name="ordfeminine" unicode="&#xaa;" horiz-adv-x="885" 
d="M205 817q-63 30 -101 85.5t-38 128.5q0 123 85.5 183t223.5 60h217q0 29 -7 57q-14 56 -54 84t-112 28q-109 0 -210 -96l-109 116q84 68 162.5 99t183.5 31q151 0 228 -85t77 -231v-474h-148v87h-7q-52 -53 -114 -78t-141 -25q-73 0 -136 30zM486.5 973q53.5 33 82.5 85
q19 35 23 68h-205q-67 0 -105.5 -25.5t-38.5 -69.5q0 -24 19 -45t48.5 -33.5t60.5 -12.5q62 0 115.5 33z" />
    <glyph glyph-name="guillemotleft" unicode="&#xab;" horiz-adv-x="1142" 
d="M22 567l476 396v-235l-200 -161l200 -160v-234zM505 567l475 396v-235l-200 -161l200 -160v-234z" />
    <glyph glyph-name="logicalnot" unicode="&#xac;" horiz-adv-x="1277" 
d="M862 644h-794v241h1054v-562h-260v321z" />
    <glyph glyph-name="uni00AD" unicode="&#xad;" horiz-adv-x="1122" 
d="M157 769h808v-205h-808v205z" />
    <glyph glyph-name="registered" unicode="&#xae;" horiz-adv-x="1877" 
d="M514.5 77.5q-194.5 109.5 -308 297t-113.5 410.5t113.5 410.5t308 297t425.5 109.5q229 0 423 -109.5t307.5 -297t113.5 -410.5t-113.5 -410.5t-307.5 -297t-423 -109.5q-231 0 -425.5 109.5zM1279 226q155 87 246 235t91 324t-91 324t-246 235t-339 87
q-185 0 -340.5 -87t-246.5 -235t-91 -324t91 -324t246.5 -235t340.5 -87q184 0 339 87zM658 1249h300q95 0 168.5 -34.5t115 -97t41.5 -143.5t-47 -145.5t-128 -95.5l255 -412h-205l-225 394h-48h-50v-394h-177v928zM974 860q62 4 97 34t35 78q0 54 -39 86t-107 32h-125
v-230h139z" />
    <glyph glyph-name="macron" unicode="&#xaf;" horiz-adv-x="931" 
d="M155 1434h621v-160h-621v160z" />
    <glyph glyph-name="degree" unicode="&#xb0;" horiz-adv-x="974" 
d="M324.5 986q-74.5 44 -118.5 118.5t-44 162.5t44 163t118.5 119t162.5 44q89 0 163.5 -44t118 -118.5t43.5 -163.5q0 -88 -43.5 -162.5t-118.5 -118.5t-163 -44t-162.5 44zM560.5 1143q33.5 19 53 52t19.5 72t-19.5 72t-53 52.5t-73.5 19.5q-39 0 -72 -19.5t-52 -52.5
t-19 -72t19 -72t52 -52t72 -19q40 0 73.5 19z" />
    <glyph glyph-name="plusminus" unicode="&#xb1;" horiz-adv-x="1277" 
d="M535 683h-508v204h508v474h205v-474h507v-204h-507v-474h-205v474zM27 0h1220v-205h-1220v205z" />
    <glyph glyph-name="acute" unicode="&#xb4;" horiz-adv-x="596" 
d="M287 1570h289l-342 -321h-198z" />
    <glyph glyph-name="uni00B5" unicode="&#xb5;" horiz-adv-x="1443" 
d="M243 1110h269v-632q0 -113 55 -181.5t157 -68.5q119 0 184.5 67t65.5 208v607h268v-1110h-268v130q-63 -78 -151 -115.5t-177 -37.5q-106 0 -184 39v-380h-219v1474z" />
    <glyph glyph-name="paragraph" unicode="&#xb6;" horiz-adv-x="1447" 
d="M576 692q-132 0 -247.5 53t-185.5 152.5t-70 233.5t70 233.5t185.5 152.5t247.5 53h189v-1843h-189v965zM1010 1570h191v-1843h-191v1843z" />
    <glyph glyph-name="periodcentered" unicode="&#xb7;" horiz-adv-x="685" 
d="M257.5 677.5q-37.5 22.5 -59 60.5t-21.5 83t22 82.5t59.5 59.5t82.5 22t83 -21.5t60.5 -59t22.5 -83.5q0 -45 -22 -83t-60 -60.5t-84 -22.5t-83.5 22.5z" />
    <glyph glyph-name="cedilla" unicode="&#xb8;" horiz-adv-x="612" 
d="M168.5 -464q-60.5 23 -118.5 70l73 119q85 -80 171 -80q42 0 66.5 22t24.5 53q0 29 -20.5 50.5t-61.5 33.5q-46 14 -141 14l116 182h134l-73 -93q38 -5 61 -14q54 -21 86.5 -66.5t32.5 -104.5t-30.5 -107t-83.5 -75t-118 -27q-58 0 -118.5 23z" />
    <glyph glyph-name="ordmasculine" unicode="&#xba;" horiz-adv-x="922" 
d="M255.5 844q-90.5 54 -141 146t-50.5 202q0 109 50.5 201t141 146t206.5 54q114 0 204.5 -54t141 -146t50.5 -201q0 -110 -50.5 -202t-141 -146t-204.5 -54q-116 0 -206.5 54zM620 1017.5q51 66.5 51 174.5q0 109 -51 175.5t-158 66.5q-109 0 -160.5 -66.5t-51.5 -175.5
q0 -108 51.5 -174.5t160.5 -66.5q107 0 158 66.5z" />
    <glyph glyph-name="guillemotright" unicode="&#xbb;" horiz-adv-x="1142" 
d="M162 407l200 160l-200 161v235l475 -396l-475 -394v234zM644 407l200 160l-200 161v235l476 -396l-476 -394v234z" />
    <glyph glyph-name="questiondown" unicode="&#xbf;" horiz-adv-x="912" 
d="M642.5 1110.5q38.5 -22.5 61 -61.5t22.5 -85q0 -45 -22.5 -83t-61 -60.5t-84.5 -22.5q-45 0 -83 22.5t-60.5 60.5t-22.5 83q0 46 22.5 85t60.5 61.5t83 22.5q46 0 84.5 -22.5zM674 546q0 -112 -31 -185t-74.5 -114.5t-113.5 -88.5q-53 -36 -82.5 -62t-49.5 -65t-20 -93
q0 -97 63.5 -148.5t168.5 -51.5q59 0 121 17.5t113 50.5l73 -225q-68 -31 -148 -47.5t-154 -16.5q-135 0 -242.5 49.5t-169.5 145.5t-62 231q0 92 28 154.5t69 101t107 84.5q58 41 92.5 72t58 78.5t23.5 114.5v91h230v-93z" />
    <glyph glyph-name="Agrave" unicode="&#xc0;" horiz-adv-x="1570" 
d="M1082 321h-590l-110 -321h-366l585 1570h373l580 -1570h-364zM982 619l-179 535h-27l-183 -535h389zM364 2030h289l235 -321h-205z" />
    <glyph glyph-name="Aacute" unicode="&#xc1;" horiz-adv-x="1570" 
d="M1082 321h-590l-110 -321h-366l585 1570h373l580 -1570h-364zM982 619l-179 535h-27l-183 -535h389zM904 2030h289l-342 -321h-198z" />
    <glyph glyph-name="Acircumflex" unicode="&#xc2;" horiz-adv-x="1570" 
d="M1082 321h-590l-110 -321h-366l585 1570h373l580 -1570h-364zM982 619l-179 535h-27l-183 -535h389zM783 2071l353 -391h-210l-143 139l-141 -139h-210z" />
    <glyph glyph-name="Atilde" unicode="&#xc3;" horiz-adv-x="1570" 
d="M1082 321h-590l-110 -321h-366l585 1570h373l580 -1570h-364zM982 619l-179 535h-27l-183 -535h389zM841 1703.5q-37 14.5 -61 35t-55 52.5q-29 30 -47.5 43.5t-40.5 13.5q-35 0 -54 -40t-19 -113h-155q0 152 63 235.5t174 83.5q61 0 103 -26t89 -73q30 -30 49.5 -44
t40.5 -14q30 0 49 39.5t19 110.5h162q0 -152 -62 -235t-170 -83q-48 0 -85 14.5z" />
    <glyph glyph-name="Adieresis" unicode="&#xc4;" horiz-adv-x="1570" 
d="M1082 321h-590l-110 -321h-366l585 1570h373l580 -1570h-364zM982 619l-179 535h-27l-183 -535h389zM480 1695.5q-39 22.5 -61.5 61t-22.5 84.5q0 45 22.5 83t61.5 60.5t85 22.5q45 0 83 -22.5t60.5 -60.5t22.5 -83q0 -46 -22.5 -84.5t-60.5 -61t-83 -22.5
q-46 0 -85 22.5zM923.5 1695.5q-38.5 22.5 -61 61t-22.5 84.5q0 45 22.5 83t61 60.5t84.5 22.5q45 0 83 -22.5t60.5 -60.5t22.5 -83q0 -46 -22.5 -84.5t-60.5 -61t-83 -22.5q-46 0 -84.5 22.5z" />
    <glyph glyph-name="Aring" unicode="&#xc5;" horiz-adv-x="1570" 
d="M1082 321h-590l-110 -321h-366l585 1570h373l580 -1570h-364zM982 619l-179 535h-27l-183 -535h389zM653.5 1683q-58.5 35 -92 94t-33.5 128t34 127.5t92.5 93t127.5 34.5t128 -34t94.5 -92.5t35.5 -128.5t-34.5 -129t-93.5 -93.5t-130 -34.5q-70 0 -128.5 35z
M862.5 1825q31.5 32 31.5 82q0 48 -30 77.5t-82 29.5q-49 0 -79 -30t-30 -77q0 -49 31.5 -81.5t77.5 -32.5q49 0 80.5 32z" />
    <glyph glyph-name="AE" unicode="&#xc6;" horiz-adv-x="2244" 
d="M1361 1274v-350h664v-280h-664v-341h758v-303h-1093v325h-522l-122 -325h-366l639 1570h1464v-296h-758zM1026 612v662h-164l-249 -662h413z" />
    <glyph glyph-name="Ccedilla" unicode="&#xc7;" horiz-adv-x="1636" 
d="M1445.5 222.5q-93.5 -111.5 -229.5 -175t-307 -71.5l-54 -69q38 -5 61 -14q54 -21 86.5 -66.5t32.5 -104.5t-30.5 -107t-83.5 -75t-118 -27q-58 0 -118.5 23t-118.5 70l73 119q85 -80 171 -80q42 0 66.5 22t24.5 53q0 29 -20.5 50.5t-61.5 33.5q-45 14 -141 14l102 160
q-212 16 -367.5 118t-238.5 278t-83 411q0 247 93 430t265 281.5t404 98.5q175 0 317.5 -56t243.5 -161.5t154 -251.5l-314 -120q-44 137 -150 214t-251 77q-129 0 -225 -63t-148 -178.5t-52 -270.5q0 -161 54 -276.5t151 -175.5t225 -60q151 0 257 83t148 229l321 -98
q-45 -153 -138.5 -264.5z" />
    <glyph glyph-name="Egrave" unicode="&#xc8;" horiz-adv-x="1381" 
d="M203 1570h1008v-298h-672v-339h633v-298h-633v-337h717v-298h-1053v1570zM298 2030h289l235 -321h-205z" />
    <glyph glyph-name="Eacute" unicode="&#xc9;" horiz-adv-x="1381" 
d="M203 1570h1008v-298h-672v-339h633v-298h-633v-337h717v-298h-1053v1570zM838 2030h289l-342 -321h-198z" />
    <glyph glyph-name="Ecircumflex" unicode="&#xca;" horiz-adv-x="1381" 
d="M203 1570h1008v-298h-672v-339h633v-298h-633v-337h717v-298h-1053v1570zM717 2071l353 -391h-210l-143 139l-141 -139h-210z" />
    <glyph glyph-name="Edieresis" unicode="&#xcb;" horiz-adv-x="1381" 
d="M203 1570h1008v-298h-672v-339h633v-298h-633v-337h717v-298h-1053v1570zM414 1695.5q-39 22.5 -61.5 61t-22.5 84.5q0 45 22.5 83t61.5 60.5t85 22.5q45 0 83 -22.5t60.5 -60.5t22.5 -83q0 -46 -22.5 -84.5t-60.5 -61t-83 -22.5q-46 0 -85 22.5zM857.5 1695.5
q-38.5 22.5 -61 61t-22.5 84.5q0 45 22.5 83t61 60.5t84.5 22.5q45 0 83 -22.5t60.5 -60.5t22.5 -83q0 -46 -22.5 -84.5t-60.5 -61t-83 -22.5q-46 0 -84.5 22.5z" />
    <glyph glyph-name="Igrave" unicode="&#xcc;" horiz-adv-x="742" 
d="M203 1570h336v-1570h-336v1570zM-50 2030h289l235 -321h-205z" />
    <glyph glyph-name="Iacute" unicode="&#xcd;" horiz-adv-x="742" 
d="M203 1570h336v-1570h-336v1570zM490 2030h289l-342 -321h-198z" />
    <glyph glyph-name="Icircumflex" unicode="&#xce;" horiz-adv-x="742" 
d="M203 1570h336v-1570h-336v1570zM369 2071l353 -391h-210l-143 139l-141 -139h-210z" />
    <glyph glyph-name="Idieresis" unicode="&#xcf;" horiz-adv-x="742" 
d="M203 1570h336v-1570h-336v1570zM66 1695.5q-39 22.5 -61.5 61t-22.5 84.5q0 45 22.5 83t61.5 60.5t85 22.5q45 0 83 -22.5t60.5 -60.5t22.5 -83q0 -46 -22.5 -84.5t-60.5 -61t-83 -22.5q-46 0 -85 22.5zM509.5 1695.5q-38.5 22.5 -61 61t-22.5 84.5q0 45 22.5 83t61 60.5
t84.5 22.5q45 0 83 -22.5t60.5 -60.5t22.5 -83q0 -46 -22.5 -84.5t-60.5 -61t-83 -22.5q-46 0 -84.5 22.5z" />
    <glyph glyph-name="Eth" unicode="&#xd0;" horiz-adv-x="1586" 
d="M1432.5 1139q62.5 -156 62.5 -365q0 -204 -63.5 -357.5t-189.5 -252.5q-74 -59 -152 -93.5t-193.5 -52.5t-291.5 -18h-402v669h-127v182h127v719h405q176 0 292 -19.5t195 -56.5t154 -99q121 -100 183.5 -256zM1158 787q0 119 -33 211t-94 151q-49 48 -98 73.5
t-125.5 37.5t-204.5 12h-64v-421h242v-182h-242v-371h34q129 0 208 11.5t131 35.5t103 69q143 127 143 373z" />
    <glyph glyph-name="Ntilde" unicode="&#xd1;" horiz-adv-x="1736" 
d="M203 1570h498l469 -1133h27v1133h337v-1570h-501l-466 1136h-28v-1136h-336v1570zM923 1703.5q-37 14.5 -61 35t-55 52.5q-29 30 -47.5 43.5t-40.5 13.5q-35 0 -54 -40t-19 -113h-155q0 152 63 235.5t174 83.5q61 0 103 -26t89 -73q30 -30 49.5 -44t40.5 -14
q30 0 49 39.5t19 110.5h162q0 -152 -62 -235t-170 -83q-48 0 -85 14.5z" />
    <glyph glyph-name="Ograve" unicode="&#xd2;" horiz-adv-x="1713" 
d="M452 70.5q-172 95.5 -265.5 278t-93.5 436.5t93.5 436.5t265.5 278t404 95.5q233 0 405 -95t265.5 -277.5t93.5 -437.5t-93.5 -437t-265.5 -277.5t-405 -95.5q-232 0 -404 95.5zM1082 332.5q97 59.5 150.5 175t53.5 277.5t-53.5 277.5t-150.5 175t-226 59.5
q-128 0 -224 -59.5t-149 -175t-53 -277.5t53 -277.5t149 -175t224 -59.5q129 0 226 59.5zM435 2028h289l235 -321h-205z" />
    <glyph glyph-name="Oacute" unicode="&#xd3;" horiz-adv-x="1713" 
d="M452 70.5q-172 95.5 -265.5 278t-93.5 436.5t93.5 436.5t265.5 278t404 95.5q233 0 405 -95t265.5 -277.5t93.5 -437.5t-93.5 -437t-265.5 -277.5t-405 -95.5q-232 0 -404 95.5zM1082 332.5q97 59.5 150.5 175t53.5 277.5t-53.5 277.5t-150.5 175t-226 59.5
q-128 0 -224 -59.5t-149 -175t-53 -277.5t53 -277.5t149 -175t224 -59.5q129 0 226 59.5zM975 2028h289l-342 -321h-198z" />
    <glyph glyph-name="Ocircumflex" unicode="&#xd4;" horiz-adv-x="1713" 
d="M452 70.5q-172 95.5 -265.5 278t-93.5 436.5t93.5 436.5t265.5 278t404 95.5q233 0 405 -95t265.5 -277.5t93.5 -437.5t-93.5 -437t-265.5 -277.5t-405 -95.5q-232 0 -404 95.5zM1082 332.5q97 59.5 150.5 175t53.5 277.5t-53.5 277.5t-150.5 175t-226 59.5
q-128 0 -224 -59.5t-149 -175t-53 -277.5t53 -277.5t149 -175t224 -59.5q129 0 226 59.5zM854 2069l353 -391h-210l-143 139l-141 -139h-210z" />
    <glyph glyph-name="Otilde" unicode="&#xd5;" horiz-adv-x="1713" 
d="M452 70.5q-172 95.5 -265.5 278t-93.5 436.5t93.5 436.5t265.5 278t404 95.5q233 0 405 -95t265.5 -277.5t93.5 -437.5t-93.5 -437t-265.5 -277.5t-405 -95.5q-232 0 -404 95.5zM1082 332.5q97 59.5 150.5 175t53.5 277.5t-53.5 277.5t-150.5 175t-226 59.5
q-128 0 -224 -59.5t-149 -175t-53 -277.5t53 -277.5t149 -175t224 -59.5q129 0 226 59.5zM912 1701.5q-37 14.5 -61 35t-55 52.5q-29 30 -47.5 43.5t-40.5 13.5q-35 0 -54 -40t-19 -113h-155q0 152 63 235.5t174 83.5q61 0 103 -26t89 -73q30 -30 49.5 -44t40.5 -14
q30 0 49 39.5t19 110.5h162q0 -152 -62 -235t-170 -83q-48 0 -85 14.5z" />
    <glyph glyph-name="Odieresis" unicode="&#xd6;" horiz-adv-x="1713" 
d="M452 70.5q-172 95.5 -265.5 278t-93.5 436.5t93.5 436.5t265.5 278t404 95.5q233 0 405 -95t265.5 -277.5t93.5 -437.5t-93.5 -437t-265.5 -277.5t-405 -95.5q-232 0 -404 95.5zM1082 332.5q97 59.5 150.5 175t53.5 277.5t-53.5 277.5t-150.5 175t-226 59.5
q-128 0 -224 -59.5t-149 -175t-53 -277.5t53 -277.5t149 -175t224 -59.5q129 0 226 59.5zM551 1693.5q-39 22.5 -61.5 61t-22.5 84.5q0 45 22.5 83t61.5 60.5t85 22.5q45 0 83 -22.5t60.5 -60.5t22.5 -83q0 -46 -22.5 -84.5t-60.5 -61t-83 -22.5q-46 0 -85 22.5z
M994.5 1693.5q-38.5 22.5 -61 61t-22.5 84.5q0 45 22.5 83t61 60.5t84.5 22.5q45 0 83 -22.5t60.5 -60.5t22.5 -83q0 -46 -22.5 -84.5t-60.5 -61t-83 -22.5q-46 0 -84.5 22.5z" />
    <glyph glyph-name="multiply" unicode="&#xd7;" horiz-adv-x="1277" 
d="M640 510l-335 -335l-145 144l335 335l-335 335l145 145l335 -335l335 335l144 -145l-334 -334l335 -335l-145 -145z" />
    <glyph glyph-name="Oslash" unicode="&#xd8;" horiz-adv-x="1713" 
d="M1554.5 1160q65.5 -163 65.5 -375q0 -255 -93.5 -437t-265.5 -277.5t-405 -95.5q-183 0 -332 61l-60 -100l-179 109l60 100q-122 104 -187 266.5t-65 373.5q0 254 93.5 436.5t265.5 278t404 95.5q186 0 331 -60l58 96l180 -109l-58 -95q122 -104 187.5 -267zM523 437
l501 829q-74 31 -168 31q-128 0 -224 -59.5t-149 -175t-53 -277.5q0 -216 93 -348zM1082 332.5q97 59.5 150.5 175t53.5 277.5q0 218 -95 350l-504 -831q79 -31 169 -31q129 0 226 59.5z" />
    <glyph glyph-name="Ugrave" unicode="&#xd9;" horiz-adv-x="1575" 
d="M521.5 11q-116.5 36 -193.5 103q-55 47 -89 111.5t-51 163t-17 244.5v937h336v-926q0 -134 14 -199t50 -99q35 -33 89.5 -53t126.5 -20q138 0 214 73q25 23 39 57t20.5 90.5t6.5 150.5v926h337v-937q0 -145 -17 -243.5t-51 -163.5t-89 -112q-77 -67 -193.5 -103
t-266.5 -36q-149 0 -265.5 36zM366 2030h289l235 -321h-205z" />
    <glyph glyph-name="Uacute" unicode="&#xda;" horiz-adv-x="1575" 
d="M521.5 11q-116.5 36 -193.5 103q-55 47 -89 111.5t-51 163t-17 244.5v937h336v-926q0 -134 14 -199t50 -99q35 -33 89.5 -53t126.5 -20q138 0 214 73q25 23 39 57t20.5 90.5t6.5 150.5v926h337v-937q0 -145 -17 -243.5t-51 -163.5t-89 -112q-77 -67 -193.5 -103
t-266.5 -36q-149 0 -265.5 36zM906 2030h289l-342 -321h-198z" />
    <glyph glyph-name="Ucircumflex" unicode="&#xdb;" horiz-adv-x="1575" 
d="M521.5 11q-116.5 36 -193.5 103q-55 47 -89 111.5t-51 163t-17 244.5v937h336v-926q0 -134 14 -199t50 -99q35 -33 89.5 -53t126.5 -20q138 0 214 73q25 23 39 57t20.5 90.5t6.5 150.5v926h337v-937q0 -145 -17 -243.5t-51 -163.5t-89 -112q-77 -67 -193.5 -103
t-266.5 -36q-149 0 -265.5 36zM785 2071l353 -391h-210l-143 139l-141 -139h-210z" />
    <glyph glyph-name="Udieresis" unicode="&#xdc;" horiz-adv-x="1575" 
d="M521.5 11q-116.5 36 -193.5 103q-55 47 -89 111.5t-51 163t-17 244.5v937h336v-926q0 -134 14 -199t50 -99q35 -33 89.5 -53t126.5 -20q138 0 214 73q25 23 39 57t20.5 90.5t6.5 150.5v926h337v-937q0 -145 -17 -243.5t-51 -163.5t-89 -112q-77 -67 -193.5 -103
t-266.5 -36q-149 0 -265.5 36zM482 1695.5q-39 22.5 -61.5 61t-22.5 84.5q0 45 22.5 83t61.5 60.5t85 22.5q45 0 83 -22.5t60.5 -60.5t22.5 -83q0 -46 -22.5 -84.5t-60.5 -61t-83 -22.5q-46 0 -85 22.5zM925.5 1695.5q-38.5 22.5 -61 61t-22.5 84.5q0 45 22.5 83t61 60.5
t84.5 22.5q45 0 83 -22.5t60.5 -60.5t22.5 -83q0 -46 -22.5 -84.5t-60.5 -61t-83 -22.5q-46 0 -84.5 22.5z" />
    <glyph glyph-name="Yacute" unicode="&#xdd;" horiz-adv-x="1516" 
d="M589 585l-591 985h393l351 -612h29l353 612h394l-592 -985v-585h-337v585zM877 2030h289l-342 -321h-198z" />
    <glyph glyph-name="Thorn" unicode="&#xde;" horiz-adv-x="1347" 
d="M203 1570h336v-209h294q225 0 340 -121t115 -343q0 -152 -55.5 -257.5t-157.5 -158.5t-242 -53h-294v-428h-336v1570zM806 742q71 0 110.5 36.5t39.5 120.5q0 88 -36.5 119t-83.5 31q-10 0 -19 -1t-11 -1h-267v-305h267z" />
    <glyph glyph-name="germandbls" unicode="&#xdf;" horiz-adv-x="1347" 
d="M603 16l102 250q50 -18 105 -18q61 0 97.5 31.5t36.5 77.5q0 34 -17 61t-42.5 48t-70.5 53q-63 45 -101 80t-66 89.5t-28 130.5q0 64 20.5 109.5t48.5 73t74 61.5q49 36 72.5 63t23.5 69q0 34 -18 67t-62 55.5t-116 22.5q-98 0 -143 -40t-53.5 -84t-8.5 -101v-1115h-293
v1115q0 154 66 262.5t179 163t253 54.5q141 0 253.5 -52.5t175.5 -143.5t63 -202q0 -75 -27 -128t-63 -85t-91 -69q-43 -28 -61 -44.5t-18 -37.5q0 -23 24 -45.5t80 -60.5q74 -51 123.5 -94.5t86.5 -112.5t37 -160q0 -109 -56.5 -196t-154 -135.5t-215.5 -48.5
q-113 0 -216 36z" />
    <glyph glyph-name="agrave" unicode="&#xe0;" horiz-adv-x="1222" 
d="M1071 859q17 -68 17 -183v-676h-255l-43 68h-25q-36 -32 -71 -50q-86 -43 -205 -43q-128 0 -223.5 46t-147.5 130t-52 195q0 101 43.5 175.5t124.5 115.5q52 27 130.5 39.5t220.5 12.5h205q-2 61 -13.5 97t-39.5 58q-50 41 -157 41q-70 0 -151.5 -31.5t-155.5 -88.5
l-177 200q109 80 235.5 125.5t248.5 45.5q155 0 266.5 -42t172.5 -122q35 -45 52 -113zM776 356q11 41 13 99h-293q-29 0 -53 -8.5t-45 -32.5q-17 -19 -22 -31.5t-5 -38.5q0 -59 42.5 -95.5t128.5 -36.5q58 0 111 19.5t87 55.5q25 28 36 69zM189 1570h289l235 -321h-205z
" />
    <glyph glyph-name="aacute" unicode="&#xe1;" horiz-adv-x="1222" 
d="M1071 859q17 -68 17 -183v-676h-255l-43 68h-25q-36 -32 -71 -50q-86 -43 -205 -43q-128 0 -223.5 46t-147.5 130t-52 195q0 101 43.5 175.5t124.5 115.5q52 27 130.5 39.5t220.5 12.5h205q-2 61 -13.5 97t-39.5 58q-50 41 -157 41q-70 0 -151.5 -31.5t-155.5 -88.5
l-177 200q109 80 235.5 125.5t248.5 45.5q155 0 266.5 -42t172.5 -122q35 -45 52 -113zM776 356q11 41 13 99h-293q-29 0 -53 -8.5t-45 -32.5q-17 -19 -22 -31.5t-5 -38.5q0 -59 42.5 -95.5t128.5 -36.5q58 0 111 19.5t87 55.5q25 28 36 69zM729 1570h289l-342 -321h-198z
" />
    <glyph glyph-name="acircumflex" unicode="&#xe2;" horiz-adv-x="1222" 
d="M1071 859q17 -68 17 -183v-676h-255l-43 68h-25q-36 -32 -71 -50q-86 -43 -205 -43q-128 0 -223.5 46t-147.5 130t-52 195q0 101 43.5 175.5t124.5 115.5q52 27 130.5 39.5t220.5 12.5h205q-2 61 -13.5 97t-39.5 58q-50 41 -157 41q-70 0 -151.5 -31.5t-155.5 -88.5
l-177 200q109 80 235.5 125.5t248.5 45.5q155 0 266.5 -42t172.5 -122q35 -45 52 -113zM776 356q11 41 13 99h-293q-29 0 -53 -8.5t-45 -32.5q-17 -19 -22 -31.5t-5 -38.5q0 -59 42.5 -95.5t128.5 -36.5q58 0 111 19.5t87 55.5q25 28 36 69zM608 1611l353 -391h-210
l-143 139l-141 -139h-210z" />
    <glyph glyph-name="atilde" unicode="&#xe3;" horiz-adv-x="1222" 
d="M1071 859q17 -68 17 -183v-676h-255l-43 68h-25q-36 -32 -71 -50q-86 -43 -205 -43q-128 0 -223.5 46t-147.5 130t-52 195q0 101 43.5 175.5t124.5 115.5q52 27 130.5 39.5t220.5 12.5h205q-2 61 -13.5 97t-39.5 58q-50 41 -157 41q-70 0 -151.5 -31.5t-155.5 -88.5
l-177 200q109 80 235.5 125.5t248.5 45.5q155 0 266.5 -42t172.5 -122q35 -45 52 -113zM776 356q11 41 13 99h-293q-29 0 -53 -8.5t-45 -32.5q-17 -19 -22 -31.5t-5 -38.5q0 -59 42.5 -95.5t128.5 -36.5q58 0 111 19.5t87 55.5q25 28 36 69zM666 1243.5q-37 14.5 -61 35
t-55 52.5q-29 30 -47.5 43.5t-40.5 13.5q-35 0 -54 -40t-19 -113h-155q0 152 63 235.5t174 83.5q61 0 103 -26t89 -73q30 -30 49.5 -44t40.5 -14q30 0 49 39.5t19 110.5h162q0 -152 -62 -235t-170 -83q-48 0 -85 14.5z" />
    <glyph glyph-name="adieresis" unicode="&#xe4;" horiz-adv-x="1222" 
d="M1071 859q17 -68 17 -183v-676h-255l-43 68h-25q-36 -32 -71 -50q-86 -43 -205 -43q-128 0 -223.5 46t-147.5 130t-52 195q0 101 43.5 175.5t124.5 115.5q52 27 130.5 39.5t220.5 12.5h205q-2 61 -13.5 97t-39.5 58q-50 41 -157 41q-70 0 -151.5 -31.5t-155.5 -88.5
l-177 200q109 80 235.5 125.5t248.5 45.5q155 0 266.5 -42t172.5 -122q35 -45 52 -113zM776 356q11 41 13 99h-293q-29 0 -53 -8.5t-45 -32.5q-17 -19 -22 -31.5t-5 -38.5q0 -59 42.5 -95.5t128.5 -36.5q58 0 111 19.5t87 55.5q25 28 36 69zM305 1280.5q-39 22.5 -61.5 61.5
t-22.5 85q0 45 22.5 83t61.5 60.5t85 22.5q45 0 83 -22.5t60.5 -60.5t22.5 -83q0 -46 -22.5 -85t-60.5 -61.5t-83 -22.5q-46 0 -85 22.5zM748.5 1280.5q-38.5 22.5 -61 61.5t-22.5 85q0 45 22.5 83t61 60.5t84.5 22.5q45 0 83 -22.5t60.5 -60.5t22.5 -83q0 -46 -22.5 -85
t-60.5 -61.5t-83 -22.5q-46 0 -84.5 22.5z" />
    <glyph glyph-name="aring" unicode="&#xe5;" horiz-adv-x="1222" 
d="M1071 859q17 -68 17 -183v-676h-255l-43 68h-25q-36 -32 -71 -50q-86 -43 -205 -43q-128 0 -223.5 46t-147.5 130t-52 195q0 101 43.5 175.5t124.5 115.5q52 27 130.5 39.5t220.5 12.5h205q-2 61 -13.5 97t-39.5 58q-50 41 -157 41q-70 0 -151.5 -31.5t-155.5 -88.5
l-177 200q109 80 235.5 125.5t248.5 45.5q155 0 266.5 -42t172.5 -122q35 -45 52 -113zM776 356q11 41 13 99h-293q-29 0 -53 -8.5t-45 -32.5q-17 -19 -22 -31.5t-5 -38.5q0 -59 42.5 -95.5t128.5 -36.5q58 0 111 19.5t87 55.5q25 28 36 69zM478.5 1223q-58.5 35 -92 94
t-33.5 128t34 127.5t92.5 93t127.5 34.5t128 -34t94.5 -92.5t35.5 -128.5t-34.5 -129t-93.5 -93.5t-130 -34.5q-70 0 -128.5 35zM687.5 1365q31.5 32 31.5 82q0 48 -30 77.5t-82 29.5q-49 0 -79 -30t-30 -77q0 -49 31.5 -81.5t77.5 -32.5q49 0 80.5 32z" />
    <glyph glyph-name="ae" unicode="&#xe6;" horiz-adv-x="1943" 
d="M269 18.5q-98 43.5 -153 127.5t-55 200q0 323 462 323h273v39q0 77 -57.5 122.5t-158.5 45.5q-70 0 -145.5 -38t-134.5 -103l-216 180q105 105 236.5 163t257.5 58q118 0 216.5 -29t165.5 -83h30q154 112 364 112q186 0 303 -85.5t168.5 -216t51.5 -270.5q0 -35 -3.5 -66
t-7.5 -41h-749q19 -103 82.5 -157t177.5 -54q154 0 252 114l205 -180q-182 -205 -462 -205q-139 0 -245 44.5t-178 126.5h-34q-66 -78 -142 -116t-140 -46.5t-139 -8.5q-127 0 -225 43.5zM1586 669q-7 54 -11 71q-21 75 -81 110t-140 35q-107 0 -161.5 -57.5t-75.5 -158.5
h469zM661 255.5q64 27.5 102 77t33 111.5v13h-254q-97 0 -136.5 -37t-39.5 -85t41.5 -77.5t120.5 -29.5q69 0 133 27.5z" />
    <glyph glyph-name="ccedilla" unicode="&#xe7;" horiz-adv-x="1138" 
d="M994 151.5q-66 -81.5 -163.5 -127.5t-216.5 -49l-54 -68q38 -5 61 -14q54 -21 86.5 -66.5t32.5 -104.5t-30.5 -107t-83.5 -75t-118 -27q-58 0 -118.5 23t-118.5 70l73 119q85 -80 171 -80q42 0 66.5 22t24.5 53q0 29 -20.5 50.5t-61.5 33.5q-46 14 -141 14l106 166
q-129 24 -224.5 102.5t-147 200.5t-51.5 271q0 171 66.5 302t187 203.5t276.5 72.5q124 0 225 -44.5t169 -126t95 -189.5l-270 -77q-20 87 -74.5 137.5t-144.5 50.5q-118 0 -172.5 -91.5t-54.5 -237.5t54.5 -240.5t172.5 -94.5q88 0 143.5 52.5t75.5 140.5l273 -75
q-28 -108 -94 -189.5z" />
    <glyph glyph-name="egrave" unicode="&#xe8;" horiz-adv-x="1204" 
d="M1129 457h-753q12 -103 78 -167.5t183 -64.5q77 0 140 31t115 104l203 -180q-180 -205 -460 -205q-187 0 -316 80t-192 211.5t-63 284.5q0 149 60 283t184.5 218t308.5 84t301 -85.5t168.5 -215.5t51.5 -271q0 -44 -9 -107zM460 828.5q-61 -56.5 -80 -136.5h466
q-4 31 -11 54q-20 69 -81.5 104t-134.5 35q-98 0 -159 -56.5zM214 1570h289l235 -321h-205z" />
    <glyph glyph-name="eacute" unicode="&#xe9;" horiz-adv-x="1204" 
d="M1129 457h-753q12 -103 78 -167.5t183 -64.5q77 0 140 31t115 104l203 -180q-180 -205 -460 -205q-187 0 -316 80t-192 211.5t-63 284.5q0 149 60 283t184.5 218t308.5 84t301 -85.5t168.5 -215.5t51.5 -271q0 -44 -9 -107zM460 828.5q-61 -56.5 -80 -136.5h466
q-4 31 -11 54q-20 69 -81.5 104t-134.5 35q-98 0 -159 -56.5zM754 1570h289l-342 -321h-198z" />
    <glyph glyph-name="ecircumflex" unicode="&#xea;" horiz-adv-x="1204" 
d="M1129 457h-753q12 -103 78 -167.5t183 -64.5q77 0 140 31t115 104l203 -180q-180 -205 -460 -205q-187 0 -316 80t-192 211.5t-63 284.5q0 149 60 283t184.5 218t308.5 84t301 -85.5t168.5 -215.5t51.5 -271q0 -44 -9 -107zM460 828.5q-61 -56.5 -80 -136.5h466
q-4 31 -11 54q-20 69 -81.5 104t-134.5 35q-98 0 -159 -56.5zM633 1611l353 -391h-210l-143 139l-141 -139h-210z" />
    <glyph glyph-name="edieresis" unicode="&#xeb;" horiz-adv-x="1204" 
d="M1129 457h-753q12 -103 78 -167.5t183 -64.5q77 0 140 31t115 104l203 -180q-180 -205 -460 -205q-187 0 -316 80t-192 211.5t-63 284.5q0 149 60 283t184.5 218t308.5 84t301 -85.5t168.5 -215.5t51.5 -271q0 -44 -9 -107zM460 828.5q-61 -56.5 -80 -136.5h466
q-4 31 -11 54q-20 69 -81.5 104t-134.5 35q-98 0 -159 -56.5zM330 1280.5q-39 22.5 -61.5 61.5t-22.5 85q0 45 22.5 83t61.5 60.5t85 22.5q45 0 83 -22.5t60.5 -60.5t22.5 -83q0 -46 -22.5 -85t-60.5 -61.5t-83 -22.5q-46 0 -85 22.5zM773.5 1280.5q-38.5 22.5 -61 61.5
t-22.5 85q0 45 22.5 83t61 60.5t84.5 22.5q45 0 83 -22.5t60.5 -60.5t22.5 -83q0 -46 -22.5 -85t-60.5 -61.5t-83 -22.5q-46 0 -84.5 22.5z" />
    <glyph glyph-name="igrave" unicode="&#xec;" horiz-adv-x="624" 
d="M162 1110h300v-1110h-300v1110zM-109 1570h289l235 -321h-205z" />
    <glyph glyph-name="iacute" unicode="&#xed;" horiz-adv-x="624" 
d="M162 1110h300v-1110h-300v1110zM431 1570h289l-342 -321h-198z" />
    <glyph glyph-name="icircumflex" unicode="&#xee;" horiz-adv-x="624" 
d="M162 1110h300v-1110h-300v1110zM310 1611l353 -391h-210l-143 139l-141 -139h-210z" />
    <glyph glyph-name="idieresis" unicode="&#xef;" horiz-adv-x="624" 
d="M162 1110h300v-1110h-300v1110zM7 1280.5q-39 22.5 -61.5 61.5t-22.5 85q0 45 22.5 83t61.5 60.5t85 22.5q45 0 83 -22.5t60.5 -60.5t22.5 -83q0 -46 -22.5 -85t-60.5 -61.5t-83 -22.5q-46 0 -85 22.5zM450.5 1280.5q-38.5 22.5 -61 61.5t-22.5 85q0 45 22.5 83t61 60.5
t84.5 22.5q45 0 83 -22.5t60.5 -60.5t22.5 -83q0 -46 -22.5 -85t-60.5 -61.5t-83 -22.5q-46 0 -84.5 22.5z" />
    <glyph glyph-name="eth" unicode="&#xf0;" horiz-adv-x="1258" 
d="M332 52.5q-133 77.5 -208.5 206t-75.5 273.5q0 151 78.5 272.5t211.5 190t290 68.5q-1 0 -1 2l3 11l-82 116l-38 -43h-157l129 146l-182 275h328l48 -64l50 64h155l-132 -150l257 -421q87 -142 130 -226.5t57.5 -138.5t14.5 -111q0 -149 -77.5 -274.5t-210 -199.5
t-290.5 -74q-165 0 -298 77.5zM767.5 301.5q64.5 35.5 102.5 96.5t38 132q0 72 -38 133t-102.5 97t-139.5 36t-139 -36t-101.5 -97t-37.5 -133q0 -71 37.5 -132t101.5 -96.5t139 -35.5t139.5 35.5z" />
    <glyph glyph-name="ntilde" unicode="&#xf1;" horiz-adv-x="1320" 
d="M162 1110h273l22 -70h25q50 45 126 70.5t163 25.5q172 0 276 -85q64 -51 94.5 -120.5t37.5 -135t7 -153.5v-642h-294v596q0 65 -2.5 103t-14.5 73t-38 61q-56 57 -158 57q-125 0 -181 -82q-25 -38 -33 -93.5t-8 -143.5v-571h-295v1110zM711 1243.5q-37 14.5 -61 35
t-55 52.5q-29 30 -47.5 43.5t-40.5 13.5q-35 0 -54 -40t-19 -113h-155q0 152 63 235.5t174 83.5q61 0 103 -26t89 -73q30 -30 49.5 -44t40.5 -14q30 0 49 39.5t19 110.5h162q0 -152 -62 -235t-170 -83q-48 0 -85 14.5z" />
    <glyph glyph-name="ograve" unicode="&#xf2;" horiz-adv-x="1258" 
d="M330.5 50.5q-128.5 75.5 -197.5 208t-69 299.5q0 166 69 297.5t197.5 206t299.5 74.5t299 -74.5t197 -206t69 -297.5q0 -167 -69 -299.5t-197.5 -208t-298.5 -75.5q-171 0 -299.5 75.5zM830.5 319q63.5 94 63.5 239q0 143 -63.5 235t-200.5 92q-138 0 -202 -92.5
t-64 -234.5q0 -144 64 -238.5t202 -94.5q137 0 200.5 94zM209 1570h289l235 -321h-205z" />
    <glyph glyph-name="oacute" unicode="&#xf3;" horiz-adv-x="1258" 
d="M330.5 50.5q-128.5 75.5 -197.5 208t-69 299.5q0 166 69 297.5t197.5 206t299.5 74.5t299 -74.5t197 -206t69 -297.5q0 -167 -69 -299.5t-197.5 -208t-298.5 -75.5q-171 0 -299.5 75.5zM830.5 319q63.5 94 63.5 239q0 143 -63.5 235t-200.5 92q-138 0 -202 -92.5
t-64 -234.5q0 -144 64 -238.5t202 -94.5q137 0 200.5 94zM749 1570h289l-342 -321h-198z" />
    <glyph glyph-name="ocircumflex" unicode="&#xf4;" horiz-adv-x="1258" 
d="M330.5 50.5q-128.5 75.5 -197.5 208t-69 299.5q0 166 69 297.5t197.5 206t299.5 74.5t299 -74.5t197 -206t69 -297.5q0 -167 -69 -299.5t-197.5 -208t-298.5 -75.5q-171 0 -299.5 75.5zM830.5 319q63.5 94 63.5 239q0 143 -63.5 235t-200.5 92q-138 0 -202 -92.5
t-64 -234.5q0 -144 64 -238.5t202 -94.5q137 0 200.5 94zM628 1611l353 -391h-210l-143 139l-141 -139h-210z" />
    <glyph glyph-name="otilde" unicode="&#xf5;" horiz-adv-x="1258" 
d="M330.5 50.5q-128.5 75.5 -197.5 208t-69 299.5q0 166 69 297.5t197.5 206t299.5 74.5t299 -74.5t197 -206t69 -297.5q0 -167 -69 -299.5t-197.5 -208t-298.5 -75.5q-171 0 -299.5 75.5zM830.5 319q63.5 94 63.5 239q0 143 -63.5 235t-200.5 92q-138 0 -202 -92.5
t-64 -234.5q0 -144 64 -238.5t202 -94.5q137 0 200.5 94zM686 1243.5q-37 14.5 -61 35t-55 52.5q-29 30 -47.5 43.5t-40.5 13.5q-35 0 -54 -40t-19 -113h-155q0 152 63 235.5t174 83.5q61 0 103 -26t89 -73q30 -30 49.5 -44t40.5 -14q30 0 49 39.5t19 110.5h162
q0 -152 -62 -235t-170 -83q-48 0 -85 14.5z" />
    <glyph glyph-name="odieresis" unicode="&#xf6;" horiz-adv-x="1258" 
d="M330.5 50.5q-128.5 75.5 -197.5 208t-69 299.5q0 166 69 297.5t197.5 206t299.5 74.5t299 -74.5t197 -206t69 -297.5q0 -167 -69 -299.5t-197.5 -208t-298.5 -75.5q-171 0 -299.5 75.5zM830.5 319q63.5 94 63.5 239q0 143 -63.5 235t-200.5 92q-138 0 -202 -92.5
t-64 -234.5q0 -144 64 -238.5t202 -94.5q137 0 200.5 94zM325 1280.5q-39 22.5 -61.5 61.5t-22.5 85q0 45 22.5 83t61.5 60.5t85 22.5q45 0 83 -22.5t60.5 -60.5t22.5 -83q0 -46 -22.5 -85t-60.5 -61.5t-83 -22.5q-46 0 -85 22.5zM768.5 1280.5q-38.5 22.5 -61 61.5
t-22.5 85q0 45 22.5 83t61 60.5t84.5 22.5q45 0 83 -22.5t60.5 -60.5t22.5 -83q0 -46 -22.5 -85t-60.5 -61.5t-83 -22.5q-46 0 -84.5 22.5z" />
    <glyph glyph-name="divide" unicode="&#xf7;" horiz-adv-x="1277" 
d="M532 928.5q-39 22.5 -61.5 61t-22.5 84.5q0 45 22.5 83t61.5 60.5t85 22.5q45 0 83 -22.5t60.5 -60.5t22.5 -83q0 -46 -22.5 -84.5t-60.5 -61t-83 -22.5q-46 0 -85 22.5zM164 801h946v-205h-946v205zM532 159.5q-39 22.5 -61.5 61t-22.5 84.5q0 45 22.5 83t61.5 60.5
t85 22.5q45 0 83 -22.5t60.5 -60.5t22.5 -83q0 -46 -22.5 -84.5t-60.5 -61t-83 -22.5q-46 0 -85 22.5z" />
    <glyph glyph-name="oslash" unicode="&#xf8;" horiz-adv-x="1258" 
d="M1149.5 804.5q45.5 -112.5 45.5 -246.5q0 -167 -69 -299.5t-197.5 -208t-298.5 -75.5q-112 0 -209 34l-83 -137l-179 109l82 135q-86 80 -131.5 193.5t-45.5 248.5q0 166 69 297.5t197.5 206t299.5 74.5q112 0 209 -34l80 133l179 -109l-79 -131q85 -78 130.5 -190.5z
M397 374l305 503q-35 8 -72 8q-138 0 -202 -92.5t-64 -234.5q0 -107 33 -184zM830.5 319q63.5 94 63.5 239q0 103 -32 179l-305 -504q35 -8 73 -8q137 0 200.5 94z" />
    <glyph glyph-name="ugrave" unicode="&#xf9;" horiz-adv-x="1322" 
d="M275 57q-78 61 -110.5 156t-32.5 256v641h300v-593q0 -107 11 -156.5t42 -80.5q54 -55 161 -55q58 0 101.5 19t69.5 54q25 33 35 86t10 158v568h299v-1110h-299v75h-25q-52 -49 -126 -74.5t-167 -25.5q-163 0 -269 82zM243 1570h289l235 -321h-205z" />
    <glyph glyph-name="uacute" unicode="&#xfa;" horiz-adv-x="1322" 
d="M275 57q-78 61 -110.5 156t-32.5 256v641h300v-593q0 -107 11 -156.5t42 -80.5q54 -55 161 -55q58 0 101.5 19t69.5 54q25 33 35 86t10 158v568h299v-1110h-299v75h-25q-52 -49 -126 -74.5t-167 -25.5q-163 0 -269 82zM783 1570h289l-342 -321h-198z" />
    <glyph glyph-name="ucircumflex" unicode="&#xfb;" horiz-adv-x="1322" 
d="M275 57q-78 61 -110.5 156t-32.5 256v641h300v-593q0 -107 11 -156.5t42 -80.5q54 -55 161 -55q58 0 101.5 19t69.5 54q25 33 35 86t10 158v568h299v-1110h-299v75h-25q-52 -49 -126 -74.5t-167 -25.5q-163 0 -269 82zM662 1611l353 -391h-210l-143 139l-141 -139h-210z
" />
    <glyph glyph-name="udieresis" unicode="&#xfc;" horiz-adv-x="1322" 
d="M275 57q-78 61 -110.5 156t-32.5 256v641h300v-593q0 -107 11 -156.5t42 -80.5q54 -55 161 -55q58 0 101.5 19t69.5 54q25 33 35 86t10 158v568h299v-1110h-299v75h-25q-52 -49 -126 -74.5t-167 -25.5q-163 0 -269 82zM359 1280.5q-39 22.5 -61.5 61.5t-22.5 85
q0 45 22.5 83t61.5 60.5t85 22.5q45 0 83 -22.5t60.5 -60.5t22.5 -83q0 -46 -22.5 -85t-60.5 -61.5t-83 -22.5q-46 0 -85 22.5zM802.5 1280.5q-38.5 22.5 -61 61.5t-22.5 85q0 45 22.5 83t61 60.5t84.5 22.5q45 0 83 -22.5t60.5 -60.5t22.5 -83q0 -46 -22.5 -85t-60.5 -61.5
t-83 -22.5q-46 0 -84.5 22.5z" />
    <glyph glyph-name="yacute" unicode="&#xfd;" horiz-adv-x="1165" 
d="M423 32l-432 1078h328l248 -712h27l255 712h325l-626 -1570h-323zM702 1570h289l-342 -321h-198z" />
    <glyph glyph-name="thorn" unicode="&#xfe;" horiz-adv-x="1313" 
d="M164 1570h300v-526h25q49 43 123 67.5t153 24.5q147 0 252 -68.5t160.5 -199.5t55.5 -313t-56 -312.5t-162.5 -199t-256.5 -68.5q-80 0 -152 24t-117 65h-25v-524h-300v2030zM871 309.5q64 84.5 64 245.5q0 163 -63.5 246.5t-184.5 83.5t-186.5 -83.5t-65.5 -246.5
q0 -162 65.5 -246t186.5 -84q120 0 184 84.5z" />
    <glyph glyph-name="ydieresis" unicode="&#xff;" horiz-adv-x="1165" 
d="M423 32l-432 1078h328l248 -712h27l255 712h325l-626 -1570h-323zM278 1280.5q-39 22.5 -61.5 61.5t-22.5 85q0 45 22.5 83t61.5 60.5t85 22.5q45 0 83 -22.5t60.5 -60.5t22.5 -83q0 -46 -22.5 -85t-60.5 -61.5t-83 -22.5q-46 0 -85 22.5zM721.5 1280.5
q-38.5 22.5 -61 61.5t-22.5 85q0 45 22.5 83t61 60.5t84.5 22.5q45 0 83 -22.5t60.5 -60.5t22.5 -83q0 -46 -22.5 -85t-60.5 -61.5t-83 -22.5q-46 0 -84.5 22.5z" />
    <glyph glyph-name="Amacron" unicode="&#x100;" horiz-adv-x="1570" 
d="M1082 321h-590l-110 -321h-366l585 1570h373l580 -1570h-364zM982 619l-179 535h-27l-183 -535h389zM474 1894h621v-160h-621v160z" />
    <glyph glyph-name="amacron" unicode="&#x101;" horiz-adv-x="1222" 
d="M1071 859q17 -68 17 -183v-676h-255l-43 68h-25q-36 -32 -71 -50q-86 -43 -205 -43q-128 0 -223.5 46t-147.5 130t-52 195q0 101 43.5 175.5t124.5 115.5q52 27 130.5 39.5t220.5 12.5h205q-2 61 -13.5 97t-39.5 58q-50 41 -157 41q-70 0 -151.5 -31.5t-155.5 -88.5
l-177 200q109 80 235.5 125.5t248.5 45.5q155 0 266.5 -42t172.5 -122q35 -45 52 -113zM776 356q11 41 13 99h-293q-29 0 -53 -8.5t-45 -32.5q-17 -19 -22 -31.5t-5 -38.5q0 -59 42.5 -95.5t128.5 -36.5q58 0 111 19.5t87 55.5q25 28 36 69zM299 1434h621v-160h-621v160z
" />
    <glyph glyph-name="Abreve" unicode="&#x102;" horiz-adv-x="1570" 
d="M1082 321h-590l-110 -321h-366l585 1570h373l580 -1570h-364zM982 619l-179 535h-27l-183 -535h389zM522 1793q-87 86 -87 237h191q0 -85 43.5 -124.5t115.5 -39.5q74 0 116.5 40.5t42.5 123.5h191q0 -154 -89 -238.5t-261 -84.5q-176 0 -263 86z" />
    <glyph glyph-name="abreve" unicode="&#x103;" horiz-adv-x="1222" 
d="M1071 859q17 -68 17 -183v-676h-255l-43 68h-25q-36 -32 -71 -50q-86 -43 -205 -43q-128 0 -223.5 46t-147.5 130t-52 195q0 101 43.5 175.5t124.5 115.5q52 27 130.5 39.5t220.5 12.5h205q-2 61 -13.5 97t-39.5 58q-50 41 -157 41q-70 0 -151.5 -31.5t-155.5 -88.5
l-177 200q109 80 235.5 125.5t248.5 45.5q155 0 266.5 -42t172.5 -122q35 -45 52 -113zM776 356q11 41 13 99h-293q-29 0 -53 -8.5t-45 -32.5q-17 -19 -22 -31.5t-5 -38.5q0 -59 42.5 -95.5t128.5 -36.5q58 0 111 19.5t87 55.5q25 28 36 69zM347 1333q-87 86 -87 237h191
q0 -85 43.5 -124.5t115.5 -39.5q74 0 116.5 40.5t42.5 123.5h191q0 -154 -89 -238.5t-261 -84.5q-176 0 -263 86z" />
    <glyph glyph-name="Aogonek" unicode="&#x104;" horiz-adv-x="1570" 
d="M1082 321h-590l-110 -321h-366l585 1570h373l580 -1570h-364zM982 619l-179 535h-27l-183 -535h389zM1273 -430q-97 52 -97 141q0 62 47.5 136.5t141.5 152.5h189q-81 -57 -125 -115t-44 -103q0 -46 42.5 -72t126.5 -26v-166q-184 0 -281 52z" />
    <glyph glyph-name="aogonek" unicode="&#x105;" horiz-adv-x="1222" 
d="M963 -115q-44 -58 -44 -103q0 -46 42.5 -72t126.5 -26v-166q-184 0 -281 52t-97 141q0 62 47.5 136.5t141.5 152.5h-66l-43 68h-25q-36 -32 -71 -50q-86 -43 -205 -43q-128 0 -223.5 46t-147.5 130t-52 195q0 101 43.5 175.5t124.5 115.5q52 27 130.5 39.5t220.5 12.5
h205q-2 61 -13.5 97t-39.5 58q-50 41 -157 41q-70 0 -151.5 -31.5t-155.5 -88.5l-177 200q109 80 235.5 125.5t248.5 45.5q155 0 266.5 -42t172.5 -122q35 -45 52 -113t17 -183v-676q-81 -57 -125 -115zM776 356q11 41 13 99h-293q-29 0 -53 -8.5t-45 -32.5
q-17 -19 -22 -31.5t-5 -38.5q0 -59 42.5 -95.5t128.5 -36.5q58 0 111 19.5t87 55.5q25 28 36 69z" />
    <glyph glyph-name="Cacute" unicode="&#x106;" horiz-adv-x="1636" 
d="M450 73q-173 98 -266 281t-93 431q0 247 93 430t265 281.5t404 98.5q175 0 317.5 -56t243.5 -161.5t154 -251.5l-314 -120q-44 137 -150 214t-251 77q-129 0 -225 -63t-148 -178.5t-52 -270.5q0 -161 54 -276.5t151 -175.5t225 -60q151 0 257 83t148 229l321 -98
q-47 -160 -147.5 -275t-247.5 -176t-331 -61q-235 0 -408 98zM991 2030h289l-342 -321h-198z" />
    <glyph glyph-name="cacute" unicode="&#x107;" horiz-adv-x="1138" 
d="M316.5 49.5q-119.5 74.5 -185 207t-65.5 301.5q0 171 66.5 302t187 203.5t276.5 72.5q124 0 225 -44.5t169 -126t95 -189.5l-270 -77q-20 87 -74.5 137.5t-144.5 50.5q-118 0 -172.5 -91.5t-54.5 -237.5t54.5 -240.5t172.5 -94.5q88 0 143.5 52.5t75.5 140.5l273 -75
q-30 -112 -98.5 -194.5t-169.5 -127t-226 -44.5q-158 0 -277.5 74.5zM686 1570h289l-342 -321h-198z" />
    <glyph glyph-name="Cdotaccent" unicode="&#x10a;" horiz-adv-x="1636" 
d="M450 73q-173 98 -266 281t-93 431q0 247 93 430t265 281.5t404 98.5q175 0 317.5 -56t243.5 -161.5t154 -251.5l-314 -120q-44 137 -150 214t-251 77q-129 0 -225 -63t-148 -178.5t-52 -270.5q0 -161 54 -276.5t151 -175.5t225 -60q151 0 257 83t148 229l321 -98
q-47 -160 -147.5 -275t-247.5 -176t-331 -61q-235 0 -408 98zM787 1695.5q-39 22.5 -61.5 61t-22.5 84.5q0 45 22.5 83t61.5 60.5t85 22.5q45 0 83 -22.5t60.5 -60.5t22.5 -83q0 -46 -22.5 -84.5t-60.5 -61t-83 -22.5q-46 0 -85 22.5z" />
    <glyph glyph-name="cdotaccent" unicode="&#x10b;" horiz-adv-x="1138" 
d="M316.5 49.5q-119.5 74.5 -185 207t-65.5 301.5q0 171 66.5 302t187 203.5t276.5 72.5q124 0 225 -44.5t169 -126t95 -189.5l-270 -77q-20 87 -74.5 137.5t-144.5 50.5q-118 0 -172.5 -91.5t-54.5 -237.5t54.5 -240.5t172.5 -94.5q88 0 143.5 52.5t75.5 140.5l273 -75
q-30 -112 -98.5 -194.5t-169.5 -127t-226 -44.5q-158 0 -277.5 74.5zM472 1238.5q-44 25.5 -70 69.5t-26 96q0 50 26 93.5t70 69.5t95 26t95 -26t70 -69.5t26 -93.5q0 -52 -26 -95.5t-70 -69.5t-95 -26t-95 25.5z" />
    <glyph glyph-name="Ccaron" unicode="&#x10c;" horiz-adv-x="1636" 
d="M450 73q-173 98 -266 281t-93 431q0 247 93 430t265 281.5t404 98.5q175 0 317.5 -56t243.5 -161.5t154 -251.5l-314 -120q-44 137 -150 214t-251 77q-129 0 -225 -63t-148 -178.5t-52 -270.5q0 -161 54 -276.5t151 -175.5t225 -60q151 0 257 83t148 229l321 -98
q-47 -160 -147.5 -275t-247.5 -176t-331 -61q-235 0 -408 98zM519 2030h209l141 -127l144 127h209l-353 -369z" />
    <glyph glyph-name="ccaron" unicode="&#x10d;" horiz-adv-x="1138" 
d="M316.5 49.5q-119.5 74.5 -185 207t-65.5 301.5q0 171 66.5 302t187 203.5t276.5 72.5q124 0 225 -44.5t169 -126t95 -189.5l-270 -77q-20 87 -74.5 137.5t-144.5 50.5q-118 0 -172.5 -91.5t-54.5 -237.5t54.5 -240.5t172.5 -94.5q88 0 143.5 52.5t75.5 140.5l273 -75
q-30 -112 -98.5 -194.5t-169.5 -127t-226 -44.5q-158 0 -277.5 74.5zM214 1570h209l141 -127l144 127h209l-353 -369z" />
    <glyph glyph-name="Dcaron" unicode="&#x10e;" horiz-adv-x="1586" 
d="M203 1570h405q176 0 292 -19.5t195 -56.5t154 -99q121 -100 183.5 -256t62.5 -365q0 -204 -63.5 -357.5t-189.5 -252.5q-74 -59 -152 -93.5t-193.5 -52.5t-291.5 -18h-402v1570zM573 298q129 0 208 11.5t131 35.5t103 69q143 127 143 373q0 119 -33 211t-94 151
q-49 48 -98 73.5t-125.5 37.5t-204.5 12h-64v-974h34zM437 2030h209l141 -127l144 127h209l-353 -369z" />
    <glyph glyph-name="dcaron" unicode="&#x10f;" horiz-adv-x="1313" 
d="M298 44q-106 69 -162 199.5t-56 311.5t56 311.5t163.5 200t258.5 69.5q76 0 147.5 -23.5t120.5 -65.5h25v523h298v-1570h-252l-46 66h-25q-49 -42 -123.5 -66.5t-151.5 -24.5q-147 0 -253 69zM813.5 308.5q64.5 83.5 64.5 246.5q0 161 -65 245.5t-185 84.5t-184 -85
t-64 -245q0 -161 63.5 -245.5t184.5 -84.5t185.5 83.5zM1551 1554.5q49 -38.5 70.5 -96.5t21.5 -122q0 -77 -31 -159.5t-100 -149t-174 -94.5l-62 141q94 23 149.5 79t60.5 125q-36 -17 -73 -17q-45 0 -83 23.5t-60.5 62.5t-22.5 84q0 47 23.5 84t63.5 57.5t90 20.5
q78 0 127 -38.5z" />
    <glyph glyph-name="Dcroat" unicode="&#x110;" horiz-adv-x="1586" 
d="M1432.5 1139q62.5 -156 62.5 -365q0 -204 -63.5 -357.5t-189.5 -252.5q-74 -59 -152 -93.5t-193.5 -52.5t-291.5 -18h-402v669h-127v182h127v719h405q176 0 292 -19.5t195 -56.5t154 -99q121 -100 183.5 -256zM1158 787q0 119 -33 211t-94 151q-49 48 -98 73.5
t-125.5 37.5t-204.5 12h-64v-421h242v-182h-242v-371h34q129 0 208 11.5t131 35.5t103 69q143 127 143 373z" />
    <glyph glyph-name="dcroat" unicode="&#x111;" horiz-adv-x="1313" 
d="M1300 1313h-151v-1313h-252l-46 66h-25q-49 -42 -123.5 -66.5t-151.5 -24.5q-147 0 -253 69t-162 199.5t-56 311.5t56 311.5t163.5 200t258.5 69.5q76 0 147.5 -23.5t120.5 -65.5h25v266h-256v182h256v75h298v-75h151v-182zM813.5 308.5q64.5 83.5 64.5 246.5
q0 161 -65 245.5t-185 84.5t-184 -85t-64 -245q0 -161 63.5 -245.5t184.5 -84.5t185.5 83.5z" />
    <glyph glyph-name="Emacron" unicode="&#x112;" horiz-adv-x="1381" 
d="M203 1570h1008v-298h-672v-339h633v-298h-633v-337h717v-298h-1053v1570zM408 1894h621v-160h-621v160z" />
    <glyph glyph-name="emacron" unicode="&#x113;" horiz-adv-x="1204" 
d="M1129 457h-753q12 -103 78 -167.5t183 -64.5q77 0 140 31t115 104l203 -180q-180 -205 -460 -205q-187 0 -316 80t-192 211.5t-63 284.5q0 149 60 283t184.5 218t308.5 84t301 -85.5t168.5 -215.5t51.5 -271q0 -44 -9 -107zM460 828.5q-61 -56.5 -80 -136.5h466
q-4 31 -11 54q-20 69 -81.5 104t-134.5 35q-98 0 -159 -56.5zM324 1434h621v-160h-621v160z" />
    <glyph glyph-name="Edotaccent" unicode="&#x116;" horiz-adv-x="1381" 
d="M203 1570h1008v-298h-672v-339h633v-298h-633v-337h717v-298h-1053v1570zM634 1695.5q-39 22.5 -61.5 61t-22.5 84.5q0 45 22.5 83t61.5 60.5t85 22.5q45 0 83 -22.5t60.5 -60.5t22.5 -83q0 -46 -22.5 -84.5t-60.5 -61t-83 -22.5q-46 0 -85 22.5z" />
    <glyph glyph-name="edotaccent" unicode="&#x117;" horiz-adv-x="1204" 
d="M1129 457h-753q12 -103 78 -167.5t183 -64.5q77 0 140 31t115 104l203 -180q-180 -205 -460 -205q-187 0 -316 80t-192 211.5t-63 284.5q0 149 60 283t184.5 218t308.5 84t301 -85.5t168.5 -215.5t51.5 -271q0 -44 -9 -107zM460 828.5q-61 -56.5 -80 -136.5h466
q-4 31 -11 54q-20 69 -81.5 104t-134.5 35q-98 0 -159 -56.5zM540 1238.5q-44 25.5 -70 69.5t-26 96q0 50 26 93.5t70 69.5t95 26t95 -26t70 -69.5t26 -93.5q0 -52 -26 -95.5t-70 -69.5t-95 -26t-95 25.5z" />
    <glyph glyph-name="Eogonek" unicode="&#x118;" horiz-adv-x="1381" 
d="M203 1570h1008v-298h-672v-339h633v-298h-633v-337h717v-298h-1053v1570zM975 -430q-97 52 -97 141q0 62 47.5 136.5t141.5 152.5h189q-81 -57 -125 -115t-44 -103q0 -46 42.5 -72t126.5 -26v-166q-184 0 -281 52z" />
    <glyph glyph-name="eogonek" unicode="&#x119;" horiz-adv-x="1204" 
d="M1129 457h-753q12 -103 78 -167.5t183 -64.5q77 0 140 31t115 104l203 -180q-75 -86 -168 -136q-77 -55 -119 -111.5t-42 -100.5q0 -46 42.5 -72t126.5 -26v-166q-184 0 -281 52t-97 141q0 46 27.5 101t82.5 114q-11 -1 -32 -1q-187 0 -316 80t-192 211.5t-63 284.5
q0 149 60 283t184.5 218t308.5 84t301 -85.5t168.5 -215.5t51.5 -271q0 -44 -9 -107zM460 828.5q-61 -56.5 -80 -136.5h466q-4 31 -11 54q-20 69 -81.5 104t-134.5 35q-98 0 -159 -56.5z" />
    <glyph glyph-name="Ecaron" unicode="&#x11a;" horiz-adv-x="1381" 
d="M203 1570h1008v-298h-672v-339h633v-298h-633v-337h717v-298h-1053v1570zM366 2030h209l141 -127l144 127h209l-353 -369z" />
    <glyph glyph-name="ecaron" unicode="&#x11b;" horiz-adv-x="1204" 
d="M1129 457h-753q12 -103 78 -167.5t183 -64.5q77 0 140 31t115 104l203 -180q-180 -205 -460 -205q-187 0 -316 80t-192 211.5t-63 284.5q0 149 60 283t184.5 218t308.5 84t301 -85.5t168.5 -215.5t51.5 -271q0 -44 -9 -107zM460 828.5q-61 -56.5 -80 -136.5h466
q-4 31 -11 54q-20 69 -81.5 104t-134.5 35q-98 0 -159 -56.5zM282 1570h209l141 -127l144 127h209l-353 -369z" />
    <glyph glyph-name="Gbreve" unicode="&#x11e;" horiz-adv-x="1741" 
d="M1597 865v-865h-254l-34 86h-39q-73 -52 -186.5 -81.5t-234.5 -29.5q-232 0 -402.5 98t-262 282t-91.5 435q0 245 93 426.5t265.5 280t404.5 98.5q176 0 319 -57t244 -162.5t153 -249.5l-316 -120q-44 137 -150 214t-250 77q-129 0 -225.5 -62t-148.5 -177t-52 -268
q0 -162 57 -278.5t159.5 -177.5t236.5 -61q114 0 203.5 35t143.5 101t62 158h-439v298h744zM602 1793q-87 86 -87 237h191q0 -85 43.5 -124.5t115.5 -39.5q74 0 116.5 40.5t42.5 123.5h191q0 -154 -89 -238.5t-261 -84.5q-176 0 -263 86z" />
    <glyph glyph-name="gbreve" unicode="&#x11f;" horiz-adv-x="1227" 
d="M1143 47q22 -43 22 -95q0 -244 -180 -355q-136 -82 -371 -82q-133 0 -243 23.5t-187 70.5q-71 44 -109.5 106t-38.5 133q0 22 4 53t12 58l130 55v18q-100 89 -100 225q0 140 132 251q-59 95 -59 213q0 120 61 214.5t167 147.5t236 53q139 0 248 -63l171 144l152 -188
l-161 -128q45 -92 45 -196q0 -126 -60.5 -217t-163 -138t-226.5 -47q-139 0 -247 57q-38 -38 -38 -76q0 -24 9.5 -42.5t24.5 -29.5q38 -23 105 -23h318q107 0 174.5 -16t112.5 -52q38 -31 60 -74zM496 848.5q-45 -52.5 -45 -131.5q0 -78 44.5 -128t125.5 -50q78 0 122 50
t44 128q0 51 -19.5 93t-57 66.5t-89.5 24.5q-80 0 -125 -52.5zM872 -127q0 16 -4 27t-15 20q-14 11 -32.5 15t-46.5 4h-278q-60 0 -106 7l-46 -37q-7 -22 -7 -46q0 -28 13.5 -48t43.5 -38q77 -43 225 -43q56 0 114.5 14.5t94.5 44.5q44 35 44 80zM349 1333q-87 86 -87 237
h191q0 -85 43.5 -124.5t115.5 -39.5q74 0 116.5 40.5t42.5 123.5h191q0 -154 -89 -238.5t-261 -84.5q-176 0 -263 86z" />
    <glyph glyph-name="Gdotaccent" unicode="&#x120;" horiz-adv-x="1741" 
d="M1597 865v-865h-254l-34 86h-39q-73 -52 -186.5 -81.5t-234.5 -29.5q-232 0 -402.5 98t-262 282t-91.5 435q0 245 93 426.5t265.5 280t404.5 98.5q176 0 319 -57t244 -162.5t153 -249.5l-316 -120q-44 137 -150 214t-250 77q-129 0 -225.5 -62t-148.5 -177t-52 -268
q0 -162 57 -278.5t159.5 -177.5t236.5 -61q114 0 203.5 35t143.5 101t62 158h-439v298h744zM780 1695.5q-39 22.5 -61.5 61t-22.5 84.5q0 45 22.5 83t61.5 60.5t85 22.5q45 0 83 -22.5t60.5 -60.5t22.5 -83q0 -46 -22.5 -84.5t-60.5 -61t-83 -22.5q-46 0 -85 22.5z" />
    <glyph glyph-name="gdotaccent" unicode="&#x121;" horiz-adv-x="1227" 
d="M1143 47q22 -43 22 -95q0 -244 -180 -355q-136 -82 -371 -82q-133 0 -243 23.5t-187 70.5q-71 44 -109.5 106t-38.5 133q0 22 4 53t12 58l130 55v18q-100 89 -100 225q0 140 132 251q-59 95 -59 213q0 120 61 214.5t167 147.5t236 53q139 0 248 -63l171 144l152 -188
l-161 -128q45 -92 45 -196q0 -126 -60.5 -217t-163 -138t-226.5 -47q-139 0 -247 57q-38 -38 -38 -76q0 -24 9.5 -42.5t24.5 -29.5q38 -23 105 -23h318q107 0 174.5 -16t112.5 -52q38 -31 60 -74zM496 848.5q-45 -52.5 -45 -131.5q0 -78 44.5 -128t125.5 -50q78 0 122 50
t44 128q0 51 -19.5 93t-57 66.5t-89.5 24.5q-80 0 -125 -52.5zM872 -127q0 16 -4 27t-15 20q-14 11 -32.5 15t-46.5 4h-278q-60 0 -106 7l-46 -37q-7 -22 -7 -46q0 -28 13.5 -48t43.5 -38q77 -43 225 -43q56 0 114.5 14.5t94.5 44.5q44 35 44 80zM517 1238.5
q-44 25.5 -70 69.5t-26 96q0 50 26 93.5t70 69.5t95 26t95 -26t70 -69.5t26 -93.5q0 -52 -26 -95.5t-70 -69.5t-95 -26t-95 25.5z" />
    <glyph glyph-name="uni0122" unicode="&#x122;" horiz-adv-x="1741" 
d="M1597 865v-865h-254l-34 86h-39q-73 -52 -186.5 -81.5t-234.5 -29.5q-232 0 -402.5 98t-262 282t-91.5 435q0 245 93 426.5t265.5 280t404.5 98.5q176 0 319 -57t244 -162.5t153 -249.5l-316 -120q-44 137 -150 214t-250 77q-129 0 -225.5 -62t-148.5 -177t-52 -268
q0 -162 57 -278.5t159.5 -177.5t236.5 -61q114 0 203.5 35t143.5 101t62 158h-439v298h744zM956 -115q49 -31 71 -79.5t22 -103.5q0 -65 -30 -138.5t-98.5 -134.5t-176.5 -84l-62 141q85 12 139.5 46.5t67.5 79.5q-33 -15 -70 -15q-44 0 -82.5 23t-61 61t-22.5 80
q0 44 23.5 78.5t64 54.5t89.5 20q77 2 126 -29z" />
    <glyph glyph-name="uni0123" unicode="&#x123;" horiz-adv-x="1227" 
d="M1143 47q22 -43 22 -95q0 -244 -180 -355q-136 -82 -371 -82q-133 0 -243 23.5t-187 70.5q-71 44 -109.5 106t-38.5 133q0 22 4 53t12 58l130 55v18q-100 89 -100 225q0 140 132 251q-59 95 -59 213q0 120 61 214.5t167 147.5t236 53q139 0 248 -63l171 144l152 -188
l-161 -128q45 -92 45 -196q0 -126 -60.5 -217t-163 -138t-226.5 -47q-139 0 -247 57q-38 -38 -38 -76q0 -24 9.5 -42.5t24.5 -29.5q38 -23 105 -23h318q107 0 174.5 -16t112.5 -52q38 -31 60 -74zM496 848.5q-45 -52.5 -45 -131.5q0 -78 44.5 -128t125.5 -50q78 0 122 50
t44 128q0 51 -19.5 93t-57 66.5t-89.5 24.5q-80 0 -125 -52.5zM872 -127q0 16 -4 27t-15 20q-14 11 -32.5 15t-46.5 4h-278q-60 0 -106 7l-46 -37q-7 -22 -7 -46q0 -28 13.5 -48t43.5 -38q77 -43 225 -43q56 0 114.5 14.5t94.5 44.5q44 35 44 80zM725.5 1477.5
q38.5 -20.5 61 -54t22.5 -71.5q0 -39 -23.5 -70.5t-64 -49t-89.5 -17.5q-77 -2 -126 25.5t-71 71t-22 92.5q0 58 30 124t98.5 120.5t176.5 75.5l62 -126q-86 -11 -140 -42t-67 -71q36 13 70 13q44 0 82.5 -20.5z" />
    <glyph glyph-name="Hbar" unicode="&#x126;" horiz-adv-x="1736" 
d="M1605 1121h-71v-1121h-337v635h-658v-635h-336v1121h-77v159h77v290h336v-290h658v290h337v-290h71v-159zM1197 1121h-658v-188h658v188z" />
    <glyph glyph-name="hbar" unicode="&#x127;" horiz-adv-x="1327" 
d="M1147.5 927q30.5 -73 37.5 -139.5t7 -145.5v-642h-298v594q0 61 -2.5 99.5t-14.5 74.5t-37 63q-56 54 -157 54q-123 0 -178 -77q-27 -41 -34 -96.5t-7 -142.5v-569h-300v1279h-145v182h145v109h300v-109h260v-182h-260v-244h25q49 47 123 74t169 27q87 0 156 -23t117 -62
q63 -51 93.5 -124z" />
    <glyph glyph-name="Itilde" unicode="&#x128;" horiz-adv-x="742" 
d="M203 1570h336v-1570h-336v1570zM427 1703.5q-37 14.5 -61 35t-55 52.5q-29 30 -47.5 43.5t-40.5 13.5q-35 0 -54 -40t-19 -113h-155q0 152 63 235.5t174 83.5q61 0 103 -26t89 -73q30 -30 49.5 -44t40.5 -14q30 0 49 39.5t19 110.5h162q0 -152 -62 -235t-170 -83
q-48 0 -85 14.5z" />
    <glyph glyph-name="itilde" unicode="&#x129;" horiz-adv-x="624" 
d="M162 1110h300v-1110h-300v1110zM368 1243.5q-37 14.5 -61 35t-55 52.5q-29 30 -47.5 43.5t-40.5 13.5q-35 0 -54 -40t-19 -113h-155q0 152 63 235.5t174 83.5q61 0 103 -26t89 -73q30 -30 49.5 -44t40.5 -14q30 0 49 39.5t19 110.5h162q0 -152 -62 -235t-170 -83
q-48 0 -85 14.5z" />
    <glyph glyph-name="Imacron" unicode="&#x12a;" horiz-adv-x="742" 
d="M203 1570h336v-1570h-336v1570zM60 1894h621v-160h-621v160z" />
    <glyph glyph-name="imacron" unicode="&#x12b;" horiz-adv-x="624" 
d="M162 1110h300v-1110h-300v1110zM1 1434h621v-160h-621v160z" />
    <glyph glyph-name="Iogonek" unicode="&#x12e;" horiz-adv-x="742" 
d="M203 1570h336v-1570h-336v1570zM258 -430q-97 52 -97 141q0 62 47.5 136.5t141.5 152.5h189q-81 -57 -125 -115t-44 -103q0 -46 42.5 -72t126.5 -26v-166q-184 0 -281 52z" />
    <glyph glyph-name="iogonek" unicode="&#x12f;" horiz-adv-x="624" 
d="M162 1110h300v-1110h-300v1110zM217 1238.5q-44 25.5 -70 69.5t-26 96q0 50 26 93.5t70 69.5t95 26t95 -26t70 -69.5t26 -93.5q0 -52 -26 -95.5t-70 -69.5t-95 -26t-95 25.5zM181 -430q-97 52 -97 141q0 62 47.5 136.5t141.5 152.5h189q-81 -57 -125 -115t-44 -103
q0 -46 42.5 -72t126.5 -26v-166q-184 0 -281 52z" />
    <glyph glyph-name="Idotaccent" unicode="&#x130;" horiz-adv-x="742" 
d="M203 1570h336v-1570h-336v1570zM286 1695.5q-39 22.5 -61.5 61t-22.5 84.5q0 45 22.5 83t61.5 60.5t85 22.5q45 0 83 -22.5t60.5 -60.5t22.5 -83q0 -46 -22.5 -84.5t-60.5 -61t-83 -22.5q-46 0 -85 22.5z" />
    <glyph glyph-name="dotlessi" unicode="&#x131;" horiz-adv-x="624" 
d="M162 1110h300v-1110h-300v1110z" />
    <glyph glyph-name="IJ" unicode="&#x132;" horiz-adv-x="2046" 
d="M203 1570h336v-1570h-336v1570zM1099.5 3.5q-100.5 28.5 -168.5 87.5q-74 64 -113 165t-35 229l337 50q-2 -70 8 -118t35 -80q52 -64 162 -64q117 0 168 59q22 26 31.5 73t9.5 150v717h-571v298h908v-1015q0 -159 -27.5 -262.5t-97.5 -174.5q-141 -143 -421 -143
q-125 0 -225.5 28.5z" />
    <glyph glyph-name="uni0136" unicode="&#x136;" horiz-adv-x="1657" 
d="M1045 979l584 -979h-398l-412 726h-26l-254 -255v-471h-336v1570h336v-617h25l622 617h448zM977 -115q49 -31 71 -79.5t22 -103.5q0 -65 -30 -138.5t-98.5 -134.5t-176.5 -84l-62 141q85 12 139.5 46.5t67.5 79.5q-33 -15 -70 -15q-44 0 -82.5 23t-61 61t-22.5 80
q0 44 23.5 78.5t64 54.5t89.5 20q77 2 126 -29z" />
    <glyph glyph-name="uni0137" unicode="&#x137;" horiz-adv-x="1272" 
d="M164 1570h300v-881h9l376 421h387l-387 -418l428 -692h-351l-293 487h-14l-155 -162v-325h-300v1570zM808 -115q49 -31 71 -79.5t22 -103.5q0 -65 -30 -138.5t-98.5 -134.5t-176.5 -84l-62 141q85 12 139.5 46.5t67.5 79.5q-33 -15 -70 -15q-44 0 -82.5 23t-61 61
t-22.5 80q0 44 23.5 78.5t64 54.5t89.5 20q77 2 126 -29z" />
    <glyph glyph-name="kgreenlandic" unicode="&#x138;" horiz-adv-x="1299" 
d="M162 1110h332v-384h9l339 384h423l-384 -421l421 -689h-387l-273 464h-16l-132 -139v-325h-332v1110z" />
    <glyph glyph-name="Lacute" unicode="&#x139;" horiz-adv-x="1220" 
d="M203 1570h336v-1272h651v-298h-987v1570zM485 2028h289l-342 -321h-198z" />
    <glyph glyph-name="lacute" unicode="&#x13a;" horiz-adv-x="660" 
d="M221 39q-34 32 -51.5 86.5t-17.5 163.5v1281h301v-1210q0 -59 3.5 -81t9.5 -31q11 -13 25.5 -18t34.5 -5q26 0 57 9l43 -223q-44 -16 -101.5 -26t-105.5 -10q-129 0 -198 64zM422 2030h289l-342 -321h-198z" />
    <glyph glyph-name="uni013B" unicode="&#x13b;" horiz-adv-x="1220" 
d="M203 1570h336v-1272h651v-298h-987v1570zM826 -115q49 -31 71 -79.5t22 -103.5q0 -65 -30 -138.5t-98.5 -134.5t-176.5 -84l-62 141q85 12 139.5 46.5t67.5 79.5q-33 -15 -70 -15q-44 0 -82.5 23t-61 61t-22.5 80q0 44 23.5 78.5t64 54.5t89.5 20q77 2 126 -29z" />
    <glyph glyph-name="uni013C" unicode="&#x13c;" horiz-adv-x="660" 
d="M221 39q-34 32 -51.5 86.5t-17.5 163.5v1281h301v-1210q0 -59 3.5 -81t9.5 -31q11 -13 25.5 -18t34.5 -5q26 0 57 9l43 -223q-44 -16 -101.5 -26t-105.5 -10q-129 0 -198 64zM519 -115q49 -31 71 -79.5t22 -103.5q0 -65 -30 -138.5t-98.5 -134.5t-176.5 -84l-62 141
q85 12 139.5 46.5t67.5 79.5q-33 -15 -70 -15q-44 0 -82.5 23t-61 61t-22.5 80q0 44 23.5 78.5t64 54.5t89.5 20q77 2 126 -29z" />
    <glyph glyph-name="Lcaron" unicode="&#x13d;" horiz-adv-x="1220" 
d="M203 1570h336v-1272h651v-298h-987v1570zM1075 1554.5q49 -38.5 70.5 -96.5t21.5 -122q0 -77 -31 -159.5t-100 -149t-174 -94.5l-62 141q94 23 149.5 79t60.5 125q-36 -17 -73 -17q-45 0 -83 23.5t-60.5 62.5t-22.5 84q0 47 23.5 84t63.5 57.5t90 20.5q78 0 127 -38.5z
" />
    <glyph glyph-name="lcaron" unicode="&#x13e;" horiz-adv-x="660" 
d="M221 39q-34 32 -51.5 86.5t-17.5 163.5v1281h301v-1210q0 -59 3.5 -81t9.5 -31q11 -13 25.5 -18t34.5 -5q26 0 57 9l43 -223q-44 -16 -101.5 -26t-105.5 -10q-129 0 -198 64zM889 1554.5q49 -38.5 70.5 -96.5t21.5 -122q0 -77 -31 -159.5t-100 -149t-174 -94.5l-62 141
q94 23 149.5 79t60.5 125q-36 -17 -73 -17q-45 0 -83 23.5t-60.5 62.5t-22.5 84q0 47 23.5 84t63.5 57.5t90 20.5q78 0 127 -38.5z" />
    <glyph glyph-name="Lslash" unicode="&#x141;" horiz-adv-x="1220" 
d="M1190 298v-298h-987v408l-141 -111v300l141 110v863h336v-599l188 147v-298l-188 -148v-374h651z" />
    <glyph glyph-name="lslash" unicode="&#x142;" horiz-adv-x="660" 
d="M626 11q-44 -16 -101.5 -26t-105.5 -10q-129 0 -198 64q-34 32 -51.5 86.5t-17.5 163.5v236l-107 -77v277l107 77v768h301v-552l147 105v-275l-147 -106v-382q0 -59 3.5 -81t9.5 -31q11 -13 25.5 -18t34.5 -5q26 0 57 9z" />
    <glyph glyph-name="Nacute" unicode="&#x143;" horiz-adv-x="1736" 
d="M203 1570h498l469 -1133h27v1133h337v-1570h-501l-466 1136h-28v-1136h-336v1570zM986 2030h289l-342 -321h-198z" />
    <glyph glyph-name="nacute" unicode="&#x144;" horiz-adv-x="1320" 
d="M162 1110h273l22 -70h25q50 45 126 70.5t163 25.5q172 0 276 -85q64 -51 94.5 -120.5t37.5 -135t7 -153.5v-642h-294v596q0 65 -2.5 103t-14.5 73t-38 61q-56 57 -158 57q-125 0 -181 -82q-25 -38 -33 -93.5t-8 -143.5v-571h-295v1110zM774 1570h289l-342 -321h-198z" />
    <glyph glyph-name="uni0145" unicode="&#x145;" horiz-adv-x="1736" 
d="M203 1570h498l469 -1133h27v1133h337v-1570h-501l-466 1136h-28v-1136h-336v1570zM972 -115q49 -31 71 -79.5t22 -103.5q0 -65 -30 -138.5t-98.5 -134.5t-176.5 -84l-62 141q85 12 139.5 46.5t67.5 79.5q-33 -15 -70 -15q-44 0 -82.5 23t-61 61t-22.5 80q0 44 23.5 78.5
t64 54.5t89.5 20q77 2 126 -29z" />
    <glyph glyph-name="uni0146" unicode="&#x146;" horiz-adv-x="1320" 
d="M162 1110h273l22 -70h25q50 45 126 70.5t163 25.5q172 0 276 -85q64 -51 94.5 -120.5t37.5 -135t7 -153.5v-642h-294v596q0 65 -2.5 103t-14.5 73t-38 61q-56 57 -158 57q-125 0 -181 -82q-25 -38 -33 -93.5t-8 -143.5v-571h-295v1110zM760 -115q49 -31 71 -79.5
t22 -103.5q0 -65 -30 -138.5t-98.5 -134.5t-176.5 -84l-62 141q85 12 139.5 46.5t67.5 79.5q-33 -15 -70 -15q-44 0 -82.5 23t-61 61t-22.5 80q0 44 23.5 78.5t64 54.5t89.5 20q77 2 126 -29z" />
    <glyph glyph-name="Ncaron" unicode="&#x147;" horiz-adv-x="1736" 
d="M203 1570h498l469 -1133h27v1133h337v-1570h-501l-466 1136h-28v-1136h-336v1570zM514 2030h209l141 -127l144 127h209l-353 -369z" />
    <glyph glyph-name="ncaron" unicode="&#x148;" horiz-adv-x="1320" 
d="M162 1110h273l22 -70h25q50 45 126 70.5t163 25.5q172 0 276 -85q64 -51 94.5 -120.5t37.5 -135t7 -153.5v-642h-294v596q0 65 -2.5 103t-14.5 73t-38 61q-56 57 -158 57q-125 0 -181 -82q-25 -38 -33 -93.5t-8 -143.5v-571h-295v1110zM302 1570h209l141 -127l144 127
h209l-353 -369z" />
    <glyph glyph-name="Eng" unicode="&#x14a;" horiz-adv-x="1729" 
d="M910 -412l-2 209h70q48 0 74.5 18.5t26.5 57.5q0 48 -35 127l-498 1136h-7v-1136h-336v1570h482l498 -1133h5v1133h337v-1556q0 -114 -45.5 -213t-143 -160.5t-244.5 -61.5q-93 0 -182 9z" />
    <glyph glyph-name="eng" unicode="&#x14b;" horiz-adv-x="1327" 
d="M829.5 -473q-57.5 9 -99.5 25l41 234q21 -7 41 -7q37 0 54.5 11.5t21.5 27t4 36.5v740q0 61 -2.5 99.5t-14.5 74.5t-38 63q-54 54 -157 54q-125 0 -177 -77q-27 -41 -34 -95.5t-7 -143.5v-569h-300v1110h273l27 -77h23q51 50 126 76.5t167 26.5q88 0 157 -23.5t116 -61.5
q64 -51 94.5 -123t37.5 -138.5t7 -147.5v-890q0 -131 -72.5 -182.5t-182.5 -51.5q-48 0 -105.5 9z" />
    <glyph glyph-name="Omacron" unicode="&#x14c;" horiz-adv-x="1713" 
d="M452 70.5q-172 95.5 -265.5 278t-93.5 436.5t93.5 436.5t265.5 278t404 95.5q233 0 405 -95t265.5 -277.5t93.5 -437.5t-93.5 -437t-265.5 -277.5t-405 -95.5q-232 0 -404 95.5zM1082 332.5q97 59.5 150.5 175t53.5 277.5t-53.5 277.5t-150.5 175t-226 59.5
q-128 0 -224 -59.5t-149 -175t-53 -277.5t53 -277.5t149 -175t224 -59.5q129 0 226 59.5zM545 1892h621v-160h-621v160z" />
    <glyph glyph-name="omacron" unicode="&#x14d;" horiz-adv-x="1258" 
d="M330.5 50.5q-128.5 75.5 -197.5 208t-69 299.5q0 166 69 297.5t197.5 206t299.5 74.5t299 -74.5t197 -206t69 -297.5q0 -167 -69 -299.5t-197.5 -208t-298.5 -75.5q-171 0 -299.5 75.5zM830.5 319q63.5 94 63.5 239q0 143 -63.5 235t-200.5 92q-138 0 -202 -92.5
t-64 -234.5q0 -144 64 -238.5t202 -94.5q137 0 200.5 94zM319 1434h621v-160h-621v160z" />
    <glyph glyph-name="Ohungarumlaut" unicode="&#x150;" horiz-adv-x="1713" 
d="M452 70.5q-172 95.5 -265.5 278t-93.5 436.5t93.5 436.5t265.5 278t404 95.5q233 0 405 -95t265.5 -277.5t93.5 -437.5t-93.5 -437t-265.5 -277.5t-405 -95.5q-232 0 -404 95.5zM1082 332.5q97 59.5 150.5 175t53.5 277.5t-53.5 277.5t-150.5 175t-226 59.5
q-128 0 -224 -59.5t-149 -175t-53 -277.5t53 -277.5t149 -175t224 -59.5q129 0 226 59.5zM756 2028h243l-259 -321h-203zM1188 2028h289l-298 -321h-210z" />
    <glyph glyph-name="ohungarumlaut" unicode="&#x151;" horiz-adv-x="1258" 
d="M330.5 50.5q-128.5 75.5 -197.5 208t-69 299.5q0 166 69 297.5t197.5 206t299.5 74.5t299 -74.5t197 -206t69 -297.5q0 -167 -69 -299.5t-197.5 -208t-298.5 -75.5q-171 0 -299.5 75.5zM830.5 319q63.5 94 63.5 239q0 143 -63.5 235t-200.5 92q-138 0 -202 -92.5
t-64 -234.5q0 -144 64 -238.5t202 -94.5q137 0 200.5 94zM530 1570h243l-259 -321h-203zM962 1570h289l-298 -321h-210z" />
    <glyph glyph-name="OE" unicode="&#x152;" horiz-adv-x="2496" 
d="M2371 298v-298h-1053v106q-92 -65 -209 -98t-253 -33q-232 0 -404 95.5t-265.5 278t-93.5 436.5t93.5 436.5t265.5 278t404 95.5q136 0 252.5 -33t209.5 -97v105h1008v-298h-672v-339h633v-298h-633v-337h717zM1082 332.5q97 59.5 150.5 175t53.5 277.5t-53.5 277.5
t-150.5 175t-226 59.5q-128 0 -224 -59.5t-149 -175t-53 -277.5t53 -277.5t149 -175t224 -59.5q129 0 226 59.5z" />
    <glyph glyph-name="oe" unicode="&#x153;" horiz-adv-x="2053" 
d="M1978 457h-753q12 -103 78 -167.5t183 -64.5q77 0 140 31t115 104l203 -180q-180 -205 -460 -205q-141 0 -249.5 46.5t-182.5 130.5q-75 -84 -182.5 -130.5t-239.5 -46.5q-171 0 -299.5 75.5t-197.5 208t-69 299.5q0 166 69 297.5t197.5 206t299.5 74.5q133 0 240.5 -46
t182.5 -130q71 83 174.5 129.5t238.5 46.5q184 0 301 -85.5t168.5 -215.5t51.5 -271q0 -44 -9 -107zM830.5 319q63.5 94 63.5 239q0 143 -63.5 235t-200.5 92q-138 0 -202 -92.5t-64 -234.5q0 -144 64 -238.5t202 -94.5q137 0 200.5 94zM1309 828.5q-61 -56.5 -80 -136.5
h466q-4 31 -11 54q-20 69 -81.5 104t-134.5 35q-98 0 -159 -56.5z" />
    <glyph glyph-name="Racute" unicode="&#x154;" horiz-adv-x="1470" 
d="M1051 0l-360 635h-152v-635h-336v1570h489q167 0 274.5 -21t173.5 -72q74 -57 113.5 -150.5t39.5 -220.5t-39 -220.5t-114 -152.5q-41 -32 -89 -50v-37l399 -646h-399zM637 933q96 0 140.5 2t75 10t50.5 27q27 25 40 58t13 83q0 45 -12 74t-32 49q-22 23 -63 29.5
t-128 6.5h-84h-98v-339h98zM854 2030h289l-342 -321h-198z" />
    <glyph glyph-name="racute" unicode="&#x155;" horiz-adv-x="840" 
d="M162 1110h275l20 -70h25q56 44 124 70t158 26q42 0 64 -3v-305h-16q-87 30 -153 30q-100 0 -154 -50q-28 -26 -36.5 -73.5t-8.5 -142.5v-592h-298v1110zM533 1570h289l-342 -321h-198z" />
    <glyph glyph-name="uni0156" unicode="&#x156;" horiz-adv-x="1470" 
d="M1051 0l-360 635h-152v-635h-336v1570h489q167 0 274.5 -21t173.5 -72q74 -57 113.5 -150.5t39.5 -220.5t-39 -220.5t-114 -152.5q-41 -32 -89 -50v-37l399 -646h-399zM637 933q96 0 140.5 2t75 10t50.5 27q27 25 40 58t13 83q0 45 -12 74t-32 49q-22 23 -63 29.5
t-128 6.5h-84h-98v-339h98zM840 -115q49 -31 71 -79.5t22 -103.5q0 -65 -30 -138.5t-98.5 -134.5t-176.5 -84l-62 141q85 12 139.5 46.5t67.5 79.5q-33 -15 -70 -15q-44 0 -82.5 23t-61 61t-22.5 80q0 44 23.5 78.5t64 54.5t89.5 20q77 2 126 -29z" />
    <glyph glyph-name="uni0157" unicode="&#x157;" horiz-adv-x="840" 
d="M162 1110h275l20 -70h25q56 44 124 70t158 26q42 0 64 -3v-305h-16q-87 30 -153 30q-100 0 -154 -50q-28 -26 -36.5 -73.5t-8.5 -142.5v-592h-298v1110zM569 -115q49 -31 71 -79.5t22 -103.5q0 -65 -30 -138.5t-98.5 -134.5t-176.5 -84l-62 141q85 12 139.5 46.5
t67.5 79.5q-33 -15 -70 -15q-44 0 -82.5 23t-61 61t-22.5 80q0 44 23.5 78.5t64 54.5t89.5 20q77 2 126 -29z" />
    <glyph glyph-name="Rcaron" unicode="&#x158;" horiz-adv-x="1470" 
d="M1051 0l-360 635h-152v-635h-336v1570h489q167 0 274.5 -21t173.5 -72q74 -57 113.5 -150.5t39.5 -220.5t-39 -220.5t-114 -152.5q-41 -32 -89 -50v-37l399 -646h-399zM637 933q96 0 140.5 2t75 10t50.5 27q27 25 40 58t13 83q0 45 -12 74t-32 49q-22 23 -63 29.5
t-128 6.5h-84h-98v-339h98zM382 2030h209l141 -127l144 127h209l-353 -369z" />
    <glyph glyph-name="rcaron" unicode="&#x159;" horiz-adv-x="840" 
d="M162 1110h275l20 -70h25q56 44 124 70t158 26q42 0 64 -3v-305h-16q-87 30 -153 30q-100 0 -154 -50q-28 -26 -36.5 -73.5t-8.5 -142.5v-592h-298v1110zM61 1570h209l141 -127l144 127h209l-353 -369z" />
    <glyph glyph-name="Sacute" unicode="&#x15a;" horiz-adv-x="1290" 
d="M394 32.5q-131 52.5 -221.5 159.5t-115.5 263l334 84q11 -133 86.5 -197t193.5 -64q106 0 158 47t52 121q0 68 -40 114.5t-99 75.5t-165 69q-136 50 -220.5 96t-144.5 130.5t-60 217.5q0 142 69 242.5t184 152t253 51.5q154 0 284.5 -70.5t211.5 -213.5l-280 -171
q-35 72 -97 114.5t-126 42.5q-70 0 -116 -37t-46 -97q0 -51 34 -86t84.5 -57.5t145.5 -54.5q144 -48 236 -95.5t159 -142.5t67 -249q0 -151 -66.5 -263.5t-188.5 -173.5t-286 -61q-149 0 -280 52.5zM763 2030h289l-342 -321h-198z" />
    <glyph glyph-name="sacute" unicode="&#x15b;" horiz-adv-x="1033" 
d="M312.5 14.5q-102.5 39.5 -174.5 111.5t-102 165l235 105q28 -76 97.5 -123.5t150.5 -47.5q60 0 98 26.5t38 76.5q0 46 -35 71.5t-108 44.5q-5 1 -64 17t-134 51q-88 41 -142 107t-54 175q0 108 54.5 185.5t148.5 117t209 39.5q151 0 267 -66t168 -176l-225 -125
q-37 58 -97 95t-122 37q-49 0 -83.5 -22t-34.5 -60q0 -35 31.5 -53t100.5 -38q79 -22 135 -41.5t101 -44.5q176 -95 176 -287q0 -113 -52 -199t-146 -133.5t-217 -47.5q-117 0 -219.5 39.5zM638 1570h289l-342 -321h-198z" />
    <glyph glyph-name="Scedilla" unicode="&#x15e;" horiz-adv-x="1290" 
d="M1159 232.5q-56 -106.5 -160.5 -170.5t-246.5 -78l-60 -77q38 -5 61 -14q54 -21 86.5 -66.5t32.5 -104.5t-30.5 -107t-83.5 -75t-118 -27q-58 0 -118.5 23t-118.5 70l73 119q85 -80 171 -80q42 0 66.5 22t24.5 53q0 29 -20.5 50.5t-61.5 33.5q-45 14 -141 14l104 164
q-138 9 -256.5 64.5t-200 159t-105.5 249.5l334 84q11 -133 86.5 -197t193.5 -64q106 0 158 47t52 121q0 68 -40 114.5t-99 75.5t-165 69q-136 50 -220.5 96t-144.5 130.5t-60 217.5q0 142 69 242.5t184 152t253 51.5q154 0 284.5 -70.5t211.5 -213.5l-280 -171
q-35 72 -97 114.5t-126 42.5q-70 0 -116 -37t-46 -97q0 -51 34 -86t84.5 -57.5t145.5 -54.5q144 -48 236 -95.5t159 -142.5t67 -249q0 -139 -56 -245.5z" />
    <glyph glyph-name="scedilla" unicode="&#x15f;" horiz-adv-x="1033" 
d="M947 355q0 -99 -40 -177.5t-113.5 -129t-172.5 -66.5l-59 -75q38 -5 61 -14q54 -21 86.5 -66.5t32.5 -104.5t-30.5 -107t-83.5 -75t-118 -27q-58 0 -118.5 23t-118.5 70l73 119q85 -80 171 -80q42 0 66.5 22t24.5 53q0 29 -20.5 50.5t-61.5 33.5q-45 14 -141 14l101 159
q-107 7 -199.5 48.5t-157.5 110t-93 155.5l235 105q28 -76 97.5 -123.5t150.5 -47.5q60 0 98 26.5t38 76.5q0 46 -35 71.5t-108 44.5q-5 1 -64 17t-134 51q-88 41 -142 107t-54 175q0 108 54.5 185.5t148.5 117t209 39.5q151 0 267 -66t168 -176l-225 -125q-37 58 -97 95
t-122 37q-49 0 -83.5 -22t-34.5 -60q0 -35 31.5 -53t100.5 -38q79 -22 135 -41.5t101 -44.5q176 -95 176 -287z" />
    <glyph glyph-name="Scaron" unicode="&#x160;" horiz-adv-x="1290" 
d="M394 32.5q-131 52.5 -221.5 159.5t-115.5 263l334 84q11 -133 86.5 -197t193.5 -64q106 0 158 47t52 121q0 68 -40 114.5t-99 75.5t-165 69q-136 50 -220.5 96t-144.5 130.5t-60 217.5q0 142 69 242.5t184 152t253 51.5q154 0 284.5 -70.5t211.5 -213.5l-280 -171
q-35 72 -97 114.5t-126 42.5q-70 0 -116 -37t-46 -97q0 -51 34 -86t84.5 -57.5t145.5 -54.5q144 -48 236 -95.5t159 -142.5t67 -249q0 -151 -66.5 -263.5t-188.5 -173.5t-286 -61q-149 0 -280 52.5zM291 2030h209l141 -127l144 127h209l-353 -369z" />
    <glyph glyph-name="scaron" unicode="&#x161;" horiz-adv-x="1033" 
d="M312.5 14.5q-102.5 39.5 -174.5 111.5t-102 165l235 105q28 -76 97.5 -123.5t150.5 -47.5q60 0 98 26.5t38 76.5q0 46 -35 71.5t-108 44.5q-5 1 -64 17t-134 51q-88 41 -142 107t-54 175q0 108 54.5 185.5t148.5 117t209 39.5q151 0 267 -66t168 -176l-225 -125
q-37 58 -97 95t-122 37q-49 0 -83.5 -22t-34.5 -60q0 -35 31.5 -53t100.5 -38q79 -22 135 -41.5t101 -44.5q176 -95 176 -287q0 -113 -52 -199t-146 -133.5t-217 -47.5q-117 0 -219.5 39.5zM166 1570h209l141 -127l144 127h209l-353 -369z" />
    <glyph glyph-name="uni0162" unicode="&#x162;" horiz-adv-x="1331" 
d="M498 1272h-468v298h1272v-298h-469v-1272h-335v1272zM486.5 -464q-60.5 23 -118.5 70l73 119q85 -80 171 -80q42 0 66.5 22t24.5 53q0 29 -20.5 50.5t-61.5 33.5q-46 14 -141 14l116 182h134l-73 -93q38 -5 61 -14q54 -21 86.5 -66.5t32.5 -104.5t-30.5 -107t-83.5 -75
t-118 -27q-58 0 -118.5 23z" />
    <glyph glyph-name="uni0163" unicode="&#x163;" horiz-adv-x="817" 
d="M668.5 -173.5q32.5 -45.5 32.5 -104.5t-30.5 -107t-83.5 -75t-118 -27q-58 0 -118.5 23t-118.5 70l73 119q85 -80 171 -80q42 0 66.5 22t24.5 53q0 29 -20.5 50.5t-61.5 33.5q-46 14 -141 14l108 169q-116 26 -181.5 108.5t-65.5 211.5v569h-175v234h182v269l293 212
v-481h221v-234h-221v-530q0 -68 29 -94.5t83 -26.5q36 0 100 18l48 -236q-38 -12 -89.5 -21.5t-101.5 -10.5l-53 -68q38 -5 61 -14q54 -21 86.5 -66.5z" />
    <glyph glyph-name="Tcaron" unicode="&#x164;" horiz-adv-x="1331" 
d="M498 1272h-468v298h1272v-298h-469v-1272h-335v1272zM311 2030h209l141 -127l144 127h209l-353 -369z" />
    <glyph glyph-name="tcaron" unicode="&#x165;" horiz-adv-x="817" 
d="M374.5 13.5q-80.5 38.5 -125 113t-44.5 180.5v569h-175v234h182v269l293 212v-481h221v-234h-221v-530q0 -68 29 -94.5t83 -26.5q36 0 100 18l48 -236q-39 -13 -94.5 -22.5t-108.5 -9.5q-107 0 -187.5 38.5zM912 1866.5q49 -38.5 70.5 -96.5t21.5 -122q0 -77 -31 -159.5
t-100 -149t-174 -94.5l-62 141q94 23 149.5 79t60.5 125q-36 -17 -73 -17q-45 0 -83 23.5t-60.5 62.5t-22.5 84q0 47 23.5 84t63.5 57.5t90 20.5q78 0 127 -38.5z" />
    <glyph glyph-name="Tbar" unicode="&#x166;" horiz-adv-x="1331" 
d="M833 1272v-396h184v-182h-184v-694h-335v694h-186v182h186v396h-468v298h1272v-298h-469z" />
    <glyph glyph-name="tbar" unicode="&#x167;" horiz-adv-x="817" 
d="M765 7q-39 -13 -94.5 -22.5t-108.5 -9.5q-107 0 -187.5 38.5t-125 113t-44.5 180.5v157h-170v182h170v230h-175v234h182v269l293 212v-481h221v-234h-221v-230h235v-182h-235v-118q0 -68 29 -94.5t83 -26.5q36 0 100 18z" />
    <glyph glyph-name="Utilde" unicode="&#x168;" horiz-adv-x="1575" 
d="M521.5 11q-116.5 36 -193.5 103q-55 47 -89 111.5t-51 163t-17 244.5v937h336v-926q0 -134 14 -199t50 -99q35 -33 89.5 -53t126.5 -20q138 0 214 73q25 23 39 57t20.5 90.5t6.5 150.5v926h337v-937q0 -145 -17 -243.5t-51 -163.5t-89 -112q-77 -67 -193.5 -103
t-266.5 -36q-149 0 -265.5 36zM843 1703.5q-37 14.5 -61 35t-55 52.5q-29 30 -47.5 43.5t-40.5 13.5q-35 0 -54 -40t-19 -113h-155q0 152 63 235.5t174 83.5q61 0 103 -26t89 -73q30 -30 49.5 -44t40.5 -14q30 0 49 39.5t19 110.5h162q0 -152 -62 -235t-170 -83
q-48 0 -85 14.5z" />
    <glyph glyph-name="utilde" unicode="&#x169;" horiz-adv-x="1322" 
d="M275 57q-78 61 -110.5 156t-32.5 256v641h300v-593q0 -107 11 -156.5t42 -80.5q54 -55 161 -55q58 0 101.5 19t69.5 54q25 33 35 86t10 158v568h299v-1110h-299v75h-25q-52 -49 -126 -74.5t-167 -25.5q-163 0 -269 82zM720 1243.5q-37 14.5 -61 35t-55 52.5
q-29 30 -47.5 43.5t-40.5 13.5q-35 0 -54 -40t-19 -113h-155q0 152 63 235.5t174 83.5q61 0 103 -26t89 -73q30 -30 49.5 -44t40.5 -14q30 0 49 39.5t19 110.5h162q0 -152 -62 -235t-170 -83q-48 0 -85 14.5z" />
    <glyph glyph-name="Umacron" unicode="&#x16a;" horiz-adv-x="1575" 
d="M521.5 11q-116.5 36 -193.5 103q-55 47 -89 111.5t-51 163t-17 244.5v937h336v-926q0 -134 14 -199t50 -99q35 -33 89.5 -53t126.5 -20q138 0 214 73q25 23 39 57t20.5 90.5t6.5 150.5v926h337v-937q0 -145 -17 -243.5t-51 -163.5t-89 -112q-77 -67 -193.5 -103
t-266.5 -36q-149 0 -265.5 36zM476 1894h621v-160h-621v160z" />
    <glyph glyph-name="umacron" unicode="&#x16b;" horiz-adv-x="1322" 
d="M275 57q-78 61 -110.5 156t-32.5 256v641h300v-593q0 -107 11 -156.5t42 -80.5q54 -55 161 -55q58 0 101.5 19t69.5 54q25 33 35 86t10 158v568h299v-1110h-299v75h-25q-52 -49 -126 -74.5t-167 -25.5q-163 0 -269 82zM353 1434h621v-160h-621v160z" />
    <glyph glyph-name="Uring" unicode="&#x16e;" horiz-adv-x="1575" 
d="M521.5 11q-116.5 36 -193.5 103q-55 47 -89 111.5t-51 163t-17 244.5v937h336v-926q0 -134 14 -199t50 -99q35 -33 89.5 -53t126.5 -20q138 0 214 73q25 23 39 57t20.5 90.5t6.5 150.5v926h337v-937q0 -145 -17 -243.5t-51 -163.5t-89 -112q-77 -67 -193.5 -103
t-266.5 -36q-149 0 -265.5 36zM655.5 1683q-58.5 35 -92 94t-33.5 128t34 127.5t92.5 93t127.5 34.5t128 -34t94.5 -92.5t35.5 -128.5t-34.5 -129t-93.5 -93.5t-130 -34.5q-70 0 -128.5 35zM864.5 1825q31.5 32 31.5 82q0 48 -30 77.5t-82 29.5q-49 0 -79 -30t-30 -77
q0 -49 31.5 -81.5t77.5 -32.5q49 0 80.5 32z" />
    <glyph glyph-name="uring" unicode="&#x16f;" horiz-adv-x="1322" 
d="M275 57q-78 61 -110.5 156t-32.5 256v641h300v-593q0 -107 11 -156.5t42 -80.5q54 -55 161 -55q58 0 101.5 19t69.5 54q25 33 35 86t10 158v568h299v-1110h-299v75h-25q-52 -49 -126 -74.5t-167 -25.5q-163 0 -269 82zM532.5 1223q-58.5 35 -92 94t-33.5 128t34 127.5
t92.5 93t127.5 34.5t128 -34t94.5 -92.5t35.5 -128.5t-34.5 -129t-93.5 -93.5t-130 -34.5q-70 0 -128.5 35zM741.5 1365q31.5 32 31.5 82q0 48 -30 77.5t-82 29.5q-49 0 -79 -30t-30 -77q0 -49 31.5 -81.5t77.5 -32.5q49 0 80.5 32z" />
    <glyph glyph-name="Uhungarumlaut" unicode="&#x170;" horiz-adv-x="1575" 
d="M521.5 11q-116.5 36 -193.5 103q-55 47 -89 111.5t-51 163t-17 244.5v937h336v-926q0 -134 14 -199t50 -99q35 -33 89.5 -53t126.5 -20q138 0 214 73q25 23 39 57t20.5 90.5t6.5 150.5v926h337v-937q0 -145 -17 -243.5t-51 -163.5t-89 -112q-77 -67 -193.5 -103
t-266.5 -36q-149 0 -265.5 36zM687 2030h243l-259 -321h-203zM1119 2030h289l-298 -321h-210z" />
    <glyph glyph-name="uhungarumlaut" unicode="&#x171;" horiz-adv-x="1322" 
d="M275 57q-78 61 -110.5 156t-32.5 256v641h300v-593q0 -107 11 -156.5t42 -80.5q54 -55 161 -55q58 0 101.5 19t69.5 54q25 33 35 86t10 158v568h299v-1110h-299v75h-25q-52 -49 -126 -74.5t-167 -25.5q-163 0 -269 82zM564 1570h243l-259 -321h-203zM996 1570h289
l-298 -321h-210z" />
    <glyph glyph-name="Uogonek" unicode="&#x172;" horiz-adv-x="1575" 
d="M1404 1570v-937q0 -145 -17 -243.5t-51 -163.5t-89 -112q-46 -40 -104 -68q-68 -52 -105 -104.5t-37 -93.5q0 -46 42.5 -72t126.5 -26v-166q-184 0 -281 52t-97 141q0 44 25 96t74 107q-55 -5 -104 -5q-149 0 -265.5 36t-193.5 103q-55 47 -89 111.5t-51 163t-17 244.5
v937h336v-926q0 -134 14 -199t50 -99q35 -33 89.5 -53t126.5 -20q138 0 214 73q25 23 39 57t20.5 90.5t6.5 150.5v926h337z" />
    <glyph glyph-name="uogonek" unicode="&#x173;" horiz-adv-x="1322" 
d="M1036 -115q-44 -58 -44 -103q0 -46 42.5 -72t126.5 -26v-166q-184 0 -281 52t-97 141q0 62 47.5 136.5t141.5 152.5h-110v75h-25q-52 -49 -126 -74.5t-167 -25.5q-163 0 -269 82q-78 61 -110.5 156t-32.5 256v641h300v-593q0 -107 11 -156.5t42 -80.5q54 -55 161 -55
q58 0 101.5 19t69.5 54q25 33 35 86t10 158v568h299v-1110q-81 -57 -125 -115z" />
    <glyph glyph-name="Wcircumflex" unicode="&#x174;" horiz-adv-x="2471" 
d="M16 1570h364l389 -1156h27l258 940h364l259 -940h25l389 1156h364l-580 -1570h-405l-218 878h-32l-219 -878h-405zM1236 2071l353 -391h-210l-143 139l-141 -139h-210z" />
    <glyph glyph-name="wcircumflex" unicode="&#x175;" horiz-adv-x="1900" 
d="M0 1110h321l275 -832h14l180 832h320l180 -832h14l275 832h321l-403 -1110h-400l-139 708h-14l-141 -708h-400zM949 1611l353 -391h-210l-143 139l-141 -139h-210z" />
    <glyph glyph-name="Ycircumflex" unicode="&#x176;" horiz-adv-x="1516" 
d="M589 585l-591 985h393l351 -612h29l353 612h394l-592 -985v-585h-337v585zM756 2071l353 -391h-210l-143 139l-141 -139h-210z" />
    <glyph glyph-name="ycircumflex" unicode="&#x177;" horiz-adv-x="1165" 
d="M423 32l-432 1078h328l248 -712h27l255 712h325l-626 -1570h-323zM581 1611l353 -391h-210l-143 139l-141 -139h-210z" />
    <glyph glyph-name="Ydieresis" unicode="&#x178;" horiz-adv-x="1516" 
d="M589 585l-591 985h393l351 -612h29l353 612h394l-592 -985v-585h-337v585zM453 1695.5q-39 22.5 -61.5 61t-22.5 84.5q0 45 22.5 83t61.5 60.5t85 22.5q45 0 83 -22.5t60.5 -60.5t22.5 -83q0 -46 -22.5 -84.5t-60.5 -61t-83 -22.5q-46 0 -85 22.5zM896.5 1695.5
q-38.5 22.5 -61 61t-22.5 84.5q0 45 22.5 83t61 60.5t84.5 22.5q45 0 83 -22.5t60.5 -60.5t22.5 -83q0 -46 -22.5 -84.5t-60.5 -61t-83 -22.5q-46 0 -84.5 22.5z" />
    <glyph glyph-name="Zacute" unicode="&#x179;" horiz-adv-x="1404" 
d="M93 296l749 949v27h-724v298h1154v-300l-749 -951v-21h797v-298h-1227v296zM818 2030h289l-342 -321h-198z" />
    <glyph glyph-name="zacute" unicode="&#x17a;" horiz-adv-x="1110" 
d="M80 248l550 589v25h-530v248h910v-245l-550 -592v-25h575v-248h-955v248zM677 1570h289l-342 -321h-198z" />
    <glyph glyph-name="Zdotaccent" unicode="&#x17b;" horiz-adv-x="1404" 
d="M93 296l749 949v27h-724v298h1154v-300l-749 -951v-21h797v-298h-1227v296zM614 1695.5q-39 22.5 -61.5 61t-22.5 84.5q0 45 22.5 83t61.5 60.5t85 22.5q45 0 83 -22.5t60.5 -60.5t22.5 -83q0 -46 -22.5 -84.5t-60.5 -61t-83 -22.5q-46 0 -85 22.5z" />
    <glyph glyph-name="zdotaccent" unicode="&#x17c;" horiz-adv-x="1110" 
d="M80 248l550 589v25h-530v248h910v-245l-550 -592v-25h575v-248h-955v248zM463 1238.5q-44 25.5 -70 69.5t-26 96q0 50 26 93.5t70 69.5t95 26t95 -26t70 -69.5t26 -93.5q0 -52 -26 -95.5t-70 -69.5t-95 -26t-95 25.5z" />
    <glyph glyph-name="Zcaron" unicode="&#x17d;" horiz-adv-x="1404" 
d="M93 296l749 949v27h-724v298h1154v-300l-749 -951v-21h797v-298h-1227v296zM346 2030h209l141 -127l144 127h209l-353 -369z" />
    <glyph glyph-name="zcaron" unicode="&#x17e;" horiz-adv-x="1110" 
d="M80 248l550 589v25h-530v248h910v-245l-550 -592v-25h575v-248h-955v248zM205 1570h209l141 -127l144 127h209l-353 -369z" />
    <glyph glyph-name="florin" unicode="&#x192;" horiz-adv-x="1088" 
d="M96 -234q107 0 163.5 26t80.5 91t24 190v821h-200v216h200v91q0 126 48.5 220t133 144.5t189.5 50.5q89 0 160.5 -29.5t130.5 -98.5l-175 -205q-22 27 -53 44.5t-63 17.5q-47 0 -74.5 -29t-27.5 -115v-91h236v-216h-236v-848q0 -270 -137 -396t-400 -126v242z" />
    <glyph glyph-name="uni01C4" unicode="&#x1c4;" horiz-adv-x="2967" 
d="M203 1570h405q176 0 292 -19.5t195 -56.5t154 -99q121 -100 183.5 -256t62.5 -365q0 -204 -63.5 -357.5t-189.5 -252.5q-74 -59 -152 -93.5t-193.5 -52.5t-291.5 -18h-402v1570zM573 298q129 0 208 11.5t131 35.5t103 69q143 127 143 373q0 119 -33 211t-94 151
q-49 48 -98 73.5t-125.5 37.5t-204.5 12h-64v-974h34zM1656 296l749 949v27h-724v298h1154v-300l-749 -951v-21h797v-298h-1227v296zM1909 2030h209l141 -127l144 127h209l-353 -369z" />
    <glyph glyph-name="uni01C5" unicode="&#x1c5;" horiz-adv-x="2703" 
d="M203 1570h405q176 0 292 -19.5t195 -56.5t154 -99q121 -100 183.5 -256t62.5 -365q0 -204 -63.5 -357.5t-189.5 -252.5q-74 -59 -152 -93.5t-193.5 -52.5t-291.5 -18h-402v1570zM573 298q129 0 208 11.5t131 35.5t103 69q143 127 143 373q0 119 -33 211t-94 151
q-49 48 -98 73.5t-125.5 37.5t-204.5 12h-64v-974h34zM1673 248l550 589v25h-530v248h910v-245l-550 -592v-25h575v-248h-955v248zM1798 1570h209l141 -127l144 127h209l-353 -369z" />
    <glyph glyph-name="uni01C6" unicode="&#x1c6;" horiz-adv-x="2423" 
d="M298 44q-106 69 -162 199.5t-56 311.5t56 311.5t163.5 200t258.5 69.5q76 0 147.5 -23.5t120.5 -65.5h25v523h298v-1570h-252l-46 66h-25q-49 -42 -123.5 -66.5t-151.5 -24.5q-147 0 -253 69zM813.5 308.5q64.5 83.5 64.5 246.5q0 161 -65 245.5t-185 84.5t-184 -85
t-64 -245q0 -161 63.5 -245.5t184.5 -84.5t185.5 83.5zM1393 248l550 589v25h-530v248h910v-245l-550 -592v-25h575v-248h-955v248zM1518 1570h209l141 -127l144 127h209l-353 -369z" />
    <glyph glyph-name="uni01C7" unicode="&#x1c7;" horiz-adv-x="2563" 
d="M203 1570h336v-1272h651v-298h-987v1570zM1616.5 3.5q-100.5 28.5 -168.5 87.5q-74 64 -113 165t-35 229l337 50q-2 -70 8 -118t35 -80q52 -64 162 -64q117 0 168 59q22 26 31.5 73t9.5 150v717h-571v298h908v-1015q0 -159 -27.5 -262.5t-97.5 -174.5
q-141 -143 -421 -143q-125 0 -225.5 28.5z" />
    <glyph glyph-name="uni01C8" unicode="&#x1c8;" horiz-adv-x="1846" 
d="M203 1570h336v-1272h651v-298h-987v1570zM1177 -444l79 246q16 -6 37 -10t34 -4q22 0 31 7.5t10 8.5q11 13 13.5 37t2.5 91v1178h298v-1240q0 -74 -2 -114t-12.5 -80t-33.5 -72q-29 -39 -83 -62.5t-133 -23.5q-122 0 -241 38zM1437 1238.5q-44 25.5 -70 69.5t-26 96
q0 50 26 93.5t70 69.5t95 26t95 -26t70 -69.5t26 -93.5q0 -52 -26 -95.5t-70 -69.5t-95 -26t-95 25.5z" />
    <glyph glyph-name="uni01C9" unicode="&#x1c9;" horiz-adv-x="1286" 
d="M221 39q-34 32 -51.5 86.5t-17.5 163.5v1281h301v-1210q0 -59 3.5 -81t9.5 -31q11 -13 25.5 -18t34.5 -5q26 0 57 9l43 -223q-44 -16 -101.5 -26t-105.5 -10q-129 0 -198 64zM617 -444l79 246q16 -6 37 -10t34 -4q22 0 31 7.5t10 8.5q11 13 13.5 37t2.5 91v1178h298
v-1240q0 -74 -2 -114t-12.5 -80t-33.5 -72q-29 -39 -83 -62.5t-133 -23.5q-122 0 -241 38zM877 1238.5q-44 25.5 -70 69.5t-26 96q0 50 26 93.5t70 69.5t95 26t95 -26t70 -69.5t26 -93.5q0 -52 -26 -95.5t-70 -69.5t-95 -26t-95 25.5z" />
    <glyph glyph-name="uni01CA" unicode="&#x1ca;" horiz-adv-x="3040" 
d="M203 1570h498l469 -1133h27v1133h337v-1570h-501l-466 1136h-28v-1136h-336v1570zM2093.5 3.5q-100.5 28.5 -168.5 87.5q-74 64 -113 165t-35 229l337 50q-2 -70 8 -118t35 -80q52 -64 162 -64q117 0 168 59q22 26 31.5 73t9.5 150v717h-571v298h908v-1015
q0 -159 -27.5 -262.5t-97.5 -174.5q-141 -143 -421 -143q-125 0 -225.5 28.5z" />
    <glyph glyph-name="uni01CB" unicode="&#x1cb;" horiz-adv-x="2362" 
d="M203 1570h498l469 -1133h27v1133h337v-1570h-501l-466 1136h-28v-1136h-336v1570zM1693 -444l79 246q16 -6 37 -10t34 -4q22 0 31 7.5t10 8.5q11 13 13.5 37t2.5 91v1178h298v-1240q0 -74 -2 -114t-12.5 -80t-33.5 -72q-29 -39 -83 -62.5t-133 -23.5q-122 0 -241 38z
M1953 1238.5q-44 25.5 -70 69.5t-26 96q0 50 26 93.5t70 69.5t95 26t95 -26t70 -69.5t26 -93.5q0 -52 -26 -95.5t-70 -69.5t-95 -26t-95 25.5z" />
    <glyph glyph-name="uni01CC" unicode="&#x1cc;" horiz-adv-x="1946" 
d="M162 1110h273l22 -70h25q50 45 126 70.5t163 25.5q172 0 276 -85q64 -51 94.5 -120.5t37.5 -135t7 -153.5v-642h-294v596q0 65 -2.5 103t-14.5 73t-38 61q-56 57 -158 57q-125 0 -181 -82q-25 -38 -33 -93.5t-8 -143.5v-571h-295v1110zM1277 -444l79 246q16 -6 37 -10
t34 -4q22 0 31 7.5t10 8.5q11 13 13.5 37t2.5 91v1178h298v-1240q0 -74 -2 -114t-12.5 -80t-33.5 -72q-29 -39 -83 -62.5t-133 -23.5q-122 0 -241 38zM1537 1238.5q-44 25.5 -70 69.5t-26 96q0 50 26 93.5t70 69.5t95 26t95 -26t70 -69.5t26 -93.5q0 -52 -26 -95.5
t-70 -69.5t-95 -26t-95 25.5z" />
    <glyph glyph-name="uni01CD" unicode="&#x1cd;" horiz-adv-x="1570" 
d="M1082 321h-590l-110 -321h-366l585 1570h373l580 -1570h-364zM982 619l-179 535h-27l-183 -535h389zM432 2030h209l141 -127l144 127h209l-353 -369z" />
    <glyph glyph-name="uni01CE" unicode="&#x1ce;" horiz-adv-x="1222" 
d="M1071 859q17 -68 17 -183v-676h-255l-43 68h-25q-36 -32 -71 -50q-86 -43 -205 -43q-128 0 -223.5 46t-147.5 130t-52 195q0 101 43.5 175.5t124.5 115.5q52 27 130.5 39.5t220.5 12.5h205q-2 61 -13.5 97t-39.5 58q-50 41 -157 41q-70 0 -151.5 -31.5t-155.5 -88.5
l-177 200q109 80 235.5 125.5t248.5 45.5q155 0 266.5 -42t172.5 -122q35 -45 52 -113zM776 356q11 41 13 99h-293q-29 0 -53 -8.5t-45 -32.5q-17 -19 -22 -31.5t-5 -38.5q0 -59 42.5 -95.5t128.5 -36.5q58 0 111 19.5t87 55.5q25 28 36 69zM257 1570h209l141 -127l144 127
h209l-353 -369z" />
    <glyph glyph-name="uni01CF" unicode="&#x1cf;" horiz-adv-x="742" 
d="M203 1570h336v-1570h-336v1570zM18 2030h209l141 -127l144 127h209l-353 -369z" />
    <glyph glyph-name="uni01D0" unicode="&#x1d0;" horiz-adv-x="624" 
d="M162 1110h300v-1110h-300v1110zM-41 1570h209l141 -127l144 127h209l-353 -369z" />
    <glyph glyph-name="uni01D1" unicode="&#x1d1;" horiz-adv-x="1713" 
d="M452 70.5q-172 95.5 -265.5 278t-93.5 436.5t93.5 436.5t265.5 278t404 95.5q233 0 405 -95t265.5 -277.5t93.5 -437.5t-93.5 -437t-265.5 -277.5t-405 -95.5q-232 0 -404 95.5zM1082 332.5q97 59.5 150.5 175t53.5 277.5t-53.5 277.5t-150.5 175t-226 59.5
q-128 0 -224 -59.5t-149 -175t-53 -277.5t53 -277.5t149 -175t224 -59.5q129 0 226 59.5zM503 2028h209l141 -127l144 127h209l-353 -369z" />
    <glyph glyph-name="uni01D2" unicode="&#x1d2;" horiz-adv-x="1258" 
d="M330.5 50.5q-128.5 75.5 -197.5 208t-69 299.5q0 166 69 297.5t197.5 206t299.5 74.5t299 -74.5t197 -206t69 -297.5q0 -167 -69 -299.5t-197.5 -208t-298.5 -75.5q-171 0 -299.5 75.5zM830.5 319q63.5 94 63.5 239q0 143 -63.5 235t-200.5 92q-138 0 -202 -92.5
t-64 -234.5q0 -144 64 -238.5t202 -94.5q137 0 200.5 94zM277 1570h209l141 -127l144 127h209l-353 -369z" />
    <glyph glyph-name="uni01D3" unicode="&#x1d3;" horiz-adv-x="1575" 
d="M521.5 11q-116.5 36 -193.5 103q-55 47 -89 111.5t-51 163t-17 244.5v937h336v-926q0 -134 14 -199t50 -99q35 -33 89.5 -53t126.5 -20q138 0 214 73q25 23 39 57t20.5 90.5t6.5 150.5v926h337v-937q0 -145 -17 -243.5t-51 -163.5t-89 -112q-77 -67 -193.5 -103
t-266.5 -36q-149 0 -265.5 36zM434 2030h209l141 -127l144 127h209l-353 -369z" />
    <glyph glyph-name="uni01D4" unicode="&#x1d4;" horiz-adv-x="1322" 
d="M275 57q-78 61 -110.5 156t-32.5 256v641h300v-593q0 -107 11 -156.5t42 -80.5q54 -55 161 -55q58 0 101.5 19t69.5 54q25 33 35 86t10 158v568h299v-1110h-299v75h-25q-52 -49 -126 -74.5t-167 -25.5q-163 0 -269 82zM311 1570h209l141 -127l144 127h209l-353 -369z" />
    <glyph glyph-name="uni01D5" unicode="&#x1d5;" horiz-adv-x="1575" 
d="M521.5 11q-116.5 36 -193.5 103q-55 47 -89 111.5t-51 163t-17 244.5v937h336v-926q0 -134 14 -199t50 -99q35 -33 89.5 -53t126.5 -20q138 0 214 73q25 23 39 57t20.5 90.5t6.5 150.5v926h337v-937q0 -145 -17 -243.5t-51 -163.5t-89 -112q-77 -67 -193.5 -103
t-266.5 -36q-149 0 -265.5 36zM482 1695.5q-39 22.5 -61.5 61t-22.5 84.5q0 45 22.5 83t61.5 60.5t85 22.5q45 0 83 -22.5t60.5 -60.5t22.5 -83q0 -46 -22.5 -84.5t-60.5 -61t-83 -22.5q-46 0 -85 22.5zM925.5 1695.5q-38.5 22.5 -61 61t-22.5 84.5q0 45 22.5 83t61 60.5
t84.5 22.5q45 0 83 -22.5t60.5 -60.5t22.5 -83q0 -46 -22.5 -84.5t-60.5 -61t-83 -22.5q-46 0 -84.5 22.5zM476 2331h621v-160h-621v160z" />
    <glyph glyph-name="uni01D6" unicode="&#x1d6;" horiz-adv-x="1322" 
d="M275 57q-78 61 -110.5 156t-32.5 256v641h300v-593q0 -107 11 -156.5t42 -80.5q54 -55 161 -55q58 0 101.5 19t69.5 54q25 33 35 86t10 158v568h299v-1110h-299v75h-25q-52 -49 -126 -74.5t-167 -25.5q-163 0 -269 82zM359 1280.5q-39 22.5 -61.5 61.5t-22.5 85
q0 45 22.5 83t61.5 60.5t85 22.5q45 0 83 -22.5t60.5 -60.5t22.5 -83q0 -46 -22.5 -85t-60.5 -61.5t-83 -22.5q-46 0 -85 22.5zM802.5 1280.5q-38.5 22.5 -61 61.5t-22.5 85q0 45 22.5 83t61 60.5t84.5 22.5q45 0 83 -22.5t60.5 -60.5t22.5 -83q0 -46 -22.5 -85t-60.5 -61.5
t-83 -22.5q-46 0 -84.5 22.5zM353 1917h621v-160h-621v160z" />
    <glyph glyph-name="uni01D7" unicode="&#x1d7;" horiz-adv-x="1575" 
d="M521.5 11q-116.5 36 -193.5 103q-55 47 -89 111.5t-51 163t-17 244.5v937h336v-926q0 -134 14 -199t50 -99q35 -33 89.5 -53t126.5 -20q138 0 214 73q25 23 39 57t20.5 90.5t6.5 150.5v926h337v-937q0 -145 -17 -243.5t-51 -163.5t-89 -112q-77 -67 -193.5 -103
t-266.5 -36q-149 0 -265.5 36zM482 1695.5q-39 22.5 -61.5 61t-22.5 84.5q0 45 22.5 83t61.5 60.5t85 22.5q45 0 83 -22.5t60.5 -60.5t22.5 -83q0 -46 -22.5 -84.5t-60.5 -61t-83 -22.5q-46 0 -85 22.5zM925.5 1695.5q-38.5 22.5 -61 61t-22.5 84.5q0 45 22.5 83t61 60.5
t84.5 22.5q45 0 83 -22.5t60.5 -60.5t22.5 -83q0 -46 -22.5 -84.5t-60.5 -61t-83 -22.5q-46 0 -84.5 22.5zM906 2467h289l-342 -321h-198z" />
    <glyph glyph-name="uni01D8" unicode="&#x1d8;" horiz-adv-x="1322" 
d="M275 57q-78 61 -110.5 156t-32.5 256v641h300v-593q0 -107 11 -156.5t42 -80.5q54 -55 161 -55q58 0 101.5 19t69.5 54q25 33 35 86t10 158v568h299v-1110h-299v75h-25q-52 -49 -126 -74.5t-167 -25.5q-163 0 -269 82zM359 1280.5q-39 22.5 -61.5 61.5t-22.5 85
q0 45 22.5 83t61.5 60.5t85 22.5q45 0 83 -22.5t60.5 -60.5t22.5 -83q0 -46 -22.5 -85t-60.5 -61.5t-83 -22.5q-46 0 -85 22.5zM802.5 1280.5q-38.5 22.5 -61 61.5t-22.5 85q0 45 22.5 83t61 60.5t84.5 22.5q45 0 83 -22.5t60.5 -60.5t22.5 -83q0 -46 -22.5 -85t-60.5 -61.5
t-83 -22.5q-46 0 -84.5 22.5zM783 2053h289l-342 -321h-198z" />
    <glyph glyph-name="uni01D9" unicode="&#x1d9;" horiz-adv-x="1575" 
d="M521.5 11q-116.5 36 -193.5 103q-55 47 -89 111.5t-51 163t-17 244.5v937h336v-926q0 -134 14 -199t50 -99q35 -33 89.5 -53t126.5 -20q138 0 214 73q25 23 39 57t20.5 90.5t6.5 150.5v926h337v-937q0 -145 -17 -243.5t-51 -163.5t-89 -112q-77 -67 -193.5 -103
t-266.5 -36q-149 0 -265.5 36zM482 1695.5q-39 22.5 -61.5 61t-22.5 84.5q0 45 22.5 83t61.5 60.5t85 22.5q45 0 83 -22.5t60.5 -60.5t22.5 -83q0 -46 -22.5 -84.5t-60.5 -61t-83 -22.5q-46 0 -85 22.5zM925.5 1695.5q-38.5 22.5 -61 61t-22.5 84.5q0 45 22.5 83t61 60.5
t84.5 22.5q45 0 83 -22.5t60.5 -60.5t22.5 -83q0 -46 -22.5 -84.5t-60.5 -61t-83 -22.5q-46 0 -84.5 22.5zM434 2467h209l141 -127l144 127h209l-353 -369z" />
    <glyph glyph-name="uni01DA" unicode="&#x1da;" horiz-adv-x="1322" 
d="M275 57q-78 61 -110.5 156t-32.5 256v641h300v-593q0 -107 11 -156.5t42 -80.5q54 -55 161 -55q58 0 101.5 19t69.5 54q25 33 35 86t10 158v568h299v-1110h-299v75h-25q-52 -49 -126 -74.5t-167 -25.5q-163 0 -269 82zM359 1280.5q-39 22.5 -61.5 61.5t-22.5 85
q0 45 22.5 83t61.5 60.5t85 22.5q45 0 83 -22.5t60.5 -60.5t22.5 -83q0 -46 -22.5 -85t-60.5 -61.5t-83 -22.5q-46 0 -85 22.5zM802.5 1280.5q-38.5 22.5 -61 61.5t-22.5 85q0 45 22.5 83t61 60.5t84.5 22.5q45 0 83 -22.5t60.5 -60.5t22.5 -83q0 -46 -22.5 -85t-60.5 -61.5
t-83 -22.5q-46 0 -84.5 22.5zM311 2053h209l141 -127l144 127h209l-353 -369z" />
    <glyph glyph-name="uni01DB" unicode="&#x1db;" horiz-adv-x="1575" 
d="M521.5 11q-116.5 36 -193.5 103q-55 47 -89 111.5t-51 163t-17 244.5v937h336v-926q0 -134 14 -199t50 -99q35 -33 89.5 -53t126.5 -20q138 0 214 73q25 23 39 57t20.5 90.5t6.5 150.5v926h337v-937q0 -145 -17 -243.5t-51 -163.5t-89 -112q-77 -67 -193.5 -103
t-266.5 -36q-149 0 -265.5 36zM482 1695.5q-39 22.5 -61.5 61t-22.5 84.5q0 45 22.5 83t61.5 60.5t85 22.5q45 0 83 -22.5t60.5 -60.5t22.5 -83q0 -46 -22.5 -84.5t-60.5 -61t-83 -22.5q-46 0 -85 22.5zM925.5 1695.5q-38.5 22.5 -61 61t-22.5 84.5q0 45 22.5 83t61 60.5
t84.5 22.5q45 0 83 -22.5t60.5 -60.5t22.5 -83q0 -46 -22.5 -84.5t-60.5 -61t-83 -22.5q-46 0 -84.5 22.5zM366 2467h289l235 -321h-205z" />
    <glyph glyph-name="uni01DC" unicode="&#x1dc;" horiz-adv-x="1322" 
d="M275 57q-78 61 -110.5 156t-32.5 256v641h300v-593q0 -107 11 -156.5t42 -80.5q54 -55 161 -55q58 0 101.5 19t69.5 54q25 33 35 86t10 158v568h299v-1110h-299v75h-25q-52 -49 -126 -74.5t-167 -25.5q-163 0 -269 82zM359 1280.5q-39 22.5 -61.5 61.5t-22.5 85
q0 45 22.5 83t61.5 60.5t85 22.5q45 0 83 -22.5t60.5 -60.5t22.5 -83q0 -46 -22.5 -85t-60.5 -61.5t-83 -22.5q-46 0 -85 22.5zM802.5 1280.5q-38.5 22.5 -61 61.5t-22.5 85q0 45 22.5 83t61 60.5t84.5 22.5q45 0 83 -22.5t60.5 -60.5t22.5 -83q0 -46 -22.5 -85t-60.5 -61.5
t-83 -22.5q-46 0 -84.5 22.5zM243 2053h289l235 -321h-205z" />
    <glyph glyph-name="uni01EB" unicode="&#x1eb;" horiz-adv-x="1258" 
d="M666.5 -118q-41.5 -56 -41.5 -100q0 -46 42.5 -72t126.5 -26v-166q-184 0 -281 52t-97 141q0 57 40.5 125t121.5 141q-156 11 -272.5 89t-179 206t-62.5 286q0 166 69 297.5t197.5 206t299.5 74.5t299 -74.5t197 -206t69 -297.5q0 -140 -49.5 -257t-142 -197t-219.5 -111
q-76 -55 -117.5 -111zM428 319.5q64 -94.5 202 -94.5q137 0 200.5 94t63.5 239q0 143 -63.5 235t-200.5 92q-138 0 -202 -92.5t-64 -234.5q0 -144 64 -238.5z" />
    <glyph glyph-name="uni01F1" unicode="&#x1f1;" horiz-adv-x="2967" 
d="M203 1570h405q176 0 292 -19.5t195 -56.5t154 -99q121 -100 183.5 -256t62.5 -365q0 -204 -63.5 -357.5t-189.5 -252.5q-74 -59 -152 -93.5t-193.5 -52.5t-291.5 -18h-402v1570zM573 298q129 0 208 11.5t131 35.5t103 69q143 127 143 373q0 119 -33 211t-94 151
q-49 48 -98 73.5t-125.5 37.5t-204.5 12h-64v-974h34zM1656 296l749 949v27h-724v298h1154v-300l-749 -951v-21h797v-298h-1227v296z" />
    <glyph glyph-name="uni01F2" unicode="&#x1f2;" horiz-adv-x="2703" 
d="M203 1570h405q176 0 292 -19.5t195 -56.5t154 -99q121 -100 183.5 -256t62.5 -365q0 -204 -63.5 -357.5t-189.5 -252.5q-74 -59 -152 -93.5t-193.5 -52.5t-291.5 -18h-402v1570zM573 298q129 0 208 11.5t131 35.5t103 69q143 127 143 373q0 119 -33 211t-94 151
q-49 48 -98 73.5t-125.5 37.5t-204.5 12h-64v-974h34zM1673 248l550 589v25h-530v248h910v-245l-550 -592v-25h575v-248h-955v248z" />
    <glyph glyph-name="uni01F3" unicode="&#x1f3;" horiz-adv-x="2423" 
d="M298 44q-106 69 -162 199.5t-56 311.5t56 311.5t163.5 200t258.5 69.5q76 0 147.5 -23.5t120.5 -65.5h25v523h298v-1570h-252l-46 66h-25q-49 -42 -123.5 -66.5t-151.5 -24.5q-147 0 -253 69zM813.5 308.5q64.5 83.5 64.5 246.5q0 161 -65 245.5t-185 84.5t-184 -85
t-64 -245q0 -161 63.5 -245.5t184.5 -84.5t185.5 83.5zM1393 248l550 589v25h-530v248h910v-245l-550 -592v-25h575v-248h-955v248z" />
    <glyph glyph-name="Oslashacute" unicode="&#x1fe;" horiz-adv-x="1713" 
d="M922 1707h-198l251 321h289zM1554.5 1160q65.5 -163 65.5 -375q0 -255 -93.5 -437t-265.5 -277.5t-405 -95.5q-183 0 -332 61l-60 -100l-179 109l60 100q-122 104 -187 266.5t-65 373.5q0 254 93.5 436.5t265.5 278t404 95.5q186 0 331 -60l58 96l180 -109l-58 -95
q122 -104 187.5 -267zM523 437l501 829q-74 31 -168 31q-128 0 -224 -59.5t-149 -175t-53 -277.5q0 -216 93 -348zM1082 332.5q97 59.5 150.5 175t53.5 277.5q0 218 -95 350l-504 -831q79 -31 169 -31q129 0 226 59.5z" />
    <glyph glyph-name="oslashacute" unicode="&#x1ff;" horiz-adv-x="1258" 
d="M696 1249h-198l251 321h289zM1149.5 804.5q45.5 -112.5 45.5 -246.5q0 -167 -69 -299.5t-197.5 -208t-298.5 -75.5q-112 0 -209 34l-83 -137l-179 109l82 135q-86 80 -131.5 193.5t-45.5 248.5q0 166 69 297.5t197.5 206t299.5 74.5q112 0 209 -34l80 133l179 -109
l-79 -131q85 -78 130.5 -190.5zM397 374l305 503q-35 8 -72 8q-138 0 -202 -92.5t-64 -234.5q0 -107 33 -184zM830.5 319q63.5 94 63.5 239q0 103 -32 179l-305 -504q35 -8 73 -8q137 0 200.5 94z" />
    <glyph glyph-name="uni0218" unicode="&#x218;" horiz-adv-x="1290" 
d="M394 32.5q-131 52.5 -221.5 159.5t-115.5 263l334 84q11 -133 86.5 -197t193.5 -64q106 0 158 47t52 121q0 68 -40 114.5t-99 75.5t-165 69q-136 50 -220.5 96t-144.5 130.5t-60 217.5q0 142 69 242.5t184 152t253 51.5q154 0 284.5 -70.5t211.5 -213.5l-280 -171
q-35 72 -97 114.5t-126 42.5q-70 0 -116 -37t-46 -97q0 -51 34 -86t84.5 -57.5t145.5 -54.5q144 -48 236 -95.5t159 -142.5t67 -249q0 -151 -66.5 -263.5t-188.5 -173.5t-286 -61q-149 0 -280 52.5zM804 -115q49 -31 71 -79.5t22 -103.5q0 -65 -30 -138.5t-98.5 -134.5
t-176.5 -84l-62 141q85 12 139.5 46.5t67.5 79.5q-33 -15 -70 -15q-44 0 -82.5 23t-61 61t-22.5 80q0 44 23.5 78.5t64 54.5t89.5 20q77 2 126 -29z" />
    <glyph glyph-name="uni0219" unicode="&#x219;" horiz-adv-x="1033" 
d="M312.5 14.5q-102.5 39.5 -174.5 111.5t-102 165l235 105q28 -76 97.5 -123.5t150.5 -47.5q60 0 98 26.5t38 76.5q0 46 -35 71.5t-108 44.5q-5 1 -64 17t-134 51q-88 41 -142 107t-54 175q0 108 54.5 185.5t148.5 117t209 39.5q151 0 267 -66t168 -176l-225 -125
q-37 58 -97 95t-122 37q-49 0 -83.5 -22t-34.5 -60q0 -35 31.5 -53t100.5 -38q79 -22 135 -41.5t101 -44.5q176 -95 176 -287q0 -113 -52 -199t-146 -133.5t-217 -47.5q-117 0 -219.5 39.5zM674 -115q49 -31 71 -79.5t22 -103.5q0 -65 -30 -138.5t-98.5 -134.5t-176.5 -84
l-62 141q85 12 139.5 46.5t67.5 79.5q-33 -15 -70 -15q-44 0 -82.5 23t-61 61t-22.5 80q0 44 23.5 78.5t64 54.5t89.5 20q77 2 126 -29z" />
    <glyph glyph-name="uni021A" unicode="&#x21a;" horiz-adv-x="1331" 
d="M498 1272h-468v298h1272v-298h-469v-1272h-335v1272zM769 -115q49 -31 71 -79.5t22 -103.5q0 -65 -30 -138.5t-98.5 -134.5t-176.5 -84l-62 141q85 12 139.5 46.5t67.5 79.5q-33 -15 -70 -15q-44 0 -82.5 23t-61 61t-22.5 80q0 44 23.5 78.5t64 54.5t89.5 20
q77 2 126 -29z" />
    <glyph glyph-name="uni021B" unicode="&#x21b;" horiz-adv-x="817" 
d="M374.5 13.5q-80.5 38.5 -125 113t-44.5 180.5v569h-175v234h182v269l293 212v-481h221v-234h-221v-530q0 -68 29 -94.5t83 -26.5q36 0 100 18l48 -236q-39 -13 -94.5 -22.5t-108.5 -9.5q-107 0 -187.5 38.5zM633 -115q49 -31 71 -79.5t22 -103.5q0 -65 -30 -138.5
t-98.5 -134.5t-176.5 -84l-62 141q85 12 139.5 46.5t67.5 79.5q-33 -15 -70 -15q-44 0 -82.5 23t-61 61t-22.5 80q0 44 23.5 78.5t64 54.5t89.5 20q77 2 126 -29z" />
    <glyph glyph-name="uni0237" unicode="&#x237;" horiz-adv-x="626" 
d="M-43 -444l79 246q16 -6 37 -10t34 -4q22 0 31 7.5t10 8.5q11 13 13.5 37t2.5 91v1178h298v-1240q0 -74 -2 -114t-12.5 -80t-33.5 -72q-29 -39 -83 -62.5t-133 -23.5q-122 0 -241 38z" />
    <glyph glyph-name="circumflex" unicode="&#x2c6;" horiz-adv-x="726" 
d="M362 1611l353 -391h-210l-143 139l-141 -139h-210z" />
    <glyph glyph-name="caron" unicode="&#x2c7;" horiz-adv-x="733" 
d="M16 1570h209l141 -127l144 127h209l-353 -369z" />
    <glyph glyph-name="breve" unicode="&#x2d8;" horiz-adv-x="892" 
d="M183 1333q-87 86 -87 237h191q0 -85 43.5 -124.5t115.5 -39.5q74 0 116.5 40.5t42.5 123.5h191q0 -154 -89 -238.5t-261 -84.5q-176 0 -263 86z" />
    <glyph glyph-name="dotaccent" unicode="&#x2d9;" horiz-adv-x="594" 
d="M201 1238.5q-44 25.5 -70 69.5t-26 96q0 50 26 93.5t70 69.5t95 26t95 -26t70 -69.5t26 -93.5q0 -52 -26 -95.5t-70 -69.5t-95 -26t-95 25.5z" />
    <glyph glyph-name="ring" unicode="&#x2da;" horiz-adv-x="703" 
d="M221.5 1223q-58.5 35 -92 94t-33.5 128t34 127.5t92.5 93t127.5 34.5t128 -34t94.5 -92.5t35.5 -128.5t-34.5 -129t-93.5 -93.5t-130 -34.5q-70 0 -128.5 35zM430.5 1365q31.5 32 31.5 82q0 48 -30 77.5t-82 29.5q-49 0 -79 -30t-30 -77q0 -49 31.5 -81.5t77.5 -32.5
q49 0 80.5 32z" />
    <glyph glyph-name="ogonek" unicode="&#x2db;" horiz-adv-x="573" 
d="M179 -430q-97 52 -97 141q0 62 47.5 136.5t141.5 152.5h189q-81 -57 -125 -115t-44 -103q0 -46 42.5 -72t126.5 -26v-166q-184 0 -281 52z" />
    <glyph glyph-name="tilde" unicode="&#x2dc;" horiz-adv-x="969" 
d="M541 1266.5q-37 14.5 -61 35t-55 52.5q-29 30 -47.5 43.5t-40.5 13.5q-35 0 -54 -40t-19 -113h-155q0 152 63 235.5t174 83.5q61 0 103 -26t89 -73q30 -30 49.5 -44t40.5 -14q30 0 49 39.5t19 110.5h162q0 -152 -62 -235t-170 -83q-48 0 -85 14.5z" />
    <glyph glyph-name="hungarumlaut" unicode="&#x2dd;" horiz-adv-x="1015" 
d="M269 1570h243l-259 -321h-203zM701 1570h289l-298 -321h-210z" />
    <glyph glyph-name="gravecomb" unicode="&#x300;" 
d="M-567 1570h289l235 -321h-205z" />
    <glyph glyph-name="acutecomb" unicode="&#x301;" 
d="M-309 1570h289l-342 -321h-198z" />
    <glyph glyph-name="uni0302" unicode="&#x302;" 
d="M-364 1611l353 -391h-210l-143 139l-141 -139h-210z" />
    <glyph glyph-name="tildecomb" unicode="&#x303;" 
d="M-428 1266.5q-37 14.5 -61 35t-55 52.5q-29 30 -47.5 43.5t-40.5 13.5q-35 0 -54 -40t-19 -113h-155q0 152 63 235.5t174 83.5q61 0 103 -26t89 -73q30 -30 49.5 -44t40.5 -14q30 0 49 39.5t19 110.5h162q0 -152 -62 -235t-170 -83q-48 0 -85 14.5z" />
    <glyph glyph-name="uni0304" unicode="&#x304;" 
d="M-776 1434h621v-160h-621v160z" />
    <glyph glyph-name="uni0306" unicode="&#x306;" 
d="M-709 1333q-87 86 -87 237h191q0 -85 43.5 -124.5t115.5 -39.5q74 0 116.5 40.5t42.5 123.5h191q0 -154 -89 -238.5t-261 -84.5q-176 0 -263 86z" />
    <glyph glyph-name="uni0307" unicode="&#x307;" 
d="M-393 1238.5q-44 25.5 -70 69.5t-26 96q0 50 26 93.5t70 69.5t95 26t95 -26t70 -69.5t26 -93.5q0 -52 -26 -95.5t-70 -69.5t-95 -26t-95 25.5z" />
    <glyph glyph-name="uni0308" unicode="&#x308;" 
d="M-806 1280.5q-39 22.5 -61.5 61.5t-22.5 85q0 45 22.5 83t61.5 60.5t85 22.5q45 0 83 -22.5t60.5 -60.5t22.5 -83q0 -46 -22.5 -85t-60.5 -61.5t-83 -22.5q-46 0 -85 22.5zM-362.5 1280.5q-38.5 22.5 -61 61.5t-22.5 85q0 45 22.5 83t61 60.5t84.5 22.5q45 0 83 -22.5
t60.5 -60.5t22.5 -83q0 -46 -22.5 -85t-60.5 -61.5t-83 -22.5q-46 0 -84.5 22.5z" />
    <glyph glyph-name="uni030A" unicode="&#x30a;" 
d="M-481.5 1223q-58.5 35 -92 94t-33.5 128t34 127.5t92.5 93t127.5 34.5t128 -34t94.5 -92.5t35.5 -128.5t-34.5 -129t-93.5 -93.5t-130 -34.5q-70 0 -128.5 35zM-272.5 1365q31.5 32 31.5 82q0 48 -30 77.5t-82 29.5q-49 0 -79 -30t-30 -77q0 -49 31.5 -81.5t77.5 -32.5
q49 0 80.5 32z" />
    <glyph glyph-name="uni030B" unicode="&#x30b;" 
d="M-746 1570h243l-259 -321h-203zM-314 1570h289l-298 -321h-210z" />
    <glyph glyph-name="uni030C" unicode="&#x30c;" 
d="M-717 1570h209l141 -127l144 127h209l-353 -369z" />
    <glyph glyph-name="uni030F" unicode="&#x30f;" 
d="M-692 1249l-298 321h289l219 -321h-210zM-253 1249l-259 321h243l219 -321h-203z" />
    <glyph glyph-name="uni0312" unicode="&#x312;" 
d="M-188.5 1477.5q38.5 -20.5 61 -54t22.5 -71.5q0 -39 -23.5 -70.5t-64 -49t-89.5 -17.5q-77 -2 -126 25.5t-71 71t-22 92.5q0 58 30 124t98.5 120.5t176.5 75.5l62 -126q-86 -11 -140 -42t-67 -71q36 13 70 13q44 0 82.5 -20.5z" />
    <glyph glyph-name="uni031B" unicode="&#x31b;" 
d="M-455 1288q81 0 113.5 52t32.5 121v109h204v-89q0 -106 -36.5 -189.5t-115 -132.5t-198.5 -49v178z" />
    <glyph glyph-name="uni0326" unicode="&#x326;" 
d="M-181 -115q49 -31 71 -79.5t22 -103.5q0 -65 -30 -138.5t-98.5 -134.5t-176.5 -84l-62 141q85 12 139.5 46.5t67.5 79.5q-33 -15 -70 -15q-44 0 -82.5 23t-61 61t-22.5 80q0 44 23.5 78.5t64 54.5t89.5 20q77 2 126 -29z" />
    <glyph glyph-name="uni0327" unicode="&#x327;" 
d="M-443.5 -464q-60.5 23 -118.5 70l73 119q85 -80 171 -80q42 0 66.5 22t24.5 53q0 29 -20.5 50.5t-61.5 33.5q-46 14 -141 14l116 182h134l-73 -93q38 -5 61 -14q54 -21 86.5 -66.5t32.5 -104.5t-30.5 -107t-83.5 -75t-118 -27q-58 0 -118.5 23z" />
    <glyph glyph-name="uni0328" unicode="&#x328;" 
d="M-394 -430q-97 52 -97 141q0 62 47.5 136.5t141.5 152.5h189q-81 -57 -125 -115t-44 -103q0 -46 42.5 -72t126.5 -26v-166q-184 0 -281 52z" />
    <glyph glyph-name="uni0335" unicode="&#x335;" 
d="M-860 746h705v-182h-705v182z" />
    <glyph glyph-name="uni0336" unicode="&#x336;" 
d="M-1634 712h1479v-159h-1479v159z" />
    <glyph glyph-name="uni0337" unicode="&#x337;" 
d="M-615 769l555 398v-275l-555 -400v277z" />
    <glyph glyph-name="uni0338" unicode="&#x338;" 
d="M-912 43l760 1254l179 -109l-760 -1254z" />
    <glyph glyph-name="uni03BC" unicode="&#x3bc;" horiz-adv-x="1443" 
d="M243 1110h269v-632q0 -113 55 -181.5t157 -68.5q119 0 184.5 67t65.5 208v607h268v-1110h-268v130q-63 -78 -151 -115.5t-177 -37.5q-106 0 -184 39v-380h-219v1474z" />
    <glyph glyph-name="pi" unicode="&#x3c0;" horiz-adv-x="1115" 
d="M788.5 12.5q-58.5 35.5 -90 100.5t-31.5 151v619h-253v-883h-227v883h-91v227h889v-227h-91v-583q0 -123 50 -123q24 0 46 16l73 -177q-59 -39 -137 -39q-79 0 -137.5 35.5z" />
    <glyph glyph-name="Wgrave" unicode="&#x1e80;" horiz-adv-x="2471" 
d="M16 1570h364l389 -1156h27l258 940h364l259 -940h25l389 1156h364l-580 -1570h-405l-218 878h-32l-219 -878h-405zM817 2030h289l235 -321h-205z" />
    <glyph glyph-name="wgrave" unicode="&#x1e81;" horiz-adv-x="1900" 
d="M0 1110h321l275 -832h14l180 832h320l180 -832h14l275 832h321l-403 -1110h-400l-139 708h-14l-141 -708h-400zM530 1570h289l235 -321h-205z" />
    <glyph glyph-name="Wacute" unicode="&#x1e82;" horiz-adv-x="2471" 
d="M16 1570h364l389 -1156h27l258 940h364l259 -940h25l389 1156h364l-580 -1570h-405l-218 878h-32l-219 -878h-405zM1357 2030h289l-342 -321h-198z" />
    <glyph glyph-name="wacute" unicode="&#x1e83;" horiz-adv-x="1900" 
d="M0 1110h321l275 -832h14l180 832h320l180 -832h14l275 832h321l-403 -1110h-400l-139 708h-14l-141 -708h-400zM1070 1570h289l-342 -321h-198z" />
    <glyph glyph-name="Wdieresis" unicode="&#x1e84;" horiz-adv-x="2471" 
d="M16 1570h364l389 -1156h27l258 940h364l259 -940h25l389 1156h364l-580 -1570h-405l-218 878h-32l-219 -878h-405zM933 1695.5q-39 22.5 -61.5 61t-22.5 84.5q0 45 22.5 83t61.5 60.5t85 22.5q45 0 83 -22.5t60.5 -60.5t22.5 -83q0 -46 -22.5 -84.5t-60.5 -61t-83 -22.5
q-46 0 -85 22.5zM1376.5 1695.5q-38.5 22.5 -61 61t-22.5 84.5q0 45 22.5 83t61 60.5t84.5 22.5q45 0 83 -22.5t60.5 -60.5t22.5 -83q0 -46 -22.5 -84.5t-60.5 -61t-83 -22.5q-46 0 -84.5 22.5z" />
    <glyph glyph-name="wdieresis" unicode="&#x1e85;" horiz-adv-x="1900" 
d="M0 1110h321l275 -832h14l180 832h320l180 -832h14l275 832h321l-403 -1110h-400l-139 708h-14l-141 -708h-400zM646 1280.5q-39 22.5 -61.5 61.5t-22.5 85q0 45 22.5 83t61.5 60.5t85 22.5q45 0 83 -22.5t60.5 -60.5t22.5 -83q0 -46 -22.5 -85t-60.5 -61.5t-83 -22.5
q-46 0 -85 22.5zM1089.5 1280.5q-38.5 22.5 -61 61.5t-22.5 85q0 45 22.5 83t61 60.5t84.5 22.5q45 0 83 -22.5t60.5 -60.5t22.5 -83q0 -46 -22.5 -85t-60.5 -61.5t-83 -22.5q-46 0 -84.5 22.5z" />
    <glyph glyph-name="uni1EA4" unicode="&#x1ea4;" horiz-adv-x="1570" 
d="M1082 321h-590l-110 -321h-366l585 1570h373l580 -1570h-364zM982 619l-179 535h-27l-183 -535h389zM783 2071l353 -391h-210l-143 139l-141 -139h-210zM904 2490h289l-342 -321h-198z" />
    <glyph glyph-name="uni1EA5" unicode="&#x1ea5;" horiz-adv-x="1222" 
d="M1071 859q17 -68 17 -183v-676h-255l-43 68h-25q-36 -32 -71 -50q-86 -43 -205 -43q-128 0 -223.5 46t-147.5 130t-52 195q0 101 43.5 175.5t124.5 115.5q52 27 130.5 39.5t220.5 12.5h205q-2 61 -13.5 97t-39.5 58q-50 41 -157 41q-70 0 -151.5 -31.5t-155.5 -88.5
l-177 200q109 80 235.5 125.5t248.5 45.5q155 0 266.5 -42t172.5 -122q35 -45 52 -113zM776 356q11 41 13 99h-293q-29 0 -53 -8.5t-45 -32.5q-17 -19 -22 -31.5t-5 -38.5q0 -59 42.5 -95.5t128.5 -36.5q58 0 111 19.5t87 55.5q25 28 36 69zM608 1611l353 -391h-210
l-143 139l-141 -139h-210zM729 2030h289l-342 -321h-198z" />
    <glyph glyph-name="uni1EA6" unicode="&#x1ea6;" horiz-adv-x="1570" 
d="M1082 321h-590l-110 -321h-366l585 1570h373l580 -1570h-364zM982 619l-179 535h-27l-183 -535h389zM783 2071l353 -391h-210l-143 139l-141 -139h-210zM364 2490h289l235 -321h-205z" />
    <glyph glyph-name="uni1EA7" unicode="&#x1ea7;" horiz-adv-x="1222" 
d="M1071 859q17 -68 17 -183v-676h-255l-43 68h-25q-36 -32 -71 -50q-86 -43 -205 -43q-128 0 -223.5 46t-147.5 130t-52 195q0 101 43.5 175.5t124.5 115.5q52 27 130.5 39.5t220.5 12.5h205q-2 61 -13.5 97t-39.5 58q-50 41 -157 41q-70 0 -151.5 -31.5t-155.5 -88.5
l-177 200q109 80 235.5 125.5t248.5 45.5q155 0 266.5 -42t172.5 -122q35 -45 52 -113zM776 356q11 41 13 99h-293q-29 0 -53 -8.5t-45 -32.5q-17 -19 -22 -31.5t-5 -38.5q0 -59 42.5 -95.5t128.5 -36.5q58 0 111 19.5t87 55.5q25 28 36 69zM608 1611l353 -391h-210
l-143 139l-141 -139h-210zM189 2030h289l235 -321h-205z" />
    <glyph glyph-name="uni1EAA" unicode="&#x1eaa;" horiz-adv-x="1570" 
d="M1082 321h-590l-110 -321h-366l585 1570h373l580 -1570h-364zM982 619l-179 535h-27l-183 -535h389zM783 2071l353 -391h-210l-143 139l-141 -139h-210zM841 2163.5q-37 14.5 -61 35t-55 52.5q-29 30 -47.5 43.5t-40.5 13.5q-35 0 -54 -40t-19 -113h-155q0 152 63 235.5
t174 83.5q61 0 103 -26t89 -73q30 -30 49.5 -44t40.5 -14q30 0 49 39.5t19 110.5h162q0 -152 -62 -235t-170 -83q-48 0 -85 14.5z" />
    <glyph glyph-name="uni1EAB" unicode="&#x1eab;" horiz-adv-x="1222" 
d="M1071 859q17 -68 17 -183v-676h-255l-43 68h-25q-36 -32 -71 -50q-86 -43 -205 -43q-128 0 -223.5 46t-147.5 130t-52 195q0 101 43.5 175.5t124.5 115.5q52 27 130.5 39.5t220.5 12.5h205q-2 61 -13.5 97t-39.5 58q-50 41 -157 41q-70 0 -151.5 -31.5t-155.5 -88.5
l-177 200q109 80 235.5 125.5t248.5 45.5q155 0 266.5 -42t172.5 -122q35 -45 52 -113zM776 356q11 41 13 99h-293q-29 0 -53 -8.5t-45 -32.5q-17 -19 -22 -31.5t-5 -38.5q0 -59 42.5 -95.5t128.5 -36.5q58 0 111 19.5t87 55.5q25 28 36 69zM608 1611l353 -391h-210
l-143 139l-141 -139h-210zM666 1703.5q-37 14.5 -61 35t-55 52.5q-29 30 -47.5 43.5t-40.5 13.5q-35 0 -54 -40t-19 -113h-155q0 152 63 235.5t174 83.5q61 0 103 -26t89 -73q30 -30 49.5 -44t40.5 -14q30 0 49 39.5t19 110.5h162q0 -152 -62 -235t-170 -83q-48 0 -85 14.5z
" />
    <glyph glyph-name="uni1EAE" unicode="&#x1eae;" horiz-adv-x="1570" 
d="M1082 321h-590l-110 -321h-366l585 1570h373l580 -1570h-364zM982 619l-179 535h-27l-183 -535h389zM522 1793q-87 86 -87 237h191q0 -85 43.5 -124.5t115.5 -39.5q74 0 116.5 40.5t42.5 123.5h191q0 -154 -89 -238.5t-261 -84.5q-176 0 -263 86zM904 2490h289l-342 -321
h-198z" />
    <glyph glyph-name="uni1EAF" unicode="&#x1eaf;" horiz-adv-x="1222" 
d="M1071 859q17 -68 17 -183v-676h-255l-43 68h-25q-36 -32 -71 -50q-86 -43 -205 -43q-128 0 -223.5 46t-147.5 130t-52 195q0 101 43.5 175.5t124.5 115.5q52 27 130.5 39.5t220.5 12.5h205q-2 61 -13.5 97t-39.5 58q-50 41 -157 41q-70 0 -151.5 -31.5t-155.5 -88.5
l-177 200q109 80 235.5 125.5t248.5 45.5q155 0 266.5 -42t172.5 -122q35 -45 52 -113zM776 356q11 41 13 99h-293q-29 0 -53 -8.5t-45 -32.5q-17 -19 -22 -31.5t-5 -38.5q0 -59 42.5 -95.5t128.5 -36.5q58 0 111 19.5t87 55.5q25 28 36 69zM347 1333q-87 86 -87 237h191
q0 -85 43.5 -124.5t115.5 -39.5q74 0 116.5 40.5t42.5 123.5h191q0 -154 -89 -238.5t-261 -84.5q-176 0 -263 86zM729 2030h289l-342 -321h-198z" />
    <glyph glyph-name="uni1EB0" unicode="&#x1eb0;" horiz-adv-x="1570" 
d="M1082 321h-590l-110 -321h-366l585 1570h373l580 -1570h-364zM982 619l-179 535h-27l-183 -535h389zM522 1793q-87 86 -87 237h191q0 -85 43.5 -124.5t115.5 -39.5q74 0 116.5 40.5t42.5 123.5h191q0 -154 -89 -238.5t-261 -84.5q-176 0 -263 86zM364 2490h289l235 -321
h-205z" />
    <glyph glyph-name="uni1EB1" unicode="&#x1eb1;" horiz-adv-x="1222" 
d="M1071 859q17 -68 17 -183v-676h-255l-43 68h-25q-36 -32 -71 -50q-86 -43 -205 -43q-128 0 -223.5 46t-147.5 130t-52 195q0 101 43.5 175.5t124.5 115.5q52 27 130.5 39.5t220.5 12.5h205q-2 61 -13.5 97t-39.5 58q-50 41 -157 41q-70 0 -151.5 -31.5t-155.5 -88.5
l-177 200q109 80 235.5 125.5t248.5 45.5q155 0 266.5 -42t172.5 -122q35 -45 52 -113zM776 356q11 41 13 99h-293q-29 0 -53 -8.5t-45 -32.5q-17 -19 -22 -31.5t-5 -38.5q0 -59 42.5 -95.5t128.5 -36.5q58 0 111 19.5t87 55.5q25 28 36 69zM347 1333q-87 86 -87 237h191
q0 -85 43.5 -124.5t115.5 -39.5q74 0 116.5 40.5t42.5 123.5h191q0 -154 -89 -238.5t-261 -84.5q-176 0 -263 86zM189 2030h289l235 -321h-205z" />
    <glyph glyph-name="uni1EB4" unicode="&#x1eb4;" horiz-adv-x="1570" 
d="M1082 321h-590l-110 -321h-366l585 1570h373l580 -1570h-364zM982 619l-179 535h-27l-183 -535h389zM522 1793q-87 86 -87 237h191q0 -85 43.5 -124.5t115.5 -39.5q74 0 116.5 40.5t42.5 123.5h191q0 -154 -89 -238.5t-261 -84.5q-176 0 -263 86zM841 2163.5
q-37 14.5 -61 35t-55 52.5q-29 30 -47.5 43.5t-40.5 13.5q-35 0 -54 -40t-19 -113h-155q0 152 63 235.5t174 83.5q61 0 103 -26t89 -73q30 -30 49.5 -44t40.5 -14q30 0 49 39.5t19 110.5h162q0 -152 -62 -235t-170 -83q-48 0 -85 14.5z" />
    <glyph glyph-name="uni1EB5" unicode="&#x1eb5;" horiz-adv-x="1222" 
d="M1071 859q17 -68 17 -183v-676h-255l-43 68h-25q-36 -32 -71 -50q-86 -43 -205 -43q-128 0 -223.5 46t-147.5 130t-52 195q0 101 43.5 175.5t124.5 115.5q52 27 130.5 39.5t220.5 12.5h205q-2 61 -13.5 97t-39.5 58q-50 41 -157 41q-70 0 -151.5 -31.5t-155.5 -88.5
l-177 200q109 80 235.5 125.5t248.5 45.5q155 0 266.5 -42t172.5 -122q35 -45 52 -113zM776 356q11 41 13 99h-293q-29 0 -53 -8.5t-45 -32.5q-17 -19 -22 -31.5t-5 -38.5q0 -59 42.5 -95.5t128.5 -36.5q58 0 111 19.5t87 55.5q25 28 36 69zM347 1333q-87 86 -87 237h191
q0 -85 43.5 -124.5t115.5 -39.5q74 0 116.5 40.5t42.5 123.5h191q0 -154 -89 -238.5t-261 -84.5q-176 0 -263 86zM666 1703.5q-37 14.5 -61 35t-55 52.5q-29 30 -47.5 43.5t-40.5 13.5q-35 0 -54 -40t-19 -113h-155q0 152 63 235.5t174 83.5q61 0 103 -26t89 -73
q30 -30 49.5 -44t40.5 -14q30 0 49 39.5t19 110.5h162q0 -152 -62 -235t-170 -83q-48 0 -85 14.5z" />
    <glyph glyph-name="uni1EBC" unicode="&#x1ebc;" horiz-adv-x="1381" 
d="M203 1570h1008v-298h-672v-339h633v-298h-633v-337h717v-298h-1053v1570zM775 1703.5q-37 14.5 -61 35t-55 52.5q-29 30 -47.5 43.5t-40.5 13.5q-35 0 -54 -40t-19 -113h-155q0 152 63 235.5t174 83.5q61 0 103 -26t89 -73q30 -30 49.5 -44t40.5 -14q30 0 49 39.5
t19 110.5h162q0 -152 -62 -235t-170 -83q-48 0 -85 14.5z" />
    <glyph glyph-name="uni1EBD" unicode="&#x1ebd;" horiz-adv-x="1204" 
d="M1129 457h-753q12 -103 78 -167.5t183 -64.5q77 0 140 31t115 104l203 -180q-180 -205 -460 -205q-187 0 -316 80t-192 211.5t-63 284.5q0 149 60 283t184.5 218t308.5 84t301 -85.5t168.5 -215.5t51.5 -271q0 -44 -9 -107zM460 828.5q-61 -56.5 -80 -136.5h466
q-4 31 -11 54q-20 69 -81.5 104t-134.5 35q-98 0 -159 -56.5zM691 1243.5q-37 14.5 -61 35t-55 52.5q-29 30 -47.5 43.5t-40.5 13.5q-35 0 -54 -40t-19 -113h-155q0 152 63 235.5t174 83.5q61 0 103 -26t89 -73q30 -30 49.5 -44t40.5 -14q30 0 49 39.5t19 110.5h162
q0 -152 -62 -235t-170 -83q-48 0 -85 14.5z" />
    <glyph glyph-name="uni1EBE" unicode="&#x1ebe;" horiz-adv-x="1381" 
d="M203 1570h1008v-298h-672v-339h633v-298h-633v-337h717v-298h-1053v1570zM717 2071l353 -391h-210l-143 139l-141 -139h-210zM838 2490h289l-342 -321h-198z" />
    <glyph glyph-name="uni1EBF" unicode="&#x1ebf;" horiz-adv-x="1204" 
d="M1129 457h-753q12 -103 78 -167.5t183 -64.5q77 0 140 31t115 104l203 -180q-180 -205 -460 -205q-187 0 -316 80t-192 211.5t-63 284.5q0 149 60 283t184.5 218t308.5 84t301 -85.5t168.5 -215.5t51.5 -271q0 -44 -9 -107zM460 828.5q-61 -56.5 -80 -136.5h466
q-4 31 -11 54q-20 69 -81.5 104t-134.5 35q-98 0 -159 -56.5zM633 1611l353 -391h-210l-143 139l-141 -139h-210zM754 2030h289l-342 -321h-198z" />
    <glyph glyph-name="uni1EC0" unicode="&#x1ec0;" horiz-adv-x="1381" 
d="M203 1570h1008v-298h-672v-339h633v-298h-633v-337h717v-298h-1053v1570zM717 2071l353 -391h-210l-143 139l-141 -139h-210zM298 2490h289l235 -321h-205z" />
    <glyph glyph-name="uni1EC1" unicode="&#x1ec1;" horiz-adv-x="1204" 
d="M1129 457h-753q12 -103 78 -167.5t183 -64.5q77 0 140 31t115 104l203 -180q-180 -205 -460 -205q-187 0 -316 80t-192 211.5t-63 284.5q0 149 60 283t184.5 218t308.5 84t301 -85.5t168.5 -215.5t51.5 -271q0 -44 -9 -107zM460 828.5q-61 -56.5 -80 -136.5h466
q-4 31 -11 54q-20 69 -81.5 104t-134.5 35q-98 0 -159 -56.5zM633 1611l353 -391h-210l-143 139l-141 -139h-210zM214 2030h289l235 -321h-205z" />
    <glyph glyph-name="uni1EC4" unicode="&#x1ec4;" horiz-adv-x="1381" 
d="M203 1570h1008v-298h-672v-339h633v-298h-633v-337h717v-298h-1053v1570zM717 2071l353 -391h-210l-143 139l-141 -139h-210zM775 2163.5q-37 14.5 -61 35t-55 52.5q-29 30 -47.5 43.5t-40.5 13.5q-35 0 -54 -40t-19 -113h-155q0 152 63 235.5t174 83.5q61 0 103 -26
t89 -73q30 -30 49.5 -44t40.5 -14q30 0 49 39.5t19 110.5h162q0 -152 -62 -235t-170 -83q-48 0 -85 14.5z" />
    <glyph glyph-name="uni1EC5" unicode="&#x1ec5;" horiz-adv-x="1204" 
d="M1129 457h-753q12 -103 78 -167.5t183 -64.5q77 0 140 31t115 104l203 -180q-180 -205 -460 -205q-187 0 -316 80t-192 211.5t-63 284.5q0 149 60 283t184.5 218t308.5 84t301 -85.5t168.5 -215.5t51.5 -271q0 -44 -9 -107zM460 828.5q-61 -56.5 -80 -136.5h466
q-4 31 -11 54q-20 69 -81.5 104t-134.5 35q-98 0 -159 -56.5zM633 1611l353 -391h-210l-143 139l-141 -139h-210zM691 1703.5q-37 14.5 -61 35t-55 52.5q-29 30 -47.5 43.5t-40.5 13.5q-35 0 -54 -40t-19 -113h-155q0 152 63 235.5t174 83.5q61 0 103 -26t89 -73
q30 -30 49.5 -44t40.5 -14q30 0 49 39.5t19 110.5h162q0 -152 -62 -235t-170 -83q-48 0 -85 14.5z" />
    <glyph glyph-name="uni1ED0" unicode="&#x1ed0;" horiz-adv-x="1713" 
d="M452 70.5q-172 95.5 -265.5 278t-93.5 436.5t93.5 436.5t265.5 278t404 95.5q233 0 405 -95t265.5 -277.5t93.5 -437.5t-93.5 -437t-265.5 -277.5t-405 -95.5q-232 0 -404 95.5zM1082 332.5q97 59.5 150.5 175t53.5 277.5t-53.5 277.5t-150.5 175t-226 59.5
q-128 0 -224 -59.5t-149 -175t-53 -277.5t53 -277.5t149 -175t224 -59.5q129 0 226 59.5zM854 2069l353 -391h-210l-143 139l-141 -139h-210zM975 2488h289l-342 -321h-198z" />
    <glyph glyph-name="uni1ED1" unicode="&#x1ed1;" horiz-adv-x="1258" 
d="M330.5 50.5q-128.5 75.5 -197.5 208t-69 299.5q0 166 69 297.5t197.5 206t299.5 74.5t299 -74.5t197 -206t69 -297.5q0 -167 -69 -299.5t-197.5 -208t-298.5 -75.5q-171 0 -299.5 75.5zM830.5 319q63.5 94 63.5 239q0 143 -63.5 235t-200.5 92q-138 0 -202 -92.5
t-64 -234.5q0 -144 64 -238.5t202 -94.5q137 0 200.5 94zM628 1611l353 -391h-210l-143 139l-141 -139h-210zM749 2030h289l-342 -321h-198z" />
    <glyph glyph-name="uni1ED2" unicode="&#x1ed2;" horiz-adv-x="1713" 
d="M452 70.5q-172 95.5 -265.5 278t-93.5 436.5t93.5 436.5t265.5 278t404 95.5q233 0 405 -95t265.5 -277.5t93.5 -437.5t-93.5 -437t-265.5 -277.5t-405 -95.5q-232 0 -404 95.5zM1082 332.5q97 59.5 150.5 175t53.5 277.5t-53.5 277.5t-150.5 175t-226 59.5
q-128 0 -224 -59.5t-149 -175t-53 -277.5t53 -277.5t149 -175t224 -59.5q129 0 226 59.5zM854 2069l353 -391h-210l-143 139l-141 -139h-210zM435 2488h289l235 -321h-205z" />
    <glyph glyph-name="uni1ED3" unicode="&#x1ed3;" horiz-adv-x="1258" 
d="M330.5 50.5q-128.5 75.5 -197.5 208t-69 299.5q0 166 69 297.5t197.5 206t299.5 74.5t299 -74.5t197 -206t69 -297.5q0 -167 -69 -299.5t-197.5 -208t-298.5 -75.5q-171 0 -299.5 75.5zM830.5 319q63.5 94 63.5 239q0 143 -63.5 235t-200.5 92q-138 0 -202 -92.5
t-64 -234.5q0 -144 64 -238.5t202 -94.5q137 0 200.5 94zM628 1611l353 -391h-210l-143 139l-141 -139h-210zM209 2030h289l235 -321h-205z" />
    <glyph glyph-name="uni1ED6" unicode="&#x1ed6;" horiz-adv-x="1713" 
d="M452 70.5q-172 95.5 -265.5 278t-93.5 436.5t93.5 436.5t265.5 278t404 95.5q233 0 405 -95t265.5 -277.5t93.5 -437.5t-93.5 -437t-265.5 -277.5t-405 -95.5q-232 0 -404 95.5zM1082 332.5q97 59.5 150.5 175t53.5 277.5t-53.5 277.5t-150.5 175t-226 59.5
q-128 0 -224 -59.5t-149 -175t-53 -277.5t53 -277.5t149 -175t224 -59.5q129 0 226 59.5zM854 2069l353 -391h-210l-143 139l-141 -139h-210zM912 2161.5q-37 14.5 -61 35t-55 52.5q-29 30 -47.5 43.5t-40.5 13.5q-35 0 -54 -40t-19 -113h-155q0 152 63 235.5t174 83.5
q61 0 103 -26t89 -73q30 -30 49.5 -44t40.5 -14q30 0 49 39.5t19 110.5h162q0 -152 -62 -235t-170 -83q-48 0 -85 14.5z" />
    <glyph glyph-name="uni1ED7" unicode="&#x1ed7;" horiz-adv-x="1258" 
d="M330.5 50.5q-128.5 75.5 -197.5 208t-69 299.5q0 166 69 297.5t197.5 206t299.5 74.5t299 -74.5t197 -206t69 -297.5q0 -167 -69 -299.5t-197.5 -208t-298.5 -75.5q-171 0 -299.5 75.5zM830.5 319q63.5 94 63.5 239q0 143 -63.5 235t-200.5 92q-138 0 -202 -92.5
t-64 -234.5q0 -144 64 -238.5t202 -94.5q137 0 200.5 94zM628 1611l353 -391h-210l-143 139l-141 -139h-210zM686 1703.5q-37 14.5 -61 35t-55 52.5q-29 30 -47.5 43.5t-40.5 13.5q-35 0 -54 -40t-19 -113h-155q0 152 63 235.5t174 83.5q61 0 103 -26t89 -73
q30 -30 49.5 -44t40.5 -14q30 0 49 39.5t19 110.5h162q0 -152 -62 -235t-170 -83q-48 0 -85 14.5z" />
    <glyph glyph-name="Ygrave" unicode="&#x1ef2;" horiz-adv-x="1516" 
d="M589 585l-591 985h393l351 -612h29l353 612h394l-592 -985v-585h-337v585zM337 2030h289l235 -321h-205z" />
    <glyph glyph-name="ygrave" unicode="&#x1ef3;" horiz-adv-x="1165" 
d="M423 32l-432 1078h328l248 -712h27l255 712h325l-626 -1570h-323zM162 1570h289l235 -321h-205z" />
    <glyph glyph-name="uni1EF8" unicode="&#x1ef8;" horiz-adv-x="1516" 
d="M589 585l-591 985h393l351 -612h29l353 612h394l-592 -985v-585h-337v585zM814 1703.5q-37 14.5 -61 35t-55 52.5q-29 30 -47.5 43.5t-40.5 13.5q-35 0 -54 -40t-19 -113h-155q0 152 63 235.5t174 83.5q61 0 103 -26t89 -73q30 -30 49.5 -44t40.5 -14q30 0 49 39.5
t19 110.5h162q0 -152 -62 -235t-170 -83q-48 0 -85 14.5z" />
    <glyph glyph-name="uni1EF9" unicode="&#x1ef9;" horiz-adv-x="1165" 
d="M423 32l-432 1078h328l248 -712h27l255 712h325l-626 -1570h-323zM639 1243.5q-37 14.5 -61 35t-55 52.5q-29 30 -47.5 43.5t-40.5 13.5q-35 0 -54 -40t-19 -113h-155q0 152 63 235.5t174 83.5q61 0 103 -26t89 -73q30 -30 49.5 -44t40.5 -14q30 0 49 39.5t19 110.5h162
q0 -152 -62 -235t-170 -83q-48 0 -85 14.5z" />
    <glyph glyph-name="endash" unicode="&#x2013;" horiz-adv-x="1138" 
d="M0 769h1138v-205h-1138v205z" />
    <glyph glyph-name="emdash" unicode="&#x2014;" horiz-adv-x="2276" 
d="M0 769h2276v-205h-2276v205z" />
    <glyph glyph-name="quoteleft" unicode="&#x2018;" horiz-adv-x="646" 
d="M495 1013.5q-22 -36.5 -60.5 -58t-86.5 -22.5h-7h-14q-74 5 -120 43.5t-66 95t-20 118.5q0 78 31 160t99.5 148.5t174.5 94.5l61 -141q-94 -23 -149 -79t-60 -124q37 16 72 16q45 0 83 -23.5t61 -62.5t23 -84t-22 -81.5z" />
    <glyph glyph-name="quoteright" unicode="&#x2019;" horiz-adv-x="646" 
d="M434 1554.5q49 -38.5 70.5 -96.5t21.5 -122q0 -77 -31 -159.5t-100 -149t-174 -94.5l-62 141q94 23 149.5 79t60.5 125q-36 -17 -73 -17q-45 0 -83 23.5t-60.5 62.5t-22.5 84q0 47 23.5 84t63.5 57.5t90 20.5q78 0 127 -38.5z" />
    <glyph glyph-name="quotesinglbase" unicode="&#x201a;" horiz-adv-x="712" 
d="M467.5 277q49.5 -34 71 -89t21.5 -120q0 -77 -30 -162t-98.5 -156t-176.5 -100l-62 141q168 60 181 193q-22 -7 -49 -7q-44 0 -80.5 19t-58.5 55t-22 86q0 51 23 90t63.5 60.5t90.5 21.5q77 2 126.5 -32z" />
    <glyph glyph-name="quotedblleft" unicode="&#x201c;" horiz-adv-x="1067" 
d="M399.5 1246q36.5 -19 58.5 -55t22 -86q0 -51 -23 -90t-63.5 -60.5t-90.5 -21.5q-77 -2 -126.5 32t-71 89t-21.5 120q0 77 30 162t98.5 156t176.5 100l62 -141q-168 -60 -181 -193q22 7 49 7q44 0 80.5 -19zM854.5 1246q36.5 -19 58.5 -55t22 -86q0 -51 -23 -90
t-63.5 -60.5t-90.5 -21.5q-77 -2 -126.5 32t-71 89t-21.5 120q0 77 30 162t98.5 156t176.5 100l62 -141q-168 -60 -181 -193q22 7 49 7q44 0 80.5 -19z" />
    <glyph glyph-name="quotedblright" unicode="&#x201d;" horiz-adv-x="1101" 
d="M439.5 1549q46.5 -39 66.5 -95.5t20 -117.5q0 -77 -31 -159.5t-100 -149t-174 -94.5l-62 141q94 23 149.5 79t60.5 125q-36 -17 -73 -17q-45 0 -83 23.5t-60.5 62.5t-22.5 84q0 69 47.5 114.5t120.5 47.5h7h14q74 -5 120.5 -44zM894.5 1549q46.5 -39 66.5 -95.5
t20 -117.5q0 -77 -31 -159.5t-100 -149t-174 -94.5l-62 141q94 23 149.5 79t60.5 125q-36 -17 -73 -17q-45 0 -83 23.5t-60.5 62.5t-22.5 84q0 69 47.5 114.5t120.5 47.5h7h14q74 -5 120.5 -44z" />
    <glyph glyph-name="quotedblbase" unicode="&#x201e;" horiz-adv-x="1167" 
d="M467.5 277q49.5 -34 71 -89t21.5 -120q0 -77 -30 -162t-98.5 -156t-176.5 -100l-62 141q168 60 181 193q-22 -7 -49 -7q-44 0 -80.5 19t-58.5 55t-22 86q0 51 23 90t63.5 60.5t90.5 21.5q77 2 126.5 -32zM922.5 277q49.5 -34 71 -89t21.5 -120q0 -77 -30 -162t-98.5 -156
t-176.5 -100l-62 141q168 60 181 193q-22 -7 -49 -7q-44 0 -80.5 19t-58.5 55t-22 86q0 51 23 90t63.5 60.5t90.5 21.5q77 2 126.5 -32z" />
    <glyph glyph-name="dagger" unicode="&#x2020;" horiz-adv-x="865" 
d="M309 899h-245v246h245v425h246v-425h246v-246h-246v-1127h-246v1127z" />
    <glyph glyph-name="daggerdbl" unicode="&#x2021;" horiz-adv-x="992" 
d="M373 198h-246v246h246v455h-246v246h246v425h246v-425h246v-246h-246v-455h246v-246h-246v-426h-246v426z" />
    <glyph glyph-name="bullet" unicode="&#x2022;" horiz-adv-x="842" 
d="M288.5 306.5q-60.5 35.5 -96 96t-35.5 132.5q0 71 35.5 132t96 96.5t132.5 35.5t132.5 -35.5t96 -96.5t35.5 -132q0 -72 -35.5 -132.5t-96 -96t-132.5 -35.5t-132.5 35.5z" />
    <glyph glyph-name="ellipsis" unicode="&#x2026;" horiz-adv-x="1600" 
d="M259 -0.5q-39 22.5 -61.5 61.5t-22.5 85q0 45 22.5 83t61.5 60.5t85 22.5q45 0 83 -22.5t60.5 -60.5t22.5 -83q0 -46 -22.5 -85t-60.5 -61.5t-83 -22.5q-46 0 -85 22.5zM716.5 -0.5q-38.5 22.5 -61 61.5t-22.5 85q0 45 22.5 83t61 60.5t84.5 22.5q45 0 83 -22.5
t60.5 -60.5t22.5 -83q0 -46 -22.5 -85t-60.5 -61.5t-83 -22.5q-46 0 -84.5 22.5zM1173.5 -0.5q-38.5 22.5 -61 61.5t-22.5 85q0 45 22.5 83t61 60.5t84.5 22.5q45 0 83 -22.5t60.5 -60.5t22.5 -83q0 -46 -22.5 -85t-60.5 -61.5t-83 -22.5q-46 0 -84.5 22.5z" />
    <glyph glyph-name="perthousand" unicode="&#x2030;" horiz-adv-x="2332" 
d="M258.5 907.5q-76.5 45.5 -121 129t-44.5 194.5q0 108 43.5 191t118.5 128t168 45q94 0 170.5 -48.5t120.5 -132.5t44 -187q0 -101 -43 -184.5t-118 -132t-167 -48.5q-95 0 -171.5 45.5zM1174 1570h228l-974 -1570h-228zM488 1095.5q26 19.5 41 54t15 77.5q0 72 -34.5 112
t-86.5 40q-50 0 -82 -37.5t-32 -110.5q0 -76 34 -115.5t87 -39.5q32 0 58 19.5zM1004.5 20.5q-76.5 45.5 -120.5 129t-44 194.5q0 109 43 191.5t118 127.5t169 45t170.5 -48.5t120 -132.5t43.5 -186q0 -100 -42.5 -184t-117.5 -133t-168 -49q-95 0 -171.5 45.5zM1739.5 20.5
q-76.5 45.5 -120.5 129t-44 194.5q0 109 43.5 191.5t118.5 127.5t168 45q94 0 170.5 -48.5t120 -132.5t43.5 -186q0 -101 -42.5 -185t-117.5 -132.5t-168 -48.5q-95 0 -171.5 45.5zM1256 234q32 43 32 107q0 70 -33.5 111.5t-84.5 41.5t-83.5 -38.5t-32.5 -111.5
q0 -76 34 -114.5t88 -38.5q48 0 80 43zM1992.5 233.5q32.5 42.5 32.5 107.5q0 71 -34.5 112t-85.5 41t-82.5 -38.5t-31.5 -111.5q0 -76 33.5 -114.5t86.5 -38.5q49 0 81.5 42.5z" />
    <glyph glyph-name="guilsinglleft" unicode="&#x2039;" horiz-adv-x="660" 
d="M23 567l475 396v-235l-200 -161l200 -160v-234z" />
    <glyph glyph-name="guilsinglright" unicode="&#x203a;" horiz-adv-x="660" 
d="M162 407l200 160l-200 161v235l475 -396l-475 -394v234z" />
    <glyph glyph-name="fraction" unicode="&#x2044;" horiz-adv-x="364" 
d="M560 1570h191l-947 -1570h-191z" />
    <glyph glyph-name="Euro" unicode="&#x20ac;" horiz-adv-x="1397" 
d="M589.5 40q-116.5 65 -193 180t-114.5 265h-145v236h113q-2 25 -2 64l1 43q1 12 1 34h-113v246h147q61 225 206 357t363 132q143 0 258 -58.5t197 -173.5l-204 -161q-46 66 -107.5 99t-134.5 33q-108 0 -182 -63t-107 -165h467v-239h-510l-1 -32q-1 -9 -1 -29l1 -42
q1 -12 1 -33h510v-237h-467q60 -259 292 -259q77 0 134 33.5t102 107.5l194 -191q-84 -106 -195.5 -159t-243.5 -53q-150 0 -266.5 65z" />
    <glyph glyph-name="uni20B1" unicode="&#x20b1;" horiz-adv-x="1504" 
d="M1427 1056h-59q-7 -108 -45.5 -189t-105.5 -134q-66 -51 -159 -74.5t-221 -23.5h-221v-635h-336v1056h-132v114h132v400h557q131 0 222.5 -21t157.5 -72q64 -49 102.5 -127t47.5 -180h60v-114zM616 1170h410q-8 37 -37 66q-22 23 -63.5 29.5t-127.5 6.5h-84h-98v-102z
M1028 1056h-412v-123h98q96 0 140.5 2t75 10t50.5 27q37 34 48 84z" />
    <glyph glyph-name="trademark" unicode="&#x2122;" horiz-adv-x="1791" 
d="M248 1422h-218v148h619v-148h-219v-710h-182v710zM783 1570h275l162 -569l157 569h275v-858h-182v669l-193 -635h-114l-200 640v-674h-180v858z" />
    <glyph glyph-name="uni2126" unicode="&#x2126;" horiz-adv-x="1666" 
d="M1602 216v-216h-644v209q122 18 213 96t140.5 203.5t49.5 283.5q0 110 -33.5 208.5t-91.5 157.5q-77 82 -186.5 130t-216.5 48t-215 -48.5t-188 -129.5q-58 -59 -91.5 -157.5t-33.5 -208.5q0 -159 49.5 -285t140.5 -203.5t213 -94.5v-209h-644v225h301
q-136 110 -216.5 265.5t-80.5 310.5q0 143 54.5 284.5t146.5 236.5q107 111 259.5 176t304.5 65q151 0 304 -66t260 -177q92 -96 146 -237.5t54 -288.5q0 -161 -74.5 -316.5t-201.5 -261.5h281z" />
    <glyph glyph-name="arrowleft" unicode="&#x2190;" horiz-adv-x="2339" 
d="M2251 608h-1234v-465l-967 567l967 567v-465h1234v-204z" />
    <glyph glyph-name="arrowright" unicode="&#x2192;" horiz-adv-x="2339" 
d="M1322 143v465h-1233v204h1233v465l967 -567z" />
    <glyph glyph-name="partialdiff" unicode="&#x2202;" horiz-adv-x="1424" 
d="M348 52q-116 66 -177.5 182.5t-61.5 266.5q0 177 83.5 318t220 219.5t288.5 78.5q166 0 312 -98q0 97 -23 162q-31 104 -107 156.5t-178 52.5q-79 0 -150.5 -37.5t-113.5 -137.5l-198 62q60 148 187.5 229.5t299.5 81.5q189 0 313 -96.5t182 -262.5t58 -380
q0 -253 -78.5 -448.5t-227.5 -305t-353 -109.5q-160 0 -276 66zM840 276q86 58 131.5 149.5t45.5 186.5q0 78 -31 142.5t-94.5 103.5t-156.5 39q-120 0 -205 -58t-127.5 -148.5t-42.5 -187.5q0 -93 38.5 -157.5t102 -96t138.5 -31.5q115 0 201 58z" />
    <glyph glyph-name="uni2206" unicode="&#x2206;" horiz-adv-x="1431" 
d="M715 1657l666 -1657h-1331zM1049 228l-334 876l-333 -876h667z" />
    <glyph glyph-name="product" unicode="&#x220f;" horiz-adv-x="1493" 
d="M262 1343h-91v227h1151v-227h-91v-1343h-227v1343h-515v-1343h-227v1343z" />
    <glyph glyph-name="summation" unicode="&#x2211;" horiz-adv-x="1431" 
d="M1306 1313h-750l529 -528l-529 -528h750v-257h-1215v125l628 660l-628 660v125h1215v-257z" />
    <glyph glyph-name="minus" unicode="&#x2212;" horiz-adv-x="1277" 
d="M175 801h924v-205h-924v205z" />
    <glyph glyph-name="radical" unicode="&#x221a;" horiz-adv-x="1336" 
d="M234 601h-175v227h339l162 -512l484 1254h244l-742 -1839z" />
    <glyph glyph-name="infinity" unicode="&#x221e;" horiz-adv-x="2089" 
d="M358 447.5q-100 53.5 -153 149.5t-53 220t53 220t153 149.5t236 53.5q119 0 238.5 -62t211.5 -177q93 116 213 177.5t238 61.5q136 0 236 -53.5t152.5 -149.5t52.5 -220t-52.5 -220t-152.5 -149.5t-236 -53.5q-119 0 -239 62t-212 177q-92 -116 -212 -177.5t-238 -61.5
q-136 0 -236 53.5zM726.5 635q53.5 23 105.5 69.5t92 112.5q-62 100 -143.5 152.5t-152.5 52.5q-109 0 -171.5 -53.5t-62.5 -151.5t62.5 -151.5t171.5 -53.5q45 0 98.5 23zM1632.5 665.5q62.5 53.5 62.5 151.5t-62.5 151.5t-171.5 53.5q-45 0 -98.5 -23t-105.5 -69.5
t-92 -112.5q62 -100 143.5 -152.5t152.5 -52.5q109 0 171.5 53.5z" />
    <glyph glyph-name="integral" unicode="&#x222b;" horiz-adv-x="999" 
d="M46 -280q127 0 200.5 29.5t107 95t33.5 178.5v1240q0 98 45 177t121.5 124t167.5 45q66 0 130.5 -24.5t117.5 -71.5l-145 -173q-50 41 -103 41q-45 0 -76 -30.5t-31 -96.5v-1238q0 -168 -70 -285.5t-197.5 -177.5t-300.5 -60v227z" />
    <glyph glyph-name="approxequal" unicode="&#x2248;" horiz-adv-x="1277" 
d="M715 803q-49 22 -78.5 53t-63.5 79q-24 35 -41 54.5t-40 32.5t-53 13q-47 0 -73.5 -51.5t-26.5 -139.5h-205q0 111 38 195.5t107 131t160 46.5q75 0 126 -23t81.5 -55t64.5 -81q24 -34 39.5 -52t36.5 -30.5t48 -12.5q31 0 54.5 28t37 77t13.5 111h205q0 -117 -38.5 -207
t-109 -140.5t-162.5 -50.5q-71 0 -120 22zM715 254q-49 22 -78.5 53t-63.5 80q-24 35 -41 54.5t-40 32.5t-53 13q-47 0 -73.5 -51.5t-26.5 -139.5h-205q0 111 38 195.5t107 131t160 46.5q75 0 126 -23t81.5 -55t64.5 -82q24 -34 39.5 -52t36.5 -30.5t48 -12.5q31 0 54.5 28
t37 77t13.5 111h205q0 -116 -38.5 -206.5t-109 -141t-162.5 -50.5q-71 0 -120 22z" />
    <glyph glyph-name="notequal" unicode="&#x2260;" horiz-adv-x="1277" 
d="M303 382h-130v230h268l162 269h-430v229h569l277 460h192l-278 -460h162v-229h-301l-161 -269h462v-230h-601l-230 -382h-191z" />
    <glyph glyph-name="lessequal" unicode="&#x2264;" horiz-adv-x="1277" 
d="M-34 862l1208 690l103 -178l-897 -512l897 -512l-103 -177zM-9 0h1261v-205h-1261v205z" />
    <glyph glyph-name="greaterequal" unicode="&#x2265;" horiz-adv-x="1277" 
d="M0 350l897 512l-897 512l103 178l1208 -690l-1208 -689zM25 -205v205h1261v-205h-1261z" />
    <glyph glyph-name="lozenge" unicode="&#x25ca;" horiz-adv-x="1343" 
d="M68 785l424 785h359l423 -785l-423 -785h-359zM685 141l323 644l-323 644h-27l-323 -644l323 -644h27z" />
    <glyph glyph-name="uniF8FF" unicode="&#xf8ff;" horiz-adv-x="1907" 
d="M521.5 47.5q-197.5 115.5 -313 313t-115.5 431.5t115.5 431.5t313 313t431.5 115.5t432 -115.5t313.5 -313t115.5 -431.5t-115.5 -431.5t-313.5 -313t-432 -115.5t-431.5 115.5zM1345.5 116q179.5 105 284 284t104.5 392t-104.5 392t-284 283.5t-392.5 104.5t-392 -104.5
t-283.5 -283.5t-104.5 -392t104.5 -392t284 -284t391.5 -105q213 0 392.5 105zM477.5 466q-11.5 11 -11.5 28v596q0 17 12 29t27 12q17 0 29 -12t12 -29v-596q0 -17 -12 -28t-29 -11q-16 0 -27.5 11zM925.5 466q-10.5 11 -10.5 28v596q0 17 11 29t27 12q17 0 28 -12t11 -29
v-596q0 -17 -11 -28t-28 -11t-27.5 11zM1374 466l-300 299q-9 12 -9 27q0 18 9 27l300 298q11 14 25 14q16 0 28.5 -13t12.5 -28q0 -16 -11 -27l-271 -271l271 -271q11 -11 11 -27t-12.5 -27.5t-28.5 -11.5t-25 11zM627.5 764q-10.5 11 -10.5 28t10.5 28t27.5 11h148
q17 0 29 -11t12 -28t-12 -28t-29 -11h-148q-17 0 -27.5 11z" />
    <glyph glyph-name="i.loclTRK" horiz-adv-x="624" 
d="M162 1110h300v-1110h-300v1110zM217 1238.5q-44 25.5 -70 69.5t-26 96q0 50 26 93.5t70 69.5t95 26t95 -26t70 -69.5t26 -93.5q0 -52 -26 -95.5t-70 -69.5t-95 -26t-95 25.5z" />
    <glyph glyph-name="g.ss01" horiz-adv-x="1295" 
d="M378 -460q-88 25 -152.5 73t-129.5 125l216 180l15 -15q40 -41 72 -66t81.5 -43.5t117.5 -18.5q108 0 160.5 43t64.5 95t12 114v39h-25q-50 -43 -124.5 -67t-159.5 -24q-143 0 -247 69t-159.5 199.5t-55.5 311.5q0 182 56 312.5t161 199.5t251 69q85 0 156 -23.5
t122 -65.5h25l25 63h273v-1083q0 -254 -131 -383t-413 -129q-123 0 -211 25zM797.5 308.5q64.5 83.5 64.5 246.5q0 161 -65 245.5t-185 84.5t-184 -83.5t-64 -246.5q0 -165 63.5 -247.5t184.5 -82.5t185.5 83.5z" />
    <glyph glyph-name="gbreve.ss01" horiz-adv-x="1295" 
d="M378 -460q-88 25 -152.5 73t-129.5 125l216 180l15 -15q40 -41 72 -66t81.5 -43.5t117.5 -18.5q108 0 160.5 43t64.5 95t12 114v39h-25q-50 -43 -124.5 -67t-159.5 -24q-143 0 -247 69t-159.5 199.5t-55.5 311.5q0 182 56 312.5t161 199.5t251 69q85 0 156 -23.5
t122 -65.5h25l25 63h273v-1083q0 -254 -131 -383t-413 -129q-123 0 -211 25zM797.5 308.5q64.5 83.5 64.5 246.5q0 161 -65 245.5t-185 84.5t-184 -83.5t-64 -246.5q0 -165 63.5 -247.5t184.5 -82.5t185.5 83.5zM388 1333q-87 86 -87 237h191q0 -85 43.5 -124.5t115.5 -39.5
q74 0 116.5 40.5t42.5 123.5h191q0 -154 -89 -238.5t-261 -84.5q-176 0 -263 86z" />
    <glyph glyph-name="uni0123.ss01" horiz-adv-x="1295" 
d="M378 -460q-88 25 -152.5 73t-129.5 125l216 180l15 -15q40 -41 72 -66t81.5 -43.5t117.5 -18.5q108 0 160.5 43t64.5 95t12 114v39h-25q-50 -43 -124.5 -67t-159.5 -24q-143 0 -247 69t-159.5 199.5t-55.5 311.5q0 182 56 312.5t161 199.5t251 69q85 0 156 -23.5
t122 -65.5h25l25 63h273v-1083q0 -254 -131 -383t-413 -129q-123 0 -211 25zM797.5 308.5q64.5 83.5 64.5 246.5q0 161 -65 245.5t-185 84.5t-184 -83.5t-64 -246.5q0 -165 63.5 -247.5t184.5 -82.5t185.5 83.5zM764.5 1477.5q38.5 -20.5 61 -54t22.5 -71.5
q0 -39 -23.5 -70.5t-64 -49t-89.5 -17.5q-77 -2 -126 25.5t-71 71t-22 92.5q0 58 30 124t98.5 120.5t176.5 75.5l62 -126q-86 -11 -140 -42t-67 -71q36 13 70 13q44 0 82.5 -20.5z" />
    <glyph glyph-name="gdotaccent.ss01" horiz-adv-x="1295" 
d="M378 -460q-88 25 -152.5 73t-129.5 125l216 180l15 -15q40 -41 72 -66t81.5 -43.5t117.5 -18.5q108 0 160.5 43t64.5 95t12 114v39h-25q-50 -43 -124.5 -67t-159.5 -24q-143 0 -247 69t-159.5 199.5t-55.5 311.5q0 182 56 312.5t161 199.5t251 69q85 0 156 -23.5
t122 -65.5h25l25 63h273v-1083q0 -254 -131 -383t-413 -129q-123 0 -211 25zM797.5 308.5q64.5 83.5 64.5 246.5q0 161 -65 245.5t-185 84.5t-184 -83.5t-64 -246.5q0 -165 63.5 -247.5t184.5 -82.5t185.5 83.5zM556 1238.5q-44 25.5 -70 69.5t-26 96q0 50 26 93.5t70 69.5
t95 26t95 -26t70 -69.5t26 -93.5q0 -52 -26 -95.5t-70 -69.5t-95 -26t-95 25.5z" />
    <glyph glyph-name="T_h" horiz-adv-x="2428" 
d="M2248.5 927q30.5 -73 37.5 -139.5t7 -145.5v-642h-298v594q0 61 -2.5 99.5t-14.5 74.5t-37 63q-56 54 -157 54q-123 0 -178 -77q-27 -41 -34 -96.5t-7 -142.5v-569h-300v1272h-432v-1272h-335v1272h-468v298h1535v-535h25q49 47 123 74t169 27q87 0 156 -23t117 -62
q63 -51 93.5 -124z" />
    <glyph glyph-name="f_f_t" horiz-adv-x="2100" 
d="M2048 7q-29 -11 -88.5 -21.5t-116.5 -10.5q-107 0 -187 41t-123 116.5t-43 174.5v569h-336v-876h-296v876h-357v-876h-296v876h-180v234h180v76q0 124 65.5 217t175.5 142.5t239 49.5q86 0 174 -25t159 -74q69 48 160.5 73.5t200.5 25.5q110 0 224.5 -24t180.5 -58v-403
h223v-234h-223v-530q0 -25 5 -49t32 -48t84 -24q35 0 60.5 8t32.5 10zM858 1188q0 67 19 121q-36 21 -81.5 34t-96.5 13q-100 0 -149 -48t-49 -127v-71h357v78zM1495 1345q-24 5 -60 8t-63 3q-112 0 -165 -47.5t-53 -125.5v-73h341v235z" />
    <glyph glyph-name="f_t" horiz-adv-x="1447" 
d="M1006.5 16q-80.5 41 -123.5 116t-43 175v569h-337v-876h-296v876h-182v234h182v78q0 122 65 214.5t182 142.5t270 50q110 0 225.5 -23.5t183.5 -58.5v-403h223v-234h-223v-530q0 -27 5 -50.5t31.5 -47t84.5 -23.5q34 0 60 8t33 10l48 -236q-30 -11 -87 -21.5t-111 -10.5
q-110 0 -190.5 41zM844 1110v235q-24 5 -60 8t-65 3q-110 0 -163 -48t-53 -125v-73h341z" />
    <glyph glyph-name="t_t" horiz-adv-x="1472" 
d="M1420 7q-39 -13 -94.5 -22.5t-108.5 -9.5q-107 0 -187.5 38.5t-125 113t-44.5 180.5v569h-355v-530q0 -68 29 -94.5t83 -26.5q36 0 100 18l48 -236q-39 -13 -94.5 -22.5t-108.5 -9.5q-107 0 -187.5 38.5t-125 113t-44.5 180.5v569h-175v234h182v269l293 212v-481h362v269
l293 212v-481h221v-234h-221v-530q0 -68 29 -94.5t83 -26.5q36 0 100 18z" />
    <glyph glyph-name="zero.lf" horiz-adv-x="1277" 
d="M299 98.5q-115 125.5 -148 298.5t-33 388q0 218 32.5 391t146.5 298.5t340 125.5t340.5 -125.5t147.5 -298.5t33 -391q0 -216 -33.5 -389.5t-148 -298t-337.5 -124.5q-225 0 -340 125.5zM778.5 328.5q45.5 73.5 57 182t11.5 274.5t-12 274t-57.5 181t-140.5 73
q-93 0 -138.5 -73t-57 -180.5t-11.5 -274.5q0 -168 11.5 -276t57.5 -181t140 -73t139.5 73.5z" />
    <glyph glyph-name="one.lf" horiz-adv-x="899" 
d="M703 1570v-1570h-323v1083h-358v246h192q51 0 88.5 10t64 44.5t26.5 104.5v82h310z" />
    <glyph glyph-name="two.lf" horiz-adv-x="1293" 
d="M112 250l473 444q123 115 179 202t56 185q0 58 -21 109t-66 82.5t-114 31.5q-123 0 -178 -94t-61 -225l-316 21q0 149 68 283.5t198.5 218t307.5 83.5q158 0 272.5 -67t173.5 -180t59 -249q0 -107 -46.5 -207.5t-118.5 -189.5t-188 -209l-168 -173v-22h596v-294h-1106
v250z" />
    <glyph glyph-name="three.lf" horiz-adv-x="1322" 
d="M378 33q-133 60 -214.5 180t-81.5 292l307 18q0 -77 38 -134t103 -87.5t142 -30.5q66 0 120.5 24t87.5 75t33 128t-38 118t-110 58q-47 10 -109.5 14t-147.5 4v257q90 0 143 5t91 22q41 19 62.5 58t21.5 92q0 86 -54 128.5t-139 42.5q-99 0 -158 -54.5t-61 -145.5
l-305 20q0 147 71 256t188.5 166.5t255.5 57.5q134 0 251 -53.5t189 -156t72 -242.5q0 -76 -23.5 -158.5t-85.5 -139.5v-12q104 -46 149.5 -146t45.5 -218q0 -158 -75.5 -270.5t-202.5 -170t-279 -57.5q-154 0 -287 60z" />
    <glyph glyph-name="four.lf" horiz-adv-x="1331" 
d="M732 366h-712v187l762 1017h274v-910h243v-294h-243v-366h-324v366zM732 660v387h-18l-266 -373l9 -14h275z" />
    <glyph glyph-name="five.lf" horiz-adv-x="1322" 
d="M955.5 1002.5q125.5 -69.5 200.5 -195t75 -286.5q0 -159 -74.5 -284t-205.5 -194.5t-295 -69.5q-148 0 -271 57t-202.5 158.5t-100.5 230.5l305 82q4 -65 39.5 -117t94.5 -81.5t132 -29.5q78 0 138.5 32.5t94.5 91t34 133.5q0 73 -35 131t-97.5 91t-140.5 33
q-85 0 -149 -40t-90 -108l-283 84l137 849h894v-298h-641l-33 -242q93 42 203 42q145 0 270.5 -69.5z" />
    <glyph glyph-name="six.lf" horiz-adv-x="1263" 
d="M948 1011q124 -73 193 -197t69 -279q0 -164 -74 -291.5t-205 -199t-296 -71.5q-167 0 -300.5 72.5t-208 197t-74.5 274.5q0 88 27.5 186.5t75.5 172.5l448 694h371l-309 -479q159 -7 283 -80zM771.5 305.5q61.5 32.5 96.5 91.5t35 135t-35 135t-97 92t-139 33
q-79 0 -140.5 -33t-95.5 -92t-34 -132q0 -77 34.5 -136.5t95.5 -92.5t140 -33q78 0 139.5 32.5z" />
    <glyph glyph-name="seven.lf" horiz-adv-x="1192" 
d="M773 1263v11h-737v296h1136v-161l-672 -1409h-355z" />
    <glyph glyph-name="eight.lf" horiz-adv-x="1329" 
d="M381 28q-131 55 -211.5 163.5t-80.5 263.5q0 121 48.5 220.5t146.5 164.5v18q-60 59 -91 137t-31 163q0 132 69.5 231.5t185 153.5t247.5 54q133 0 248.5 -53.5t185 -153.5t69.5 -232q0 -85 -31.5 -163t-91.5 -137v-18q99 -65 147.5 -164.5t48.5 -220.5
q0 -155 -80.5 -263.5t-212 -163.5t-283.5 -55t-283 55zM805 990q55 48 55 130q0 54 -24 97t-68.5 67t-103.5 24t-103 -24t-68 -67t-24 -97q0 -82 55 -130t140 -48q86 0 141 48zM797 292q57 30 87.5 83t30.5 121q0 70 -32 124.5t-89.5 85.5t-129.5 31t-129 -31t-89 -85.5
t-32 -124.5q0 -68 30.5 -121t87 -83t132.5 -30t133 30z" />
    <glyph glyph-name="nine.lf" horiz-adv-x="1265" 
d="M930.5 1524.5q133.5 -72.5 208 -197t74.5 -274.5q0 -88 -27.5 -186.5t-75.5 -172.5l-448 -694h-371l309 479q-159 7 -283 80t-193 197t-69 279q0 164 74 291.5t205 199t296 71.5q167 0 300.5 -72.5zM773.5 811q61.5 33 95.5 92t34 132q0 77 -34.5 136.5t-95.5 92.5
t-140 33q-78 0 -139.5 -32.5t-96.5 -91.5t-35 -135t35 -135t97 -92t139 -33q79 0 140.5 33z" />
    <glyph glyph-name="caroncomb.alt" 
d="M-181 1554.5q49 -38.5 70.5 -96.5t21.5 -122q0 -77 -31 -159.5t-100 -149t-174 -94.5l-62 141q94 23 149.5 79t60.5 125q-36 -17 -73 -17q-45 0 -83 23.5t-60.5 62.5t-22.5 84q0 47 23.5 84t63.5 57.5t90 20.5q78 0 127 -38.5z" />
    <glyph glyph-name="uni0308.case" 
d="M-806 1235.5q-39 22.5 -61.5 61t-22.5 84.5q0 45 22.5 83t61.5 60.5t85 22.5q45 0 83 -22.5t60.5 -60.5t22.5 -83q0 -46 -22.5 -84.5t-60.5 -61t-83 -22.5q-46 0 -85 22.5zM-362.5 1235.5q-38.5 22.5 -61 61t-22.5 84.5q0 45 22.5 83t61 60.5t84.5 22.5q45 0 83 -22.5
t60.5 -60.5t22.5 -83q0 -46 -22.5 -84.5t-60.5 -61t-83 -22.5q-46 0 -84.5 22.5z" />
    <glyph glyph-name="uni0307.case" 
d="M-362 1235.5q-39 22.5 -61.5 61t-22.5 84.5q0 45 22.5 83t61.5 60.5t85 22.5q45 0 83 -22.5t60.5 -60.5t22.5 -83q0 -46 -22.5 -84.5t-60.5 -61t-83 -22.5q-46 0 -85 22.5z" />
    <glyph glyph-name="uni0337.case" 
d="M-708 792l665 521v-298l-665 -523v300z" />
    <glyph glyph-name="uni0338.case" 
d="M-1103 43l960 1586l180 -109l-961 -1586z" />
    <glyph glyph-name="basegreaterlessthan" horiz-adv-x="1261" 
d="M0 0h1261v-205h-1261v205z" />
    <glyph glyph-name="_global" horiz-adv-x="1365" 
 />
    </font>
</defs>
</svg>
